<?xml version="1.0" encoding="utf-8" standalone="no"?>
<!DOCTYPE svg PUBLIC "-//W3C//DTD SVG 1.1//EN"
  "http://www.w3.org/Graphics/SVG/1.1/DTD/svg11.dtd">
<svg xmlns:xlink="http://www.w3.org/1999/xlink" width="704.84875pt" height="622.66pt" viewBox="0 0 704.84875 622.66" xmlns="http://www.w3.org/2000/svg" version="1.1">
 <metadata>
  <rdf:RDF xmlns:dc="http://purl.org/dc/elements/1.1/" xmlns:cc="http://creativecommons.org/ns#" xmlns:rdf="http://www.w3.org/1999/02/22-rdf-syntax-ns#">
   <cc:Work>
    <dc:type rdf:resource="http://purl.org/dc/dcmitype/StillImage"/>
    <dc:date>2025-02-12T14:49:33.162458</dc:date>
    <dc:format>image/svg+xml</dc:format>
    <dc:creator>
     <cc:Agent>
      <dc:title>Matplotlib v3.6.2, https://matplotlib.org/</dc:title>
     </cc:Agent>
    </dc:creator>
   </cc:Work>
  </rdf:RDF>
 </metadata>
 <defs>
  <style type="text/css">*{stroke-linejoin: round; stroke-linecap: butt}</style>
 </defs>
 <g id="figure_1">
  <g id="patch_1">
   <path d="M 0 622.66 
L 704.84875 622.66 
L 704.84875 0 
L 0 0 
z
" style="fill: #ffffff"/>
  </g>
  <g id="axes_1">
   <g id="patch_2">
    <path d="M 63.230625 582.796875 
L 598.910625 582.796875 
L 598.910625 28.396875 
L 63.230625 28.396875 
z
" style="fill: #ffffff"/>
   </g>
   <g id="matplotlib.axis_1">
    <g id="xtick_1">
     <g id="line2d_1">
      <defs>
       <path id="mc971d231a8" d="M 0 0 
L 0 -3.5 
" style="stroke: #000000; stroke-width: 0.8"/>
      </defs>
      <g>
       <use xlink:href="#mc971d231a8" x="63.230625" y="582.796875" style="stroke: #000000; stroke-width: 0.8"/>
      </g>
     </g>
     <g id="line2d_2">
      <defs>
       <path id="m0370ea1e94" d="M 0 0 
L 0 3.5 
" style="stroke: #000000; stroke-width: 0.8"/>
      </defs>
      <g>
       <use xlink:href="#m0370ea1e94" x="63.230625" y="28.396875" style="stroke: #000000; stroke-width: 0.8"/>
      </g>
     </g>
     <g id="text_1">
      <!-- −1.5 -->
      <g transform="translate(43.804375 598.454375) scale(0.16 -0.16)">
       <defs>
        <path id="DejaVuSans-2212" d="M 678 2272 
L 4684 2272 
L 4684 1741 
L 678 1741 
L 678 2272 
z
" transform="scale(0.015625)"/>
        <path id="DejaVuSans-31" d="M 794 531 
L 1825 531 
L 1825 4091 
L 703 3866 
L 703 4441 
L 1819 4666 
L 2450 4666 
L 2450 531 
L 3481 531 
L 3481 0 
L 794 0 
L 794 531 
z
" transform="scale(0.015625)"/>
        <path id="DejaVuSans-2e" d="M 684 794 
L 1344 794 
L 1344 0 
L 684 0 
L 684 794 
z
" transform="scale(0.015625)"/>
        <path id="DejaVuSans-35" d="M 691 4666 
L 3169 4666 
L 3169 4134 
L 1269 4134 
L 1269 2991 
Q 1406 3038 1543 3061 
Q 1681 3084 1819 3084 
Q 2600 3084 3056 2656 
Q 3513 2228 3513 1497 
Q 3513 744 3044 326 
Q 2575 -91 1722 -91 
Q 1428 -91 1123 -41 
Q 819 9 494 109 
L 494 744 
Q 775 591 1075 516 
Q 1375 441 1709 441 
Q 2250 441 2565 725 
Q 2881 1009 2881 1497 
Q 2881 1984 2565 2268 
Q 2250 2553 1709 2553 
Q 1456 2553 1204 2497 
Q 953 2441 691 2322 
L 691 4666 
z
" transform="scale(0.015625)"/>
       </defs>
       <use xlink:href="#DejaVuSans-2212"/>
       <use xlink:href="#DejaVuSans-31" x="83.789062"/>
       <use xlink:href="#DejaVuSans-2e" x="147.412109"/>
       <use xlink:href="#DejaVuSans-35" x="179.199219"/>
      </g>
     </g>
    </g>
    <g id="xtick_2">
     <g id="line2d_3">
      <g>
       <use xlink:href="#mc971d231a8" x="152.510625" y="582.796875" style="stroke: #000000; stroke-width: 0.8"/>
      </g>
     </g>
     <g id="line2d_4">
      <g>
       <use xlink:href="#m0370ea1e94" x="152.510625" y="28.396875" style="stroke: #000000; stroke-width: 0.8"/>
      </g>
     </g>
     <g id="text_2">
      <!-- −1.0 -->
      <g transform="translate(133.084375 598.454375) scale(0.16 -0.16)">
       <defs>
        <path id="DejaVuSans-30" d="M 2034 4250 
Q 1547 4250 1301 3770 
Q 1056 3291 1056 2328 
Q 1056 1369 1301 889 
Q 1547 409 2034 409 
Q 2525 409 2770 889 
Q 3016 1369 3016 2328 
Q 3016 3291 2770 3770 
Q 2525 4250 2034 4250 
z
M 2034 4750 
Q 2819 4750 3233 4129 
Q 3647 3509 3647 2328 
Q 3647 1150 3233 529 
Q 2819 -91 2034 -91 
Q 1250 -91 836 529 
Q 422 1150 422 2328 
Q 422 3509 836 4129 
Q 1250 4750 2034 4750 
z
" transform="scale(0.015625)"/>
       </defs>
       <use xlink:href="#DejaVuSans-2212"/>
       <use xlink:href="#DejaVuSans-31" x="83.789062"/>
       <use xlink:href="#DejaVuSans-2e" x="147.412109"/>
       <use xlink:href="#DejaVuSans-30" x="179.199219"/>
      </g>
     </g>
    </g>
    <g id="xtick_3">
     <g id="line2d_5">
      <g>
       <use xlink:href="#mc971d231a8" x="241.790625" y="582.796875" style="stroke: #000000; stroke-width: 0.8"/>
      </g>
     </g>
     <g id="line2d_6">
      <g>
       <use xlink:href="#m0370ea1e94" x="241.790625" y="28.396875" style="stroke: #000000; stroke-width: 0.8"/>
      </g>
     </g>
     <g id="text_3">
      <!-- −0.5 -->
      <g transform="translate(222.364375 598.454375) scale(0.16 -0.16)">
       <use xlink:href="#DejaVuSans-2212"/>
       <use xlink:href="#DejaVuSans-30" x="83.789062"/>
       <use xlink:href="#DejaVuSans-2e" x="147.412109"/>
       <use xlink:href="#DejaVuSans-35" x="179.199219"/>
      </g>
     </g>
    </g>
    <g id="xtick_4">
     <g id="line2d_7">
      <g>
       <use xlink:href="#mc971d231a8" x="331.070625" y="582.796875" style="stroke: #000000; stroke-width: 0.8"/>
      </g>
     </g>
     <g id="line2d_8">
      <g>
       <use xlink:href="#m0370ea1e94" x="331.070625" y="28.396875" style="stroke: #000000; stroke-width: 0.8"/>
      </g>
     </g>
     <g id="text_4">
      <!-- 0.0 -->
      <g transform="translate(318.348125 598.454375) scale(0.16 -0.16)">
       <use xlink:href="#DejaVuSans-30"/>
       <use xlink:href="#DejaVuSans-2e" x="63.623047"/>
       <use xlink:href="#DejaVuSans-30" x="95.410156"/>
      </g>
     </g>
    </g>
    <g id="xtick_5">
     <g id="line2d_9">
      <g>
       <use xlink:href="#mc971d231a8" x="420.350625" y="582.796875" style="stroke: #000000; stroke-width: 0.8"/>
      </g>
     </g>
     <g id="line2d_10">
      <g>
       <use xlink:href="#m0370ea1e94" x="420.350625" y="28.396875" style="stroke: #000000; stroke-width: 0.8"/>
      </g>
     </g>
     <g id="text_5">
      <!-- 0.5 -->
      <g transform="translate(407.628125 598.454375) scale(0.16 -0.16)">
       <use xlink:href="#DejaVuSans-30"/>
       <use xlink:href="#DejaVuSans-2e" x="63.623047"/>
       <use xlink:href="#DejaVuSans-35" x="95.410156"/>
      </g>
     </g>
    </g>
    <g id="xtick_6">
     <g id="line2d_11">
      <g>
       <use xlink:href="#mc971d231a8" x="509.630625" y="582.796875" style="stroke: #000000; stroke-width: 0.8"/>
      </g>
     </g>
     <g id="line2d_12">
      <g>
       <use xlink:href="#m0370ea1e94" x="509.630625" y="28.396875" style="stroke: #000000; stroke-width: 0.8"/>
      </g>
     </g>
     <g id="text_6">
      <!-- 1.0 -->
      <g transform="translate(496.908125 598.454375) scale(0.16 -0.16)">
       <use xlink:href="#DejaVuSans-31"/>
       <use xlink:href="#DejaVuSans-2e" x="63.623047"/>
       <use xlink:href="#DejaVuSans-30" x="95.410156"/>
      </g>
     </g>
    </g>
    <g id="xtick_7">
     <g id="line2d_13">
      <g>
       <use xlink:href="#mc971d231a8" x="598.910625" y="582.796875" style="stroke: #000000; stroke-width: 0.8"/>
      </g>
     </g>
     <g id="line2d_14">
      <g>
       <use xlink:href="#m0370ea1e94" x="598.910625" y="28.396875" style="stroke: #000000; stroke-width: 0.8"/>
      </g>
     </g>
     <g id="text_7">
      <!-- 1.5 -->
      <g transform="translate(586.188125 598.454375) scale(0.16 -0.16)">
       <use xlink:href="#DejaVuSans-31"/>
       <use xlink:href="#DejaVuSans-2e" x="63.623047"/>
       <use xlink:href="#DejaVuSans-35" x="95.410156"/>
      </g>
     </g>
    </g>
    <g id="text_8">
     <!-- Direction 1 -->
     <g transform="translate(303.715156 613.380313) scale(0.1 -0.1)">
      <defs>
       <path id="DejaVuSans-44" d="M 1259 4147 
L 1259 519 
L 2022 519 
Q 2988 519 3436 956 
Q 3884 1394 3884 2338 
Q 3884 3275 3436 3711 
Q 2988 4147 2022 4147 
L 1259 4147 
z
M 628 4666 
L 1925 4666 
Q 3281 4666 3915 4102 
Q 4550 3538 4550 2338 
Q 4550 1131 3912 565 
Q 3275 0 1925 0 
L 628 0 
L 628 4666 
z
" transform="scale(0.015625)"/>
       <path id="DejaVuSans-69" d="M 603 3500 
L 1178 3500 
L 1178 0 
L 603 0 
L 603 3500 
z
M 603 4863 
L 1178 4863 
L 1178 4134 
L 603 4134 
L 603 4863 
z
" transform="scale(0.015625)"/>
       <path id="DejaVuSans-72" d="M 2631 2963 
Q 2534 3019 2420 3045 
Q 2306 3072 2169 3072 
Q 1681 3072 1420 2755 
Q 1159 2438 1159 1844 
L 1159 0 
L 581 0 
L 581 3500 
L 1159 3500 
L 1159 2956 
Q 1341 3275 1631 3429 
Q 1922 3584 2338 3584 
Q 2397 3584 2469 3576 
Q 2541 3569 2628 3553 
L 2631 2963 
z
" transform="scale(0.015625)"/>
       <path id="DejaVuSans-65" d="M 3597 1894 
L 3597 1613 
L 953 1613 
Q 991 1019 1311 708 
Q 1631 397 2203 397 
Q 2534 397 2845 478 
Q 3156 559 3463 722 
L 3463 178 
Q 3153 47 2828 -22 
Q 2503 -91 2169 -91 
Q 1331 -91 842 396 
Q 353 884 353 1716 
Q 353 2575 817 3079 
Q 1281 3584 2069 3584 
Q 2775 3584 3186 3129 
Q 3597 2675 3597 1894 
z
M 3022 2063 
Q 3016 2534 2758 2815 
Q 2500 3097 2075 3097 
Q 1594 3097 1305 2825 
Q 1016 2553 972 2059 
L 3022 2063 
z
" transform="scale(0.015625)"/>
       <path id="DejaVuSans-63" d="M 3122 3366 
L 3122 2828 
Q 2878 2963 2633 3030 
Q 2388 3097 2138 3097 
Q 1578 3097 1268 2742 
Q 959 2388 959 1747 
Q 959 1106 1268 751 
Q 1578 397 2138 397 
Q 2388 397 2633 464 
Q 2878 531 3122 666 
L 3122 134 
Q 2881 22 2623 -34 
Q 2366 -91 2075 -91 
Q 1284 -91 818 406 
Q 353 903 353 1747 
Q 353 2603 823 3093 
Q 1294 3584 2113 3584 
Q 2378 3584 2631 3529 
Q 2884 3475 3122 3366 
z
" transform="scale(0.015625)"/>
       <path id="DejaVuSans-74" d="M 1172 4494 
L 1172 3500 
L 2356 3500 
L 2356 3053 
L 1172 3053 
L 1172 1153 
Q 1172 725 1289 603 
Q 1406 481 1766 481 
L 2356 481 
L 2356 0 
L 1766 0 
Q 1100 0 847 248 
Q 594 497 594 1153 
L 594 3053 
L 172 3053 
L 172 3500 
L 594 3500 
L 594 4494 
L 1172 4494 
z
" transform="scale(0.015625)"/>
       <path id="DejaVuSans-6f" d="M 1959 3097 
Q 1497 3097 1228 2736 
Q 959 2375 959 1747 
Q 959 1119 1226 758 
Q 1494 397 1959 397 
Q 2419 397 2687 759 
Q 2956 1122 2956 1747 
Q 2956 2369 2687 2733 
Q 2419 3097 1959 3097 
z
M 1959 3584 
Q 2709 3584 3137 3096 
Q 3566 2609 3566 1747 
Q 3566 888 3137 398 
Q 2709 -91 1959 -91 
Q 1206 -91 779 398 
Q 353 888 353 1747 
Q 353 2609 779 3096 
Q 1206 3584 1959 3584 
z
" transform="scale(0.015625)"/>
       <path id="DejaVuSans-6e" d="M 3513 2113 
L 3513 0 
L 2938 0 
L 2938 2094 
Q 2938 2591 2744 2837 
Q 2550 3084 2163 3084 
Q 1697 3084 1428 2787 
Q 1159 2491 1159 1978 
L 1159 0 
L 581 0 
L 581 3500 
L 1159 3500 
L 1159 2956 
Q 1366 3272 1645 3428 
Q 1925 3584 2291 3584 
Q 2894 3584 3203 3211 
Q 3513 2838 3513 2113 
z
" transform="scale(0.015625)"/>
       <path id="DejaVuSans-20" transform="scale(0.015625)"/>
      </defs>
      <use xlink:href="#DejaVuSans-44"/>
      <use xlink:href="#DejaVuSans-69" x="77.001953"/>
      <use xlink:href="#DejaVuSans-72" x="104.785156"/>
      <use xlink:href="#DejaVuSans-65" x="143.648438"/>
      <use xlink:href="#DejaVuSans-63" x="205.171875"/>
      <use xlink:href="#DejaVuSans-74" x="260.152344"/>
      <use xlink:href="#DejaVuSans-69" x="299.361328"/>
      <use xlink:href="#DejaVuSans-6f" x="327.144531"/>
      <use xlink:href="#DejaVuSans-6e" x="388.326172"/>
      <use xlink:href="#DejaVuSans-20" x="451.705078"/>
      <use xlink:href="#DejaVuSans-31" x="483.492188"/>
     </g>
    </g>
   </g>
   <g id="matplotlib.axis_2">
    <g id="ytick_1">
     <g id="line2d_15">
      <defs>
       <path id="m19dd889cb3" d="M 0 0 
L 3.5 0 
" style="stroke: #000000; stroke-width: 0.8"/>
      </defs>
      <g>
       <use xlink:href="#m19dd889cb3" x="63.230625" y="582.796875" style="stroke: #000000; stroke-width: 0.8"/>
      </g>
     </g>
     <g id="line2d_16">
      <defs>
       <path id="ma6bcaa5d14" d="M 0 0 
L -3.5 0 
" style="stroke: #000000; stroke-width: 0.8"/>
      </defs>
      <g>
       <use xlink:href="#ma6bcaa5d14" x="598.910625" y="582.796875" style="stroke: #000000; stroke-width: 0.8"/>
      </g>
     </g>
     <g id="text_9">
      <!-- −1.5 -->
      <g transform="translate(20.878125 588.875625) scale(0.16 -0.16)">
       <use xlink:href="#DejaVuSans-2212"/>
       <use xlink:href="#DejaVuSans-31" x="83.789062"/>
       <use xlink:href="#DejaVuSans-2e" x="147.412109"/>
       <use xlink:href="#DejaVuSans-35" x="179.199219"/>
      </g>
     </g>
    </g>
    <g id="ytick_2">
     <g id="line2d_17">
      <g>
       <use xlink:href="#m19dd889cb3" x="63.230625" y="490.396875" style="stroke: #000000; stroke-width: 0.8"/>
      </g>
     </g>
     <g id="line2d_18">
      <g>
       <use xlink:href="#ma6bcaa5d14" x="598.910625" y="490.396875" style="stroke: #000000; stroke-width: 0.8"/>
      </g>
     </g>
     <g id="text_10">
      <!-- −1.0 -->
      <g transform="translate(20.878125 496.475625) scale(0.16 -0.16)">
       <use xlink:href="#DejaVuSans-2212"/>
       <use xlink:href="#DejaVuSans-31" x="83.789062"/>
       <use xlink:href="#DejaVuSans-2e" x="147.412109"/>
       <use xlink:href="#DejaVuSans-30" x="179.199219"/>
      </g>
     </g>
    </g>
    <g id="ytick_3">
     <g id="line2d_19">
      <g>
       <use xlink:href="#m19dd889cb3" x="63.230625" y="397.996875" style="stroke: #000000; stroke-width: 0.8"/>
      </g>
     </g>
     <g id="line2d_20">
      <g>
       <use xlink:href="#ma6bcaa5d14" x="598.910625" y="397.996875" style="stroke: #000000; stroke-width: 0.8"/>
      </g>
     </g>
     <g id="text_11">
      <!-- −0.5 -->
      <g transform="translate(20.878125 404.075625) scale(0.16 -0.16)">
       <use xlink:href="#DejaVuSans-2212"/>
       <use xlink:href="#DejaVuSans-30" x="83.789062"/>
       <use xlink:href="#DejaVuSans-2e" x="147.412109"/>
       <use xlink:href="#DejaVuSans-35" x="179.199219"/>
      </g>
     </g>
    </g>
    <g id="ytick_4">
     <g id="line2d_21">
      <g>
       <use xlink:href="#m19dd889cb3" x="63.230625" y="305.596875" style="stroke: #000000; stroke-width: 0.8"/>
      </g>
     </g>
     <g id="line2d_22">
      <g>
       <use xlink:href="#ma6bcaa5d14" x="598.910625" y="305.596875" style="stroke: #000000; stroke-width: 0.8"/>
      </g>
     </g>
     <g id="text_12">
      <!-- 0.0 -->
      <g transform="translate(34.285625 311.675625) scale(0.16 -0.16)">
       <use xlink:href="#DejaVuSans-30"/>
       <use xlink:href="#DejaVuSans-2e" x="63.623047"/>
       <use xlink:href="#DejaVuSans-30" x="95.410156"/>
      </g>
     </g>
    </g>
    <g id="ytick_5">
     <g id="line2d_23">
      <g>
       <use xlink:href="#m19dd889cb3" x="63.230625" y="213.196875" style="stroke: #000000; stroke-width: 0.8"/>
      </g>
     </g>
     <g id="line2d_24">
      <g>
       <use xlink:href="#ma6bcaa5d14" x="598.910625" y="213.196875" style="stroke: #000000; stroke-width: 0.8"/>
      </g>
     </g>
     <g id="text_13">
      <!-- 0.5 -->
      <g transform="translate(34.285625 219.275625) scale(0.16 -0.16)">
       <use xlink:href="#DejaVuSans-30"/>
       <use xlink:href="#DejaVuSans-2e" x="63.623047"/>
       <use xlink:href="#DejaVuSans-35" x="95.410156"/>
      </g>
     </g>
    </g>
    <g id="ytick_6">
     <g id="line2d_25">
      <g>
       <use xlink:href="#m19dd889cb3" x="63.230625" y="120.796875" style="stroke: #000000; stroke-width: 0.8"/>
      </g>
     </g>
     <g id="line2d_26">
      <g>
       <use xlink:href="#ma6bcaa5d14" x="598.910625" y="120.796875" style="stroke: #000000; stroke-width: 0.8"/>
      </g>
     </g>
     <g id="text_14">
      <!-- 1.0 -->
      <g transform="translate(34.285625 126.875625) scale(0.16 -0.16)">
       <use xlink:href="#DejaVuSans-31"/>
       <use xlink:href="#DejaVuSans-2e" x="63.623047"/>
       <use xlink:href="#DejaVuSans-30" x="95.410156"/>
      </g>
     </g>
    </g>
    <g id="ytick_7">
     <g id="line2d_27">
      <g>
       <use xlink:href="#m19dd889cb3" x="63.230625" y="28.396875" style="stroke: #000000; stroke-width: 0.8"/>
      </g>
     </g>
     <g id="line2d_28">
      <g>
       <use xlink:href="#ma6bcaa5d14" x="598.910625" y="28.396875" style="stroke: #000000; stroke-width: 0.8"/>
      </g>
     </g>
     <g id="text_15">
      <!-- 1.5 -->
      <g transform="translate(34.285625 34.475625) scale(0.16 -0.16)">
       <use xlink:href="#DejaVuSans-31"/>
       <use xlink:href="#DejaVuSans-2e" x="63.623047"/>
       <use xlink:href="#DejaVuSans-35" x="95.410156"/>
      </g>
     </g>
    </g>
    <g id="text_16">
     <!-- Direction 2 -->
     <g transform="translate(14.798437 332.952344) rotate(-90) scale(0.1 -0.1)">
      <defs>
       <path id="DejaVuSans-32" d="M 1228 531 
L 3431 531 
L 3431 0 
L 469 0 
L 469 531 
Q 828 903 1448 1529 
Q 2069 2156 2228 2338 
Q 2531 2678 2651 2914 
Q 2772 3150 2772 3378 
Q 2772 3750 2511 3984 
Q 2250 4219 1831 4219 
Q 1534 4219 1204 4116 
Q 875 4013 500 3803 
L 500 4441 
Q 881 4594 1212 4672 
Q 1544 4750 1819 4750 
Q 2544 4750 2975 4387 
Q 3406 4025 3406 3419 
Q 3406 3131 3298 2873 
Q 3191 2616 2906 2266 
Q 2828 2175 2409 1742 
Q 1991 1309 1228 531 
z
" transform="scale(0.015625)"/>
      </defs>
      <use xlink:href="#DejaVuSans-44"/>
      <use xlink:href="#DejaVuSans-69" x="77.001953"/>
      <use xlink:href="#DejaVuSans-72" x="104.785156"/>
      <use xlink:href="#DejaVuSans-65" x="143.648438"/>
      <use xlink:href="#DejaVuSans-63" x="205.171875"/>
      <use xlink:href="#DejaVuSans-74" x="260.152344"/>
      <use xlink:href="#DejaVuSans-69" x="299.361328"/>
      <use xlink:href="#DejaVuSans-6f" x="327.144531"/>
      <use xlink:href="#DejaVuSans-6e" x="388.326172"/>
      <use xlink:href="#DejaVuSans-20" x="451.705078"/>
      <use xlink:href="#DejaVuSans-32" x="483.492188"/>
     </g>
    </g>
   </g>
   <g id="PathCollection_1"/>
   <g id="PathCollection_2">
    <path d="M 146.54735 582.796875 
L 150.688585 578.251897 
L 157.222513 571.482595 
L 161.620825 566.70294 
L 167.931399 560.168314 
L 172.553075 555.292943 
L 178.775812 548.854012 
L 183.485325 544.093811 
L 189.81557 537.539732 
L 194.417565 533.073784 
L 201.035371 526.225451 
L 205.349805 521.863232 
L 212.080237 514.911149 
L 216.282055 510.658791 
L 223.1203 503.596869 
L 227.214305 499.408315 
L 234.122268 492.282588 
L 233.055274 480.968308 
L 238.146545 475.51641 
L 243.830987 469.654017 
L 249.07879 464.152737 
L 254.705737 458.339725 
L 260.011035 452.770447 
L 270.94328 453.554483 
L 281.875525 453.700162 
L 288.327455 447.025445 
L 292.80777 441.913262 
L 303.740015 442.44761 
L 314.67226 442.848015 
L 321.580813 435.711165 
L 325.604505 431.449851 
L 332.42664 424.396873 
L 336.536745 419.538814 
L 340.504286 424.396873 
L 347.46899 431.74158 
L 354.571745 424.396873 
L 358.401235 419.297506 
L 369.33348 420.680495 
L 376.856539 413.082582 
L 376.484858 401.768302 
L 376.407607 390.454016 
L 376.615925 379.13973 
L 369.33348 372.23985 
L 364.62546 367.825444 
L 366.060876 356.511158 
L 364.459901 345.196873 
L 369.33348 341.615262 
L 378.023657 333.882587 
L 378.073555 322.568301 
L 378.851597 311.254015 
L 369.33348 301.850824 
L 366.72373 299.939735 
L 358.401235 291.985419 
L 354.122092 288.625449 
L 347.46899 282.121327 
L 342.559651 277.311163 
L 345.08683 265.996877 
L 336.536745 257.680877 
L 333.188635 254.682592 
L 325.604505 247.418659 
L 322.546648 243.368306 
L 314.67226 235.138815 
L 303.740015 235.964986 
L 300.418635 232.05402 
L 292.80777 224.138485 
L 281.875525 226.601383 
L 276.929383 220.739734 
L 270.94328 214.576631 
L 266.701454 209.425448 
L 260.011035 202.526861 
L 256.095281 198.111168 
L 249.07879 190.861871 
L 238.146545 191.984015 
L 233.65651 186.796877 
L 227.214305 180.096669 
L 223.381115 175.482585 
L 216.282055 168.096757 
L 205.349805 168.799424 
L 201.531956 164.168305 
L 194.417565 156.766504 
L 183.485325 157.292101 
L 172.553075 157.987848 
L 168.241958 152.854025 
L 161.620825 145.970342 
L 150.688585 146.529371 
L 146.442966 141.539733 
L 139.756345 134.577638 
L 128.824106 135.138986 
L 124.754033 130.225442 
L 117.891845 123.068824 
L 106.959605 123.484841 
L 96.027365 123.828838 
L 92.045947 118.911162 
L 85.095104 111.651992 
L 74.162865 111.894062 
L 63.230625 112.086254 
" clip-path="url(#p6abaa58ddc)" style="fill: none; stroke: #460b5e; stroke-width: 1.5"/>
    <path d="M 63.230625 521.7841 
L 74.162865 521.708378 
L 78.364037 526.225451 
L 78.405506 537.539732 
L 78.551459 548.854012 
L 78.638918 560.168314 
L 74.162865 564.394211 
L 67.294707 571.482595 
L 67.398897 582.796875 
" clip-path="url(#p6abaa58ddc)" style="fill: none; stroke: #460b5e; stroke-width: 1.5"/>
    <path d="M 63.230625 227.699176 
L 67.433317 232.05402 
L 74.162865 239.029253 
L 78.177407 243.368306 
L 85.095104 250.53352 
L 96.027365 249.99592 
L 100.358535 254.682592 
L 106.959605 261.518639 
L 111.205563 265.996877 
L 117.891845 272.906724 
L 122.433916 277.311163 
L 122.093982 288.625449 
L 128.824106 295.580804 
L 133.189196 299.939735 
L 132.825015 311.254015 
L 133.209348 322.568301 
L 128.824106 327.242794 
L 117.891845 326.908514 
L 111.187726 333.882587 
L 106.959605 338.73339 
L 96.027365 338.385305 
L 85.095104 338.013104 
L 78.190662 345.196873 
L 74.162865 350.419619 
L 63.230625 349.95149 
" clip-path="url(#p6abaa58ddc)" style="fill: none; stroke: #460b5e; stroke-width: 1.5"/>
    <path d="M 214.590212 28.396875 
L 216.282055 30.250518 
L 224.104247 39.711155 
L 227.214305 43.406336 
L 232.892385 51.025436 
L 238.146545 57.985507 
L 240.940998 62.339738 
L 248.307225 73.654018 
L 249.07879 74.771394 
L 254.502462 84.968299 
L 260.011035 94.859922 
L 260.637675 96.282601 
L 265.735746 107.596881 
L 270.94328 117.83252 
L 271.415087 118.911162 
L 276.542474 130.225442 
L 281.875525 141.417653 
L 281.930836 141.539733 
L 287.600247 152.854025 
L 292.80777 162.723419 
L 293.83444 164.168305 
L 300.913349 175.482585 
L 303.740015 179.339349 
L 313.054119 186.796877 
L 314.67226 188.085207 
L 325.604505 195.103306 
L 327.911323 198.111168 
L 336.536745 209.077446 
L 336.76898 209.425448 
L 343.845396 220.739734 
L 346.906655 232.05402 
L 347.46899 233.850745 
L 352.265313 243.368306 
L 358.401235 251.703019 
L 360.020347 254.682592 
L 365.462635 265.996877 
L 369.33348 273.915281 
L 370.73991 277.311163 
L 375.557301 288.625449 
L 380.265725 296.3702 
L 383.811819 299.939735 
L 390.063126 311.254015 
L 391.19797 313.304105 
L 396.53508 322.568301 
L 400.395794 333.882587 
L 402.130215 338.236799 
L 404.832573 345.196873 
L 407.77211 356.511158 
L 409.633379 367.825444 
L 411.582533 379.13973 
L 413.06246 388.582251 
L 413.350802 390.454016 
L 416.925216 401.768302 
L 421.12056 413.082582 
L 423.994705 420.237561 
L 425.564009 424.396873 
L 429.121041 435.711165 
L 432.321239 447.025445 
L 434.652939 458.339725 
L 434.926945 459.978638 
L 436.561516 469.654017 
L 437.65734 480.968308 
L 438.375168 492.282588 
L 439.299425 503.596869 
L 439.995777 514.911149 
L 440.219631 526.225451 
L 439.806702 537.539732 
L 438.639104 548.854012 
L 436.265279 560.168314 
L 434.926945 565.1361 
L 432.404802 571.482595 
L 426.513139 582.796875 
" clip-path="url(#p6abaa58ddc)" style="fill: none; stroke: #460b5e; stroke-width: 1.5"/>
   </g>
   <g id="PathCollection_3">
    <path d="M 141.760999 582.796875 
L 150.688585 572.99891 
L 152.152176 571.482595 
L 150.688585 563.140923 
L 139.756345 570.20226 
L 135.769501 571.482595 
L 128.824106 573.848034 
L 117.891845 574.31444 
L 106.959605 575.279228 
L 98.614789 571.482595 
L 96.908444 560.168314 
L 100.069482 548.854012 
L 102.61954 537.539732 
L 104.247699 526.225451 
L 106.629798 514.911149 
L 106.959605 509.778572 
L 107.399439 503.596869 
L 107.546604 492.282588 
L 106.959605 491.06038 
L 96.027365 490.047705 
L 85.095104 488.820717 
L 74.162865 482.982842 
L 71.838208 480.968308 
L 63.230625 475.607031 
" clip-path="url(#p6abaa58ddc)" style="fill: none; stroke: #481769; stroke-width: 1.5"/>
    <path d="M 63.230625 516.795464 
L 74.162865 516.642847 
L 83.075311 526.225451 
L 83.182062 537.539732 
L 83.507451 548.854012 
L 83.699036 560.168314 
L 74.162865 569.171532 
L 71.923603 571.482595 
L 72.155079 582.796875 
" clip-path="url(#p6abaa58ddc)" style="fill: none; stroke: #481769; stroke-width: 1.5"/>
    <path d="M 63.230625 360.800819 
L 74.162865 356.769184 
L 74.771037 356.511158 
L 74.162865 356.452366 
L 63.230625 355.49173 
" clip-path="url(#p6abaa58ddc)" style="fill: none; stroke: #481769; stroke-width: 1.5"/>
    <path d="M 63.230625 222.595428 
L 72.358747 232.05402 
L 74.162865 233.924003 
L 82.900844 243.368306 
L 85.095104 245.641077 
L 96.027365 244.526645 
L 105.412943 254.682592 
L 106.959605 256.284309 
L 116.168394 265.996877 
L 117.891845 267.777953 
L 127.722952 277.311163 
L 127.006288 288.625449 
L 128.824106 290.504102 
L 138.273072 299.939735 
L 137.513917 311.254015 
L 138.287993 322.568301 
L 128.824106 332.656426 
L 117.891845 331.977407 
L 116.060411 333.882587 
L 106.959605 344.323683 
L 96.027365 343.616481 
L 85.095104 342.853797 
L 82.843135 345.196873 
L 85.095104 353.629159 
L 96.027365 350.887426 
L 106.959605 348.313049 
L 117.891845 345.700221 
L 119.971216 345.196873 
L 128.824106 341.653831 
L 139.756345 336.459741 
L 146.023221 333.882587 
L 150.688585 328.367853 
L 154.482566 322.568301 
L 161.620825 312.232514 
L 162.324402 311.254015 
L 161.620825 310.414372 
L 154.288252 299.939735 
L 150.688585 294.410039 
L 147.277395 288.625449 
L 139.756345 279.934205 
L 137.835375 277.311163 
L 131.692348 265.996877 
L 128.824106 262.562645 
L 121.855669 254.682592 
L 117.891845 250.24847 
L 108.892188 243.368306 
L 106.959605 241.537452 
L 98.561742 232.05402 
L 96.027365 230.560054 
L 85.095104 223.165093 
L 82.612252 220.739734 
L 74.162865 214.751541 
L 65.994166 209.425448 
L 63.230625 206.868202 
" clip-path="url(#p6abaa58ddc)" style="fill: none; stroke: #481769; stroke-width: 1.5"/>
    <path d="M 63.230625 128.205932 
L 74.162865 128.474507 
L 85.095104 130.113174 
L 87.203288 118.911162 
L 85.095104 116.709463 
L 74.162865 117.191843 
L 63.230625 117.572239 
" clip-path="url(#p6abaa58ddc)" style="fill: none; stroke: #481769; stroke-width: 1.5"/>
    <path d="M 284.605621 28.396875 
L 290.284318 39.711155 
L 292.80777 44.757707 
L 296.42952 51.025436 
L 302.994282 62.339738 
L 303.740015 63.596044 
L 310.963323 73.654018 
L 314.67226 78.718944 
L 318.985797 84.968299 
L 325.604505 94.210452 
L 326.849359 96.282601 
L 333.297876 107.596881 
L 336.536745 113.806947 
L 339.657444 118.911162 
L 345.945341 130.225442 
L 347.46899 133.323329 
L 352.36727 141.539733 
L 358.401235 151.762817 
L 359.310781 152.854025 
L 369.33348 163.430556 
L 369.859088 164.168305 
L 377.264636 175.482585 
L 380.265725 180.240314 
L 384.012918 186.796877 
L 390.205942 198.111168 
L 391.19797 200.016435 
L 395.838593 209.425448 
L 398.54449 220.739734 
L 400.640107 232.05402 
L 402.130215 238.911894 
L 403.315805 243.368306 
L 409.508318 254.682592 
L 413.06246 261.535607 
L 414.953119 265.996877 
L 418.689008 277.311163 
L 423.994705 288.526748 
L 424.042757 288.625449 
L 428.643061 299.939735 
L 434.920628 311.254015 
L 434.926945 311.263446 
L 441.662216 322.568301 
L 445.859195 329.602962 
L 448.444413 333.882587 
L 454.847454 345.196873 
L 456.791445 349.163462 
L 460.172213 356.511158 
L 462.591913 367.825444 
L 464.09256 379.13973 
L 467.569544 390.454016 
L 467.723685 390.924176 
L 471.45104 401.768302 
L 474.990355 413.082582 
L 478.655925 423.967152 
L 478.803718 424.396873 
L 483.201605 435.711165 
L 487.790411 447.025445 
L 489.588175 451.299026 
L 492.647707 458.339725 
L 496.668496 469.654017 
L 500.267367 480.968308 
L 500.520425 481.941239 
L 503.336786 492.282588 
L 505.664455 503.596869 
L 507.402714 514.911149 
L 508.930978 526.225451 
L 509.796166 537.539732 
L 510.570664 548.854012 
L 511.423687 560.168314 
L 511.452665 562.345667 
L 511.570021 571.482595 
L 511.452665 574.01968 
L 511.011215 582.796875 
" clip-path="url(#p6abaa58ddc)" style="fill: none; stroke: #481769; stroke-width: 1.5"/>
    <path d="M 161.620825 561.192996 
L 162.610374 560.168314 
L 161.620825 554.812889 
L 154.581973 560.168314 
L 161.620825 561.192996 
z
" clip-path="url(#p6abaa58ddc)" style="fill: none; stroke: #481769; stroke-width: 1.5"/>
    <path d="M 172.553075 549.679833 
L 173.351169 548.854012 
L 172.553075 544.802796 
L 168.010213 548.854012 
L 172.553075 549.679833 
z
" clip-path="url(#p6abaa58ddc)" style="fill: none; stroke: #481769; stroke-width: 1.5"/>
    <path d="M 183.485325 538.610782 
L 184.519797 537.539732 
L 183.485325 532.537879 
L 178.833882 537.539732 
L 183.485325 538.610782 
z
" clip-path="url(#p6abaa58ddc)" style="fill: none; stroke: #481769; stroke-width: 1.5"/>
    <path d="M 194.417565 527.934568 
L 196.06915 526.225451 
L 194.417565 519.136509 
L 188.139273 526.225451 
L 194.417565 527.934568 
z
" clip-path="url(#p6abaa58ddc)" style="fill: none; stroke: #481769; stroke-width: 1.5"/>
    <path d="M 205.349805 516.842007 
L 207.219102 514.911149 
L 205.349805 505.986179 
L 198.136117 514.911149 
L 205.349805 516.842007 
z
" clip-path="url(#p6abaa58ddc)" style="fill: none; stroke: #481769; stroke-width: 1.5"/>
    <path d="M 216.282055 505.739186 
L 218.356517 503.596869 
L 216.282055 492.96245 
L 207.440075 503.596869 
L 216.282055 505.739186 
z
" clip-path="url(#p6abaa58ddc)" style="fill: none; stroke: #481769; stroke-width: 1.5"/>
    <path d="M 227.214305 494.534515 
L 229.397412 492.282588 
L 227.214305 481.039318 
L 216.903316 492.282588 
L 227.214305 494.534515 
z
" clip-path="url(#p6abaa58ddc)" style="fill: none; stroke: #481769; stroke-width: 1.5"/>
    <path d="M 270.94328 447.899444 
L 281.875525 448.169597 
L 282.981488 447.025445 
L 281.875525 440.62225 
L 270.94328 443.552196 
L 264.63637 447.025445 
L 270.94328 447.899444 
z
" clip-path="url(#p6abaa58ddc)" style="fill: none; stroke: #481769; stroke-width: 1.5"/>
    <path d="M 292.80777 435.813342 
L 303.740015 436.847262 
L 314.67226 437.579163 
L 316.480504 435.711165 
L 325.604505 426.048341 
L 327.20192 424.396873 
L 325.604505 415.717784 
L 314.67226 423.323428 
L 313.49072 424.396873 
L 303.740015 429.35854 
L 292.80777 435.196707 
L 291.763871 435.711165 
L 292.80777 435.813342 
z
" clip-path="url(#p6abaa58ddc)" style="fill: none; stroke: #481769; stroke-width: 1.5"/>
    <path d="M 347.46899 426.422907 
L 349.428282 424.396873 
L 347.46899 415.698886 
L 345.547779 424.396873 
L 347.46899 426.422907 
z
" clip-path="url(#p6abaa58ddc)" style="fill: none; stroke: #481769; stroke-width: 1.5"/>
    <path d="M 336.536745 413.363303 
L 339.641932 413.082582 
L 336.536745 412.18346 
L 332.943182 413.082582 
L 336.536745 413.363303 
z
" clip-path="url(#p6abaa58ddc)" style="fill: none; stroke: #481769; stroke-width: 1.5"/>
    <path d="M 369.33348 415.312744 
L 371.54167 413.082582 
L 370.504159 401.768302 
L 369.970853 390.454016 
L 369.686113 379.13973 
L 369.33348 378.805622 
L 368.28377 379.13973 
L 367.523757 390.454016 
L 366.100528 401.768302 
L 360.39349 413.082582 
L 369.33348 415.312744 
z
" clip-path="url(#p6abaa58ddc)" style="fill: none; stroke: #481769; stroke-width: 1.5"/>
    <path d="M 347.46899 363.795154 
L 358.401235 365.496943 
L 360.700332 356.511158 
L 358.401235 349.241117 
L 347.46899 345.409544 
L 337.402417 356.511158 
L 347.46899 363.795154 
z
" clip-path="url(#p6abaa58ddc)" style="fill: none; stroke: #481769; stroke-width: 1.5"/>
    <path d="M 369.33348 335.767527 
L 371.451824 333.882587 
L 370.644437 322.568301 
L 372.439534 311.254015 
L 369.33348 308.185466 
L 363.959655 311.254015 
L 366.762257 322.568301 
L 364.264149 333.882587 
L 369.33348 335.767527 
z
" clip-path="url(#p6abaa58ddc)" style="fill: none; stroke: #481769; stroke-width: 1.5"/>
    <path d="M 336.536745 270.073434 
L 338.193511 265.996877 
L 336.536745 264.385471 
L 332.9412 265.996877 
L 336.536745 270.073434 
z
" clip-path="url(#p6abaa58ddc)" style="fill: none; stroke: #481769; stroke-width: 1.5"/>
    <path d="M 325.604505 254.974618 
L 325.701784 254.682592 
L 325.604505 254.589419 
L 325.287965 254.682592 
L 325.604505 254.974618 
z
" clip-path="url(#p6abaa58ddc)" style="fill: none; stroke: #481769; stroke-width: 1.5"/>
    <path d="M 303.740015 246.543332 
L 314.67226 249.144857 
L 317.133007 243.368306 
L 314.67226 240.79659 
L 303.740015 241.991421 
L 299.46817 243.368306 
L 303.740015 246.543332 
z
" clip-path="url(#p6abaa58ddc)" style="fill: none; stroke: #481769; stroke-width: 1.5"/>
    <path d="M 292.80777 238.589083 
L 295.300697 232.05402 
L 292.80777 229.461298 
L 286.20356 232.05402 
L 292.80777 238.589083 
z
" clip-path="url(#p6abaa58ddc)" style="fill: none; stroke: #481769; stroke-width: 1.5"/>
    <path d="M 260.011035 213.040729 
L 260.97158 209.425448 
L 260.011035 208.435016 
L 254.221592 209.425448 
L 260.011035 213.040729 
z
" clip-path="url(#p6abaa58ddc)" style="fill: none; stroke: #481769; stroke-width: 1.5"/>
    <path d="M 249.07879 205.973815 
L 250.856039 198.111168 
L 249.07879 196.27495 
L 239.940114 198.111168 
L 249.07879 205.973815 
z
" clip-path="url(#p6abaa58ddc)" style="fill: none; stroke: #481769; stroke-width: 1.5"/>
    <path d="M 227.214305 190.453657 
L 227.974507 186.796877 
L 227.214305 186.006229 
L 221.344755 186.796877 
L 227.214305 190.453657 
z
" clip-path="url(#p6abaa58ddc)" style="fill: none; stroke: #481769; stroke-width: 1.5"/>
    <path d="M 205.349805 178.630869 
L 216.282055 184.471177 
L 218.471697 175.482585 
L 216.282055 173.204492 
L 205.349805 174.662944 
L 198.450734 175.482585 
L 205.349805 178.630869 
z
" clip-path="url(#p6abaa58ddc)" style="fill: none; stroke: #481769; stroke-width: 1.5"/>
    <path d="M 183.485325 169.54539 
L 194.417565 173.81218 
L 196.698128 164.168305 
L 194.417565 161.795611 
L 183.485325 162.82193 
L 172.962218 164.168305 
L 183.485325 169.54539 
z
" clip-path="url(#p6abaa58ddc)" style="fill: none; stroke: #481769; stroke-width: 1.5"/>
    <path d="M 150.688585 154.379358 
L 161.620825 159.797382 
L 163.002334 152.854025 
L 161.620825 151.417734 
L 150.688585 152.557227 
L 147.958146 152.854025 
L 150.688585 154.379358 
z
" clip-path="url(#p6abaa58ddc)" style="fill: none; stroke: #481769; stroke-width: 1.5"/>
    <path d="M 128.824106 143.675878 
L 139.756345 149.148392 
L 141.31394 141.539733 
L 139.756345 139.917969 
L 128.824106 141.116202 
L 124.342199 141.539733 
L 128.824106 143.675878 
z
" clip-path="url(#p6abaa58ddc)" style="fill: none; stroke: #481769; stroke-width: 1.5"/>
    <path d="M 96.027365 132.742577 
L 106.959605 135.718099 
L 117.891845 139.175157 
L 119.802881 130.225442 
L 117.891845 128.232411 
L 106.959605 129.109026 
L 96.027365 129.810284 
L 85.741668 130.225442 
L 96.027365 132.742577 
z
" clip-path="url(#p6abaa58ddc)" style="fill: none; stroke: #481769; stroke-width: 1.5"/>
   </g>
   <g id="PathCollection_4">
    <path d="M 346.12572 28.396875 
L 347.46899 30.581659 
L 354.532745 39.711155 
L 358.401235 44.643281 
L 363.308367 51.025436 
L 369.33348 59.181697 
L 371.496317 62.339738 
L 379.571324 73.654018 
L 380.265725 74.576553 
L 388.02778 84.968299 
L 391.19797 89.3313 
L 395.686222 96.282601 
L 402.130215 106.129642 
L 403.032386 107.596881 
L 408.429795 118.911162 
L 413.025677 130.225442 
L 413.06246 130.315236 
L 417.661327 141.539733 
L 422.032405 152.854025 
L 423.994705 159.526792 
L 425.092459 164.168305 
L 427.710534 175.482585 
L 430.842581 186.796877 
L 434.704431 198.111168 
L 434.926945 198.634766 
L 440.289977 209.425448 
L 445.859195 219.685387 
L 446.375456 220.739734 
L 450.008495 232.05402 
L 453.544013 243.368306 
L 456.044928 254.682592 
L 456.791445 259.474752 
L 457.811669 265.996877 
L 461.747429 277.311163 
L 465.464844 288.625449 
L 467.723685 294.20305 
L 470.196398 299.939735 
L 475.990991 311.254015 
L 478.655925 316.750865 
L 481.373711 322.568301 
L 487.176981 333.882587 
L 489.588175 338.294212 
L 493.432712 345.196873 
L 498.925315 356.511158 
L 500.520425 360.430871 
L 503.743496 367.825444 
L 507.448332 379.13973 
L 511.452665 390.322382 
L 511.497441 390.454016 
L 516.211796 401.768302 
L 522.004012 413.082582 
L 522.384905 413.817939 
L 527.927814 424.396873 
L 533.095668 435.711165 
L 533.317144 436.233854 
L 537.851647 447.025445 
L 542.781103 458.339725 
L 544.249405 461.772098 
L 547.60898 469.654017 
L 552.314163 480.968308 
L 555.181645 488.065566 
L 556.841082 492.282588 
L 561.576662 503.596869 
L 566.070232 514.911149 
L 566.113885 515.04775 
L 569.670272 526.225451 
L 572.649584 537.539732 
L 574.974618 548.854012 
L 576.996569 560.168314 
L 577.046146 560.832276 
L 577.834631 571.482595 
L 578.618217 582.796875 
" clip-path="url(#p6abaa58ddc)" style="fill: none; stroke: #482071; stroke-width: 1.5"/>
   </g>
   <g id="PathCollection_5">
    <path d="M 402.230205 28.396875 
L 413.06246 39.644794 
L 413.125036 39.711155 
L 423.994705 50.99569 
L 424.022699 51.025436 
L 424.112094 62.339738 
L 434.926945 73.577651 
L 434.998676 73.654018 
L 445.859195 84.965423 
L 445.861892 84.968299 
L 445.919166 96.282601 
L 445.978784 107.596881 
L 456.791445 118.908403 
L 456.794023 118.911162 
L 456.82724 130.225442 
L 456.860199 141.539733 
L 456.905616 152.854025 
L 467.723685 164.156043 
L 467.73527 164.168305 
L 467.805017 175.482585 
L 467.880454 186.796877 
L 478.655925 198.020369 
L 478.74177 198.111168 
L 489.588175 209.422426 
L 489.591005 209.425448 
L 489.623384 220.739734 
L 489.652692 232.05402 
L 489.67563 243.368306 
L 489.720769 254.682592 
L 500.520425 265.982457 
L 500.533867 265.996877 
L 500.598521 277.311163 
L 500.671033 288.625449 
L 511.452665 299.861343 
L 511.525862 299.939735 
L 522.384905 311.253579 
L 522.385313 311.254015 
L 522.45077 322.568301 
L 522.53092 333.882587 
L 533.317144 345.1469 
L 533.363792 345.196873 
L 533.449692 356.511158 
L 544.249405 367.796768 
L 544.276148 367.825444 
L 544.350585 379.13973 
L 544.416131 390.454016 
L 555.181645 401.716907 
L 555.229534 401.768302 
L 555.305633 413.082582 
L 566.113885 424.372727 
L 566.136448 424.396873 
L 566.235592 435.711165 
L 577.046146 446.989273 
L 577.079959 447.025445 
L 577.188702 458.339725 
L 587.978385 469.599224 
L 588.029561 469.654017 
L 588.11687 480.968308 
L 598.910625 492.236258 
" clip-path="url(#p6abaa58ddc)" style="fill: none; stroke: #472a7a; stroke-width: 1.5"/>
   </g>
   <g id="PathCollection_6">
    <path d="M 402.932713 28.396875 
L 413.06246 38.915328 
L 413.8129 39.711155 
L 423.994705 50.281572 
L 424.694759 51.025436 
L 424.795475 62.339738 
L 434.926945 72.867537 
L 435.665676 73.654018 
L 445.859195 84.270731 
L 446.513273 84.968299 
L 446.582479 96.282601 
L 446.654211 107.596881 
L 456.791445 118.201814 
L 457.454142 118.911162 
L 457.4985 130.225442 
L 457.54493 141.539733 
L 457.605184 152.854025 
L 467.723685 163.425179 
L 468.425787 164.168305 
L 468.510207 175.482585 
L 468.599802 186.796877 
L 478.655925 197.271112 
L 479.450148 198.111168 
L 489.588175 208.683688 
L 490.282885 209.425448 
L 490.325781 220.739734 
L 490.365269 232.05402 
L 490.399066 243.368306 
L 490.456965 254.682592 
L 500.520425 265.212163 
L 501.25184 265.996877 
L 501.327174 277.311163 
L 501.411099 288.625449 
L 511.452665 299.090096 
L 512.246002 299.939735 
L 522.384905 310.503278 
L 523.087313 311.254015 
L 523.16629 322.568301 
L 523.258441 333.882587 
L 533.317144 344.387132 
L 534.073009 345.196873 
L 534.169356 356.511158 
L 544.249405 367.044726 
L 544.977485 367.825444 
L 545.061431 379.13973 
L 545.137665 390.454016 
L 555.181645 400.962037 
L 555.93291 401.768302 
L 556.019562 413.082582 
L 566.113885 423.626967 
L 566.833307 424.396873 
L 566.942897 435.711165 
L 577.046146 446.251377 
L 577.769748 447.025445 
L 577.88693 458.339725 
L 587.978385 468.870592 
L 588.710082 469.654017 
L 588.806031 480.968308 
L 598.910625 491.51682 
" clip-path="url(#p6abaa58ddc)" style="fill: none; stroke: #46337f; stroke-width: 1.5"/>
   </g>
   <g id="PathCollection_7">
    <path d="M 403.635222 28.396875 
L 413.06246 38.185863 
L 414.500763 39.711155 
L 423.994705 49.567455 
L 425.36682 51.025436 
L 425.478855 62.339738 
L 434.926945 72.157424 
L 436.332676 73.654018 
L 445.859195 83.57604 
L 447.164653 84.968299 
L 447.245792 96.282601 
L 447.329638 107.596881 
L 456.791445 117.495225 
L 458.114262 118.911162 
L 458.16976 130.225442 
L 458.229661 141.539733 
L 458.304752 152.854025 
L 467.723685 162.694316 
L 469.116303 164.168305 
L 469.215398 175.482585 
L 469.31915 186.796877 
L 478.655925 196.521856 
L 480.158527 198.111168 
L 489.588175 207.94495 
L 490.974764 209.425448 
L 491.028178 220.739734 
L 491.077846 232.05402 
L 491.122501 243.368306 
L 491.19316 254.682592 
L 500.520425 264.441869 
L 501.969813 265.996877 
L 502.055827 277.311163 
L 502.151165 288.625449 
L 511.452665 298.318849 
L 512.966143 299.939735 
L 522.384905 309.752976 
L 523.789313 311.254015 
L 523.88181 322.568301 
L 523.985962 333.882587 
L 533.317144 343.627365 
L 534.782227 345.196873 
L 534.889019 356.511158 
L 544.249405 366.292684 
L 545.678822 367.825444 
L 545.772277 379.13973 
L 545.8592 390.454016 
L 555.181645 400.207167 
L 556.636285 401.768302 
L 556.733491 413.082582 
L 566.113885 422.881207 
L 567.530166 424.396873 
L 567.650203 435.711165 
L 577.046146 445.513481 
L 578.459536 447.025445 
L 578.585159 458.339725 
L 587.978385 468.14196 
L 589.390604 469.654017 
L 589.495192 480.968308 
L 598.910625 490.797383 
" clip-path="url(#p6abaa58ddc)" style="fill: none; stroke: #433d84; stroke-width: 1.5"/>
   </g>
   <g id="PathCollection_8">
    <path d="M 404.33773 28.396875 
L 413.06246 37.456397 
L 415.188627 39.711155 
L 423.994705 48.853338 
L 426.03888 51.025436 
L 426.162235 62.339738 
L 434.926945 71.447311 
L 436.999675 73.654018 
L 445.859195 82.881349 
L 447.816034 84.968299 
L 447.909105 96.282601 
L 448.005064 107.596881 
L 456.791445 116.788637 
L 458.774381 118.911162 
L 458.841019 130.225442 
L 458.914393 141.539733 
L 459.00432 152.854025 
L 467.723685 161.963452 
L 469.80682 164.168305 
L 469.920588 175.482585 
L 470.038497 186.796877 
L 478.655925 195.772599 
L 480.866905 198.111168 
L 489.588175 207.206212 
L 491.666644 209.425448 
L 491.730575 220.739734 
L 491.790423 232.05402 
L 491.845936 243.368306 
L 491.929356 254.682592 
L 500.520425 263.671575 
L 502.687786 265.996877 
L 502.78448 277.311163 
L 502.891231 288.625449 
L 511.452665 297.547602 
L 513.686283 299.939735 
L 522.384905 309.002675 
L 524.491313 311.254015 
L 524.59733 322.568301 
L 524.713483 333.882587 
L 533.317144 342.867597 
L 535.491444 345.196873 
L 535.608682 356.511158 
L 544.249405 365.540642 
L 546.380159 367.825444 
L 546.483124 379.13973 
L 546.580734 390.454016 
L 555.181645 399.452297 
L 557.339661 401.768302 
L 557.44742 413.082582 
L 566.113885 422.135447 
L 568.227025 424.396873 
L 568.357508 435.711165 
L 577.046146 444.775584 
L 579.149325 447.025445 
L 579.283388 458.339725 
L 587.978385 467.413329 
L 590.071125 469.654017 
L 590.184353 480.968308 
L 598.910625 490.077946 
" clip-path="url(#p6abaa58ddc)" style="fill: none; stroke: #404588; stroke-width: 1.5"/>
   </g>
   <g id="PathCollection_9">
    <path d="M 405.040239 28.396875 
L 413.06246 36.726931 
L 415.87649 39.711155 
L 423.994705 48.13922 
L 426.710941 51.025436 
L 426.845616 62.339738 
L 434.926945 70.737197 
L 437.666675 73.654018 
L 445.859195 82.186658 
L 448.467415 84.968299 
L 448.572418 96.282601 
L 448.680491 107.596881 
L 456.791445 116.082048 
L 459.434501 118.911162 
L 459.512279 130.225442 
L 459.599124 141.539733 
L 459.703888 152.854025 
L 467.723685 161.232589 
L 470.497336 164.168305 
L 470.625779 175.482585 
L 470.757845 186.796877 
L 478.655925 195.023342 
L 481.575284 198.111168 
L 489.588175 206.467474 
L 492.358523 209.425448 
L 492.432972 220.739734 
L 492.503001 232.05402 
L 492.569371 243.368306 
L 492.665551 254.682592 
L 500.520425 262.901281 
L 503.405759 265.996877 
L 503.513133 277.311163 
L 503.631297 288.625449 
L 511.452665 296.776354 
L 514.406423 299.939735 
L 522.384905 308.252373 
L 525.193313 311.254015 
L 525.312849 322.568301 
L 525.441004 333.882587 
L 533.317144 342.107829 
L 536.200661 345.196873 
L 536.328345 356.511158 
L 544.249405 364.7886 
L 547.081496 367.825444 
L 547.19397 379.13973 
L 547.302269 390.454016 
L 555.181645 398.697426 
L 558.043037 401.768302 
L 558.161348 413.082582 
L 566.113885 421.389688 
L 568.923884 424.396873 
L 569.064814 435.711165 
L 577.046146 444.037688 
L 579.839114 447.025445 
L 579.981616 458.339725 
L 587.978385 466.684697 
L 590.751647 469.654017 
L 590.873514 480.968308 
L 598.910625 489.358508 
" clip-path="url(#p6abaa58ddc)" style="fill: none; stroke: #3d4e8a; stroke-width: 1.5"/>
   </g>
   <g id="PathCollection_10">
    <path d="M 405.742748 28.396875 
L 413.06246 35.997465 
L 416.564354 39.711155 
L 423.994705 47.425103 
L 427.383001 51.025436 
L 427.528996 62.339738 
L 434.926945 70.027084 
L 438.333675 73.654018 
L 445.859195 81.491967 
L 449.118796 84.968299 
L 449.235731 96.282601 
L 449.355918 107.596881 
L 456.791445 115.375459 
L 460.094621 118.911162 
L 460.183539 130.225442 
L 460.283855 141.539733 
L 460.403457 152.854025 
L 467.723685 160.501725 
L 471.187853 164.168305 
L 471.330969 175.482585 
L 471.477193 186.796877 
L 478.655925 194.274085 
L 482.283662 198.111168 
L 489.588175 205.728736 
L 493.050403 209.425448 
L 493.135369 220.739734 
L 493.215578 232.05402 
L 493.292806 243.368306 
L 493.401747 254.682592 
L 500.520425 262.130987 
L 504.123732 265.996877 
L 504.241785 277.311163 
L 504.371363 288.625449 
L 511.452665 296.005107 
L 515.126564 299.939735 
L 522.384905 307.502072 
L 525.895313 311.254015 
L 526.028369 322.568301 
L 526.168525 333.882587 
L 533.317144 341.348062 
L 536.909878 345.196873 
L 537.048009 356.511158 
L 544.249405 364.036558 
L 547.782832 367.825444 
L 547.904816 379.13973 
L 548.023804 390.454016 
L 555.181645 397.942556 
L 558.746413 401.768302 
L 558.875277 413.082582 
L 566.113885 420.643928 
L 569.620742 424.396873 
L 569.772119 435.711165 
L 577.046146 443.299792 
L 580.528902 447.025445 
L 580.679845 458.339725 
L 587.978385 465.956065 
L 591.432168 469.654017 
L 591.562675 480.968308 
L 598.910625 488.639071 
" clip-path="url(#p6abaa58ddc)" style="fill: none; stroke: #39558c; stroke-width: 1.5"/>
   </g>
   <g id="PathCollection_11">
    <path d="M 406.445256 28.396875 
L 413.06246 35.267999 
L 417.252217 39.711155 
L 423.994705 46.710986 
L 428.055061 51.025436 
L 428.212377 62.339738 
L 434.926945 69.316971 
L 439.000675 73.654018 
L 445.859195 80.797276 
L 449.770177 84.968299 
L 449.899044 96.282601 
L 450.031345 107.596881 
L 456.791445 114.668871 
L 460.75474 118.911162 
L 460.854799 130.225442 
L 460.968587 141.539733 
L 461.103025 152.854025 
L 467.723685 159.770862 
L 471.87837 164.168305 
L 472.03616 175.482585 
L 472.196541 186.796877 
L 478.655925 193.524828 
L 482.992041 198.111168 
L 489.588175 204.989997 
L 493.742282 209.425448 
L 493.837766 220.739734 
L 493.928155 232.05402 
L 494.016241 243.368306 
L 494.137942 254.682592 
L 500.520425 261.360693 
L 504.841705 265.996877 
L 504.970438 277.311163 
L 505.111429 288.625449 
L 511.452665 295.23386 
L 515.846704 299.939735 
L 522.384905 306.751771 
L 526.597313 311.254015 
L 526.743889 322.568301 
L 526.896046 333.882587 
L 533.317144 340.588294 
L 537.619095 345.196873 
L 537.767672 356.511158 
L 544.249405 363.284516 
L 548.484169 367.825444 
L 548.615663 379.13973 
L 548.745338 390.454016 
L 555.181645 397.187686 
L 559.449788 401.768302 
L 559.589206 413.082582 
L 566.113885 419.898168 
L 570.317601 424.396873 
L 570.479425 435.711165 
L 577.046146 442.561895 
L 581.218691 447.025445 
L 581.378074 458.339725 
L 587.978385 465.227434 
L 592.11269 469.654017 
L 592.251836 480.968308 
L 598.910625 487.919634 
" clip-path="url(#p6abaa58ddc)" style="fill: none; stroke: #355e8d; stroke-width: 1.5"/>
   </g>
   <g id="PathCollection_12">
    <path d="M 407.147765 28.396875 
L 413.06246 34.538533 
L 417.940081 39.711155 
L 423.994705 45.996868 
L 428.727122 51.025436 
L 428.895757 62.339738 
L 434.926945 68.606857 
L 439.667675 73.654018 
L 445.859195 80.102585 
L 450.421558 84.968299 
L 450.562357 96.282601 
L 450.706771 107.596881 
L 456.791445 113.962282 
L 461.41486 118.911162 
L 461.526059 130.225442 
L 461.653318 141.539733 
L 461.802593 152.854025 
L 467.723685 159.039998 
L 472.568886 164.168305 
L 472.741351 175.482585 
L 472.915889 186.796877 
L 478.655925 192.775571 
L 483.70042 198.111168 
L 489.588175 204.251259 
L 494.434162 209.425448 
L 494.540163 220.739734 
L 494.640732 232.05402 
L 494.739676 243.368306 
L 494.874138 254.682592 
L 500.520425 260.590399 
L 505.559678 265.996877 
L 505.699091 277.311163 
L 505.851495 288.625449 
L 511.452665 294.462613 
L 516.566844 299.939735 
L 522.384905 306.001469 
L 527.299314 311.254015 
L 527.459409 322.568301 
L 527.623567 333.882587 
L 533.317144 339.828527 
L 538.328312 345.196873 
L 538.487335 356.511158 
L 544.249405 362.532474 
L 549.185506 367.825444 
L 549.326509 379.13973 
L 549.466873 390.454016 
L 555.181645 396.432816 
L 560.153164 401.768302 
L 560.303135 413.082582 
L 566.113885 419.152408 
L 571.01446 424.396873 
L 571.18673 435.711165 
L 577.046146 441.823999 
L 581.908479 447.025445 
L 582.076303 458.339725 
L 587.978385 464.498802 
L 592.793211 469.654017 
L 592.940996 480.968308 
L 598.910625 487.200197 
" clip-path="url(#p6abaa58ddc)" style="fill: none; stroke: #32658e; stroke-width: 1.5"/>
   </g>
   <g id="PathCollection_13">
    <path d="M 407.850273 28.396875 
L 413.06246 33.809068 
L 418.627944 39.711155 
L 423.994705 45.282751 
L 429.399182 51.025436 
L 429.579138 62.339738 
L 434.926945 67.896744 
L 440.334675 73.654018 
L 445.859195 79.407894 
L 451.072938 84.968299 
L 451.22567 96.282601 
L 451.382198 107.596881 
L 456.791445 113.255693 
L 462.074979 118.911162 
L 462.197318 130.225442 
L 462.33805 141.539733 
L 462.502161 152.854025 
L 467.723685 158.309135 
L 473.259403 164.168305 
L 473.446541 175.482585 
L 473.635237 186.796877 
L 478.655925 192.026315 
L 484.408798 198.111168 
L 489.588175 203.512521 
L 495.126041 209.425448 
L 495.242559 220.739734 
L 495.353309 232.05402 
L 495.463112 243.368306 
L 495.610333 254.682592 
L 500.520425 259.820105 
L 506.277651 265.996877 
L 506.427744 277.311163 
L 506.591561 288.625449 
L 511.452665 293.691366 
L 517.286984 299.939735 
L 522.384905 305.251168 
L 528.001314 311.254015 
L 528.174929 322.568301 
L 528.351088 333.882587 
L 533.317144 339.068759 
L 539.037529 345.196873 
L 539.206998 356.511158 
L 544.249405 361.780432 
L 549.886843 367.825444 
L 550.037355 379.13973 
L 550.188407 390.454016 
L 555.181645 395.677946 
L 560.85654 401.768302 
L 561.017064 413.082582 
L 566.113885 418.406648 
L 571.711319 424.396873 
L 571.894035 435.711165 
L 577.046146 441.086103 
L 582.598268 447.025445 
L 582.774531 458.339725 
L 587.978385 463.77017 
L 593.473733 469.654017 
L 593.630157 480.968308 
L 598.910625 486.480759 
" clip-path="url(#p6abaa58ddc)" style="fill: none; stroke: #2e6d8e; stroke-width: 1.5"/>
   </g>
   <g id="PathCollection_14">
    <path d="M 408.552782 28.396875 
L 413.06246 33.079602 
L 419.315808 39.711155 
L 423.994705 44.568633 
L 430.071243 51.025436 
L 430.262518 62.339738 
L 434.926945 67.186631 
L 441.001675 73.654018 
L 445.859195 78.713203 
L 451.724319 84.968299 
L 451.888982 96.282601 
L 452.057625 107.596881 
L 456.791445 112.549105 
L 462.735099 118.911162 
L 462.868578 130.225442 
L 463.022781 141.539733 
L 463.201729 152.854025 
L 467.723685 157.578271 
L 473.949919 164.168305 
L 474.151732 175.482585 
L 474.354584 186.796877 
L 478.655925 191.277058 
L 485.117177 198.111168 
L 489.588175 202.773783 
L 495.81792 209.425448 
L 495.944956 220.739734 
L 496.065887 232.05402 
L 496.186547 243.368306 
L 496.346528 254.682592 
L 500.520425 259.049811 
L 506.995624 265.996877 
L 507.156397 277.311163 
L 507.331627 288.625449 
L 511.452665 292.920119 
L 518.007125 299.939735 
L 522.384905 304.500866 
L 528.703314 311.254015 
L 528.890449 322.568301 
L 529.078609 333.882587 
L 533.317144 338.308991 
L 539.746746 345.196873 
L 539.926661 356.511158 
L 544.249405 361.02839 
L 550.58818 367.825444 
L 550.748201 379.13973 
L 550.909942 390.454016 
L 555.181645 394.923076 
L 561.559916 401.768302 
L 561.730993 413.082582 
L 566.113885 417.660888 
L 572.408178 424.396873 
L 572.601341 435.711165 
L 577.046146 440.348207 
L 583.288056 447.025445 
L 583.47276 458.339725 
L 587.978385 463.041539 
L 594.154255 469.654017 
L 594.319318 480.968308 
L 598.910625 485.761322 
" clip-path="url(#p6abaa58ddc)" style="fill: none; stroke: #2c738e; stroke-width: 1.5"/>
   </g>
   <g id="PathCollection_15">
    <path d="M 409.255291 28.396875 
L 413.06246 32.350136 
L 420.003671 39.711155 
L 423.994705 43.854516 
L 430.743303 51.025436 
L 430.945898 62.339738 
L 434.926945 66.476517 
L 441.668675 73.654018 
L 445.859195 78.018511 
L 452.3757 84.968299 
L 452.552295 96.282601 
L 452.733052 107.596881 
L 456.791445 111.842516 
L 463.395218 118.911162 
L 463.539838 130.225442 
L 463.707512 141.539733 
L 463.901297 152.854025 
L 467.723685 156.847408 
L 474.640436 164.168305 
L 474.856922 175.482585 
L 475.073932 186.796877 
L 478.655925 190.527801 
L 485.825555 198.111168 
L 489.588175 202.035045 
L 496.5098 209.425448 
L 496.647353 220.739734 
L 496.778464 232.05402 
L 496.909982 243.368306 
L 497.082724 254.682592 
L 500.520425 258.279517 
L 507.713597 265.996877 
L 507.88505 277.311163 
L 508.071693 288.625449 
L 511.452665 292.148871 
L 518.727265 299.939735 
L 522.384905 303.750565 
L 529.405314 311.254015 
L 529.605969 322.568301 
L 529.80613 333.882587 
L 533.317144 337.549224 
L 540.455963 345.196873 
L 540.646325 356.511158 
L 544.249405 360.276348 
L 551.289517 367.825444 
L 551.459048 379.13973 
L 551.631476 390.454016 
L 555.181645 394.168206 
L 562.263291 401.768302 
L 562.444921 413.082582 
L 566.113885 416.915129 
L 573.105037 424.396873 
L 573.308646 435.711165 
L 577.046146 439.61031 
L 583.977845 447.025445 
L 584.170989 458.339725 
L 587.978385 462.312907 
L 594.834776 469.654017 
L 595.008479 480.968308 
L 598.910625 485.041885 
" clip-path="url(#p6abaa58ddc)" style="fill: none; stroke: #297b8e; stroke-width: 1.5"/>
   </g>
   <g id="PathCollection_16">
    <path d="M 409.957799 28.396875 
L 413.06246 31.62067 
L 420.691535 39.711155 
L 423.994705 43.140399 
L 431.415363 51.025436 
L 431.629279 62.339738 
L 434.926945 65.766404 
L 442.335675 73.654018 
L 445.859195 77.32382 
L 453.027081 84.968299 
L 453.215608 96.282601 
L 453.408478 107.596881 
L 456.791445 111.135927 
L 464.055338 118.911162 
L 464.211098 130.225442 
L 464.392244 141.539733 
L 464.600866 152.854025 
L 467.723685 156.116544 
L 475.330953 164.168305 
L 475.562113 175.482585 
L 475.79328 186.796877 
L 478.655925 189.778544 
L 486.533934 198.111168 
L 489.588175 201.296307 
L 497.201679 209.425448 
L 497.34975 220.739734 
L 497.491041 232.05402 
L 497.633417 243.368306 
L 497.818919 254.682592 
L 500.520425 257.509224 
L 508.43157 265.996877 
L 508.613703 277.311163 
L 508.811759 288.625449 
L 511.452665 291.377624 
L 519.447405 299.939735 
L 522.384905 303.000263 
L 530.107314 311.254015 
L 530.321489 322.568301 
L 530.533651 333.882587 
L 533.317144 336.789456 
L 541.16518 345.196873 
L 541.365988 356.511158 
L 544.249405 359.524306 
L 551.990854 367.825444 
L 552.169894 379.13973 
L 552.353011 390.454016 
L 555.181645 393.413336 
L 562.966667 401.768302 
L 563.15885 413.082582 
L 566.113885 416.169369 
L 573.801896 424.396873 
L 574.015952 435.711165 
L 577.046146 438.872414 
L 584.667634 447.025445 
L 584.869217 458.339725 
L 587.978385 461.584276 
L 595.515298 469.654017 
L 595.69764 480.968308 
L 598.910625 484.322447 
" clip-path="url(#p6abaa58ddc)" style="fill: none; stroke: #26828e; stroke-width: 1.5"/>
   </g>
   <g id="PathCollection_17">
    <path d="M 410.660308 28.396875 
L 413.06246 30.891204 
L 421.379398 39.711155 
L 423.994705 42.426281 
L 432.087424 51.025436 
L 432.312659 62.339738 
L 434.926945 65.056291 
L 443.002675 73.654018 
L 445.859195 76.629129 
L 453.678462 84.968299 
L 453.878921 96.282601 
L 454.083905 107.596881 
L 456.791445 110.429338 
L 464.715458 118.911162 
L 464.882358 130.225442 
L 465.076975 141.539733 
L 465.300434 152.854025 
L 467.723685 155.385681 
L 476.021469 164.168305 
L 476.267303 175.482585 
L 476.512628 186.796877 
L 478.655925 189.029287 
L 487.242313 198.111168 
L 489.588175 200.557569 
L 497.893559 209.425448 
L 498.052147 220.739734 
L 498.203618 232.05402 
L 498.356852 243.368306 
L 498.555115 254.682592 
L 500.520425 256.73893 
L 509.149543 265.996877 
L 509.342356 277.311163 
L 509.551825 288.625449 
L 511.452665 290.606377 
L 520.167546 299.939735 
L 522.384905 302.249962 
L 530.809314 311.254015 
L 531.037009 322.568301 
L 531.261171 333.882587 
L 533.317144 336.029689 
L 541.874398 345.196873 
L 542.085651 356.511158 
L 544.249405 358.772264 
L 552.692191 367.825444 
L 552.88074 379.13973 
L 553.074545 390.454016 
L 555.181645 392.658466 
L 563.670043 401.768302 
L 563.872779 413.082582 
L 566.113885 415.423609 
L 574.498755 424.396873 
L 574.723257 435.711165 
L 577.046146 438.134518 
L 585.357422 447.025445 
L 585.567446 458.339725 
L 587.978385 460.855644 
L 596.195819 469.654017 
L 596.386801 480.968308 
L 598.910625 483.60301 
" clip-path="url(#p6abaa58ddc)" style="fill: none; stroke: #23898e; stroke-width: 1.5"/>
   </g>
   <g id="PathCollection_18">
    <path d="M 411.362816 28.396875 
L 413.06246 30.161739 
L 422.067262 39.711155 
L 423.994705 41.712164 
L 432.759484 51.025436 
L 432.99604 62.339738 
L 434.926945 64.346177 
L 443.669675 73.654018 
L 445.859195 75.934438 
L 454.329843 84.968299 
L 454.542234 96.282601 
L 454.759332 107.596881 
L 456.791445 109.72275 
L 465.375577 118.911162 
L 465.553617 130.225442 
L 465.761706 141.539733 
L 466.000002 152.854025 
L 467.723685 154.654817 
L 476.711986 164.168305 
L 476.972494 175.482585 
L 477.231976 186.796877 
L 478.655925 188.28003 
L 487.950691 198.111168 
L 489.588175 199.818831 
L 498.585438 209.425448 
L 498.754544 220.739734 
L 498.916196 232.05402 
L 499.080287 243.368306 
L 499.29131 254.682592 
L 500.520425 255.968636 
L 509.867516 265.996877 
L 510.071009 277.311163 
L 510.291891 288.625449 
L 511.452665 289.83513 
L 520.887686 299.939735 
L 522.384905 301.499661 
L 531.511314 311.254015 
L 531.752529 322.568301 
L 531.988692 333.882587 
L 533.317144 335.269921 
L 542.583615 345.196873 
L 542.805314 356.511158 
L 544.249405 358.020221 
L 553.393528 367.825444 
L 553.591587 379.13973 
L 553.79608 390.454016 
L 555.181645 391.903596 
L 564.373419 401.768302 
L 564.586708 413.082582 
L 566.113885 414.677849 
L 575.195614 424.396873 
L 575.430563 435.711165 
L 577.046146 437.396622 
L 586.047211 447.025445 
L 586.265675 458.339725 
L 587.978385 460.127012 
L 596.876341 469.654017 
L 597.075961 480.968308 
L 598.910625 482.883573 
" clip-path="url(#p6abaa58ddc)" style="fill: none; stroke: #21918c; stroke-width: 1.5"/>
   </g>
   <g id="PathCollection_19">
    <path d="M 412.065325 28.396875 
L 413.06246 29.432273 
L 422.755125 39.711155 
L 423.994705 40.998047 
L 433.431545 51.025436 
L 433.67942 62.339738 
L 434.926945 63.636064 
L 444.336675 73.654018 
L 445.859195 75.239747 
L 454.981224 84.968299 
L 455.205547 96.282601 
L 455.434758 107.596881 
L 456.791445 109.016161 
L 466.035697 118.911162 
L 466.224877 130.225442 
L 466.446438 141.539733 
L 466.69957 152.854025 
L 467.723685 153.923954 
L 477.402502 164.168305 
L 477.677685 175.482585 
L 477.951324 186.796877 
L 478.655925 187.530774 
L 488.65907 198.111168 
L 489.588175 199.080092 
L 499.277318 209.425448 
L 499.456941 220.739734 
L 499.628773 232.05402 
L 499.803722 243.368306 
L 500.027506 254.682592 
L 500.520425 255.198342 
L 510.585489 265.996877 
L 510.799661 277.311163 
L 511.031957 288.625449 
L 511.452665 289.063883 
L 521.607826 299.939735 
L 522.384905 300.749359 
L 532.213315 311.254015 
L 532.468049 322.568301 
L 532.716213 333.882587 
L 533.317144 334.510154 
L 543.292832 345.196873 
L 543.524978 356.511158 
L 544.249405 357.268179 
L 554.094865 367.825444 
L 554.302433 379.13973 
L 554.517614 390.454016 
L 555.181645 391.148725 
L 565.076794 401.768302 
L 565.300637 413.082582 
L 566.113885 413.932089 
L 575.892473 424.396873 
L 576.137868 435.711165 
L 577.046146 436.658725 
L 586.736999 447.025445 
L 586.963904 458.339725 
L 587.978385 459.398381 
L 597.556862 469.654017 
L 597.765122 480.968308 
L 598.910625 482.164135 
" clip-path="url(#p6abaa58ddc)" style="fill: none; stroke: #1f978b; stroke-width: 1.5"/>
   </g>
   <g id="PathCollection_20">
    <path d="M 412.767834 28.396875 
L 413.06246 28.702807 
L 423.442988 39.711155 
L 423.994705 40.283929 
L 434.103605 51.025436 
L 434.362801 62.339738 
L 434.926945 62.92595 
L 445.003675 73.654018 
L 445.859195 74.545056 
L 455.632604 84.968299 
L 455.86886 96.282601 
L 456.110185 107.596881 
L 456.791445 108.309572 
L 466.695816 118.911162 
L 466.896137 130.225442 
L 467.131169 141.539733 
L 467.399138 152.854025 
L 467.723685 153.19309 
L 478.093019 164.168305 
L 478.382875 175.482585 
L 478.655925 186.227965 
L 478.948026 186.796877 
L 489.367448 198.111168 
L 489.588175 198.341354 
L 499.969197 209.425448 
L 500.159338 220.739734 
L 500.34135 232.05402 
L 500.520425 242.964295 
L 500.637274 243.368306 
L 504.700113 254.682592 
L 511.303462 265.996877 
L 511.452665 273.541789 
L 512.737711 277.311163 
L 516.83693 288.625449 
L 522.327967 299.939735 
L 522.384905 299.999058 
L 532.915315 311.254015 
L 533.183568 322.568301 
L 533.317144 328.424353 
L 535.476513 333.882587 
L 544.002049 345.196873 
L 544.244641 356.511158 
L 544.249405 356.516137 
L 554.796202 367.825444 
L 555.013279 379.13973 
L 555.181645 387.605453 
L 556.167857 390.454016 
L 565.78017 401.768302 
L 566.014566 413.082582 
L 566.113885 413.186329 
L 576.589332 424.396873 
L 576.845173 435.711165 
L 577.046146 435.920829 
L 587.426788 447.025445 
L 587.662132 458.339725 
L 587.978385 458.669749 
L 598.237384 469.654017 
L 598.454283 480.968308 
L 598.910625 481.444698 
" clip-path="url(#p6abaa58ddc)" style="fill: none; stroke: #1f9f88; stroke-width: 1.5"/>
   </g>
   <g id="PathCollection_21">
    <path d="M 421.120537 28.396875 
L 423.994705 34.182025 
L 426.628017 39.711155 
L 434.775665 51.025436 
L 434.926945 57.399216 
L 437.171502 62.339738 
L 445.670675 73.654018 
L 445.859195 73.850365 
L 456.283985 84.968299 
L 456.532173 96.282601 
L 456.785612 107.596881 
L 456.791445 107.602984 
L 467.355936 118.911162 
L 467.567397 130.225442 
L 467.723685 137.393522 
L 469.469117 141.539733 
L 475.032771 152.854025 
L 478.655925 159.527358 
L 481.249449 164.168305 
L 487.268844 175.482585 
L 489.588175 179.946317 
L 493.224572 186.796877 
L 499.14466 198.111168 
L 500.520425 201.819223 
L 503.021364 209.425448 
L 506.496163 220.739734 
L 509.67008 232.05402 
L 511.452665 237.854633 
L 513.220269 243.368306 
L 517.401145 254.682592 
L 521.36517 265.996877 
L 522.384905 269.049211 
L 525.121425 277.311163 
L 529.357481 288.625449 
L 533.317144 298.645948 
L 533.825419 299.939735 
L 538.59862 311.254015 
L 543.346635 322.568301 
L 544.249405 324.829615 
L 547.871797 333.882587 
L 552.319583 345.196873 
L 555.181645 352.890678 
L 556.547013 356.511158 
L 560.812286 367.825444 
L 564.649285 379.13973 
L 566.113885 383.389419 
L 568.546205 390.454016 
L 572.622039 401.768302 
L 576.842018 413.082582 
L 577.046146 413.596183 
L 581.301778 424.396873 
L 585.876249 435.711165 
L 587.978385 440.911828 
L 590.468481 447.025445 
L 594.80796 458.339725 
L 598.910625 469.297303 
" clip-path="url(#p6abaa58ddc)" style="fill: none; stroke: #21a585; stroke-width: 1.5"/>
   </g>
   <g id="PathCollection_22">
    <path d="M 434.491263 28.396875 
L 434.926945 29.306999 
L 439.79873 39.711155 
L 444.945005 51.025436 
L 445.859195 53.048999 
L 449.847618 62.339738 
L 454.681919 73.654018 
L 456.791445 78.598734 
L 459.513818 84.968299 
L 464.312027 96.282601 
L 467.723685 104.425641 
L 468.970621 107.596881 
L 472.841543 118.911162 
L 477.079472 130.225442 
L 478.655925 133.704196 
L 482.701734 141.539733 
L 489.056124 152.854025 
L 489.588175 153.812582 
L 495.180545 164.168305 
L 500.520425 174.242043 
L 501.18982 175.482585 
L 507.282488 186.796877 
L 511.452665 196.730986 
L 511.956094 198.111168 
L 515.280893 209.425448 
L 518.631958 220.739734 
L 521.918199 232.05402 
L 522.384905 233.404033 
L 525.991103 243.368306 
L 530.105374 254.682592 
L 533.317144 264.541688 
L 533.784873 265.996877 
L 537.589252 277.311163 
L 541.889686 288.625449 
L 544.249405 294.659788 
L 546.31381 299.939735 
L 551.039487 311.254015 
L 555.181645 321.076411 
L 555.807138 322.568301 
L 560.259456 333.882587 
L 564.70098 345.196873 
L 566.113885 348.859168 
L 569.104575 356.511158 
L 573.338081 367.825444 
L 577.046146 379.016898 
L 577.087316 379.13973 
L 580.984494 390.454016 
L 585.064614 401.768302 
L 587.978385 409.62599 
L 589.252991 413.082582 
L 593.672288 424.396873 
L 598.250007 435.711165 
L 598.910625 437.324598 
" clip-path="url(#p6abaa58ddc)" style="fill: none; stroke: #26ad81; stroke-width: 1.5"/>
   </g>
   <g id="PathCollection_23">
    <path d="M 447.568652 28.396875 
L 452.556757 39.711155 
L 456.791445 49.643692 
L 457.362151 51.025436 
L 462.147088 62.339738 
L 467.031478 73.654018 
L 467.723685 75.280019 
L 471.861687 84.968299 
L 476.498645 96.282601 
L 478.655925 102.167465 
L 480.598763 107.596881 
L 484.980741 118.911162 
L 489.588175 128.843349 
L 490.293269 130.225442 
L 496.77268 141.539733 
L 500.520425 148.457987 
L 502.829496 152.854025 
L 508.919144 164.168305 
L 511.452665 168.781305 
L 515.087008 175.482585 
L 520.369067 186.796877 
L 522.384905 193.06168 
L 523.922112 198.111168 
L 527.38601 209.425448 
L 530.733886 220.739734 
L 533.317144 228.880884 
L 534.357434 232.05402 
L 538.729358 243.368306 
L 542.695678 254.682592 
L 544.249405 259.567737 
L 546.30571 265.996877 
L 550.22705 277.311163 
L 554.40606 288.625449 
L 555.181645 290.608032 
L 558.836743 299.939735 
L 563.60971 311.254015 
L 566.113885 317.324459 
L 568.264934 322.568301 
L 572.768298 333.882587 
L 577.046146 344.8098 
L 577.197653 345.196873 
L 581.677818 356.511158 
L 585.91898 367.825444 
L 587.978385 373.885838 
L 589.786761 379.13973 
L 593.540987 390.454016 
L 597.511484 401.768302 
L 598.910625 405.578753 
" clip-path="url(#p6abaa58ddc)" style="fill: none; stroke: #2eb37c; stroke-width: 1.5"/>
   </g>
   <g id="PathCollection_24">
    <path d="M 460.123292 28.396875 
L 464.800679 39.711155 
L 467.723685 46.689697 
L 469.611054 51.025436 
L 474.596812 62.339738 
L 478.655925 71.724849 
L 479.473122 73.654018 
L 484.072259 84.968299 
L 488.306772 96.282601 
L 489.588175 99.814449 
L 492.727079 107.596881 
L 498.19373 118.911162 
L 500.520425 123.326893 
L 504.337947 130.225442 
L 510.506097 141.539733 
L 511.452665 143.313827 
L 516.631676 152.854025 
L 522.384905 163.602461 
L 522.680477 164.168305 
L 528.352849 175.482585 
L 532.564536 186.796877 
L 533.317144 189.257442 
L 536.00369 198.111168 
L 539.390163 209.425448 
L 542.906187 220.739734 
L 544.249405 224.621671 
L 546.889987 232.05402 
L 551.243008 243.368306 
L 555.181645 254.470589 
L 555.257339 254.682592 
L 558.930832 265.996877 
L 562.884872 277.311163 
L 566.113885 286.48087 
L 566.859324 288.625449 
L 571.353242 299.939735 
L 576.172144 311.254015 
L 577.046146 313.391032 
L 580.83486 322.568301 
L 585.351734 333.882587 
L 587.978385 340.598152 
L 589.782401 345.196873 
L 594.343671 356.511158 
L 598.577408 367.825444 
L 598.910625 368.781587 
" clip-path="url(#p6abaa58ddc)" style="fill: none; stroke: #3aba76; stroke-width: 1.5"/>
   </g>
   <g id="PathCollection_25">
    <path d="M 472.317388 28.396875 
L 477.116273 39.711155 
L 478.655925 43.197954 
L 482.203365 51.025436 
L 487.152916 62.339738 
L 489.588175 68.245795 
L 491.732865 73.654018 
L 496.095703 84.968299 
L 500.520425 96.141104 
L 500.582775 96.282601 
L 506.111173 107.596881 
L 511.452665 117.737549 
L 512.076829 118.911162 
L 518.228871 130.225442 
L 522.384905 138.065026 
L 524.268759 141.539733 
L 530.297862 152.854025 
L 533.317144 158.679677 
L 536.053629 164.168305 
L 540.959718 175.482585 
L 544.249405 185.961813 
L 544.50365 186.796877 
L 547.962093 198.111168 
L 551.439793 209.425448 
L 555.181645 220.596802 
L 555.230745 220.739734 
L 559.413603 232.05402 
L 563.774261 243.368306 
L 566.113885 249.98111 
L 567.773356 254.682592 
L 571.561471 265.996877 
L 575.535982 277.311163 
L 577.046146 281.772916 
L 579.339005 288.625449 
L 583.80872 299.939735 
L 587.978385 309.599053 
L 588.703961 311.254015 
L 593.518069 322.568301 
L 598.037783 333.882587 
L 598.910625 336.131226 
" clip-path="url(#p6abaa58ddc)" style="fill: none; stroke: #46c06f; stroke-width: 1.5"/>
   </g>
   <g id="PathCollection_26">
    <path d="M 484.702131 28.396875 
L 489.588175 39.212512 
L 489.816727 39.711155 
L 494.808196 51.025436 
L 499.427303 62.339738 
L 500.520425 65.140214 
L 503.944801 73.654018 
L 508.641311 84.968299 
L 511.452665 91.029229 
L 514.102481 96.282601 
L 519.930804 107.596881 
L 522.384905 112.15023 
L 526.043731 118.911162 
L 531.952423 130.225442 
L 533.317144 132.721172 
L 538.09619 141.539733 
L 543.797755 152.854025 
L 544.249405 153.787684 
L 548.949496 164.168305 
L 553.114223 175.482585 
L 555.181645 182.327735 
L 556.520729 186.796877 
L 559.887822 198.111168 
L 563.565343 209.425448 
L 566.113885 216.573593 
L 567.631339 220.739734 
L 571.934723 232.05402 
L 576.29222 243.368306 
L 577.046146 245.491422 
L 580.311562 254.682592 
L 584.214098 265.996877 
L 587.978385 276.974506 
L 588.093446 277.311163 
L 591.830125 288.625449 
L 596.248198 299.939735 
L 598.910625 305.917574 
" clip-path="url(#p6abaa58ddc)" style="fill: none; stroke: #56c667; stroke-width: 1.5"/>
   </g>
   <g id="PathCollection_27">
    <path d="M 497.472025 28.396875 
L 500.520425 35.138781 
L 502.528713 39.711155 
L 507.264282 51.025436 
L 511.452665 61.330391 
L 511.879536 62.339738 
L 516.746346 73.654018 
L 522.210803 84.968299 
L 522.384905 85.309648 
L 528.098253 96.282601 
L 533.317144 106.223541 
L 534.030404 107.596881 
L 539.842319 118.911162 
L 544.249405 127.106941 
L 545.931525 130.225442 
L 551.577023 141.539733 
L 555.181645 149.157283 
L 556.852035 152.854025 
L 561.430049 164.168305 
L 565.047816 175.482585 
L 566.113885 178.997919 
L 568.470741 186.796877 
L 571.924105 198.111168 
L 575.813745 209.425448 
L 577.046146 212.752863 
L 580.036441 220.739734 
L 584.353225 232.05402 
L 587.978385 241.369509 
L 588.757153 243.368306 
L 592.818948 254.682592 
L 596.854688 265.996877 
L 598.910625 272.048526 
" clip-path="url(#p6abaa58ddc)" style="fill: none; stroke: #65cb5e; stroke-width: 1.5"/>
   </g>
   <g id="PathCollection_28">
    <path d="M 510.245617 28.396875 
L 511.452665 31.199071 
L 515.149054 39.711155 
L 520.054261 51.025436 
L 522.384905 56.526361 
L 524.931752 62.339738 
L 530.363525 73.654018 
L 533.317144 79.380732 
L 536.250897 84.968299 
L 542.172721 96.282601 
L 544.249405 100.32243 
L 547.920872 107.596881 
L 553.86045 118.911162 
L 555.181645 121.410173 
L 559.585547 130.225442 
L 564.760199 141.539733 
L 566.113885 144.641446 
L 569.532474 152.854025 
L 573.570071 164.168305 
L 577.046146 175.474686 
L 577.048559 175.482585 
L 580.373108 186.796877 
L 584.044203 198.111168 
L 587.978385 209.076772 
L 588.105449 209.425448 
L 592.421172 220.739734 
L 596.746018 232.05402 
L 598.910625 237.618229 
" clip-path="url(#p6abaa58ddc)" style="fill: none; stroke: #77d153; stroke-width: 1.5"/>
   </g>
   <g id="PathCollection_29">
    <path d="M 523.039111 28.396875 
L 528.182284 39.711155 
L 533.154655 51.025436 
L 533.317144 51.38779 
L 538.624763 62.339738 
L 544.249405 73.148877 
L 544.513498 73.654018 
L 550.433974 84.968299 
L 555.181645 94.42463 
L 556.101061 96.282601 
L 561.889893 107.596881 
L 566.113885 115.739128 
L 567.677147 118.911162 
L 572.859816 130.225442 
L 577.046146 140.287622 
L 577.546851 141.539733 
L 581.964309 152.854025 
L 585.570218 164.168305 
L 587.978385 172.135847 
L 588.982587 175.482585 
L 592.418964 186.796877 
L 596.24653 198.111168 
L 598.910625 205.340767 
" clip-path="url(#p6abaa58ddc)" style="fill: none; stroke: #89d548; stroke-width: 1.5"/>
   </g>
   <g id="PathCollection_30">
    <path d="M 536.350433 28.396875 
L 541.603373 39.711155 
L 544.249405 45.346678 
L 547.052722 51.025436 
L 552.90746 62.339738 
L 555.181645 66.711025 
L 558.739049 73.654018 
L 564.466387 84.968299 
L 566.113885 88.314621 
L 570.05539 96.282601 
L 575.908773 107.596881 
L 577.046146 109.999085 
L 581.033196 118.911162 
L 585.777002 130.225442 
L 587.978385 135.801906 
L 590.19565 141.539733 
L 594.145373 152.854025 
L 597.516209 164.168305 
L 598.910625 168.837519 
" clip-path="url(#p6abaa58ddc)" style="fill: none; stroke: #9dd93b; stroke-width: 1.5"/>
   </g>
   <g id="PathCollection_31">
    <path d="M 550.04696 28.396875 
L 555.181645 38.914572 
L 555.580301 39.711155 
L 561.321305 51.025436 
L 566.113885 60.333258 
L 567.129337 62.339738 
L 572.802747 73.654018 
L 577.046146 82.242162 
L 578.392636 84.968299 
L 584.107455 96.282601 
L 587.978385 104.40442 
L 589.393331 107.596881 
L 594.06877 118.911162 
L 598.529943 130.225442 
L 598.910625 131.237747 
" clip-path="url(#p6abaa58ddc)" style="fill: none; stroke: #b0dd2f; stroke-width: 1.5"/>
   </g>
   <g id="PathCollection_32">
    <path d="M 564.040682 28.396875 
L 566.113885 32.507611 
L 569.829197 39.711155 
L 575.56227 51.025436 
L 577.046146 53.970113 
L 581.208846 62.339738 
L 586.839541 73.654018 
L 587.978385 75.969523 
L 592.36881 84.968299 
L 597.731315 96.282601 
L 598.910625 99.042662 
" clip-path="url(#p6abaa58ddc)" style="fill: none; stroke: #c5e021; stroke-width: 1.5"/>
   </g>
   <g id="PathCollection_33">
    <path d="M 578.311094 28.396875 
L 584.059125 39.711155 
L 587.978385 47.672431 
L 589.632768 51.025436 
L 595.257367 62.339738 
L 598.910625 69.860487 
" clip-path="url(#p6abaa58ddc)" style="fill: none; stroke: #d8e219; stroke-width: 1.5"/>
   </g>
   <g id="PathCollection_34">
    <path d="M 592.604117 28.396875 
L 598.056618 39.711155 
L 598.910625 41.427968 
" clip-path="url(#p6abaa58ddc)" style="fill: none; stroke: #ece51b; stroke-width: 1.5"/>
   </g>
   <g id="PathCollection_35"/>
   <g id="line2d_29">
    <defs>
     <path id="ma5a5687ea5" d="M 0 2.5 
C 0.663008 2.5 1.29895 2.236584 1.767767 1.767767 
C 2.236584 1.29895 2.5 0.663008 2.5 0 
C 2.5 -0.663008 2.236584 -1.29895 1.767767 -1.767767 
C 1.29895 -2.236584 0.663008 -2.5 0 -2.5 
C -0.663008 -2.5 -1.29895 -2.236584 -1.767767 -1.767767 
C -2.236584 -1.29895 -2.5 -0.663008 -2.5 0 
C -2.5 0.663008 -2.236584 1.29895 -1.767767 1.767767 
C -1.29895 2.236584 -0.663008 2.5 0 2.5 
z
" style="stroke: #ff0000"/>
    </defs>
    <g clip-path="url(#p6abaa58ddc)">
     <use xlink:href="#ma5a5687ea5" x="331.070625" y="305.596875" style="fill: #ff0000; stroke: #ff0000"/>
    </g>
   </g>
   <g id="patch_3">
    <path d="M 63.230625 582.796875 
L 63.230625 28.396875 
" style="fill: none; stroke: #000000; stroke-width: 0.8; stroke-linejoin: miter; stroke-linecap: square"/>
   </g>
   <g id="patch_4">
    <path d="M 598.910625 582.796875 
L 598.910625 28.396875 
" style="fill: none; stroke: #000000; stroke-width: 0.8; stroke-linejoin: miter; stroke-linecap: square"/>
   </g>
   <g id="patch_5">
    <path d="M 63.230625 582.796875 
L 598.910625 582.796875 
" style="fill: none; stroke: #000000; stroke-width: 0.8; stroke-linejoin: miter; stroke-linecap: square"/>
   </g>
   <g id="patch_6">
    <path d="M 63.230625 28.396875 
L 598.910625 28.396875 
" style="fill: none; stroke: #000000; stroke-width: 0.8; stroke-linejoin: miter; stroke-linecap: square"/>
   </g>
   <g id="text_17">
    <!-- Loss Landscape Contour -->
    <g transform="translate(209.13 22.396875) scale(0.2 -0.2)">
     <defs>
      <path id="DejaVuSans-4c" d="M 628 4666 
L 1259 4666 
L 1259 531 
L 3531 531 
L 3531 0 
L 628 0 
L 628 4666 
z
" transform="scale(0.015625)"/>
      <path id="DejaVuSans-73" d="M 2834 3397 
L 2834 2853 
Q 2591 2978 2328 3040 
Q 2066 3103 1784 3103 
Q 1356 3103 1142 2972 
Q 928 2841 928 2578 
Q 928 2378 1081 2264 
Q 1234 2150 1697 2047 
L 1894 2003 
Q 2506 1872 2764 1633 
Q 3022 1394 3022 966 
Q 3022 478 2636 193 
Q 2250 -91 1575 -91 
Q 1294 -91 989 -36 
Q 684 19 347 128 
L 347 722 
Q 666 556 975 473 
Q 1284 391 1588 391 
Q 1994 391 2212 530 
Q 2431 669 2431 922 
Q 2431 1156 2273 1281 
Q 2116 1406 1581 1522 
L 1381 1569 
Q 847 1681 609 1914 
Q 372 2147 372 2553 
Q 372 3047 722 3315 
Q 1072 3584 1716 3584 
Q 2034 3584 2315 3537 
Q 2597 3491 2834 3397 
z
" transform="scale(0.015625)"/>
      <path id="DejaVuSans-61" d="M 2194 1759 
Q 1497 1759 1228 1600 
Q 959 1441 959 1056 
Q 959 750 1161 570 
Q 1363 391 1709 391 
Q 2188 391 2477 730 
Q 2766 1069 2766 1631 
L 2766 1759 
L 2194 1759 
z
M 3341 1997 
L 3341 0 
L 2766 0 
L 2766 531 
Q 2569 213 2275 61 
Q 1981 -91 1556 -91 
Q 1019 -91 701 211 
Q 384 513 384 1019 
Q 384 1609 779 1909 
Q 1175 2209 1959 2209 
L 2766 2209 
L 2766 2266 
Q 2766 2663 2505 2880 
Q 2244 3097 1772 3097 
Q 1472 3097 1187 3025 
Q 903 2953 641 2809 
L 641 3341 
Q 956 3463 1253 3523 
Q 1550 3584 1831 3584 
Q 2591 3584 2966 3190 
Q 3341 2797 3341 1997 
z
" transform="scale(0.015625)"/>
      <path id="DejaVuSans-64" d="M 2906 2969 
L 2906 4863 
L 3481 4863 
L 3481 0 
L 2906 0 
L 2906 525 
Q 2725 213 2448 61 
Q 2172 -91 1784 -91 
Q 1150 -91 751 415 
Q 353 922 353 1747 
Q 353 2572 751 3078 
Q 1150 3584 1784 3584 
Q 2172 3584 2448 3432 
Q 2725 3281 2906 2969 
z
M 947 1747 
Q 947 1113 1208 752 
Q 1469 391 1925 391 
Q 2381 391 2643 752 
Q 2906 1113 2906 1747 
Q 2906 2381 2643 2742 
Q 2381 3103 1925 3103 
Q 1469 3103 1208 2742 
Q 947 2381 947 1747 
z
" transform="scale(0.015625)"/>
      <path id="DejaVuSans-70" d="M 1159 525 
L 1159 -1331 
L 581 -1331 
L 581 3500 
L 1159 3500 
L 1159 2969 
Q 1341 3281 1617 3432 
Q 1894 3584 2278 3584 
Q 2916 3584 3314 3078 
Q 3713 2572 3713 1747 
Q 3713 922 3314 415 
Q 2916 -91 2278 -91 
Q 1894 -91 1617 61 
Q 1341 213 1159 525 
z
M 3116 1747 
Q 3116 2381 2855 2742 
Q 2594 3103 2138 3103 
Q 1681 3103 1420 2742 
Q 1159 2381 1159 1747 
Q 1159 1113 1420 752 
Q 1681 391 2138 391 
Q 2594 391 2855 752 
Q 3116 1113 3116 1747 
z
" transform="scale(0.015625)"/>
      <path id="DejaVuSans-43" d="M 4122 4306 
L 4122 3641 
Q 3803 3938 3442 4084 
Q 3081 4231 2675 4231 
Q 1875 4231 1450 3742 
Q 1025 3253 1025 2328 
Q 1025 1406 1450 917 
Q 1875 428 2675 428 
Q 3081 428 3442 575 
Q 3803 722 4122 1019 
L 4122 359 
Q 3791 134 3420 21 
Q 3050 -91 2638 -91 
Q 1578 -91 968 557 
Q 359 1206 359 2328 
Q 359 3453 968 4101 
Q 1578 4750 2638 4750 
Q 3056 4750 3426 4639 
Q 3797 4528 4122 4306 
z
" transform="scale(0.015625)"/>
      <path id="DejaVuSans-75" d="M 544 1381 
L 544 3500 
L 1119 3500 
L 1119 1403 
Q 1119 906 1312 657 
Q 1506 409 1894 409 
Q 2359 409 2629 706 
Q 2900 1003 2900 1516 
L 2900 3500 
L 3475 3500 
L 3475 0 
L 2900 0 
L 2900 538 
Q 2691 219 2414 64 
Q 2138 -91 1772 -91 
Q 1169 -91 856 284 
Q 544 659 544 1381 
z
M 1991 3584 
L 1991 3584 
z
" transform="scale(0.015625)"/>
     </defs>
     <use xlink:href="#DejaVuSans-4c"/>
     <use xlink:href="#DejaVuSans-6f" x="53.962891"/>
     <use xlink:href="#DejaVuSans-73" x="115.144531"/>
     <use xlink:href="#DejaVuSans-73" x="167.244141"/>
     <use xlink:href="#DejaVuSans-20" x="219.34375"/>
     <use xlink:href="#DejaVuSans-4c" x="251.130859"/>
     <use xlink:href="#DejaVuSans-61" x="306.84375"/>
     <use xlink:href="#DejaVuSans-6e" x="368.123047"/>
     <use xlink:href="#DejaVuSans-64" x="431.501953"/>
     <use xlink:href="#DejaVuSans-73" x="494.978516"/>
     <use xlink:href="#DejaVuSans-63" x="547.078125"/>
     <use xlink:href="#DejaVuSans-61" x="602.058594"/>
     <use xlink:href="#DejaVuSans-70" x="663.337891"/>
     <use xlink:href="#DejaVuSans-65" x="726.814453"/>
     <use xlink:href="#DejaVuSans-20" x="788.337891"/>
     <use xlink:href="#DejaVuSans-43" x="820.125"/>
     <use xlink:href="#DejaVuSans-6f" x="889.949219"/>
     <use xlink:href="#DejaVuSans-6e" x="951.130859"/>
     <use xlink:href="#DejaVuSans-74" x="1014.509766"/>
     <use xlink:href="#DejaVuSans-6f" x="1053.71875"/>
     <use xlink:href="#DejaVuSans-75" x="1114.900391"/>
     <use xlink:href="#DejaVuSans-72" x="1178.279297"/>
    </g>
   </g>
   <g id="legend_1">
    <g id="patch_7">
     <path d="M 487.777813 51.075 
L 591.910625 51.075 
Q 593.910625 51.075 593.910625 49.075 
L 593.910625 35.396875 
Q 593.910625 33.396875 591.910625 33.396875 
L 487.777813 33.396875 
Q 485.777813 33.396875 485.777813 35.396875 
L 485.777813 49.075 
Q 485.777813 51.075 487.777813 51.075 
z
" style="fill: #ffffff; opacity: 0.8; stroke: #cccccc; stroke-linejoin: miter"/>
    </g>
    <g id="line2d_30">
     <g>
      <use xlink:href="#ma5a5687ea5" x="499.777813" y="41.495313" style="fill: #ff0000; stroke: #ff0000"/>
     </g>
    </g>
    <g id="text_18">
     <!-- Model Position -->
     <g transform="translate(517.777813 44.995313) scale(0.1 -0.1)">
      <defs>
       <path id="DejaVuSans-4d" d="M 628 4666 
L 1569 4666 
L 2759 1491 
L 3956 4666 
L 4897 4666 
L 4897 0 
L 4281 0 
L 4281 4097 
L 3078 897 
L 2444 897 
L 1241 4097 
L 1241 0 
L 628 0 
L 628 4666 
z
" transform="scale(0.015625)"/>
       <path id="DejaVuSans-6c" d="M 603 4863 
L 1178 4863 
L 1178 0 
L 603 0 
L 603 4863 
z
" transform="scale(0.015625)"/>
       <path id="DejaVuSans-50" d="M 1259 4147 
L 1259 2394 
L 2053 2394 
Q 2494 2394 2734 2622 
Q 2975 2850 2975 3272 
Q 2975 3691 2734 3919 
Q 2494 4147 2053 4147 
L 1259 4147 
z
M 628 4666 
L 2053 4666 
Q 2838 4666 3239 4311 
Q 3641 3956 3641 3272 
Q 3641 2581 3239 2228 
Q 2838 1875 2053 1875 
L 1259 1875 
L 1259 0 
L 628 0 
L 628 4666 
z
" transform="scale(0.015625)"/>
      </defs>
      <use xlink:href="#DejaVuSans-4d"/>
      <use xlink:href="#DejaVuSans-6f" x="86.279297"/>
      <use xlink:href="#DejaVuSans-64" x="147.460938"/>
      <use xlink:href="#DejaVuSans-65" x="210.9375"/>
      <use xlink:href="#DejaVuSans-6c" x="272.460938"/>
      <use xlink:href="#DejaVuSans-20" x="300.244141"/>
      <use xlink:href="#DejaVuSans-50" x="332.03125"/>
      <use xlink:href="#DejaVuSans-6f" x="388.708984"/>
      <use xlink:href="#DejaVuSans-73" x="449.890625"/>
      <use xlink:href="#DejaVuSans-69" x="501.990234"/>
      <use xlink:href="#DejaVuSans-74" x="529.773438"/>
      <use xlink:href="#DejaVuSans-69" x="568.982422"/>
      <use xlink:href="#DejaVuSans-6f" x="596.765625"/>
      <use xlink:href="#DejaVuSans-6e" x="657.947266"/>
     </g>
    </g>
   </g>
  </g>
  <g id="axes_2">
   <g id="patch_8">
    <path d="M 632.390625 582.796875 
L 660.110625 582.796875 
L 660.110625 28.396875 
L 632.390625 28.396875 
z
" style="fill: #ffffff"/>
   </g>
   <g id="patch_9">
    <path clip-path="url(#p3059f874e5)" style="fill: #ffffff; stroke: #ffffff; stroke-width: 0.01; stroke-linejoin: miter"/>
   </g>
   <g id="matplotlib.axis_3"/>
   <g id="matplotlib.axis_4">
    <g id="ytick_8">
     <g id="line2d_31">
      <g>
       <use xlink:href="#ma6bcaa5d14" x="660.110625" y="566.490993" style="stroke: #000000; stroke-width: 0.8"/>
      </g>
     </g>
     <g id="text_19">
      <!-- 0 -->
      <g transform="translate(663.610625 572.569743) scale(0.16 -0.16)">
       <use xlink:href="#DejaVuSans-30"/>
      </g>
     </g>
    </g>
    <g id="ytick_9">
     <g id="line2d_32">
      <g>
       <use xlink:href="#ma6bcaa5d14" x="660.110625" y="501.267463" style="stroke: #000000; stroke-width: 0.8"/>
      </g>
     </g>
     <g id="text_20">
      <!-- 4 -->
      <g transform="translate(663.610625 507.346213) scale(0.16 -0.16)">
       <defs>
        <path id="DejaVuSans-34" d="M 2419 4116 
L 825 1625 
L 2419 1625 
L 2419 4116 
z
M 2253 4666 
L 3047 4666 
L 3047 1625 
L 3713 1625 
L 3713 1100 
L 3047 1100 
L 3047 0 
L 2419 0 
L 2419 1100 
L 313 1100 
L 313 1709 
L 2253 4666 
z
" transform="scale(0.015625)"/>
       </defs>
       <use xlink:href="#DejaVuSans-34"/>
      </g>
     </g>
    </g>
    <g id="ytick_10">
     <g id="line2d_33">
      <g>
       <use xlink:href="#ma6bcaa5d14" x="660.110625" y="436.043934" style="stroke: #000000; stroke-width: 0.8"/>
      </g>
     </g>
     <g id="text_21">
      <!-- 8 -->
      <g transform="translate(663.610625 442.122684) scale(0.16 -0.16)">
       <defs>
        <path id="DejaVuSans-38" d="M 2034 2216 
Q 1584 2216 1326 1975 
Q 1069 1734 1069 1313 
Q 1069 891 1326 650 
Q 1584 409 2034 409 
Q 2484 409 2743 651 
Q 3003 894 3003 1313 
Q 3003 1734 2745 1975 
Q 2488 2216 2034 2216 
z
M 1403 2484 
Q 997 2584 770 2862 
Q 544 3141 544 3541 
Q 544 4100 942 4425 
Q 1341 4750 2034 4750 
Q 2731 4750 3128 4425 
Q 3525 4100 3525 3541 
Q 3525 3141 3298 2862 
Q 3072 2584 2669 2484 
Q 3125 2378 3379 2068 
Q 3634 1759 3634 1313 
Q 3634 634 3220 271 
Q 2806 -91 2034 -91 
Q 1263 -91 848 271 
Q 434 634 434 1313 
Q 434 1759 690 2068 
Q 947 2378 1403 2484 
z
M 1172 3481 
Q 1172 3119 1398 2916 
Q 1625 2713 2034 2713 
Q 2441 2713 2670 2916 
Q 2900 3119 2900 3481 
Q 2900 3844 2670 4047 
Q 2441 4250 2034 4250 
Q 1625 4250 1398 4047 
Q 1172 3844 1172 3481 
z
" transform="scale(0.015625)"/>
       </defs>
       <use xlink:href="#DejaVuSans-38"/>
      </g>
     </g>
    </g>
    <g id="ytick_11">
     <g id="line2d_34">
      <g>
       <use xlink:href="#ma6bcaa5d14" x="660.110625" y="370.820404" style="stroke: #000000; stroke-width: 0.8"/>
      </g>
     </g>
     <g id="text_22">
      <!-- 12 -->
      <g transform="translate(663.610625 376.899154) scale(0.16 -0.16)">
       <use xlink:href="#DejaVuSans-31"/>
       <use xlink:href="#DejaVuSans-32" x="63.623047"/>
      </g>
     </g>
    </g>
    <g id="ytick_12">
     <g id="line2d_35">
      <g>
       <use xlink:href="#ma6bcaa5d14" x="660.110625" y="305.596875" style="stroke: #000000; stroke-width: 0.8"/>
      </g>
     </g>
     <g id="text_23">
      <!-- 16 -->
      <g transform="translate(663.610625 311.675625) scale(0.16 -0.16)">
       <defs>
        <path id="DejaVuSans-36" d="M 2113 2584 
Q 1688 2584 1439 2293 
Q 1191 2003 1191 1497 
Q 1191 994 1439 701 
Q 1688 409 2113 409 
Q 2538 409 2786 701 
Q 3034 994 3034 1497 
Q 3034 2003 2786 2293 
Q 2538 2584 2113 2584 
z
M 3366 4563 
L 3366 3988 
Q 3128 4100 2886 4159 
Q 2644 4219 2406 4219 
Q 1781 4219 1451 3797 
Q 1122 3375 1075 2522 
Q 1259 2794 1537 2939 
Q 1816 3084 2150 3084 
Q 2853 3084 3261 2657 
Q 3669 2231 3669 1497 
Q 3669 778 3244 343 
Q 2819 -91 2113 -91 
Q 1303 -91 875 529 
Q 447 1150 447 2328 
Q 447 3434 972 4092 
Q 1497 4750 2381 4750 
Q 2619 4750 2861 4703 
Q 3103 4656 3366 4563 
z
" transform="scale(0.015625)"/>
       </defs>
       <use xlink:href="#DejaVuSans-31"/>
       <use xlink:href="#DejaVuSans-36" x="63.623047"/>
      </g>
     </g>
    </g>
    <g id="ytick_13">
     <g id="line2d_36">
      <g>
       <use xlink:href="#ma6bcaa5d14" x="660.110625" y="240.373346" style="stroke: #000000; stroke-width: 0.8"/>
      </g>
     </g>
     <g id="text_24">
      <!-- 20 -->
      <g transform="translate(663.610625 246.452096) scale(0.16 -0.16)">
       <use xlink:href="#DejaVuSans-32"/>
       <use xlink:href="#DejaVuSans-30" x="63.623047"/>
      </g>
     </g>
    </g>
    <g id="ytick_14">
     <g id="line2d_37">
      <g>
       <use xlink:href="#ma6bcaa5d14" x="660.110625" y="175.149816" style="stroke: #000000; stroke-width: 0.8"/>
      </g>
     </g>
     <g id="text_25">
      <!-- 24 -->
      <g transform="translate(663.610625 181.228566) scale(0.16 -0.16)">
       <use xlink:href="#DejaVuSans-32"/>
       <use xlink:href="#DejaVuSans-34" x="63.623047"/>
      </g>
     </g>
    </g>
    <g id="ytick_15">
     <g id="line2d_38">
      <g>
       <use xlink:href="#ma6bcaa5d14" x="660.110625" y="109.926287" style="stroke: #000000; stroke-width: 0.8"/>
      </g>
     </g>
     <g id="text_26">
      <!-- 28 -->
      <g transform="translate(663.610625 116.005037) scale(0.16 -0.16)">
       <use xlink:href="#DejaVuSans-32"/>
       <use xlink:href="#DejaVuSans-38" x="63.623047"/>
      </g>
     </g>
    </g>
    <g id="ytick_16">
     <g id="line2d_39">
      <g>
       <use xlink:href="#ma6bcaa5d14" x="660.110625" y="44.702757" style="stroke: #000000; stroke-width: 0.8"/>
      </g>
     </g>
     <g id="text_27">
      <!-- 32 -->
      <g transform="translate(663.610625 50.781507) scale(0.16 -0.16)">
       <defs>
        <path id="DejaVuSans-33" d="M 2597 2516 
Q 3050 2419 3304 2112 
Q 3559 1806 3559 1356 
Q 3559 666 3084 287 
Q 2609 -91 1734 -91 
Q 1441 -91 1130 -33 
Q 819 25 488 141 
L 488 750 
Q 750 597 1062 519 
Q 1375 441 1716 441 
Q 2309 441 2620 675 
Q 2931 909 2931 1356 
Q 2931 1769 2642 2001 
Q 2353 2234 1838 2234 
L 1294 2234 
L 1294 2753 
L 1863 2753 
Q 2328 2753 2575 2939 
Q 2822 3125 2822 3475 
Q 2822 3834 2567 4026 
Q 2313 4219 1838 4219 
Q 1578 4219 1281 4162 
Q 984 4106 628 3988 
L 628 4550 
Q 988 4650 1302 4700 
Q 1616 4750 1894 4750 
Q 2613 4750 3031 4423 
Q 3450 4097 3450 3541 
Q 3450 3153 3228 2886 
Q 3006 2619 2597 2516 
z
" transform="scale(0.015625)"/>
       </defs>
       <use xlink:href="#DejaVuSans-33"/>
       <use xlink:href="#DejaVuSans-32" x="63.623047"/>
      </g>
     </g>
    </g>
    <g id="text_28">
     <!-- Loss -->
     <g transform="translate(695.569063 316.564063) rotate(-90) scale(0.1 -0.1)">
      <use xlink:href="#DejaVuSans-4c"/>
      <use xlink:href="#DejaVuSans-6f" x="53.962891"/>
      <use xlink:href="#DejaVuSans-73" x="115.144531"/>
      <use xlink:href="#DejaVuSans-73" x="167.244141"/>
     </g>
    </g>
   </g>
   <g id="LineCollection_1"/>
   <g id="LineCollection_2">
    <path d="M 632.390625 582.796875 
L 660.110625 582.796875 
" clip-path="url(#p02b0e78707)" style="fill: none; stroke: #440154; stroke-width: 1.5"/>
    <path d="M 632.390625 566.490993 
L 660.110625 566.490993 
" clip-path="url(#p02b0e78707)" style="fill: none; stroke: #460b5e; stroke-width: 1.5"/>
    <path d="M 632.390625 550.18511 
L 660.110625 550.18511 
" clip-path="url(#p02b0e78707)" style="fill: none; stroke: #481769; stroke-width: 1.5"/>
    <path d="M 632.390625 533.879228 
L 660.110625 533.879228 
" clip-path="url(#p02b0e78707)" style="fill: none; stroke: #482071; stroke-width: 1.5"/>
    <path d="M 632.390625 517.573346 
L 660.110625 517.573346 
" clip-path="url(#p02b0e78707)" style="fill: none; stroke: #472a7a; stroke-width: 1.5"/>
    <path d="M 632.390625 501.267463 
L 660.110625 501.267463 
" clip-path="url(#p02b0e78707)" style="fill: none; stroke: #46337f; stroke-width: 1.5"/>
    <path d="M 632.390625 484.961581 
L 660.110625 484.961581 
" clip-path="url(#p02b0e78707)" style="fill: none; stroke: #433d84; stroke-width: 1.5"/>
    <path d="M 632.390625 468.655699 
L 660.110625 468.655699 
" clip-path="url(#p02b0e78707)" style="fill: none; stroke: #404588; stroke-width: 1.5"/>
    <path d="M 632.390625 452.349816 
L 660.110625 452.349816 
" clip-path="url(#p02b0e78707)" style="fill: none; stroke: #3d4e8a; stroke-width: 1.5"/>
    <path d="M 632.390625 436.043934 
L 660.110625 436.043934 
" clip-path="url(#p02b0e78707)" style="fill: none; stroke: #39558c; stroke-width: 1.5"/>
    <path d="M 632.390625 419.738051 
L 660.110625 419.738051 
" clip-path="url(#p02b0e78707)" style="fill: none; stroke: #355e8d; stroke-width: 1.5"/>
    <path d="M 632.390625 403.432169 
L 660.110625 403.432169 
" clip-path="url(#p02b0e78707)" style="fill: none; stroke: #32658e; stroke-width: 1.5"/>
    <path d="M 632.390625 387.126287 
L 660.110625 387.126287 
" clip-path="url(#p02b0e78707)" style="fill: none; stroke: #2e6d8e; stroke-width: 1.5"/>
    <path d="M 632.390625 370.820404 
L 660.110625 370.820404 
" clip-path="url(#p02b0e78707)" style="fill: none; stroke: #2c738e; stroke-width: 1.5"/>
    <path d="M 632.390625 354.514522 
L 660.110625 354.514522 
" clip-path="url(#p02b0e78707)" style="fill: none; stroke: #297b8e; stroke-width: 1.5"/>
    <path d="M 632.390625 338.20864 
L 660.110625 338.20864 
" clip-path="url(#p02b0e78707)" style="fill: none; stroke: #26828e; stroke-width: 1.5"/>
    <path d="M 632.390625 321.902757 
L 660.110625 321.902757 
" clip-path="url(#p02b0e78707)" style="fill: none; stroke: #23898e; stroke-width: 1.5"/>
    <path d="M 632.390625 305.596875 
L 660.110625 305.596875 
" clip-path="url(#p02b0e78707)" style="fill: none; stroke: #21918c; stroke-width: 1.5"/>
    <path d="M 632.390625 289.290993 
L 660.110625 289.290993 
" clip-path="url(#p02b0e78707)" style="fill: none; stroke: #1f978b; stroke-width: 1.5"/>
    <path d="M 632.390625 272.98511 
L 660.110625 272.98511 
" clip-path="url(#p02b0e78707)" style="fill: none; stroke: #1f9f88; stroke-width: 1.5"/>
    <path d="M 632.390625 256.679228 
L 660.110625 256.679228 
" clip-path="url(#p02b0e78707)" style="fill: none; stroke: #21a585; stroke-width: 1.5"/>
    <path d="M 632.390625 240.373346 
L 660.110625 240.373346 
" clip-path="url(#p02b0e78707)" style="fill: none; stroke: #26ad81; stroke-width: 1.5"/>
    <path d="M 632.390625 224.067463 
L 660.110625 224.067463 
" clip-path="url(#p02b0e78707)" style="fill: none; stroke: #2eb37c; stroke-width: 1.5"/>
    <path d="M 632.390625 207.761581 
L 660.110625 207.761581 
" clip-path="url(#p02b0e78707)" style="fill: none; stroke: #3aba76; stroke-width: 1.5"/>
    <path d="M 632.390625 191.455699 
L 660.110625 191.455699 
" clip-path="url(#p02b0e78707)" style="fill: none; stroke: #46c06f; stroke-width: 1.5"/>
    <path d="M 632.390625 175.149816 
L 660.110625 175.149816 
" clip-path="url(#p02b0e78707)" style="fill: none; stroke: #56c667; stroke-width: 1.5"/>
    <path d="M 632.390625 158.843934 
L 660.110625 158.843934 
" clip-path="url(#p02b0e78707)" style="fill: none; stroke: #65cb5e; stroke-width: 1.5"/>
    <path d="M 632.390625 142.538051 
L 660.110625 142.538051 
" clip-path="url(#p02b0e78707)" style="fill: none; stroke: #77d153; stroke-width: 1.5"/>
    <path d="M 632.390625 126.232169 
L 660.110625 126.232169 
" clip-path="url(#p02b0e78707)" style="fill: none; stroke: #89d548; stroke-width: 1.5"/>
    <path d="M 632.390625 109.926287 
L 660.110625 109.926287 
" clip-path="url(#p02b0e78707)" style="fill: none; stroke: #9dd93b; stroke-width: 1.5"/>
    <path d="M 632.390625 93.620404 
L 660.110625 93.620404 
" clip-path="url(#p02b0e78707)" style="fill: none; stroke: #b0dd2f; stroke-width: 1.5"/>
    <path d="M 632.390625 77.314522 
L 660.110625 77.314522 
" clip-path="url(#p02b0e78707)" style="fill: none; stroke: #c5e021; stroke-width: 1.5"/>
    <path d="M 632.390625 61.00864 
L 660.110625 61.00864 
" clip-path="url(#p02b0e78707)" style="fill: none; stroke: #d8e219; stroke-width: 1.5"/>
    <path d="M 632.390625 44.702757 
L 660.110625 44.702757 
" clip-path="url(#p02b0e78707)" style="fill: none; stroke: #ece51b; stroke-width: 1.5"/>
    <path d="M 632.390625 28.396875 
L 660.110625 28.396875 
" clip-path="url(#p02b0e78707)" style="fill: none; stroke: #fde725; stroke-width: 1.5"/>
   </g>
   <g id="patch_10">
    <path d="M 632.390625 582.796875 
L 646.250625 582.796875 
L 660.110625 582.796875 
L 660.110625 28.396875 
L 646.250625 28.396875 
L 632.390625 28.396875 
L 632.390625 582.796875 
z
" style="fill: none; stroke: #000000; stroke-width: 0.8; stroke-linejoin: miter; stroke-linecap: square"/>
   </g>
  </g>
 </g>
 <defs>
  <clipPath id="p6abaa58ddc">
   <rect x="63.230625" y="28.396875" width="535.68" height="554.4"/>
  </clipPath>
  <clipPath id="p3059f874e5">
   <rect x="632.390625" y="28.396875" width="27.72" height="554.4"/>
  </clipPath>
  <clipPath id="p02b0e78707">
   <path d="M 632.390625 584.296875 
L 660.110625 584.296875 
L 660.110625 26.896875 
L 632.390625 26.896875 
z
"/>
  </clipPath>
 </defs>
</svg>
