<?xml version="1.0" encoding="utf-8" standalone="no"?>
<!DOCTYPE svg PUBLIC "-//W3C//DTD SVG 1.1//EN"
  "http://www.w3.org/Graphics/SVG/1.1/DTD/svg11.dtd">
<svg xmlns:xlink="http://www.w3.org/1999/xlink" width="704.84875pt" height="622.66pt" viewBox="0 0 704.84875 622.66" xmlns="http://www.w3.org/2000/svg" version="1.1">
 <metadata>
  <rdf:RDF xmlns:dc="http://purl.org/dc/elements/1.1/" xmlns:cc="http://creativecommons.org/ns#" xmlns:rdf="http://www.w3.org/1999/02/22-rdf-syntax-ns#">
   <cc:Work>
    <dc:type rdf:resource="http://purl.org/dc/dcmitype/StillImage"/>
    <dc:date>2025-02-12T13:33:04.467021</dc:date>
    <dc:format>image/svg+xml</dc:format>
    <dc:creator>
     <cc:Agent>
      <dc:title>Matplotlib v3.6.2, https://matplotlib.org/</dc:title>
     </cc:Agent>
    </dc:creator>
   </cc:Work>
  </rdf:RDF>
 </metadata>
 <defs>
  <style type="text/css">*{stroke-linejoin: round; stroke-linecap: butt}</style>
 </defs>
 <g id="figure_1">
  <g id="patch_1">
   <path d="M 0 622.66 
L 704.84875 622.66 
L 704.84875 0 
L 0 0 
z
" style="fill: #ffffff"/>
  </g>
  <g id="axes_1">
   <g id="patch_2">
    <path d="M 63.230625 582.796875 
L 598.910625 582.796875 
L 598.910625 28.396875 
L 63.230625 28.396875 
z
" style="fill: #ffffff"/>
   </g>
   <g id="matplotlib.axis_1">
    <g id="xtick_1">
     <g id="line2d_1">
      <defs>
       <path id="m71bc1c4418" d="M 0 0 
L 0 -3.5 
" style="stroke: #000000; stroke-width: 0.8"/>
      </defs>
      <g>
       <use xlink:href="#m71bc1c4418" x="63.230625" y="582.796875" style="stroke: #000000; stroke-width: 0.8"/>
      </g>
     </g>
     <g id="line2d_2">
      <defs>
       <path id="m57427c70ce" d="M 0 0 
L 0 3.5 
" style="stroke: #000000; stroke-width: 0.8"/>
      </defs>
      <g>
       <use xlink:href="#m57427c70ce" x="63.230625" y="28.396875" style="stroke: #000000; stroke-width: 0.8"/>
      </g>
     </g>
     <g id="text_1">
      <!-- −1.5 -->
      <g transform="translate(43.804375 598.454375) scale(0.16 -0.16)">
       <defs>
        <path id="DejaVuSans-2212" d="M 678 2272 
L 4684 2272 
L 4684 1741 
L 678 1741 
L 678 2272 
z
" transform="scale(0.015625)"/>
        <path id="DejaVuSans-31" d="M 794 531 
L 1825 531 
L 1825 4091 
L 703 3866 
L 703 4441 
L 1819 4666 
L 2450 4666 
L 2450 531 
L 3481 531 
L 3481 0 
L 794 0 
L 794 531 
z
" transform="scale(0.015625)"/>
        <path id="DejaVuSans-2e" d="M 684 794 
L 1344 794 
L 1344 0 
L 684 0 
L 684 794 
z
" transform="scale(0.015625)"/>
        <path id="DejaVuSans-35" d="M 691 4666 
L 3169 4666 
L 3169 4134 
L 1269 4134 
L 1269 2991 
Q 1406 3038 1543 3061 
Q 1681 3084 1819 3084 
Q 2600 3084 3056 2656 
Q 3513 2228 3513 1497 
Q 3513 744 3044 326 
Q 2575 -91 1722 -91 
Q 1428 -91 1123 -41 
Q 819 9 494 109 
L 494 744 
Q 775 591 1075 516 
Q 1375 441 1709 441 
Q 2250 441 2565 725 
Q 2881 1009 2881 1497 
Q 2881 1984 2565 2268 
Q 2250 2553 1709 2553 
Q 1456 2553 1204 2497 
Q 953 2441 691 2322 
L 691 4666 
z
" transform="scale(0.015625)"/>
       </defs>
       <use xlink:href="#DejaVuSans-2212"/>
       <use xlink:href="#DejaVuSans-31" x="83.789062"/>
       <use xlink:href="#DejaVuSans-2e" x="147.412109"/>
       <use xlink:href="#DejaVuSans-35" x="179.199219"/>
      </g>
     </g>
    </g>
    <g id="xtick_2">
     <g id="line2d_3">
      <g>
       <use xlink:href="#m71bc1c4418" x="152.510625" y="582.796875" style="stroke: #000000; stroke-width: 0.8"/>
      </g>
     </g>
     <g id="line2d_4">
      <g>
       <use xlink:href="#m57427c70ce" x="152.510625" y="28.396875" style="stroke: #000000; stroke-width: 0.8"/>
      </g>
     </g>
     <g id="text_2">
      <!-- −1.0 -->
      <g transform="translate(133.084375 598.454375) scale(0.16 -0.16)">
       <defs>
        <path id="DejaVuSans-30" d="M 2034 4250 
Q 1547 4250 1301 3770 
Q 1056 3291 1056 2328 
Q 1056 1369 1301 889 
Q 1547 409 2034 409 
Q 2525 409 2770 889 
Q 3016 1369 3016 2328 
Q 3016 3291 2770 3770 
Q 2525 4250 2034 4250 
z
M 2034 4750 
Q 2819 4750 3233 4129 
Q 3647 3509 3647 2328 
Q 3647 1150 3233 529 
Q 2819 -91 2034 -91 
Q 1250 -91 836 529 
Q 422 1150 422 2328 
Q 422 3509 836 4129 
Q 1250 4750 2034 4750 
z
" transform="scale(0.015625)"/>
       </defs>
       <use xlink:href="#DejaVuSans-2212"/>
       <use xlink:href="#DejaVuSans-31" x="83.789062"/>
       <use xlink:href="#DejaVuSans-2e" x="147.412109"/>
       <use xlink:href="#DejaVuSans-30" x="179.199219"/>
      </g>
     </g>
    </g>
    <g id="xtick_3">
     <g id="line2d_5">
      <g>
       <use xlink:href="#m71bc1c4418" x="241.790625" y="582.796875" style="stroke: #000000; stroke-width: 0.8"/>
      </g>
     </g>
     <g id="line2d_6">
      <g>
       <use xlink:href="#m57427c70ce" x="241.790625" y="28.396875" style="stroke: #000000; stroke-width: 0.8"/>
      </g>
     </g>
     <g id="text_3">
      <!-- −0.5 -->
      <g transform="translate(222.364375 598.454375) scale(0.16 -0.16)">
       <use xlink:href="#DejaVuSans-2212"/>
       <use xlink:href="#DejaVuSans-30" x="83.789062"/>
       <use xlink:href="#DejaVuSans-2e" x="147.412109"/>
       <use xlink:href="#DejaVuSans-35" x="179.199219"/>
      </g>
     </g>
    </g>
    <g id="xtick_4">
     <g id="line2d_7">
      <g>
       <use xlink:href="#m71bc1c4418" x="331.070625" y="582.796875" style="stroke: #000000; stroke-width: 0.8"/>
      </g>
     </g>
     <g id="line2d_8">
      <g>
       <use xlink:href="#m57427c70ce" x="331.070625" y="28.396875" style="stroke: #000000; stroke-width: 0.8"/>
      </g>
     </g>
     <g id="text_4">
      <!-- 0.0 -->
      <g transform="translate(318.348125 598.454375) scale(0.16 -0.16)">
       <use xlink:href="#DejaVuSans-30"/>
       <use xlink:href="#DejaVuSans-2e" x="63.623047"/>
       <use xlink:href="#DejaVuSans-30" x="95.410156"/>
      </g>
     </g>
    </g>
    <g id="xtick_5">
     <g id="line2d_9">
      <g>
       <use xlink:href="#m71bc1c4418" x="420.350625" y="582.796875" style="stroke: #000000; stroke-width: 0.8"/>
      </g>
     </g>
     <g id="line2d_10">
      <g>
       <use xlink:href="#m57427c70ce" x="420.350625" y="28.396875" style="stroke: #000000; stroke-width: 0.8"/>
      </g>
     </g>
     <g id="text_5">
      <!-- 0.5 -->
      <g transform="translate(407.628125 598.454375) scale(0.16 -0.16)">
       <use xlink:href="#DejaVuSans-30"/>
       <use xlink:href="#DejaVuSans-2e" x="63.623047"/>
       <use xlink:href="#DejaVuSans-35" x="95.410156"/>
      </g>
     </g>
    </g>
    <g id="xtick_6">
     <g id="line2d_11">
      <g>
       <use xlink:href="#m71bc1c4418" x="509.630625" y="582.796875" style="stroke: #000000; stroke-width: 0.8"/>
      </g>
     </g>
     <g id="line2d_12">
      <g>
       <use xlink:href="#m57427c70ce" x="509.630625" y="28.396875" style="stroke: #000000; stroke-width: 0.8"/>
      </g>
     </g>
     <g id="text_6">
      <!-- 1.0 -->
      <g transform="translate(496.908125 598.454375) scale(0.16 -0.16)">
       <use xlink:href="#DejaVuSans-31"/>
       <use xlink:href="#DejaVuSans-2e" x="63.623047"/>
       <use xlink:href="#DejaVuSans-30" x="95.410156"/>
      </g>
     </g>
    </g>
    <g id="xtick_7">
     <g id="line2d_13">
      <g>
       <use xlink:href="#m71bc1c4418" x="598.910625" y="582.796875" style="stroke: #000000; stroke-width: 0.8"/>
      </g>
     </g>
     <g id="line2d_14">
      <g>
       <use xlink:href="#m57427c70ce" x="598.910625" y="28.396875" style="stroke: #000000; stroke-width: 0.8"/>
      </g>
     </g>
     <g id="text_7">
      <!-- 1.5 -->
      <g transform="translate(586.188125 598.454375) scale(0.16 -0.16)">
       <use xlink:href="#DejaVuSans-31"/>
       <use xlink:href="#DejaVuSans-2e" x="63.623047"/>
       <use xlink:href="#DejaVuSans-35" x="95.410156"/>
      </g>
     </g>
    </g>
    <g id="text_8">
     <!-- Direction 1 -->
     <g transform="translate(303.715156 613.380313) scale(0.1 -0.1)">
      <defs>
       <path id="DejaVuSans-44" d="M 1259 4147 
L 1259 519 
L 2022 519 
Q 2988 519 3436 956 
Q 3884 1394 3884 2338 
Q 3884 3275 3436 3711 
Q 2988 4147 2022 4147 
L 1259 4147 
z
M 628 4666 
L 1925 4666 
Q 3281 4666 3915 4102 
Q 4550 3538 4550 2338 
Q 4550 1131 3912 565 
Q 3275 0 1925 0 
L 628 0 
L 628 4666 
z
" transform="scale(0.015625)"/>
       <path id="DejaVuSans-69" d="M 603 3500 
L 1178 3500 
L 1178 0 
L 603 0 
L 603 3500 
z
M 603 4863 
L 1178 4863 
L 1178 4134 
L 603 4134 
L 603 4863 
z
" transform="scale(0.015625)"/>
       <path id="DejaVuSans-72" d="M 2631 2963 
Q 2534 3019 2420 3045 
Q 2306 3072 2169 3072 
Q 1681 3072 1420 2755 
Q 1159 2438 1159 1844 
L 1159 0 
L 581 0 
L 581 3500 
L 1159 3500 
L 1159 2956 
Q 1341 3275 1631 3429 
Q 1922 3584 2338 3584 
Q 2397 3584 2469 3576 
Q 2541 3569 2628 3553 
L 2631 2963 
z
" transform="scale(0.015625)"/>
       <path id="DejaVuSans-65" d="M 3597 1894 
L 3597 1613 
L 953 1613 
Q 991 1019 1311 708 
Q 1631 397 2203 397 
Q 2534 397 2845 478 
Q 3156 559 3463 722 
L 3463 178 
Q 3153 47 2828 -22 
Q 2503 -91 2169 -91 
Q 1331 -91 842 396 
Q 353 884 353 1716 
Q 353 2575 817 3079 
Q 1281 3584 2069 3584 
Q 2775 3584 3186 3129 
Q 3597 2675 3597 1894 
z
M 3022 2063 
Q 3016 2534 2758 2815 
Q 2500 3097 2075 3097 
Q 1594 3097 1305 2825 
Q 1016 2553 972 2059 
L 3022 2063 
z
" transform="scale(0.015625)"/>
       <path id="DejaVuSans-63" d="M 3122 3366 
L 3122 2828 
Q 2878 2963 2633 3030 
Q 2388 3097 2138 3097 
Q 1578 3097 1268 2742 
Q 959 2388 959 1747 
Q 959 1106 1268 751 
Q 1578 397 2138 397 
Q 2388 397 2633 464 
Q 2878 531 3122 666 
L 3122 134 
Q 2881 22 2623 -34 
Q 2366 -91 2075 -91 
Q 1284 -91 818 406 
Q 353 903 353 1747 
Q 353 2603 823 3093 
Q 1294 3584 2113 3584 
Q 2378 3584 2631 3529 
Q 2884 3475 3122 3366 
z
" transform="scale(0.015625)"/>
       <path id="DejaVuSans-74" d="M 1172 4494 
L 1172 3500 
L 2356 3500 
L 2356 3053 
L 1172 3053 
L 1172 1153 
Q 1172 725 1289 603 
Q 1406 481 1766 481 
L 2356 481 
L 2356 0 
L 1766 0 
Q 1100 0 847 248 
Q 594 497 594 1153 
L 594 3053 
L 172 3053 
L 172 3500 
L 594 3500 
L 594 4494 
L 1172 4494 
z
" transform="scale(0.015625)"/>
       <path id="DejaVuSans-6f" d="M 1959 3097 
Q 1497 3097 1228 2736 
Q 959 2375 959 1747 
Q 959 1119 1226 758 
Q 1494 397 1959 397 
Q 2419 397 2687 759 
Q 2956 1122 2956 1747 
Q 2956 2369 2687 2733 
Q 2419 3097 1959 3097 
z
M 1959 3584 
Q 2709 3584 3137 3096 
Q 3566 2609 3566 1747 
Q 3566 888 3137 398 
Q 2709 -91 1959 -91 
Q 1206 -91 779 398 
Q 353 888 353 1747 
Q 353 2609 779 3096 
Q 1206 3584 1959 3584 
z
" transform="scale(0.015625)"/>
       <path id="DejaVuSans-6e" d="M 3513 2113 
L 3513 0 
L 2938 0 
L 2938 2094 
Q 2938 2591 2744 2837 
Q 2550 3084 2163 3084 
Q 1697 3084 1428 2787 
Q 1159 2491 1159 1978 
L 1159 0 
L 581 0 
L 581 3500 
L 1159 3500 
L 1159 2956 
Q 1366 3272 1645 3428 
Q 1925 3584 2291 3584 
Q 2894 3584 3203 3211 
Q 3513 2838 3513 2113 
z
" transform="scale(0.015625)"/>
       <path id="DejaVuSans-20" transform="scale(0.015625)"/>
      </defs>
      <use xlink:href="#DejaVuSans-44"/>
      <use xlink:href="#DejaVuSans-69" x="77.001953"/>
      <use xlink:href="#DejaVuSans-72" x="104.785156"/>
      <use xlink:href="#DejaVuSans-65" x="143.648438"/>
      <use xlink:href="#DejaVuSans-63" x="205.171875"/>
      <use xlink:href="#DejaVuSans-74" x="260.152344"/>
      <use xlink:href="#DejaVuSans-69" x="299.361328"/>
      <use xlink:href="#DejaVuSans-6f" x="327.144531"/>
      <use xlink:href="#DejaVuSans-6e" x="388.326172"/>
      <use xlink:href="#DejaVuSans-20" x="451.705078"/>
      <use xlink:href="#DejaVuSans-31" x="483.492188"/>
     </g>
    </g>
   </g>
   <g id="matplotlib.axis_2">
    <g id="ytick_1">
     <g id="line2d_15">
      <defs>
       <path id="mea7ca67e8a" d="M 0 0 
L 3.5 0 
" style="stroke: #000000; stroke-width: 0.8"/>
      </defs>
      <g>
       <use xlink:href="#mea7ca67e8a" x="63.230625" y="582.796875" style="stroke: #000000; stroke-width: 0.8"/>
      </g>
     </g>
     <g id="line2d_16">
      <defs>
       <path id="mc673af34fe" d="M 0 0 
L -3.5 0 
" style="stroke: #000000; stroke-width: 0.8"/>
      </defs>
      <g>
       <use xlink:href="#mc673af34fe" x="598.910625" y="582.796875" style="stroke: #000000; stroke-width: 0.8"/>
      </g>
     </g>
     <g id="text_9">
      <!-- −1.5 -->
      <g transform="translate(20.878125 588.875625) scale(0.16 -0.16)">
       <use xlink:href="#DejaVuSans-2212"/>
       <use xlink:href="#DejaVuSans-31" x="83.789062"/>
       <use xlink:href="#DejaVuSans-2e" x="147.412109"/>
       <use xlink:href="#DejaVuSans-35" x="179.199219"/>
      </g>
     </g>
    </g>
    <g id="ytick_2">
     <g id="line2d_17">
      <g>
       <use xlink:href="#mea7ca67e8a" x="63.230625" y="490.396875" style="stroke: #000000; stroke-width: 0.8"/>
      </g>
     </g>
     <g id="line2d_18">
      <g>
       <use xlink:href="#mc673af34fe" x="598.910625" y="490.396875" style="stroke: #000000; stroke-width: 0.8"/>
      </g>
     </g>
     <g id="text_10">
      <!-- −1.0 -->
      <g transform="translate(20.878125 496.475625) scale(0.16 -0.16)">
       <use xlink:href="#DejaVuSans-2212"/>
       <use xlink:href="#DejaVuSans-31" x="83.789062"/>
       <use xlink:href="#DejaVuSans-2e" x="147.412109"/>
       <use xlink:href="#DejaVuSans-30" x="179.199219"/>
      </g>
     </g>
    </g>
    <g id="ytick_3">
     <g id="line2d_19">
      <g>
       <use xlink:href="#mea7ca67e8a" x="63.230625" y="397.996875" style="stroke: #000000; stroke-width: 0.8"/>
      </g>
     </g>
     <g id="line2d_20">
      <g>
       <use xlink:href="#mc673af34fe" x="598.910625" y="397.996875" style="stroke: #000000; stroke-width: 0.8"/>
      </g>
     </g>
     <g id="text_11">
      <!-- −0.5 -->
      <g transform="translate(20.878125 404.075625) scale(0.16 -0.16)">
       <use xlink:href="#DejaVuSans-2212"/>
       <use xlink:href="#DejaVuSans-30" x="83.789062"/>
       <use xlink:href="#DejaVuSans-2e" x="147.412109"/>
       <use xlink:href="#DejaVuSans-35" x="179.199219"/>
      </g>
     </g>
    </g>
    <g id="ytick_4">
     <g id="line2d_21">
      <g>
       <use xlink:href="#mea7ca67e8a" x="63.230625" y="305.596875" style="stroke: #000000; stroke-width: 0.8"/>
      </g>
     </g>
     <g id="line2d_22">
      <g>
       <use xlink:href="#mc673af34fe" x="598.910625" y="305.596875" style="stroke: #000000; stroke-width: 0.8"/>
      </g>
     </g>
     <g id="text_12">
      <!-- 0.0 -->
      <g transform="translate(34.285625 311.675625) scale(0.16 -0.16)">
       <use xlink:href="#DejaVuSans-30"/>
       <use xlink:href="#DejaVuSans-2e" x="63.623047"/>
       <use xlink:href="#DejaVuSans-30" x="95.410156"/>
      </g>
     </g>
    </g>
    <g id="ytick_5">
     <g id="line2d_23">
      <g>
       <use xlink:href="#mea7ca67e8a" x="63.230625" y="213.196875" style="stroke: #000000; stroke-width: 0.8"/>
      </g>
     </g>
     <g id="line2d_24">
      <g>
       <use xlink:href="#mc673af34fe" x="598.910625" y="213.196875" style="stroke: #000000; stroke-width: 0.8"/>
      </g>
     </g>
     <g id="text_13">
      <!-- 0.5 -->
      <g transform="translate(34.285625 219.275625) scale(0.16 -0.16)">
       <use xlink:href="#DejaVuSans-30"/>
       <use xlink:href="#DejaVuSans-2e" x="63.623047"/>
       <use xlink:href="#DejaVuSans-35" x="95.410156"/>
      </g>
     </g>
    </g>
    <g id="ytick_6">
     <g id="line2d_25">
      <g>
       <use xlink:href="#mea7ca67e8a" x="63.230625" y="120.796875" style="stroke: #000000; stroke-width: 0.8"/>
      </g>
     </g>
     <g id="line2d_26">
      <g>
       <use xlink:href="#mc673af34fe" x="598.910625" y="120.796875" style="stroke: #000000; stroke-width: 0.8"/>
      </g>
     </g>
     <g id="text_14">
      <!-- 1.0 -->
      <g transform="translate(34.285625 126.875625) scale(0.16 -0.16)">
       <use xlink:href="#DejaVuSans-31"/>
       <use xlink:href="#DejaVuSans-2e" x="63.623047"/>
       <use xlink:href="#DejaVuSans-30" x="95.410156"/>
      </g>
     </g>
    </g>
    <g id="ytick_7">
     <g id="line2d_27">
      <g>
       <use xlink:href="#mea7ca67e8a" x="63.230625" y="28.396875" style="stroke: #000000; stroke-width: 0.8"/>
      </g>
     </g>
     <g id="line2d_28">
      <g>
       <use xlink:href="#mc673af34fe" x="598.910625" y="28.396875" style="stroke: #000000; stroke-width: 0.8"/>
      </g>
     </g>
     <g id="text_15">
      <!-- 1.5 -->
      <g transform="translate(34.285625 34.475625) scale(0.16 -0.16)">
       <use xlink:href="#DejaVuSans-31"/>
       <use xlink:href="#DejaVuSans-2e" x="63.623047"/>
       <use xlink:href="#DejaVuSans-35" x="95.410156"/>
      </g>
     </g>
    </g>
    <g id="text_16">
     <!-- Direction 2 -->
     <g transform="translate(14.798437 332.952344) rotate(-90) scale(0.1 -0.1)">
      <defs>
       <path id="DejaVuSans-32" d="M 1228 531 
L 3431 531 
L 3431 0 
L 469 0 
L 469 531 
Q 828 903 1448 1529 
Q 2069 2156 2228 2338 
Q 2531 2678 2651 2914 
Q 2772 3150 2772 3378 
Q 2772 3750 2511 3984 
Q 2250 4219 1831 4219 
Q 1534 4219 1204 4116 
Q 875 4013 500 3803 
L 500 4441 
Q 881 4594 1212 4672 
Q 1544 4750 1819 4750 
Q 2544 4750 2975 4387 
Q 3406 4025 3406 3419 
Q 3406 3131 3298 2873 
Q 3191 2616 2906 2266 
Q 2828 2175 2409 1742 
Q 1991 1309 1228 531 
z
" transform="scale(0.015625)"/>
      </defs>
      <use xlink:href="#DejaVuSans-44"/>
      <use xlink:href="#DejaVuSans-69" x="77.001953"/>
      <use xlink:href="#DejaVuSans-72" x="104.785156"/>
      <use xlink:href="#DejaVuSans-65" x="143.648438"/>
      <use xlink:href="#DejaVuSans-63" x="205.171875"/>
      <use xlink:href="#DejaVuSans-74" x="260.152344"/>
      <use xlink:href="#DejaVuSans-69" x="299.361328"/>
      <use xlink:href="#DejaVuSans-6f" x="327.144531"/>
      <use xlink:href="#DejaVuSans-6e" x="388.326172"/>
      <use xlink:href="#DejaVuSans-20" x="451.705078"/>
      <use xlink:href="#DejaVuSans-32" x="483.492188"/>
     </g>
    </g>
   </g>
   <g id="PathCollection_1"/>
   <g id="PathCollection_2">
    <path d="M 63.230625 533.190771 
L 72.790507 526.225451 
L 74.162865 524.610933 
L 85.095104 521.681954 
L 96.027365 521.724154 
L 106.959605 521.763938 
L 111.341891 526.225451 
L 111.27514 537.539732 
L 111.195536 548.854012 
L 111.001415 560.168314 
L 117.891845 567.31798 
L 128.824106 567.099499 
L 139.756345 567.078321 
L 150.688585 567.211035 
L 157.478823 560.168314 
L 161.620825 555.499297 
L 172.553075 555.829303 
L 179.285957 548.854012 
L 183.485325 544.155935 
L 194.417565 544.598625 
L 201.229319 537.539732 
L 205.349805 533.131339 
L 212.023986 526.225451 
L 216.282055 521.746629 
L 222.896902 514.911149 
L 227.214305 510.418301 
L 233.822378 503.596869 
L 238.146545 499.238962 
L 244.869812 492.282588 
L 249.07879 487.588178 
L 260.011035 487.985052 
L 266.797637 480.968308 
L 270.94328 476.522298 
L 277.577902 469.654017 
L 281.875525 464.955591 
L 288.254524 458.339725 
L 292.80777 453.578703 
L 303.740015 454.155058 
L 310.631148 447.025445 
L 314.67226 442.256942 
L 325.604505 442.998415 
L 332.651519 435.711165 
L 331.898008 424.396873 
L 336.536745 420.297639 
L 343.541158 413.082582 
L 347.46899 408.820948 
L 354.447087 401.768302 
L 353.989418 390.454016 
L 353.54367 379.13973 
L 358.401235 374.971587 
L 369.33348 374.782972 
L 376.343069 367.825444 
L 376.29689 356.511158 
L 376.98027 345.196873 
L 376.75971 333.882587 
L 377.951518 322.568301 
L 378.404723 311.254015 
L 369.33348 302.139732 
L 366.956928 299.939735 
L 358.401235 291.418709 
L 354.34131 288.625449 
L 356.587952 277.311163 
L 347.46899 268.519743 
L 344.28554 265.996877 
L 336.536745 258.425216 
L 333.168913 254.682592 
L 325.604505 247.269557 
L 314.67226 248.754968 
L 303.740015 248.661012 
L 299.641466 243.368306 
L 292.80777 236.212238 
L 288.83345 232.05402 
L 281.875525 224.854199 
L 270.94328 225.661977 
L 266.719901 220.739734 
L 260.011035 213.690573 
L 256.432571 209.425448 
L 249.07879 201.771645 
L 238.146545 203.043447 
L 233.214432 198.111168 
L 227.214305 191.925877 
L 222.44997 186.796877 
L 216.282055 180.428684 
L 212.03527 175.482585 
L 205.349805 168.558073 
L 194.417565 169.665205 
L 189.958843 164.168305 
L 183.485325 157.425239 
L 172.553075 158.139299 
L 168.167996 152.854025 
L 161.620825 146.026157 
L 150.688585 146.832886 
L 146.238132 141.539733 
L 139.756345 134.78209 
L 128.824106 135.311582 
L 124.691479 130.225442 
L 117.891845 123.127028 
L 106.959605 123.570742 
L 96.027365 124.043513 
L 91.964978 118.911162 
L 85.095104 111.732538 
L 74.162865 112.052186 
L 63.230625 112.255778 
" clip-path="url(#p5b7e7d5493)" style="fill: none; stroke: #460b5e; stroke-width: 1.5"/>
    <path d="M 63.230625 227.514967 
L 67.343144 232.05402 
L 74.162865 239.128537 
L 85.095104 238.548164 
L 89.478362 243.368306 
L 96.027365 250.184964 
L 106.959605 249.513279 
L 111.523959 254.682592 
L 117.891845 261.31518 
L 128.824106 260.446 
L 133.292735 265.996877 
L 139.756345 272.72712 
L 150.688585 272.073206 
L 154.686137 277.311163 
L 161.620825 284.48334 
L 165.625251 288.625449 
L 165.880013 299.939735 
L 172.553075 306.821758 
L 176.690679 311.254015 
L 176.611054 322.568301 
L 172.553075 327.285231 
L 161.620825 326.855685 
L 154.855239 333.882587 
L 150.688585 338.913691 
L 139.756345 338.530148 
L 128.824106 338.175889 
L 122.086631 345.196873 
L 117.891845 350.875748 
L 106.959605 350.443549 
L 96.027365 350.006236 
L 85.095104 349.562348 
L 78.444782 356.511158 
L 74.162865 361.339128 
L 63.230625 361.018531 
" clip-path="url(#p5b7e7d5493)" style="fill: none; stroke: #460b5e; stroke-width: 1.5"/>
    <path d="M 211.115912 28.396875 
L 216.282055 34.850573 
L 220.176867 39.711155 
L 227.214305 48.727129 
L 228.920179 51.025436 
L 237.568427 62.339738 
L 238.146545 63.066364 
L 245.372498 73.654018 
L 249.07879 78.887379 
L 252.471872 84.968299 
L 259.283796 96.282601 
L 260.011035 97.339353 
L 265.868462 107.596881 
L 270.94328 115.786044 
L 272.623558 118.911162 
L 279.045792 130.225442 
L 281.875525 134.658209 
L 286.025434 141.539733 
L 292.80777 152.800023 
L 292.84538 152.854025 
L 301.41518 164.168305 
L 303.740015 166.72278 
L 311.045879 175.482585 
L 314.67226 179.431965 
L 321.11828 186.796877 
L 325.604505 191.496873 
L 329.68179 198.111168 
L 336.111028 209.425448 
L 336.536745 210.22214 
L 341.131019 220.739734 
L 345.570807 232.05402 
L 347.46899 236.380154 
L 351.754435 243.368306 
L 358.401235 253.203859 
L 359.452583 254.682592 
L 365.329453 265.996877 
L 369.33348 273.624614 
L 371.133833 277.311163 
L 378.51701 288.625449 
L 380.265725 290.52265 
L 387.280984 299.939735 
L 391.19797 306.609586 
L 393.809133 311.254015 
L 398.340305 322.568301 
L 402.130215 330.654147 
L 403.899264 333.882587 
L 410.268335 345.196873 
L 413.06246 352.658552 
L 414.54487 356.511158 
L 418.120453 367.825444 
L 421.924474 379.13973 
L 423.994705 388.104361 
L 424.57395 390.454016 
L 427.00344 401.768302 
L 428.949608 413.082582 
L 430.343381 424.396873 
L 432.357105 435.711165 
L 434.860152 447.025445 
L 434.926945 447.365184 
L 436.932683 458.339725 
L 438.465998 469.654017 
L 438.940563 480.968308 
L 438.24491 492.282588 
L 436.973399 503.596869 
L 436.242103 514.911149 
L 435.639755 526.225451 
L 434.926945 532.501113 
L 434.016451 537.539732 
L 429.997038 548.854012 
L 424.259385 560.168314 
L 423.994705 560.636634 
L 416.292622 571.482595 
L 413.06246 575.481993 
L 402.391567 582.796875 
" clip-path="url(#p5b7e7d5493)" style="fill: none; stroke: #460b5e; stroke-width: 1.5"/>
    <path d="M 205.349805 316.175367 
L 201.218208 311.254015 
L 201.098938 299.939735 
L 201.316561 288.625449 
L 201.012009 277.311163 
L 205.349805 273.098966 
L 212.2127 265.996877 
L 216.282055 258.958705 
L 220.392866 265.996877 
L 227.214305 273.111178 
L 238.146545 271.977347 
L 242.173241 277.311163 
L 249.07879 284.442372 
L 253.134692 288.625449 
L 249.07879 293.739484 
L 238.146545 293.068116 
L 227.214305 292.767063 
L 220.322738 299.939735 
L 220.742101 311.254015 
L 216.282055 316.35051 
L 205.349805 316.175367 
z
" clip-path="url(#p5b7e7d5493)" style="fill: none; stroke: #460b5e; stroke-width: 1.5"/>
   </g>
   <g id="PathCollection_3">
    <path d="M 63.230625 528.223524 
L 65.972974 526.225451 
L 74.162865 516.590407 
L 85.095104 516.532086 
L 96.027365 516.622603 
L 106.959605 516.712067 
L 116.30405 526.225451 
L 116.176653 537.539732 
L 116.026761 548.854012 
L 115.633601 560.168314 
L 117.891845 562.511519 
L 128.824106 562.028829 
L 139.756345 561.965962 
L 150.688585 562.22359 
L 152.670178 560.168314 
L 161.620825 550.078816 
L 172.553075 550.750409 
L 174.383567 548.854012 
L 183.485325 538.671347 
L 194.417565 539.585302 
L 196.391518 537.539732 
L 205.349805 527.95551 
L 207.021816 526.225451 
L 216.282055 516.485129 
L 217.805231 514.911149 
L 227.214305 505.119722 
L 228.689527 503.596869 
L 238.146545 494.066063 
L 239.870256 492.282588 
L 249.07879 482.012009 
L 260.011035 482.733245 
L 261.718083 480.968308 
L 260.011035 470.922803 
L 249.07879 475.039148 
L 238.146545 480.494961 
L 237.514518 480.968308 
L 227.214305 490.108331 
L 224.677534 492.282588 
L 216.282055 500.081156 
L 213.244428 503.596869 
L 205.349805 512.519417 
L 202.69507 514.911149 
L 194.417565 522.647563 
L 188.676301 526.225451 
L 183.485325 529.426647 
L 172.553075 534.875081 
L 167.272471 537.539732 
L 161.620825 540.246884 
L 150.688585 543.369191 
L 139.756345 543.446767 
L 133.848662 537.539732 
L 130.629713 526.225451 
L 130.730373 514.911149 
L 130.434482 503.596869 
L 128.824106 500.086804 
L 117.891845 496.299155 
L 106.959605 496.773601 
L 96.027365 498.984304 
L 85.095104 502.822573 
L 82.674716 503.596869 
L 74.162865 506.229335 
L 63.230625 508.026367 
" clip-path="url(#p5b7e7d5493)" style="fill: none; stroke: #481769; stroke-width: 1.5"/>
    <path d="M 63.230625 393.510692 
L 67.725365 390.454016 
L 74.162865 384.529844 
L 81.190669 379.13973 
L 85.095104 372.577512 
L 87.794995 367.825444 
L 96.027365 363.559026 
L 106.439594 356.511158 
L 96.027365 355.661193 
L 85.095104 354.742392 
L 83.402316 356.511158 
L 74.162865 366.928871 
L 63.230625 366.286736 
" clip-path="url(#p5b7e7d5493)" style="fill: none; stroke: #481769; stroke-width: 1.5"/>
    <path d="M 63.230625 222.164957 
L 72.190414 232.05402 
L 74.162865 234.100164 
L 85.095104 232.906186 
L 93.30172 232.05402 
L 85.095104 226.360256 
L 76.566021 220.739734 
L 74.162865 218.605035 
L 63.230625 210.471072 
" clip-path="url(#p5b7e7d5493)" style="fill: none; stroke: #481769; stroke-width: 1.5"/>
    <path d="M 63.230625 125.380595 
L 74.162865 126.402784 
L 85.095104 127.874584 
L 87.044049 118.911162 
L 85.095104 116.874626 
L 74.162865 117.529184 
L 63.230625 117.921281 
" clip-path="url(#p5b7e7d5493)" style="fill: none; stroke: #481769; stroke-width: 1.5"/>
    <path d="M 287.882227 28.396875 
L 292.80777 38.626573 
L 293.33136 39.711155 
L 298.620975 51.025436 
L 303.673385 62.339738 
L 303.740015 62.492779 
L 309.323172 73.654018 
L 314.67226 84.479469 
L 314.915457 84.968299 
L 320.671099 96.282601 
L 325.604505 105.748383 
L 326.740593 107.596881 
L 334.125754 118.911162 
L 336.536745 122.330546 
L 341.443961 130.225442 
L 347.46899 140.345491 
L 348.167843 141.539733 
L 354.815668 152.854025 
L 358.401235 158.978551 
L 361.906317 164.168305 
L 367.827139 175.482585 
L 369.33348 178.266181 
L 374.641976 186.796877 
L 380.265725 195.502033 
L 381.611347 198.111168 
L 387.473895 209.425448 
L 391.19797 215.459612 
L 394.679164 220.739734 
L 399.701139 232.05402 
L 402.130215 237.955532 
L 404.760627 243.368306 
L 411.547048 254.682592 
L 413.06246 258.332632 
L 415.63194 265.996877 
L 420.684332 277.311163 
L 423.994705 284.507936 
L 425.865389 288.625449 
L 432.014396 299.939735 
L 434.926945 303.640766 
L 440.606032 311.254015 
L 445.859195 319.035611 
L 448.141589 322.568301 
L 454.790578 333.882587 
L 456.791445 337.961894 
L 460.255806 345.196873 
L 464.508572 356.511158 
L 467.723685 364.931205 
L 468.831051 367.825444 
L 472.315655 379.13973 
L 476.120746 390.454016 
L 478.655925 398.066393 
L 479.835177 401.768302 
L 484.149404 413.082582 
L 489.304824 424.396873 
L 489.588175 425.114444 
L 493.653985 435.711165 
L 497.663687 447.025445 
L 500.520425 456.705372 
L 501.006946 458.339725 
L 503.721323 469.654017 
L 505.990207 480.968308 
L 506.898201 492.282588 
L 507.304462 503.596869 
L 507.624372 514.911149 
L 508.210304 526.225451 
L 508.611008 537.539732 
L 509.248811 548.854012 
L 509.357305 560.168314 
L 508.833336 571.482595 
L 507.889483 582.796875 
" clip-path="url(#p5b7e7d5493)" style="fill: none; stroke: #481769; stroke-width: 1.5"/>
    <path d="M 270.94328 471.074713 
L 272.315644 469.654017 
L 270.94328 461.533939 
L 261.541278 469.654017 
L 270.94328 471.074713 
z
" clip-path="url(#p5b7e7d5493)" style="fill: none; stroke: #481769; stroke-width: 1.5"/>
    <path d="M 281.875525 459.202567 
L 282.707475 458.339725 
L 281.875525 453.472366 
L 275.383753 458.339725 
L 281.875525 459.202567 
z
" clip-path="url(#p5b7e7d5493)" style="fill: none; stroke: #481769; stroke-width: 1.5"/>
    <path d="M 292.80777 447.778527 
L 303.740015 448.917268 
L 305.568558 447.025445 
L 314.67226 436.283099 
L 325.604505 437.780103 
L 327.605238 435.711165 
L 326.097312 424.396873 
L 325.604505 421.593145 
L 320.603617 424.396873 
L 314.67226 430.198647 
L 303.740015 433.154172 
L 301.369137 435.711165 
L 292.80777 442.934242 
L 288.486731 447.025445 
L 292.80777 447.778527 
z
" clip-path="url(#p5b7e7d5493)" style="fill: none; stroke: #481769; stroke-width: 1.5"/>
    <path d="M 336.536745 415.171585 
L 338.564759 413.082582 
L 347.46899 403.421635 
L 349.104846 401.768302 
L 347.936386 390.454016 
L 347.46899 384.745751 
L 345.388792 390.454016 
L 336.536745 400.468536 
L 335.652755 401.768302 
L 329.841329 413.082582 
L 336.536745 415.171585 
z
" clip-path="url(#p5b7e7d5493)" style="fill: none; stroke: #481769; stroke-width: 1.5"/>
    <path d="M 358.401235 369.33135 
L 369.33348 368.403567 
L 369.915928 367.825444 
L 369.33348 357.193899 
L 358.401235 363.678352 
L 352.490918 367.825444 
L 358.401235 369.33135 
z
" clip-path="url(#p5b7e7d5493)" style="fill: none; stroke: #481769; stroke-width: 1.5"/>
    <path d="M 205.349805 356.934397 
L 205.875199 356.511158 
L 216.282055 352.488417 
L 227.214305 346.337749 
L 228.283822 345.196873 
L 236.658457 333.882587 
L 231.244676 322.568301 
L 235.785242 311.254015 
L 238.146545 309.110555 
L 249.07879 300.667318 
L 249.969034 299.939735 
L 249.07879 299.73928 
L 238.146545 298.300649 
L 227.214305 297.643744 
L 225.008297 299.939735 
L 225.855436 311.254015 
L 216.282055 322.19352 
L 205.349805 321.825063 
L 196.475148 311.254015 
L 196.179691 299.939735 
L 196.595582 288.625449 
L 195.974177 277.311163 
L 205.349805 268.207001 
L 207.485494 265.996877 
L 205.349805 260.504325 
L 194.417565 263.031632 
L 187.724682 265.996877 
L 183.485325 270.556425 
L 172.553075 271.996644 
L 161.620825 269.690345 
L 159.37827 277.311163 
L 161.620825 279.630518 
L 170.316768 288.625449 
L 170.847748 299.939735 
L 172.553075 301.698462 
L 181.473381 311.254015 
L 181.292718 322.568301 
L 172.553075 332.727124 
L 161.620825 331.851301 
L 159.665078 333.882587 
L 161.620825 345.009369 
L 172.553075 342.95842 
L 183.485325 336.653297 
L 184.890123 333.882587 
L 194.417565 330.625918 
L 205.349805 327.847355 
L 212.180998 333.882587 
L 205.349805 341.154816 
L 199.569379 345.196873 
L 204.652692 356.511158 
L 205.349805 356.934397 
z
" clip-path="url(#p5b7e7d5493)" style="fill: none; stroke: #481769; stroke-width: 1.5"/>
    <path d="M 128.824106 351.943226 
L 139.756345 349.793327 
L 150.688585 347.815409 
L 160.776472 345.196873 
L 150.688585 344.721422 
L 139.756345 343.949298 
L 128.824106 343.226935 
L 126.933714 345.196873 
L 128.824106 351.943226 
z
" clip-path="url(#p5b7e7d5493)" style="fill: none; stroke: #481769; stroke-width: 1.5"/>
    <path d="M 369.33348 356.253494 
L 370.861507 345.196873 
L 369.33348 334.397609 
L 366.260236 345.196873 
L 369.33348 356.253494 
z
" clip-path="url(#p5b7e7d5493)" style="fill: none; stroke: #481769; stroke-width: 1.5"/>
    <path d="M 369.33348 333.151235 
L 370.600358 322.568301 
L 371.913999 311.254015 
L 369.33348 308.661252 
L 362.398345 311.254015 
L 366.503461 322.568301 
L 369.33348 333.151235 
z
" clip-path="url(#p5b7e7d5493)" style="fill: none; stroke: #481769; stroke-width: 1.5"/>
    <path d="M 358.401235 305.409557 
L 359.91204 299.939735 
L 358.401235 298.435052 
L 355.912519 299.939735 
L 358.401235 305.409557 
z
" clip-path="url(#p5b7e7d5493)" style="fill: none; stroke: #481769; stroke-width: 1.5"/>
    <path d="M 260.011035 294.752164 
L 266.430461 288.625449 
L 269.536627 277.311163 
L 260.011035 273.0073 
L 249.07879 271.783104 
L 246.925539 277.311163 
L 249.07879 279.534778 
L 257.893084 288.625449 
L 260.011035 294.752164 
z
" clip-path="url(#p5b7e7d5493)" style="fill: none; stroke: #481769; stroke-width: 1.5"/>
    <path d="M 347.46899 282.913544 
L 349.678922 277.311163 
L 347.46899 275.180609 
L 343.368871 277.311163 
L 347.46899 282.913544 
z
" clip-path="url(#p5b7e7d5493)" style="fill: none; stroke: #481769; stroke-width: 1.5"/>
    <path d="M 139.756345 267.288002 
L 150.176424 265.996877 
L 139.756345 261.251673 
L 138.516371 265.996877 
L 139.756345 267.288002 
z
" clip-path="url(#p5b7e7d5493)" style="fill: none; stroke: #481769; stroke-width: 1.5"/>
    <path d="M 227.214305 268.130797 
L 237.004956 265.996877 
L 227.214305 260.907229 
L 225.168229 265.996877 
L 227.214305 268.130797 
z
" clip-path="url(#p5b7e7d5493)" style="fill: none; stroke: #481769; stroke-width: 1.5"/>
    <path d="M 117.891845 255.759483 
L 124.825526 254.682592 
L 117.891845 249.061183 
L 116.857932 254.682592 
L 117.891845 255.759483 
z
" clip-path="url(#p5b7e7d5493)" style="fill: none; stroke: #481769; stroke-width: 1.5"/>
    <path d="M 325.604505 255.159956 
L 325.778552 254.682592 
L 325.604505 254.512028 
L 324.710005 254.682592 
L 325.604505 255.159956 
z
" clip-path="url(#p5b7e7d5493)" style="fill: none; stroke: #481769; stroke-width: 1.5"/>
    <path d="M 96.027365 244.844673 
L 106.959605 243.472344 
L 107.841378 243.368306 
L 106.959605 242.621997 
L 96.027365 233.791735 
L 94.608967 243.368306 
L 96.027365 244.844673 
z
" clip-path="url(#p5b7e7d5493)" style="fill: none; stroke: #481769; stroke-width: 1.5"/>
    <path d="M 292.80777 248.051325 
L 294.100865 243.368306 
L 292.80777 242.014211 
L 287.601299 243.368306 
L 292.80777 248.051325 
z
" clip-path="url(#p5b7e7d5493)" style="fill: none; stroke: #481769; stroke-width: 1.5"/>
    <path d="M 281.875525 237.689718 
L 283.288072 232.05402 
L 281.875525 230.592365 
L 271.90665 232.05402 
L 281.875525 237.689718 
z
" clip-path="url(#p5b7e7d5493)" style="fill: none; stroke: #481769; stroke-width: 1.5"/>
    <path d="M 260.011035 226.494204 
L 261.096993 220.739734 
L 260.011035 219.598693 
L 252.200524 220.739734 
L 260.011035 226.494204 
z
" clip-path="url(#p5b7e7d5493)" style="fill: none; stroke: #481769; stroke-width: 1.5"/>
    <path d="M 238.146545 209.679691 
L 249.07879 219.182162 
L 251.475625 209.425448 
L 249.07879 206.930827 
L 238.146545 209.376113 
L 237.951796 209.425448 
L 238.146545 209.679691 
z
" clip-path="url(#p5b7e7d5493)" style="fill: none; stroke: #481769; stroke-width: 1.5"/>
    <path d="M 216.282055 187.221901 
L 216.386217 186.796877 
L 216.282055 186.689332 
L 215.745086 186.796877 
L 216.282055 187.221901 
z
" clip-path="url(#p5b7e7d5493)" style="fill: none; stroke: #481769; stroke-width: 1.5"/>
    <path d="M 205.349805 180.267466 
L 206.659796 175.482585 
L 205.349805 174.125753 
L 198.100142 175.482585 
L 205.349805 180.267466 
z
" clip-path="url(#p5b7e7d5493)" style="fill: none; stroke: #481769; stroke-width: 1.5"/>
    <path d="M 183.485325 168.832966 
L 184.573519 164.168305 
L 183.485325 163.034801 
L 174.628847 164.168305 
L 183.485325 168.832966 
z
" clip-path="url(#p5b7e7d5493)" style="fill: none; stroke: #481769; stroke-width: 1.5"/>
    <path d="M 161.620825 158.328036 
L 162.917181 152.854025 
L 161.620825 151.50209 
L 152.532143 152.854025 
L 161.620825 158.328036 
z
" clip-path="url(#p5b7e7d5493)" style="fill: none; stroke: #481769; stroke-width: 1.5"/>
    <path d="M 128.824106 142.031569 
L 139.756345 146.985236 
L 140.908703 141.539733 
L 139.756345 140.338333 
L 128.824106 141.433938 
L 127.69978 141.539733 
L 128.824106 142.031569 
z
" clip-path="url(#p5b7e7d5493)" style="fill: none; stroke: #481769; stroke-width: 1.5"/>
    <path d="M 106.959605 134.336406 
L 117.891845 138.24477 
L 119.716898 130.225442 
L 117.891845 128.320194 
L 106.959605 129.265517 
L 96.381564 130.225442 
L 106.959605 134.336406 
z
" clip-path="url(#p5b7e7d5493)" style="fill: none; stroke: #481769; stroke-width: 1.5"/>
   </g>
   <g id="PathCollection_4">
    <path d="M 342.50191 28.396875 
L 347.46899 35.654984 
L 350.609488 39.711155 
L 358.401235 49.254494 
L 359.704245 51.025436 
L 367.368479 62.339738 
L 369.33348 65.297248 
L 376.007653 73.654018 
L 380.265725 79.271835 
L 384.958689 84.968299 
L 391.19797 92.31241 
L 394.04562 96.282601 
L 400.91752 107.596881 
L 402.130215 109.977843 
L 405.308335 118.911162 
L 408.869049 130.225442 
L 412.214147 141.539733 
L 413.06246 144.068246 
L 415.980099 152.854025 
L 418.842991 164.168305 
L 421.183099 175.482585 
L 423.913622 186.796877 
L 423.994705 186.985251 
L 429.638874 198.111168 
L 434.926945 205.355345 
L 438.034292 209.425448 
L 445.068611 220.739734 
L 445.859195 222.094517 
L 450.885193 232.05402 
L 454.526519 243.368306 
L 456.791445 250.148358 
L 458.283073 254.682592 
L 461.248102 265.996877 
L 465.117927 277.311163 
L 467.723685 283.6811 
L 469.791595 288.625449 
L 475.670222 299.939735 
L 478.655925 304.387428 
L 483.231634 311.254015 
L 488.632549 322.568301 
L 489.588175 324.465448 
L 494.235242 333.882587 
L 499.47979 345.196873 
L 500.520425 347.890246 
L 503.894262 356.511158 
L 508.983503 367.825444 
L 511.452665 374.42586 
L 513.274682 379.13973 
L 516.457051 390.454016 
L 520.626021 401.768302 
L 522.384905 406.045255 
L 525.30077 413.082582 
L 529.69231 424.396873 
L 533.317144 432.520912 
L 534.733138 435.711165 
L 540.135009 447.025445 
L 544.249405 455.422176 
L 545.670497 458.339725 
L 551.151891 469.654017 
L 555.181645 478.105589 
L 556.550489 480.968308 
L 561.576317 492.282588 
L 566.113885 503.114392 
L 566.319557 503.596869 
L 569.850214 514.911149 
L 572.648757 526.225451 
L 574.641093 537.539732 
L 576.040604 548.854012 
L 577.046146 559.306795 
L 577.128095 560.168314 
L 577.536707 571.482595 
L 577.076768 582.796875 
" clip-path="url(#p5b7e7d5493)" style="fill: none; stroke: #482071; stroke-width: 1.5"/>
   </g>
   <g id="PathCollection_5">
    <path d="M 402.232746 28.396875 
L 413.06246 39.63304 
L 413.136117 39.711155 
L 423.994705 50.979694 
L 424.037486 51.025436 
L 424.119082 62.339738 
L 434.926945 73.620139 
L 434.958608 73.654018 
L 435.012635 84.968299 
L 435.06257 96.282601 
L 445.859195 107.583417 
L 445.871802 107.596881 
L 445.920839 118.911162 
L 445.966052 130.225442 
L 446.008854 141.539733 
L 456.791445 152.849704 
L 456.795521 152.854025 
L 456.8558 164.168305 
L 467.723685 175.466517 
L 467.738953 175.482585 
L 467.825986 186.796877 
L 478.655925 198.076632 
L 478.688333 198.111168 
L 478.786172 209.425448 
L 489.588175 220.72337 
L 489.603351 220.739734 
L 489.657645 232.05402 
L 489.717689 243.368306 
L 500.520425 254.673035 
L 500.529333 254.682592 
L 500.589639 265.996877 
L 500.653518 277.311163 
L 511.452665 288.590304 
L 511.48553 288.625449 
L 511.592685 299.939735 
L 522.384905 311.176681 
L 522.457207 311.254015 
L 522.536639 322.568301 
L 533.317144 333.84185 
L 533.355163 333.882587 
L 533.429658 345.196873 
L 544.249405 356.493642 
L 544.265731 356.511158 
L 544.344556 367.825444 
L 544.412417 379.13973 
L 555.181645 390.408073 
L 555.224478 390.454016 
L 555.289372 401.768302 
L 555.371807 413.082582 
L 566.113885 424.312656 
L 566.192517 424.396873 
L 566.278626 435.711165 
L 577.046146 446.963463 
L 577.103962 447.025445 
L 577.204059 458.339725 
L 587.978385 469.587579 
L 588.040392 469.654017 
L 588.132698 480.968308 
L 598.910625 492.224453 
" clip-path="url(#p5b7e7d5493)" style="fill: none; stroke: #472a7a; stroke-width: 1.5"/>
   </g>
   <g id="PathCollection_6">
    <path d="M 402.931825 28.396875 
L 413.06246 38.907724 
L 413.820033 39.711155 
L 423.994705 50.269957 
L 424.701284 51.025436 
L 424.793003 62.339738 
L 434.926945 72.916754 
L 435.615987 73.654018 
L 435.681062 84.968299 
L 435.743504 96.282601 
L 445.859195 106.870684 
L 446.539169 107.596881 
L 446.601789 118.911162 
L 446.661732 130.225442 
L 446.719856 141.539733 
L 456.791445 152.103927 
L 457.49914 152.854025 
L 457.579317 164.168305 
L 467.723685 174.714352 
L 468.453666 175.482585 
L 468.556001 186.796877 
L 478.655925 197.316295 
L 479.401818 198.111168 
L 479.508316 209.425448 
L 489.588175 219.968072 
L 490.303793 220.739734 
L 490.36862 232.05402 
L 490.440884 243.368306 
L 500.520425 253.916234 
L 501.234748 254.682592 
L 501.3064 265.996877 
L 501.384046 277.311163 
L 511.452665 287.827305 
L 512.199036 288.625449 
L 512.317012 299.939735 
L 522.384905 310.422506 
L 523.162306 311.254015 
L 523.253465 322.568301 
L 533.317144 333.092241 
L 534.054748 333.882587 
L 534.140039 345.196873 
L 544.249405 355.751942 
L 544.957011 356.511158 
L 545.045495 367.825444 
L 545.123284 379.13973 
L 555.181645 389.664261 
L 555.917947 390.454016 
L 555.994559 401.768302 
L 556.089421 413.082582 
L 566.113885 423.562443 
L 566.892984 424.396873 
L 566.990783 435.711165 
L 577.046146 446.219243 
L 577.798163 447.025445 
L 577.907684 458.339725 
L 587.978385 468.853029 
L 588.725942 469.654017 
L 588.826478 480.968308 
L 598.910625 491.49989 
" clip-path="url(#p5b7e7d5493)" style="fill: none; stroke: #46337f; stroke-width: 1.5"/>
   </g>
   <g id="PathCollection_7">
    <path d="M 403.630904 28.396875 
L 413.06246 38.182407 
L 414.50395 39.711155 
L 423.994705 49.56022 
L 425.365082 51.025436 
L 425.466923 62.339738 
L 434.926945 72.213369 
L 436.273366 73.654018 
L 436.34949 84.968299 
L 436.424439 96.282601 
L 445.859195 106.15795 
L 447.206536 107.596881 
L 447.282738 118.911162 
L 447.357412 130.225442 
L 447.430859 141.539733 
L 456.791445 151.358149 
L 458.202759 152.854025 
L 458.302833 164.168305 
L 467.723685 173.962187 
L 469.168378 175.482585 
L 469.286016 186.796877 
L 478.655925 196.555959 
L 480.115303 198.111168 
L 480.23046 209.425448 
L 489.588175 219.212774 
L 491.004235 220.739734 
L 491.079595 232.05402 
L 491.164079 243.368306 
L 500.520425 253.159433 
L 501.940163 254.682592 
L 502.02316 265.996877 
L 502.114575 277.311163 
L 511.452665 287.064307 
L 512.912542 288.625449 
L 513.041338 299.939735 
L 522.384905 309.668331 
L 523.867405 311.254015 
L 523.97029 322.568301 
L 533.317144 332.342631 
L 534.754334 333.882587 
L 534.85042 345.196873 
L 544.249405 355.010242 
L 545.648291 356.511158 
L 545.746433 367.825444 
L 545.834151 379.13973 
L 555.181645 388.920448 
L 556.611417 390.454016 
L 556.699745 401.768302 
L 556.807035 413.082582 
L 566.113885 422.812229 
L 567.59345 424.396873 
L 567.702941 435.711165 
L 577.046146 445.475022 
L 578.492364 447.025445 
L 578.611309 458.339725 
L 587.978385 468.11848 
L 589.411493 469.654017 
L 589.520258 480.968308 
L 598.910625 490.775326 
" clip-path="url(#p5b7e7d5493)" style="fill: none; stroke: #433d84; stroke-width: 1.5"/>
   </g>
   <g id="PathCollection_8">
    <path d="M 404.329983 28.396875 
L 413.06246 37.457091 
L 415.187866 39.711155 
L 423.994705 48.850483 
L 426.028881 51.025436 
L 426.140843 62.339738 
L 434.926945 71.509983 
L 436.930745 73.654018 
L 437.017918 84.968299 
L 437.105373 96.282601 
L 445.859195 105.445217 
L 447.873903 107.596881 
L 447.963687 118.911162 
L 448.053092 130.225442 
L 448.141861 141.539733 
L 456.791445 150.612371 
L 458.906378 152.854025 
L 459.026349 164.168305 
L 467.723685 173.210022 
L 469.883091 175.482585 
L 470.016032 186.796877 
L 478.655925 195.795623 
L 480.828788 198.111168 
L 480.952605 209.425448 
L 489.588175 218.457477 
L 491.704677 220.739734 
L 491.790569 232.05402 
L 491.887274 243.368306 
L 500.520425 252.402631 
L 502.645578 254.682592 
L 502.739921 265.996877 
L 502.845103 277.311163 
L 511.452665 286.301309 
L 513.626048 288.625449 
L 513.765665 299.939735 
L 522.384905 308.914156 
L 524.572504 311.254015 
L 524.687116 322.568301 
L 533.317144 331.593021 
L 535.45392 333.882587 
L 535.560801 345.196873 
L 544.249405 354.268542 
L 546.339571 356.511158 
L 546.447372 367.825444 
L 546.545018 379.13973 
L 555.181645 388.176635 
L 557.304886 390.454016 
L 557.404932 401.768302 
L 557.524649 413.082582 
L 566.113885 422.062015 
L 568.293917 424.396873 
L 568.415098 435.711165 
L 577.046146 444.730802 
L 579.186566 447.025445 
L 579.314935 458.339725 
L 587.978385 467.38393 
L 590.097043 469.654017 
L 590.214039 480.968308 
L 598.910625 490.050763 
" clip-path="url(#p5b7e7d5493)" style="fill: none; stroke: #404588; stroke-width: 1.5"/>
   </g>
   <g id="PathCollection_9">
    <path d="M 405.029062 28.396875 
L 413.06246 36.731775 
L 415.871783 39.711155 
L 423.994705 48.140746 
L 426.692679 51.025436 
L 426.814763 62.339738 
L 434.926945 70.806598 
L 437.588124 73.654018 
L 437.686346 84.968299 
L 437.786308 96.282601 
L 445.859195 104.732483 
L 448.54127 107.596881 
L 448.644637 118.911162 
L 448.748773 130.225442 
L 448.852863 141.539733 
L 456.791445 149.866594 
L 459.609997 152.854025 
L 459.749866 164.168305 
L 467.723685 172.457858 
L 470.597804 175.482585 
L 470.746047 186.796877 
L 478.655925 195.035287 
L 481.542273 198.111168 
L 481.674749 209.425448 
L 489.588175 217.702179 
L 492.40512 220.739734 
L 492.501544 232.05402 
L 492.610469 243.368306 
L 500.520425 251.64583 
L 503.350993 254.682592 
L 503.456682 265.996877 
L 503.575632 277.311163 
L 511.452665 285.53831 
L 514.339554 288.625449 
L 514.489992 299.939735 
L 522.384905 308.159981 
L 525.277604 311.254015 
L 525.403942 322.568301 
L 533.317144 330.843412 
L 536.153506 333.882587 
L 536.271182 345.196873 
L 544.249405 353.526842 
L 547.030851 356.511158 
L 547.14831 367.825444 
L 547.255884 379.13973 
L 555.181645 387.432822 
L 557.998355 390.454016 
L 558.110119 401.768302 
L 558.242263 413.082582 
L 566.113885 421.311801 
L 568.994383 424.396873 
L 569.127256 435.711165 
L 577.046146 443.986582 
L 579.880767 447.025445 
L 580.01856 458.339725 
L 587.978385 466.649381 
L 590.782594 469.654017 
L 590.907819 480.968308 
L 598.910625 489.326199 
" clip-path="url(#p5b7e7d5493)" style="fill: none; stroke: #3d4e8a; stroke-width: 1.5"/>
   </g>
   <g id="PathCollection_10">
    <path d="M 405.728141 28.396875 
L 413.06246 36.006459 
L 416.5557 39.711155 
L 423.994705 47.43101 
L 427.356477 51.025436 
L 427.488684 62.339738 
L 434.926945 70.103213 
L 438.245503 73.654018 
L 438.354774 84.968299 
L 438.467242 96.282601 
L 445.859195 104.01975 
L 449.208637 107.596881 
L 449.325586 118.911162 
L 449.444453 130.225442 
L 449.563865 141.539733 
L 456.791445 149.120816 
L 460.313616 152.854025 
L 460.473382 164.168305 
L 467.723685 171.705693 
L 471.312516 175.482585 
L 471.476063 186.796877 
L 478.655925 194.274951 
L 482.255759 198.111168 
L 482.396893 209.425448 
L 489.588175 216.946881 
L 493.105562 220.739734 
L 493.212519 232.05402 
L 493.333664 243.368306 
L 500.520425 250.889029 
L 504.056408 254.682592 
L 504.173442 265.996877 
L 504.30616 277.311163 
L 511.452665 284.775312 
L 515.053059 288.625449 
L 515.214319 299.939735 
L 522.384905 307.405806 
L 525.982703 311.254015 
L 526.120767 322.568301 
L 533.317144 330.093802 
L 536.853092 333.882587 
L 536.981562 345.196873 
L 544.249405 352.785141 
L 547.722131 356.511158 
L 547.849249 367.825444 
L 547.966751 379.13973 
L 555.181645 386.689009 
L 558.691825 390.454016 
L 558.815306 401.768302 
L 558.959876 413.082582 
L 566.113885 420.561587 
L 569.69485 424.396873 
L 569.839413 435.711165 
L 577.046146 443.242361 
L 580.574968 447.025445 
L 580.722186 458.339725 
L 587.978385 465.914832 
L 591.468144 469.654017 
L 591.601599 480.968308 
L 598.910625 488.601636 
" clip-path="url(#p5b7e7d5493)" style="fill: none; stroke: #39558c; stroke-width: 1.5"/>
   </g>
   <g id="PathCollection_11">
    <path d="M 406.42722 28.396875 
L 413.06246 35.281142 
L 417.239616 39.711155 
L 423.994705 46.721273 
L 428.020275 51.025436 
L 428.162604 62.339738 
L 434.926945 69.399828 
L 438.902883 73.654018 
L 439.023202 84.968299 
L 439.148177 96.282601 
L 445.859195 103.307017 
L 449.876005 107.596881 
L 450.006535 118.911162 
L 450.140133 130.225442 
L 450.274868 141.539733 
L 456.791445 148.375039 
L 461.017235 152.854025 
L 461.196898 164.168305 
L 467.723685 170.953528 
L 472.027229 175.482585 
L 472.206078 186.796877 
L 478.655925 193.514614 
L 482.969244 198.111168 
L 483.119037 209.425448 
L 489.588175 216.191584 
L 493.806004 220.739734 
L 493.923494 232.05402 
L 494.056859 243.368306 
L 500.520425 250.132228 
L 504.761823 254.682592 
L 504.890203 265.996877 
L 505.036688 277.311163 
L 511.452665 284.012313 
L 515.766565 288.625449 
L 515.938646 299.939735 
L 522.384905 306.651631 
L 526.687802 311.254015 
L 526.837593 322.568301 
L 533.317144 329.344193 
L 537.552678 333.882587 
L 537.691943 345.196873 
L 544.249405 352.043441 
L 548.413412 356.511158 
L 548.550188 367.825444 
L 548.677618 379.13973 
L 555.181645 385.945196 
L 559.385294 390.454016 
L 559.520492 401.768302 
L 559.67749 413.082582 
L 566.113885 419.811373 
L 570.395316 424.396873 
L 570.551571 435.711165 
L 577.046146 442.498141 
L 581.26917 447.025445 
L 581.425811 458.339725 
L 587.978385 465.180282 
L 592.153695 469.654017 
L 592.29538 480.968308 
L 598.910625 487.877073 
" clip-path="url(#p5b7e7d5493)" style="fill: none; stroke: #355e8d; stroke-width: 1.5"/>
   </g>
   <g id="PathCollection_12">
    <path d="M 407.126299 28.396875 
L 413.06246 34.555826 
L 417.923533 39.711155 
L 423.994705 46.011536 
L 428.684073 51.025436 
L 428.836524 62.339738 
L 434.926945 68.696443 
L 439.560262 73.654018 
L 439.691629 84.968299 
L 439.829111 96.282601 
L 445.859195 102.594283 
L 450.543372 107.596881 
L 450.687485 118.911162 
L 450.835813 130.225442 
L 450.98587 141.539733 
L 456.791445 147.629261 
L 461.720854 152.854025 
L 461.920415 164.168305 
L 467.723685 170.201363 
L 472.741941 175.482585 
L 472.936093 186.796877 
L 478.655925 192.754278 
L 483.682729 198.111168 
L 483.841181 209.425448 
L 489.588175 215.436286 
L 494.506446 220.739734 
L 494.634469 232.05402 
L 494.780054 243.368306 
L 500.520425 249.375427 
L 505.467238 254.682592 
L 505.606964 265.996877 
L 505.767217 277.311163 
L 511.452665 283.249315 
L 516.480071 288.625449 
L 516.662973 299.939735 
L 522.384905 305.897456 
L 527.392901 311.254015 
L 527.554419 322.568301 
L 533.317144 328.594583 
L 538.252264 333.882587 
L 538.402324 345.196873 
L 544.249405 351.301741 
L 549.104692 356.511158 
L 549.251126 367.825444 
L 549.388485 379.13973 
L 555.181645 385.201383 
L 560.078763 390.454016 
L 560.225679 401.768302 
L 560.395104 413.082582 
L 566.113885 419.061159 
L 571.095782 424.396873 
L 571.263728 435.711165 
L 577.046146 441.75392 
L 581.963371 447.025445 
L 582.129436 458.339725 
L 587.978385 464.445733 
L 592.839245 469.654017 
L 592.98916 480.968308 
L 598.910625 487.152509 
" clip-path="url(#p5b7e7d5493)" style="fill: none; stroke: #32658e; stroke-width: 1.5"/>
   </g>
   <g id="PathCollection_13">
    <path d="M 407.825378 28.396875 
L 413.06246 33.83051 
L 418.607449 39.711155 
L 423.994705 45.301799 
L 429.347871 51.025436 
L 429.510444 62.339738 
L 434.926945 67.993057 
L 440.217641 73.654018 
L 440.360057 84.968299 
L 440.510046 96.282601 
L 445.859195 101.88155 
L 451.210739 107.596881 
L 451.368434 118.911162 
L 451.531493 130.225442 
L 451.696872 141.539733 
L 456.791445 146.883484 
L 462.424473 152.854025 
L 462.643931 164.168305 
L 467.723685 169.449198 
L 473.456654 175.482585 
L 473.666109 186.796877 
L 478.655925 191.993942 
L 484.396214 198.111168 
L 484.563325 209.425448 
L 489.588175 214.680988 
L 495.206888 220.739734 
L 495.345444 232.05402 
L 495.503249 243.368306 
L 500.520425 248.618625 
L 506.172653 254.682592 
L 506.323724 265.996877 
L 506.497745 277.311163 
L 511.452665 282.486316 
L 517.193577 288.625449 
L 517.3873 299.939735 
L 522.384905 305.143281 
L 528.098001 311.254015 
L 528.271244 322.568301 
L 533.317144 327.844974 
L 538.95185 333.882587 
L 539.112705 345.196873 
L 544.249405 350.560041 
L 549.795972 356.511158 
L 549.952065 367.825444 
L 550.099352 379.13973 
L 555.181645 384.45757 
L 560.772233 390.454016 
L 560.930866 401.768302 
L 561.112718 413.082582 
L 566.113885 418.310945 
L 571.796249 424.396873 
L 571.975885 435.711165 
L 577.046146 441.0097 
L 582.657572 447.025445 
L 582.833062 458.339725 
L 587.978385 463.711184 
L 593.524796 469.654017 
L 593.68294 480.968308 
L 598.910625 486.427946 
" clip-path="url(#p5b7e7d5493)" style="fill: none; stroke: #2e6d8e; stroke-width: 1.5"/>
   </g>
   <g id="PathCollection_14">
    <path d="M 408.524457 28.396875 
L 413.06246 33.105194 
L 419.291366 39.711155 
L 423.994705 44.592062 
L 430.011669 51.025436 
L 430.184364 62.339738 
L 434.926945 67.289672 
L 440.87502 73.654018 
L 441.028485 84.968299 
L 441.19098 96.282601 
L 445.859195 101.168816 
L 451.878106 107.596881 
L 452.049384 118.911162 
L 452.227173 130.225442 
L 452.407874 141.539733 
L 456.791445 146.137706 
L 463.128092 152.854025 
L 463.367447 164.168305 
L 467.723685 168.697033 
L 474.171366 175.482585 
L 474.396124 186.796877 
L 478.655925 191.233606 
L 485.109699 198.111168 
L 485.285469 209.425448 
L 489.588175 213.925691 
L 495.90733 220.739734 
L 496.056418 232.05402 
L 496.226444 243.368306 
L 500.520425 247.861824 
L 506.878067 254.682592 
L 507.040485 265.996877 
L 507.228274 277.311163 
L 511.452665 281.723318 
L 517.907083 288.625449 
L 518.111626 299.939735 
L 522.384905 304.389106 
L 528.8031 311.254015 
L 528.98807 322.568301 
L 533.317144 327.095364 
L 539.651436 333.882587 
L 539.823086 345.196873 
L 544.249405 349.818341 
L 550.487252 356.511158 
L 550.653003 367.825444 
L 550.810218 379.13973 
L 555.181645 383.713757 
L 561.465702 390.454016 
L 561.636052 401.768302 
L 561.830332 413.082582 
L 566.113885 417.560731 
L 572.496715 424.396873 
L 572.688043 435.711165 
L 577.046146 440.265479 
L 583.351774 447.025445 
L 583.536687 458.339725 
L 587.978385 462.976634 
L 594.210346 469.654017 
L 594.376721 480.968308 
L 598.910625 485.703382 
" clip-path="url(#p5b7e7d5493)" style="fill: none; stroke: #2c738e; stroke-width: 1.5"/>
   </g>
   <g id="PathCollection_15">
    <path d="M 409.223536 28.396875 
L 413.06246 32.379878 
L 419.975282 39.711155 
L 423.994705 43.882325 
L 430.675468 51.025436 
L 430.858285 62.339738 
L 434.926945 66.586287 
L 441.532399 73.654018 
L 441.696913 84.968299 
L 441.871915 96.282601 
L 445.859195 100.456083 
L 452.545473 107.596881 
L 452.730333 118.911162 
L 452.922853 130.225442 
L 453.118877 141.539733 
L 456.791445 145.391928 
L 463.831711 152.854025 
L 464.090963 164.168305 
L 467.723685 167.944869 
L 474.886079 175.482585 
L 475.126139 186.796877 
L 478.655925 190.47327 
L 485.823184 198.111168 
L 486.007613 209.425448 
L 489.588175 213.170393 
L 496.607772 220.739734 
L 496.767393 232.05402 
L 496.949639 243.368306 
L 500.520425 247.105023 
L 507.583482 254.682592 
L 507.757245 265.996877 
L 507.958802 277.311163 
L 511.452665 280.960319 
L 518.620589 288.625449 
L 518.835953 299.939735 
L 522.384905 303.634931 
L 529.508199 311.254015 
L 529.704896 322.568301 
L 533.317144 326.345755 
L 540.351021 333.882587 
L 540.533466 345.196873 
L 544.249405 349.076641 
L 551.178532 356.511158 
L 551.353942 367.825444 
L 551.521085 379.13973 
L 555.181645 382.969944 
L 562.159171 390.454016 
L 562.341239 401.768302 
L 562.547945 413.082582 
L 566.113885 416.810517 
L 573.197182 424.396873 
L 573.4002 435.711165 
L 577.046146 439.521259 
L 584.045975 447.025445 
L 584.240312 458.339725 
L 587.978385 462.242085 
L 594.895897 469.654017 
L 595.070501 480.968308 
L 598.910625 484.978819 
" clip-path="url(#p5b7e7d5493)" style="fill: none; stroke: #297b8e; stroke-width: 1.5"/>
   </g>
   <g id="PathCollection_16">
    <path d="M 409.922615 28.396875 
L 413.06246 31.654561 
L 420.659199 39.711155 
L 423.994705 43.172588 
L 431.339266 51.025436 
L 431.532205 62.339738 
L 434.926945 65.882902 
L 442.189778 73.654018 
L 442.365341 84.968299 
L 442.552849 96.282601 
L 445.859195 99.74335 
L 453.21284 107.596881 
L 453.411282 118.911162 
L 453.618533 130.225442 
L 453.829879 141.539733 
L 456.791445 144.646151 
L 464.53533 152.854025 
L 464.81448 164.168305 
L 467.723685 167.192704 
L 475.600792 175.482585 
L 475.856155 186.796877 
L 478.655925 189.712933 
L 486.536669 198.111168 
L 486.729758 209.425448 
L 489.588175 212.415095 
L 497.308215 220.739734 
L 497.478368 232.05402 
L 497.672834 243.368306 
L 500.520425 246.348222 
L 508.288897 254.682592 
L 508.474006 265.996877 
L 508.68933 277.311163 
L 511.452665 280.197321 
L 519.334095 288.625449 
L 519.56028 299.939735 
L 522.384905 302.880756 
L 530.213298 311.254015 
L 530.421722 322.568301 
L 533.317144 325.596145 
L 541.050607 333.882587 
L 541.243847 345.196873 
L 544.249405 348.33494 
L 551.869812 356.511158 
L 552.054881 367.825444 
L 552.231952 379.13973 
L 555.181645 382.226131 
L 562.852641 390.454016 
L 563.046426 401.768302 
L 563.265559 413.082582 
L 566.113885 416.060303 
L 573.897648 424.396873 
L 574.112358 435.711165 
L 577.046146 438.777038 
L 584.740176 447.025445 
L 584.943938 458.339725 
L 587.978385 461.507535 
L 595.581447 469.654017 
L 595.764281 480.968308 
L 598.910625 484.254256 
" clip-path="url(#p5b7e7d5493)" style="fill: none; stroke: #26828e; stroke-width: 1.5"/>
   </g>
   <g id="PathCollection_17">
    <path d="M 410.621694 28.396875 
L 413.06246 30.929245 
L 421.343115 39.711155 
L 423.994705 42.462852 
L 432.003064 51.025436 
L 432.206125 62.339738 
L 434.926945 65.179517 
L 442.847157 73.654018 
L 443.033769 84.968299 
L 443.233784 96.282601 
L 445.859195 99.030616 
L 453.880207 107.596881 
L 454.092232 118.911162 
L 454.314213 130.225442 
L 454.540881 141.539733 
L 456.791445 143.900373 
L 465.238949 152.854025 
L 465.537996 164.168305 
L 467.723685 166.440539 
L 476.315504 175.482585 
L 476.58617 186.796877 
L 478.655925 188.952597 
L 487.250155 198.111168 
L 487.451902 209.425448 
L 489.588175 211.659798 
L 498.008657 220.739734 
L 498.189343 232.05402 
L 498.396029 243.368306 
L 500.520425 245.591421 
L 508.994312 254.682592 
L 509.190767 265.996877 
L 509.419859 277.311163 
L 511.452665 279.434322 
L 520.0476 288.625449 
L 520.284607 299.939735 
L 522.384905 302.126582 
L 530.918398 311.254015 
L 531.138547 322.568301 
L 533.317144 324.846536 
L 541.750193 333.882587 
L 541.954228 345.196873 
L 544.249405 347.59324 
L 552.561093 356.511158 
L 552.755819 367.825444 
L 552.942819 379.13973 
L 555.181645 381.482318 
L 563.54611 390.454016 
L 563.751612 401.768302 
L 563.983173 413.082582 
L 566.113885 415.310089 
L 574.598115 424.396873 
L 574.824515 435.711165 
L 577.046146 438.032818 
L 585.434378 447.025445 
L 585.647563 458.339725 
L 587.978385 460.772986 
L 596.266998 469.654017 
L 596.458061 480.968308 
L 598.910625 483.529692 
" clip-path="url(#p5b7e7d5493)" style="fill: none; stroke: #23898e; stroke-width: 1.5"/>
   </g>
   <g id="PathCollection_18">
    <path d="M 411.320773 28.396875 
L 413.06246 30.203929 
L 422.027032 39.711155 
L 423.994705 41.753115 
L 432.666862 51.025436 
L 432.880045 62.339738 
L 434.926945 64.476131 
L 443.504536 73.654018 
L 443.702197 84.968299 
L 443.914718 96.282601 
L 445.859195 98.317883 
L 454.547574 107.596881 
L 454.773181 118.911162 
L 455.009893 130.225442 
L 455.251883 141.539733 
L 456.791445 143.154596 
L 465.942568 152.854025 
L 466.261512 164.168305 
L 467.723685 165.688374 
L 477.030217 175.482585 
L 477.316186 186.796877 
L 478.655925 188.192261 
L 487.96364 198.111168 
L 488.174046 209.425448 
L 489.588175 210.9045 
L 498.709099 220.739734 
L 498.900318 232.05402 
L 499.119224 243.368306 
L 500.520425 244.83462 
L 509.699727 254.682592 
L 509.907527 265.996877 
L 510.150387 277.311163 
L 511.452665 278.671324 
L 520.761106 288.625449 
L 521.008934 299.939735 
L 522.384905 301.372407 
L 531.623497 311.254015 
L 531.855373 322.568301 
L 533.317144 324.096926 
L 542.449779 333.882587 
L 542.664609 345.196873 
L 544.249405 346.85154 
L 553.252373 356.511158 
L 553.456758 367.825444 
L 553.653686 379.13973 
L 555.181645 380.738505 
L 564.239579 390.454016 
L 564.456799 401.768302 
L 564.700787 413.082582 
L 566.113885 414.559875 
L 575.298581 424.396873 
L 575.536673 435.711165 
L 577.046146 437.288598 
L 586.128579 447.025445 
L 586.351189 458.339725 
L 587.978385 460.038437 
L 596.952548 469.654017 
L 597.151842 480.968308 
L 598.910625 482.805129 
" clip-path="url(#p5b7e7d5493)" style="fill: none; stroke: #21918c; stroke-width: 1.5"/>
   </g>
   <g id="PathCollection_19">
    <path d="M 412.019852 28.396875 
L 413.06246 29.478613 
L 422.710949 39.711155 
L 423.994705 41.043378 
L 433.33066 51.025436 
L 433.553966 62.339738 
L 434.926945 63.772746 
L 444.161916 73.654018 
L 444.370624 84.968299 
L 444.595653 96.282601 
L 445.859195 97.605149 
L 455.214941 107.596881 
L 455.45413 118.911162 
L 455.705573 130.225442 
L 455.962886 141.539733 
L 456.791445 142.408818 
L 466.646187 152.854025 
L 466.985029 164.168305 
L 467.723685 164.936209 
L 477.744929 175.482585 
L 478.046201 186.796877 
L 478.655925 187.431925 
L 488.677125 198.111168 
L 488.89619 209.425448 
L 489.588175 210.149202 
L 499.409541 220.739734 
L 499.611292 232.05402 
L 499.842419 243.368306 
L 500.520425 244.077818 
L 510.405142 254.682592 
L 510.624288 265.996877 
L 510.880916 277.311163 
L 511.452665 277.908325 
L 521.474612 288.625449 
L 521.733261 299.939735 
L 522.384905 300.618232 
L 532.328596 311.254015 
L 532.572199 322.568301 
L 533.317144 323.347317 
L 543.149365 333.882587 
L 543.37499 345.196873 
L 544.249405 346.10984 
L 553.943653 356.511158 
L 554.157696 367.825444 
L 554.364552 379.13973 
L 555.181645 379.994692 
L 564.933049 390.454016 
L 565.161986 401.768302 
L 565.418401 413.082582 
L 566.113885 413.809661 
L 575.999048 424.396873 
L 576.24883 435.711165 
L 577.046146 436.544377 
L 586.82278 447.025445 
L 587.054814 458.339725 
L 587.978385 459.303887 
L 597.638099 469.654017 
L 597.845622 480.968308 
L 598.910625 482.080565 
" clip-path="url(#p5b7e7d5493)" style="fill: none; stroke: #1f978b; stroke-width: 1.5"/>
   </g>
   <g id="PathCollection_20">
    <path d="M 412.718931 28.396875 
L 413.06246 28.753297 
L 423.394865 39.711155 
L 423.994705 40.333641 
L 433.994458 51.025436 
L 434.227886 62.339738 
L 434.926945 63.069361 
L 444.819295 73.654018 
L 445.039052 84.968299 
L 445.276587 96.282601 
L 445.859195 96.892416 
L 455.882308 107.596881 
L 456.13508 118.911162 
L 456.401253 130.225442 
L 456.673888 141.539733 
L 456.791445 141.66304 
L 467.349805 152.854025 
L 467.708545 164.168305 
L 467.723685 164.184044 
L 478.459642 175.482585 
L 478.655925 182.554005 
L 480.860009 186.796877 
L 489.39061 198.111168 
L 489.588175 207.94263 
L 490.104889 209.425448 
L 500.109983 220.739734 
L 500.322267 232.05402 
L 500.520425 241.296282 
L 501.297176 243.368306 
L 511.110557 254.682592 
L 511.341048 265.996877 
L 511.452665 270.719565 
L 514.169341 277.311163 
L 522.188118 288.625449 
L 522.384905 296.921406 
L 523.639811 299.939735 
L 533.033695 311.254015 
L 533.289024 322.568301 
L 533.317144 322.597707 
L 543.848951 333.882587 
L 544.08537 345.196873 
L 544.249405 345.36814 
L 554.634933 356.511158 
L 554.858635 367.825444 
L 555.075419 379.13973 
L 555.181645 379.250879 
L 565.626518 390.454016 
L 565.867173 401.768302 
L 566.113885 412.166066 
L 566.484437 413.082582 
L 576.699514 424.396873 
L 576.960988 435.711165 
L 577.046146 435.800157 
L 587.516982 447.025445 
L 587.758439 458.339725 
L 587.978385 458.569338 
L 598.323649 469.654017 
L 598.539402 480.968308 
L 598.910625 481.356002 
" clip-path="url(#p5b7e7d5493)" style="fill: none; stroke: #1f9f88; stroke-width: 1.5"/>
   </g>
   <g id="PathCollection_21">
    <path d="M 420.078154 28.396875 
L 423.994705 36.29252 
L 425.503179 39.711155 
L 434.658257 51.025436 
L 434.901806 62.339738 
L 434.926945 62.365976 
L 445.476674 73.654018 
L 445.70748 84.968299 
L 445.859195 91.883292 
L 447.610304 96.282601 
L 456.549675 107.596881 
L 456.791445 117.885821 
L 457.25913 118.911162 
L 462.382847 130.225442 
L 467.723685 141.124887 
L 467.945242 141.539733 
L 474.764734 152.854025 
L 478.655925 158.52298 
L 482.397103 164.168305 
L 488.681719 175.482585 
L 489.588175 177.278995 
L 494.185108 186.796877 
L 498.867919 198.111168 
L 500.520425 203.188665 
L 502.421309 209.425448 
L 505.60567 220.739734 
L 509.48998 232.05402 
L 511.452665 237.292545 
L 513.756189 243.368306 
L 517.927663 254.682592 
L 521.930674 265.996877 
L 522.384905 267.0886 
L 526.744795 277.311163 
L 531.567793 288.625449 
L 533.317144 292.912103 
L 536.159593 299.939735 
L 540.711057 311.254015 
L 544.249405 320.198435 
L 545.184722 322.568301 
L 549.510798 333.882587 
L 553.713872 345.196873 
L 555.181645 349.306087 
L 557.773965 356.511158 
L 561.900911 367.825444 
L 565.760033 379.13973 
L 566.113885 380.128234 
L 569.772097 390.454016 
L 574.015593 401.768302 
L 577.046146 409.385267 
L 578.514471 413.082582 
L 583.218534 424.396873 
L 587.707056 435.711165 
L 587.978385 436.419823 
L 592.040005 447.025445 
L 596.323736 458.339725 
L 598.910625 465.09532 
" clip-path="url(#p5b7e7d5493)" style="fill: none; stroke: #21a585; stroke-width: 1.5"/>
   </g>
   <g id="PathCollection_22">
    <path d="M 433.099359 28.396875 
L 434.926945 32.725106 
L 437.598745 39.711155 
L 441.933937 51.025436 
L 445.859195 60.998637 
L 446.374579 62.339738 
L 450.673471 73.654018 
L 455.092152 84.968299 
L 456.791445 89.147439 
L 459.838565 96.282601 
L 464.986317 107.596881 
L 467.723685 113.54466 
L 470.151712 118.911162 
L 475.531944 130.225442 
L 478.655925 135.932238 
L 482.077496 141.539733 
L 489.588175 152.520581 
L 489.810209 152.854025 
L 496.43975 164.168305 
L 500.520425 172.437913 
L 501.989469 175.482585 
L 507.23952 186.796877 
L 511.318393 198.111168 
L 511.452665 198.583775 
L 514.457117 209.425448 
L 517.88207 220.739734 
L 521.971618 232.05402 
L 522.384905 233.131695 
L 526.40932 243.368306 
L 530.633896 254.682592 
L 533.317144 262.377679 
L 534.589331 265.996877 
L 539.502962 277.311163 
L 544.240994 288.625449 
L 544.249405 288.646488 
L 548.727936 299.939735 
L 553.132672 311.254015 
L 555.181645 316.512916 
L 557.548519 322.568301 
L 561.875754 333.882587 
L 566.113885 345.193712 
L 566.115071 345.196873 
L 570.19255 356.511158 
L 574.30614 367.825444 
L 577.046146 375.905168 
L 578.158114 379.13973 
L 582.09933 390.454016 
L 586.237939 401.768302 
L 587.978385 406.210592 
L 590.676212 413.082582 
L 595.342877 424.396873 
L 598.910625 433.377413 
" clip-path="url(#p5b7e7d5493)" style="fill: none; stroke: #26ad81; stroke-width: 1.5"/>
   </g>
   <g id="PathCollection_23">
    <path d="M 444.807088 28.396875 
L 445.859195 31.156054 
L 449.197875 39.711155 
L 453.594688 51.025436 
L 456.791445 59.466988 
L 457.897069 62.339738 
L 462.454791 73.654018 
L 467.274363 84.968299 
L 467.723685 85.987341 
L 472.536469 96.282601 
L 477.690706 107.596881 
L 478.655925 109.736461 
L 483.091583 118.911162 
L 489.473152 130.225442 
L 489.588175 130.407556 
L 497.117025 141.539733 
L 500.520425 146.729837 
L 504.112722 152.854025 
L 509.775906 164.168305 
L 511.452665 167.628554 
L 515.191453 175.482585 
L 519.818241 186.796877 
L 522.384905 195.185536 
L 523.251862 198.111168 
L 526.559927 209.425448 
L 530.1858 220.739734 
L 533.317144 229.127376 
L 534.44133 232.05402 
L 539.27198 243.368306 
L 543.438742 254.682592 
L 544.249405 256.96664 
L 547.473775 265.996877 
L 552.337525 277.311163 
L 555.181645 284.383171 
L 556.846064 288.625449 
L 561.255731 299.939735 
L 565.502213 311.254015 
L 566.113885 312.795328 
L 570.028593 322.568301 
L 574.290787 333.882587 
L 577.046146 341.204687 
L 578.557801 345.196873 
L 582.685481 356.511158 
L 586.757681 367.825444 
L 587.978385 371.339228 
L 590.699317 379.13973 
L 594.58217 390.454016 
L 598.634467 401.768302 
L 598.910625 402.484683 
" clip-path="url(#p5b7e7d5493)" style="fill: none; stroke: #2eb37c; stroke-width: 1.5"/>
   </g>
   <g id="PathCollection_24">
    <path d="M 456.524938 28.396875 
L 456.791445 29.073561 
L 460.920487 39.711155 
L 465.190759 51.025436 
L 467.723685 57.441067 
L 469.790667 62.339738 
L 474.847322 73.654018 
L 478.655925 81.769227 
L 480.189988 84.968299 
L 485.358792 96.282601 
L 489.588175 105.311631 
L 490.750234 107.596881 
L 497.0707 118.911162 
L 500.520425 124.338619 
L 504.412733 130.225442 
L 511.452665 141.283654 
L 511.602573 141.539733 
L 517.563612 152.854025 
L 522.384905 162.819792 
L 523.019 164.168305 
L 528.016444 175.482585 
L 531.982583 186.796877 
L 533.317144 191.353219 
L 535.312898 198.111168 
L 538.718239 209.425448 
L 542.590011 220.739734 
L 544.249405 224.9358 
L 547.153904 232.05402 
L 552.144583 243.368306 
L 555.181645 251.740317 
L 556.239444 254.682592 
L 560.353185 265.996877 
L 565.075648 277.311163 
L 566.113885 280.008356 
L 569.376656 288.625449 
L 573.705321 299.939735 
L 577.046146 308.838249 
L 577.953258 311.254015 
L 582.474298 322.568301 
L 586.803588 333.882587 
L 587.978385 337.004177 
L 591.076015 345.196873 
L 595.270278 356.511158 
L 598.910625 366.70942 
" clip-path="url(#p5b7e7d5493)" style="fill: none; stroke: #3aba76; stroke-width: 1.5"/>
   </g>
   <g id="PathCollection_25">
    <path d="M 468.250513 28.396875 
L 472.661259 39.711155 
L 477.245846 51.025436 
L 478.655925 54.297359 
L 482.390583 62.339738 
L 487.836647 73.654018 
L 489.588175 77.376235 
L 493.092079 84.968299 
L 498.550656 96.282601 
L 500.520425 100.069417 
L 504.670279 107.596881 
L 511.452665 118.481692 
L 511.729158 118.911162 
L 519.004531 130.225442 
L 522.384905 136.157923 
L 525.282435 141.539733 
L 530.800178 152.854025 
L 533.317144 158.261527 
L 535.980733 164.168305 
L 540.402405 175.482585 
L 543.927353 186.796877 
L 544.249405 187.835162 
L 547.471372 198.111168 
L 550.898064 209.425448 
L 555.031205 220.739734 
L 555.181645 221.093899 
L 560.015451 232.05402 
L 564.975294 243.368306 
L 566.113885 246.581299 
L 568.938254 254.682592 
L 573.153804 265.996877 
L 577.046146 275.738452 
L 577.665811 277.311163 
L 581.821724 288.625449 
L 586.059197 299.939735 
L 587.978385 304.984709 
L 590.378041 311.254015 
L 594.91382 322.568301 
L 598.910625 332.799419 
" clip-path="url(#p5b7e7d5493)" style="fill: none; stroke: #46c06f; stroke-width: 1.5"/>
   </g>
   <g id="PathCollection_26">
    <path d="M 480.172892 28.396875 
L 484.950452 39.711155 
L 489.588175 49.988559 
L 490.078994 51.025436 
L 495.525314 62.339738 
L 500.520425 73.250238 
L 500.709105 73.654018 
L 506.330189 84.968299 
L 511.452665 94.690427 
L 512.327654 96.282601 
L 519.125474 107.596881 
L 522.384905 112.648659 
L 526.355534 118.911162 
L 532.875849 130.225442 
L 533.317144 131.056795 
L 538.676816 141.539733 
L 543.844679 152.854025 
L 544.249405 153.775029 
L 548.633166 164.168305 
L 552.547125 175.482585 
L 555.181645 184.034263 
L 556.036356 186.796877 
L 559.517212 198.111168 
L 563.191304 209.425448 
L 566.113885 216.840115 
L 567.708269 220.739734 
L 572.835439 232.05402 
L 577.046146 241.952086 
L 577.637806 243.368306 
L 581.571245 254.682592 
L 585.875404 265.996877 
L 587.978385 271.421401 
L 590.207147 277.311163 
L 594.19297 288.625449 
L 598.335713 299.939735 
L 598.910625 301.417163 
" clip-path="url(#p5b7e7d5493)" style="fill: none; stroke: #56c667; stroke-width: 1.5"/>
   </g>
   <g id="PathCollection_27">
    <path d="M 492.769198 28.396875 
L 497.92387 39.711155 
L 500.520425 45.19333 
L 503.264834 51.025436 
L 508.597655 62.339738 
L 511.452665 68.268549 
L 514.204461 73.654018 
L 520.164991 84.968299 
L 522.384905 88.926013 
L 526.73574 96.282601 
L 533.317144 106.962414 
L 533.704588 107.596881 
L 540.467751 118.911162 
L 544.249405 125.89669 
L 546.500238 130.225442 
L 551.721545 141.539733 
L 555.181645 149.596159 
L 556.552934 152.854025 
L 561.006026 164.168305 
L 564.598578 175.482585 
L 566.113885 180.274745 
L 568.175559 186.796877 
L 571.599163 198.111168 
L 575.681991 209.425448 
L 577.046146 212.661511 
L 580.527482 220.739734 
L 585.54783 232.05402 
L 587.978385 237.996635 
L 590.139 243.368306 
L 594.200861 254.682592 
L 598.443642 265.996877 
L 598.910625 267.251985 
" clip-path="url(#p5b7e7d5493)" style="fill: none; stroke: #65cb5e; stroke-width: 1.5"/>
   </g>
   <g id="PathCollection_28">
    <path d="M 505.852644 28.396875 
L 511.100061 39.711155 
L 511.452665 40.464 
L 516.503794 51.025436 
L 522.196305 62.339738 
L 522.384905 62.707243 
L 528.13838 73.654018 
L 533.317144 82.947804 
L 534.493437 84.968299 
L 541.391482 96.282601 
L 544.249405 100.984096 
L 548.089317 107.596881 
L 554.226038 118.911162 
L 555.181645 120.800913 
L 559.706152 130.225442 
L 564.551114 141.539733 
L 566.113885 145.311694 
L 569.166528 152.854025 
L 573.152826 164.168305 
L 576.709555 175.482585 
L 577.046146 176.564127 
L 580.226104 186.796877 
L 583.845384 198.111168 
L 587.978385 208.508608 
L 588.354563 209.425448 
L 593.27658 220.739734 
L 598.265297 232.05402 
L 598.910625 233.700656 
" clip-path="url(#p5b7e7d5493)" style="fill: none; stroke: #77d153; stroke-width: 1.5"/>
   </g>
   <g id="PathCollection_29">
    <path d="M 519.145271 28.396875 
L 522.384905 35.348775 
L 524.494748 39.711155 
L 530.315483 51.025436 
L 533.317144 56.768973 
L 536.262696 62.339738 
L 542.474886 73.654018 
L 544.249405 76.669351 
L 549.194185 84.968299 
L 555.181645 95.168515 
L 555.812539 96.282601 
L 561.981487 107.596881 
L 566.113885 115.629974 
L 567.709704 118.911162 
L 572.62906 130.225442 
L 577.046146 141.034112 
L 577.250339 141.539733 
L 581.575606 152.854025 
L 585.252161 164.168305 
L 587.978385 172.690035 
L 588.871697 175.482585 
L 592.369334 186.796877 
L 596.291071 198.111168 
L 598.910625 204.350264 
" clip-path="url(#p5b7e7d5493)" style="fill: none; stroke: #89d548; stroke-width: 1.5"/>
   </g>
   <g id="PathCollection_30">
    <path d="M 532.573285 28.396875 
L 533.317144 29.903422 
L 538.471459 39.711155 
L 544.249405 50.711875 
L 544.415861 51.025436 
L 550.637921 62.339738 
L 555.181645 70.225839 
L 557.175293 73.654018 
L 563.760108 84.968299 
L 566.113885 89.200532 
L 569.876628 96.282601 
L 575.677637 107.596881 
L 577.046146 110.548951 
L 580.708328 118.911162 
L 585.455792 130.225442 
L 587.978385 136.585843 
L 589.888804 141.539733 
L 593.734857 152.854025 
L 597.464348 164.168305 
L 598.910625 168.794891 
" clip-path="url(#p5b7e7d5493)" style="fill: none; stroke: #9dd93b; stroke-width: 1.5"/>
   </g>
   <g id="PathCollection_31">
    <path d="M 546.754672 28.396875 
L 552.853042 39.711155 
L 555.181645 44.073634 
L 558.980279 51.025436 
L 565.362096 62.339738 
L 566.113885 63.641674 
L 571.750581 73.654018 
L 577.046146 83.218909 
L 577.978742 84.968299 
L 583.696851 96.282601 
L 587.978385 105.401334 
L 588.947409 107.596881 
L 593.602737 118.911162 
L 598.239778 130.225442 
L 598.910625 132.029567 
" clip-path="url(#p5b7e7d5493)" style="fill: none; stroke: #b0dd2f; stroke-width: 1.5"/>
   </g>
   <g id="PathCollection_32">
    <path d="M 561.315565 28.396875 
L 566.113885 37.238466 
L 567.454108 39.711155 
L 573.605985 51.025436 
L 577.046146 57.182438 
L 579.894293 62.339738 
L 586.048723 73.654018 
L 587.978385 77.33941 
L 591.868325 84.968299 
L 597.113315 96.282601 
L 598.910625 100.467245 
" clip-path="url(#p5b7e7d5493)" style="fill: none; stroke: #c5e021; stroke-width: 1.5"/>
   </g>
   <g id="PathCollection_33">
    <path d="M 576.000739 28.396875 
L 577.046146 30.339956 
L 582.019491 39.711155 
L 587.978385 50.766654 
L 588.116105 51.025436 
L 594.221949 62.339738 
L 598.910625 71.441938 
" clip-path="url(#p5b7e7d5493)" style="fill: none; stroke: #d8e219; stroke-width: 1.5"/>
   </g>
   <g id="PathCollection_34">
    <path d="M 590.61289 28.396875 
L 596.428159 39.711155 
L 598.910625 44.372591 
" clip-path="url(#p5b7e7d5493)" style="fill: none; stroke: #ece51b; stroke-width: 1.5"/>
   </g>
   <g id="PathCollection_35"/>
   <g id="line2d_29">
    <defs>
     <path id="md19d0df126" d="M 0 2.5 
C 0.663008 2.5 1.29895 2.236584 1.767767 1.767767 
C 2.236584 1.29895 2.5 0.663008 2.5 0 
C 2.5 -0.663008 2.236584 -1.29895 1.767767 -1.767767 
C 1.29895 -2.236584 0.663008 -2.5 0 -2.5 
C -0.663008 -2.5 -1.29895 -2.236584 -1.767767 -1.767767 
C -2.236584 -1.29895 -2.5 -0.663008 -2.5 0 
C -2.5 0.663008 -2.236584 1.29895 -1.767767 1.767767 
C -1.29895 2.236584 -0.663008 2.5 0 2.5 
z
" style="stroke: #ff0000"/>
    </defs>
    <g clip-path="url(#p5b7e7d5493)">
     <use xlink:href="#md19d0df126" x="331.070625" y="305.596875" style="fill: #ff0000; stroke: #ff0000"/>
    </g>
   </g>
   <g id="patch_3">
    <path d="M 63.230625 582.796875 
L 63.230625 28.396875 
" style="fill: none; stroke: #000000; stroke-width: 0.8; stroke-linejoin: miter; stroke-linecap: square"/>
   </g>
   <g id="patch_4">
    <path d="M 598.910625 582.796875 
L 598.910625 28.396875 
" style="fill: none; stroke: #000000; stroke-width: 0.8; stroke-linejoin: miter; stroke-linecap: square"/>
   </g>
   <g id="patch_5">
    <path d="M 63.230625 582.796875 
L 598.910625 582.796875 
" style="fill: none; stroke: #000000; stroke-width: 0.8; stroke-linejoin: miter; stroke-linecap: square"/>
   </g>
   <g id="patch_6">
    <path d="M 63.230625 28.396875 
L 598.910625 28.396875 
" style="fill: none; stroke: #000000; stroke-width: 0.8; stroke-linejoin: miter; stroke-linecap: square"/>
   </g>
   <g id="text_17">
    <!-- Loss Landscape Contour -->
    <g transform="translate(209.13 22.396875) scale(0.2 -0.2)">
     <defs>
      <path id="DejaVuSans-4c" d="M 628 4666 
L 1259 4666 
L 1259 531 
L 3531 531 
L 3531 0 
L 628 0 
L 628 4666 
z
" transform="scale(0.015625)"/>
      <path id="DejaVuSans-73" d="M 2834 3397 
L 2834 2853 
Q 2591 2978 2328 3040 
Q 2066 3103 1784 3103 
Q 1356 3103 1142 2972 
Q 928 2841 928 2578 
Q 928 2378 1081 2264 
Q 1234 2150 1697 2047 
L 1894 2003 
Q 2506 1872 2764 1633 
Q 3022 1394 3022 966 
Q 3022 478 2636 193 
Q 2250 -91 1575 -91 
Q 1294 -91 989 -36 
Q 684 19 347 128 
L 347 722 
Q 666 556 975 473 
Q 1284 391 1588 391 
Q 1994 391 2212 530 
Q 2431 669 2431 922 
Q 2431 1156 2273 1281 
Q 2116 1406 1581 1522 
L 1381 1569 
Q 847 1681 609 1914 
Q 372 2147 372 2553 
Q 372 3047 722 3315 
Q 1072 3584 1716 3584 
Q 2034 3584 2315 3537 
Q 2597 3491 2834 3397 
z
" transform="scale(0.015625)"/>
      <path id="DejaVuSans-61" d="M 2194 1759 
Q 1497 1759 1228 1600 
Q 959 1441 959 1056 
Q 959 750 1161 570 
Q 1363 391 1709 391 
Q 2188 391 2477 730 
Q 2766 1069 2766 1631 
L 2766 1759 
L 2194 1759 
z
M 3341 1997 
L 3341 0 
L 2766 0 
L 2766 531 
Q 2569 213 2275 61 
Q 1981 -91 1556 -91 
Q 1019 -91 701 211 
Q 384 513 384 1019 
Q 384 1609 779 1909 
Q 1175 2209 1959 2209 
L 2766 2209 
L 2766 2266 
Q 2766 2663 2505 2880 
Q 2244 3097 1772 3097 
Q 1472 3097 1187 3025 
Q 903 2953 641 2809 
L 641 3341 
Q 956 3463 1253 3523 
Q 1550 3584 1831 3584 
Q 2591 3584 2966 3190 
Q 3341 2797 3341 1997 
z
" transform="scale(0.015625)"/>
      <path id="DejaVuSans-64" d="M 2906 2969 
L 2906 4863 
L 3481 4863 
L 3481 0 
L 2906 0 
L 2906 525 
Q 2725 213 2448 61 
Q 2172 -91 1784 -91 
Q 1150 -91 751 415 
Q 353 922 353 1747 
Q 353 2572 751 3078 
Q 1150 3584 1784 3584 
Q 2172 3584 2448 3432 
Q 2725 3281 2906 2969 
z
M 947 1747 
Q 947 1113 1208 752 
Q 1469 391 1925 391 
Q 2381 391 2643 752 
Q 2906 1113 2906 1747 
Q 2906 2381 2643 2742 
Q 2381 3103 1925 3103 
Q 1469 3103 1208 2742 
Q 947 2381 947 1747 
z
" transform="scale(0.015625)"/>
      <path id="DejaVuSans-70" d="M 1159 525 
L 1159 -1331 
L 581 -1331 
L 581 3500 
L 1159 3500 
L 1159 2969 
Q 1341 3281 1617 3432 
Q 1894 3584 2278 3584 
Q 2916 3584 3314 3078 
Q 3713 2572 3713 1747 
Q 3713 922 3314 415 
Q 2916 -91 2278 -91 
Q 1894 -91 1617 61 
Q 1341 213 1159 525 
z
M 3116 1747 
Q 3116 2381 2855 2742 
Q 2594 3103 2138 3103 
Q 1681 3103 1420 2742 
Q 1159 2381 1159 1747 
Q 1159 1113 1420 752 
Q 1681 391 2138 391 
Q 2594 391 2855 752 
Q 3116 1113 3116 1747 
z
" transform="scale(0.015625)"/>
      <path id="DejaVuSans-43" d="M 4122 4306 
L 4122 3641 
Q 3803 3938 3442 4084 
Q 3081 4231 2675 4231 
Q 1875 4231 1450 3742 
Q 1025 3253 1025 2328 
Q 1025 1406 1450 917 
Q 1875 428 2675 428 
Q 3081 428 3442 575 
Q 3803 722 4122 1019 
L 4122 359 
Q 3791 134 3420 21 
Q 3050 -91 2638 -91 
Q 1578 -91 968 557 
Q 359 1206 359 2328 
Q 359 3453 968 4101 
Q 1578 4750 2638 4750 
Q 3056 4750 3426 4639 
Q 3797 4528 4122 4306 
z
" transform="scale(0.015625)"/>
      <path id="DejaVuSans-75" d="M 544 1381 
L 544 3500 
L 1119 3500 
L 1119 1403 
Q 1119 906 1312 657 
Q 1506 409 1894 409 
Q 2359 409 2629 706 
Q 2900 1003 2900 1516 
L 2900 3500 
L 3475 3500 
L 3475 0 
L 2900 0 
L 2900 538 
Q 2691 219 2414 64 
Q 2138 -91 1772 -91 
Q 1169 -91 856 284 
Q 544 659 544 1381 
z
M 1991 3584 
L 1991 3584 
z
" transform="scale(0.015625)"/>
     </defs>
     <use xlink:href="#DejaVuSans-4c"/>
     <use xlink:href="#DejaVuSans-6f" x="53.962891"/>
     <use xlink:href="#DejaVuSans-73" x="115.144531"/>
     <use xlink:href="#DejaVuSans-73" x="167.244141"/>
     <use xlink:href="#DejaVuSans-20" x="219.34375"/>
     <use xlink:href="#DejaVuSans-4c" x="251.130859"/>
     <use xlink:href="#DejaVuSans-61" x="306.84375"/>
     <use xlink:href="#DejaVuSans-6e" x="368.123047"/>
     <use xlink:href="#DejaVuSans-64" x="431.501953"/>
     <use xlink:href="#DejaVuSans-73" x="494.978516"/>
     <use xlink:href="#DejaVuSans-63" x="547.078125"/>
     <use xlink:href="#DejaVuSans-61" x="602.058594"/>
     <use xlink:href="#DejaVuSans-70" x="663.337891"/>
     <use xlink:href="#DejaVuSans-65" x="726.814453"/>
     <use xlink:href="#DejaVuSans-20" x="788.337891"/>
     <use xlink:href="#DejaVuSans-43" x="820.125"/>
     <use xlink:href="#DejaVuSans-6f" x="889.949219"/>
     <use xlink:href="#DejaVuSans-6e" x="951.130859"/>
     <use xlink:href="#DejaVuSans-74" x="1014.509766"/>
     <use xlink:href="#DejaVuSans-6f" x="1053.71875"/>
     <use xlink:href="#DejaVuSans-75" x="1114.900391"/>
     <use xlink:href="#DejaVuSans-72" x="1178.279297"/>
    </g>
   </g>
   <g id="legend_1">
    <g id="patch_7">
     <path d="M 487.777813 51.075 
L 591.910625 51.075 
Q 593.910625 51.075 593.910625 49.075 
L 593.910625 35.396875 
Q 593.910625 33.396875 591.910625 33.396875 
L 487.777813 33.396875 
Q 485.777813 33.396875 485.777813 35.396875 
L 485.777813 49.075 
Q 485.777813 51.075 487.777813 51.075 
z
" style="fill: #ffffff; opacity: 0.8; stroke: #cccccc; stroke-linejoin: miter"/>
    </g>
    <g id="line2d_30">
     <g>
      <use xlink:href="#md19d0df126" x="499.777813" y="41.495313" style="fill: #ff0000; stroke: #ff0000"/>
     </g>
    </g>
    <g id="text_18">
     <!-- Model Position -->
     <g transform="translate(517.777813 44.995313) scale(0.1 -0.1)">
      <defs>
       <path id="DejaVuSans-4d" d="M 628 4666 
L 1569 4666 
L 2759 1491 
L 3956 4666 
L 4897 4666 
L 4897 0 
L 4281 0 
L 4281 4097 
L 3078 897 
L 2444 897 
L 1241 4097 
L 1241 0 
L 628 0 
L 628 4666 
z
" transform="scale(0.015625)"/>
       <path id="DejaVuSans-6c" d="M 603 4863 
L 1178 4863 
L 1178 0 
L 603 0 
L 603 4863 
z
" transform="scale(0.015625)"/>
       <path id="DejaVuSans-50" d="M 1259 4147 
L 1259 2394 
L 2053 2394 
Q 2494 2394 2734 2622 
Q 2975 2850 2975 3272 
Q 2975 3691 2734 3919 
Q 2494 4147 2053 4147 
L 1259 4147 
z
M 628 4666 
L 2053 4666 
Q 2838 4666 3239 4311 
Q 3641 3956 3641 3272 
Q 3641 2581 3239 2228 
Q 2838 1875 2053 1875 
L 1259 1875 
L 1259 0 
L 628 0 
L 628 4666 
z
" transform="scale(0.015625)"/>
      </defs>
      <use xlink:href="#DejaVuSans-4d"/>
      <use xlink:href="#DejaVuSans-6f" x="86.279297"/>
      <use xlink:href="#DejaVuSans-64" x="147.460938"/>
      <use xlink:href="#DejaVuSans-65" x="210.9375"/>
      <use xlink:href="#DejaVuSans-6c" x="272.460938"/>
      <use xlink:href="#DejaVuSans-20" x="300.244141"/>
      <use xlink:href="#DejaVuSans-50" x="332.03125"/>
      <use xlink:href="#DejaVuSans-6f" x="388.708984"/>
      <use xlink:href="#DejaVuSans-73" x="449.890625"/>
      <use xlink:href="#DejaVuSans-69" x="501.990234"/>
      <use xlink:href="#DejaVuSans-74" x="529.773438"/>
      <use xlink:href="#DejaVuSans-69" x="568.982422"/>
      <use xlink:href="#DejaVuSans-6f" x="596.765625"/>
      <use xlink:href="#DejaVuSans-6e" x="657.947266"/>
     </g>
    </g>
   </g>
  </g>
  <g id="axes_2">
   <g id="patch_8">
    <path d="M 632.390625 582.796875 
L 660.110625 582.796875 
L 660.110625 28.396875 
L 632.390625 28.396875 
z
" style="fill: #ffffff"/>
   </g>
   <g id="patch_9">
    <path clip-path="url(#p19b511922b)" style="fill: #ffffff; stroke: #ffffff; stroke-width: 0.01; stroke-linejoin: miter"/>
   </g>
   <g id="matplotlib.axis_3"/>
   <g id="matplotlib.axis_4">
    <g id="ytick_8">
     <g id="line2d_31">
      <g>
       <use xlink:href="#mc673af34fe" x="660.110625" y="566.490993" style="stroke: #000000; stroke-width: 0.8"/>
      </g>
     </g>
     <g id="text_19">
      <!-- 0 -->
      <g transform="translate(663.610625 572.569743) scale(0.16 -0.16)">
       <use xlink:href="#DejaVuSans-30"/>
      </g>
     </g>
    </g>
    <g id="ytick_9">
     <g id="line2d_32">
      <g>
       <use xlink:href="#mc673af34fe" x="660.110625" y="501.267463" style="stroke: #000000; stroke-width: 0.8"/>
      </g>
     </g>
     <g id="text_20">
      <!-- 4 -->
      <g transform="translate(663.610625 507.346213) scale(0.16 -0.16)">
       <defs>
        <path id="DejaVuSans-34" d="M 2419 4116 
L 825 1625 
L 2419 1625 
L 2419 4116 
z
M 2253 4666 
L 3047 4666 
L 3047 1625 
L 3713 1625 
L 3713 1100 
L 3047 1100 
L 3047 0 
L 2419 0 
L 2419 1100 
L 313 1100 
L 313 1709 
L 2253 4666 
z
" transform="scale(0.015625)"/>
       </defs>
       <use xlink:href="#DejaVuSans-34"/>
      </g>
     </g>
    </g>
    <g id="ytick_10">
     <g id="line2d_33">
      <g>
       <use xlink:href="#mc673af34fe" x="660.110625" y="436.043934" style="stroke: #000000; stroke-width: 0.8"/>
      </g>
     </g>
     <g id="text_21">
      <!-- 8 -->
      <g transform="translate(663.610625 442.122684) scale(0.16 -0.16)">
       <defs>
        <path id="DejaVuSans-38" d="M 2034 2216 
Q 1584 2216 1326 1975 
Q 1069 1734 1069 1313 
Q 1069 891 1326 650 
Q 1584 409 2034 409 
Q 2484 409 2743 651 
Q 3003 894 3003 1313 
Q 3003 1734 2745 1975 
Q 2488 2216 2034 2216 
z
M 1403 2484 
Q 997 2584 770 2862 
Q 544 3141 544 3541 
Q 544 4100 942 4425 
Q 1341 4750 2034 4750 
Q 2731 4750 3128 4425 
Q 3525 4100 3525 3541 
Q 3525 3141 3298 2862 
Q 3072 2584 2669 2484 
Q 3125 2378 3379 2068 
Q 3634 1759 3634 1313 
Q 3634 634 3220 271 
Q 2806 -91 2034 -91 
Q 1263 -91 848 271 
Q 434 634 434 1313 
Q 434 1759 690 2068 
Q 947 2378 1403 2484 
z
M 1172 3481 
Q 1172 3119 1398 2916 
Q 1625 2713 2034 2713 
Q 2441 2713 2670 2916 
Q 2900 3119 2900 3481 
Q 2900 3844 2670 4047 
Q 2441 4250 2034 4250 
Q 1625 4250 1398 4047 
Q 1172 3844 1172 3481 
z
" transform="scale(0.015625)"/>
       </defs>
       <use xlink:href="#DejaVuSans-38"/>
      </g>
     </g>
    </g>
    <g id="ytick_11">
     <g id="line2d_34">
      <g>
       <use xlink:href="#mc673af34fe" x="660.110625" y="370.820404" style="stroke: #000000; stroke-width: 0.8"/>
      </g>
     </g>
     <g id="text_22">
      <!-- 12 -->
      <g transform="translate(663.610625 376.899154) scale(0.16 -0.16)">
       <use xlink:href="#DejaVuSans-31"/>
       <use xlink:href="#DejaVuSans-32" x="63.623047"/>
      </g>
     </g>
    </g>
    <g id="ytick_12">
     <g id="line2d_35">
      <g>
       <use xlink:href="#mc673af34fe" x="660.110625" y="305.596875" style="stroke: #000000; stroke-width: 0.8"/>
      </g>
     </g>
     <g id="text_23">
      <!-- 16 -->
      <g transform="translate(663.610625 311.675625) scale(0.16 -0.16)">
       <defs>
        <path id="DejaVuSans-36" d="M 2113 2584 
Q 1688 2584 1439 2293 
Q 1191 2003 1191 1497 
Q 1191 994 1439 701 
Q 1688 409 2113 409 
Q 2538 409 2786 701 
Q 3034 994 3034 1497 
Q 3034 2003 2786 2293 
Q 2538 2584 2113 2584 
z
M 3366 4563 
L 3366 3988 
Q 3128 4100 2886 4159 
Q 2644 4219 2406 4219 
Q 1781 4219 1451 3797 
Q 1122 3375 1075 2522 
Q 1259 2794 1537 2939 
Q 1816 3084 2150 3084 
Q 2853 3084 3261 2657 
Q 3669 2231 3669 1497 
Q 3669 778 3244 343 
Q 2819 -91 2113 -91 
Q 1303 -91 875 529 
Q 447 1150 447 2328 
Q 447 3434 972 4092 
Q 1497 4750 2381 4750 
Q 2619 4750 2861 4703 
Q 3103 4656 3366 4563 
z
" transform="scale(0.015625)"/>
       </defs>
       <use xlink:href="#DejaVuSans-31"/>
       <use xlink:href="#DejaVuSans-36" x="63.623047"/>
      </g>
     </g>
    </g>
    <g id="ytick_13">
     <g id="line2d_36">
      <g>
       <use xlink:href="#mc673af34fe" x="660.110625" y="240.373346" style="stroke: #000000; stroke-width: 0.8"/>
      </g>
     </g>
     <g id="text_24">
      <!-- 20 -->
      <g transform="translate(663.610625 246.452096) scale(0.16 -0.16)">
       <use xlink:href="#DejaVuSans-32"/>
       <use xlink:href="#DejaVuSans-30" x="63.623047"/>
      </g>
     </g>
    </g>
    <g id="ytick_14">
     <g id="line2d_37">
      <g>
       <use xlink:href="#mc673af34fe" x="660.110625" y="175.149816" style="stroke: #000000; stroke-width: 0.8"/>
      </g>
     </g>
     <g id="text_25">
      <!-- 24 -->
      <g transform="translate(663.610625 181.228566) scale(0.16 -0.16)">
       <use xlink:href="#DejaVuSans-32"/>
       <use xlink:href="#DejaVuSans-34" x="63.623047"/>
      </g>
     </g>
    </g>
    <g id="ytick_15">
     <g id="line2d_38">
      <g>
       <use xlink:href="#mc673af34fe" x="660.110625" y="109.926287" style="stroke: #000000; stroke-width: 0.8"/>
      </g>
     </g>
     <g id="text_26">
      <!-- 28 -->
      <g transform="translate(663.610625 116.005037) scale(0.16 -0.16)">
       <use xlink:href="#DejaVuSans-32"/>
       <use xlink:href="#DejaVuSans-38" x="63.623047"/>
      </g>
     </g>
    </g>
    <g id="ytick_16">
     <g id="line2d_39">
      <g>
       <use xlink:href="#mc673af34fe" x="660.110625" y="44.702757" style="stroke: #000000; stroke-width: 0.8"/>
      </g>
     </g>
     <g id="text_27">
      <!-- 32 -->
      <g transform="translate(663.610625 50.781507) scale(0.16 -0.16)">
       <defs>
        <path id="DejaVuSans-33" d="M 2597 2516 
Q 3050 2419 3304 2112 
Q 3559 1806 3559 1356 
Q 3559 666 3084 287 
Q 2609 -91 1734 -91 
Q 1441 -91 1130 -33 
Q 819 25 488 141 
L 488 750 
Q 750 597 1062 519 
Q 1375 441 1716 441 
Q 2309 441 2620 675 
Q 2931 909 2931 1356 
Q 2931 1769 2642 2001 
Q 2353 2234 1838 2234 
L 1294 2234 
L 1294 2753 
L 1863 2753 
Q 2328 2753 2575 2939 
Q 2822 3125 2822 3475 
Q 2822 3834 2567 4026 
Q 2313 4219 1838 4219 
Q 1578 4219 1281 4162 
Q 984 4106 628 3988 
L 628 4550 
Q 988 4650 1302 4700 
Q 1616 4750 1894 4750 
Q 2613 4750 3031 4423 
Q 3450 4097 3450 3541 
Q 3450 3153 3228 2886 
Q 3006 2619 2597 2516 
z
" transform="scale(0.015625)"/>
       </defs>
       <use xlink:href="#DejaVuSans-33"/>
       <use xlink:href="#DejaVuSans-32" x="63.623047"/>
      </g>
     </g>
    </g>
    <g id="text_28">
     <!-- Loss -->
     <g transform="translate(695.569063 316.564063) rotate(-90) scale(0.1 -0.1)">
      <use xlink:href="#DejaVuSans-4c"/>
      <use xlink:href="#DejaVuSans-6f" x="53.962891"/>
      <use xlink:href="#DejaVuSans-73" x="115.144531"/>
      <use xlink:href="#DejaVuSans-73" x="167.244141"/>
     </g>
    </g>
   </g>
   <g id="LineCollection_1"/>
   <g id="LineCollection_2">
    <path d="M 632.390625 582.796875 
L 660.110625 582.796875 
" clip-path="url(#p00a5d08570)" style="fill: none; stroke: #440154; stroke-width: 1.5"/>
    <path d="M 632.390625 566.490993 
L 660.110625 566.490993 
" clip-path="url(#p00a5d08570)" style="fill: none; stroke: #460b5e; stroke-width: 1.5"/>
    <path d="M 632.390625 550.18511 
L 660.110625 550.18511 
" clip-path="url(#p00a5d08570)" style="fill: none; stroke: #481769; stroke-width: 1.5"/>
    <path d="M 632.390625 533.879228 
L 660.110625 533.879228 
" clip-path="url(#p00a5d08570)" style="fill: none; stroke: #482071; stroke-width: 1.5"/>
    <path d="M 632.390625 517.573346 
L 660.110625 517.573346 
" clip-path="url(#p00a5d08570)" style="fill: none; stroke: #472a7a; stroke-width: 1.5"/>
    <path d="M 632.390625 501.267463 
L 660.110625 501.267463 
" clip-path="url(#p00a5d08570)" style="fill: none; stroke: #46337f; stroke-width: 1.5"/>
    <path d="M 632.390625 484.961581 
L 660.110625 484.961581 
" clip-path="url(#p00a5d08570)" style="fill: none; stroke: #433d84; stroke-width: 1.5"/>
    <path d="M 632.390625 468.655699 
L 660.110625 468.655699 
" clip-path="url(#p00a5d08570)" style="fill: none; stroke: #404588; stroke-width: 1.5"/>
    <path d="M 632.390625 452.349816 
L 660.110625 452.349816 
" clip-path="url(#p00a5d08570)" style="fill: none; stroke: #3d4e8a; stroke-width: 1.5"/>
    <path d="M 632.390625 436.043934 
L 660.110625 436.043934 
" clip-path="url(#p00a5d08570)" style="fill: none; stroke: #39558c; stroke-width: 1.5"/>
    <path d="M 632.390625 419.738051 
L 660.110625 419.738051 
" clip-path="url(#p00a5d08570)" style="fill: none; stroke: #355e8d; stroke-width: 1.5"/>
    <path d="M 632.390625 403.432169 
L 660.110625 403.432169 
" clip-path="url(#p00a5d08570)" style="fill: none; stroke: #32658e; stroke-width: 1.5"/>
    <path d="M 632.390625 387.126287 
L 660.110625 387.126287 
" clip-path="url(#p00a5d08570)" style="fill: none; stroke: #2e6d8e; stroke-width: 1.5"/>
    <path d="M 632.390625 370.820404 
L 660.110625 370.820404 
" clip-path="url(#p00a5d08570)" style="fill: none; stroke: #2c738e; stroke-width: 1.5"/>
    <path d="M 632.390625 354.514522 
L 660.110625 354.514522 
" clip-path="url(#p00a5d08570)" style="fill: none; stroke: #297b8e; stroke-width: 1.5"/>
    <path d="M 632.390625 338.20864 
L 660.110625 338.20864 
" clip-path="url(#p00a5d08570)" style="fill: none; stroke: #26828e; stroke-width: 1.5"/>
    <path d="M 632.390625 321.902757 
L 660.110625 321.902757 
" clip-path="url(#p00a5d08570)" style="fill: none; stroke: #23898e; stroke-width: 1.5"/>
    <path d="M 632.390625 305.596875 
L 660.110625 305.596875 
" clip-path="url(#p00a5d08570)" style="fill: none; stroke: #21918c; stroke-width: 1.5"/>
    <path d="M 632.390625 289.290993 
L 660.110625 289.290993 
" clip-path="url(#p00a5d08570)" style="fill: none; stroke: #1f978b; stroke-width: 1.5"/>
    <path d="M 632.390625 272.98511 
L 660.110625 272.98511 
" clip-path="url(#p00a5d08570)" style="fill: none; stroke: #1f9f88; stroke-width: 1.5"/>
    <path d="M 632.390625 256.679228 
L 660.110625 256.679228 
" clip-path="url(#p00a5d08570)" style="fill: none; stroke: #21a585; stroke-width: 1.5"/>
    <path d="M 632.390625 240.373346 
L 660.110625 240.373346 
" clip-path="url(#p00a5d08570)" style="fill: none; stroke: #26ad81; stroke-width: 1.5"/>
    <path d="M 632.390625 224.067463 
L 660.110625 224.067463 
" clip-path="url(#p00a5d08570)" style="fill: none; stroke: #2eb37c; stroke-width: 1.5"/>
    <path d="M 632.390625 207.761581 
L 660.110625 207.761581 
" clip-path="url(#p00a5d08570)" style="fill: none; stroke: #3aba76; stroke-width: 1.5"/>
    <path d="M 632.390625 191.455699 
L 660.110625 191.455699 
" clip-path="url(#p00a5d08570)" style="fill: none; stroke: #46c06f; stroke-width: 1.5"/>
    <path d="M 632.390625 175.149816 
L 660.110625 175.149816 
" clip-path="url(#p00a5d08570)" style="fill: none; stroke: #56c667; stroke-width: 1.5"/>
    <path d="M 632.390625 158.843934 
L 660.110625 158.843934 
" clip-path="url(#p00a5d08570)" style="fill: none; stroke: #65cb5e; stroke-width: 1.5"/>
    <path d="M 632.390625 142.538051 
L 660.110625 142.538051 
" clip-path="url(#p00a5d08570)" style="fill: none; stroke: #77d153; stroke-width: 1.5"/>
    <path d="M 632.390625 126.232169 
L 660.110625 126.232169 
" clip-path="url(#p00a5d08570)" style="fill: none; stroke: #89d548; stroke-width: 1.5"/>
    <path d="M 632.390625 109.926287 
L 660.110625 109.926287 
" clip-path="url(#p00a5d08570)" style="fill: none; stroke: #9dd93b; stroke-width: 1.5"/>
    <path d="M 632.390625 93.620404 
L 660.110625 93.620404 
" clip-path="url(#p00a5d08570)" style="fill: none; stroke: #b0dd2f; stroke-width: 1.5"/>
    <path d="M 632.390625 77.314522 
L 660.110625 77.314522 
" clip-path="url(#p00a5d08570)" style="fill: none; stroke: #c5e021; stroke-width: 1.5"/>
    <path d="M 632.390625 61.00864 
L 660.110625 61.00864 
" clip-path="url(#p00a5d08570)" style="fill: none; stroke: #d8e219; stroke-width: 1.5"/>
    <path d="M 632.390625 44.702757 
L 660.110625 44.702757 
" clip-path="url(#p00a5d08570)" style="fill: none; stroke: #ece51b; stroke-width: 1.5"/>
    <path d="M 632.390625 28.396875 
L 660.110625 28.396875 
" clip-path="url(#p00a5d08570)" style="fill: none; stroke: #fde725; stroke-width: 1.5"/>
   </g>
   <g id="patch_10">
    <path d="M 632.390625 582.796875 
L 646.250625 582.796875 
L 660.110625 582.796875 
L 660.110625 28.396875 
L 646.250625 28.396875 
L 632.390625 28.396875 
L 632.390625 582.796875 
z
" style="fill: none; stroke: #000000; stroke-width: 0.8; stroke-linejoin: miter; stroke-linecap: square"/>
   </g>
  </g>
 </g>
 <defs>
  <clipPath id="p5b7e7d5493">
   <rect x="63.230625" y="28.396875" width="535.68" height="554.4"/>
  </clipPath>
  <clipPath id="p19b511922b">
   <rect x="632.390625" y="28.396875" width="27.72" height="554.4"/>
  </clipPath>
  <clipPath id="p00a5d08570">
   <path d="M 632.390625 584.296875 
L 660.110625 584.296875 
L 660.110625 26.896875 
L 632.390625 26.896875 
z
"/>
  </clipPath>
 </defs>
</svg>
