<?xml version="1.0" encoding="utf-8" standalone="no"?>
<!DOCTYPE svg PUBLIC "-//W3C//DTD SVG 1.1//EN"
  "http://www.w3.org/Graphics/SVG/1.1/DTD/svg11.dtd">
<svg xmlns:xlink="http://www.w3.org/1999/xlink" width="704.84875pt" height="622.66pt" viewBox="0 0 704.84875 622.66" xmlns="http://www.w3.org/2000/svg" version="1.1">
 <metadata>
  <rdf:RDF xmlns:dc="http://purl.org/dc/elements/1.1/" xmlns:cc="http://creativecommons.org/ns#" xmlns:rdf="http://www.w3.org/1999/02/22-rdf-syntax-ns#">
   <cc:Work>
    <dc:type rdf:resource="http://purl.org/dc/dcmitype/StillImage"/>
    <dc:date>2025-02-12T09:45:38.711392</dc:date>
    <dc:format>image/svg+xml</dc:format>
    <dc:creator>
     <cc:Agent>
      <dc:title>Matplotlib v3.6.2, https://matplotlib.org/</dc:title>
     </cc:Agent>
    </dc:creator>
   </cc:Work>
  </rdf:RDF>
 </metadata>
 <defs>
  <style type="text/css">*{stroke-linejoin: round; stroke-linecap: butt}</style>
 </defs>
 <g id="figure_1">
  <g id="patch_1">
   <path d="M 0 622.66 
L 704.84875 622.66 
L 704.84875 0 
L 0 0 
z
" style="fill: #ffffff"/>
  </g>
  <g id="axes_1">
   <g id="patch_2">
    <path d="M 63.230625 582.796875 
L 598.910625 582.796875 
L 598.910625 28.396875 
L 63.230625 28.396875 
z
" style="fill: #ffffff"/>
   </g>
   <g id="matplotlib.axis_1">
    <g id="xtick_1">
     <g id="line2d_1">
      <defs>
       <path id="mce98b13089" d="M 0 0 
L 0 -3.5 
" style="stroke: #000000; stroke-width: 0.8"/>
      </defs>
      <g>
       <use xlink:href="#mce98b13089" x="63.230625" y="582.796875" style="stroke: #000000; stroke-width: 0.8"/>
      </g>
     </g>
     <g id="line2d_2">
      <defs>
       <path id="m8f1345faa1" d="M 0 0 
L 0 3.5 
" style="stroke: #000000; stroke-width: 0.8"/>
      </defs>
      <g>
       <use xlink:href="#m8f1345faa1" x="63.230625" y="28.396875" style="stroke: #000000; stroke-width: 0.8"/>
      </g>
     </g>
     <g id="text_1">
      <!-- −1.5 -->
      <g transform="translate(43.804375 598.454375) scale(0.16 -0.16)">
       <defs>
        <path id="DejaVuSans-2212" d="M 678 2272 
L 4684 2272 
L 4684 1741 
L 678 1741 
L 678 2272 
z
" transform="scale(0.015625)"/>
        <path id="DejaVuSans-31" d="M 794 531 
L 1825 531 
L 1825 4091 
L 703 3866 
L 703 4441 
L 1819 4666 
L 2450 4666 
L 2450 531 
L 3481 531 
L 3481 0 
L 794 0 
L 794 531 
z
" transform="scale(0.015625)"/>
        <path id="DejaVuSans-2e" d="M 684 794 
L 1344 794 
L 1344 0 
L 684 0 
L 684 794 
z
" transform="scale(0.015625)"/>
        <path id="DejaVuSans-35" d="M 691 4666 
L 3169 4666 
L 3169 4134 
L 1269 4134 
L 1269 2991 
Q 1406 3038 1543 3061 
Q 1681 3084 1819 3084 
Q 2600 3084 3056 2656 
Q 3513 2228 3513 1497 
Q 3513 744 3044 326 
Q 2575 -91 1722 -91 
Q 1428 -91 1123 -41 
Q 819 9 494 109 
L 494 744 
Q 775 591 1075 516 
Q 1375 441 1709 441 
Q 2250 441 2565 725 
Q 2881 1009 2881 1497 
Q 2881 1984 2565 2268 
Q 2250 2553 1709 2553 
Q 1456 2553 1204 2497 
Q 953 2441 691 2322 
L 691 4666 
z
" transform="scale(0.015625)"/>
       </defs>
       <use xlink:href="#DejaVuSans-2212"/>
       <use xlink:href="#DejaVuSans-31" x="83.789062"/>
       <use xlink:href="#DejaVuSans-2e" x="147.412109"/>
       <use xlink:href="#DejaVuSans-35" x="179.199219"/>
      </g>
     </g>
    </g>
    <g id="xtick_2">
     <g id="line2d_3">
      <g>
       <use xlink:href="#mce98b13089" x="152.510625" y="582.796875" style="stroke: #000000; stroke-width: 0.8"/>
      </g>
     </g>
     <g id="line2d_4">
      <g>
       <use xlink:href="#m8f1345faa1" x="152.510625" y="28.396875" style="stroke: #000000; stroke-width: 0.8"/>
      </g>
     </g>
     <g id="text_2">
      <!-- −1.0 -->
      <g transform="translate(133.084375 598.454375) scale(0.16 -0.16)">
       <defs>
        <path id="DejaVuSans-30" d="M 2034 4250 
Q 1547 4250 1301 3770 
Q 1056 3291 1056 2328 
Q 1056 1369 1301 889 
Q 1547 409 2034 409 
Q 2525 409 2770 889 
Q 3016 1369 3016 2328 
Q 3016 3291 2770 3770 
Q 2525 4250 2034 4250 
z
M 2034 4750 
Q 2819 4750 3233 4129 
Q 3647 3509 3647 2328 
Q 3647 1150 3233 529 
Q 2819 -91 2034 -91 
Q 1250 -91 836 529 
Q 422 1150 422 2328 
Q 422 3509 836 4129 
Q 1250 4750 2034 4750 
z
" transform="scale(0.015625)"/>
       </defs>
       <use xlink:href="#DejaVuSans-2212"/>
       <use xlink:href="#DejaVuSans-31" x="83.789062"/>
       <use xlink:href="#DejaVuSans-2e" x="147.412109"/>
       <use xlink:href="#DejaVuSans-30" x="179.199219"/>
      </g>
     </g>
    </g>
    <g id="xtick_3">
     <g id="line2d_5">
      <g>
       <use xlink:href="#mce98b13089" x="241.790625" y="582.796875" style="stroke: #000000; stroke-width: 0.8"/>
      </g>
     </g>
     <g id="line2d_6">
      <g>
       <use xlink:href="#m8f1345faa1" x="241.790625" y="28.396875" style="stroke: #000000; stroke-width: 0.8"/>
      </g>
     </g>
     <g id="text_3">
      <!-- −0.5 -->
      <g transform="translate(222.364375 598.454375) scale(0.16 -0.16)">
       <use xlink:href="#DejaVuSans-2212"/>
       <use xlink:href="#DejaVuSans-30" x="83.789062"/>
       <use xlink:href="#DejaVuSans-2e" x="147.412109"/>
       <use xlink:href="#DejaVuSans-35" x="179.199219"/>
      </g>
     </g>
    </g>
    <g id="xtick_4">
     <g id="line2d_7">
      <g>
       <use xlink:href="#mce98b13089" x="331.070625" y="582.796875" style="stroke: #000000; stroke-width: 0.8"/>
      </g>
     </g>
     <g id="line2d_8">
      <g>
       <use xlink:href="#m8f1345faa1" x="331.070625" y="28.396875" style="stroke: #000000; stroke-width: 0.8"/>
      </g>
     </g>
     <g id="text_4">
      <!-- 0.0 -->
      <g transform="translate(318.348125 598.454375) scale(0.16 -0.16)">
       <use xlink:href="#DejaVuSans-30"/>
       <use xlink:href="#DejaVuSans-2e" x="63.623047"/>
       <use xlink:href="#DejaVuSans-30" x="95.410156"/>
      </g>
     </g>
    </g>
    <g id="xtick_5">
     <g id="line2d_9">
      <g>
       <use xlink:href="#mce98b13089" x="420.350625" y="582.796875" style="stroke: #000000; stroke-width: 0.8"/>
      </g>
     </g>
     <g id="line2d_10">
      <g>
       <use xlink:href="#m8f1345faa1" x="420.350625" y="28.396875" style="stroke: #000000; stroke-width: 0.8"/>
      </g>
     </g>
     <g id="text_5">
      <!-- 0.5 -->
      <g transform="translate(407.628125 598.454375) scale(0.16 -0.16)">
       <use xlink:href="#DejaVuSans-30"/>
       <use xlink:href="#DejaVuSans-2e" x="63.623047"/>
       <use xlink:href="#DejaVuSans-35" x="95.410156"/>
      </g>
     </g>
    </g>
    <g id="xtick_6">
     <g id="line2d_11">
      <g>
       <use xlink:href="#mce98b13089" x="509.630625" y="582.796875" style="stroke: #000000; stroke-width: 0.8"/>
      </g>
     </g>
     <g id="line2d_12">
      <g>
       <use xlink:href="#m8f1345faa1" x="509.630625" y="28.396875" style="stroke: #000000; stroke-width: 0.8"/>
      </g>
     </g>
     <g id="text_6">
      <!-- 1.0 -->
      <g transform="translate(496.908125 598.454375) scale(0.16 -0.16)">
       <use xlink:href="#DejaVuSans-31"/>
       <use xlink:href="#DejaVuSans-2e" x="63.623047"/>
       <use xlink:href="#DejaVuSans-30" x="95.410156"/>
      </g>
     </g>
    </g>
    <g id="xtick_7">
     <g id="line2d_13">
      <g>
       <use xlink:href="#mce98b13089" x="598.910625" y="582.796875" style="stroke: #000000; stroke-width: 0.8"/>
      </g>
     </g>
     <g id="line2d_14">
      <g>
       <use xlink:href="#m8f1345faa1" x="598.910625" y="28.396875" style="stroke: #000000; stroke-width: 0.8"/>
      </g>
     </g>
     <g id="text_7">
      <!-- 1.5 -->
      <g transform="translate(586.188125 598.454375) scale(0.16 -0.16)">
       <use xlink:href="#DejaVuSans-31"/>
       <use xlink:href="#DejaVuSans-2e" x="63.623047"/>
       <use xlink:href="#DejaVuSans-35" x="95.410156"/>
      </g>
     </g>
    </g>
    <g id="text_8">
     <!-- Direction 1 -->
     <g transform="translate(303.715156 613.380313) scale(0.1 -0.1)">
      <defs>
       <path id="DejaVuSans-44" d="M 1259 4147 
L 1259 519 
L 2022 519 
Q 2988 519 3436 956 
Q 3884 1394 3884 2338 
Q 3884 3275 3436 3711 
Q 2988 4147 2022 4147 
L 1259 4147 
z
M 628 4666 
L 1925 4666 
Q 3281 4666 3915 4102 
Q 4550 3538 4550 2338 
Q 4550 1131 3912 565 
Q 3275 0 1925 0 
L 628 0 
L 628 4666 
z
" transform="scale(0.015625)"/>
       <path id="DejaVuSans-69" d="M 603 3500 
L 1178 3500 
L 1178 0 
L 603 0 
L 603 3500 
z
M 603 4863 
L 1178 4863 
L 1178 4134 
L 603 4134 
L 603 4863 
z
" transform="scale(0.015625)"/>
       <path id="DejaVuSans-72" d="M 2631 2963 
Q 2534 3019 2420 3045 
Q 2306 3072 2169 3072 
Q 1681 3072 1420 2755 
Q 1159 2438 1159 1844 
L 1159 0 
L 581 0 
L 581 3500 
L 1159 3500 
L 1159 2956 
Q 1341 3275 1631 3429 
Q 1922 3584 2338 3584 
Q 2397 3584 2469 3576 
Q 2541 3569 2628 3553 
L 2631 2963 
z
" transform="scale(0.015625)"/>
       <path id="DejaVuSans-65" d="M 3597 1894 
L 3597 1613 
L 953 1613 
Q 991 1019 1311 708 
Q 1631 397 2203 397 
Q 2534 397 2845 478 
Q 3156 559 3463 722 
L 3463 178 
Q 3153 47 2828 -22 
Q 2503 -91 2169 -91 
Q 1331 -91 842 396 
Q 353 884 353 1716 
Q 353 2575 817 3079 
Q 1281 3584 2069 3584 
Q 2775 3584 3186 3129 
Q 3597 2675 3597 1894 
z
M 3022 2063 
Q 3016 2534 2758 2815 
Q 2500 3097 2075 3097 
Q 1594 3097 1305 2825 
Q 1016 2553 972 2059 
L 3022 2063 
z
" transform="scale(0.015625)"/>
       <path id="DejaVuSans-63" d="M 3122 3366 
L 3122 2828 
Q 2878 2963 2633 3030 
Q 2388 3097 2138 3097 
Q 1578 3097 1268 2742 
Q 959 2388 959 1747 
Q 959 1106 1268 751 
Q 1578 397 2138 397 
Q 2388 397 2633 464 
Q 2878 531 3122 666 
L 3122 134 
Q 2881 22 2623 -34 
Q 2366 -91 2075 -91 
Q 1284 -91 818 406 
Q 353 903 353 1747 
Q 353 2603 823 3093 
Q 1294 3584 2113 3584 
Q 2378 3584 2631 3529 
Q 2884 3475 3122 3366 
z
" transform="scale(0.015625)"/>
       <path id="DejaVuSans-74" d="M 1172 4494 
L 1172 3500 
L 2356 3500 
L 2356 3053 
L 1172 3053 
L 1172 1153 
Q 1172 725 1289 603 
Q 1406 481 1766 481 
L 2356 481 
L 2356 0 
L 1766 0 
Q 1100 0 847 248 
Q 594 497 594 1153 
L 594 3053 
L 172 3053 
L 172 3500 
L 594 3500 
L 594 4494 
L 1172 4494 
z
" transform="scale(0.015625)"/>
       <path id="DejaVuSans-6f" d="M 1959 3097 
Q 1497 3097 1228 2736 
Q 959 2375 959 1747 
Q 959 1119 1226 758 
Q 1494 397 1959 397 
Q 2419 397 2687 759 
Q 2956 1122 2956 1747 
Q 2956 2369 2687 2733 
Q 2419 3097 1959 3097 
z
M 1959 3584 
Q 2709 3584 3137 3096 
Q 3566 2609 3566 1747 
Q 3566 888 3137 398 
Q 2709 -91 1959 -91 
Q 1206 -91 779 398 
Q 353 888 353 1747 
Q 353 2609 779 3096 
Q 1206 3584 1959 3584 
z
" transform="scale(0.015625)"/>
       <path id="DejaVuSans-6e" d="M 3513 2113 
L 3513 0 
L 2938 0 
L 2938 2094 
Q 2938 2591 2744 2837 
Q 2550 3084 2163 3084 
Q 1697 3084 1428 2787 
Q 1159 2491 1159 1978 
L 1159 0 
L 581 0 
L 581 3500 
L 1159 3500 
L 1159 2956 
Q 1366 3272 1645 3428 
Q 1925 3584 2291 3584 
Q 2894 3584 3203 3211 
Q 3513 2838 3513 2113 
z
" transform="scale(0.015625)"/>
       <path id="DejaVuSans-20" transform="scale(0.015625)"/>
      </defs>
      <use xlink:href="#DejaVuSans-44"/>
      <use xlink:href="#DejaVuSans-69" x="77.001953"/>
      <use xlink:href="#DejaVuSans-72" x="104.785156"/>
      <use xlink:href="#DejaVuSans-65" x="143.648438"/>
      <use xlink:href="#DejaVuSans-63" x="205.171875"/>
      <use xlink:href="#DejaVuSans-74" x="260.152344"/>
      <use xlink:href="#DejaVuSans-69" x="299.361328"/>
      <use xlink:href="#DejaVuSans-6f" x="327.144531"/>
      <use xlink:href="#DejaVuSans-6e" x="388.326172"/>
      <use xlink:href="#DejaVuSans-20" x="451.705078"/>
      <use xlink:href="#DejaVuSans-31" x="483.492188"/>
     </g>
    </g>
   </g>
   <g id="matplotlib.axis_2">
    <g id="ytick_1">
     <g id="line2d_15">
      <defs>
       <path id="m614c329127" d="M 0 0 
L 3.5 0 
" style="stroke: #000000; stroke-width: 0.8"/>
      </defs>
      <g>
       <use xlink:href="#m614c329127" x="63.230625" y="582.796875" style="stroke: #000000; stroke-width: 0.8"/>
      </g>
     </g>
     <g id="line2d_16">
      <defs>
       <path id="ma145a2a15a" d="M 0 0 
L -3.5 0 
" style="stroke: #000000; stroke-width: 0.8"/>
      </defs>
      <g>
       <use xlink:href="#ma145a2a15a" x="598.910625" y="582.796875" style="stroke: #000000; stroke-width: 0.8"/>
      </g>
     </g>
     <g id="text_9">
      <!-- −1.5 -->
      <g transform="translate(20.878125 588.875625) scale(0.16 -0.16)">
       <use xlink:href="#DejaVuSans-2212"/>
       <use xlink:href="#DejaVuSans-31" x="83.789062"/>
       <use xlink:href="#DejaVuSans-2e" x="147.412109"/>
       <use xlink:href="#DejaVuSans-35" x="179.199219"/>
      </g>
     </g>
    </g>
    <g id="ytick_2">
     <g id="line2d_17">
      <g>
       <use xlink:href="#m614c329127" x="63.230625" y="490.396875" style="stroke: #000000; stroke-width: 0.8"/>
      </g>
     </g>
     <g id="line2d_18">
      <g>
       <use xlink:href="#ma145a2a15a" x="598.910625" y="490.396875" style="stroke: #000000; stroke-width: 0.8"/>
      </g>
     </g>
     <g id="text_10">
      <!-- −1.0 -->
      <g transform="translate(20.878125 496.475625) scale(0.16 -0.16)">
       <use xlink:href="#DejaVuSans-2212"/>
       <use xlink:href="#DejaVuSans-31" x="83.789062"/>
       <use xlink:href="#DejaVuSans-2e" x="147.412109"/>
       <use xlink:href="#DejaVuSans-30" x="179.199219"/>
      </g>
     </g>
    </g>
    <g id="ytick_3">
     <g id="line2d_19">
      <g>
       <use xlink:href="#m614c329127" x="63.230625" y="397.996875" style="stroke: #000000; stroke-width: 0.8"/>
      </g>
     </g>
     <g id="line2d_20">
      <g>
       <use xlink:href="#ma145a2a15a" x="598.910625" y="397.996875" style="stroke: #000000; stroke-width: 0.8"/>
      </g>
     </g>
     <g id="text_11">
      <!-- −0.5 -->
      <g transform="translate(20.878125 404.075625) scale(0.16 -0.16)">
       <use xlink:href="#DejaVuSans-2212"/>
       <use xlink:href="#DejaVuSans-30" x="83.789062"/>
       <use xlink:href="#DejaVuSans-2e" x="147.412109"/>
       <use xlink:href="#DejaVuSans-35" x="179.199219"/>
      </g>
     </g>
    </g>
    <g id="ytick_4">
     <g id="line2d_21">
      <g>
       <use xlink:href="#m614c329127" x="63.230625" y="305.596875" style="stroke: #000000; stroke-width: 0.8"/>
      </g>
     </g>
     <g id="line2d_22">
      <g>
       <use xlink:href="#ma145a2a15a" x="598.910625" y="305.596875" style="stroke: #000000; stroke-width: 0.8"/>
      </g>
     </g>
     <g id="text_12">
      <!-- 0.0 -->
      <g transform="translate(34.285625 311.675625) scale(0.16 -0.16)">
       <use xlink:href="#DejaVuSans-30"/>
       <use xlink:href="#DejaVuSans-2e" x="63.623047"/>
       <use xlink:href="#DejaVuSans-30" x="95.410156"/>
      </g>
     </g>
    </g>
    <g id="ytick_5">
     <g id="line2d_23">
      <g>
       <use xlink:href="#m614c329127" x="63.230625" y="213.196875" style="stroke: #000000; stroke-width: 0.8"/>
      </g>
     </g>
     <g id="line2d_24">
      <g>
       <use xlink:href="#ma145a2a15a" x="598.910625" y="213.196875" style="stroke: #000000; stroke-width: 0.8"/>
      </g>
     </g>
     <g id="text_13">
      <!-- 0.5 -->
      <g transform="translate(34.285625 219.275625) scale(0.16 -0.16)">
       <use xlink:href="#DejaVuSans-30"/>
       <use xlink:href="#DejaVuSans-2e" x="63.623047"/>
       <use xlink:href="#DejaVuSans-35" x="95.410156"/>
      </g>
     </g>
    </g>
    <g id="ytick_6">
     <g id="line2d_25">
      <g>
       <use xlink:href="#m614c329127" x="63.230625" y="120.796875" style="stroke: #000000; stroke-width: 0.8"/>
      </g>
     </g>
     <g id="line2d_26">
      <g>
       <use xlink:href="#ma145a2a15a" x="598.910625" y="120.796875" style="stroke: #000000; stroke-width: 0.8"/>
      </g>
     </g>
     <g id="text_14">
      <!-- 1.0 -->
      <g transform="translate(34.285625 126.875625) scale(0.16 -0.16)">
       <use xlink:href="#DejaVuSans-31"/>
       <use xlink:href="#DejaVuSans-2e" x="63.623047"/>
       <use xlink:href="#DejaVuSans-30" x="95.410156"/>
      </g>
     </g>
    </g>
    <g id="ytick_7">
     <g id="line2d_27">
      <g>
       <use xlink:href="#m614c329127" x="63.230625" y="28.396875" style="stroke: #000000; stroke-width: 0.8"/>
      </g>
     </g>
     <g id="line2d_28">
      <g>
       <use xlink:href="#ma145a2a15a" x="598.910625" y="28.396875" style="stroke: #000000; stroke-width: 0.8"/>
      </g>
     </g>
     <g id="text_15">
      <!-- 1.5 -->
      <g transform="translate(34.285625 34.475625) scale(0.16 -0.16)">
       <use xlink:href="#DejaVuSans-31"/>
       <use xlink:href="#DejaVuSans-2e" x="63.623047"/>
       <use xlink:href="#DejaVuSans-35" x="95.410156"/>
      </g>
     </g>
    </g>
    <g id="text_16">
     <!-- Direction 2 -->
     <g transform="translate(14.798437 332.952344) rotate(-90) scale(0.1 -0.1)">
      <defs>
       <path id="DejaVuSans-32" d="M 1228 531 
L 3431 531 
L 3431 0 
L 469 0 
L 469 531 
Q 828 903 1448 1529 
Q 2069 2156 2228 2338 
Q 2531 2678 2651 2914 
Q 2772 3150 2772 3378 
Q 2772 3750 2511 3984 
Q 2250 4219 1831 4219 
Q 1534 4219 1204 4116 
Q 875 4013 500 3803 
L 500 4441 
Q 881 4594 1212 4672 
Q 1544 4750 1819 4750 
Q 2544 4750 2975 4387 
Q 3406 4025 3406 3419 
Q 3406 3131 3298 2873 
Q 3191 2616 2906 2266 
Q 2828 2175 2409 1742 
Q 1991 1309 1228 531 
z
" transform="scale(0.015625)"/>
      </defs>
      <use xlink:href="#DejaVuSans-44"/>
      <use xlink:href="#DejaVuSans-69" x="77.001953"/>
      <use xlink:href="#DejaVuSans-72" x="104.785156"/>
      <use xlink:href="#DejaVuSans-65" x="143.648438"/>
      <use xlink:href="#DejaVuSans-63" x="205.171875"/>
      <use xlink:href="#DejaVuSans-74" x="260.152344"/>
      <use xlink:href="#DejaVuSans-69" x="299.361328"/>
      <use xlink:href="#DejaVuSans-6f" x="327.144531"/>
      <use xlink:href="#DejaVuSans-6e" x="388.326172"/>
      <use xlink:href="#DejaVuSans-20" x="451.705078"/>
      <use xlink:href="#DejaVuSans-32" x="483.492188"/>
     </g>
    </g>
   </g>
   <g id="PathCollection_1"/>
   <g id="PathCollection_2">
    <path d="M 63.230625 510.364093 
L 74.162865 510.610177 
L 80.918454 503.596869 
L 85.095104 498.7136 
L 96.027365 499.304024 
L 102.792052 492.282588 
L 106.959605 487.401376 
L 117.891845 487.904572 
L 128.824106 487.95277 
L 133.382383 492.282588 
L 133.541934 503.596869 
L 128.824106 507.931999 
L 122.05928 514.911149 
L 122.04017 526.225451 
L 128.824106 533.251096 
L 133.060312 537.539732 
L 139.756345 544.492072 
L 150.688585 544.210616 
L 161.620825 544.285763 
L 172.553075 544.717064 
L 179.477639 537.539732 
L 183.485325 533.090859 
L 190.110401 526.225451 
L 194.417565 521.497753 
L 200.783932 514.911149 
L 205.349805 509.985005 
L 211.523121 503.596869 
L 216.282055 498.629927 
L 222.421679 492.282588 
L 227.214305 487.478004 
L 233.517096 480.968308 
L 238.146545 476.327773 
L 244.599907 469.654017 
L 249.07879 465.095862 
L 255.595309 458.339725 
L 260.011035 453.531002 
L 270.94328 453.907628 
L 277.584579 447.025445 
L 281.875525 441.896878 
L 292.80777 442.569923 
L 299.377021 435.711165 
L 303.740015 430.652809 
L 314.67226 430.669163 
L 325.604505 431.415444 
L 332.407665 424.396873 
L 336.536745 419.740922 
L 342.926109 413.082582 
L 347.46899 407.969803 
L 353.644641 401.768302 
L 358.401235 397.859248 
L 365.812041 390.454016 
L 364.324258 379.13973 
L 369.33348 375.220193 
L 377.070214 367.825444 
L 376.91412 356.511158 
L 377.805769 345.196873 
L 369.33348 337.089353 
L 364.856117 333.882587 
L 365.521398 322.568301 
L 366.214992 311.254015 
L 367.666042 299.939735 
L 358.401235 291.140997 
L 354.594594 288.625449 
L 356.776488 277.311163 
L 347.46899 268.251326 
L 345.150704 265.996877 
L 336.536745 257.685476 
L 332.930105 254.682592 
L 334.424624 243.368306 
L 325.604505 235.019619 
L 314.67226 235.835359 
L 303.740015 236.92463 
L 299.872705 232.05402 
L 292.80777 224.902877 
L 288.612659 220.739734 
L 281.875525 213.923477 
L 278.138748 209.425448 
L 270.94328 201.939709 
L 260.011035 202.656442 
L 256.248464 198.111168 
L 249.07879 190.657606 
L 238.146545 191.594462 
L 234.222799 186.796877 
L 227.214305 179.469621 
L 216.282055 180.185793 
L 212.380924 175.482585 
L 205.349805 168.156596 
L 194.417565 169.02461 
L 190.474939 164.168305 
L 183.485325 156.888709 
L 172.553075 157.510984 
L 161.620825 158.032105 
L 157.377183 152.854025 
L 150.688585 145.873327 
L 139.756345 146.214544 
L 128.824106 146.620586 
L 124.834952 141.539733 
L 117.891845 134.280929 
L 106.959605 134.604703 
L 96.027365 134.89465 
L 85.095104 135.030393 
L 74.162865 135.127116 
L 70.17267 130.225442 
L 63.230625 122.974705 
" clip-path="url(#pf501ed4331)" style="fill: none; stroke: #460b5e; stroke-width: 1.5"/>
    <path d="M 63.230625 216.263618 
L 67.483504 220.739734 
L 74.162865 227.654004 
L 78.410589 232.05402 
L 85.095104 238.984848 
L 89.249848 243.368306 
L 96.027365 250.412655 
L 106.959605 250.114262 
L 111.07443 254.682592 
L 117.891845 261.744472 
L 121.965054 265.996877 
L 128.824106 273.091661 
L 133.092272 277.311163 
L 132.895541 288.625449 
L 139.756345 295.695808 
L 143.960086 299.939735 
L 144.046044 311.254015 
L 143.937304 322.568301 
L 139.756345 327.022326 
L 128.824106 326.689184 
L 121.897441 333.882587 
L 117.891845 338.6034 
L 106.959605 338.202652 
L 100.232813 345.196873 
L 96.027365 350.352911 
L 85.095104 349.847047 
L 74.162865 349.463945 
L 67.391125 356.511158 
L 63.230625 361.570329 
" clip-path="url(#pf501ed4331)" style="fill: none; stroke: #460b5e; stroke-width: 1.5"/>
    <path d="M 213.141164 28.396875 
L 216.282055 32.108338 
L 222.548956 39.711155 
L 227.214305 45.065911 
L 231.800469 51.025436 
L 238.146545 59.052415 
L 240.536839 62.339738 
L 249.07879 73.48987 
L 249.183961 73.654018 
L 256.377573 84.968299 
L 260.011035 90.511189 
L 263.448346 96.282601 
L 270.126181 107.596881 
L 270.94328 108.925389 
L 275.663112 118.911162 
L 281.17576 130.225442 
L 281.875525 131.585405 
L 286.557109 141.539733 
L 292.072144 152.854025 
L 292.80777 154.462558 
L 298.289971 164.168305 
L 303.740015 172.214698 
L 307.068202 175.482585 
L 314.67226 183.056519 
L 319.414205 186.796877 
L 325.604505 190.614256 
L 331.464675 198.111168 
L 336.536745 204.474506 
L 338.857551 209.425448 
L 342.135619 220.739734 
L 344.295807 232.05402 
L 347.271077 243.368306 
L 347.46899 243.721945 
L 358.401235 254.488095 
L 358.559767 254.682592 
L 363.944923 265.996877 
L 368.108622 277.311163 
L 369.33348 279.738366 
L 374.238316 288.625449 
L 380.265725 298.093938 
L 381.665383 299.939735 
L 388.041775 311.254015 
L 391.19797 321.192477 
L 391.780121 322.568301 
L 397.076753 333.882587 
L 399.968295 345.196873 
L 402.130215 350.543819 
L 404.650987 356.511158 
L 409.271506 367.825444 
L 413.06246 377.9787 
L 413.51972 379.13973 
L 416.108318 390.454016 
L 416.316789 401.768302 
L 420.043985 413.082582 
L 423.994705 420.813182 
L 425.558624 424.396873 
L 429.920532 435.711165 
L 433.007795 447.025445 
L 434.926945 455.647001 
L 435.466706 458.339725 
L 437.014752 469.654017 
L 438.38387 480.968308 
L 438.831132 492.282588 
L 438.430886 503.596869 
L 436.893334 514.911149 
L 435.372203 526.225451 
L 434.926945 528.128395 
L 431.432758 537.539732 
L 426.1006 548.854012 
L 423.994705 552.679389 
L 418.169957 560.168314 
L 413.06246 566.144798 
L 408.310951 571.482595 
L 402.130215 578.44039 
L 395.701249 582.796875 
" clip-path="url(#pf501ed4331)" style="fill: none; stroke: #460b5e; stroke-width: 1.5"/>
   </g>
   <g id="PathCollection_3">
    <path d="M 63.230625 505.184441 
L 74.162865 505.675807 
L 76.165408 503.596869 
L 85.095104 493.15642 
L 96.027365 494.39958 
L 98.066947 492.282588 
L 96.027365 482.622233 
L 85.095104 485.865268 
L 74.162865 485.899996 
L 64.427171 480.968308 
L 63.230625 480.391427 
" clip-path="url(#pf501ed4331)" style="fill: none; stroke: #481769; stroke-width: 1.5"/>
    <path d="M 63.230625 373.20731 
L 69.28778 367.825444 
L 63.230625 367.397919 
" clip-path="url(#pf501ed4331)" style="fill: none; stroke: #481769; stroke-width: 1.5"/>
    <path d="M 63.230625 211.067224 
L 72.420739 220.739734 
L 74.162865 222.54313 
L 83.344567 232.05402 
L 85.095104 233.869062 
L 94.098709 243.368306 
L 96.027365 245.372893 
L 106.959605 244.755978 
L 115.900789 254.682592 
L 117.891845 256.745045 
L 126.753807 265.996877 
L 128.824106 268.138328 
L 138.102733 277.311163 
L 137.682794 288.625449 
L 139.756345 290.762334 
L 148.846843 299.939735 
L 149.029228 311.254015 
L 148.768646 322.568301 
L 139.756345 332.169214 
L 128.824106 331.494887 
L 126.524944 333.882587 
L 117.891845 344.057165 
L 106.959605 343.233374 
L 105.071182 345.196873 
L 106.959605 353.821506 
L 117.891845 350.087326 
L 128.824106 346.468634 
L 132.671102 345.196873 
L 139.756345 342.750149 
L 150.688585 339.603474 
L 161.620825 338.221571 
L 172.553075 336.608207 
L 183.485325 334.791741 
L 190.414545 333.882587 
L 194.417565 333.293425 
L 205.349805 329.553008 
L 216.282055 325.410202 
L 222.416148 322.568301 
L 227.214305 318.713317 
L 235.455017 311.254015 
L 227.214305 300.03828 
L 227.035984 299.939735 
L 216.282055 294.519761 
L 205.349805 290.471951 
L 203.551541 288.625449 
L 194.417565 283.590225 
L 183.485325 282.269019 
L 172.553075 280.117928 
L 161.620825 277.422212 
L 161.426637 277.311163 
L 155.06839 265.996877 
L 150.688585 260.952291 
L 143.220162 254.682592 
L 139.756345 251.848763 
L 128.98739 243.368306 
L 128.824106 243.277299 
L 117.891845 236.576485 
L 110.836121 232.05402 
L 106.959605 229.478081 
L 96.583292 220.739734 
L 96.027365 220.083141 
L 85.095104 210.910563 
L 83.063171 209.425448 
L 74.162865 201.591063 
L 70.971954 198.111168 
L 63.230625 192.290952 
" clip-path="url(#pf501ed4331)" style="fill: none; stroke: #481769; stroke-width: 1.5"/>
    <path d="M 63.230625 143.839392 
L 74.162865 145.193698 
L 85.095104 146.357743 
L 96.027365 147.469105 
L 106.959605 149.154093 
L 117.891845 151.103747 
L 120.009003 141.539733 
L 117.891845 139.326309 
L 106.959605 140.00432 
L 96.027365 140.579177 
L 85.095104 140.804206 
L 74.162865 140.969737 
L 65.4165 130.225442 
L 63.230625 127.942368 
" clip-path="url(#pf501ed4331)" style="fill: none; stroke: #481769; stroke-width: 1.5"/>
    <path d="M 290.453031 28.396875 
L 292.80777 32.862524 
L 296.669382 39.711155 
L 302.85365 51.025436 
L 303.740015 52.747688 
L 309.101999 62.339738 
L 314.67226 71.84403 
L 315.569564 73.654018 
L 321.350585 84.968299 
L 325.604505 92.504603 
L 327.5594 96.282601 
L 333.399296 107.596881 
L 336.536745 113.60776 
L 339.82456 118.911162 
L 347.305865 130.225442 
L 347.46899 130.480626 
L 354.151775 141.539733 
L 358.401235 149.476991 
L 360.274042 152.854025 
L 368.45365 164.168305 
L 369.33348 165.379141 
L 377.045115 175.482585 
L 380.265725 179.826803 
L 384.064599 186.796877 
L 387.881367 198.111168 
L 391.010891 209.425448 
L 391.19797 209.913458 
L 395.505634 220.739734 
L 399.944692 232.05402 
L 402.130215 236.545388 
L 405.72831 243.368306 
L 411.701151 254.682592 
L 413.06246 260.597084 
L 414.089266 265.996877 
L 416.388669 277.311163 
L 422.923041 288.625449 
L 423.994705 290.05655 
L 430.440824 299.939735 
L 434.926945 307.273641 
L 437.057929 311.254015 
L 441.342302 322.568301 
L 445.859195 330.479785 
L 447.768526 333.882587 
L 453.83227 345.196873 
L 456.791445 352.456275 
L 458.35429 356.511158 
L 463.137305 367.825444 
L 467.723685 376.558471 
L 469.039108 379.13973 
L 473.95241 390.454016 
L 477.38038 401.768302 
L 478.655925 406.065495 
L 480.678209 413.082582 
L 484.089361 424.396873 
L 488.0885 435.711165 
L 489.588175 439.700798 
L 492.300739 447.025445 
L 496.734167 458.339725 
L 500.520425 468.551363 
L 500.92722 469.654017 
L 504.253561 480.968308 
L 506.811163 492.282588 
L 508.772928 503.596869 
L 510.372878 514.911149 
L 511.452665 525.128102 
L 511.569985 526.225451 
L 513.132537 537.539732 
L 514.18862 548.854012 
L 514.707813 560.168314 
L 514.732632 571.482595 
L 514.138138 582.796875 
" clip-path="url(#pf501ed4331)" style="fill: none; stroke: #481769; stroke-width: 1.5"/>
    <path d="M 139.756345 539.485213 
L 150.688585 538.857372 
L 161.620825 538.977608 
L 172.553075 539.852078 
L 174.783986 537.539732 
L 183.485325 527.880504 
L 185.082441 526.225451 
L 183.485325 516.505845 
L 172.553075 522.016723 
L 161.747938 526.225451 
L 161.620825 526.27065 
L 161.502978 526.225451 
L 151.446502 514.911149 
L 150.688585 513.230543 
L 147.89934 503.596869 
L 148.208934 492.282588 
L 149.962369 480.968308 
L 150.688585 474.576383 
L 151.252547 469.654017 
L 150.688585 466.891973 
L 139.756345 463.601028 
L 128.824106 467.141697 
L 123.681043 469.654017 
L 117.891845 472.108155 
L 106.959605 476.834993 
L 99.446161 480.968308 
L 106.959605 481.867135 
L 117.891845 482.948759 
L 128.824106 483.084313 
L 138.507721 492.282588 
L 138.849079 503.596869 
L 128.824106 512.808643 
L 126.786166 514.911149 
L 126.75417 526.225451 
L 128.824106 528.369138 
L 137.882587 537.539732 
L 139.756345 539.485213 
z
" clip-path="url(#pf501ed4331)" style="fill: none; stroke: #481769; stroke-width: 1.5"/>
    <path d="M 194.417565 515.978882 
L 195.449597 514.911149 
L 194.417565 508.586897 
L 185.805281 514.911149 
L 194.417565 515.978882 
z
" clip-path="url(#pf501ed4331)" style="fill: none; stroke: #481769; stroke-width: 1.5"/>
    <path d="M 205.349805 504.229762 
L 205.961415 503.596869 
L 205.349805 499.795985 
L 200.772121 503.596869 
L 205.349805 504.229762 
z
" clip-path="url(#pf501ed4331)" style="fill: none; stroke: #481769; stroke-width: 1.5"/>
    <path d="M 216.282055 492.825124 
L 216.806837 492.282588 
L 216.282055 488.865732 
L 212.99498 492.282588 
L 216.282055 492.825124 
z
" clip-path="url(#pf501ed4331)" style="fill: none; stroke: #481769; stroke-width: 1.5"/>
    <path d="M 227.214305 481.849152 
L 228.067153 480.968308 
L 227.214305 475.578198 
L 222.621791 480.968308 
L 227.214305 481.849152 
z
" clip-path="url(#pf501ed4331)" style="fill: none; stroke: #481769; stroke-width: 1.5"/>
    <path d="M 238.146545 470.86478 
L 239.317324 469.654017 
L 238.146545 462.125611 
L 231.991127 469.654017 
L 238.146545 470.86478 
z
" clip-path="url(#pf501ed4331)" style="fill: none; stroke: #481769; stroke-width: 1.5"/>
    <path d="M 249.07879 459.719784 
L 250.409903 458.339725 
L 249.07879 449.187382 
L 241.456098 458.339725 
L 249.07879 459.719784 
z
" clip-path="url(#pf501ed4331)" style="fill: none; stroke: #481769; stroke-width: 1.5"/>
    <path d="M 260.011035 447.884098 
L 270.94328 448.513507 
L 272.379258 447.025445 
L 270.94328 436.378863 
L 260.011035 439.440614 
L 252.195489 447.025445 
L 260.011035 447.884098 
z
" clip-path="url(#pf501ed4331)" style="fill: none; stroke: #481769; stroke-width: 1.5"/>
    <path d="M 292.80777 437.050433 
L 294.090508 435.711165 
L 292.80777 430.490632 
L 282.128239 435.711165 
L 292.80777 437.050433 
z
" clip-path="url(#pf501ed4331)" style="fill: none; stroke: #481769; stroke-width: 1.5"/>
    <path d="M 303.740015 424.523746 
L 310.898458 424.396873 
L 303.740015 423.823714 
L 302.99544 424.396873 
L 303.740015 424.523746 
z
" clip-path="url(#pf501ed4331)" style="fill: none; stroke: #481769; stroke-width: 1.5"/>
    <path d="M 325.604505 425.685362 
L 326.853448 424.396873 
L 325.604505 417.72144 
L 315.17825 424.396873 
L 325.604505 425.685362 
z
" clip-path="url(#pf501ed4331)" style="fill: none; stroke: #481769; stroke-width: 1.5"/>
    <path d="M 336.536745 413.477985 
L 336.916175 413.082582 
L 336.536745 411.596832 
L 333.390849 413.082582 
L 336.536745 413.477985 
z
" clip-path="url(#pf501ed4331)" style="fill: none; stroke: #481769; stroke-width: 1.5"/>
    <path d="M 358.401235 392.323747 
L 360.272373 390.454016 
L 358.401235 383.538779 
L 352.404994 390.454016 
L 358.401235 392.323747 
z
" clip-path="url(#pf501ed4331)" style="fill: none; stroke: #481769; stroke-width: 1.5"/>
    <path d="M 369.33348 369.317286 
L 370.894315 367.825444 
L 369.969288 356.511158 
L 371.362277 345.196873 
L 369.33348 343.255424 
L 364.872665 345.196873 
L 367.74745 356.511158 
L 365.484113 367.825444 
L 369.33348 369.317286 
z
" clip-path="url(#pf501ed4331)" style="fill: none; stroke: #481769; stroke-width: 1.5"/>
    <path d="M 74.162865 366.410234 
L 85.095104 362.7907 
L 96.027365 357.772896 
L 98.635435 356.511158 
L 96.027365 356.284935 
L 85.095104 355.241377 
L 74.162865 354.451323 
L 72.183547 356.511158 
L 74.162865 366.410234 
z
" clip-path="url(#pf501ed4331)" style="fill: none; stroke: #481769; stroke-width: 1.5"/>
    <path d="M 358.401235 309.162517 
L 360.758154 299.939735 
L 358.401235 297.701382 
L 354.665911 299.939735 
L 358.401235 309.162517 
z
" clip-path="url(#pf501ed4331)" style="fill: none; stroke: #481769; stroke-width: 1.5"/>
    <path d="M 238.146545 280.154762 
L 249.07879 281.854433 
L 260.011035 279.071432 
L 261.141665 277.311163 
L 260.011035 275.567669 
L 249.07879 270.159402 
L 245.193241 265.996877 
L 238.146545 263.393312 
L 227.214305 263.431323 
L 223.12517 265.996877 
L 227.214305 274.992891 
L 230.704088 277.311163 
L 238.146545 280.154762 
z
" clip-path="url(#pf501ed4331)" style="fill: none; stroke: #481769; stroke-width: 1.5"/>
    <path d="M 347.46899 283.841902 
L 350.057822 277.311163 
L 347.46899 274.791216 
L 341.531999 277.311163 
L 347.46899 283.841902 
z
" clip-path="url(#pf501ed4331)" style="fill: none; stroke: #481769; stroke-width: 1.5"/>
    <path d="M 336.536745 271.24893 
L 338.42563 265.996877 
L 336.536745 264.174337 
L 332.364731 265.996877 
L 336.536745 271.24893 
z
" clip-path="url(#pf501ed4331)" style="fill: none; stroke: #481769; stroke-width: 1.5"/>
    <path d="M 314.67226 245.933112 
L 325.604505 253.122726 
L 328.012027 243.368306 
L 325.604505 241.089465 
L 314.67226 242.446053 
L 309.618321 243.368306 
L 314.67226 245.933112 
z
" clip-path="url(#pf501ed4331)" style="fill: none; stroke: #481769; stroke-width: 1.5"/>
    <path d="M 292.80777 234.834973 
L 293.765357 232.05402 
L 292.80777 231.084749 
L 290.17231 232.05402 
L 292.80777 234.834973 
z
" clip-path="url(#pf501ed4331)" style="fill: none; stroke: #481769; stroke-width: 1.5"/>
    <path d="M 281.875525 222.343394 
L 282.383317 220.739734 
L 281.875525 220.225978 
L 279.327752 220.739734 
L 281.875525 222.343394 
z
" clip-path="url(#pf501ed4331)" style="fill: none; stroke: #481769; stroke-width: 1.5"/>
    <path d="M 260.011035 211.873668 
L 270.94328 216.015917 
L 272.902891 209.425448 
L 270.94328 207.386785 
L 260.011035 208.699332 
L 255.323685 209.425448 
L 260.011035 211.873668 
z
" clip-path="url(#pf501ed4331)" style="fill: none; stroke: #481769; stroke-width: 1.5"/>
    <path d="M 238.146545 199.705378 
L 249.07879 206.372887 
L 251.246168 198.111168 
L 249.07879 195.857971 
L 238.146545 197.709126 
L 234.887191 198.111168 
L 238.146545 199.705378 
z
" clip-path="url(#pf501ed4331)" style="fill: none; stroke: #481769; stroke-width: 1.5"/>
    <path d="M 216.282055 189.632746 
L 227.214305 194.962654 
L 229.221867 186.796877 
L 227.214305 184.698006 
L 216.282055 186.102551 
L 211.943626 186.796877 
L 216.282055 189.632746 
z
" clip-path="url(#pf501ed4331)" style="fill: none; stroke: #481769; stroke-width: 1.5"/>
    <path d="M 194.417565 177.321216 
L 205.349805 183.494268 
L 207.473199 175.482585 
L 205.349805 173.27014 
L 194.417565 175.032789 
L 190.530619 175.482585 
L 194.417565 177.321216 
z
" clip-path="url(#pf501ed4331)" style="fill: none; stroke: #481769; stroke-width: 1.5"/>
    <path d="M 172.553075 168.318703 
L 183.485325 172.78267 
L 185.597155 164.168305 
L 183.485325 161.968861 
L 172.553075 163.226319 
L 162.507457 164.168305 
L 172.553075 168.318703 
z
" clip-path="url(#pf501ed4331)" style="fill: none; stroke: #481769; stroke-width: 1.5"/>
    <path d="M 128.824106 153.336754 
L 139.756345 157.276572 
L 150.688585 160.478905 
L 152.274092 152.854025 
L 150.688585 151.199277 
L 139.756345 151.908734 
L 128.824106 152.767238 
L 127.189055 152.854025 
L 128.824106 153.336754 
z
" clip-path="url(#pf501ed4331)" style="fill: none; stroke: #481769; stroke-width: 1.5"/>
   </g>
   <g id="PathCollection_4">
    <path d="M 345.761945 28.396875 
L 347.46899 31.232512 
L 353.173208 39.711155 
L 358.401235 47.286425 
L 361.19648 51.025436 
L 369.33348 61.917139 
L 369.615793 62.339738 
L 376.914855 73.654018 
L 380.265725 78.688158 
L 384.592017 84.968299 
L 391.19797 94.500355 
L 392.522605 96.282601 
L 400.951395 107.596881 
L 402.130215 109.24803 
L 407.335616 118.911162 
L 412.14518 130.225442 
L 413.06246 133.059648 
L 415.355883 141.539733 
L 418.700794 152.854025 
L 420.71264 164.168305 
L 422.323555 175.482585 
L 423.994705 183.098885 
L 424.997062 186.796877 
L 431.390124 198.111168 
L 434.926945 203.248971 
L 439.537644 209.425448 
L 445.859195 218.466986 
L 447.087319 220.739734 
L 450.890635 232.05402 
L 454.958268 243.368306 
L 456.791445 250.84276 
L 457.722516 254.682592 
L 458.999433 265.996877 
L 462.829955 277.311163 
L 467.723685 287.240383 
L 468.349192 288.625449 
L 473.206181 299.939735 
L 477.917486 311.254015 
L 478.655925 313.108534 
L 482.437717 322.568301 
L 487.099505 333.882587 
L 489.588175 338.952805 
L 492.431229 345.196873 
L 498.917583 356.511158 
L 500.520425 359.444029 
L 505.043789 367.825444 
L 510.477123 379.13973 
L 511.452665 381.193238 
L 515.890068 390.454016 
L 521.196099 401.768302 
L 522.384905 404.226902 
L 526.740516 413.082582 
L 532.134112 424.396873 
L 533.317144 427.319184 
L 536.768505 435.711165 
L 541.34065 447.025445 
L 544.249405 454.18875 
L 545.909387 458.339725 
L 550.630568 469.654017 
L 555.181645 479.986597 
L 555.597386 480.968308 
L 560.308118 492.282588 
L 564.702406 503.596869 
L 566.113885 507.766444 
L 568.522768 514.911149 
L 571.929221 526.225451 
L 574.794551 537.539732 
L 576.918371 548.854012 
L 577.046146 549.71116 
L 578.572421 560.168314 
L 579.358718 571.482595 
L 579.521829 582.796875 
" clip-path="url(#pf501ed4331)" style="fill: none; stroke: #482071; stroke-width: 1.5"/>
   </g>
   <g id="PathCollection_5">
    <path d="M 402.225725 28.396875 
L 413.06246 39.654186 
L 413.11596 39.711155 
L 423.994705 51.014379 
L 424.005034 51.025436 
L 424.096028 62.339738 
L 434.926945 73.598689 
L 434.978476 73.654018 
L 435.045365 84.968299 
L 445.859195 96.276743 
L 445.864674 96.282601 
L 445.913027 107.596881 
L 445.962593 118.911162 
L 446.006351 130.225442 
L 446.048428 141.539733 
L 456.791445 152.825184 
L 456.818575 152.854025 
L 456.875944 164.168305 
L 467.723685 175.433234 
L 467.770556 175.482585 
L 467.849982 186.796877 
L 478.655925 198.063452 
L 478.701053 198.111168 
L 478.781313 209.425448 
L 489.588175 220.717535 
L 489.608895 220.739734 
L 489.671126 232.05402 
L 489.718008 243.368306 
L 489.75369 254.682592 
L 500.520425 265.973719 
L 500.54194 265.996877 
L 500.605847 277.311163 
L 511.452665 288.62004 
L 511.457734 288.625449 
L 511.565698 299.939735 
L 522.384905 311.227222 
L 522.409907 311.254015 
L 522.470481 322.568301 
L 522.541158 333.882587 
L 533.317144 345.147962 
L 533.362798 345.196873 
L 533.432834 356.511158 
L 544.249405 367.813831 
L 544.260223 367.825444 
L 544.34849 379.13973 
L 544.442201 390.454016 
L 555.181645 401.667705 
L 555.275422 401.768302 
L 555.380862 413.082582 
L 566.113885 424.290853 
L 566.213007 424.396873 
L 577.046146 435.701721 
L 577.05498 435.711165 
L 577.148045 447.025445 
L 587.978385 458.332881 
L 587.984782 458.339725 
L 588.068739 469.654017 
L 588.153677 480.968308 
L 598.910625 492.199226 
" clip-path="url(#pf501ed4331)" style="fill: none; stroke: #472a7a; stroke-width: 1.5"/>
   </g>
   <g id="PathCollection_6">
    <path d="M 402.929295 28.396875 
L 413.06246 38.923311 
L 413.802331 39.711155 
L 423.994705 50.301227 
L 424.67125 51.025436 
L 424.771344 62.339738 
L 434.926945 72.896685 
L 435.632299 73.654018 
L 435.708761 84.968299 
L 445.859195 95.583003 
L 446.513594 96.282601 
L 446.574548 107.596881 
L 446.637325 118.911162 
L 446.694665 130.225442 
L 446.751448 141.539733 
L 456.791445 152.086667 
L 457.513285 152.854025 
L 457.589285 164.168305 
L 467.723685 174.692459 
L 468.474108 175.482585 
L 468.569962 186.796877 
L 478.655925 197.31278 
L 479.411023 198.111168 
L 479.503557 209.425448 
L 489.588175 219.962862 
L 490.313283 220.739734 
L 490.38635 232.05402 
L 490.443692 243.368306 
L 490.490532 254.682592 
L 500.520425 265.200989 
L 501.259833 265.996877 
L 501.336692 277.311163 
L 511.452665 287.858062 
L 512.171887 288.625449 
L 512.291138 299.939735 
L 522.384905 310.470382 
L 523.116163 311.254015 
L 523.189339 322.568301 
L 523.272512 333.882587 
L 533.317144 344.383393 
L 534.076459 345.196873 
L 534.158208 356.511158 
L 544.249405 367.055859 
L 544.966244 367.825444 
L 545.062025 379.13973 
L 545.164038 390.454016 
L 555.181645 400.913993 
L 555.978044 401.768302 
L 556.093474 413.082582 
L 566.113885 423.546687 
L 566.908754 424.396873 
L 577.046146 434.975678 
L 577.73416 435.711165 
L 577.837109 447.025445 
L 587.978385 457.613463 
L 588.657059 458.339725 
L 588.749568 469.654017 
L 588.842509 480.968308 
L 598.910625 491.480043 
" clip-path="url(#pf501ed4331)" style="fill: none; stroke: #46337f; stroke-width: 1.5"/>
   </g>
   <g id="PathCollection_7">
    <path d="M 403.632865 28.396875 
L 413.06246 38.192435 
L 414.488702 39.711155 
L 423.994705 49.588074 
L 425.337466 51.025436 
L 425.446659 62.339738 
L 434.926945 72.194682 
L 436.286122 73.654018 
L 436.372158 84.968299 
L 445.859195 94.889264 
L 447.162513 96.282601 
L 447.236069 107.596881 
L 447.312058 118.911162 
L 447.382979 130.225442 
L 447.454468 141.539733 
L 456.791445 151.348151 
L 458.207994 152.854025 
L 458.302626 164.168305 
L 467.723685 173.951684 
L 469.177659 175.482585 
L 469.289942 186.796877 
L 478.655925 196.562109 
L 480.120992 198.111168 
L 480.225801 209.425448 
L 489.588175 219.208189 
L 491.017671 220.739734 
L 491.101573 232.05402 
L 491.169375 243.368306 
L 491.227375 254.682592 
L 500.520425 264.428258 
L 501.977726 265.996877 
L 502.067537 277.311163 
L 511.452665 287.096085 
L 512.88604 288.625449 
L 513.016579 299.939735 
L 522.384905 309.713543 
L 523.822419 311.254015 
L 523.908197 322.568301 
L 524.003866 333.882587 
L 533.317144 343.618825 
L 534.790119 345.196873 
L 534.883581 356.511158 
L 544.249405 366.297886 
L 545.672265 367.825444 
L 545.775561 379.13973 
L 545.885874 390.454016 
L 555.181645 400.16028 
L 556.680666 401.768302 
L 556.806087 413.082582 
L 566.113885 422.802521 
L 567.604502 424.396873 
L 577.046146 434.249635 
L 578.41334 435.711165 
L 578.526172 447.025445 
L 587.978385 456.894046 
L 589.329337 458.339725 
L 589.430397 469.654017 
L 589.531341 480.968308 
L 598.910625 490.76086 
" clip-path="url(#pf501ed4331)" style="fill: none; stroke: #433d84; stroke-width: 1.5"/>
   </g>
   <g id="PathCollection_8">
    <path d="M 404.336434 28.396875 
L 413.06246 37.46156 
L 415.175073 39.711155 
L 423.994705 48.874921 
L 426.003682 51.025436 
L 426.121975 62.339738 
L 434.926945 71.492678 
L 436.939945 73.654018 
L 437.035554 84.968299 
L 445.859195 94.195524 
L 447.811433 96.282601 
L 447.89759 107.596881 
L 447.98679 118.911162 
L 448.071293 130.225442 
L 448.157487 141.539733 
L 456.791445 150.609635 
L 458.902703 152.854025 
L 459.015967 164.168305 
L 467.723685 173.210909 
L 469.88121 175.482585 
L 470.009923 186.796877 
L 478.655925 195.811437 
L 480.830961 198.111168 
L 480.948046 209.425448 
L 489.588175 218.453516 
L 491.722059 220.739734 
L 491.816797 232.05402 
L 491.895058 243.368306 
L 491.964217 254.682592 
L 500.520425 263.655528 
L 502.695618 265.996877 
L 502.798382 277.311163 
L 511.452665 286.334107 
L 513.600194 288.625449 
L 513.74202 299.939735 
L 522.384905 308.956704 
L 524.528675 311.254015 
L 524.627056 322.568301 
L 524.73522 333.882587 
L 533.317144 342.854257 
L 535.50378 345.196873 
L 535.608955 356.511158 
L 544.249405 365.539914 
L 546.378286 367.825444 
L 546.489096 379.13973 
L 546.607711 390.454016 
L 555.181645 399.406568 
L 557.383287 401.768302 
L 557.518699 413.082582 
L 566.113885 422.058355 
L 568.30025 424.396873 
L 577.046146 433.523593 
L 579.09252 435.711165 
L 579.215235 447.025445 
L 587.978385 456.174628 
L 590.001615 458.339725 
L 590.111226 469.654017 
L 590.220172 480.968308 
L 598.910625 490.041677 
" clip-path="url(#pf501ed4331)" style="fill: none; stroke: #404588; stroke-width: 1.5"/>
   </g>
   <g id="PathCollection_9">
    <path d="M 405.040004 28.396875 
L 413.06246 36.730684 
L 415.861444 39.711155 
L 423.994705 48.161769 
L 426.669898 51.025436 
L 426.797291 62.339738 
L 434.926945 70.790674 
L 437.593768 73.654018 
L 437.698951 84.968299 
L 445.859195 93.501784 
L 448.460352 96.282601 
L 448.559111 107.596881 
L 448.661522 118.911162 
L 448.759607 130.225442 
L 448.860507 141.539733 
L 456.791445 149.871118 
L 459.597412 152.854025 
L 459.729308 164.168305 
L 467.723685 172.470134 
L 470.584761 175.482585 
L 470.729903 186.796877 
L 478.655925 195.060766 
L 481.54093 198.111168 
L 481.67029 209.425448 
L 489.588175 217.698844 
L 492.426447 220.739734 
L 492.53202 232.05402 
L 492.620742 243.368306 
L 492.70106 254.682592 
L 500.520425 262.882798 
L 503.413511 265.996877 
L 503.529227 277.311163 
L 511.452665 285.572129 
L 514.314347 288.625449 
L 514.46746 299.939735 
L 522.384905 308.199864 
L 525.234931 311.254015 
L 525.345914 322.568301 
L 525.466574 333.882587 
L 533.317144 342.089688 
L 536.21744 345.196873 
L 536.334328 356.511158 
L 544.249405 364.781942 
L 547.084307 367.825444 
L 547.202631 379.13973 
L 547.329548 390.454016 
L 555.181645 398.652855 
L 558.085909 401.768302 
L 558.231311 413.082582 
L 566.113885 421.314188 
L 568.995997 424.396873 
L 577.046146 432.79755 
L 579.7717 435.711165 
L 579.904298 447.025445 
L 587.978385 455.455211 
L 590.673892 458.339725 
L 590.792055 469.654017 
L 590.909004 480.968308 
L 598.910625 489.322494 
" clip-path="url(#pf501ed4331)" style="fill: none; stroke: #3d4e8a; stroke-width: 1.5"/>
   </g>
   <g id="PathCollection_10">
    <path d="M 405.743574 28.396875 
L 413.06246 35.999809 
L 416.547815 39.711155 
L 423.994705 47.448616 
L 427.336115 51.025436 
L 427.472606 62.339738 
L 434.926945 70.08867 
L 438.247591 73.654018 
L 438.362348 84.968299 
L 445.859195 92.808045 
L 449.109272 96.282601 
L 449.220632 107.596881 
L 449.336255 118.911162 
L 449.447922 130.225442 
L 449.563527 141.539733 
L 456.791445 149.132602 
L 460.292122 152.854025 
L 460.442649 164.168305 
L 467.723685 171.729358 
L 471.288312 175.482585 
L 471.449883 186.796877 
L 478.655925 194.310094 
L 482.250899 198.111168 
L 482.392534 209.425448 
L 489.588175 216.944171 
L 493.130836 220.739734 
L 493.247244 232.05402 
L 493.346425 243.368306 
L 493.437902 254.682592 
L 500.520425 262.110068 
L 504.131404 265.996877 
L 504.260072 277.311163 
L 511.452665 284.810151 
L 515.0285 288.625449 
L 515.192901 299.939735 
L 522.384905 307.443025 
L 525.941187 311.254015 
L 526.064772 322.568301 
L 526.197929 333.882587 
L 533.317144 341.32512 
L 536.931101 345.196873 
L 537.059702 356.511158 
L 544.249405 364.02397 
L 547.790329 367.825444 
L 547.916167 379.13973 
L 548.051385 390.454016 
L 555.181645 397.899143 
L 558.788531 401.768302 
L 558.943924 413.082582 
L 566.113885 420.570022 
L 569.691745 424.396873 
L 577.046146 432.071508 
L 580.450879 435.711165 
L 580.593361 447.025445 
L 587.978385 454.735793 
L 591.34617 458.339725 
L 591.472884 469.654017 
L 591.597836 480.968308 
L 598.910625 488.603312 
" clip-path="url(#pf501ed4331)" style="fill: none; stroke: #39558c; stroke-width: 1.5"/>
   </g>
   <g id="PathCollection_11">
    <path d="M 406.447144 28.396875 
L 413.06246 35.268933 
L 417.234186 39.711155 
L 423.994705 46.735463 
L 428.002331 51.025436 
L 428.147922 62.339738 
L 434.926945 69.386666 
L 438.901414 73.654018 
L 439.025744 84.968299 
L 445.859195 92.114305 
L 449.758191 96.282601 
L 449.882153 107.596881 
L 450.010987 118.911162 
L 450.136236 130.225442 
L 450.266546 141.539733 
L 456.791445 148.394085 
L 460.986831 152.854025 
L 461.15599 164.168305 
L 467.723685 170.988583 
L 471.991863 175.482585 
L 472.169864 186.796877 
L 478.655925 193.559423 
L 482.960868 198.111168 
L 483.114778 209.425448 
L 489.588175 216.189498 
L 493.835224 220.739734 
L 493.962468 232.05402 
L 494.072108 243.368306 
L 494.174745 254.682592 
L 500.520425 261.337337 
L 504.849297 265.996877 
L 504.990917 277.311163 
L 511.452665 284.048173 
L 515.742653 288.625449 
L 515.918341 299.939735 
L 522.384905 306.686186 
L 526.647443 311.254015 
L 526.78363 322.568301 
L 526.929283 333.882587 
L 533.317144 340.560551 
L 537.644761 345.196873 
L 537.785075 356.511158 
L 544.249405 363.265998 
L 548.49635 367.825444 
L 548.629702 379.13973 
L 548.773222 390.454016 
L 555.181645 397.14543 
L 559.491152 401.768302 
L 559.656536 413.082582 
L 566.113885 419.825856 
L 570.387492 424.396873 
L 577.046146 431.345465 
L 581.130059 435.711165 
L 581.282424 447.025445 
L 587.978385 454.016376 
L 592.018448 458.339725 
L 592.153714 469.654017 
L 592.286668 480.968308 
L 598.910625 487.884129 
" clip-path="url(#pf501ed4331)" style="fill: none; stroke: #355e8d; stroke-width: 1.5"/>
   </g>
   <g id="PathCollection_12">
    <path d="M 407.150713 28.396875 
L 413.06246 34.538058 
L 417.920557 39.711155 
L 423.994705 46.022311 
L 428.668547 51.025436 
L 428.823237 62.339738 
L 434.926945 68.684662 
L 439.555237 73.654018 
L 439.689141 84.968299 
L 445.859195 91.420565 
L 450.407111 96.282601 
L 450.543674 107.596881 
L 450.685719 118.911162 
L 450.82455 130.225442 
L 450.969566 141.539733 
L 456.791445 147.655569 
L 461.68154 152.854025 
L 461.869331 164.168305 
L 467.723685 170.247808 
L 472.695414 175.482585 
L 472.889844 186.796877 
L 478.655925 192.808752 
L 483.670837 198.111168 
L 483.837023 209.425448 
L 489.588175 215.434825 
L 494.539612 220.739734 
L 494.677691 232.05402 
L 494.797792 243.368306 
L 494.911587 254.682592 
L 500.520425 260.564607 
L 505.56719 265.996877 
L 505.721762 277.311163 
L 511.452665 283.286195 
L 516.456806 288.625449 
L 516.643782 299.939735 
L 522.384905 305.929346 
L 527.353699 311.254015 
L 527.502489 322.568301 
L 527.660637 333.882587 
L 533.317144 339.795983 
L 538.358422 345.196873 
L 538.510449 356.511158 
L 544.249405 362.508026 
L 549.202371 367.825444 
L 549.343238 379.13973 
L 549.495058 390.454016 
L 555.181645 396.391718 
L 560.193774 401.768302 
L 560.369149 413.082582 
L 566.113885 419.08169 
L 571.08324 424.396873 
L 577.046146 430.619422 
L 581.809239 435.711165 
L 581.971487 447.025445 
L 587.978385 453.296958 
L 592.690725 458.339725 
L 592.834543 469.654017 
L 592.975499 480.968308 
L 598.910625 487.164946 
" clip-path="url(#pf501ed4331)" style="fill: none; stroke: #32658e; stroke-width: 1.5"/>
   </g>
   <g id="PathCollection_13">
    <path d="M 407.854283 28.396875 
L 413.06246 33.807182 
L 418.606929 39.711155 
L 423.994705 45.309158 
L 429.334763 51.025436 
L 429.498553 62.339738 
L 434.926945 67.982658 
L 440.20906 73.654018 
L 440.352537 84.968299 
L 445.859195 90.726826 
L 451.05603 96.282601 
L 451.205195 107.596881 
L 451.360452 118.911162 
L 451.512864 130.225442 
L 451.672586 141.539733 
L 456.791445 146.917053 
L 462.376249 152.854025 
L 462.582672 164.168305 
L 467.723685 169.507033 
L 473.398965 175.482585 
L 473.609825 186.796877 
L 478.655925 192.05808 
L 484.380807 198.111168 
L 484.559267 209.425448 
L 489.588175 214.680152 
L 495.244 220.739734 
L 495.392915 232.05402 
L 495.523475 243.368306 
L 495.64843 254.682592 
L 500.520425 259.791877 
L 506.285082 265.996877 
L 506.452606 277.311163 
L 511.452665 282.524217 
L 517.170959 288.625449 
L 517.369223 299.939735 
L 522.384905 305.172507 
L 528.059954 311.254015 
L 528.221347 322.568301 
L 528.391991 333.882587 
L 533.317144 339.031415 
L 539.072082 345.196873 
L 539.235822 356.511158 
L 544.249405 361.750054 
L 549.908392 367.825444 
L 550.056773 379.13973 
L 550.216895 390.454016 
L 555.181645 395.638005 
L 560.896396 401.768302 
L 561.081761 413.082582 
L 566.113885 418.337524 
L 571.778988 424.396873 
L 577.046146 429.89338 
L 582.488419 435.711165 
L 582.66055 447.025445 
L 587.978385 452.577541 
L 593.363003 458.339725 
L 593.515372 469.654017 
L 593.664331 480.968308 
L 598.910625 486.445763 
" clip-path="url(#pf501ed4331)" style="fill: none; stroke: #2e6d8e; stroke-width: 1.5"/>
   </g>
   <g id="PathCollection_14">
    <path d="M 408.557853 28.396875 
L 413.06246 33.076307 
L 419.2933 39.711155 
L 423.994705 44.596005 
L 430.000979 51.025436 
L 430.173869 62.339738 
L 434.926945 67.280654 
L 440.862883 73.654018 
L 441.015934 84.968299 
L 445.859195 90.033086 
L 451.70495 96.282601 
L 451.866716 107.596881 
L 452.035184 118.911162 
L 452.201178 130.225442 
L 452.375605 141.539733 
L 456.791445 146.178536 
L 463.070958 152.854025 
L 463.296013 164.168305 
L 467.723685 168.766258 
L 474.102516 175.482585 
L 474.329805 186.796877 
L 478.655925 191.307409 
L 485.090776 198.111168 
L 485.281511 209.425448 
L 489.588175 213.92548 
L 495.948388 220.739734 
L 496.108138 232.05402 
L 496.249158 243.368306 
L 496.385272 254.682592 
L 500.520425 259.019146 
L 507.002975 265.996877 
L 507.183451 277.311163 
L 511.452665 281.762239 
L 517.885112 288.625449 
L 518.094663 299.939735 
L 522.384905 304.415668 
L 528.76621 311.254015 
L 528.940205 322.568301 
L 529.123345 333.882587 
L 533.317144 338.266846 
L 539.785743 345.196873 
L 539.961196 356.511158 
L 544.249405 360.992082 
L 550.614413 367.825444 
L 550.770308 379.13973 
L 550.938732 390.454016 
L 555.181645 394.884292 
L 561.599017 401.768302 
L 561.794373 413.082582 
L 566.113885 417.593357 
L 572.474735 424.396873 
L 577.046146 429.167337 
L 583.167599 435.711165 
L 583.349613 447.025445 
L 587.978385 451.858123 
L 594.035281 458.339725 
L 594.196201 469.654017 
L 594.353163 480.968308 
L 598.910625 485.72658 
" clip-path="url(#pf501ed4331)" style="fill: none; stroke: #2c738e; stroke-width: 1.5"/>
   </g>
   <g id="PathCollection_15">
    <path d="M 409.261423 28.396875 
L 413.06246 32.345431 
L 419.979671 39.711155 
L 423.994705 43.882853 
L 430.667196 51.025436 
L 430.849184 62.339738 
L 434.926945 66.57865 
L 441.516706 73.654018 
L 441.67933 84.968299 
L 445.859195 89.339346 
L 452.353869 96.282601 
L 452.528237 107.596881 
L 452.709916 118.911162 
L 452.889493 130.225442 
L 453.078625 141.539733 
L 456.791445 145.44002 
L 463.765668 152.854025 
L 464.009354 164.168305 
L 467.723685 168.025483 
L 474.806067 175.482585 
L 475.049785 186.796877 
L 478.655925 190.556737 
L 485.800745 198.111168 
L 486.003756 209.425448 
L 489.588175 213.170807 
L 496.652776 220.739734 
L 496.823362 232.05402 
L 496.974842 243.368306 
L 497.122115 254.682592 
L 500.520425 258.246416 
L 507.720868 265.996877 
L 507.914296 277.311163 
L 511.452665 281.000261 
L 518.599266 288.625449 
L 518.820104 299.939735 
L 522.384905 303.658828 
L 529.472466 311.254015 
L 529.659063 322.568301 
L 529.854699 333.882587 
L 533.317144 337.502278 
L 540.499403 345.196873 
L 540.686569 356.511158 
L 544.249405 360.23411 
L 551.320434 367.825444 
L 551.483844 379.13973 
L 551.660569 390.454016 
L 555.181645 394.13058 
L 562.301639 401.768302 
L 562.506986 413.082582 
L 566.113885 416.849191 
L 573.170483 424.396873 
L 577.046146 428.441295 
L 583.846779 435.711165 
L 584.038676 447.025445 
L 587.978385 451.138706 
L 594.707558 458.339725 
L 594.87703 469.654017 
L 595.041994 480.968308 
L 598.910625 485.007397 
" clip-path="url(#pf501ed4331)" style="fill: none; stroke: #297b8e; stroke-width: 1.5"/>
   </g>
   <g id="PathCollection_16">
    <path d="M 409.964993 28.396875 
L 413.06246 31.614556 
L 420.666042 39.711155 
L 423.994705 43.1697 
L 431.333412 51.025436 
L 431.5245 62.339738 
L 434.926945 65.876647 
L 442.170529 73.654018 
L 442.342727 84.968299 
L 445.859195 88.645607 
L 453.002789 96.282601 
L 453.189758 107.596881 
L 453.384649 118.911162 
L 453.577807 130.225442 
L 453.781645 141.539733 
L 456.791445 144.701504 
L 464.460377 152.854025 
L 464.722695 164.168305 
L 467.723685 167.284708 
L 475.509619 175.482585 
L 475.769766 186.796877 
L 478.655925 189.806066 
L 486.510714 198.111168 
L 486.726 209.425448 
L 489.588175 212.416134 
L 497.357164 220.739734 
L 497.538585 232.05402 
L 497.700525 243.368306 
L 497.858957 254.682592 
L 500.520425 257.473686 
L 508.438761 265.996877 
L 508.645141 277.311163 
L 511.452665 280.238283 
L 519.313419 288.625449 
L 519.545544 299.939735 
L 522.384905 302.901989 
L 530.178722 311.254015 
L 530.377922 322.568301 
L 530.586054 333.882587 
L 533.317144 336.737709 
L 541.213064 345.196873 
L 541.411943 356.511158 
L 544.249405 359.476138 
L 552.026455 367.825444 
L 552.197379 379.13973 
L 552.382406 390.454016 
L 555.181645 393.376867 
L 563.00426 401.768302 
L 563.219598 413.082582 
L 566.113885 416.105025 
L 573.86623 424.396873 
L 577.046146 427.715252 
L 584.525959 435.711165 
L 584.727739 447.025445 
L 587.978385 450.419288 
L 595.379836 458.339725 
L 595.557859 469.654017 
L 595.730826 480.968308 
L 598.910625 484.288215 
" clip-path="url(#pf501ed4331)" style="fill: none; stroke: #26828e; stroke-width: 1.5"/>
   </g>
   <g id="PathCollection_17">
    <path d="M 410.668562 28.396875 
L 413.06246 30.88368 
L 421.352413 39.711155 
L 423.994705 42.456547 
L 431.999628 51.025436 
L 432.199815 62.339738 
L 434.926945 65.174643 
L 442.824352 73.654018 
L 443.006123 84.968299 
L 445.859195 87.951867 
L 453.651708 96.282601 
L 453.851279 107.596881 
L 454.059381 118.911162 
L 454.266121 130.225442 
L 454.484665 141.539733 
L 456.791445 143.962987 
L 465.155086 152.854025 
L 465.436036 164.168305 
L 467.723685 166.543933 
L 476.21317 175.482585 
L 476.489746 186.796877 
L 478.655925 189.055394 
L 487.220683 198.111168 
L 487.448244 209.425448 
L 489.588175 211.661461 
L 498.061552 220.739734 
L 498.253809 232.05402 
L 498.426209 243.368306 
L 498.5958 254.682592 
L 500.520425 256.700955 
L 509.156654 265.996877 
L 509.375986 277.311163 
L 511.452665 279.476305 
L 520.027572 288.625449 
L 520.270985 299.939735 
L 522.384905 302.14515 
L 530.884978 311.254015 
L 531.09678 322.568301 
L 531.317408 333.882587 
L 533.317144 335.973141 
L 541.926724 345.196873 
L 542.137316 356.511158 
L 544.249405 358.718166 
L 552.732477 367.825444 
L 552.910915 379.13973 
L 553.104242 390.454016 
L 555.181645 392.623155 
L 563.706882 401.768302 
L 563.932211 413.082582 
L 566.113885 415.360859 
L 574.561978 424.396873 
L 577.046146 426.989209 
L 585.205138 435.711165 
L 585.416802 447.025445 
L 587.978385 449.699871 
L 596.052114 458.339725 
L 596.238688 469.654017 
L 596.419658 480.968308 
L 598.910625 483.569032 
" clip-path="url(#pf501ed4331)" style="fill: none; stroke: #23898e; stroke-width: 1.5"/>
   </g>
   <g id="PathCollection_18">
    <path d="M 411.372132 28.396875 
L 413.06246 30.152805 
L 422.038784 39.711155 
L 423.994705 41.743395 
L 432.665844 51.025436 
L 432.875131 62.339738 
L 434.926945 64.472639 
L 443.478175 73.654018 
L 443.66952 84.968299 
L 445.859195 87.258127 
L 454.300628 96.282601 
L 454.5128 107.596881 
L 454.734113 118.911162 
L 454.954435 130.225442 
L 455.187684 141.539733 
L 456.791445 143.224471 
L 465.849795 152.854025 
L 466.149377 164.168305 
L 467.723685 165.803158 
L 476.916721 175.482585 
L 477.209727 186.796877 
L 478.655925 188.304723 
L 487.930652 198.111168 
L 488.170488 209.425448 
L 489.588175 210.906788 
L 498.76594 220.739734 
L 498.969033 232.05402 
L 499.151892 243.368306 
L 499.332642 254.682592 
L 500.520425 255.928225 
L 509.874546 265.996877 
L 510.106831 277.311163 
L 511.452665 278.714328 
L 520.741725 288.625449 
L 520.996426 299.939735 
L 522.384905 301.388311 
L 531.591234 311.254015 
L 531.815638 322.568301 
L 532.048762 333.882587 
L 533.317144 335.208572 
L 542.640385 345.196873 
L 542.86269 356.511158 
L 544.249405 357.960193 
L 553.438498 367.825444 
L 553.62445 379.13973 
L 553.826079 390.454016 
L 555.181645 391.869442 
L 564.409504 401.768302 
L 564.644823 413.082582 
L 566.113885 414.616692 
L 575.257726 424.396873 
L 577.046146 426.263167 
L 585.884318 435.711165 
L 586.105865 447.025445 
L 587.978385 448.980453 
L 596.724392 458.339725 
L 596.919517 469.654017 
L 597.108489 480.968308 
L 598.910625 482.849849 
" clip-path="url(#pf501ed4331)" style="fill: none; stroke: #21918c; stroke-width: 1.5"/>
   </g>
   <g id="PathCollection_19">
    <path d="M 412.075702 28.396875 
L 413.06246 29.421929 
L 422.725155 39.711155 
L 423.994705 41.030242 
L 433.33206 51.025436 
L 433.550447 62.339738 
L 434.926945 63.770635 
L 444.131998 73.654018 
L 444.332916 84.968299 
L 445.859195 86.564388 
L 454.949547 96.282601 
L 455.174321 107.596881 
L 455.408846 118.911162 
L 455.642749 130.225442 
L 455.890704 141.539733 
L 456.791445 142.485955 
L 466.544505 152.854025 
L 466.862718 164.168305 
L 467.723685 165.062383 
L 477.620272 175.482585 
L 477.929707 186.796877 
L 478.655925 187.554051 
L 488.640621 198.111168 
L 488.892733 209.425448 
L 489.588175 210.152116 
L 499.470328 220.739734 
L 499.684256 232.05402 
L 499.877575 243.368306 
L 500.069485 254.682592 
L 500.520425 255.155495 
L 510.592439 265.996877 
L 510.837676 277.311163 
L 511.452665 277.95235 
L 521.455878 288.625449 
L 521.721866 299.939735 
L 522.384905 300.631471 
L 532.29749 311.254015 
L 532.534496 322.568301 
L 532.780116 333.882587 
L 533.317144 334.444004 
L 543.354045 345.196873 
L 543.588063 356.511158 
L 544.249405 357.202221 
L 554.144519 367.825444 
L 554.337985 379.13973 
L 554.547916 390.454016 
L 555.181645 391.11573 
L 565.112125 401.768302 
L 565.357435 413.082582 
L 566.113885 413.872526 
L 575.953473 424.396873 
L 577.046146 425.537124 
L 586.563498 435.711165 
L 586.794928 447.025445 
L 587.978385 448.261036 
L 597.396669 458.339725 
L 597.600346 469.654017 
L 597.797321 480.968308 
L 598.910625 482.130666 
" clip-path="url(#pf501ed4331)" style="fill: none; stroke: #1f978b; stroke-width: 1.5"/>
   </g>
   <g id="PathCollection_20">
    <path d="M 412.779272 28.396875 
L 413.06246 28.691054 
L 423.411526 39.711155 
L 423.994705 40.317089 
L 433.998277 51.025436 
L 434.225762 62.339738 
L 434.926945 63.068631 
L 444.785821 73.654018 
L 444.996313 84.968299 
L 445.859195 85.870648 
L 455.598467 96.282601 
L 455.835842 107.596881 
L 456.083578 118.911162 
L 456.331064 130.225442 
L 456.593724 141.539733 
L 456.791445 141.747438 
L 467.239214 152.854025 
L 467.57606 164.168305 
L 467.723685 164.321608 
L 478.323823 175.482585 
L 478.649687 186.796877 
L 478.655925 186.80338 
L 489.350591 198.111168 
L 489.588175 208.296017 
L 490.070423 209.425448 
L 500.174716 220.739734 
L 500.39948 232.05402 
L 500.520425 238.808779 
L 501.931124 243.368306 
L 505.344505 254.682592 
L 511.310332 265.996877 
L 511.452665 272.284151 
L 513.484846 277.311163 
L 522.170031 288.625449 
L 522.384905 297.424216 
L 523.445903 299.939735 
L 533.003746 311.254015 
L 533.253355 322.568301 
L 533.317144 325.400906 
L 536.598403 333.882587 
L 544.067706 345.196873 
L 544.249405 353.59828 
L 545.35709 356.511158 
L 554.85054 367.825444 
L 555.051521 379.13973 
L 555.181645 385.917512 
L 556.712738 390.454016 
L 565.814747 401.768302 
L 566.070048 413.082582 
L 566.113885 413.12836 
L 576.649221 424.396873 
L 577.046146 424.811082 
L 587.242678 435.711165 
L 587.483991 447.025445 
L 587.978385 447.541618 
L 598.068947 458.339725 
L 598.281175 469.654017 
L 598.486153 480.968308 
L 598.910625 481.411483 
" clip-path="url(#pf501ed4331)" style="fill: none; stroke: #1f9f88; stroke-width: 1.5"/>
   </g>
   <g id="PathCollection_21">
    <path d="M 420.797735 28.396875 
L 423.994705 35.42953 
L 425.783692 39.711155 
L 434.664493 51.025436 
L 434.901078 62.339738 
L 434.926945 62.366627 
L 445.439644 73.654018 
L 445.65971 84.968299 
L 445.859195 85.176908 
L 456.247386 96.282601 
L 456.497363 107.596881 
L 456.75831 118.911162 
L 456.791445 120.372359 
L 460.925871 130.225442 
L 466.152241 141.539733 
L 467.723685 144.764937 
L 472.133916 152.854025 
L 478.655925 162.4878 
L 479.788068 164.168305 
L 486.199698 175.482585 
L 489.588175 181.242388 
L 492.805601 186.796877 
L 498.679641 198.111168 
L 500.520425 202.72194 
L 502.990476 209.425448 
L 506.988446 220.739734 
L 510.826489 232.05402 
L 511.452665 234.093552 
L 514.328768 243.368306 
L 517.943376 254.682592 
L 521.603354 265.996877 
L 522.384905 267.897528 
L 526.353229 277.311163 
L 531.237001 288.625449 
L 533.317144 293.73221 
L 535.777347 299.939735 
L 540.095899 311.254015 
L 544.249405 322.303644 
L 544.348761 322.568301 
L 548.891595 333.882587 
L 553.527829 345.196873 
L 555.181645 349.492822 
L 557.906558 356.511158 
L 561.913833 367.825444 
L 565.532495 379.13973 
L 566.113885 380.892485 
L 569.297967 390.454016 
L 573.241124 401.768302 
L 577.046146 411.513034 
L 577.658024 413.082582 
L 582.319667 424.396873 
L 587.921858 435.711165 
L 587.978385 438.28587 
L 591.493483 447.025445 
L 598.741225 458.339725 
L 598.910625 467.046423 
" clip-path="url(#pf501ed4331)" style="fill: none; stroke: #21a585; stroke-width: 1.5"/>
   </g>
   <g id="PathCollection_22">
    <path d="M 433.147261 28.396875 
L 434.926945 32.779338 
L 437.58107 39.711155 
L 441.777358 51.025436 
L 445.856702 62.339738 
L 445.859195 62.34666 
L 449.910929 73.654018 
L 454.037821 84.968299 
L 456.791445 91.677709 
L 458.853091 96.282601 
L 463.809213 107.596881 
L 467.723685 116.915371 
L 468.575084 118.911162 
L 473.858417 130.225442 
L 478.655925 139.585527 
L 479.74066 141.539733 
L 487.201032 152.854025 
L 489.588175 156.502856 
L 494.098955 164.168305 
L 500.397456 175.482585 
L 500.520425 175.6959 
L 506.580799 186.796877 
L 511.452665 197.730511 
L 511.611822 198.111168 
L 515.582118 209.425448 
L 519.503926 220.739734 
L 522.384905 229.557215 
L 523.20656 232.05402 
L 526.904959 243.368306 
L 530.669382 254.682592 
L 533.317144 262.541303 
L 534.504242 265.996877 
L 539.271753 277.311163 
L 543.952403 288.625449 
L 544.249405 289.412147 
L 548.080515 299.939735 
L 552.313384 311.254015 
L 555.181645 318.956831 
L 556.520732 322.568301 
L 561.121827 333.882587 
L 565.975914 345.196873 
L 566.113885 345.547834 
L 570.453539 356.511158 
L 574.608909 367.825444 
L 577.046146 375.41139 
L 578.248166 379.13973 
L 582.028951 390.454016 
L 585.857967 401.768302 
L 587.978385 407.420822 
L 590.068164 413.082582 
L 594.616472 424.396873 
L 598.910625 434.833279 
" clip-path="url(#pf501ed4331)" style="fill: none; stroke: #26ad81; stroke-width: 1.5"/>
   </g>
   <g id="PathCollection_23">
    <path d="M 444.787647 28.396875 
L 445.859195 31.230412 
L 449.094619 39.711155 
L 453.243785 51.025436 
L 456.791445 61.111439 
L 457.235025 62.339738 
L 461.639653 73.654018 
L 466.587805 84.968299 
L 467.723685 87.518089 
L 471.508527 96.282601 
L 476.27013 107.596881 
L 478.655925 112.953104 
L 481.634669 118.911162 
L 487.643982 130.225442 
L 489.588175 133.620594 
L 494.5184 141.539733 
L 500.520425 150.613664 
L 501.864103 152.854025 
L 507.967357 164.168305 
L 511.452665 170.459651 
L 514.150923 175.482585 
L 519.719676 186.796877 
L 522.384905 193.439422 
L 524.162912 198.111168 
L 528.064266 209.425448 
L 531.797272 220.739734 
L 533.317144 225.188278 
L 535.724608 232.05402 
L 539.630672 243.368306 
L 543.494764 254.682592 
L 544.249405 256.848576 
L 547.474489 265.996877 
L 552.121354 277.311163 
L 555.181645 285.194228 
L 556.459798 288.625449 
L 560.322143 299.939735 
L 564.582934 311.254015 
L 566.113885 315.437474 
L 568.734968 322.568301 
L 573.403552 333.882587 
L 577.046146 342.255134 
L 578.340947 345.196873 
L 582.99152 356.511158 
L 587.205269 367.825444 
L 587.978385 370.15874 
L 591.010371 379.13973 
L 594.798728 390.454016 
L 598.6856 401.768302 
L 598.910625 402.406698 
" clip-path="url(#pf501ed4331)" style="fill: none; stroke: #2eb37c; stroke-width: 1.5"/>
   </g>
   <g id="PathCollection_24">
    <path d="M 456.395004 28.396875 
L 456.791445 29.430428 
L 460.694069 39.711155 
L 464.752662 51.025436 
L 467.723685 58.832979 
L 469.215338 62.339738 
L 474.384476 73.654018 
L 478.655925 83.524816 
L 479.257159 84.968299 
L 484.124421 96.282601 
L 489.558964 107.596881 
L 489.588175 107.653803 
L 495.560573 118.911162 
L 500.520425 127.559841 
L 502.147551 130.225442 
L 509.29624 141.539733 
L 511.452665 145.259412 
L 515.591423 152.854025 
L 521.512864 164.168305 
L 522.384905 165.795345 
L 527.376451 175.482585 
L 532.385272 186.796877 
L 533.317144 189.331965 
L 536.421814 198.111168 
L 540.221985 209.425448 
L 544.051557 220.739734 
L 544.249405 221.279454 
L 548.311178 232.05402 
L 552.486938 243.368306 
L 555.181645 251.183305 
L 556.37809 254.682592 
L 560.399396 265.996877 
L 564.856371 277.311163 
L 566.113885 280.855573 
L 568.780565 288.625449 
L 572.559756 299.939735 
L 576.839339 311.254015 
L 577.046146 311.810628 
L 581.084345 322.568301 
L 585.763464 333.882587 
L 587.978385 338.889032 
L 590.759194 345.196873 
L 595.501966 356.511158 
L 598.910625 365.485955 
" clip-path="url(#pf501ed4331)" style="fill: none; stroke: #3aba76; stroke-width: 1.5"/>
   </g>
   <g id="PathCollection_25">
    <path d="M 468.071277 28.396875 
L 472.323322 39.711155 
L 476.893961 51.025436 
L 478.655925 54.983258 
L 482.115338 62.339738 
L 487.058496 73.654018 
L 489.588175 79.643809 
L 491.997547 84.968299 
L 497.501286 96.282601 
L 500.520425 102.060304 
L 503.458806 107.596881 
L 509.722343 118.911162 
L 511.452665 121.681761 
L 516.80022 130.225442 
L 522.384905 140.043647 
L 523.196998 141.539733 
L 529.124428 152.854025 
L 533.317144 161.039644 
L 534.874921 164.168305 
L 540.181689 175.482585 
L 544.249405 185.661338 
L 544.682134 186.796877 
L 548.533972 198.111168 
L 552.24863 209.425448 
L 555.181645 217.502171 
L 556.399988 220.739734 
L 560.910224 232.05402 
L 565.245538 243.368306 
L 566.113885 245.885585 
L 569.149831 254.682592 
L 573.185489 265.996877 
L 577.046146 276.159394 
L 577.472026 277.311163 
L 581.079024 288.625449 
L 584.818973 299.939735 
L 587.978385 308.355087 
L 589.072996 311.254015 
L 593.491386 322.568301 
L 598.087284 333.882587 
L 598.910625 335.744339 
" clip-path="url(#pf501ed4331)" style="fill: none; stroke: #46c06f; stroke-width: 1.5"/>
   </g>
   <g id="PathCollection_26">
    <path d="M 479.809885 28.396875 
L 484.672031 39.711155 
L 489.588175 50.154788 
L 490.000121 51.025436 
L 495.005949 62.339738 
L 500.08376 73.654018 
L 500.520425 74.603281 
L 505.532753 84.968299 
L 511.452665 96.270555 
L 511.459048 96.282601 
L 517.628371 107.596881 
L 522.384905 115.440868 
L 524.468146 118.911162 
L 530.896227 130.225442 
L 533.317144 134.766806 
L 536.80456 141.539733 
L 542.454634 152.854025 
L 544.249405 156.522362 
L 547.84342 164.168305 
L 552.668986 175.482585 
L 555.181645 182.316904 
L 556.79937 186.796877 
L 560.574018 198.111168 
L 564.402892 209.425448 
L 566.113885 213.807363 
L 568.880691 220.739734 
L 573.516554 232.05402 
L 577.046146 241.173678 
L 577.897028 243.368306 
L 581.857846 254.682592 
L 585.878174 265.996877 
L 587.978385 271.848878 
L 589.898872 277.311163 
L 593.373173 288.625449 
L 597.112179 299.939735 
L 598.910625 304.690732 
" clip-path="url(#pf501ed4331)" style="fill: none; stroke: #56c667; stroke-width: 1.5"/>
   </g>
   <g id="PathCollection_27">
    <path d="M 492.510087 28.396875 
L 497.8781 39.711155 
L 500.520425 45.471809 
L 503.023009 51.025436 
L 508.230074 62.339738 
L 511.452665 68.967874 
L 513.763685 73.654018 
L 519.502775 84.968299 
L 522.384905 90.428614 
L 525.557474 96.282601 
L 532.242298 107.596881 
L 533.317144 109.417127 
L 538.661221 118.911162 
L 544.249405 129.532246 
L 544.602611 130.225442 
L 550.212263 141.539733 
L 555.181645 152.100699 
L 555.52664 152.854025 
L 560.513437 164.168305 
L 564.9332 175.482585 
L 566.113885 178.782321 
L 568.924489 186.796877 
L 572.578932 198.111168 
L 576.625055 209.425448 
L 577.046146 210.453559 
L 581.346906 220.739734 
L 586.091405 232.05402 
L 587.978385 236.877682 
L 590.515139 243.368306 
L 594.472653 254.682592 
L 598.477757 265.996877 
L 598.910625 267.261392 
" clip-path="url(#pf501ed4331)" style="fill: none; stroke: #65cb5e; stroke-width: 1.5"/>
   </g>
   <g id="PathCollection_28">
    <path d="M 505.767897 28.396875 
L 511.045468 39.711155 
L 511.452665 40.612812 
L 516.45928 51.025436 
L 522.033714 62.339738 
L 522.384905 63.051305 
L 527.700268 73.654018 
L 533.317144 84.498959 
L 533.566769 84.968299 
L 540.135418 96.282601 
L 544.249405 103.456822 
L 546.508374 107.596881 
L 552.45098 118.911162 
L 555.181645 124.299893 
L 558.097568 130.225442 
L 563.307331 141.539733 
L 566.113885 147.674965 
L 568.434336 152.854025 
L 572.925312 164.168305 
L 577.046146 175.31881 
L 577.105793 175.482585 
L 580.903317 186.796877 
L 584.671171 198.111168 
L 587.978385 206.776377 
L 589.012402 209.425448 
L 593.81835 220.739734 
L 598.602596 232.05402 
L 598.910625 232.837955 
" clip-path="url(#pf501ed4331)" style="fill: none; stroke: #77d153; stroke-width: 1.5"/>
   </g>
   <g id="PathCollection_29">
    <path d="M 519.222611 28.396875 
L 522.384905 35.01192 
L 524.714976 39.711155 
L 530.413718 51.025436 
L 533.317144 56.922144 
L 536.019787 62.339738 
L 541.842508 73.654018 
L 544.249405 78.116231 
L 548.076841 84.968299 
L 554.485303 96.282601 
L 555.181645 97.571546 
L 560.454403 107.596881 
L 566.081397 118.911162 
L 566.113885 118.979028 
L 571.22881 130.225442 
L 576.280828 141.539733 
L 577.046146 143.291689 
L 581.014183 152.854025 
L 585.261307 164.168305 
L 587.978385 171.858064 
L 589.229745 175.482585 
L 592.889836 186.796877 
L 596.911015 198.111168 
L 598.910625 203.175053 
" clip-path="url(#pf501ed4331)" style="fill: none; stroke: #89d548; stroke-width: 1.5"/>
   </g>
   <g id="PathCollection_30">
    <path d="M 532.984977 28.396875 
L 533.317144 29.055218 
L 538.844366 39.711155 
L 544.249405 50.521415 
L 544.500953 51.025436 
L 550.19638 62.339738 
L 555.181645 71.753952 
L 556.214697 73.654018 
L 562.543397 84.968299 
L 566.113885 91.716371 
L 568.464922 96.282601 
L 574.110127 107.596881 
L 577.046146 113.87956 
L 579.293338 118.911162 
L 584.166454 130.225442 
L 587.978385 138.881586 
L 589.111909 141.539733 
L 593.368367 152.854025 
L 597.54427 164.168305 
L 598.910625 168.245863 
" clip-path="url(#pf501ed4331)" style="fill: none; stroke: #9dd93b; stroke-width: 1.5"/>
   </g>
   <g id="PathCollection_31">
    <path d="M 547.310159 28.396875 
L 553.130377 39.711155 
L 555.181645 43.86333 
L 558.695378 51.025436 
L 564.546463 62.339738 
L 566.113885 65.190565 
L 570.720185 73.654018 
L 576.525789 84.968299 
L 577.046146 85.980651 
L 582.188899 96.282601 
L 587.442958 107.596881 
L 587.978385 108.833215 
L 592.200833 118.911162 
L 597.124661 130.225442 
L 598.910625 134.612373 
" clip-path="url(#pf501ed4331)" style="fill: none; stroke: #b0dd2f; stroke-width: 1.5"/>
   </g>
   <g id="PathCollection_32">
    <path d="M 561.714183 28.396875 
L 566.113885 37.329618 
L 567.286504 39.711155 
L 572.986813 51.025436 
L 577.046146 58.667233 
L 578.969595 62.339738 
L 584.751964 73.654018 
L 587.978385 80.116926 
L 590.341046 84.968299 
L 595.552995 96.282601 
L 598.910625 104.096551 
" clip-path="url(#pf501ed4331)" style="fill: none; stroke: #c5e021; stroke-width: 1.5"/>
   </g>
   <g id="PathCollection_33">
    <path d="M 576.01217 28.396875 
L 577.046146 30.501216 
L 581.539222 39.711155 
L 587.358601 51.025436 
L 587.978385 52.225172 
L 593.072792 62.339738 
L 598.621087 73.654018 
L 598.910625 74.264895 
" clip-path="url(#pf501ed4331)" style="fill: none; stroke: #d8e219; stroke-width: 1.5"/>
   </g>
   <g id="PathCollection_34">
    <path d="M 590.159072 28.396875 
L 595.803525 39.711155 
L 598.910625 45.835779 
" clip-path="url(#pf501ed4331)" style="fill: none; stroke: #ece51b; stroke-width: 1.5"/>
   </g>
   <g id="PathCollection_35"/>
   <g id="line2d_29">
    <defs>
     <path id="mde0abad7a1" d="M 0 2.5 
C 0.663008 2.5 1.29895 2.236584 1.767767 1.767767 
C 2.236584 1.29895 2.5 0.663008 2.5 0 
C 2.5 -0.663008 2.236584 -1.29895 1.767767 -1.767767 
C 1.29895 -2.236584 0.663008 -2.5 0 -2.5 
C -0.663008 -2.5 -1.29895 -2.236584 -1.767767 -1.767767 
C -2.236584 -1.29895 -2.5 -0.663008 -2.5 0 
C -2.5 0.663008 -2.236584 1.29895 -1.767767 1.767767 
C -1.29895 2.236584 -0.663008 2.5 0 2.5 
z
" style="stroke: #ff0000"/>
    </defs>
    <g clip-path="url(#pf501ed4331)">
     <use xlink:href="#mde0abad7a1" x="331.070625" y="305.596875" style="fill: #ff0000; stroke: #ff0000"/>
    </g>
   </g>
   <g id="patch_3">
    <path d="M 63.230625 582.796875 
L 63.230625 28.396875 
" style="fill: none; stroke: #000000; stroke-width: 0.8; stroke-linejoin: miter; stroke-linecap: square"/>
   </g>
   <g id="patch_4">
    <path d="M 598.910625 582.796875 
L 598.910625 28.396875 
" style="fill: none; stroke: #000000; stroke-width: 0.8; stroke-linejoin: miter; stroke-linecap: square"/>
   </g>
   <g id="patch_5">
    <path d="M 63.230625 582.796875 
L 598.910625 582.796875 
" style="fill: none; stroke: #000000; stroke-width: 0.8; stroke-linejoin: miter; stroke-linecap: square"/>
   </g>
   <g id="patch_6">
    <path d="M 63.230625 28.396875 
L 598.910625 28.396875 
" style="fill: none; stroke: #000000; stroke-width: 0.8; stroke-linejoin: miter; stroke-linecap: square"/>
   </g>
   <g id="text_17">
    <!-- Loss Landscape Contour -->
    <g transform="translate(209.13 22.396875) scale(0.2 -0.2)">
     <defs>
      <path id="DejaVuSans-4c" d="M 628 4666 
L 1259 4666 
L 1259 531 
L 3531 531 
L 3531 0 
L 628 0 
L 628 4666 
z
" transform="scale(0.015625)"/>
      <path id="DejaVuSans-73" d="M 2834 3397 
L 2834 2853 
Q 2591 2978 2328 3040 
Q 2066 3103 1784 3103 
Q 1356 3103 1142 2972 
Q 928 2841 928 2578 
Q 928 2378 1081 2264 
Q 1234 2150 1697 2047 
L 1894 2003 
Q 2506 1872 2764 1633 
Q 3022 1394 3022 966 
Q 3022 478 2636 193 
Q 2250 -91 1575 -91 
Q 1294 -91 989 -36 
Q 684 19 347 128 
L 347 722 
Q 666 556 975 473 
Q 1284 391 1588 391 
Q 1994 391 2212 530 
Q 2431 669 2431 922 
Q 2431 1156 2273 1281 
Q 2116 1406 1581 1522 
L 1381 1569 
Q 847 1681 609 1914 
Q 372 2147 372 2553 
Q 372 3047 722 3315 
Q 1072 3584 1716 3584 
Q 2034 3584 2315 3537 
Q 2597 3491 2834 3397 
z
" transform="scale(0.015625)"/>
      <path id="DejaVuSans-61" d="M 2194 1759 
Q 1497 1759 1228 1600 
Q 959 1441 959 1056 
Q 959 750 1161 570 
Q 1363 391 1709 391 
Q 2188 391 2477 730 
Q 2766 1069 2766 1631 
L 2766 1759 
L 2194 1759 
z
M 3341 1997 
L 3341 0 
L 2766 0 
L 2766 531 
Q 2569 213 2275 61 
Q 1981 -91 1556 -91 
Q 1019 -91 701 211 
Q 384 513 384 1019 
Q 384 1609 779 1909 
Q 1175 2209 1959 2209 
L 2766 2209 
L 2766 2266 
Q 2766 2663 2505 2880 
Q 2244 3097 1772 3097 
Q 1472 3097 1187 3025 
Q 903 2953 641 2809 
L 641 3341 
Q 956 3463 1253 3523 
Q 1550 3584 1831 3584 
Q 2591 3584 2966 3190 
Q 3341 2797 3341 1997 
z
" transform="scale(0.015625)"/>
      <path id="DejaVuSans-64" d="M 2906 2969 
L 2906 4863 
L 3481 4863 
L 3481 0 
L 2906 0 
L 2906 525 
Q 2725 213 2448 61 
Q 2172 -91 1784 -91 
Q 1150 -91 751 415 
Q 353 922 353 1747 
Q 353 2572 751 3078 
Q 1150 3584 1784 3584 
Q 2172 3584 2448 3432 
Q 2725 3281 2906 2969 
z
M 947 1747 
Q 947 1113 1208 752 
Q 1469 391 1925 391 
Q 2381 391 2643 752 
Q 2906 1113 2906 1747 
Q 2906 2381 2643 2742 
Q 2381 3103 1925 3103 
Q 1469 3103 1208 2742 
Q 947 2381 947 1747 
z
" transform="scale(0.015625)"/>
      <path id="DejaVuSans-70" d="M 1159 525 
L 1159 -1331 
L 581 -1331 
L 581 3500 
L 1159 3500 
L 1159 2969 
Q 1341 3281 1617 3432 
Q 1894 3584 2278 3584 
Q 2916 3584 3314 3078 
Q 3713 2572 3713 1747 
Q 3713 922 3314 415 
Q 2916 -91 2278 -91 
Q 1894 -91 1617 61 
Q 1341 213 1159 525 
z
M 3116 1747 
Q 3116 2381 2855 2742 
Q 2594 3103 2138 3103 
Q 1681 3103 1420 2742 
Q 1159 2381 1159 1747 
Q 1159 1113 1420 752 
Q 1681 391 2138 391 
Q 2594 391 2855 752 
Q 3116 1113 3116 1747 
z
" transform="scale(0.015625)"/>
      <path id="DejaVuSans-43" d="M 4122 4306 
L 4122 3641 
Q 3803 3938 3442 4084 
Q 3081 4231 2675 4231 
Q 1875 4231 1450 3742 
Q 1025 3253 1025 2328 
Q 1025 1406 1450 917 
Q 1875 428 2675 428 
Q 3081 428 3442 575 
Q 3803 722 4122 1019 
L 4122 359 
Q 3791 134 3420 21 
Q 3050 -91 2638 -91 
Q 1578 -91 968 557 
Q 359 1206 359 2328 
Q 359 3453 968 4101 
Q 1578 4750 2638 4750 
Q 3056 4750 3426 4639 
Q 3797 4528 4122 4306 
z
" transform="scale(0.015625)"/>
      <path id="DejaVuSans-75" d="M 544 1381 
L 544 3500 
L 1119 3500 
L 1119 1403 
Q 1119 906 1312 657 
Q 1506 409 1894 409 
Q 2359 409 2629 706 
Q 2900 1003 2900 1516 
L 2900 3500 
L 3475 3500 
L 3475 0 
L 2900 0 
L 2900 538 
Q 2691 219 2414 64 
Q 2138 -91 1772 -91 
Q 1169 -91 856 284 
Q 544 659 544 1381 
z
M 1991 3584 
L 1991 3584 
z
" transform="scale(0.015625)"/>
     </defs>
     <use xlink:href="#DejaVuSans-4c"/>
     <use xlink:href="#DejaVuSans-6f" x="53.962891"/>
     <use xlink:href="#DejaVuSans-73" x="115.144531"/>
     <use xlink:href="#DejaVuSans-73" x="167.244141"/>
     <use xlink:href="#DejaVuSans-20" x="219.34375"/>
     <use xlink:href="#DejaVuSans-4c" x="251.130859"/>
     <use xlink:href="#DejaVuSans-61" x="306.84375"/>
     <use xlink:href="#DejaVuSans-6e" x="368.123047"/>
     <use xlink:href="#DejaVuSans-64" x="431.501953"/>
     <use xlink:href="#DejaVuSans-73" x="494.978516"/>
     <use xlink:href="#DejaVuSans-63" x="547.078125"/>
     <use xlink:href="#DejaVuSans-61" x="602.058594"/>
     <use xlink:href="#DejaVuSans-70" x="663.337891"/>
     <use xlink:href="#DejaVuSans-65" x="726.814453"/>
     <use xlink:href="#DejaVuSans-20" x="788.337891"/>
     <use xlink:href="#DejaVuSans-43" x="820.125"/>
     <use xlink:href="#DejaVuSans-6f" x="889.949219"/>
     <use xlink:href="#DejaVuSans-6e" x="951.130859"/>
     <use xlink:href="#DejaVuSans-74" x="1014.509766"/>
     <use xlink:href="#DejaVuSans-6f" x="1053.71875"/>
     <use xlink:href="#DejaVuSans-75" x="1114.900391"/>
     <use xlink:href="#DejaVuSans-72" x="1178.279297"/>
    </g>
   </g>
   <g id="legend_1">
    <g id="patch_7">
     <path d="M 487.777813 51.075 
L 591.910625 51.075 
Q 593.910625 51.075 593.910625 49.075 
L 593.910625 35.396875 
Q 593.910625 33.396875 591.910625 33.396875 
L 487.777813 33.396875 
Q 485.777813 33.396875 485.777813 35.396875 
L 485.777813 49.075 
Q 485.777813 51.075 487.777813 51.075 
z
" style="fill: #ffffff; opacity: 0.8; stroke: #cccccc; stroke-linejoin: miter"/>
    </g>
    <g id="line2d_30">
     <g>
      <use xlink:href="#mde0abad7a1" x="499.777813" y="41.495313" style="fill: #ff0000; stroke: #ff0000"/>
     </g>
    </g>
    <g id="text_18">
     <!-- Model Position -->
     <g transform="translate(517.777813 44.995313) scale(0.1 -0.1)">
      <defs>
       <path id="DejaVuSans-4d" d="M 628 4666 
L 1569 4666 
L 2759 1491 
L 3956 4666 
L 4897 4666 
L 4897 0 
L 4281 0 
L 4281 4097 
L 3078 897 
L 2444 897 
L 1241 4097 
L 1241 0 
L 628 0 
L 628 4666 
z
" transform="scale(0.015625)"/>
       <path id="DejaVuSans-6c" d="M 603 4863 
L 1178 4863 
L 1178 0 
L 603 0 
L 603 4863 
z
" transform="scale(0.015625)"/>
       <path id="DejaVuSans-50" d="M 1259 4147 
L 1259 2394 
L 2053 2394 
Q 2494 2394 2734 2622 
Q 2975 2850 2975 3272 
Q 2975 3691 2734 3919 
Q 2494 4147 2053 4147 
L 1259 4147 
z
M 628 4666 
L 2053 4666 
Q 2838 4666 3239 4311 
Q 3641 3956 3641 3272 
Q 3641 2581 3239 2228 
Q 2838 1875 2053 1875 
L 1259 1875 
L 1259 0 
L 628 0 
L 628 4666 
z
" transform="scale(0.015625)"/>
      </defs>
      <use xlink:href="#DejaVuSans-4d"/>
      <use xlink:href="#DejaVuSans-6f" x="86.279297"/>
      <use xlink:href="#DejaVuSans-64" x="147.460938"/>
      <use xlink:href="#DejaVuSans-65" x="210.9375"/>
      <use xlink:href="#DejaVuSans-6c" x="272.460938"/>
      <use xlink:href="#DejaVuSans-20" x="300.244141"/>
      <use xlink:href="#DejaVuSans-50" x="332.03125"/>
      <use xlink:href="#DejaVuSans-6f" x="388.708984"/>
      <use xlink:href="#DejaVuSans-73" x="449.890625"/>
      <use xlink:href="#DejaVuSans-69" x="501.990234"/>
      <use xlink:href="#DejaVuSans-74" x="529.773438"/>
      <use xlink:href="#DejaVuSans-69" x="568.982422"/>
      <use xlink:href="#DejaVuSans-6f" x="596.765625"/>
      <use xlink:href="#DejaVuSans-6e" x="657.947266"/>
     </g>
    </g>
   </g>
  </g>
  <g id="axes_2">
   <g id="patch_8">
    <path d="M 632.390625 582.796875 
L 660.110625 582.796875 
L 660.110625 28.396875 
L 632.390625 28.396875 
z
" style="fill: #ffffff"/>
   </g>
   <g id="patch_9">
    <path clip-path="url(#p846684aecb)" style="fill: #ffffff; stroke: #ffffff; stroke-width: 0.01; stroke-linejoin: miter"/>
   </g>
   <g id="matplotlib.axis_3"/>
   <g id="matplotlib.axis_4">
    <g id="ytick_8">
     <g id="line2d_31">
      <g>
       <use xlink:href="#ma145a2a15a" x="660.110625" y="566.490993" style="stroke: #000000; stroke-width: 0.8"/>
      </g>
     </g>
     <g id="text_19">
      <!-- 0 -->
      <g transform="translate(663.610625 572.569743) scale(0.16 -0.16)">
       <use xlink:href="#DejaVuSans-30"/>
      </g>
     </g>
    </g>
    <g id="ytick_9">
     <g id="line2d_32">
      <g>
       <use xlink:href="#ma145a2a15a" x="660.110625" y="501.267463" style="stroke: #000000; stroke-width: 0.8"/>
      </g>
     </g>
     <g id="text_20">
      <!-- 4 -->
      <g transform="translate(663.610625 507.346213) scale(0.16 -0.16)">
       <defs>
        <path id="DejaVuSans-34" d="M 2419 4116 
L 825 1625 
L 2419 1625 
L 2419 4116 
z
M 2253 4666 
L 3047 4666 
L 3047 1625 
L 3713 1625 
L 3713 1100 
L 3047 1100 
L 3047 0 
L 2419 0 
L 2419 1100 
L 313 1100 
L 313 1709 
L 2253 4666 
z
" transform="scale(0.015625)"/>
       </defs>
       <use xlink:href="#DejaVuSans-34"/>
      </g>
     </g>
    </g>
    <g id="ytick_10">
     <g id="line2d_33">
      <g>
       <use xlink:href="#ma145a2a15a" x="660.110625" y="436.043934" style="stroke: #000000; stroke-width: 0.8"/>
      </g>
     </g>
     <g id="text_21">
      <!-- 8 -->
      <g transform="translate(663.610625 442.122684) scale(0.16 -0.16)">
       <defs>
        <path id="DejaVuSans-38" d="M 2034 2216 
Q 1584 2216 1326 1975 
Q 1069 1734 1069 1313 
Q 1069 891 1326 650 
Q 1584 409 2034 409 
Q 2484 409 2743 651 
Q 3003 894 3003 1313 
Q 3003 1734 2745 1975 
Q 2488 2216 2034 2216 
z
M 1403 2484 
Q 997 2584 770 2862 
Q 544 3141 544 3541 
Q 544 4100 942 4425 
Q 1341 4750 2034 4750 
Q 2731 4750 3128 4425 
Q 3525 4100 3525 3541 
Q 3525 3141 3298 2862 
Q 3072 2584 2669 2484 
Q 3125 2378 3379 2068 
Q 3634 1759 3634 1313 
Q 3634 634 3220 271 
Q 2806 -91 2034 -91 
Q 1263 -91 848 271 
Q 434 634 434 1313 
Q 434 1759 690 2068 
Q 947 2378 1403 2484 
z
M 1172 3481 
Q 1172 3119 1398 2916 
Q 1625 2713 2034 2713 
Q 2441 2713 2670 2916 
Q 2900 3119 2900 3481 
Q 2900 3844 2670 4047 
Q 2441 4250 2034 4250 
Q 1625 4250 1398 4047 
Q 1172 3844 1172 3481 
z
" transform="scale(0.015625)"/>
       </defs>
       <use xlink:href="#DejaVuSans-38"/>
      </g>
     </g>
    </g>
    <g id="ytick_11">
     <g id="line2d_34">
      <g>
       <use xlink:href="#ma145a2a15a" x="660.110625" y="370.820404" style="stroke: #000000; stroke-width: 0.8"/>
      </g>
     </g>
     <g id="text_22">
      <!-- 12 -->
      <g transform="translate(663.610625 376.899154) scale(0.16 -0.16)">
       <use xlink:href="#DejaVuSans-31"/>
       <use xlink:href="#DejaVuSans-32" x="63.623047"/>
      </g>
     </g>
    </g>
    <g id="ytick_12">
     <g id="line2d_35">
      <g>
       <use xlink:href="#ma145a2a15a" x="660.110625" y="305.596875" style="stroke: #000000; stroke-width: 0.8"/>
      </g>
     </g>
     <g id="text_23">
      <!-- 16 -->
      <g transform="translate(663.610625 311.675625) scale(0.16 -0.16)">
       <defs>
        <path id="DejaVuSans-36" d="M 2113 2584 
Q 1688 2584 1439 2293 
Q 1191 2003 1191 1497 
Q 1191 994 1439 701 
Q 1688 409 2113 409 
Q 2538 409 2786 701 
Q 3034 994 3034 1497 
Q 3034 2003 2786 2293 
Q 2538 2584 2113 2584 
z
M 3366 4563 
L 3366 3988 
Q 3128 4100 2886 4159 
Q 2644 4219 2406 4219 
Q 1781 4219 1451 3797 
Q 1122 3375 1075 2522 
Q 1259 2794 1537 2939 
Q 1816 3084 2150 3084 
Q 2853 3084 3261 2657 
Q 3669 2231 3669 1497 
Q 3669 778 3244 343 
Q 2819 -91 2113 -91 
Q 1303 -91 875 529 
Q 447 1150 447 2328 
Q 447 3434 972 4092 
Q 1497 4750 2381 4750 
Q 2619 4750 2861 4703 
Q 3103 4656 3366 4563 
z
" transform="scale(0.015625)"/>
       </defs>
       <use xlink:href="#DejaVuSans-31"/>
       <use xlink:href="#DejaVuSans-36" x="63.623047"/>
      </g>
     </g>
    </g>
    <g id="ytick_13">
     <g id="line2d_36">
      <g>
       <use xlink:href="#ma145a2a15a" x="660.110625" y="240.373346" style="stroke: #000000; stroke-width: 0.8"/>
      </g>
     </g>
     <g id="text_24">
      <!-- 20 -->
      <g transform="translate(663.610625 246.452096) scale(0.16 -0.16)">
       <use xlink:href="#DejaVuSans-32"/>
       <use xlink:href="#DejaVuSans-30" x="63.623047"/>
      </g>
     </g>
    </g>
    <g id="ytick_14">
     <g id="line2d_37">
      <g>
       <use xlink:href="#ma145a2a15a" x="660.110625" y="175.149816" style="stroke: #000000; stroke-width: 0.8"/>
      </g>
     </g>
     <g id="text_25">
      <!-- 24 -->
      <g transform="translate(663.610625 181.228566) scale(0.16 -0.16)">
       <use xlink:href="#DejaVuSans-32"/>
       <use xlink:href="#DejaVuSans-34" x="63.623047"/>
      </g>
     </g>
    </g>
    <g id="ytick_15">
     <g id="line2d_38">
      <g>
       <use xlink:href="#ma145a2a15a" x="660.110625" y="109.926287" style="stroke: #000000; stroke-width: 0.8"/>
      </g>
     </g>
     <g id="text_26">
      <!-- 28 -->
      <g transform="translate(663.610625 116.005037) scale(0.16 -0.16)">
       <use xlink:href="#DejaVuSans-32"/>
       <use xlink:href="#DejaVuSans-38" x="63.623047"/>
      </g>
     </g>
    </g>
    <g id="ytick_16">
     <g id="line2d_39">
      <g>
       <use xlink:href="#ma145a2a15a" x="660.110625" y="44.702757" style="stroke: #000000; stroke-width: 0.8"/>
      </g>
     </g>
     <g id="text_27">
      <!-- 32 -->
      <g transform="translate(663.610625 50.781507) scale(0.16 -0.16)">
       <defs>
        <path id="DejaVuSans-33" d="M 2597 2516 
Q 3050 2419 3304 2112 
Q 3559 1806 3559 1356 
Q 3559 666 3084 287 
Q 2609 -91 1734 -91 
Q 1441 -91 1130 -33 
Q 819 25 488 141 
L 488 750 
Q 750 597 1062 519 
Q 1375 441 1716 441 
Q 2309 441 2620 675 
Q 2931 909 2931 1356 
Q 2931 1769 2642 2001 
Q 2353 2234 1838 2234 
L 1294 2234 
L 1294 2753 
L 1863 2753 
Q 2328 2753 2575 2939 
Q 2822 3125 2822 3475 
Q 2822 3834 2567 4026 
Q 2313 4219 1838 4219 
Q 1578 4219 1281 4162 
Q 984 4106 628 3988 
L 628 4550 
Q 988 4650 1302 4700 
Q 1616 4750 1894 4750 
Q 2613 4750 3031 4423 
Q 3450 4097 3450 3541 
Q 3450 3153 3228 2886 
Q 3006 2619 2597 2516 
z
" transform="scale(0.015625)"/>
       </defs>
       <use xlink:href="#DejaVuSans-33"/>
       <use xlink:href="#DejaVuSans-32" x="63.623047"/>
      </g>
     </g>
    </g>
    <g id="text_28">
     <!-- Loss -->
     <g transform="translate(695.569063 316.564063) rotate(-90) scale(0.1 -0.1)">
      <use xlink:href="#DejaVuSans-4c"/>
      <use xlink:href="#DejaVuSans-6f" x="53.962891"/>
      <use xlink:href="#DejaVuSans-73" x="115.144531"/>
      <use xlink:href="#DejaVuSans-73" x="167.244141"/>
     </g>
    </g>
   </g>
   <g id="LineCollection_1"/>
   <g id="LineCollection_2">
    <path d="M 632.390625 582.796875 
L 660.110625 582.796875 
" clip-path="url(#p4a86497992)" style="fill: none; stroke: #440154; stroke-width: 1.5"/>
    <path d="M 632.390625 566.490993 
L 660.110625 566.490993 
" clip-path="url(#p4a86497992)" style="fill: none; stroke: #460b5e; stroke-width: 1.5"/>
    <path d="M 632.390625 550.18511 
L 660.110625 550.18511 
" clip-path="url(#p4a86497992)" style="fill: none; stroke: #481769; stroke-width: 1.5"/>
    <path d="M 632.390625 533.879228 
L 660.110625 533.879228 
" clip-path="url(#p4a86497992)" style="fill: none; stroke: #482071; stroke-width: 1.5"/>
    <path d="M 632.390625 517.573346 
L 660.110625 517.573346 
" clip-path="url(#p4a86497992)" style="fill: none; stroke: #472a7a; stroke-width: 1.5"/>
    <path d="M 632.390625 501.267463 
L 660.110625 501.267463 
" clip-path="url(#p4a86497992)" style="fill: none; stroke: #46337f; stroke-width: 1.5"/>
    <path d="M 632.390625 484.961581 
L 660.110625 484.961581 
" clip-path="url(#p4a86497992)" style="fill: none; stroke: #433d84; stroke-width: 1.5"/>
    <path d="M 632.390625 468.655699 
L 660.110625 468.655699 
" clip-path="url(#p4a86497992)" style="fill: none; stroke: #404588; stroke-width: 1.5"/>
    <path d="M 632.390625 452.349816 
L 660.110625 452.349816 
" clip-path="url(#p4a86497992)" style="fill: none; stroke: #3d4e8a; stroke-width: 1.5"/>
    <path d="M 632.390625 436.043934 
L 660.110625 436.043934 
" clip-path="url(#p4a86497992)" style="fill: none; stroke: #39558c; stroke-width: 1.5"/>
    <path d="M 632.390625 419.738051 
L 660.110625 419.738051 
" clip-path="url(#p4a86497992)" style="fill: none; stroke: #355e8d; stroke-width: 1.5"/>
    <path d="M 632.390625 403.432169 
L 660.110625 403.432169 
" clip-path="url(#p4a86497992)" style="fill: none; stroke: #32658e; stroke-width: 1.5"/>
    <path d="M 632.390625 387.126287 
L 660.110625 387.126287 
" clip-path="url(#p4a86497992)" style="fill: none; stroke: #2e6d8e; stroke-width: 1.5"/>
    <path d="M 632.390625 370.820404 
L 660.110625 370.820404 
" clip-path="url(#p4a86497992)" style="fill: none; stroke: #2c738e; stroke-width: 1.5"/>
    <path d="M 632.390625 354.514522 
L 660.110625 354.514522 
" clip-path="url(#p4a86497992)" style="fill: none; stroke: #297b8e; stroke-width: 1.5"/>
    <path d="M 632.390625 338.20864 
L 660.110625 338.20864 
" clip-path="url(#p4a86497992)" style="fill: none; stroke: #26828e; stroke-width: 1.5"/>
    <path d="M 632.390625 321.902757 
L 660.110625 321.902757 
" clip-path="url(#p4a86497992)" style="fill: none; stroke: #23898e; stroke-width: 1.5"/>
    <path d="M 632.390625 305.596875 
L 660.110625 305.596875 
" clip-path="url(#p4a86497992)" style="fill: none; stroke: #21918c; stroke-width: 1.5"/>
    <path d="M 632.390625 289.290993 
L 660.110625 289.290993 
" clip-path="url(#p4a86497992)" style="fill: none; stroke: #1f978b; stroke-width: 1.5"/>
    <path d="M 632.390625 272.98511 
L 660.110625 272.98511 
" clip-path="url(#p4a86497992)" style="fill: none; stroke: #1f9f88; stroke-width: 1.5"/>
    <path d="M 632.390625 256.679228 
L 660.110625 256.679228 
" clip-path="url(#p4a86497992)" style="fill: none; stroke: #21a585; stroke-width: 1.5"/>
    <path d="M 632.390625 240.373346 
L 660.110625 240.373346 
" clip-path="url(#p4a86497992)" style="fill: none; stroke: #26ad81; stroke-width: 1.5"/>
    <path d="M 632.390625 224.067463 
L 660.110625 224.067463 
" clip-path="url(#p4a86497992)" style="fill: none; stroke: #2eb37c; stroke-width: 1.5"/>
    <path d="M 632.390625 207.761581 
L 660.110625 207.761581 
" clip-path="url(#p4a86497992)" style="fill: none; stroke: #3aba76; stroke-width: 1.5"/>
    <path d="M 632.390625 191.455699 
L 660.110625 191.455699 
" clip-path="url(#p4a86497992)" style="fill: none; stroke: #46c06f; stroke-width: 1.5"/>
    <path d="M 632.390625 175.149816 
L 660.110625 175.149816 
" clip-path="url(#p4a86497992)" style="fill: none; stroke: #56c667; stroke-width: 1.5"/>
    <path d="M 632.390625 158.843934 
L 660.110625 158.843934 
" clip-path="url(#p4a86497992)" style="fill: none; stroke: #65cb5e; stroke-width: 1.5"/>
    <path d="M 632.390625 142.538051 
L 660.110625 142.538051 
" clip-path="url(#p4a86497992)" style="fill: none; stroke: #77d153; stroke-width: 1.5"/>
    <path d="M 632.390625 126.232169 
L 660.110625 126.232169 
" clip-path="url(#p4a86497992)" style="fill: none; stroke: #89d548; stroke-width: 1.5"/>
    <path d="M 632.390625 109.926287 
L 660.110625 109.926287 
" clip-path="url(#p4a86497992)" style="fill: none; stroke: #9dd93b; stroke-width: 1.5"/>
    <path d="M 632.390625 93.620404 
L 660.110625 93.620404 
" clip-path="url(#p4a86497992)" style="fill: none; stroke: #b0dd2f; stroke-width: 1.5"/>
    <path d="M 632.390625 77.314522 
L 660.110625 77.314522 
" clip-path="url(#p4a86497992)" style="fill: none; stroke: #c5e021; stroke-width: 1.5"/>
    <path d="M 632.390625 61.00864 
L 660.110625 61.00864 
" clip-path="url(#p4a86497992)" style="fill: none; stroke: #d8e219; stroke-width: 1.5"/>
    <path d="M 632.390625 44.702757 
L 660.110625 44.702757 
" clip-path="url(#p4a86497992)" style="fill: none; stroke: #ece51b; stroke-width: 1.5"/>
    <path d="M 632.390625 28.396875 
L 660.110625 28.396875 
" clip-path="url(#p4a86497992)" style="fill: none; stroke: #fde725; stroke-width: 1.5"/>
   </g>
   <g id="patch_10">
    <path d="M 632.390625 582.796875 
L 646.250625 582.796875 
L 660.110625 582.796875 
L 660.110625 28.396875 
L 646.250625 28.396875 
L 632.390625 28.396875 
L 632.390625 582.796875 
z
" style="fill: none; stroke: #000000; stroke-width: 0.8; stroke-linejoin: miter; stroke-linecap: square"/>
   </g>
  </g>
 </g>
 <defs>
  <clipPath id="pf501ed4331">
   <rect x="63.230625" y="28.396875" width="535.68" height="554.4"/>
  </clipPath>
  <clipPath id="p846684aecb">
   <rect x="632.390625" y="28.396875" width="27.72" height="554.4"/>
  </clipPath>
  <clipPath id="p4a86497992">
   <path d="M 632.390625 584.296875 
L 660.110625 584.296875 
L 660.110625 26.896875 
L 632.390625 26.896875 
z
"/>
  </clipPath>
 </defs>
</svg>
