<?xml version="1.0" encoding="utf-8" standalone="no"?>
<!DOCTYPE svg PUBLIC "-//W3C//DTD SVG 1.1//EN"
  "http://www.w3.org/Graphics/SVG/1.1/DTD/svg11.dtd">
<svg xmlns:xlink="http://www.w3.org/1999/xlink" width="704.84875pt" height="622.66pt" viewBox="0 0 704.84875 622.66" xmlns="http://www.w3.org/2000/svg" version="1.1">
 <metadata>
  <rdf:RDF xmlns:dc="http://purl.org/dc/elements/1.1/" xmlns:cc="http://creativecommons.org/ns#" xmlns:rdf="http://www.w3.org/1999/02/22-rdf-syntax-ns#">
   <cc:Work>
    <dc:type rdf:resource="http://purl.org/dc/dcmitype/StillImage"/>
    <dc:date>2025-02-13T10:37:37.455962</dc:date>
    <dc:format>image/svg+xml</dc:format>
    <dc:creator>
     <cc:Agent>
      <dc:title>Matplotlib v3.6.2, https://matplotlib.org/</dc:title>
     </cc:Agent>
    </dc:creator>
   </cc:Work>
  </rdf:RDF>
 </metadata>
 <defs>
  <style type="text/css">*{stroke-linejoin: round; stroke-linecap: butt}</style>
 </defs>
 <g id="figure_1">
  <g id="patch_1">
   <path d="M 0 622.66 
L 704.84875 622.66 
L 704.84875 0 
L 0 0 
z
" style="fill: #ffffff"/>
  </g>
  <g id="axes_1">
   <g id="patch_2">
    <path d="M 63.230625 582.796875 
L 598.910625 582.796875 
L 598.910625 28.396875 
L 63.230625 28.396875 
z
" style="fill: #ffffff"/>
   </g>
   <g id="matplotlib.axis_1">
    <g id="xtick_1">
     <g id="line2d_1">
      <defs>
       <path id="m8d62af769c" d="M 0 0 
L 0 -3.5 
" style="stroke: #000000; stroke-width: 0.8"/>
      </defs>
      <g>
       <use xlink:href="#m8d62af769c" x="116.798625" y="582.796875" style="stroke: #000000; stroke-width: 0.8"/>
      </g>
     </g>
     <g id="line2d_2">
      <defs>
       <path id="mc5633abb9d" d="M 0 0 
L 0 3.5 
" style="stroke: #000000; stroke-width: 0.8"/>
      </defs>
      <g>
       <use xlink:href="#mc5633abb9d" x="116.798625" y="28.396875" style="stroke: #000000; stroke-width: 0.8"/>
      </g>
     </g>
     <g id="text_1">
      <!-- −0.6 -->
      <g transform="translate(97.372375 598.454375) scale(0.16 -0.16)">
       <defs>
        <path id="DejaVuSans-2212" d="M 678 2272 
L 4684 2272 
L 4684 1741 
L 678 1741 
L 678 2272 
z
" transform="scale(0.015625)"/>
        <path id="DejaVuSans-30" d="M 2034 4250 
Q 1547 4250 1301 3770 
Q 1056 3291 1056 2328 
Q 1056 1369 1301 889 
Q 1547 409 2034 409 
Q 2525 409 2770 889 
Q 3016 1369 3016 2328 
Q 3016 3291 2770 3770 
Q 2525 4250 2034 4250 
z
M 2034 4750 
Q 2819 4750 3233 4129 
Q 3647 3509 3647 2328 
Q 3647 1150 3233 529 
Q 2819 -91 2034 -91 
Q 1250 -91 836 529 
Q 422 1150 422 2328 
Q 422 3509 836 4129 
Q 1250 4750 2034 4750 
z
" transform="scale(0.015625)"/>
        <path id="DejaVuSans-2e" d="M 684 794 
L 1344 794 
L 1344 0 
L 684 0 
L 684 794 
z
" transform="scale(0.015625)"/>
        <path id="DejaVuSans-36" d="M 2113 2584 
Q 1688 2584 1439 2293 
Q 1191 2003 1191 1497 
Q 1191 994 1439 701 
Q 1688 409 2113 409 
Q 2538 409 2786 701 
Q 3034 994 3034 1497 
Q 3034 2003 2786 2293 
Q 2538 2584 2113 2584 
z
M 3366 4563 
L 3366 3988 
Q 3128 4100 2886 4159 
Q 2644 4219 2406 4219 
Q 1781 4219 1451 3797 
Q 1122 3375 1075 2522 
Q 1259 2794 1537 2939 
Q 1816 3084 2150 3084 
Q 2853 3084 3261 2657 
Q 3669 2231 3669 1497 
Q 3669 778 3244 343 
Q 2819 -91 2113 -91 
Q 1303 -91 875 529 
Q 447 1150 447 2328 
Q 447 3434 972 4092 
Q 1497 4750 2381 4750 
Q 2619 4750 2861 4703 
Q 3103 4656 3366 4563 
z
" transform="scale(0.015625)"/>
       </defs>
       <use xlink:href="#DejaVuSans-2212"/>
       <use xlink:href="#DejaVuSans-30" x="83.789062"/>
       <use xlink:href="#DejaVuSans-2e" x="147.412109"/>
       <use xlink:href="#DejaVuSans-36" x="179.199219"/>
      </g>
     </g>
    </g>
    <g id="xtick_2">
     <g id="line2d_3">
      <g>
       <use xlink:href="#m8d62af769c" x="188.222625" y="582.796875" style="stroke: #000000; stroke-width: 0.8"/>
      </g>
     </g>
     <g id="line2d_4">
      <g>
       <use xlink:href="#mc5633abb9d" x="188.222625" y="28.396875" style="stroke: #000000; stroke-width: 0.8"/>
      </g>
     </g>
     <g id="text_2">
      <!-- −0.4 -->
      <g transform="translate(168.796375 598.454375) scale(0.16 -0.16)">
       <defs>
        <path id="DejaVuSans-34" d="M 2419 4116 
L 825 1625 
L 2419 1625 
L 2419 4116 
z
M 2253 4666 
L 3047 4666 
L 3047 1625 
L 3713 1625 
L 3713 1100 
L 3047 1100 
L 3047 0 
L 2419 0 
L 2419 1100 
L 313 1100 
L 313 1709 
L 2253 4666 
z
" transform="scale(0.015625)"/>
       </defs>
       <use xlink:href="#DejaVuSans-2212"/>
       <use xlink:href="#DejaVuSans-30" x="83.789062"/>
       <use xlink:href="#DejaVuSans-2e" x="147.412109"/>
       <use xlink:href="#DejaVuSans-34" x="179.199219"/>
      </g>
     </g>
    </g>
    <g id="xtick_3">
     <g id="line2d_5">
      <g>
       <use xlink:href="#m8d62af769c" x="259.646625" y="582.796875" style="stroke: #000000; stroke-width: 0.8"/>
      </g>
     </g>
     <g id="line2d_6">
      <g>
       <use xlink:href="#mc5633abb9d" x="259.646625" y="28.396875" style="stroke: #000000; stroke-width: 0.8"/>
      </g>
     </g>
     <g id="text_3">
      <!-- −0.2 -->
      <g transform="translate(240.220375 598.454375) scale(0.16 -0.16)">
       <defs>
        <path id="DejaVuSans-32" d="M 1228 531 
L 3431 531 
L 3431 0 
L 469 0 
L 469 531 
Q 828 903 1448 1529 
Q 2069 2156 2228 2338 
Q 2531 2678 2651 2914 
Q 2772 3150 2772 3378 
Q 2772 3750 2511 3984 
Q 2250 4219 1831 4219 
Q 1534 4219 1204 4116 
Q 875 4013 500 3803 
L 500 4441 
Q 881 4594 1212 4672 
Q 1544 4750 1819 4750 
Q 2544 4750 2975 4387 
Q 3406 4025 3406 3419 
Q 3406 3131 3298 2873 
Q 3191 2616 2906 2266 
Q 2828 2175 2409 1742 
Q 1991 1309 1228 531 
z
" transform="scale(0.015625)"/>
       </defs>
       <use xlink:href="#DejaVuSans-2212"/>
       <use xlink:href="#DejaVuSans-30" x="83.789062"/>
       <use xlink:href="#DejaVuSans-2e" x="147.412109"/>
       <use xlink:href="#DejaVuSans-32" x="179.199219"/>
      </g>
     </g>
    </g>
    <g id="xtick_4">
     <g id="line2d_7">
      <g>
       <use xlink:href="#m8d62af769c" x="331.070625" y="582.796875" style="stroke: #000000; stroke-width: 0.8"/>
      </g>
     </g>
     <g id="line2d_8">
      <g>
       <use xlink:href="#mc5633abb9d" x="331.070625" y="28.396875" style="stroke: #000000; stroke-width: 0.8"/>
      </g>
     </g>
     <g id="text_4">
      <!-- 0.0 -->
      <g transform="translate(318.348125 598.454375) scale(0.16 -0.16)">
       <use xlink:href="#DejaVuSans-30"/>
       <use xlink:href="#DejaVuSans-2e" x="63.623047"/>
       <use xlink:href="#DejaVuSans-30" x="95.410156"/>
      </g>
     </g>
    </g>
    <g id="xtick_5">
     <g id="line2d_9">
      <g>
       <use xlink:href="#m8d62af769c" x="402.494625" y="582.796875" style="stroke: #000000; stroke-width: 0.8"/>
      </g>
     </g>
     <g id="line2d_10">
      <g>
       <use xlink:href="#mc5633abb9d" x="402.494625" y="28.396875" style="stroke: #000000; stroke-width: 0.8"/>
      </g>
     </g>
     <g id="text_5">
      <!-- 0.2 -->
      <g transform="translate(389.772125 598.454375) scale(0.16 -0.16)">
       <use xlink:href="#DejaVuSans-30"/>
       <use xlink:href="#DejaVuSans-2e" x="63.623047"/>
       <use xlink:href="#DejaVuSans-32" x="95.410156"/>
      </g>
     </g>
    </g>
    <g id="xtick_6">
     <g id="line2d_11">
      <g>
       <use xlink:href="#m8d62af769c" x="473.918625" y="582.796875" style="stroke: #000000; stroke-width: 0.8"/>
      </g>
     </g>
     <g id="line2d_12">
      <g>
       <use xlink:href="#mc5633abb9d" x="473.918625" y="28.396875" style="stroke: #000000; stroke-width: 0.8"/>
      </g>
     </g>
     <g id="text_6">
      <!-- 0.4 -->
      <g transform="translate(461.196125 598.454375) scale(0.16 -0.16)">
       <use xlink:href="#DejaVuSans-30"/>
       <use xlink:href="#DejaVuSans-2e" x="63.623047"/>
       <use xlink:href="#DejaVuSans-34" x="95.410156"/>
      </g>
     </g>
    </g>
    <g id="xtick_7">
     <g id="line2d_13">
      <g>
       <use xlink:href="#m8d62af769c" x="545.342625" y="582.796875" style="stroke: #000000; stroke-width: 0.8"/>
      </g>
     </g>
     <g id="line2d_14">
      <g>
       <use xlink:href="#mc5633abb9d" x="545.342625" y="28.396875" style="stroke: #000000; stroke-width: 0.8"/>
      </g>
     </g>
     <g id="text_7">
      <!-- 0.6 -->
      <g transform="translate(532.620125 598.454375) scale(0.16 -0.16)">
       <use xlink:href="#DejaVuSans-30"/>
       <use xlink:href="#DejaVuSans-2e" x="63.623047"/>
       <use xlink:href="#DejaVuSans-36" x="95.410156"/>
      </g>
     </g>
    </g>
    <g id="text_8">
     <!-- Direction 1 -->
     <g transform="translate(303.715156 613.380313) scale(0.1 -0.1)">
      <defs>
       <path id="DejaVuSans-44" d="M 1259 4147 
L 1259 519 
L 2022 519 
Q 2988 519 3436 956 
Q 3884 1394 3884 2338 
Q 3884 3275 3436 3711 
Q 2988 4147 2022 4147 
L 1259 4147 
z
M 628 4666 
L 1925 4666 
Q 3281 4666 3915 4102 
Q 4550 3538 4550 2338 
Q 4550 1131 3912 565 
Q 3275 0 1925 0 
L 628 0 
L 628 4666 
z
" transform="scale(0.015625)"/>
       <path id="DejaVuSans-69" d="M 603 3500 
L 1178 3500 
L 1178 0 
L 603 0 
L 603 3500 
z
M 603 4863 
L 1178 4863 
L 1178 4134 
L 603 4134 
L 603 4863 
z
" transform="scale(0.015625)"/>
       <path id="DejaVuSans-72" d="M 2631 2963 
Q 2534 3019 2420 3045 
Q 2306 3072 2169 3072 
Q 1681 3072 1420 2755 
Q 1159 2438 1159 1844 
L 1159 0 
L 581 0 
L 581 3500 
L 1159 3500 
L 1159 2956 
Q 1341 3275 1631 3429 
Q 1922 3584 2338 3584 
Q 2397 3584 2469 3576 
Q 2541 3569 2628 3553 
L 2631 2963 
z
" transform="scale(0.015625)"/>
       <path id="DejaVuSans-65" d="M 3597 1894 
L 3597 1613 
L 953 1613 
Q 991 1019 1311 708 
Q 1631 397 2203 397 
Q 2534 397 2845 478 
Q 3156 559 3463 722 
L 3463 178 
Q 3153 47 2828 -22 
Q 2503 -91 2169 -91 
Q 1331 -91 842 396 
Q 353 884 353 1716 
Q 353 2575 817 3079 
Q 1281 3584 2069 3584 
Q 2775 3584 3186 3129 
Q 3597 2675 3597 1894 
z
M 3022 2063 
Q 3016 2534 2758 2815 
Q 2500 3097 2075 3097 
Q 1594 3097 1305 2825 
Q 1016 2553 972 2059 
L 3022 2063 
z
" transform="scale(0.015625)"/>
       <path id="DejaVuSans-63" d="M 3122 3366 
L 3122 2828 
Q 2878 2963 2633 3030 
Q 2388 3097 2138 3097 
Q 1578 3097 1268 2742 
Q 959 2388 959 1747 
Q 959 1106 1268 751 
Q 1578 397 2138 397 
Q 2388 397 2633 464 
Q 2878 531 3122 666 
L 3122 134 
Q 2881 22 2623 -34 
Q 2366 -91 2075 -91 
Q 1284 -91 818 406 
Q 353 903 353 1747 
Q 353 2603 823 3093 
Q 1294 3584 2113 3584 
Q 2378 3584 2631 3529 
Q 2884 3475 3122 3366 
z
" transform="scale(0.015625)"/>
       <path id="DejaVuSans-74" d="M 1172 4494 
L 1172 3500 
L 2356 3500 
L 2356 3053 
L 1172 3053 
L 1172 1153 
Q 1172 725 1289 603 
Q 1406 481 1766 481 
L 2356 481 
L 2356 0 
L 1766 0 
Q 1100 0 847 248 
Q 594 497 594 1153 
L 594 3053 
L 172 3053 
L 172 3500 
L 594 3500 
L 594 4494 
L 1172 4494 
z
" transform="scale(0.015625)"/>
       <path id="DejaVuSans-6f" d="M 1959 3097 
Q 1497 3097 1228 2736 
Q 959 2375 959 1747 
Q 959 1119 1226 758 
Q 1494 397 1959 397 
Q 2419 397 2687 759 
Q 2956 1122 2956 1747 
Q 2956 2369 2687 2733 
Q 2419 3097 1959 3097 
z
M 1959 3584 
Q 2709 3584 3137 3096 
Q 3566 2609 3566 1747 
Q 3566 888 3137 398 
Q 2709 -91 1959 -91 
Q 1206 -91 779 398 
Q 353 888 353 1747 
Q 353 2609 779 3096 
Q 1206 3584 1959 3584 
z
" transform="scale(0.015625)"/>
       <path id="DejaVuSans-6e" d="M 3513 2113 
L 3513 0 
L 2938 0 
L 2938 2094 
Q 2938 2591 2744 2837 
Q 2550 3084 2163 3084 
Q 1697 3084 1428 2787 
Q 1159 2491 1159 1978 
L 1159 0 
L 581 0 
L 581 3500 
L 1159 3500 
L 1159 2956 
Q 1366 3272 1645 3428 
Q 1925 3584 2291 3584 
Q 2894 3584 3203 3211 
Q 3513 2838 3513 2113 
z
" transform="scale(0.015625)"/>
       <path id="DejaVuSans-20" transform="scale(0.015625)"/>
       <path id="DejaVuSans-31" d="M 794 531 
L 1825 531 
L 1825 4091 
L 703 3866 
L 703 4441 
L 1819 4666 
L 2450 4666 
L 2450 531 
L 3481 531 
L 3481 0 
L 794 0 
L 794 531 
z
" transform="scale(0.015625)"/>
      </defs>
      <use xlink:href="#DejaVuSans-44"/>
      <use xlink:href="#DejaVuSans-69" x="77.001953"/>
      <use xlink:href="#DejaVuSans-72" x="104.785156"/>
      <use xlink:href="#DejaVuSans-65" x="143.648438"/>
      <use xlink:href="#DejaVuSans-63" x="205.171875"/>
      <use xlink:href="#DejaVuSans-74" x="260.152344"/>
      <use xlink:href="#DejaVuSans-69" x="299.361328"/>
      <use xlink:href="#DejaVuSans-6f" x="327.144531"/>
      <use xlink:href="#DejaVuSans-6e" x="388.326172"/>
      <use xlink:href="#DejaVuSans-20" x="451.705078"/>
      <use xlink:href="#DejaVuSans-31" x="483.492188"/>
     </g>
    </g>
   </g>
   <g id="matplotlib.axis_2">
    <g id="ytick_1">
     <g id="line2d_15">
      <defs>
       <path id="ma0c55b6906" d="M 0 0 
L 3.5 0 
" style="stroke: #000000; stroke-width: 0.8"/>
      </defs>
      <g>
       <use xlink:href="#ma0c55b6906" x="63.230625" y="527.356875" style="stroke: #000000; stroke-width: 0.8"/>
      </g>
     </g>
     <g id="line2d_16">
      <defs>
       <path id="mb6bbc149c2" d="M 0 0 
L -3.5 0 
" style="stroke: #000000; stroke-width: 0.8"/>
      </defs>
      <g>
       <use xlink:href="#mb6bbc149c2" x="598.910625" y="527.356875" style="stroke: #000000; stroke-width: 0.8"/>
      </g>
     </g>
     <g id="text_9">
      <!-- −0.6 -->
      <g transform="translate(20.878125 533.435625) scale(0.16 -0.16)">
       <use xlink:href="#DejaVuSans-2212"/>
       <use xlink:href="#DejaVuSans-30" x="83.789062"/>
       <use xlink:href="#DejaVuSans-2e" x="147.412109"/>
       <use xlink:href="#DejaVuSans-36" x="179.199219"/>
      </g>
     </g>
    </g>
    <g id="ytick_2">
     <g id="line2d_17">
      <g>
       <use xlink:href="#ma0c55b6906" x="63.230625" y="453.436875" style="stroke: #000000; stroke-width: 0.8"/>
      </g>
     </g>
     <g id="line2d_18">
      <g>
       <use xlink:href="#mb6bbc149c2" x="598.910625" y="453.436875" style="stroke: #000000; stroke-width: 0.8"/>
      </g>
     </g>
     <g id="text_10">
      <!-- −0.4 -->
      <g transform="translate(20.878125 459.515625) scale(0.16 -0.16)">
       <use xlink:href="#DejaVuSans-2212"/>
       <use xlink:href="#DejaVuSans-30" x="83.789062"/>
       <use xlink:href="#DejaVuSans-2e" x="147.412109"/>
       <use xlink:href="#DejaVuSans-34" x="179.199219"/>
      </g>
     </g>
    </g>
    <g id="ytick_3">
     <g id="line2d_19">
      <g>
       <use xlink:href="#ma0c55b6906" x="63.230625" y="379.516875" style="stroke: #000000; stroke-width: 0.8"/>
      </g>
     </g>
     <g id="line2d_20">
      <g>
       <use xlink:href="#mb6bbc149c2" x="598.910625" y="379.516875" style="stroke: #000000; stroke-width: 0.8"/>
      </g>
     </g>
     <g id="text_11">
      <!-- −0.2 -->
      <g transform="translate(20.878125 385.595625) scale(0.16 -0.16)">
       <use xlink:href="#DejaVuSans-2212"/>
       <use xlink:href="#DejaVuSans-30" x="83.789062"/>
       <use xlink:href="#DejaVuSans-2e" x="147.412109"/>
       <use xlink:href="#DejaVuSans-32" x="179.199219"/>
      </g>
     </g>
    </g>
    <g id="ytick_4">
     <g id="line2d_21">
      <g>
       <use xlink:href="#ma0c55b6906" x="63.230625" y="305.596875" style="stroke: #000000; stroke-width: 0.8"/>
      </g>
     </g>
     <g id="line2d_22">
      <g>
       <use xlink:href="#mb6bbc149c2" x="598.910625" y="305.596875" style="stroke: #000000; stroke-width: 0.8"/>
      </g>
     </g>
     <g id="text_12">
      <!-- 0.0 -->
      <g transform="translate(34.285625 311.675625) scale(0.16 -0.16)">
       <use xlink:href="#DejaVuSans-30"/>
       <use xlink:href="#DejaVuSans-2e" x="63.623047"/>
       <use xlink:href="#DejaVuSans-30" x="95.410156"/>
      </g>
     </g>
    </g>
    <g id="ytick_5">
     <g id="line2d_23">
      <g>
       <use xlink:href="#ma0c55b6906" x="63.230625" y="231.676875" style="stroke: #000000; stroke-width: 0.8"/>
      </g>
     </g>
     <g id="line2d_24">
      <g>
       <use xlink:href="#mb6bbc149c2" x="598.910625" y="231.676875" style="stroke: #000000; stroke-width: 0.8"/>
      </g>
     </g>
     <g id="text_13">
      <!-- 0.2 -->
      <g transform="translate(34.285625 237.755625) scale(0.16 -0.16)">
       <use xlink:href="#DejaVuSans-30"/>
       <use xlink:href="#DejaVuSans-2e" x="63.623047"/>
       <use xlink:href="#DejaVuSans-32" x="95.410156"/>
      </g>
     </g>
    </g>
    <g id="ytick_6">
     <g id="line2d_25">
      <g>
       <use xlink:href="#ma0c55b6906" x="63.230625" y="157.756875" style="stroke: #000000; stroke-width: 0.8"/>
      </g>
     </g>
     <g id="line2d_26">
      <g>
       <use xlink:href="#mb6bbc149c2" x="598.910625" y="157.756875" style="stroke: #000000; stroke-width: 0.8"/>
      </g>
     </g>
     <g id="text_14">
      <!-- 0.4 -->
      <g transform="translate(34.285625 163.835625) scale(0.16 -0.16)">
       <use xlink:href="#DejaVuSans-30"/>
       <use xlink:href="#DejaVuSans-2e" x="63.623047"/>
       <use xlink:href="#DejaVuSans-34" x="95.410156"/>
      </g>
     </g>
    </g>
    <g id="ytick_7">
     <g id="line2d_27">
      <g>
       <use xlink:href="#ma0c55b6906" x="63.230625" y="83.836875" style="stroke: #000000; stroke-width: 0.8"/>
      </g>
     </g>
     <g id="line2d_28">
      <g>
       <use xlink:href="#mb6bbc149c2" x="598.910625" y="83.836875" style="stroke: #000000; stroke-width: 0.8"/>
      </g>
     </g>
     <g id="text_15">
      <!-- 0.6 -->
      <g transform="translate(34.285625 89.915625) scale(0.16 -0.16)">
       <use xlink:href="#DejaVuSans-30"/>
       <use xlink:href="#DejaVuSans-2e" x="63.623047"/>
       <use xlink:href="#DejaVuSans-36" x="95.410156"/>
      </g>
     </g>
    </g>
    <g id="text_16">
     <!-- Direction 2 -->
     <g transform="translate(14.798437 332.952344) rotate(-90) scale(0.1 -0.1)">
      <use xlink:href="#DejaVuSans-44"/>
      <use xlink:href="#DejaVuSans-69" x="77.001953"/>
      <use xlink:href="#DejaVuSans-72" x="104.785156"/>
      <use xlink:href="#DejaVuSans-65" x="143.648438"/>
      <use xlink:href="#DejaVuSans-63" x="205.171875"/>
      <use xlink:href="#DejaVuSans-74" x="260.152344"/>
      <use xlink:href="#DejaVuSans-69" x="299.361328"/>
      <use xlink:href="#DejaVuSans-6f" x="327.144531"/>
      <use xlink:href="#DejaVuSans-6e" x="388.326172"/>
      <use xlink:href="#DejaVuSans-20" x="451.705078"/>
      <use xlink:href="#DejaVuSans-32" x="483.492188"/>
     </g>
    </g>
   </g>
   <g id="PathCollection_1"/>
   <g id="PathCollection_2">
    <path d="M 149.050702 582.796875 
L 148.870484 571.482595 
L 150.688585 569.699268 
L 159.9227 560.168314 
L 159.908424 548.854012 
L 159.947432 537.539732 
L 159.989028 526.225451 
L 159.996016 514.911149 
L 159.95534 503.596869 
L 159.88366 492.282588 
L 161.620825 490.611257 
L 170.967515 480.968308 
L 170.849835 469.654017 
L 172.553075 467.954277 
L 181.859964 458.339725 
L 183.485325 456.651331 
L 185.074454 458.339725 
L 194.417565 467.991337 
L 196.003773 469.654017 
L 205.349805 479.327407 
L 216.282055 479.25027 
L 225.526298 469.654017 
L 227.214305 467.796207 
L 236.311525 458.339725 
L 238.146545 456.396615 
L 247.155641 447.025445 
L 249.07879 445.024971 
L 260.011035 445.193174 
L 270.94328 445.238564 
L 281.875525 445.228663 
L 283.861583 447.025445 
L 283.699445 458.339725 
L 283.56252 469.654017 
L 283.454966 480.968308 
L 283.471748 492.282588 
L 283.4793 503.596869 
L 292.80777 513.248324 
L 294.489496 514.911149 
L 303.740015 524.546472 
L 305.471469 526.225451 
L 305.253745 537.539732 
L 314.67226 547.390315 
L 316.02853 548.854012 
L 325.604505 558.885234 
L 335.306839 548.854012 
L 336.536745 547.536838 
L 346.236732 537.539732 
L 347.46899 536.294678 
L 357.241619 526.225451 
L 358.401235 525.03111 
L 368.260387 514.911149 
L 368.028767 503.596869 
L 367.766132 492.282588 
L 369.33348 491.060671 
L 379.335363 480.968308 
L 379.237819 469.654017 
L 379.144561 458.339725 
L 379.000868 447.025445 
L 378.9835 435.711165 
L 379.132055 424.396873 
L 379.184085 413.082582 
L 379.059303 401.768302 
L 380.265725 400.463648 
L 391.19797 400.845286 
L 401.427075 390.454016 
L 402.130215 389.781343 
L 413.02441 379.13973 
L 413.06246 376.471645 
L 413.670557 379.13973 
L 415.97956 390.454016 
L 418.636348 401.768302 
L 419.202138 413.082582 
L 414.246987 424.396873 
L 414.957001 435.711165 
L 417.805421 447.025445 
L 419.87525 458.339725 
L 419.847382 469.654017 
L 419.28582 480.968308 
L 417.5217 492.282588 
L 415.481293 503.596869 
L 415.154902 514.911149 
L 416.711502 526.225451 
L 417.016149 537.539732 
L 416.133233 548.854012 
L 413.606769 560.168314 
L 413.06246 563.138947 
L 411.434188 571.482595 
L 408.858278 582.796875 
" clip-path="url(#p74301a92d5)" style="fill: none; stroke: #460a5d; stroke-width: 1.5"/>
    <path d="M 205.898764 28.396875 
L 213.052647 39.711155 
L 216.282055 44.14253 
L 220.399004 51.025436 
L 227.214305 61.729366 
L 227.576079 62.339738 
L 234.914953 73.654018 
L 238.146545 78.25296 
L 243.037699 84.968299 
L 249.07879 92.972018 
L 251.735295 96.282601 
L 260.011035 105.221012 
L 261.904022 107.596881 
L 270.94328 118.200048 
L 271.544423 118.911162 
L 280.176422 130.225442 
L 281.875525 132.476703 
L 292.80777 141.325648 
L 293.135656 141.539733 
L 303.740015 150.174602 
L 305.843951 152.854025 
L 313.996509 164.168305 
L 303.740015 164.612386 
L 303.355061 164.168305 
L 292.80777 153.198681 
L 281.875525 153.38831 
L 270.94328 153.713996 
L 260.011035 154.106111 
L 258.879278 152.854025 
L 249.07879 142.764265 
L 247.897175 141.539733 
L 238.146545 131.551914 
L 236.768019 130.225442 
L 237.175812 118.911162 
L 227.214305 108.671328 
L 226.189086 107.596881 
L 216.282055 97.394372 
L 205.349805 97.710498 
L 203.899067 96.282601 
L 194.417565 86.422274 
L 183.485325 86.371679 
L 172.553075 86.500643 
L 171.155736 84.968299 
L 161.620825 75.085144 
L 150.688585 75.218149 
L 139.756345 75.297992 
L 138.243435 73.654018 
L 128.824106 63.873991 
L 117.891845 63.929076 
L 106.959605 63.968628 
L 96.027365 64.037475 
L 94.463561 62.339738 
L 85.095104 52.610493 
L 74.162865 52.792324 
L 72.548225 51.025436 
L 63.230625 41.352394 
" clip-path="url(#p74301a92d5)" style="fill: none; stroke: #460a5d; stroke-width: 1.5"/>
    <path d="M 402.130215 345.249806 
L 402.057544 345.196873 
L 402.130215 343.744228 
L 402.899955 345.196873 
L 402.130215 345.249806 
z
" clip-path="url(#p74301a92d5)" style="fill: none; stroke: #460a5d; stroke-width: 1.5"/>
    <path d="M 325.604505 186.81647 
L 325.584063 186.796877 
L 325.604505 186.082613 
L 325.963767 186.796877 
L 325.604505 186.81647 
z
" clip-path="url(#p74301a92d5)" style="fill: none; stroke: #460a5d; stroke-width: 1.5"/>
    <path d="M 314.67226 175.78255 
L 314.387831 175.482585 
L 314.67226 165.204001 
L 320.081949 175.482585 
L 314.67226 175.78255 
" clip-path="url(#p74301a92d5)" style="fill: none; stroke: #460a5d; stroke-width: 1.5"/>
   </g>
   <g id="PathCollection_3">
    <path d="M 146.721691 582.796875 
L 146.335712 571.482595 
L 150.688585 567.212977 
L 157.513843 560.168314 
L 157.549652 537.539732 
L 157.625086 514.911149 
L 157.355684 492.282588 
L 161.620825 488.179085 
L 168.610066 480.968308 
L 168.333071 469.654017 
L 172.553075 465.442685 
L 183.485325 454.125823 
L 187.451478 458.339725 
L 205.349805 476.902779 
L 216.282055 476.754186 
L 223.121776 469.654017 
L 227.214305 465.149805 
L 249.07879 442.329101 
L 260.011035 442.673417 
L 270.94328 442.757682 
L 281.875525 442.700904 
L 286.655618 447.025445 
L 286.088418 469.654017 
L 285.872184 480.968308 
L 285.881285 503.596869 
L 292.80777 510.763174 
L 297.002895 514.911149 
L 303.740015 521.928521 
L 308.17124 526.225451 
L 307.738177 537.539732 
L 325.604505 556.363075 
L 365.766139 514.911149 
L 364.526717 492.282588 
L 369.33348 488.535198 
L 376.832531 480.968308 
L 376.531214 458.339725 
L 376.123792 447.025445 
L 375.931046 435.711165 
L 376.392465 413.082582 
L 376.213694 401.768302 
L 380.265725 397.386338 
L 391.19797 397.74135 
L 398.371579 390.454016 
L 402.130215 386.858238 
L 410.031924 379.13973 
L 410.120159 367.825444 
L 410.476171 356.511158 
L 402.130215 348.194317 
L 398.015053 345.196873 
L 398.505252 333.882587 
L 399.15124 322.568301 
L 400.019732 311.254015 
L 391.19797 302.519478 
L 388.273921 299.939735 
L 369.33348 280.706548 
L 365.601199 277.311163 
L 366.9971 265.996877 
L 358.401235 257.578609 
L 355.035339 254.682592 
L 355.641146 243.368306 
L 347.46899 235.164048 
L 343.774413 232.05402 
L 345.022592 209.425448 
L 325.604505 189.842894 
L 322.426599 186.796877 
L 311.365763 175.482585 
L 303.740015 167.697571 
L 300.680653 164.168305 
L 292.80777 155.980177 
L 281.875525 156.091187 
L 270.94328 156.571339 
L 260.011035 157.216181 
L 256.068095 152.854025 
L 238.146545 134.412574 
L 233.7951 130.225442 
L 234.590524 118.911162 
L 216.282055 100.005766 
L 205.349805 100.500382 
L 201.064558 96.282601 
L 194.417565 89.370034 
L 183.485325 88.955846 
L 172.553075 89.133602 
L 168.754749 84.968299 
L 161.620825 77.573821 
L 139.756345 77.90291 
L 135.846191 73.654018 
L 128.824106 66.363034 
L 96.027365 66.646662 
L 92.060209 62.339738 
L 85.095104 55.1064 
L 74.162865 55.49482 
L 70.078596 51.025436 
L 63.230625 43.916233 
L 63.230625 43.916233 
" clip-path="url(#p74301a92d5)" style="fill: none; stroke: #481467; stroke-width: 1.5"/>
    <path d="M 270.070613 28.396875 
L 270.94328 30.003635 
L 277.820849 39.711155 
L 281.875525 44.7555 
L 288.158299 51.025436 
L 292.80777 55.277052 
L 301.214807 62.339738 
L 303.740015 64.24805 
L 314.67226 71.966522 
L 316.322191 73.654018 
L 325.604505 83.233322 
L 327.062375 84.968299 
L 336.536745 96.223537 
L 336.57575 96.282601 
L 343.008375 107.596881 
L 347.46899 116.914399 
L 348.361346 118.911162 
L 352.234666 130.225442 
L 355.21443 141.539733 
L 358.401235 152.288887 
L 358.58891 152.854025 
L 362.110396 164.168305 
L 366.87501 175.482585 
L 369.33348 180.407373 
L 372.771551 186.796877 
L 378.190953 198.111168 
L 380.265725 202.427933 
L 383.9642 209.425448 
L 386.764801 220.739734 
L 389.342813 232.05402 
L 390.631976 243.368306 
L 391.19797 245.24787 
L 395.158828 254.682592 
L 402.130215 263.464579 
L 404.237456 265.996877 
L 413.06246 276.946716 
L 413.341579 277.311163 
L 419.709672 288.625449 
L 423.994705 298.262188 
L 424.796887 299.939735 
L 432.611018 311.254015 
L 434.926945 314.644199 
L 441.41401 322.568301 
L 445.859195 328.227932 
L 450.580691 333.882587 
L 456.438022 345.196873 
L 456.791445 346.105593 
L 460.264875 356.511158 
L 462.411988 367.825444 
L 462.8389 379.13973 
L 465.799157 390.454016 
L 467.723685 395.144778 
L 470.230081 401.768302 
L 474.170595 413.082582 
L 478.340854 424.396873 
L 478.655925 425.262149 
L 482.458537 435.711165 
L 485.683073 447.025445 
L 488.53692 458.339725 
L 489.588175 462.012033 
L 491.950816 469.654017 
L 495.98819 480.968308 
L 499.855289 492.282588 
L 500.520425 494.576219 
L 503.137904 503.596869 
L 505.878076 514.911149 
L 508.844007 526.225451 
L 511.452665 536.103979 
L 511.847139 537.539732 
L 515.850681 548.854012 
L 519.698992 560.168314 
L 522.384905 567.705988 
L 523.725003 571.482595 
L 527.134819 582.796875 
" clip-path="url(#p74301a92d5)" style="fill: none; stroke: #481467; stroke-width: 1.5"/>
   </g>
   <g id="PathCollection_4">
    <path d="M 144.392681 582.796875 
L 143.800939 571.482595 
L 150.688585 564.726686 
L 155.104987 560.168314 
L 155.05689 548.854012 
L 155.254156 514.911149 
L 155.098155 503.596869 
L 154.827709 492.282588 
L 161.620825 485.746913 
L 166.252617 480.968308 
L 165.816308 469.654017 
L 176.997521 458.339725 
L 183.485325 451.600316 
L 194.417565 463.080313 
L 205.349805 474.478152 
L 216.282055 474.258102 
L 220.717253 469.654017 
L 227.214305 462.503403 
L 249.07879 439.633231 
L 260.011035 440.15366 
L 270.94328 440.2768 
L 281.875525 440.173146 
L 289.449653 447.025445 
L 288.614316 469.654017 
L 288.289403 480.968308 
L 288.28327 503.596869 
L 292.80777 508.278023 
L 299.516293 514.911149 
L 303.740015 519.31057 
L 310.871012 526.225451 
L 310.22261 537.539732 
L 314.67226 542.193507 
L 325.604505 553.840915 
L 330.427905 548.854012 
L 336.536745 542.311723 
L 363.27189 514.911149 
L 362.358084 503.596869 
L 361.287303 492.282588 
L 369.33348 486.009724 
L 374.329699 480.968308 
L 374.202676 469.654017 
L 373.917867 458.339725 
L 373.246717 447.025445 
L 372.878591 435.711165 
L 373.600845 413.082582 
L 373.368086 401.768302 
L 380.265725 394.309028 
L 391.19797 394.637414 
L 395.316082 390.454016 
L 407.039438 379.13973 
L 407.051412 367.825444 
L 407.521352 356.511158 
L 402.130215 351.138828 
L 393.972563 345.196873 
L 394.376401 333.882587 
L 395.216631 322.568301 
L 396.823328 311.254015 
L 391.19797 305.684277 
L 384.686731 299.939735 
L 369.33348 284.392746 
L 361.54925 277.311163 
L 363.867379 265.996877 
L 358.401235 260.643668 
L 351.472974 254.682592 
L 352.516718 243.368306 
L 347.46899 238.300749 
L 340.04815 232.05402 
L 341.008031 220.739734 
L 342.158056 209.425448 
L 336.536745 203.733246 
L 330.763562 198.111168 
L 325.604505 192.869318 
L 319.269136 186.796877 
L 314.67226 182.15681 
L 303.740015 170.782756 
L 298.006245 164.168305 
L 292.80777 158.761673 
L 281.875525 158.794065 
L 270.94328 159.428682 
L 260.011035 160.326252 
L 253.256912 152.854025 
L 238.146545 137.273234 
L 230.822181 130.225442 
L 232.005235 118.911162 
L 216.282055 102.61716 
L 205.349805 103.290265 
L 198.230048 96.282601 
L 194.417565 92.317794 
L 183.485325 91.540013 
L 172.553075 91.766561 
L 166.353763 84.968299 
L 161.620825 80.062499 
L 150.688585 80.353312 
L 139.756345 80.507828 
L 133.448946 73.654018 
L 128.824106 68.852077 
L 96.027365 69.25585 
L 89.656857 62.339738 
L 85.095104 57.602307 
L 74.162865 58.197317 
L 67.608967 51.025436 
L 63.230625 46.480072 
L 63.230625 46.480072 
" clip-path="url(#p74301a92d5)" style="fill: none; stroke: #481c6e; stroke-width: 1.5"/>
    <path d="M 63.230625 489.770928 
L 74.162865 489.859635 
L 78.493002 492.282588 
L 85.095104 501.261917 
L 86.376973 503.596869 
L 92.276197 514.911149 
L 92.260267 526.225451 
L 90.900927 537.539732 
L 87.182894 548.854012 
L 85.095104 553.927 
L 79.148079 560.168314 
L 74.162865 567.201601 
L 63.230625 564.299331 
" clip-path="url(#p74301a92d5)" style="fill: none; stroke: #481c6e; stroke-width: 1.5"/>
    <path d="M 63.230625 378.44787 
L 74.162865 374.823589 
L 85.095104 370.583461 
L 89.125725 367.825444 
L 96.027365 363.205187 
L 105.425889 356.511158 
L 106.959605 355.70428 
L 117.891845 349.3876 
L 123.88244 345.196873 
L 128.824106 341.078511 
L 136.160105 333.882587 
L 139.756345 328.017802 
L 142.926733 322.568301 
L 148.489872 311.254015 
L 139.756345 300.533187 
L 137.382944 299.939735 
L 128.824106 299.058191 
L 117.891845 296.246515 
L 106.959605 293.417701 
L 96.027365 289.379858 
L 94.61158 288.625449 
L 95.481179 277.311163 
L 96.027365 273.059012 
L 97.464912 265.996877 
L 106.959605 261.256437 
L 117.891845 257.789638 
L 128.824106 255.135157 
L 138.572685 254.682592 
L 137.644838 243.368306 
L 128.824106 232.222195 
L 128.688115 232.05402 
L 117.943051 220.739734 
L 117.891845 220.694184 
L 106.959605 215.389478 
L 96.027365 213.218684 
L 85.095104 213.579574 
L 74.162865 218.062938 
L 69.543406 220.739734 
L 63.230625 223.280149 
" clip-path="url(#p74301a92d5)" style="fill: none; stroke: #481c6e; stroke-width: 1.5"/>
    <path d="M 63.230625 110.865765 
L 74.162865 114.294466 
L 85.095104 118.137571 
L 86.482273 118.911162 
L 96.027365 124.005776 
L 106.959605 129.73909 
L 107.668169 130.225442 
L 117.891845 136.31976 
L 127.563021 141.539733 
L 128.824106 142.228752 
L 139.756345 145.016915 
L 150.688585 141.986054 
L 152.370363 141.539733 
L 161.620825 139.746846 
L 172.553075 141.288052 
L 173.26187 141.539733 
L 183.485325 145.797203 
L 194.417565 150.604909 
L 198.019041 152.854025 
L 205.349805 157.368539 
L 211.943054 164.168305 
L 216.282055 168.520542 
L 223.004098 175.482585 
L 227.214305 178.576528 
L 238.146545 180.823002 
L 249.07879 179.309788 
L 260.011035 182.113662 
L 270.94328 185.205911 
L 273.948887 186.796877 
L 281.875525 193.107302 
L 289.39127 198.111168 
L 292.80777 201.182593 
L 303.740015 208.349006 
L 304.780322 209.425448 
L 314.67226 218.410399 
L 317.018604 220.739734 
L 325.604505 231.329762 
L 325.928316 232.05402 
L 329.621337 243.368306 
L 334.675969 254.682592 
L 336.536745 257.338801 
L 341.047257 265.996877 
L 347.46899 274.684352 
L 349.371822 277.311163 
L 355.995085 288.625449 
L 358.401235 292.155249 
L 363.785285 299.939735 
L 369.33348 307.766704 
L 371.531092 311.254015 
L 378.19499 322.568301 
L 380.265725 327.122619 
L 381.918069 333.882587 
L 382.499597 345.196873 
L 383.012773 356.511158 
L 381.631522 367.825444 
L 380.265725 370.214047 
L 369.33348 374.669275 
L 363.439237 379.13973 
L 358.401235 383.10798 
L 347.46899 379.44308 
L 340.445658 390.454016 
L 336.536745 395.301903 
L 325.604505 400.982244 
L 322.374059 401.768302 
L 314.67226 403.45998 
L 303.740015 410.950028 
L 292.80777 408.876864 
L 290.374608 401.768302 
L 292.698834 390.454016 
L 292.80777 390.191846 
L 297.913392 379.13973 
L 300.116598 367.825444 
L 303.740015 359.419094 
L 314.67226 362.104229 
L 324.191155 367.825444 
L 325.604505 369.101969 
L 336.536745 375.521395 
L 347.46899 377.911876 
L 349.078199 367.825444 
L 352.840499 356.511158 
L 347.46899 347.419514 
L 336.536745 345.520697 
L 336.108774 345.196873 
L 325.604505 334.515301 
L 324.829999 333.882587 
L 314.67226 326.970842 
L 310.068645 322.568301 
L 303.740015 318.56266 
L 292.80777 315.984824 
L 281.877234 322.568301 
L 281.875525 322.571103 
L 274.557581 333.882587 
L 281.567746 345.196873 
L 270.94328 348.480399 
L 262.013858 356.511158 
L 260.011035 358.602223 
L 249.07879 361.945127 
L 238.146545 358.495465 
L 236.040008 356.511158 
L 227.214305 349.96028 
L 220.71759 345.196873 
L 216.282055 342.722225 
L 205.349805 341.457968 
L 194.417565 342.905274 
L 184.834395 345.196873 
L 183.485325 345.505188 
L 172.553075 348.823169 
L 161.620825 353.233278 
L 156.188725 356.511158 
L 150.688585 360.325716 
L 141.872752 367.825444 
L 139.756345 371.126965 
L 133.923695 379.13973 
L 128.824106 383.452777 
L 121.365106 390.454016 
L 117.891845 393.214288 
L 106.959605 399.684811 
L 103.303931 401.768302 
L 96.027365 404.487211 
L 85.095104 407.293512 
L 74.162865 409.897527 
L 63.230625 410.516692 
" clip-path="url(#p74301a92d5)" style="fill: none; stroke: #481c6e; stroke-width: 1.5"/>
    <path d="M 347.188538 28.396875 
L 347.46899 28.740657 
L 355.796172 39.711155 
L 358.401235 43.538791 
L 362.924993 51.025436 
L 368.886818 62.339738 
L 369.33348 63.18787 
L 374.846044 73.654018 
L 380.237877 84.968299 
L 380.265725 85.030079 
L 386.273894 96.282601 
L 391.19797 105.388187 
L 392.503635 107.596881 
L 399.014347 118.911162 
L 402.130215 124.182233 
L 405.237777 130.225442 
L 410.299301 141.539733 
L 413.06246 148.505308 
L 414.767949 152.854025 
L 419.155716 164.168305 
L 422.892293 175.482585 
L 423.994705 179.257019 
L 425.690118 186.796877 
L 426.717228 198.111168 
L 426.651812 209.425448 
L 426.895085 220.739734 
L 431.353185 232.05402 
L 434.926945 237.543111 
L 438.827299 243.368306 
L 445.859195 253.47915 
L 446.793617 254.682592 
L 452.83473 265.996877 
L 456.555688 277.311163 
L 456.791445 277.755374 
L 465.509031 288.625449 
L 467.723685 290.310944 
L 478.655925 299.780737 
L 478.79626 299.939735 
L 488.952759 311.254015 
L 489.588175 312.296963 
L 495.029548 322.568301 
L 500.392935 333.882587 
L 500.520425 334.174757 
L 505.637407 345.196873 
L 511.452665 355.578778 
L 511.933884 356.511158 
L 518.173691 367.825444 
L 520.853745 379.13973 
L 522.384905 387.270426 
L 523.038293 390.454016 
L 523.36475 401.768302 
L 525.811683 413.082582 
L 531.278454 424.396873 
L 533.317144 428.601929 
L 536.614981 435.711165 
L 540.903262 447.025445 
L 544.249405 454.852547 
L 545.738289 458.339725 
L 550.156107 469.654017 
L 554.21705 480.968308 
L 555.181645 483.21326 
L 558.712916 492.282588 
L 562.648955 503.596869 
L 566.102649 514.911149 
L 566.113885 514.946049 
L 569.711616 526.225451 
L 573.194206 537.539732 
L 576.854617 548.854012 
L 577.046146 549.468207 
L 580.318753 560.168314 
L 583.551537 571.482595 
L 586.359146 582.796875 
" clip-path="url(#p74301a92d5)" style="fill: none; stroke: #481c6e; stroke-width: 1.5"/>
    <path d="M 325.604505 468.192279 
L 318.022104 458.339725 
L 319.643471 447.025445 
L 325.604505 442.20787 
L 329.203359 447.025445 
L 329.542403 458.339725 
L 325.604505 468.192279 
z
" clip-path="url(#p74301a92d5)" style="fill: none; stroke: #481c6e; stroke-width: 1.5"/>
    <path d="M 216.282055 413.912962 
L 215.773105 413.082582 
L 216.055368 401.768302 
L 216.282055 401.508857 
L 227.214305 392.207676 
L 232.72637 390.454016 
L 238.146545 388.338527 
L 238.922163 390.454016 
L 239.103478 401.768302 
L 238.146545 404.601963 
L 229.520595 413.082582 
L 227.214305 414.683969 
L 216.282055 413.912962 
z
" clip-path="url(#p74301a92d5)" style="fill: none; stroke: #481c6e; stroke-width: 1.5"/>
   </g>
   <g id="PathCollection_5">
    <path d="M 142.06367 582.796875 
L 141.266166 571.482595 
L 150.688585 562.240394 
L 152.696131 560.168314 
L 152.631122 548.854012 
L 152.754091 537.539732 
L 152.915043 526.225451 
L 152.883227 514.911149 
L 152.669562 503.596869 
L 152.299734 492.282588 
L 161.620825 483.314741 
L 163.895168 480.968308 
L 163.299544 469.654017 
L 172.553075 460.419501 
L 174.566299 458.339725 
L 183.485325 449.074808 
L 192.205528 458.339725 
L 194.417565 460.624802 
L 203.031499 469.654017 
L 205.349805 472.053525 
L 216.282055 471.762018 
L 218.312731 469.654017 
L 227.214305 459.857001 
L 228.673938 458.339725 
L 238.146545 448.309143 
L 239.380645 447.025445 
L 249.07879 436.937361 
L 260.011035 437.633903 
L 270.94328 437.795918 
L 281.875525 437.645388 
L 292.270278 435.711165 
L 282.884043 424.396873 
L 281.875525 422.709881 
L 270.94328 414.433761 
L 266.499125 413.082582 
L 260.011035 407.357065 
L 257.477377 413.082582 
L 249.07879 420.599383 
L 246.749418 424.396873 
L 238.146545 433.438094 
L 234.754232 435.711165 
L 227.214305 441.095299 
L 216.282055 442.636658 
L 207.687732 435.711165 
L 205.349805 433.399618 
L 198.642899 424.396873 
L 194.417565 415.297876 
L 193.11679 413.082582 
L 194.417565 409.13356 
L 195.90991 401.768302 
L 203.850872 390.454016 
L 205.349805 388.377702 
L 212.123735 379.13973 
L 216.282055 370.129276 
L 217.55376 367.825444 
L 216.282055 365.755451 
L 205.349805 357.978482 
L 194.417565 360.855593 
L 183.485325 365.654783 
L 179.804845 367.825444 
L 172.553075 372.982635 
L 165.209508 379.13973 
L 161.620825 382.926901 
L 153.882168 390.454016 
L 150.688585 394.080399 
L 142.361093 401.768302 
L 139.756345 408.290404 
L 136.979496 413.082582 
L 136.639398 424.396873 
L 139.756345 425.917911 
L 146.132025 435.711165 
L 144.764223 447.025445 
L 141.53303 458.339725 
L 140.03251 469.654017 
L 139.756345 471.006435 
L 137.843189 480.968308 
L 136.043744 492.282588 
L 135.396985 503.596869 
L 132.973222 514.911149 
L 130.734006 526.225451 
L 130.088527 537.539732 
L 130.414364 548.854012 
L 129.733669 560.168314 
L 128.824106 562.674094 
L 125.868686 571.482595 
L 120.835145 582.796875 
" clip-path="url(#p74301a92d5)" style="fill: none; stroke: #482576; stroke-width: 1.5"/>
    <path d="M 63.230625 67.79234 
L 72.905563 73.654018 
L 74.162865 74.406374 
L 85.095104 81.984636 
L 89.742645 84.968299 
L 96.027365 89.030738 
L 106.959605 95.381035 
L 109.102449 96.282601 
L 117.891845 100.611233 
L 128.824106 103.014561 
L 139.756345 105.525253 
L 146.01529 107.596881 
L 150.688585 109.04506 
L 161.620825 111.732168 
L 172.553075 113.444449 
L 183.485325 114.836988 
L 194.417565 117.381953 
L 203.259597 118.911162 
L 205.349805 119.338408 
L 216.282055 124.301164 
L 222.181119 130.225442 
L 227.214305 135.30301 
L 227.849261 130.225442 
L 229.419947 118.911162 
L 227.214305 116.643894 
L 218.581792 107.596881 
L 216.282055 105.228555 
L 205.349805 106.080149 
L 195.395538 96.282601 
L 194.417565 95.265554 
L 183.485325 94.124181 
L 172.553075 94.399521 
L 163.952776 84.968299 
L 161.620825 82.551177 
L 150.688585 82.920893 
L 139.756345 83.112746 
L 131.051702 73.654018 
L 128.824106 71.34112 
L 117.891845 71.504006 
L 106.959605 71.611996 
L 96.027365 71.865037 
L 87.253506 62.339738 
L 85.095104 60.098215 
L 74.162865 60.899814 
L 65.139338 51.025436 
L 63.230625 49.043911 
" clip-path="url(#p74301a92d5)" style="fill: none; stroke: #482576; stroke-width: 1.5"/>
    <path d="M 411.222006 28.396875 
L 413.06246 31.218363 
L 417.274955 39.711155 
L 422.572225 51.025436 
L 423.994705 54.066271 
L 427.600829 62.339738 
L 431.978531 73.654018 
L 434.926945 83.846973 
L 435.193743 84.968299 
L 437.990379 96.282601 
L 441.124772 107.596881 
L 445.792218 118.911162 
L 445.859195 119.063169 
L 450.721802 130.225442 
L 455.758031 141.539733 
L 456.791445 144.174357 
L 460.201735 152.854025 
L 463.939681 164.168305 
L 466.175785 175.482585 
L 467.723685 184.33066 
L 468.191914 186.796877 
L 472.105704 198.111168 
L 476.598982 209.425448 
L 478.655925 215.748772 
L 480.16758 220.739734 
L 485.082035 232.05402 
L 489.588175 241.215238 
L 490.602481 243.368306 
L 496.998474 254.682592 
L 500.520425 259.376345 
L 505.034509 265.996877 
L 511.452665 276.594235 
L 511.863072 277.311163 
L 517.837173 288.625449 
L 522.384905 296.789204 
L 524.140325 299.939735 
L 531.44061 311.254015 
L 533.317144 314.678131 
L 537.898513 322.568301 
L 543.352992 333.882587 
L 544.249405 335.76293 
L 548.512533 345.196873 
L 553.48365 356.511158 
L 555.181645 359.760259 
L 559.337632 367.825444 
L 566.113885 378.977946 
L 566.214659 379.13973 
L 572.333173 390.454016 
L 577.046146 400.682358 
L 577.549434 401.768302 
L 580.94304 413.082582 
L 584.184607 424.396873 
L 587.978385 435.243473 
L 588.1374 435.711165 
L 592.892587 447.025445 
L 598.504569 458.339725 
L 598.910625 459.145854 
" clip-path="url(#p74301a92d5)" style="fill: none; stroke: #482576; stroke-width: 1.5"/>
    <path d="M 325.604505 551.318756 
L 327.988439 548.854012 
L 336.536745 539.699165 
L 338.631998 537.539732 
L 347.46899 528.610979 
L 349.78425 526.225451 
L 358.401235 517.35042 
L 360.777642 514.911149 
L 359.522742 503.596869 
L 358.401235 494.728235 
L 351.637486 503.596869 
L 347.46899 508.384267 
L 340.599105 514.911149 
L 336.536745 518.81376 
L 326.257536 526.225451 
L 325.604505 526.841119 
L 325.004041 526.225451 
L 317.379081 514.911149 
L 314.67226 507.223941 
L 313.346915 503.596869 
L 312.467526 492.282588 
L 308.457938 480.968308 
L 303.740015 473.154473 
L 302.32842 469.654017 
L 298.537534 458.339725 
L 295.386296 447.025445 
L 292.80777 437.565212 
L 292.243688 447.025445 
L 291.636354 458.339725 
L 291.140214 469.654017 
L 290.706622 480.968308 
L 290.76432 492.282588 
L 290.685255 503.596869 
L 292.80777 505.792873 
L 302.029691 514.911149 
L 303.740015 516.692619 
L 313.570784 526.225451 
L 312.707042 537.539732 
L 314.67226 539.595103 
L 323.251619 548.854012 
L 325.604505 551.318756 
z
" clip-path="url(#p74301a92d5)" style="fill: none; stroke: #482576; stroke-width: 1.5"/>
    <path d="M 369.33348 483.484251 
L 371.826866 480.968308 
L 371.685104 469.654017 
L 371.304519 458.339725 
L 370.369642 447.025445 
L 369.826137 435.711165 
L 370.327886 424.396873 
L 370.809225 413.082582 
L 370.522477 401.768302 
L 380.265725 391.231718 
L 391.19797 391.533478 
L 392.260586 390.454016 
L 391.19797 383.449791 
L 380.265725 387.400528 
L 369.33348 388.316482 
L 366.95987 390.454016 
L 364.136992 401.768302 
L 362.64061 413.082582 
L 363.226624 424.396873 
L 366.313622 435.711165 
L 364.470039 447.025445 
L 362.166065 458.339725 
L 361.494836 469.654017 
L 361.439911 480.968308 
L 369.33348 483.484251 
z
" clip-path="url(#p74301a92d5)" style="fill: none; stroke: #482576; stroke-width: 1.5"/>
    <path d="M 85.095104 435.92027 
L 85.795038 435.711165 
L 85.095104 435.60534 
L 84.697808 435.711165 
L 85.095104 435.92027 
z
" clip-path="url(#p74301a92d5)" style="fill: none; stroke: #482576; stroke-width: 1.5"/>
    <path d="M 402.130215 381.012028 
L 404.046952 379.13973 
L 403.982665 367.825444 
L 404.566533 356.511158 
L 402.130215 354.08334 
L 394.504377 356.511158 
L 395.601333 367.825444 
L 393.935794 379.13973 
L 402.130215 381.012028 
z
" clip-path="url(#p74301a92d5)" style="fill: none; stroke: #482576; stroke-width: 1.5"/>
    <path d="M 391.19797 323.529123 
L 391.282021 322.568301 
L 393.626925 311.254015 
L 391.19797 308.849076 
L 383.887171 311.254015 
L 390.946591 322.568301 
L 391.19797 323.529123 
z
" clip-path="url(#p74301a92d5)" style="fill: none; stroke: #482576; stroke-width: 1.5"/>
    <path d="M 380.265725 304.259123 
L 381.099541 299.939735 
L 380.265725 299.098771 
L 377.37912 299.939735 
L 380.265725 304.259123 
z
" clip-path="url(#p74301a92d5)" style="fill: none; stroke: #482576; stroke-width: 1.5"/>
    <path d="M 369.33348 290.732418 
L 369.86609 288.625449 
L 369.33348 288.078945 
L 367.701787 288.625449 
L 369.33348 290.732418 
z
" clip-path="url(#p74301a92d5)" style="fill: none; stroke: #482576; stroke-width: 1.5"/>
    <path d="M 358.401235 274.707999 
L 360.737657 265.996877 
L 358.401235 263.708727 
L 351.628732 265.996877 
L 358.401235 274.707999 
z
" clip-path="url(#p74301a92d5)" style="fill: none; stroke: #482576; stroke-width: 1.5"/>
    <path d="M 347.46899 257.090536 
L 347.91061 254.682592 
L 349.392291 243.368306 
L 347.46899 241.43745 
L 341.091244 243.368306 
L 346.123547 254.682592 
L 347.46899 257.090536 
z
" clip-path="url(#p74301a92d5)" style="fill: none; stroke: #482576; stroke-width: 1.5"/>
    <path d="M 336.536745 230.404035 
L 337.665586 220.739734 
L 339.29352 209.425448 
L 336.536745 206.633907 
L 327.78494 198.111168 
L 325.604505 195.895741 
L 315.392133 198.111168 
L 323.327012 209.425448 
L 325.604505 211.708623 
L 332.511065 220.739734 
L 336.536745 230.404035 
z
" clip-path="url(#p74301a92d5)" style="fill: none; stroke: #482576; stroke-width: 1.5"/>
    <path d="M 314.67226 196.960718 
L 316.111672 186.796877 
L 314.67226 185.34394 
L 306.162951 186.796877 
L 314.67226 196.960718 
z
" clip-path="url(#p74301a92d5)" style="fill: none; stroke: #482576; stroke-width: 1.5"/>
    <path d="M 281.875525 177.510328 
L 292.80777 180.231687 
L 303.740015 184.548329 
L 305.321627 175.482585 
L 303.740015 173.867941 
L 295.331837 164.168305 
L 292.80777 161.543169 
L 281.875525 161.496943 
L 270.94328 162.286026 
L 260.011035 163.436322 
L 255.286462 164.168305 
L 260.011035 167.252009 
L 270.94328 172.450815 
L 277.737725 175.482585 
L 281.875525 177.510328 
z
" clip-path="url(#p74301a92d5)" style="fill: none; stroke: #482576; stroke-width: 1.5"/>
    <path d="M 249.07879 159.76997 
L 250.44573 152.854025 
L 249.07879 151.446739 
L 240.481547 152.854025 
L 249.07879 159.76997 
z
" clip-path="url(#p74301a92d5)" style="fill: none; stroke: #482576; stroke-width: 1.5"/>
    <path d="M 238.146545 150.45753 
L 239.518999 141.539733 
L 238.146545 140.133894 
L 231.019067 141.539733 
L 238.146545 150.45753 
z
" clip-path="url(#p74301a92d5)" style="fill: none; stroke: #482576; stroke-width: 1.5"/>
   </g>
   <g id="PathCollection_6">
    <path d="M 464.992099 28.396875 
L 466.43332 39.711155 
L 467.556027 51.025436 
L 467.723685 52.375213 
L 468.973567 62.339738 
L 471.173622 73.654018 
L 474.900885 84.968299 
L 478.655925 93.714925 
L 479.765395 96.282601 
L 485.148291 107.596881 
L 489.588175 115.81812 
L 491.705905 118.911162 
L 497.994978 130.225442 
L 500.520425 135.48811 
L 504.129018 141.539733 
L 511.452665 152.257307 
L 511.825027 152.854025 
L 517.177995 164.168305 
L 520.659147 175.482585 
L 522.384905 181.033319 
L 524.037866 186.796877 
L 526.537328 198.111168 
L 529.171406 209.425448 
L 530.766261 220.739734 
L 533.317144 231.45978 
L 533.451045 232.05402 
L 537.279189 243.368306 
L 542.608091 254.682592 
L 544.249405 257.507746 
L 548.9267 265.996877 
L 553.779982 277.311163 
L 555.181645 280.579017 
L 558.632067 288.625449 
L 565.563154 299.939735 
L 566.113885 300.812253 
L 572.515225 311.254015 
L 577.046146 318.370551 
L 579.640746 322.568301 
L 585.441638 333.882587 
L 587.978385 341.630514 
L 589.168077 345.196873 
L 592.225883 356.511158 
L 596.299639 367.825444 
L 598.910625 372.261704 
" clip-path="url(#p74301a92d5)" style="fill: none; stroke: #472d7b; stroke-width: 1.5"/>
   </g>
   <g id="PathCollection_7">
    <path d="M 503.560032 28.396875 
L 505.168653 39.711155 
L 508.457283 51.025436 
L 511.452665 59.138611 
L 512.565208 62.339738 
L 516.789551 73.654018 
L 522.384905 82.645586 
L 524.190827 84.968299 
L 533.317144 95.791926 
L 533.679006 96.282601 
L 541.371394 107.596881 
L 544.249405 111.558756 
L 549.416339 118.911162 
L 555.181645 128.31033 
L 556.238643 130.225442 
L 560.759804 141.539733 
L 564.453951 152.854025 
L 566.113885 159.403872 
L 567.243472 164.168305 
L 569.647858 175.482585 
L 571.221358 186.796877 
L 572.659431 198.111168 
L 573.615021 209.425448 
L 575.635113 220.739734 
L 577.046146 226.525737 
L 578.361928 232.05402 
L 582.336199 243.368306 
L 587.426125 254.682592 
L 587.978385 255.915619 
L 592.507123 265.996877 
L 597.234633 277.311163 
L 598.910625 280.630724 
" clip-path="url(#p74301a92d5)" style="fill: none; stroke: #453581; stroke-width: 1.5"/>
   </g>
   <g id="PathCollection_8">
    <path d="M 548.536257 28.396875 
L 552.5844 39.711155 
L 555.181645 45.26217 
L 557.985718 51.025436 
L 564.808815 62.339738 
L 566.113885 64.34535 
L 572.402872 73.654018 
L 577.046146 79.767962 
L 580.686925 84.968299 
L 587.978385 96.196283 
L 588.031888 96.282601 
L 594.736499 107.596881 
L 598.910625 117.38995 
" clip-path="url(#p74301a92d5)" style="fill: none; stroke: #433d84; stroke-width: 1.5"/>
   </g>
   <g id="PathCollection_9">
    <path d="M 588.042038 28.396875 
L 598.910625 39.677447 
" clip-path="url(#p74301a92d5)" style="fill: none; stroke: #404588; stroke-width: 1.5"/>
   </g>
   <g id="PathCollection_10">
    <path d="M 588.397645 28.396875 
L 598.910625 39.308361 
" clip-path="url(#p74301a92d5)" style="fill: none; stroke: #3d4d8a; stroke-width: 1.5"/>
   </g>
   <g id="PathCollection_11">
    <path d="M 588.753251 28.396875 
L 598.910625 38.939275 
" clip-path="url(#p74301a92d5)" style="fill: none; stroke: #3a538b; stroke-width: 1.5"/>
   </g>
   <g id="PathCollection_12">
    <path d="M 589.108858 28.396875 
L 598.910625 38.570189 
" clip-path="url(#p74301a92d5)" style="fill: none; stroke: #375b8d; stroke-width: 1.5"/>
   </g>
   <g id="PathCollection_13">
    <path d="M 589.464464 28.396875 
L 598.910625 38.201103 
" clip-path="url(#p74301a92d5)" style="fill: none; stroke: #34618d; stroke-width: 1.5"/>
   </g>
   <g id="PathCollection_14">
    <path d="M 589.820071 28.396875 
L 598.910625 37.832016 
" clip-path="url(#p74301a92d5)" style="fill: none; stroke: #31688e; stroke-width: 1.5"/>
   </g>
   <g id="PathCollection_15">
    <path d="M 590.175677 28.396875 
L 598.910625 37.46293 
" clip-path="url(#p74301a92d5)" style="fill: none; stroke: #2e6e8e; stroke-width: 1.5"/>
   </g>
   <g id="PathCollection_16">
    <path d="M 590.531284 28.396875 
L 598.910625 37.093844 
" clip-path="url(#p74301a92d5)" style="fill: none; stroke: #2b748e; stroke-width: 1.5"/>
   </g>
   <g id="PathCollection_17">
    <path d="M 590.88689 28.396875 
L 598.910625 36.724758 
" clip-path="url(#p74301a92d5)" style="fill: none; stroke: #297b8e; stroke-width: 1.5"/>
   </g>
   <g id="PathCollection_18">
    <path d="M 591.242497 28.396875 
L 598.910625 36.355672 
" clip-path="url(#p74301a92d5)" style="fill: none; stroke: #26818e; stroke-width: 1.5"/>
   </g>
   <g id="PathCollection_19">
    <path d="M 591.598103 28.396875 
L 598.910625 35.986586 
" clip-path="url(#p74301a92d5)" style="fill: none; stroke: #24878e; stroke-width: 1.5"/>
   </g>
   <g id="PathCollection_20">
    <path d="M 591.95371 28.396875 
L 598.910625 35.617499 
" clip-path="url(#p74301a92d5)" style="fill: none; stroke: #228d8d; stroke-width: 1.5"/>
   </g>
   <g id="PathCollection_21">
    <path d="M 592.309317 28.396875 
L 598.910625 35.248413 
" clip-path="url(#p74301a92d5)" style="fill: none; stroke: #20938c; stroke-width: 1.5"/>
   </g>
   <g id="PathCollection_22">
    <path d="M 592.664923 28.396875 
L 598.910625 34.879327 
" clip-path="url(#p74301a92d5)" style="fill: none; stroke: #1f998a; stroke-width: 1.5"/>
   </g>
   <g id="PathCollection_23">
    <path d="M 593.02053 28.396875 
L 598.910625 34.510241 
" clip-path="url(#p74301a92d5)" style="fill: none; stroke: #1fa088; stroke-width: 1.5"/>
   </g>
   <g id="PathCollection_24">
    <path d="M 593.376136 28.396875 
L 598.910625 34.141155 
" clip-path="url(#p74301a92d5)" style="fill: none; stroke: #21a585; stroke-width: 1.5"/>
   </g>
   <g id="PathCollection_25">
    <path d="M 593.731743 28.396875 
L 598.910625 33.772068 
" clip-path="url(#p74301a92d5)" style="fill: none; stroke: #25ac82; stroke-width: 1.5"/>
   </g>
   <g id="PathCollection_26">
    <path d="M 594.087349 28.396875 
L 598.910625 33.402982 
" clip-path="url(#p74301a92d5)" style="fill: none; stroke: #2db27d; stroke-width: 1.5"/>
   </g>
   <g id="PathCollection_27">
    <path d="M 594.442956 28.396875 
L 598.910625 33.033896 
" clip-path="url(#p74301a92d5)" style="fill: none; stroke: #35b779; stroke-width: 1.5"/>
   </g>
   <g id="PathCollection_28">
    <path d="M 594.798562 28.396875 
L 598.910625 32.66481 
" clip-path="url(#p74301a92d5)" style="fill: none; stroke: #40bd72; stroke-width: 1.5"/>
   </g>
   <g id="PathCollection_29">
    <path d="M 595.154169 28.396875 
L 598.910625 32.295724 
" clip-path="url(#p74301a92d5)" style="fill: none; stroke: #4cc26c; stroke-width: 1.5"/>
   </g>
   <g id="PathCollection_30">
    <path d="M 595.509775 28.396875 
L 598.910625 31.926638 
" clip-path="url(#p74301a92d5)" style="fill: none; stroke: #5ac864; stroke-width: 1.5"/>
   </g>
   <g id="PathCollection_31">
    <path d="M 595.865382 28.396875 
L 598.910625 31.557551 
" clip-path="url(#p74301a92d5)" style="fill: none; stroke: #67cc5c; stroke-width: 1.5"/>
   </g>
   <g id="PathCollection_32">
    <path d="M 596.220988 28.396875 
L 598.910625 31.188465 
" clip-path="url(#p74301a92d5)" style="fill: none; stroke: #77d153; stroke-width: 1.5"/>
   </g>
   <g id="PathCollection_33">
    <path d="M 596.576595 28.396875 
L 598.910625 30.819379 
" clip-path="url(#p74301a92d5)" style="fill: none; stroke: #89d548; stroke-width: 1.5"/>
   </g>
   <g id="PathCollection_34">
    <path d="M 596.932201 28.396875 
L 598.910625 30.450293 
" clip-path="url(#p74301a92d5)" style="fill: none; stroke: #98d83e; stroke-width: 1.5"/>
   </g>
   <g id="PathCollection_35">
    <path d="M 597.287808 28.396875 
L 598.910625 30.081207 
" clip-path="url(#p74301a92d5)" style="fill: none; stroke: #aadc32; stroke-width: 1.5"/>
   </g>
   <g id="PathCollection_36">
    <path d="M 597.643415 28.396875 
L 598.910625 29.71212 
" clip-path="url(#p74301a92d5)" style="fill: none; stroke: #bade28; stroke-width: 1.5"/>
   </g>
   <g id="PathCollection_37">
    <path d="M 597.999021 28.396875 
L 598.910625 29.343034 
" clip-path="url(#p74301a92d5)" style="fill: none; stroke: #cde11d; stroke-width: 1.5"/>
   </g>
   <g id="PathCollection_38">
    <path d="M 598.354628 28.396875 
L 598.910625 28.973948 
" clip-path="url(#p74301a92d5)" style="fill: none; stroke: #dde318; stroke-width: 1.5"/>
   </g>
   <g id="PathCollection_39">
    <path d="M 598.710234 28.396875 
L 598.910625 28.604862 
" clip-path="url(#p74301a92d5)" style="fill: none; stroke: #efe51c; stroke-width: 1.5"/>
   </g>
   <g id="PathCollection_40"/>
   <g id="line2d_29">
    <defs>
     <path id="mc0fe5658c0" d="M 0 2.5 
C 0.663008 2.5 1.29895 2.236584 1.767767 1.767767 
C 2.236584 1.29895 2.5 0.663008 2.5 0 
C 2.5 -0.663008 2.236584 -1.29895 1.767767 -1.767767 
C 1.29895 -2.236584 0.663008 -2.5 0 -2.5 
C -0.663008 -2.5 -1.29895 -2.236584 -1.767767 -1.767767 
C -2.236584 -1.29895 -2.5 -0.663008 -2.5 0 
C -2.5 0.663008 -2.236584 1.29895 -1.767767 1.767767 
C -1.29895 2.236584 -0.663008 2.5 0 2.5 
z
" style="stroke: #ff0000"/>
    </defs>
    <g clip-path="url(#p74301a92d5)">
     <use xlink:href="#mc0fe5658c0" x="331.070625" y="305.596875" style="fill: #ff0000; stroke: #ff0000"/>
    </g>
   </g>
   <g id="patch_3">
    <path d="M 63.230625 582.796875 
L 63.230625 28.396875 
" style="fill: none; stroke: #000000; stroke-width: 0.8; stroke-linejoin: miter; stroke-linecap: square"/>
   </g>
   <g id="patch_4">
    <path d="M 598.910625 582.796875 
L 598.910625 28.396875 
" style="fill: none; stroke: #000000; stroke-width: 0.8; stroke-linejoin: miter; stroke-linecap: square"/>
   </g>
   <g id="patch_5">
    <path d="M 63.230625 582.796875 
L 598.910625 582.796875 
" style="fill: none; stroke: #000000; stroke-width: 0.8; stroke-linejoin: miter; stroke-linecap: square"/>
   </g>
   <g id="patch_6">
    <path d="M 63.230625 28.396875 
L 598.910625 28.396875 
" style="fill: none; stroke: #000000; stroke-width: 0.8; stroke-linejoin: miter; stroke-linecap: square"/>
   </g>
   <g id="text_17">
    <!-- Loss Landscape (bkg=0.3, d=0.75, n=50) - Contour -->
    <g transform="translate(71.444062 22.396875) scale(0.2 -0.2)">
     <defs>
      <path id="DejaVuSans-4c" d="M 628 4666 
L 1259 4666 
L 1259 531 
L 3531 531 
L 3531 0 
L 628 0 
L 628 4666 
z
" transform="scale(0.015625)"/>
      <path id="DejaVuSans-73" d="M 2834 3397 
L 2834 2853 
Q 2591 2978 2328 3040 
Q 2066 3103 1784 3103 
Q 1356 3103 1142 2972 
Q 928 2841 928 2578 
Q 928 2378 1081 2264 
Q 1234 2150 1697 2047 
L 1894 2003 
Q 2506 1872 2764 1633 
Q 3022 1394 3022 966 
Q 3022 478 2636 193 
Q 2250 -91 1575 -91 
Q 1294 -91 989 -36 
Q 684 19 347 128 
L 347 722 
Q 666 556 975 473 
Q 1284 391 1588 391 
Q 1994 391 2212 530 
Q 2431 669 2431 922 
Q 2431 1156 2273 1281 
Q 2116 1406 1581 1522 
L 1381 1569 
Q 847 1681 609 1914 
Q 372 2147 372 2553 
Q 372 3047 722 3315 
Q 1072 3584 1716 3584 
Q 2034 3584 2315 3537 
Q 2597 3491 2834 3397 
z
" transform="scale(0.015625)"/>
      <path id="DejaVuSans-61" d="M 2194 1759 
Q 1497 1759 1228 1600 
Q 959 1441 959 1056 
Q 959 750 1161 570 
Q 1363 391 1709 391 
Q 2188 391 2477 730 
Q 2766 1069 2766 1631 
L 2766 1759 
L 2194 1759 
z
M 3341 1997 
L 3341 0 
L 2766 0 
L 2766 531 
Q 2569 213 2275 61 
Q 1981 -91 1556 -91 
Q 1019 -91 701 211 
Q 384 513 384 1019 
Q 384 1609 779 1909 
Q 1175 2209 1959 2209 
L 2766 2209 
L 2766 2266 
Q 2766 2663 2505 2880 
Q 2244 3097 1772 3097 
Q 1472 3097 1187 3025 
Q 903 2953 641 2809 
L 641 3341 
Q 956 3463 1253 3523 
Q 1550 3584 1831 3584 
Q 2591 3584 2966 3190 
Q 3341 2797 3341 1997 
z
" transform="scale(0.015625)"/>
      <path id="DejaVuSans-64" d="M 2906 2969 
L 2906 4863 
L 3481 4863 
L 3481 0 
L 2906 0 
L 2906 525 
Q 2725 213 2448 61 
Q 2172 -91 1784 -91 
Q 1150 -91 751 415 
Q 353 922 353 1747 
Q 353 2572 751 3078 
Q 1150 3584 1784 3584 
Q 2172 3584 2448 3432 
Q 2725 3281 2906 2969 
z
M 947 1747 
Q 947 1113 1208 752 
Q 1469 391 1925 391 
Q 2381 391 2643 752 
Q 2906 1113 2906 1747 
Q 2906 2381 2643 2742 
Q 2381 3103 1925 3103 
Q 1469 3103 1208 2742 
Q 947 2381 947 1747 
z
" transform="scale(0.015625)"/>
      <path id="DejaVuSans-70" d="M 1159 525 
L 1159 -1331 
L 581 -1331 
L 581 3500 
L 1159 3500 
L 1159 2969 
Q 1341 3281 1617 3432 
Q 1894 3584 2278 3584 
Q 2916 3584 3314 3078 
Q 3713 2572 3713 1747 
Q 3713 922 3314 415 
Q 2916 -91 2278 -91 
Q 1894 -91 1617 61 
Q 1341 213 1159 525 
z
M 3116 1747 
Q 3116 2381 2855 2742 
Q 2594 3103 2138 3103 
Q 1681 3103 1420 2742 
Q 1159 2381 1159 1747 
Q 1159 1113 1420 752 
Q 1681 391 2138 391 
Q 2594 391 2855 752 
Q 3116 1113 3116 1747 
z
" transform="scale(0.015625)"/>
      <path id="DejaVuSans-28" d="M 1984 4856 
Q 1566 4138 1362 3434 
Q 1159 2731 1159 2009 
Q 1159 1288 1364 580 
Q 1569 -128 1984 -844 
L 1484 -844 
Q 1016 -109 783 600 
Q 550 1309 550 2009 
Q 550 2706 781 3412 
Q 1013 4119 1484 4856 
L 1984 4856 
z
" transform="scale(0.015625)"/>
      <path id="DejaVuSans-62" d="M 3116 1747 
Q 3116 2381 2855 2742 
Q 2594 3103 2138 3103 
Q 1681 3103 1420 2742 
Q 1159 2381 1159 1747 
Q 1159 1113 1420 752 
Q 1681 391 2138 391 
Q 2594 391 2855 752 
Q 3116 1113 3116 1747 
z
M 1159 2969 
Q 1341 3281 1617 3432 
Q 1894 3584 2278 3584 
Q 2916 3584 3314 3078 
Q 3713 2572 3713 1747 
Q 3713 922 3314 415 
Q 2916 -91 2278 -91 
Q 1894 -91 1617 61 
Q 1341 213 1159 525 
L 1159 0 
L 581 0 
L 581 4863 
L 1159 4863 
L 1159 2969 
z
" transform="scale(0.015625)"/>
      <path id="DejaVuSans-6b" d="M 581 4863 
L 1159 4863 
L 1159 1991 
L 2875 3500 
L 3609 3500 
L 1753 1863 
L 3688 0 
L 2938 0 
L 1159 1709 
L 1159 0 
L 581 0 
L 581 4863 
z
" transform="scale(0.015625)"/>
      <path id="DejaVuSans-67" d="M 2906 1791 
Q 2906 2416 2648 2759 
Q 2391 3103 1925 3103 
Q 1463 3103 1205 2759 
Q 947 2416 947 1791 
Q 947 1169 1205 825 
Q 1463 481 1925 481 
Q 2391 481 2648 825 
Q 2906 1169 2906 1791 
z
M 3481 434 
Q 3481 -459 3084 -895 
Q 2688 -1331 1869 -1331 
Q 1566 -1331 1297 -1286 
Q 1028 -1241 775 -1147 
L 775 -588 
Q 1028 -725 1275 -790 
Q 1522 -856 1778 -856 
Q 2344 -856 2625 -561 
Q 2906 -266 2906 331 
L 2906 616 
Q 2728 306 2450 153 
Q 2172 0 1784 0 
Q 1141 0 747 490 
Q 353 981 353 1791 
Q 353 2603 747 3093 
Q 1141 3584 1784 3584 
Q 2172 3584 2450 3431 
Q 2728 3278 2906 2969 
L 2906 3500 
L 3481 3500 
L 3481 434 
z
" transform="scale(0.015625)"/>
      <path id="DejaVuSans-3d" d="M 678 2906 
L 4684 2906 
L 4684 2381 
L 678 2381 
L 678 2906 
z
M 678 1631 
L 4684 1631 
L 4684 1100 
L 678 1100 
L 678 1631 
z
" transform="scale(0.015625)"/>
      <path id="DejaVuSans-33" d="M 2597 2516 
Q 3050 2419 3304 2112 
Q 3559 1806 3559 1356 
Q 3559 666 3084 287 
Q 2609 -91 1734 -91 
Q 1441 -91 1130 -33 
Q 819 25 488 141 
L 488 750 
Q 750 597 1062 519 
Q 1375 441 1716 441 
Q 2309 441 2620 675 
Q 2931 909 2931 1356 
Q 2931 1769 2642 2001 
Q 2353 2234 1838 2234 
L 1294 2234 
L 1294 2753 
L 1863 2753 
Q 2328 2753 2575 2939 
Q 2822 3125 2822 3475 
Q 2822 3834 2567 4026 
Q 2313 4219 1838 4219 
Q 1578 4219 1281 4162 
Q 984 4106 628 3988 
L 628 4550 
Q 988 4650 1302 4700 
Q 1616 4750 1894 4750 
Q 2613 4750 3031 4423 
Q 3450 4097 3450 3541 
Q 3450 3153 3228 2886 
Q 3006 2619 2597 2516 
z
" transform="scale(0.015625)"/>
      <path id="DejaVuSans-2c" d="M 750 794 
L 1409 794 
L 1409 256 
L 897 -744 
L 494 -744 
L 750 256 
L 750 794 
z
" transform="scale(0.015625)"/>
      <path id="DejaVuSans-37" d="M 525 4666 
L 3525 4666 
L 3525 4397 
L 1831 0 
L 1172 0 
L 2766 4134 
L 525 4134 
L 525 4666 
z
" transform="scale(0.015625)"/>
      <path id="DejaVuSans-35" d="M 691 4666 
L 3169 4666 
L 3169 4134 
L 1269 4134 
L 1269 2991 
Q 1406 3038 1543 3061 
Q 1681 3084 1819 3084 
Q 2600 3084 3056 2656 
Q 3513 2228 3513 1497 
Q 3513 744 3044 326 
Q 2575 -91 1722 -91 
Q 1428 -91 1123 -41 
Q 819 9 494 109 
L 494 744 
Q 775 591 1075 516 
Q 1375 441 1709 441 
Q 2250 441 2565 725 
Q 2881 1009 2881 1497 
Q 2881 1984 2565 2268 
Q 2250 2553 1709 2553 
Q 1456 2553 1204 2497 
Q 953 2441 691 2322 
L 691 4666 
z
" transform="scale(0.015625)"/>
      <path id="DejaVuSans-29" d="M 513 4856 
L 1013 4856 
Q 1481 4119 1714 3412 
Q 1947 2706 1947 2009 
Q 1947 1309 1714 600 
Q 1481 -109 1013 -844 
L 513 -844 
Q 928 -128 1133 580 
Q 1338 1288 1338 2009 
Q 1338 2731 1133 3434 
Q 928 4138 513 4856 
z
" transform="scale(0.015625)"/>
      <path id="DejaVuSans-2d" d="M 313 2009 
L 1997 2009 
L 1997 1497 
L 313 1497 
L 313 2009 
z
" transform="scale(0.015625)"/>
      <path id="DejaVuSans-43" d="M 4122 4306 
L 4122 3641 
Q 3803 3938 3442 4084 
Q 3081 4231 2675 4231 
Q 1875 4231 1450 3742 
Q 1025 3253 1025 2328 
Q 1025 1406 1450 917 
Q 1875 428 2675 428 
Q 3081 428 3442 575 
Q 3803 722 4122 1019 
L 4122 359 
Q 3791 134 3420 21 
Q 3050 -91 2638 -91 
Q 1578 -91 968 557 
Q 359 1206 359 2328 
Q 359 3453 968 4101 
Q 1578 4750 2638 4750 
Q 3056 4750 3426 4639 
Q 3797 4528 4122 4306 
z
" transform="scale(0.015625)"/>
      <path id="DejaVuSans-75" d="M 544 1381 
L 544 3500 
L 1119 3500 
L 1119 1403 
Q 1119 906 1312 657 
Q 1506 409 1894 409 
Q 2359 409 2629 706 
Q 2900 1003 2900 1516 
L 2900 3500 
L 3475 3500 
L 3475 0 
L 2900 0 
L 2900 538 
Q 2691 219 2414 64 
Q 2138 -91 1772 -91 
Q 1169 -91 856 284 
Q 544 659 544 1381 
z
M 1991 3584 
L 1991 3584 
z
" transform="scale(0.015625)"/>
     </defs>
     <use xlink:href="#DejaVuSans-4c"/>
     <use xlink:href="#DejaVuSans-6f" x="53.962891"/>
     <use xlink:href="#DejaVuSans-73" x="115.144531"/>
     <use xlink:href="#DejaVuSans-73" x="167.244141"/>
     <use xlink:href="#DejaVuSans-20" x="219.34375"/>
     <use xlink:href="#DejaVuSans-4c" x="251.130859"/>
     <use xlink:href="#DejaVuSans-61" x="306.84375"/>
     <use xlink:href="#DejaVuSans-6e" x="368.123047"/>
     <use xlink:href="#DejaVuSans-64" x="431.501953"/>
     <use xlink:href="#DejaVuSans-73" x="494.978516"/>
     <use xlink:href="#DejaVuSans-63" x="547.078125"/>
     <use xlink:href="#DejaVuSans-61" x="602.058594"/>
     <use xlink:href="#DejaVuSans-70" x="663.337891"/>
     <use xlink:href="#DejaVuSans-65" x="726.814453"/>
     <use xlink:href="#DejaVuSans-20" x="788.337891"/>
     <use xlink:href="#DejaVuSans-28" x="820.125"/>
     <use xlink:href="#DejaVuSans-62" x="859.138672"/>
     <use xlink:href="#DejaVuSans-6b" x="922.615234"/>
     <use xlink:href="#DejaVuSans-67" x="980.525391"/>
     <use xlink:href="#DejaVuSans-3d" x="1044.001953"/>
     <use xlink:href="#DejaVuSans-30" x="1127.791016"/>
     <use xlink:href="#DejaVuSans-2e" x="1191.414062"/>
     <use xlink:href="#DejaVuSans-33" x="1223.201172"/>
     <use xlink:href="#DejaVuSans-2c" x="1286.824219"/>
     <use xlink:href="#DejaVuSans-20" x="1318.611328"/>
     <use xlink:href="#DejaVuSans-64" x="1350.398438"/>
     <use xlink:href="#DejaVuSans-3d" x="1413.875"/>
     <use xlink:href="#DejaVuSans-30" x="1497.664062"/>
     <use xlink:href="#DejaVuSans-2e" x="1561.287109"/>
     <use xlink:href="#DejaVuSans-37" x="1593.074219"/>
     <use xlink:href="#DejaVuSans-35" x="1656.697266"/>
     <use xlink:href="#DejaVuSans-2c" x="1720.320312"/>
     <use xlink:href="#DejaVuSans-20" x="1752.107422"/>
     <use xlink:href="#DejaVuSans-6e" x="1783.894531"/>
     <use xlink:href="#DejaVuSans-3d" x="1847.273438"/>
     <use xlink:href="#DejaVuSans-35" x="1931.0625"/>
     <use xlink:href="#DejaVuSans-30" x="1994.685547"/>
     <use xlink:href="#DejaVuSans-29" x="2058.308594"/>
     <use xlink:href="#DejaVuSans-20" x="2097.322266"/>
     <use xlink:href="#DejaVuSans-2d" x="2129.109375"/>
     <use xlink:href="#DejaVuSans-20" x="2165.193359"/>
     <use xlink:href="#DejaVuSans-43" x="2196.980469"/>
     <use xlink:href="#DejaVuSans-6f" x="2266.804688"/>
     <use xlink:href="#DejaVuSans-6e" x="2327.986328"/>
     <use xlink:href="#DejaVuSans-74" x="2391.365234"/>
     <use xlink:href="#DejaVuSans-6f" x="2430.574219"/>
     <use xlink:href="#DejaVuSans-75" x="2491.755859"/>
     <use xlink:href="#DejaVuSans-72" x="2555.134766"/>
    </g>
   </g>
   <g id="legend_1">
    <g id="patch_7">
     <path d="M 487.777813 51.075 
L 591.910625 51.075 
Q 593.910625 51.075 593.910625 49.075 
L 593.910625 35.396875 
Q 593.910625 33.396875 591.910625 33.396875 
L 487.777813 33.396875 
Q 485.777813 33.396875 485.777813 35.396875 
L 485.777813 49.075 
Q 485.777813 51.075 487.777813 51.075 
z
" style="fill: #ffffff; opacity: 0.8; stroke: #cccccc; stroke-linejoin: miter"/>
    </g>
    <g id="line2d_30">
     <g>
      <use xlink:href="#mc0fe5658c0" x="499.777813" y="41.495313" style="fill: #ff0000; stroke: #ff0000"/>
     </g>
    </g>
    <g id="text_18">
     <!-- Model Position -->
     <g transform="translate(517.777813 44.995313) scale(0.1 -0.1)">
      <defs>
       <path id="DejaVuSans-4d" d="M 628 4666 
L 1569 4666 
L 2759 1491 
L 3956 4666 
L 4897 4666 
L 4897 0 
L 4281 0 
L 4281 4097 
L 3078 897 
L 2444 897 
L 1241 4097 
L 1241 0 
L 628 0 
L 628 4666 
z
" transform="scale(0.015625)"/>
       <path id="DejaVuSans-6c" d="M 603 4863 
L 1178 4863 
L 1178 0 
L 603 0 
L 603 4863 
z
" transform="scale(0.015625)"/>
       <path id="DejaVuSans-50" d="M 1259 4147 
L 1259 2394 
L 2053 2394 
Q 2494 2394 2734 2622 
Q 2975 2850 2975 3272 
Q 2975 3691 2734 3919 
Q 2494 4147 2053 4147 
L 1259 4147 
z
M 628 4666 
L 2053 4666 
Q 2838 4666 3239 4311 
Q 3641 3956 3641 3272 
Q 3641 2581 3239 2228 
Q 2838 1875 2053 1875 
L 1259 1875 
L 1259 0 
L 628 0 
L 628 4666 
z
" transform="scale(0.015625)"/>
      </defs>
      <use xlink:href="#DejaVuSans-4d"/>
      <use xlink:href="#DejaVuSans-6f" x="86.279297"/>
      <use xlink:href="#DejaVuSans-64" x="147.460938"/>
      <use xlink:href="#DejaVuSans-65" x="210.9375"/>
      <use xlink:href="#DejaVuSans-6c" x="272.460938"/>
      <use xlink:href="#DejaVuSans-20" x="300.244141"/>
      <use xlink:href="#DejaVuSans-50" x="332.03125"/>
      <use xlink:href="#DejaVuSans-6f" x="388.708984"/>
      <use xlink:href="#DejaVuSans-73" x="449.890625"/>
      <use xlink:href="#DejaVuSans-69" x="501.990234"/>
      <use xlink:href="#DejaVuSans-74" x="529.773438"/>
      <use xlink:href="#DejaVuSans-69" x="568.982422"/>
      <use xlink:href="#DejaVuSans-6f" x="596.765625"/>
      <use xlink:href="#DejaVuSans-6e" x="657.947266"/>
     </g>
    </g>
   </g>
  </g>
  <g id="axes_2">
   <g id="patch_8">
    <path d="M 632.390625 582.796875 
L 660.110625 582.796875 
L 660.110625 28.396875 
L 632.390625 28.396875 
z
" style="fill: #ffffff"/>
   </g>
   <g id="patch_9">
    <path clip-path="url(#p220f21e6bf)" style="fill: #ffffff; stroke: #ffffff; stroke-width: 0.01; stroke-linejoin: miter"/>
   </g>
   <g id="matplotlib.axis_3"/>
   <g id="matplotlib.axis_4">
    <g id="ytick_8">
     <g id="line2d_31">
      <g>
       <use xlink:href="#mb6bbc149c2" x="660.110625" y="554.366106" style="stroke: #000000; stroke-width: 0.8"/>
      </g>
     </g>
     <g id="text_19">
      <!-- 0 -->
      <g transform="translate(663.610625 560.444856) scale(0.16 -0.16)">
       <use xlink:href="#DejaVuSans-30"/>
      </g>
     </g>
    </g>
    <g id="ytick_9">
     <g id="line2d_32">
      <g>
       <use xlink:href="#mb6bbc149c2" x="660.110625" y="497.504567" style="stroke: #000000; stroke-width: 0.8"/>
      </g>
     </g>
     <g id="text_20">
      <!-- 2 -->
      <g transform="translate(663.610625 503.583317) scale(0.16 -0.16)">
       <use xlink:href="#DejaVuSans-32"/>
      </g>
     </g>
    </g>
    <g id="ytick_10">
     <g id="line2d_33">
      <g>
       <use xlink:href="#mb6bbc149c2" x="660.110625" y="440.643029" style="stroke: #000000; stroke-width: 0.8"/>
      </g>
     </g>
     <g id="text_21">
      <!-- 4 -->
      <g transform="translate(663.610625 446.721779) scale(0.16 -0.16)">
       <use xlink:href="#DejaVuSans-34"/>
      </g>
     </g>
    </g>
    <g id="ytick_11">
     <g id="line2d_34">
      <g>
       <use xlink:href="#mb6bbc149c2" x="660.110625" y="383.78149" style="stroke: #000000; stroke-width: 0.8"/>
      </g>
     </g>
     <g id="text_22">
      <!-- 6 -->
      <g transform="translate(663.610625 389.86024) scale(0.16 -0.16)">
       <use xlink:href="#DejaVuSans-36"/>
      </g>
     </g>
    </g>
    <g id="ytick_12">
     <g id="line2d_35">
      <g>
       <use xlink:href="#mb6bbc149c2" x="660.110625" y="326.919952" style="stroke: #000000; stroke-width: 0.8"/>
      </g>
     </g>
     <g id="text_23">
      <!-- 8 -->
      <g transform="translate(663.610625 332.998702) scale(0.16 -0.16)">
       <defs>
        <path id="DejaVuSans-38" d="M 2034 2216 
Q 1584 2216 1326 1975 
Q 1069 1734 1069 1313 
Q 1069 891 1326 650 
Q 1584 409 2034 409 
Q 2484 409 2743 651 
Q 3003 894 3003 1313 
Q 3003 1734 2745 1975 
Q 2488 2216 2034 2216 
z
M 1403 2484 
Q 997 2584 770 2862 
Q 544 3141 544 3541 
Q 544 4100 942 4425 
Q 1341 4750 2034 4750 
Q 2731 4750 3128 4425 
Q 3525 4100 3525 3541 
Q 3525 3141 3298 2862 
Q 3072 2584 2669 2484 
Q 3125 2378 3379 2068 
Q 3634 1759 3634 1313 
Q 3634 634 3220 271 
Q 2806 -91 2034 -91 
Q 1263 -91 848 271 
Q 434 634 434 1313 
Q 434 1759 690 2068 
Q 947 2378 1403 2484 
z
M 1172 3481 
Q 1172 3119 1398 2916 
Q 1625 2713 2034 2713 
Q 2441 2713 2670 2916 
Q 2900 3119 2900 3481 
Q 2900 3844 2670 4047 
Q 2441 4250 2034 4250 
Q 1625 4250 1398 4047 
Q 1172 3844 1172 3481 
z
" transform="scale(0.015625)"/>
       </defs>
       <use xlink:href="#DejaVuSans-38"/>
      </g>
     </g>
    </g>
    <g id="ytick_13">
     <g id="line2d_36">
      <g>
       <use xlink:href="#mb6bbc149c2" x="660.110625" y="270.058413" style="stroke: #000000; stroke-width: 0.8"/>
      </g>
     </g>
     <g id="text_24">
      <!-- 10 -->
      <g transform="translate(663.610625 276.137163) scale(0.16 -0.16)">
       <use xlink:href="#DejaVuSans-31"/>
       <use xlink:href="#DejaVuSans-30" x="63.623047"/>
      </g>
     </g>
    </g>
    <g id="ytick_14">
     <g id="line2d_37">
      <g>
       <use xlink:href="#mb6bbc149c2" x="660.110625" y="213.196875" style="stroke: #000000; stroke-width: 0.8"/>
      </g>
     </g>
     <g id="text_25">
      <!-- 12 -->
      <g transform="translate(663.610625 219.275625) scale(0.16 -0.16)">
       <use xlink:href="#DejaVuSans-31"/>
       <use xlink:href="#DejaVuSans-32" x="63.623047"/>
      </g>
     </g>
    </g>
    <g id="ytick_15">
     <g id="line2d_38">
      <g>
       <use xlink:href="#mb6bbc149c2" x="660.110625" y="156.335337" style="stroke: #000000; stroke-width: 0.8"/>
      </g>
     </g>
     <g id="text_26">
      <!-- 14 -->
      <g transform="translate(663.610625 162.414087) scale(0.16 -0.16)">
       <use xlink:href="#DejaVuSans-31"/>
       <use xlink:href="#DejaVuSans-34" x="63.623047"/>
      </g>
     </g>
    </g>
    <g id="ytick_16">
     <g id="line2d_39">
      <g>
       <use xlink:href="#mb6bbc149c2" x="660.110625" y="99.473798" style="stroke: #000000; stroke-width: 0.8"/>
      </g>
     </g>
     <g id="text_27">
      <!-- 16 -->
      <g transform="translate(663.610625 105.552548) scale(0.16 -0.16)">
       <use xlink:href="#DejaVuSans-31"/>
       <use xlink:href="#DejaVuSans-36" x="63.623047"/>
      </g>
     </g>
    </g>
    <g id="ytick_17">
     <g id="line2d_40">
      <g>
       <use xlink:href="#mb6bbc149c2" x="660.110625" y="42.61226" style="stroke: #000000; stroke-width: 0.8"/>
      </g>
     </g>
     <g id="text_28">
      <!-- 18 -->
      <g transform="translate(663.610625 48.69101) scale(0.16 -0.16)">
       <use xlink:href="#DejaVuSans-31"/>
       <use xlink:href="#DejaVuSans-38" x="63.623047"/>
      </g>
     </g>
    </g>
    <g id="text_29">
     <!-- Loss -->
     <g transform="translate(695.569063 316.564063) rotate(-90) scale(0.1 -0.1)">
      <use xlink:href="#DejaVuSans-4c"/>
      <use xlink:href="#DejaVuSans-6f" x="53.962891"/>
      <use xlink:href="#DejaVuSans-73" x="115.144531"/>
      <use xlink:href="#DejaVuSans-73" x="167.244141"/>
     </g>
    </g>
   </g>
   <g id="LineCollection_1"/>
   <g id="LineCollection_2">
    <path d="M 632.390625 582.796875 
L 660.110625 582.796875 
" clip-path="url(#p1c1165508f)" style="fill: none; stroke: #440154; stroke-width: 1.5"/>
    <path d="M 632.390625 568.58149 
L 660.110625 568.58149 
" clip-path="url(#p1c1165508f)" style="fill: none; stroke: #460a5d; stroke-width: 1.5"/>
    <path d="M 632.390625 554.366106 
L 660.110625 554.366106 
" clip-path="url(#p1c1165508f)" style="fill: none; stroke: #481467; stroke-width: 1.5"/>
    <path d="M 632.390625 540.150721 
L 660.110625 540.150721 
" clip-path="url(#p1c1165508f)" style="fill: none; stroke: #481c6e; stroke-width: 1.5"/>
    <path d="M 632.390625 525.935337 
L 660.110625 525.935337 
" clip-path="url(#p1c1165508f)" style="fill: none; stroke: #482576; stroke-width: 1.5"/>
    <path d="M 632.390625 511.719952 
L 660.110625 511.719952 
" clip-path="url(#p1c1165508f)" style="fill: none; stroke: #472d7b; stroke-width: 1.5"/>
    <path d="M 632.390625 497.504567 
L 660.110625 497.504567 
" clip-path="url(#p1c1165508f)" style="fill: none; stroke: #453581; stroke-width: 1.5"/>
    <path d="M 632.390625 483.289183 
L 660.110625 483.289183 
" clip-path="url(#p1c1165508f)" style="fill: none; stroke: #433d84; stroke-width: 1.5"/>
    <path d="M 632.390625 469.073798 
L 660.110625 469.073798 
" clip-path="url(#p1c1165508f)" style="fill: none; stroke: #404588; stroke-width: 1.5"/>
    <path d="M 632.390625 454.858413 
L 660.110625 454.858413 
" clip-path="url(#p1c1165508f)" style="fill: none; stroke: #3d4d8a; stroke-width: 1.5"/>
    <path d="M 632.390625 440.643029 
L 660.110625 440.643029 
" clip-path="url(#p1c1165508f)" style="fill: none; stroke: #3a538b; stroke-width: 1.5"/>
    <path d="M 632.390625 426.427644 
L 660.110625 426.427644 
" clip-path="url(#p1c1165508f)" style="fill: none; stroke: #375b8d; stroke-width: 1.5"/>
    <path d="M 632.390625 412.21226 
L 660.110625 412.21226 
" clip-path="url(#p1c1165508f)" style="fill: none; stroke: #34618d; stroke-width: 1.5"/>
    <path d="M 632.390625 397.996875 
L 660.110625 397.996875 
" clip-path="url(#p1c1165508f)" style="fill: none; stroke: #31688e; stroke-width: 1.5"/>
    <path d="M 632.390625 383.78149 
L 660.110625 383.78149 
" clip-path="url(#p1c1165508f)" style="fill: none; stroke: #2e6e8e; stroke-width: 1.5"/>
    <path d="M 632.390625 369.566106 
L 660.110625 369.566106 
" clip-path="url(#p1c1165508f)" style="fill: none; stroke: #2b748e; stroke-width: 1.5"/>
    <path d="M 632.390625 355.350721 
L 660.110625 355.350721 
" clip-path="url(#p1c1165508f)" style="fill: none; stroke: #297b8e; stroke-width: 1.5"/>
    <path d="M 632.390625 341.135337 
L 660.110625 341.135337 
" clip-path="url(#p1c1165508f)" style="fill: none; stroke: #26818e; stroke-width: 1.5"/>
    <path d="M 632.390625 326.919952 
L 660.110625 326.919952 
" clip-path="url(#p1c1165508f)" style="fill: none; stroke: #24878e; stroke-width: 1.5"/>
    <path d="M 632.390625 312.704567 
L 660.110625 312.704567 
" clip-path="url(#p1c1165508f)" style="fill: none; stroke: #228d8d; stroke-width: 1.5"/>
    <path d="M 632.390625 298.489183 
L 660.110625 298.489183 
" clip-path="url(#p1c1165508f)" style="fill: none; stroke: #20938c; stroke-width: 1.5"/>
    <path d="M 632.390625 284.273798 
L 660.110625 284.273798 
" clip-path="url(#p1c1165508f)" style="fill: none; stroke: #1f998a; stroke-width: 1.5"/>
    <path d="M 632.390625 270.058413 
L 660.110625 270.058413 
" clip-path="url(#p1c1165508f)" style="fill: none; stroke: #1fa088; stroke-width: 1.5"/>
    <path d="M 632.390625 255.843029 
L 660.110625 255.843029 
" clip-path="url(#p1c1165508f)" style="fill: none; stroke: #21a585; stroke-width: 1.5"/>
    <path d="M 632.390625 241.627644 
L 660.110625 241.627644 
" clip-path="url(#p1c1165508f)" style="fill: none; stroke: #25ac82; stroke-width: 1.5"/>
    <path d="M 632.390625 227.41226 
L 660.110625 227.41226 
" clip-path="url(#p1c1165508f)" style="fill: none; stroke: #2db27d; stroke-width: 1.5"/>
    <path d="M 632.390625 213.196875 
L 660.110625 213.196875 
" clip-path="url(#p1c1165508f)" style="fill: none; stroke: #35b779; stroke-width: 1.5"/>
    <path d="M 632.390625 198.98149 
L 660.110625 198.98149 
" clip-path="url(#p1c1165508f)" style="fill: none; stroke: #40bd72; stroke-width: 1.5"/>
    <path d="M 632.390625 184.766106 
L 660.110625 184.766106 
" clip-path="url(#p1c1165508f)" style="fill: none; stroke: #4cc26c; stroke-width: 1.5"/>
    <path d="M 632.390625 170.550721 
L 660.110625 170.550721 
" clip-path="url(#p1c1165508f)" style="fill: none; stroke: #5ac864; stroke-width: 1.5"/>
    <path d="M 632.390625 156.335337 
L 660.110625 156.335337 
" clip-path="url(#p1c1165508f)" style="fill: none; stroke: #67cc5c; stroke-width: 1.5"/>
    <path d="M 632.390625 142.119952 
L 660.110625 142.119952 
" clip-path="url(#p1c1165508f)" style="fill: none; stroke: #77d153; stroke-width: 1.5"/>
    <path d="M 632.390625 127.904567 
L 660.110625 127.904567 
" clip-path="url(#p1c1165508f)" style="fill: none; stroke: #89d548; stroke-width: 1.5"/>
    <path d="M 632.390625 113.689183 
L 660.110625 113.689183 
" clip-path="url(#p1c1165508f)" style="fill: none; stroke: #98d83e; stroke-width: 1.5"/>
    <path d="M 632.390625 99.473798 
L 660.110625 99.473798 
" clip-path="url(#p1c1165508f)" style="fill: none; stroke: #aadc32; stroke-width: 1.5"/>
    <path d="M 632.390625 85.258413 
L 660.110625 85.258413 
" clip-path="url(#p1c1165508f)" style="fill: none; stroke: #bade28; stroke-width: 1.5"/>
    <path d="M 632.390625 71.043029 
L 660.110625 71.043029 
" clip-path="url(#p1c1165508f)" style="fill: none; stroke: #cde11d; stroke-width: 1.5"/>
    <path d="M 632.390625 56.827644 
L 660.110625 56.827644 
" clip-path="url(#p1c1165508f)" style="fill: none; stroke: #dde318; stroke-width: 1.5"/>
    <path d="M 632.390625 42.61226 
L 660.110625 42.61226 
" clip-path="url(#p1c1165508f)" style="fill: none; stroke: #efe51c; stroke-width: 1.5"/>
    <path d="M 632.390625 28.396875 
L 660.110625 28.396875 
" clip-path="url(#p1c1165508f)" style="fill: none; stroke: #fde725; stroke-width: 1.5"/>
   </g>
   <g id="patch_10">
    <path d="M 632.390625 582.796875 
L 646.250625 582.796875 
L 660.110625 582.796875 
L 660.110625 28.396875 
L 646.250625 28.396875 
L 632.390625 28.396875 
L 632.390625 582.796875 
z
" style="fill: none; stroke: #000000; stroke-width: 0.8; stroke-linejoin: miter; stroke-linecap: square"/>
   </g>
  </g>
 </g>
 <defs>
  <clipPath id="p74301a92d5">
   <rect x="63.230625" y="28.396875" width="535.68" height="554.4"/>
  </clipPath>
  <clipPath id="p220f21e6bf">
   <rect x="632.390625" y="28.396875" width="27.72" height="554.4"/>
  </clipPath>
  <clipPath id="p1c1165508f">
   <path d="M 632.390625 584.296875 
L 660.110625 584.296875 
L 660.110625 26.896875 
L 632.390625 26.896875 
z
"/>
  </clipPath>
 </defs>
</svg>
