<?xml version="1.0" encoding="utf-8" standalone="no"?>
<!DOCTYPE svg PUBLIC "-//W3C//DTD SVG 1.1//EN"
  "http://www.w3.org/Graphics/SVG/1.1/DTD/svg11.dtd">
<svg xmlns:xlink="http://www.w3.org/1999/xlink" width="704.84875pt" height="622.66pt" viewBox="0 0 704.84875 622.66" xmlns="http://www.w3.org/2000/svg" version="1.1">
 <metadata>
  <rdf:RDF xmlns:dc="http://purl.org/dc/elements/1.1/" xmlns:cc="http://creativecommons.org/ns#" xmlns:rdf="http://www.w3.org/1999/02/22-rdf-syntax-ns#">
   <cc:Work>
    <dc:type rdf:resource="http://purl.org/dc/dcmitype/StillImage"/>
    <dc:date>2025-02-13T13:03:36.500057</dc:date>
    <dc:format>image/svg+xml</dc:format>
    <dc:creator>
     <cc:Agent>
      <dc:title>Matplotlib v3.6.2, https://matplotlib.org/</dc:title>
     </cc:Agent>
    </dc:creator>
   </cc:Work>
  </rdf:RDF>
 </metadata>
 <defs>
  <style type="text/css">*{stroke-linejoin: round; stroke-linecap: butt}</style>
 </defs>
 <g id="figure_1">
  <g id="patch_1">
   <path d="M 0 622.66 
L 704.84875 622.66 
L 704.84875 0 
L 0 0 
z
" style="fill: #ffffff"/>
  </g>
  <g id="axes_1">
   <g id="patch_2">
    <path d="M 63.230625 582.796875 
L 598.910625 582.796875 
L 598.910625 28.396875 
L 63.230625 28.396875 
z
" style="fill: #ffffff"/>
   </g>
   <g id="matplotlib.axis_1">
    <g id="xtick_1">
     <g id="line2d_1">
      <defs>
       <path id="m8c2b553302" d="M 0 0 
L 0 -3.5 
" style="stroke: #000000; stroke-width: 0.8"/>
      </defs>
      <g>
       <use xlink:href="#m8c2b553302" x="116.798625" y="582.796875" style="stroke: #000000; stroke-width: 0.8"/>
      </g>
     </g>
     <g id="line2d_2">
      <defs>
       <path id="mb129f6ddb2" d="M 0 0 
L 0 3.5 
" style="stroke: #000000; stroke-width: 0.8"/>
      </defs>
      <g>
       <use xlink:href="#mb129f6ddb2" x="116.798625" y="28.396875" style="stroke: #000000; stroke-width: 0.8"/>
      </g>
     </g>
     <g id="text_1">
      <!-- −0.6 -->
      <g transform="translate(97.372375 598.454375) scale(0.16 -0.16)">
       <defs>
        <path id="DejaVuSans-2212" d="M 678 2272 
L 4684 2272 
L 4684 1741 
L 678 1741 
L 678 2272 
z
" transform="scale(0.015625)"/>
        <path id="DejaVuSans-30" d="M 2034 4250 
Q 1547 4250 1301 3770 
Q 1056 3291 1056 2328 
Q 1056 1369 1301 889 
Q 1547 409 2034 409 
Q 2525 409 2770 889 
Q 3016 1369 3016 2328 
Q 3016 3291 2770 3770 
Q 2525 4250 2034 4250 
z
M 2034 4750 
Q 2819 4750 3233 4129 
Q 3647 3509 3647 2328 
Q 3647 1150 3233 529 
Q 2819 -91 2034 -91 
Q 1250 -91 836 529 
Q 422 1150 422 2328 
Q 422 3509 836 4129 
Q 1250 4750 2034 4750 
z
" transform="scale(0.015625)"/>
        <path id="DejaVuSans-2e" d="M 684 794 
L 1344 794 
L 1344 0 
L 684 0 
L 684 794 
z
" transform="scale(0.015625)"/>
        <path id="DejaVuSans-36" d="M 2113 2584 
Q 1688 2584 1439 2293 
Q 1191 2003 1191 1497 
Q 1191 994 1439 701 
Q 1688 409 2113 409 
Q 2538 409 2786 701 
Q 3034 994 3034 1497 
Q 3034 2003 2786 2293 
Q 2538 2584 2113 2584 
z
M 3366 4563 
L 3366 3988 
Q 3128 4100 2886 4159 
Q 2644 4219 2406 4219 
Q 1781 4219 1451 3797 
Q 1122 3375 1075 2522 
Q 1259 2794 1537 2939 
Q 1816 3084 2150 3084 
Q 2853 3084 3261 2657 
Q 3669 2231 3669 1497 
Q 3669 778 3244 343 
Q 2819 -91 2113 -91 
Q 1303 -91 875 529 
Q 447 1150 447 2328 
Q 447 3434 972 4092 
Q 1497 4750 2381 4750 
Q 2619 4750 2861 4703 
Q 3103 4656 3366 4563 
z
" transform="scale(0.015625)"/>
       </defs>
       <use xlink:href="#DejaVuSans-2212"/>
       <use xlink:href="#DejaVuSans-30" x="83.789062"/>
       <use xlink:href="#DejaVuSans-2e" x="147.412109"/>
       <use xlink:href="#DejaVuSans-36" x="179.199219"/>
      </g>
     </g>
    </g>
    <g id="xtick_2">
     <g id="line2d_3">
      <g>
       <use xlink:href="#m8c2b553302" x="188.222625" y="582.796875" style="stroke: #000000; stroke-width: 0.8"/>
      </g>
     </g>
     <g id="line2d_4">
      <g>
       <use xlink:href="#mb129f6ddb2" x="188.222625" y="28.396875" style="stroke: #000000; stroke-width: 0.8"/>
      </g>
     </g>
     <g id="text_2">
      <!-- −0.4 -->
      <g transform="translate(168.796375 598.454375) scale(0.16 -0.16)">
       <defs>
        <path id="DejaVuSans-34" d="M 2419 4116 
L 825 1625 
L 2419 1625 
L 2419 4116 
z
M 2253 4666 
L 3047 4666 
L 3047 1625 
L 3713 1625 
L 3713 1100 
L 3047 1100 
L 3047 0 
L 2419 0 
L 2419 1100 
L 313 1100 
L 313 1709 
L 2253 4666 
z
" transform="scale(0.015625)"/>
       </defs>
       <use xlink:href="#DejaVuSans-2212"/>
       <use xlink:href="#DejaVuSans-30" x="83.789062"/>
       <use xlink:href="#DejaVuSans-2e" x="147.412109"/>
       <use xlink:href="#DejaVuSans-34" x="179.199219"/>
      </g>
     </g>
    </g>
    <g id="xtick_3">
     <g id="line2d_5">
      <g>
       <use xlink:href="#m8c2b553302" x="259.646625" y="582.796875" style="stroke: #000000; stroke-width: 0.8"/>
      </g>
     </g>
     <g id="line2d_6">
      <g>
       <use xlink:href="#mb129f6ddb2" x="259.646625" y="28.396875" style="stroke: #000000; stroke-width: 0.8"/>
      </g>
     </g>
     <g id="text_3">
      <!-- −0.2 -->
      <g transform="translate(240.220375 598.454375) scale(0.16 -0.16)">
       <defs>
        <path id="DejaVuSans-32" d="M 1228 531 
L 3431 531 
L 3431 0 
L 469 0 
L 469 531 
Q 828 903 1448 1529 
Q 2069 2156 2228 2338 
Q 2531 2678 2651 2914 
Q 2772 3150 2772 3378 
Q 2772 3750 2511 3984 
Q 2250 4219 1831 4219 
Q 1534 4219 1204 4116 
Q 875 4013 500 3803 
L 500 4441 
Q 881 4594 1212 4672 
Q 1544 4750 1819 4750 
Q 2544 4750 2975 4387 
Q 3406 4025 3406 3419 
Q 3406 3131 3298 2873 
Q 3191 2616 2906 2266 
Q 2828 2175 2409 1742 
Q 1991 1309 1228 531 
z
" transform="scale(0.015625)"/>
       </defs>
       <use xlink:href="#DejaVuSans-2212"/>
       <use xlink:href="#DejaVuSans-30" x="83.789062"/>
       <use xlink:href="#DejaVuSans-2e" x="147.412109"/>
       <use xlink:href="#DejaVuSans-32" x="179.199219"/>
      </g>
     </g>
    </g>
    <g id="xtick_4">
     <g id="line2d_7">
      <g>
       <use xlink:href="#m8c2b553302" x="331.070625" y="582.796875" style="stroke: #000000; stroke-width: 0.8"/>
      </g>
     </g>
     <g id="line2d_8">
      <g>
       <use xlink:href="#mb129f6ddb2" x="331.070625" y="28.396875" style="stroke: #000000; stroke-width: 0.8"/>
      </g>
     </g>
     <g id="text_4">
      <!-- 0.0 -->
      <g transform="translate(318.348125 598.454375) scale(0.16 -0.16)">
       <use xlink:href="#DejaVuSans-30"/>
       <use xlink:href="#DejaVuSans-2e" x="63.623047"/>
       <use xlink:href="#DejaVuSans-30" x="95.410156"/>
      </g>
     </g>
    </g>
    <g id="xtick_5">
     <g id="line2d_9">
      <g>
       <use xlink:href="#m8c2b553302" x="402.494625" y="582.796875" style="stroke: #000000; stroke-width: 0.8"/>
      </g>
     </g>
     <g id="line2d_10">
      <g>
       <use xlink:href="#mb129f6ddb2" x="402.494625" y="28.396875" style="stroke: #000000; stroke-width: 0.8"/>
      </g>
     </g>
     <g id="text_5">
      <!-- 0.2 -->
      <g transform="translate(389.772125 598.454375) scale(0.16 -0.16)">
       <use xlink:href="#DejaVuSans-30"/>
       <use xlink:href="#DejaVuSans-2e" x="63.623047"/>
       <use xlink:href="#DejaVuSans-32" x="95.410156"/>
      </g>
     </g>
    </g>
    <g id="xtick_6">
     <g id="line2d_11">
      <g>
       <use xlink:href="#m8c2b553302" x="473.918625" y="582.796875" style="stroke: #000000; stroke-width: 0.8"/>
      </g>
     </g>
     <g id="line2d_12">
      <g>
       <use xlink:href="#mb129f6ddb2" x="473.918625" y="28.396875" style="stroke: #000000; stroke-width: 0.8"/>
      </g>
     </g>
     <g id="text_6">
      <!-- 0.4 -->
      <g transform="translate(461.196125 598.454375) scale(0.16 -0.16)">
       <use xlink:href="#DejaVuSans-30"/>
       <use xlink:href="#DejaVuSans-2e" x="63.623047"/>
       <use xlink:href="#DejaVuSans-34" x="95.410156"/>
      </g>
     </g>
    </g>
    <g id="xtick_7">
     <g id="line2d_13">
      <g>
       <use xlink:href="#m8c2b553302" x="545.342625" y="582.796875" style="stroke: #000000; stroke-width: 0.8"/>
      </g>
     </g>
     <g id="line2d_14">
      <g>
       <use xlink:href="#mb129f6ddb2" x="545.342625" y="28.396875" style="stroke: #000000; stroke-width: 0.8"/>
      </g>
     </g>
     <g id="text_7">
      <!-- 0.6 -->
      <g transform="translate(532.620125 598.454375) scale(0.16 -0.16)">
       <use xlink:href="#DejaVuSans-30"/>
       <use xlink:href="#DejaVuSans-2e" x="63.623047"/>
       <use xlink:href="#DejaVuSans-36" x="95.410156"/>
      </g>
     </g>
    </g>
    <g id="text_8">
     <!-- Direction 1 -->
     <g transform="translate(303.715156 613.380313) scale(0.1 -0.1)">
      <defs>
       <path id="DejaVuSans-44" d="M 1259 4147 
L 1259 519 
L 2022 519 
Q 2988 519 3436 956 
Q 3884 1394 3884 2338 
Q 3884 3275 3436 3711 
Q 2988 4147 2022 4147 
L 1259 4147 
z
M 628 4666 
L 1925 4666 
Q 3281 4666 3915 4102 
Q 4550 3538 4550 2338 
Q 4550 1131 3912 565 
Q 3275 0 1925 0 
L 628 0 
L 628 4666 
z
" transform="scale(0.015625)"/>
       <path id="DejaVuSans-69" d="M 603 3500 
L 1178 3500 
L 1178 0 
L 603 0 
L 603 3500 
z
M 603 4863 
L 1178 4863 
L 1178 4134 
L 603 4134 
L 603 4863 
z
" transform="scale(0.015625)"/>
       <path id="DejaVuSans-72" d="M 2631 2963 
Q 2534 3019 2420 3045 
Q 2306 3072 2169 3072 
Q 1681 3072 1420 2755 
Q 1159 2438 1159 1844 
L 1159 0 
L 581 0 
L 581 3500 
L 1159 3500 
L 1159 2956 
Q 1341 3275 1631 3429 
Q 1922 3584 2338 3584 
Q 2397 3584 2469 3576 
Q 2541 3569 2628 3553 
L 2631 2963 
z
" transform="scale(0.015625)"/>
       <path id="DejaVuSans-65" d="M 3597 1894 
L 3597 1613 
L 953 1613 
Q 991 1019 1311 708 
Q 1631 397 2203 397 
Q 2534 397 2845 478 
Q 3156 559 3463 722 
L 3463 178 
Q 3153 47 2828 -22 
Q 2503 -91 2169 -91 
Q 1331 -91 842 396 
Q 353 884 353 1716 
Q 353 2575 817 3079 
Q 1281 3584 2069 3584 
Q 2775 3584 3186 3129 
Q 3597 2675 3597 1894 
z
M 3022 2063 
Q 3016 2534 2758 2815 
Q 2500 3097 2075 3097 
Q 1594 3097 1305 2825 
Q 1016 2553 972 2059 
L 3022 2063 
z
" transform="scale(0.015625)"/>
       <path id="DejaVuSans-63" d="M 3122 3366 
L 3122 2828 
Q 2878 2963 2633 3030 
Q 2388 3097 2138 3097 
Q 1578 3097 1268 2742 
Q 959 2388 959 1747 
Q 959 1106 1268 751 
Q 1578 397 2138 397 
Q 2388 397 2633 464 
Q 2878 531 3122 666 
L 3122 134 
Q 2881 22 2623 -34 
Q 2366 -91 2075 -91 
Q 1284 -91 818 406 
Q 353 903 353 1747 
Q 353 2603 823 3093 
Q 1294 3584 2113 3584 
Q 2378 3584 2631 3529 
Q 2884 3475 3122 3366 
z
" transform="scale(0.015625)"/>
       <path id="DejaVuSans-74" d="M 1172 4494 
L 1172 3500 
L 2356 3500 
L 2356 3053 
L 1172 3053 
L 1172 1153 
Q 1172 725 1289 603 
Q 1406 481 1766 481 
L 2356 481 
L 2356 0 
L 1766 0 
Q 1100 0 847 248 
Q 594 497 594 1153 
L 594 3053 
L 172 3053 
L 172 3500 
L 594 3500 
L 594 4494 
L 1172 4494 
z
" transform="scale(0.015625)"/>
       <path id="DejaVuSans-6f" d="M 1959 3097 
Q 1497 3097 1228 2736 
Q 959 2375 959 1747 
Q 959 1119 1226 758 
Q 1494 397 1959 397 
Q 2419 397 2687 759 
Q 2956 1122 2956 1747 
Q 2956 2369 2687 2733 
Q 2419 3097 1959 3097 
z
M 1959 3584 
Q 2709 3584 3137 3096 
Q 3566 2609 3566 1747 
Q 3566 888 3137 398 
Q 2709 -91 1959 -91 
Q 1206 -91 779 398 
Q 353 888 353 1747 
Q 353 2609 779 3096 
Q 1206 3584 1959 3584 
z
" transform="scale(0.015625)"/>
       <path id="DejaVuSans-6e" d="M 3513 2113 
L 3513 0 
L 2938 0 
L 2938 2094 
Q 2938 2591 2744 2837 
Q 2550 3084 2163 3084 
Q 1697 3084 1428 2787 
Q 1159 2491 1159 1978 
L 1159 0 
L 581 0 
L 581 3500 
L 1159 3500 
L 1159 2956 
Q 1366 3272 1645 3428 
Q 1925 3584 2291 3584 
Q 2894 3584 3203 3211 
Q 3513 2838 3513 2113 
z
" transform="scale(0.015625)"/>
       <path id="DejaVuSans-20" transform="scale(0.015625)"/>
       <path id="DejaVuSans-31" d="M 794 531 
L 1825 531 
L 1825 4091 
L 703 3866 
L 703 4441 
L 1819 4666 
L 2450 4666 
L 2450 531 
L 3481 531 
L 3481 0 
L 794 0 
L 794 531 
z
" transform="scale(0.015625)"/>
      </defs>
      <use xlink:href="#DejaVuSans-44"/>
      <use xlink:href="#DejaVuSans-69" x="77.001953"/>
      <use xlink:href="#DejaVuSans-72" x="104.785156"/>
      <use xlink:href="#DejaVuSans-65" x="143.648438"/>
      <use xlink:href="#DejaVuSans-63" x="205.171875"/>
      <use xlink:href="#DejaVuSans-74" x="260.152344"/>
      <use xlink:href="#DejaVuSans-69" x="299.361328"/>
      <use xlink:href="#DejaVuSans-6f" x="327.144531"/>
      <use xlink:href="#DejaVuSans-6e" x="388.326172"/>
      <use xlink:href="#DejaVuSans-20" x="451.705078"/>
      <use xlink:href="#DejaVuSans-31" x="483.492188"/>
     </g>
    </g>
   </g>
   <g id="matplotlib.axis_2">
    <g id="ytick_1">
     <g id="line2d_15">
      <defs>
       <path id="m1f62870761" d="M 0 0 
L 3.5 0 
" style="stroke: #000000; stroke-width: 0.8"/>
      </defs>
      <g>
       <use xlink:href="#m1f62870761" x="63.230625" y="527.356875" style="stroke: #000000; stroke-width: 0.8"/>
      </g>
     </g>
     <g id="line2d_16">
      <defs>
       <path id="ma488620187" d="M 0 0 
L -3.5 0 
" style="stroke: #000000; stroke-width: 0.8"/>
      </defs>
      <g>
       <use xlink:href="#ma488620187" x="598.910625" y="527.356875" style="stroke: #000000; stroke-width: 0.8"/>
      </g>
     </g>
     <g id="text_9">
      <!-- −0.6 -->
      <g transform="translate(20.878125 533.435625) scale(0.16 -0.16)">
       <use xlink:href="#DejaVuSans-2212"/>
       <use xlink:href="#DejaVuSans-30" x="83.789062"/>
       <use xlink:href="#DejaVuSans-2e" x="147.412109"/>
       <use xlink:href="#DejaVuSans-36" x="179.199219"/>
      </g>
     </g>
    </g>
    <g id="ytick_2">
     <g id="line2d_17">
      <g>
       <use xlink:href="#m1f62870761" x="63.230625" y="453.436875" style="stroke: #000000; stroke-width: 0.8"/>
      </g>
     </g>
     <g id="line2d_18">
      <g>
       <use xlink:href="#ma488620187" x="598.910625" y="453.436875" style="stroke: #000000; stroke-width: 0.8"/>
      </g>
     </g>
     <g id="text_10">
      <!-- −0.4 -->
      <g transform="translate(20.878125 459.515625) scale(0.16 -0.16)">
       <use xlink:href="#DejaVuSans-2212"/>
       <use xlink:href="#DejaVuSans-30" x="83.789062"/>
       <use xlink:href="#DejaVuSans-2e" x="147.412109"/>
       <use xlink:href="#DejaVuSans-34" x="179.199219"/>
      </g>
     </g>
    </g>
    <g id="ytick_3">
     <g id="line2d_19">
      <g>
       <use xlink:href="#m1f62870761" x="63.230625" y="379.516875" style="stroke: #000000; stroke-width: 0.8"/>
      </g>
     </g>
     <g id="line2d_20">
      <g>
       <use xlink:href="#ma488620187" x="598.910625" y="379.516875" style="stroke: #000000; stroke-width: 0.8"/>
      </g>
     </g>
     <g id="text_11">
      <!-- −0.2 -->
      <g transform="translate(20.878125 385.595625) scale(0.16 -0.16)">
       <use xlink:href="#DejaVuSans-2212"/>
       <use xlink:href="#DejaVuSans-30" x="83.789062"/>
       <use xlink:href="#DejaVuSans-2e" x="147.412109"/>
       <use xlink:href="#DejaVuSans-32" x="179.199219"/>
      </g>
     </g>
    </g>
    <g id="ytick_4">
     <g id="line2d_21">
      <g>
       <use xlink:href="#m1f62870761" x="63.230625" y="305.596875" style="stroke: #000000; stroke-width: 0.8"/>
      </g>
     </g>
     <g id="line2d_22">
      <g>
       <use xlink:href="#ma488620187" x="598.910625" y="305.596875" style="stroke: #000000; stroke-width: 0.8"/>
      </g>
     </g>
     <g id="text_12">
      <!-- 0.0 -->
      <g transform="translate(34.285625 311.675625) scale(0.16 -0.16)">
       <use xlink:href="#DejaVuSans-30"/>
       <use xlink:href="#DejaVuSans-2e" x="63.623047"/>
       <use xlink:href="#DejaVuSans-30" x="95.410156"/>
      </g>
     </g>
    </g>
    <g id="ytick_5">
     <g id="line2d_23">
      <g>
       <use xlink:href="#m1f62870761" x="63.230625" y="231.676875" style="stroke: #000000; stroke-width: 0.8"/>
      </g>
     </g>
     <g id="line2d_24">
      <g>
       <use xlink:href="#ma488620187" x="598.910625" y="231.676875" style="stroke: #000000; stroke-width: 0.8"/>
      </g>
     </g>
     <g id="text_13">
      <!-- 0.2 -->
      <g transform="translate(34.285625 237.755625) scale(0.16 -0.16)">
       <use xlink:href="#DejaVuSans-30"/>
       <use xlink:href="#DejaVuSans-2e" x="63.623047"/>
       <use xlink:href="#DejaVuSans-32" x="95.410156"/>
      </g>
     </g>
    </g>
    <g id="ytick_6">
     <g id="line2d_25">
      <g>
       <use xlink:href="#m1f62870761" x="63.230625" y="157.756875" style="stroke: #000000; stroke-width: 0.8"/>
      </g>
     </g>
     <g id="line2d_26">
      <g>
       <use xlink:href="#ma488620187" x="598.910625" y="157.756875" style="stroke: #000000; stroke-width: 0.8"/>
      </g>
     </g>
     <g id="text_14">
      <!-- 0.4 -->
      <g transform="translate(34.285625 163.835625) scale(0.16 -0.16)">
       <use xlink:href="#DejaVuSans-30"/>
       <use xlink:href="#DejaVuSans-2e" x="63.623047"/>
       <use xlink:href="#DejaVuSans-34" x="95.410156"/>
      </g>
     </g>
    </g>
    <g id="ytick_7">
     <g id="line2d_27">
      <g>
       <use xlink:href="#m1f62870761" x="63.230625" y="83.836875" style="stroke: #000000; stroke-width: 0.8"/>
      </g>
     </g>
     <g id="line2d_28">
      <g>
       <use xlink:href="#ma488620187" x="598.910625" y="83.836875" style="stroke: #000000; stroke-width: 0.8"/>
      </g>
     </g>
     <g id="text_15">
      <!-- 0.6 -->
      <g transform="translate(34.285625 89.915625) scale(0.16 -0.16)">
       <use xlink:href="#DejaVuSans-30"/>
       <use xlink:href="#DejaVuSans-2e" x="63.623047"/>
       <use xlink:href="#DejaVuSans-36" x="95.410156"/>
      </g>
     </g>
    </g>
    <g id="text_16">
     <!-- Direction 2 -->
     <g transform="translate(14.798437 332.952344) rotate(-90) scale(0.1 -0.1)">
      <use xlink:href="#DejaVuSans-44"/>
      <use xlink:href="#DejaVuSans-69" x="77.001953"/>
      <use xlink:href="#DejaVuSans-72" x="104.785156"/>
      <use xlink:href="#DejaVuSans-65" x="143.648438"/>
      <use xlink:href="#DejaVuSans-63" x="205.171875"/>
      <use xlink:href="#DejaVuSans-74" x="260.152344"/>
      <use xlink:href="#DejaVuSans-69" x="299.361328"/>
      <use xlink:href="#DejaVuSans-6f" x="327.144531"/>
      <use xlink:href="#DejaVuSans-6e" x="388.326172"/>
      <use xlink:href="#DejaVuSans-20" x="451.705078"/>
      <use xlink:href="#DejaVuSans-32" x="483.492188"/>
     </g>
    </g>
   </g>
   <g id="PathCollection_1"/>
   <g id="PathCollection_2">
    <path d="M 247.521527 582.796875 
L 247.333792 571.482595 
L 249.07879 569.769604 
L 258.380098 560.168314 
L 260.011035 558.528291 
L 269.371786 548.854012 
L 270.94328 547.244369 
L 280.324524 537.539732 
L 281.875525 535.832337 
L 292.80777 535.933026 
L 303.740015 536.025526 
L 314.67226 536.070634 
L 325.604505 536.175614 
L 335.189434 526.225451 
L 336.536745 524.702392 
L 347.46899 524.731815 
L 357.005071 514.911149 
L 358.401235 513.526883 
L 368.168675 503.596869 
L 368.072158 492.282588 
L 369.33348 491.080674 
L 379.28434 480.968308 
L 379.12103 469.654017 
L 380.265725 468.525267 
L 390.291568 458.339725 
L 390.035222 447.025445 
L 391.19797 445.992018 
L 401.456786 435.711165 
L 401.429304 424.396873 
L 401.295059 413.082582 
L 402.130215 412.235499 
L 412.454039 401.768302 
L 413.06246 401.129619 
L 423.818502 390.454016 
L 423.972592 379.13973 
L 423.994705 377.866065 
L 424.262996 379.13973 
L 426.334227 390.454016 
L 427.595337 401.768302 
L 426.777528 413.082582 
L 425.608749 424.396873 
L 423.994705 433.619718 
L 423.471745 435.711165 
L 423.170964 447.025445 
L 422.744475 458.339725 
L 421.639909 469.654017 
L 418.405773 480.968308 
L 415.581722 492.282588 
L 414.599236 503.596869 
L 414.572084 514.911149 
L 413.794462 526.225451 
L 413.833058 537.539732 
L 414.48476 548.854012 
L 414.946192 560.168314 
L 414.882655 571.482595 
L 413.744819 582.796875 
" clip-path="url(#p65df75d130)" style="fill: none; stroke: #460a5d; stroke-width: 1.5"/>
    <path d="M 216.659059 28.396875 
L 224.429 39.711155 
L 227.214305 43.593043 
L 231.812473 51.025436 
L 238.146545 60.963506 
L 238.94896 62.339738 
L 245.643265 73.654018 
L 249.07879 79.390769 
L 252.740181 84.968299 
L 260.011035 95.617577 
L 260.586533 96.282601 
L 270.94328 106.846646 
L 271.644396 107.596881 
L 281.875525 117.653987 
L 282.950112 118.911162 
L 292.097596 130.225442 
L 292.80777 131.023146 
L 302.368913 141.539733 
L 303.740015 143.419349 
L 308.005623 152.854025 
L 313.394278 164.168305 
L 303.740015 164.586776 
L 303.3471 164.168305 
L 292.80777 153.316323 
L 292.352442 152.854025 
L 281.875525 142.058817 
L 281.395384 141.539733 
L 270.94328 130.73263 
L 260.011035 131.073591 
L 259.175931 130.225442 
L 259.553447 118.911162 
L 249.07879 108.170347 
L 248.520505 107.596881 
L 238.146545 97.03219 
L 237.427308 96.282601 
L 227.214305 85.804207 
L 226.404902 84.968299 
L 216.282055 74.558347 
L 215.415425 73.654018 
L 205.349805 63.25892 
L 194.417565 63.503632 
L 193.348104 62.339738 
L 183.485325 52.095411 
L 172.553075 52.217185 
L 171.453759 51.025436 
L 161.620825 40.811437 
L 150.688585 40.901694 
L 139.756345 41.012632 
L 138.533886 39.711155 
L 128.824106 29.660759 
L 117.891845 29.776683 
L 106.959605 29.837984 
L 96.027365 29.898987 
L 85.095104 30.019522 
L 83.592114 28.396875 
" clip-path="url(#p65df75d130)" style="fill: none; stroke: #460a5d; stroke-width: 1.5"/>
    <path d="M 325.604505 198.300494 
L 325.415366 198.111168 
L 325.604505 193.433349 
L 327.808886 198.111168 
L 325.604505 198.300494 
" clip-path="url(#p65df75d130)" style="fill: none; stroke: #460a5d; stroke-width: 1.5"/>
    <path d="M 314.67226 175.653349 
L 314.501584 175.482585 
L 314.67226 166.914821 
L 317.035825 175.482585 
L 314.67226 175.653349 
" clip-path="url(#p65df75d130)" style="fill: none; stroke: #460a5d; stroke-width: 1.5"/>
   </g>
   <g id="PathCollection_3">
    <path d="M 245.077499 582.796875 
L 244.741606 571.482595 
L 249.07879 567.224965 
L 255.914963 560.168314 
L 260.011035 556.049422 
L 266.973254 548.854012 
L 270.94328 544.787611 
L 277.949634 537.539732 
L 281.875525 533.217977 
L 292.80777 533.380529 
L 303.740015 533.513878 
L 314.67226 533.53714 
L 325.604505 533.664452 
L 332.770448 526.225451 
L 336.536745 521.967862 
L 347.46899 521.997266 
L 354.349765 514.911149 
L 358.401235 510.894204 
L 365.579098 503.596869 
L 365.41016 492.282588 
L 369.33348 488.544054 
L 376.788233 480.968308 
L 376.369305 469.654017 
L 380.265725 465.811873 
L 387.620717 458.339725 
L 387.021577 447.025445 
L 391.19797 443.313551 
L 398.78406 435.711165 
L 398.67042 424.396873 
L 398.331739 413.082582 
L 402.130215 409.22986 
L 409.489569 401.768302 
L 413.06246 398.017704 
L 420.683139 390.454016 
L 420.660269 379.13973 
L 420.990352 367.825444 
L 421.340126 356.511158 
L 413.06246 348.045419 
L 410.35001 345.196873 
L 402.130215 336.784161 
L 398.714984 333.882587 
L 399.104749 322.568301 
L 399.562505 311.254015 
L 400.179184 299.939735 
L 391.19797 291.004222 
L 388.565395 288.625449 
L 380.265725 280.289202 
L 377.017339 277.311163 
L 377.871819 265.996877 
L 369.33348 257.360068 
L 366.58902 254.682592 
L 358.401235 246.369798 
L 355.363248 243.368306 
L 347.46899 235.438639 
L 343.771766 232.05402 
L 344.881685 220.739734 
L 336.536745 212.412264 
L 333.365542 209.425448 
L 325.604505 201.683002 
L 322.036213 198.111168 
L 322.835547 186.796877 
L 314.67226 178.653731 
L 311.502743 175.482585 
L 303.740015 167.623024 
L 300.496275 164.168305 
L 292.80777 156.251719 
L 289.461305 152.854025 
L 281.875525 145.037788 
L 278.6399 141.539733 
L 270.94328 133.581703 
L 260.011035 134.23083 
L 256.067249 130.225442 
L 256.909269 118.911162 
L 249.07879 110.881713 
L 245.880915 107.596881 
L 238.146545 99.720311 
L 234.848034 96.282601 
L 227.214305 88.450506 
L 223.842512 84.968299 
L 216.282055 77.193411 
L 212.89021 73.654018 
L 205.349805 65.866793 
L 194.417565 66.25462 
L 190.820317 62.339738 
L 183.485325 54.720988 
L 172.553075 54.888322 
L 168.989797 51.025436 
L 161.620825 43.370887 
L 150.688585 43.473022 
L 139.756345 43.634817 
L 136.070904 39.711155 
L 128.824106 32.210141 
L 117.891845 32.388661 
L 106.959605 32.440658 
L 96.027365 32.511519 
L 85.095104 32.72483 
L 81.086301 28.396875 
" clip-path="url(#p65df75d130)" style="fill: none; stroke: #481467; stroke-width: 1.5"/>
    <path d="M 293.359567 28.396875 
L 300.082769 39.711155 
L 303.740015 45.802657 
L 306.455466 51.025436 
L 312.147465 62.339738 
L 314.67226 67.827953 
L 316.807839 73.654018 
L 321.202425 84.968299 
L 325.604505 95.830911 
L 325.763711 96.282601 
L 330.097519 107.596881 
L 334.251022 118.911162 
L 336.536745 125.341293 
L 338.19741 130.225442 
L 341.671814 141.539733 
L 345.258277 152.854025 
L 347.46899 159.62491 
L 349.53009 164.168305 
L 356.93737 175.482585 
L 358.401235 177.548957 
L 365.161737 186.796877 
L 369.33348 193.421032 
L 372.29564 198.111168 
L 378.865209 209.425448 
L 380.265725 211.387041 
L 388.772343 220.739734 
L 391.19797 223.424485 
L 397.806605 232.05402 
L 402.130215 238.64921 
L 404.842121 243.368306 
L 410.467761 254.682592 
L 413.06246 260.033432 
L 415.580745 265.996877 
L 420.375677 277.311163 
L 423.994705 283.631338 
L 427.631814 288.625449 
L 434.926945 299.346918 
L 435.388148 299.939735 
L 445.84101 311.254015 
L 445.859195 311.275871 
L 453.359767 322.568301 
L 456.791445 331.574751 
L 457.617859 333.882587 
L 462.912202 345.196873 
L 466.243977 356.511158 
L 467.723685 363.878849 
L 468.755729 367.825444 
L 469.84588 379.13973 
L 473.188345 390.454016 
L 475.752893 401.768302 
L 478.655925 411.762179 
L 479.023573 413.082582 
L 481.068945 424.396873 
L 483.021835 435.711165 
L 486.265849 447.025445 
L 489.588175 455.255972 
L 490.839936 458.339725 
L 495.753913 469.654017 
L 500.520425 480.03744 
L 500.924427 480.968308 
L 505.950589 492.282588 
L 509.756021 503.596869 
L 511.452665 508.562291 
L 513.490057 514.911149 
L 516.477534 526.225451 
L 519.348937 537.539732 
L 521.781184 548.854012 
L 522.384905 553.751103 
L 523.040558 560.168314 
L 524.083318 571.482595 
L 525.751294 582.796875 
" clip-path="url(#p65df75d130)" style="fill: none; stroke: #481467; stroke-width: 1.5"/>
   </g>
   <g id="PathCollection_4">
    <path d="M 242.633472 582.796875 
L 242.14942 571.482595 
L 249.07879 564.680325 
L 253.449828 560.168314 
L 260.011035 553.570554 
L 264.574721 548.854012 
L 270.94328 542.330853 
L 275.574744 537.539732 
L 281.875525 530.603618 
L 292.80777 530.828033 
L 303.740015 531.00223 
L 314.67226 531.003646 
L 325.604505 531.153291 
L 330.351462 526.225451 
L 336.536745 519.233333 
L 347.46899 519.262717 
L 351.694458 514.911149 
L 358.401235 508.261524 
L 362.989521 503.596869 
L 362.748162 492.282588 
L 369.33348 486.007434 
L 374.292126 480.968308 
L 373.617581 469.654017 
L 380.265725 463.098478 
L 384.949866 458.339725 
L 384.007932 447.025445 
L 391.19797 440.635083 
L 396.111334 435.711165 
L 395.911537 424.396873 
L 395.36842 413.082582 
L 402.130215 406.224222 
L 406.5251 401.768302 
L 413.06246 394.905788 
L 417.547776 390.454016 
L 417.347946 379.13973 
L 417.819106 367.825444 
L 418.330622 356.511158 
L 413.06246 351.123301 
L 407.419183 345.196873 
L 402.130215 339.783775 
L 395.18436 333.882587 
L 395.562632 322.568301 
L 396.134094 311.254015 
L 397.09575 299.939735 
L 391.19797 294.071966 
L 385.17034 288.625449 
L 380.265725 283.69922 
L 373.297759 277.311163 
L 374.658186 265.996877 
L 369.33348 260.610763 
L 363.257001 254.682592 
L 358.401235 249.752689 
L 351.939225 243.368306 
L 347.46899 238.878021 
L 340.014722 232.05402 
L 341.681502 220.739734 
L 336.536745 215.605748 
L 329.974913 209.425448 
L 325.604505 205.065509 
L 318.65706 198.111168 
L 319.827744 186.796877 
L 314.67226 181.654112 
L 308.503903 175.482585 
L 303.740015 170.659273 
L 297.645449 164.168305 
L 292.80777 159.187115 
L 286.570167 152.854025 
L 281.875525 148.016758 
L 275.884416 141.539733 
L 270.94328 136.430775 
L 260.011035 137.388069 
L 252.958567 130.225442 
L 254.26509 118.911162 
L 249.07879 113.593079 
L 243.241324 107.596881 
L 238.146545 102.408432 
L 232.268759 96.282601 
L 227.214305 91.096804 
L 221.280122 84.968299 
L 216.282055 79.828476 
L 210.364994 73.654018 
L 205.349805 68.474667 
L 194.417565 69.005608 
L 188.29253 62.339738 
L 183.485325 57.346564 
L 172.553075 57.559458 
L 166.525835 51.025436 
L 161.620825 45.930337 
L 150.688585 46.044349 
L 139.756345 46.257003 
L 133.607922 39.711155 
L 128.824106 34.759524 
L 117.891845 35.00064 
L 106.959605 35.043332 
L 96.027365 35.124052 
L 85.095104 35.430137 
L 78.580488 28.396875 
" clip-path="url(#p65df75d130)" style="fill: none; stroke: #481c6e; stroke-width: 1.5"/>
    <path d="M 63.230625 398.942849 
L 72.606785 390.454016 
L 74.162865 389.68945 
L 85.095104 383.913879 
L 90.458556 379.13973 
L 96.027365 374.402384 
L 103.40678 367.825444 
L 106.959605 364.471451 
L 114.608999 356.511158 
L 117.891845 352.535833 
L 123.619542 345.196873 
L 128.753638 333.882587 
L 128.824106 333.549987 
L 131.270012 322.568301 
L 134.229737 311.254015 
L 128.824106 306.671417 
L 117.891845 303.762673 
L 106.959605 303.201432 
L 96.027365 303.569065 
L 85.095104 304.417786 
L 74.162865 305.82957 
L 63.230625 308.118857 
" clip-path="url(#p65df75d130)" style="fill: none; stroke: #481c6e; stroke-width: 1.5"/>
    <path d="M 63.230625 60.992515 
L 65.2747 62.339738 
L 74.162865 69.567627 
L 78.833253 73.654018 
L 85.095104 80.778722 
L 88.681219 84.968299 
L 96.027365 94.120397 
L 97.556731 96.282601 
L 106.959605 107.078135 
L 107.63239 107.596881 
L 117.891845 115.332552 
L 128.299054 118.911162 
L 128.824106 119.096092 
L 139.756345 121.638203 
L 150.688585 123.311442 
L 161.620825 126.761796 
L 172.553075 129.474567 
L 183.485325 129.287796 
L 194.417565 129.435143 
L 196.713531 130.225442 
L 205.349805 134.048391 
L 212.121356 141.539733 
L 216.282055 148.474423 
L 220.116605 152.854025 
L 226.878759 164.168305 
L 227.214305 164.56009 
L 238.146545 166.996032 
L 249.07879 167.189007 
L 260.011035 173.704594 
L 261.433876 175.482585 
L 270.201767 186.796877 
L 270.94328 187.679539 
L 278.166564 198.111168 
L 281.875525 202.569822 
L 291.784781 209.425448 
L 292.80777 210.104563 
L 303.740015 215.780187 
L 310.294028 220.739734 
L 314.67226 224.50675 
L 322.072986 232.05402 
L 325.604505 236.003947 
L 330.484185 243.368306 
L 336.536745 251.752 
L 338.378902 254.682592 
L 346.720361 265.996877 
L 347.46899 266.995198 
L 353.998953 277.311163 
L 358.401235 284.108807 
L 361.003695 288.625449 
L 367.5275 299.939735 
L 369.33348 304.011721 
L 371.968202 311.254015 
L 372.790908 322.568301 
L 369.861482 333.882587 
L 369.33348 336.171016 
L 363.731257 345.196873 
L 358.401235 350.470855 
L 349.400247 356.511158 
L 347.46899 358.903193 
L 344.978911 367.825444 
L 347.46899 372.412394 
L 358.401235 376.735071 
L 369.33348 377.301205 
L 372.552933 379.13973 
L 374.249134 390.454016 
L 369.33348 399.83814 
L 358.401235 393.8958 
L 350.155051 401.768302 
L 347.46899 404.308334 
L 345.453726 413.082582 
L 341.82997 424.396873 
L 336.536745 429.653397 
L 325.604505 432.822386 
L 314.67226 435.416064 
L 303.740015 432.074576 
L 299.606454 435.711165 
L 292.80777 442.771475 
L 290.202724 447.025445 
L 284.984299 458.339725 
L 281.875525 464.541554 
L 271.578428 469.654017 
L 270.94328 469.986012 
L 260.011035 474.43592 
L 250.190958 480.968308 
L 249.07879 481.571722 
L 238.146545 483.471758 
L 227.214305 483.286037 
L 216.282055 483.797277 
L 205.349805 487.058647 
L 199.080292 492.282588 
L 194.417565 496.357974 
L 186.997877 503.596869 
L 183.485325 507.59376 
L 175.746583 514.911149 
L 172.553075 517.835081 
L 161.620825 526.084369 
L 161.30574 526.225451 
L 150.688585 530.351973 
L 139.756345 533.292305 
L 128.824106 535.195935 
L 117.891845 531.65889 
L 106.959605 535.033359 
L 101.889879 537.539732 
L 96.027365 541.464868 
L 85.484662 548.854012 
L 85.095104 549.173959 
L 74.162865 558.908368 
L 72.439897 560.168314 
L 63.230625 566.466744 
" clip-path="url(#p65df75d130)" style="fill: none; stroke: #481c6e; stroke-width: 1.5"/>
    <path d="M 344.091951 28.396875 
L 346.605775 39.711155 
L 347.46899 44.135865 
L 348.665101 51.025436 
L 350.931003 62.339738 
L 353.69828 73.654018 
L 356.531363 84.968299 
L 358.401235 91.896111 
L 359.818585 96.282601 
L 364.280662 107.596881 
L 369.33348 117.728819 
L 370.125628 118.911162 
L 378.130045 130.225442 
L 380.265725 133.173924 
L 387.682808 141.539733 
L 391.19797 144.854623 
L 402.130215 152.791444 
L 402.183762 152.854025 
L 409.708358 164.168305 
L 413.06246 168.54991 
L 419.085365 175.482585 
L 423.994705 181.060806 
L 427.999804 186.796877 
L 432.913048 198.111168 
L 434.926945 203.203314 
L 437.502925 209.425448 
L 442.85362 220.739734 
L 445.859195 227.045859 
L 448.876519 232.05402 
L 456.791445 240.923227 
L 459.152292 243.368306 
L 467.723685 253.806213 
L 468.313326 254.682592 
L 473.367881 265.996877 
L 478.407697 277.311163 
L 478.655925 278.024209 
L 481.786427 288.625449 
L 486.784549 299.939735 
L 489.588175 305.190722 
L 493.079357 311.254015 
L 500.520425 321.818586 
L 501.06575 322.568301 
L 510.153552 333.882587 
L 511.452665 335.4966 
L 519.014805 345.196873 
L 522.384905 350.550474 
L 525.953808 356.511158 
L 529.779023 367.825444 
L 531.924061 379.13973 
L 532.775229 390.454016 
L 533.317144 396.959535 
L 533.693184 401.768302 
L 536.001207 413.082582 
L 538.234117 424.396873 
L 541.814009 435.711165 
L 544.249405 442.47942 
L 545.677511 447.025445 
L 549.733599 458.339725 
L 554.650262 469.654017 
L 555.181645 471.223768 
L 558.510473 480.968308 
L 562.018588 492.282588 
L 564.445355 503.596869 
L 566.113885 510.456052 
L 567.234346 514.911149 
L 569.934573 526.225451 
L 572.870096 537.539732 
L 575.650453 548.854012 
L 577.046146 554.00873 
L 578.75167 560.168314 
L 580.77674 571.482595 
L 582.490583 582.796875 
" clip-path="url(#p65df75d130)" style="fill: none; stroke: #481c6e; stroke-width: 1.5"/>
    <path d="M 292.80777 373.912016 
L 303.740015 372.202665 
L 311.105196 367.825444 
L 314.67226 357.224531 
L 316.941938 356.511158 
L 314.67226 355.883688 
L 303.740015 350.902747 
L 292.80777 352.440823 
L 289.963699 356.511158 
L 287.264417 367.825444 
L 292.80777 373.912016 
z
" clip-path="url(#p65df75d130)" style="fill: none; stroke: #481c6e; stroke-width: 1.5"/>
   </g>
   <g id="PathCollection_5">
    <path d="M 240.189444 582.796875 
L 239.557234 571.482595 
L 249.07879 562.135686 
L 250.984693 560.168314 
L 260.011035 551.091686 
L 262.176189 548.854012 
L 270.94328 539.874095 
L 273.199854 537.539732 
L 281.875525 527.989258 
L 292.80777 528.275536 
L 303.740015 528.490582 
L 314.67226 528.470151 
L 325.604505 528.64213 
L 327.932476 526.225451 
L 336.536745 516.498804 
L 347.46899 516.528169 
L 349.039151 514.911149 
L 358.401235 505.628845 
L 360.399944 503.596869 
L 360.086164 492.282588 
L 369.33348 483.470815 
L 371.796019 480.968308 
L 370.865856 469.654017 
L 380.265725 460.385084 
L 382.279014 458.339725 
L 380.994287 447.025445 
L 380.265725 439.207448 
L 375.284689 447.025445 
L 369.33348 455.584317 
L 365.778847 458.339725 
L 358.401235 463.153872 
L 348.551625 469.654017 
L 347.46899 471.728603 
L 343.637251 480.968308 
L 336.536745 490.87859 
L 331.269892 492.282588 
L 325.604505 493.392126 
L 320.207534 492.282588 
L 314.67226 491.471469 
L 313.067275 492.282588 
L 303.740015 497.876237 
L 297.463663 503.596869 
L 292.80777 507.102191 
L 281.875525 510.409283 
L 270.94328 511.514433 
L 260.011035 513.734276 
L 256.516278 514.911149 
L 249.07879 517.211477 
L 238.146545 523.341958 
L 227.214305 520.593456 
L 219.186758 526.225451 
L 219.675055 537.539732 
L 223.383107 548.854012 
L 227.214305 558.555161 
L 227.637372 560.168314 
L 227.214305 563.116678 
L 225.252447 571.482595 
L 217.794546 582.796875 
" clip-path="url(#p65df75d130)" style="fill: none; stroke: #482576; stroke-width: 1.5"/>
    <path d="M 63.230625 354.675951 
L 74.162865 348.505019 
L 82.4076 345.196873 
L 85.095104 342.490142 
L 96.027365 335.793823 
L 97.775323 333.882587 
L 96.027365 331.042819 
L 85.095104 328.654012 
L 75.119889 333.882587 
L 74.162865 334.90602 
L 63.230625 340.632281 
" clip-path="url(#p65df75d130)" style="fill: none; stroke: #482576; stroke-width: 1.5"/>
    <path d="M 63.230625 34.857121 
L 70.16384 39.711155 
L 74.162865 42.670371 
L 85.095104 51.014595 
L 85.111341 51.025436 
L 96.027365 59.112578 
L 100.557487 62.339738 
L 106.959605 67.341066 
L 115.65663 73.654018 
L 117.891845 75.588672 
L 128.824106 80.948148 
L 139.278849 84.968299 
L 139.756345 85.132461 
L 150.688585 87.724452 
L 161.620825 89.300249 
L 172.553075 89.840895 
L 183.485325 91.205155 
L 194.417565 94.521399 
L 198.161584 96.282601 
L 205.349805 99.664765 
L 215.992722 107.596881 
L 216.282055 107.782976 
L 227.214305 116.629617 
L 230.260176 118.911162 
L 238.146545 125.05842 
L 243.457429 130.225442 
L 249.07879 135.826395 
L 249.849885 130.225442 
L 251.620912 118.911162 
L 249.07879 116.304445 
L 240.601734 107.596881 
L 238.146545 105.096553 
L 229.689485 96.282601 
L 227.214305 93.743103 
L 218.717732 84.968299 
L 216.282055 82.46354 
L 207.839778 73.654018 
L 205.349805 71.082541 
L 194.417565 71.756596 
L 185.764743 62.339738 
L 183.485325 59.97214 
L 172.553075 60.230595 
L 164.061873 51.025436 
L 161.620825 48.489787 
L 150.688585 48.615676 
L 139.756345 48.879188 
L 131.14494 39.711155 
L 128.824106 37.308907 
L 117.891845 37.612618 
L 106.959605 37.646007 
L 96.027365 37.736585 
L 85.095104 38.135444 
L 76.074675 28.396875 
" clip-path="url(#p65df75d130)" style="fill: none; stroke: #482576; stroke-width: 1.5"/>
    <path d="M 388.863094 28.396875 
L 391.19797 34.60881 
L 393.127076 39.711155 
L 396.941468 51.025436 
L 401.572831 62.339738 
L 402.130215 63.389305 
L 412.027759 73.654018 
L 413.06246 74.468614 
L 423.994705 81.938827 
L 427.365017 84.968299 
L 434.926945 93.185246 
L 436.674626 96.282601 
L 442.887709 107.596881 
L 445.859195 115.526111 
L 446.804232 118.911162 
L 451.454053 130.225442 
L 456.791445 138.567145 
L 458.520304 141.539733 
L 464.5141 152.854025 
L 467.723685 159.533128 
L 469.692559 164.168305 
L 474.613476 175.482585 
L 478.655925 182.126797 
L 481.497205 186.796877 
L 487.347741 198.111168 
L 489.588175 201.612098 
L 495.231084 209.425448 
L 500.520425 217.014976 
L 502.662104 220.739734 
L 508.012203 232.05402 
L 511.452665 241.042236 
L 512.248696 243.368306 
L 516.08785 254.682592 
L 519.231155 265.996877 
L 521.446748 277.311163 
L 522.384905 281.63549 
L 523.920406 288.625449 
L 528.751098 299.939735 
L 533.317144 306.791484 
L 536.199594 311.254015 
L 544.249405 322.287878 
L 544.441493 322.568301 
L 552.96082 333.882587 
L 555.181645 337.189198 
L 560.500115 345.196873 
L 566.113885 356.228764 
L 566.254005 356.511158 
L 571.948241 367.825444 
L 576.763244 379.13973 
L 577.046146 380.014353 
L 580.557103 390.454016 
L 584.920738 401.768302 
L 587.978385 409.927959 
L 589.213456 413.082582 
L 593.429359 424.396873 
L 596.419665 435.711165 
L 598.910625 446.286482 
" clip-path="url(#p65df75d130)" style="fill: none; stroke: #482576; stroke-width: 1.5"/>
    <path d="M 391.19797 437.956616 
L 393.438608 435.711165 
L 393.152653 424.396873 
L 392.4051 413.082582 
L 391.19797 405.676087 
L 385.355754 413.082582 
L 382.240638 424.396873 
L 381.514538 435.711165 
L 391.19797 437.956616 
z
" clip-path="url(#p65df75d130)" style="fill: none; stroke: #482576; stroke-width: 1.5"/>
    <path d="M 402.130215 403.218583 
L 403.560631 401.768302 
L 402.130215 393.919749 
L 394.566891 401.768302 
L 402.130215 403.218583 
z
" clip-path="url(#p65df75d130)" style="fill: none; stroke: #482576; stroke-width: 1.5"/>
    <path d="M 413.06246 391.793873 
L 414.412412 390.454016 
L 414.035623 379.13973 
L 414.647859 367.825444 
L 415.321118 356.511158 
L 413.06246 354.201182 
L 404.488355 345.196873 
L 402.130215 342.783388 
L 391.653736 333.882587 
L 392.020515 322.568301 
L 392.705684 311.254015 
L 394.012315 299.939735 
L 391.19797 297.13971 
L 381.402281 299.939735 
L 385.869541 311.254015 
L 388.079035 322.568301 
L 389.021691 333.882587 
L 387.048504 345.196873 
L 384.220018 356.511158 
L 387.715162 367.825444 
L 391.19797 369.770786 
L 402.130215 371.18114 
L 407.642298 379.13973 
L 405.749281 390.454016 
L 413.06246 391.793873 
z
" clip-path="url(#p65df75d130)" style="fill: none; stroke: #482576; stroke-width: 1.5"/>
    <path d="M 380.265725 297.763326 
L 381.775284 288.625449 
L 380.265725 287.109237 
L 374.865508 288.625449 
L 380.265725 297.763326 
z
" clip-path="url(#p65df75d130)" style="fill: none; stroke: #482576; stroke-width: 1.5"/>
    <path d="M 369.33348 278.73907 
L 369.578179 277.311163 
L 371.444553 265.996877 
L 369.33348 263.861458 
L 361.129411 265.996877 
L 368.445308 277.311163 
L 369.33348 278.73907 
z
" clip-path="url(#p65df75d130)" style="fill: none; stroke: #482576; stroke-width: 1.5"/>
    <path d="M 358.401235 262.339339 
L 359.924982 254.682592 
L 358.401235 253.13558 
L 352.503269 254.682592 
L 358.401235 262.339339 
z
" clip-path="url(#p65df75d130)" style="fill: none; stroke: #482576; stroke-width: 1.5"/>
    <path d="M 347.46899 248.336179 
L 348.515201 243.368306 
L 347.46899 242.317402 
L 343.960587 243.368306 
L 347.46899 248.336179 
z
" clip-path="url(#p65df75d130)" style="fill: none; stroke: #482576; stroke-width: 1.5"/>
    <path d="M 336.536745 230.821616 
L 338.481318 220.739734 
L 336.536745 218.799232 
L 329.458949 220.739734 
L 336.536745 230.821616 
z
" clip-path="url(#p65df75d130)" style="fill: none; stroke: #482576; stroke-width: 1.5"/>
    <path d="M 325.604505 214.699785 
L 326.584284 209.425448 
L 325.604505 208.448016 
L 320.098413 209.425448 
L 325.604505 214.699785 
z
" clip-path="url(#p65df75d130)" style="fill: none; stroke: #482576; stroke-width: 1.5"/>
    <path d="M 314.67226 202.481543 
L 315.277907 198.111168 
L 316.819942 186.796877 
L 314.67226 184.654494 
L 305.505062 175.482585 
L 303.740015 173.695521 
L 294.794624 164.168305 
L 292.80777 162.122511 
L 283.67903 152.854025 
L 281.875525 150.995729 
L 273.128932 141.539733 
L 270.94328 139.279847 
L 260.011035 140.545307 
L 253.948783 141.539733 
L 260.011035 147.434183 
L 266.068436 152.854025 
L 270.94328 158.439133 
L 275.927271 164.168305 
L 281.875525 173.295666 
L 284.105792 175.482585 
L 292.80777 183.216553 
L 296.934184 186.796877 
L 303.740015 192.389517 
L 309.61709 198.111168 
L 314.67226 202.481543 
z
" clip-path="url(#p65df75d130)" style="fill: none; stroke: #482576; stroke-width: 1.5"/>
   </g>
   <g id="PathCollection_6">
    <path d="M 465.48121 28.396875 
L 467.723685 33.873766 
L 469.650934 39.711155 
L 472.923199 51.025436 
L 475.4583 62.339738 
L 477.656181 73.654018 
L 478.655925 77.132993 
L 481.026134 84.968299 
L 486.039327 96.282601 
L 489.588175 102.52537 
L 492.663483 107.596881 
L 499.195873 118.911162 
L 500.520425 121.284964 
L 506.328889 130.225442 
L 511.452665 137.289383 
L 514.852448 141.539733 
L 521.783201 152.854025 
L 522.384905 154.090674 
L 526.959284 164.168305 
L 531.87111 175.482585 
L 533.317144 179.687376 
L 535.546775 186.796877 
L 539.982268 198.111168 
L 544.249405 207.175065 
L 545.23743 209.425448 
L 548.216061 220.739734 
L 551.159881 232.05402 
L 554.082033 243.368306 
L 555.181645 249.06455 
L 556.198062 254.682592 
L 558.59973 265.996877 
L 561.250376 277.311163 
L 565.718038 288.625449 
L 566.113885 289.577137 
L 570.384602 299.939735 
L 577.046146 310.942146 
L 577.235286 311.254015 
L 584.931495 322.568301 
L 587.978385 326.968866 
L 592.656396 333.882587 
L 598.910625 344.02024 
" clip-path="url(#p65df75d130)" style="fill: none; stroke: #472d7b; stroke-width: 1.5"/>
   </g>
   <g id="PathCollection_7">
    <path d="M 506.744366 28.396875 
L 508.032052 39.711155 
L 510.176603 51.025436 
L 511.452665 55.205656 
L 514.034362 62.339738 
L 519.859815 73.654018 
L 522.384905 77.991811 
L 526.55745 84.968299 
L 533.317144 94.396954 
L 534.890182 96.282601 
L 544.249405 106.754746 
L 544.921648 107.596881 
L 552.286841 118.911162 
L 555.181645 124.636315 
L 557.819282 130.225442 
L 562.901228 141.539733 
L 566.113885 149.039895 
L 567.659575 152.854025 
L 571.395734 164.168305 
L 575.768345 175.482585 
L 577.046146 178.833163 
L 579.833997 186.796877 
L 583.262288 198.111168 
L 586.616461 209.425448 
L 587.978385 215.5491 
L 589.116884 220.739734 
L 591.026116 232.05402 
L 593.567318 243.368306 
L 596.816756 254.682592 
L 598.910625 262.423785 
" clip-path="url(#p65df75d130)" style="fill: none; stroke: #453581; stroke-width: 1.5"/>
   </g>
   <g id="PathCollection_8">
    <path d="M 546.160413 28.396875 
L 549.468231 39.711155 
L 554.055641 51.025436 
L 555.181645 52.961277 
L 561.498669 62.339738 
L 566.113885 68.435533 
L 570.144305 73.654018 
L 577.046146 82.975326 
L 578.433784 84.968299 
L 585.784668 96.282601 
L 587.978385 100.646505 
L 591.276923 107.596881 
L 596.403766 118.911162 
L 598.910625 124.570223 
" clip-path="url(#p65df75d130)" style="fill: none; stroke: #433d84; stroke-width: 1.5"/>
   </g>
   <g id="PathCollection_9">
    <path d="M 588.004224 28.396875 
L 588.050935 39.711155 
L 598.910625 50.97429 
" clip-path="url(#p65df75d130)" style="fill: none; stroke: #404588; stroke-width: 1.5"/>
   </g>
   <g id="PathCollection_10">
    <path d="M 588.364735 28.396875 
L 588.416022 39.711155 
L 598.910625 50.595639 
" clip-path="url(#p65df75d130)" style="fill: none; stroke: #3d4d8a; stroke-width: 1.5"/>
   </g>
   <g id="PathCollection_11">
    <path d="M 588.725246 28.396875 
L 588.78111 39.711155 
L 598.910625 50.216988 
" clip-path="url(#p65df75d130)" style="fill: none; stroke: #3a538b; stroke-width: 1.5"/>
   </g>
   <g id="PathCollection_12">
    <path d="M 589.085757 28.396875 
L 589.146198 39.711155 
L 598.910625 49.838338 
" clip-path="url(#p65df75d130)" style="fill: none; stroke: #375b8d; stroke-width: 1.5"/>
   </g>
   <g id="PathCollection_13">
    <path d="M 589.446268 28.396875 
L 589.511285 39.711155 
L 598.910625 49.459687 
" clip-path="url(#p65df75d130)" style="fill: none; stroke: #34618d; stroke-width: 1.5"/>
   </g>
   <g id="PathCollection_14">
    <path d="M 589.806779 28.396875 
L 589.876373 39.711155 
L 598.910625 49.081036 
" clip-path="url(#p65df75d130)" style="fill: none; stroke: #31688e; stroke-width: 1.5"/>
   </g>
   <g id="PathCollection_15">
    <path d="M 590.167289 28.396875 
L 590.241461 39.711155 
L 598.910625 48.702385 
" clip-path="url(#p65df75d130)" style="fill: none; stroke: #2e6e8e; stroke-width: 1.5"/>
   </g>
   <g id="PathCollection_16">
    <path d="M 590.5278 28.396875 
L 590.606548 39.711155 
L 598.910625 48.323734 
" clip-path="url(#p65df75d130)" style="fill: none; stroke: #2b748e; stroke-width: 1.5"/>
   </g>
   <g id="PathCollection_17">
    <path d="M 590.888311 28.396875 
L 590.971636 39.711155 
L 598.910625 47.945083 
" clip-path="url(#p65df75d130)" style="fill: none; stroke: #297b8e; stroke-width: 1.5"/>
   </g>
   <g id="PathCollection_18">
    <path d="M 591.248822 28.396875 
L 591.336724 39.711155 
L 598.910625 47.566432 
" clip-path="url(#p65df75d130)" style="fill: none; stroke: #26818e; stroke-width: 1.5"/>
   </g>
   <g id="PathCollection_19">
    <path d="M 591.609333 28.396875 
L 591.701811 39.711155 
L 598.910625 47.187781 
" clip-path="url(#p65df75d130)" style="fill: none; stroke: #24878e; stroke-width: 1.5"/>
   </g>
   <g id="PathCollection_20">
    <path d="M 591.969844 28.396875 
L 592.066899 39.711155 
L 598.910625 46.80913 
" clip-path="url(#p65df75d130)" style="fill: none; stroke: #228d8d; stroke-width: 1.5"/>
   </g>
   <g id="PathCollection_21">
    <path d="M 592.330355 28.396875 
L 592.431986 39.711155 
L 598.910625 46.43048 
" clip-path="url(#p65df75d130)" style="fill: none; stroke: #20938c; stroke-width: 1.5"/>
   </g>
   <g id="PathCollection_22">
    <path d="M 592.690866 28.396875 
L 592.797074 39.711155 
L 598.910625 46.051829 
" clip-path="url(#p65df75d130)" style="fill: none; stroke: #1f998a; stroke-width: 1.5"/>
   </g>
   <g id="PathCollection_23">
    <path d="M 593.051377 28.396875 
L 593.162162 39.711155 
L 598.910625 45.673178 
" clip-path="url(#p65df75d130)" style="fill: none; stroke: #1fa088; stroke-width: 1.5"/>
   </g>
   <g id="PathCollection_24">
    <path d="M 593.411888 28.396875 
L 593.527249 39.711155 
L 598.910625 45.294527 
" clip-path="url(#p65df75d130)" style="fill: none; stroke: #21a585; stroke-width: 1.5"/>
   </g>
   <g id="PathCollection_25">
    <path d="M 593.772398 28.396875 
L 593.892337 39.711155 
L 598.910625 44.915876 
" clip-path="url(#p65df75d130)" style="fill: none; stroke: #25ac82; stroke-width: 1.5"/>
   </g>
   <g id="PathCollection_26">
    <path d="M 594.132909 28.396875 
L 594.257425 39.711155 
L 598.910625 44.537225 
" clip-path="url(#p65df75d130)" style="fill: none; stroke: #2db27d; stroke-width: 1.5"/>
   </g>
   <g id="PathCollection_27">
    <path d="M 594.49342 28.396875 
L 594.622512 39.711155 
L 598.910625 44.158574 
" clip-path="url(#p65df75d130)" style="fill: none; stroke: #35b779; stroke-width: 1.5"/>
   </g>
   <g id="PathCollection_28">
    <path d="M 594.853931 28.396875 
L 594.9876 39.711155 
L 598.910625 43.779923 
" clip-path="url(#p65df75d130)" style="fill: none; stroke: #40bd72; stroke-width: 1.5"/>
   </g>
   <g id="PathCollection_29">
    <path d="M 595.214442 28.396875 
L 595.352688 39.711155 
L 598.910625 43.401272 
" clip-path="url(#p65df75d130)" style="fill: none; stroke: #4cc26c; stroke-width: 1.5"/>
   </g>
   <g id="PathCollection_30">
    <path d="M 595.574953 28.396875 
L 595.717775 39.711155 
L 598.910625 43.022622 
" clip-path="url(#p65df75d130)" style="fill: none; stroke: #5ac864; stroke-width: 1.5"/>
   </g>
   <g id="PathCollection_31">
    <path d="M 595.935464 28.396875 
L 596.082863 39.711155 
L 598.910625 42.643971 
" clip-path="url(#p65df75d130)" style="fill: none; stroke: #67cc5c; stroke-width: 1.5"/>
   </g>
   <g id="PathCollection_32">
    <path d="M 596.295975 28.396875 
L 596.447951 39.711155 
L 598.910625 42.26532 
" clip-path="url(#p65df75d130)" style="fill: none; stroke: #77d153; stroke-width: 1.5"/>
   </g>
   <g id="PathCollection_33">
    <path d="M 596.656486 28.396875 
L 596.813038 39.711155 
L 598.910625 41.886669 
" clip-path="url(#p65df75d130)" style="fill: none; stroke: #89d548; stroke-width: 1.5"/>
   </g>
   <g id="PathCollection_34">
    <path d="M 597.016997 28.396875 
L 597.178126 39.711155 
L 598.910625 41.508018 
" clip-path="url(#p65df75d130)" style="fill: none; stroke: #98d83e; stroke-width: 1.5"/>
   </g>
   <g id="PathCollection_35">
    <path d="M 597.377507 28.396875 
L 597.543213 39.711155 
L 598.910625 41.129367 
" clip-path="url(#p65df75d130)" style="fill: none; stroke: #aadc32; stroke-width: 1.5"/>
   </g>
   <g id="PathCollection_36">
    <path d="M 597.738018 28.396875 
L 597.908301 39.711155 
L 598.910625 40.750716 
" clip-path="url(#p65df75d130)" style="fill: none; stroke: #bade28; stroke-width: 1.5"/>
   </g>
   <g id="PathCollection_37">
    <path d="M 598.098529 28.396875 
L 598.273389 39.711155 
L 598.910625 40.372065 
" clip-path="url(#p65df75d130)" style="fill: none; stroke: #cde11d; stroke-width: 1.5"/>
   </g>
   <g id="PathCollection_38">
    <path d="M 598.45904 28.396875 
L 598.638476 39.711155 
L 598.910625 39.993414 
" clip-path="url(#p65df75d130)" style="fill: none; stroke: #dde318; stroke-width: 1.5"/>
   </g>
   <g id="PathCollection_39">
    <path d="M 598.819551 28.396875 
L 598.910625 34.032358 
" clip-path="url(#p65df75d130)" style="fill: none; stroke: #efe51c; stroke-width: 1.5"/>
   </g>
   <g id="PathCollection_40"/>
   <g id="line2d_29">
    <defs>
     <path id="mf2ca2e1a8e" d="M 0 2.5 
C 0.663008 2.5 1.29895 2.236584 1.767767 1.767767 
C 2.236584 1.29895 2.5 0.663008 2.5 0 
C 2.5 -0.663008 2.236584 -1.29895 1.767767 -1.767767 
C 1.29895 -2.236584 0.663008 -2.5 0 -2.5 
C -0.663008 -2.5 -1.29895 -2.236584 -1.767767 -1.767767 
C -2.236584 -1.29895 -2.5 -0.663008 -2.5 0 
C -2.5 0.663008 -2.236584 1.29895 -1.767767 1.767767 
C -1.29895 2.236584 -0.663008 2.5 0 2.5 
z
" style="stroke: #ff0000"/>
    </defs>
    <g clip-path="url(#p65df75d130)">
     <use xlink:href="#mf2ca2e1a8e" x="331.070625" y="305.596875" style="fill: #ff0000; stroke: #ff0000"/>
    </g>
   </g>
   <g id="patch_3">
    <path d="M 63.230625 582.796875 
L 63.230625 28.396875 
" style="fill: none; stroke: #000000; stroke-width: 0.8; stroke-linejoin: miter; stroke-linecap: square"/>
   </g>
   <g id="patch_4">
    <path d="M 598.910625 582.796875 
L 598.910625 28.396875 
" style="fill: none; stroke: #000000; stroke-width: 0.8; stroke-linejoin: miter; stroke-linecap: square"/>
   </g>
   <g id="patch_5">
    <path d="M 63.230625 582.796875 
L 598.910625 582.796875 
" style="fill: none; stroke: #000000; stroke-width: 0.8; stroke-linejoin: miter; stroke-linecap: square"/>
   </g>
   <g id="patch_6">
    <path d="M 63.230625 28.396875 
L 598.910625 28.396875 
" style="fill: none; stroke: #000000; stroke-width: 0.8; stroke-linejoin: miter; stroke-linecap: square"/>
   </g>
   <g id="text_17">
    <!-- Loss Landscape (bkg=0.35, d=0.75, n=50) - Contour -->
    <g transform="translate(65.081563 22.396875) scale(0.2 -0.2)">
     <defs>
      <path id="DejaVuSans-4c" d="M 628 4666 
L 1259 4666 
L 1259 531 
L 3531 531 
L 3531 0 
L 628 0 
L 628 4666 
z
" transform="scale(0.015625)"/>
      <path id="DejaVuSans-73" d="M 2834 3397 
L 2834 2853 
Q 2591 2978 2328 3040 
Q 2066 3103 1784 3103 
Q 1356 3103 1142 2972 
Q 928 2841 928 2578 
Q 928 2378 1081 2264 
Q 1234 2150 1697 2047 
L 1894 2003 
Q 2506 1872 2764 1633 
Q 3022 1394 3022 966 
Q 3022 478 2636 193 
Q 2250 -91 1575 -91 
Q 1294 -91 989 -36 
Q 684 19 347 128 
L 347 722 
Q 666 556 975 473 
Q 1284 391 1588 391 
Q 1994 391 2212 530 
Q 2431 669 2431 922 
Q 2431 1156 2273 1281 
Q 2116 1406 1581 1522 
L 1381 1569 
Q 847 1681 609 1914 
Q 372 2147 372 2553 
Q 372 3047 722 3315 
Q 1072 3584 1716 3584 
Q 2034 3584 2315 3537 
Q 2597 3491 2834 3397 
z
" transform="scale(0.015625)"/>
      <path id="DejaVuSans-61" d="M 2194 1759 
Q 1497 1759 1228 1600 
Q 959 1441 959 1056 
Q 959 750 1161 570 
Q 1363 391 1709 391 
Q 2188 391 2477 730 
Q 2766 1069 2766 1631 
L 2766 1759 
L 2194 1759 
z
M 3341 1997 
L 3341 0 
L 2766 0 
L 2766 531 
Q 2569 213 2275 61 
Q 1981 -91 1556 -91 
Q 1019 -91 701 211 
Q 384 513 384 1019 
Q 384 1609 779 1909 
Q 1175 2209 1959 2209 
L 2766 2209 
L 2766 2266 
Q 2766 2663 2505 2880 
Q 2244 3097 1772 3097 
Q 1472 3097 1187 3025 
Q 903 2953 641 2809 
L 641 3341 
Q 956 3463 1253 3523 
Q 1550 3584 1831 3584 
Q 2591 3584 2966 3190 
Q 3341 2797 3341 1997 
z
" transform="scale(0.015625)"/>
      <path id="DejaVuSans-64" d="M 2906 2969 
L 2906 4863 
L 3481 4863 
L 3481 0 
L 2906 0 
L 2906 525 
Q 2725 213 2448 61 
Q 2172 -91 1784 -91 
Q 1150 -91 751 415 
Q 353 922 353 1747 
Q 353 2572 751 3078 
Q 1150 3584 1784 3584 
Q 2172 3584 2448 3432 
Q 2725 3281 2906 2969 
z
M 947 1747 
Q 947 1113 1208 752 
Q 1469 391 1925 391 
Q 2381 391 2643 752 
Q 2906 1113 2906 1747 
Q 2906 2381 2643 2742 
Q 2381 3103 1925 3103 
Q 1469 3103 1208 2742 
Q 947 2381 947 1747 
z
" transform="scale(0.015625)"/>
      <path id="DejaVuSans-70" d="M 1159 525 
L 1159 -1331 
L 581 -1331 
L 581 3500 
L 1159 3500 
L 1159 2969 
Q 1341 3281 1617 3432 
Q 1894 3584 2278 3584 
Q 2916 3584 3314 3078 
Q 3713 2572 3713 1747 
Q 3713 922 3314 415 
Q 2916 -91 2278 -91 
Q 1894 -91 1617 61 
Q 1341 213 1159 525 
z
M 3116 1747 
Q 3116 2381 2855 2742 
Q 2594 3103 2138 3103 
Q 1681 3103 1420 2742 
Q 1159 2381 1159 1747 
Q 1159 1113 1420 752 
Q 1681 391 2138 391 
Q 2594 391 2855 752 
Q 3116 1113 3116 1747 
z
" transform="scale(0.015625)"/>
      <path id="DejaVuSans-28" d="M 1984 4856 
Q 1566 4138 1362 3434 
Q 1159 2731 1159 2009 
Q 1159 1288 1364 580 
Q 1569 -128 1984 -844 
L 1484 -844 
Q 1016 -109 783 600 
Q 550 1309 550 2009 
Q 550 2706 781 3412 
Q 1013 4119 1484 4856 
L 1984 4856 
z
" transform="scale(0.015625)"/>
      <path id="DejaVuSans-62" d="M 3116 1747 
Q 3116 2381 2855 2742 
Q 2594 3103 2138 3103 
Q 1681 3103 1420 2742 
Q 1159 2381 1159 1747 
Q 1159 1113 1420 752 
Q 1681 391 2138 391 
Q 2594 391 2855 752 
Q 3116 1113 3116 1747 
z
M 1159 2969 
Q 1341 3281 1617 3432 
Q 1894 3584 2278 3584 
Q 2916 3584 3314 3078 
Q 3713 2572 3713 1747 
Q 3713 922 3314 415 
Q 2916 -91 2278 -91 
Q 1894 -91 1617 61 
Q 1341 213 1159 525 
L 1159 0 
L 581 0 
L 581 4863 
L 1159 4863 
L 1159 2969 
z
" transform="scale(0.015625)"/>
      <path id="DejaVuSans-6b" d="M 581 4863 
L 1159 4863 
L 1159 1991 
L 2875 3500 
L 3609 3500 
L 1753 1863 
L 3688 0 
L 2938 0 
L 1159 1709 
L 1159 0 
L 581 0 
L 581 4863 
z
" transform="scale(0.015625)"/>
      <path id="DejaVuSans-67" d="M 2906 1791 
Q 2906 2416 2648 2759 
Q 2391 3103 1925 3103 
Q 1463 3103 1205 2759 
Q 947 2416 947 1791 
Q 947 1169 1205 825 
Q 1463 481 1925 481 
Q 2391 481 2648 825 
Q 2906 1169 2906 1791 
z
M 3481 434 
Q 3481 -459 3084 -895 
Q 2688 -1331 1869 -1331 
Q 1566 -1331 1297 -1286 
Q 1028 -1241 775 -1147 
L 775 -588 
Q 1028 -725 1275 -790 
Q 1522 -856 1778 -856 
Q 2344 -856 2625 -561 
Q 2906 -266 2906 331 
L 2906 616 
Q 2728 306 2450 153 
Q 2172 0 1784 0 
Q 1141 0 747 490 
Q 353 981 353 1791 
Q 353 2603 747 3093 
Q 1141 3584 1784 3584 
Q 2172 3584 2450 3431 
Q 2728 3278 2906 2969 
L 2906 3500 
L 3481 3500 
L 3481 434 
z
" transform="scale(0.015625)"/>
      <path id="DejaVuSans-3d" d="M 678 2906 
L 4684 2906 
L 4684 2381 
L 678 2381 
L 678 2906 
z
M 678 1631 
L 4684 1631 
L 4684 1100 
L 678 1100 
L 678 1631 
z
" transform="scale(0.015625)"/>
      <path id="DejaVuSans-33" d="M 2597 2516 
Q 3050 2419 3304 2112 
Q 3559 1806 3559 1356 
Q 3559 666 3084 287 
Q 2609 -91 1734 -91 
Q 1441 -91 1130 -33 
Q 819 25 488 141 
L 488 750 
Q 750 597 1062 519 
Q 1375 441 1716 441 
Q 2309 441 2620 675 
Q 2931 909 2931 1356 
Q 2931 1769 2642 2001 
Q 2353 2234 1838 2234 
L 1294 2234 
L 1294 2753 
L 1863 2753 
Q 2328 2753 2575 2939 
Q 2822 3125 2822 3475 
Q 2822 3834 2567 4026 
Q 2313 4219 1838 4219 
Q 1578 4219 1281 4162 
Q 984 4106 628 3988 
L 628 4550 
Q 988 4650 1302 4700 
Q 1616 4750 1894 4750 
Q 2613 4750 3031 4423 
Q 3450 4097 3450 3541 
Q 3450 3153 3228 2886 
Q 3006 2619 2597 2516 
z
" transform="scale(0.015625)"/>
      <path id="DejaVuSans-35" d="M 691 4666 
L 3169 4666 
L 3169 4134 
L 1269 4134 
L 1269 2991 
Q 1406 3038 1543 3061 
Q 1681 3084 1819 3084 
Q 2600 3084 3056 2656 
Q 3513 2228 3513 1497 
Q 3513 744 3044 326 
Q 2575 -91 1722 -91 
Q 1428 -91 1123 -41 
Q 819 9 494 109 
L 494 744 
Q 775 591 1075 516 
Q 1375 441 1709 441 
Q 2250 441 2565 725 
Q 2881 1009 2881 1497 
Q 2881 1984 2565 2268 
Q 2250 2553 1709 2553 
Q 1456 2553 1204 2497 
Q 953 2441 691 2322 
L 691 4666 
z
" transform="scale(0.015625)"/>
      <path id="DejaVuSans-2c" d="M 750 794 
L 1409 794 
L 1409 256 
L 897 -744 
L 494 -744 
L 750 256 
L 750 794 
z
" transform="scale(0.015625)"/>
      <path id="DejaVuSans-37" d="M 525 4666 
L 3525 4666 
L 3525 4397 
L 1831 0 
L 1172 0 
L 2766 4134 
L 525 4134 
L 525 4666 
z
" transform="scale(0.015625)"/>
      <path id="DejaVuSans-29" d="M 513 4856 
L 1013 4856 
Q 1481 4119 1714 3412 
Q 1947 2706 1947 2009 
Q 1947 1309 1714 600 
Q 1481 -109 1013 -844 
L 513 -844 
Q 928 -128 1133 580 
Q 1338 1288 1338 2009 
Q 1338 2731 1133 3434 
Q 928 4138 513 4856 
z
" transform="scale(0.015625)"/>
      <path id="DejaVuSans-2d" d="M 313 2009 
L 1997 2009 
L 1997 1497 
L 313 1497 
L 313 2009 
z
" transform="scale(0.015625)"/>
      <path id="DejaVuSans-43" d="M 4122 4306 
L 4122 3641 
Q 3803 3938 3442 4084 
Q 3081 4231 2675 4231 
Q 1875 4231 1450 3742 
Q 1025 3253 1025 2328 
Q 1025 1406 1450 917 
Q 1875 428 2675 428 
Q 3081 428 3442 575 
Q 3803 722 4122 1019 
L 4122 359 
Q 3791 134 3420 21 
Q 3050 -91 2638 -91 
Q 1578 -91 968 557 
Q 359 1206 359 2328 
Q 359 3453 968 4101 
Q 1578 4750 2638 4750 
Q 3056 4750 3426 4639 
Q 3797 4528 4122 4306 
z
" transform="scale(0.015625)"/>
      <path id="DejaVuSans-75" d="M 544 1381 
L 544 3500 
L 1119 3500 
L 1119 1403 
Q 1119 906 1312 657 
Q 1506 409 1894 409 
Q 2359 409 2629 706 
Q 2900 1003 2900 1516 
L 2900 3500 
L 3475 3500 
L 3475 0 
L 2900 0 
L 2900 538 
Q 2691 219 2414 64 
Q 2138 -91 1772 -91 
Q 1169 -91 856 284 
Q 544 659 544 1381 
z
M 1991 3584 
L 1991 3584 
z
" transform="scale(0.015625)"/>
     </defs>
     <use xlink:href="#DejaVuSans-4c"/>
     <use xlink:href="#DejaVuSans-6f" x="53.962891"/>
     <use xlink:href="#DejaVuSans-73" x="115.144531"/>
     <use xlink:href="#DejaVuSans-73" x="167.244141"/>
     <use xlink:href="#DejaVuSans-20" x="219.34375"/>
     <use xlink:href="#DejaVuSans-4c" x="251.130859"/>
     <use xlink:href="#DejaVuSans-61" x="306.84375"/>
     <use xlink:href="#DejaVuSans-6e" x="368.123047"/>
     <use xlink:href="#DejaVuSans-64" x="431.501953"/>
     <use xlink:href="#DejaVuSans-73" x="494.978516"/>
     <use xlink:href="#DejaVuSans-63" x="547.078125"/>
     <use xlink:href="#DejaVuSans-61" x="602.058594"/>
     <use xlink:href="#DejaVuSans-70" x="663.337891"/>
     <use xlink:href="#DejaVuSans-65" x="726.814453"/>
     <use xlink:href="#DejaVuSans-20" x="788.337891"/>
     <use xlink:href="#DejaVuSans-28" x="820.125"/>
     <use xlink:href="#DejaVuSans-62" x="859.138672"/>
     <use xlink:href="#DejaVuSans-6b" x="922.615234"/>
     <use xlink:href="#DejaVuSans-67" x="980.525391"/>
     <use xlink:href="#DejaVuSans-3d" x="1044.001953"/>
     <use xlink:href="#DejaVuSans-30" x="1127.791016"/>
     <use xlink:href="#DejaVuSans-2e" x="1191.414062"/>
     <use xlink:href="#DejaVuSans-33" x="1223.201172"/>
     <use xlink:href="#DejaVuSans-35" x="1286.824219"/>
     <use xlink:href="#DejaVuSans-2c" x="1350.447266"/>
     <use xlink:href="#DejaVuSans-20" x="1382.234375"/>
     <use xlink:href="#DejaVuSans-64" x="1414.021484"/>
     <use xlink:href="#DejaVuSans-3d" x="1477.498047"/>
     <use xlink:href="#DejaVuSans-30" x="1561.287109"/>
     <use xlink:href="#DejaVuSans-2e" x="1624.910156"/>
     <use xlink:href="#DejaVuSans-37" x="1656.697266"/>
     <use xlink:href="#DejaVuSans-35" x="1720.320312"/>
     <use xlink:href="#DejaVuSans-2c" x="1783.943359"/>
     <use xlink:href="#DejaVuSans-20" x="1815.730469"/>
     <use xlink:href="#DejaVuSans-6e" x="1847.517578"/>
     <use xlink:href="#DejaVuSans-3d" x="1910.896484"/>
     <use xlink:href="#DejaVuSans-35" x="1994.685547"/>
     <use xlink:href="#DejaVuSans-30" x="2058.308594"/>
     <use xlink:href="#DejaVuSans-29" x="2121.931641"/>
     <use xlink:href="#DejaVuSans-20" x="2160.945312"/>
     <use xlink:href="#DejaVuSans-2d" x="2192.732422"/>
     <use xlink:href="#DejaVuSans-20" x="2228.816406"/>
     <use xlink:href="#DejaVuSans-43" x="2260.603516"/>
     <use xlink:href="#DejaVuSans-6f" x="2330.427734"/>
     <use xlink:href="#DejaVuSans-6e" x="2391.609375"/>
     <use xlink:href="#DejaVuSans-74" x="2454.988281"/>
     <use xlink:href="#DejaVuSans-6f" x="2494.197266"/>
     <use xlink:href="#DejaVuSans-75" x="2555.378906"/>
     <use xlink:href="#DejaVuSans-72" x="2618.757812"/>
    </g>
   </g>
   <g id="legend_1">
    <g id="patch_7">
     <path d="M 487.777813 51.075 
L 591.910625 51.075 
Q 593.910625 51.075 593.910625 49.075 
L 593.910625 35.396875 
Q 593.910625 33.396875 591.910625 33.396875 
L 487.777813 33.396875 
Q 485.777813 33.396875 485.777813 35.396875 
L 485.777813 49.075 
Q 485.777813 51.075 487.777813 51.075 
z
" style="fill: #ffffff; opacity: 0.8; stroke: #cccccc; stroke-linejoin: miter"/>
    </g>
    <g id="line2d_30">
     <g>
      <use xlink:href="#mf2ca2e1a8e" x="499.777813" y="41.495313" style="fill: #ff0000; stroke: #ff0000"/>
     </g>
    </g>
    <g id="text_18">
     <!-- Model Position -->
     <g transform="translate(517.777813 44.995313) scale(0.1 -0.1)">
      <defs>
       <path id="DejaVuSans-4d" d="M 628 4666 
L 1569 4666 
L 2759 1491 
L 3956 4666 
L 4897 4666 
L 4897 0 
L 4281 0 
L 4281 4097 
L 3078 897 
L 2444 897 
L 1241 4097 
L 1241 0 
L 628 0 
L 628 4666 
z
" transform="scale(0.015625)"/>
       <path id="DejaVuSans-6c" d="M 603 4863 
L 1178 4863 
L 1178 0 
L 603 0 
L 603 4863 
z
" transform="scale(0.015625)"/>
       <path id="DejaVuSans-50" d="M 1259 4147 
L 1259 2394 
L 2053 2394 
Q 2494 2394 2734 2622 
Q 2975 2850 2975 3272 
Q 2975 3691 2734 3919 
Q 2494 4147 2053 4147 
L 1259 4147 
z
M 628 4666 
L 2053 4666 
Q 2838 4666 3239 4311 
Q 3641 3956 3641 3272 
Q 3641 2581 3239 2228 
Q 2838 1875 2053 1875 
L 1259 1875 
L 1259 0 
L 628 0 
L 628 4666 
z
" transform="scale(0.015625)"/>
      </defs>
      <use xlink:href="#DejaVuSans-4d"/>
      <use xlink:href="#DejaVuSans-6f" x="86.279297"/>
      <use xlink:href="#DejaVuSans-64" x="147.460938"/>
      <use xlink:href="#DejaVuSans-65" x="210.9375"/>
      <use xlink:href="#DejaVuSans-6c" x="272.460938"/>
      <use xlink:href="#DejaVuSans-20" x="300.244141"/>
      <use xlink:href="#DejaVuSans-50" x="332.03125"/>
      <use xlink:href="#DejaVuSans-6f" x="388.708984"/>
      <use xlink:href="#DejaVuSans-73" x="449.890625"/>
      <use xlink:href="#DejaVuSans-69" x="501.990234"/>
      <use xlink:href="#DejaVuSans-74" x="529.773438"/>
      <use xlink:href="#DejaVuSans-69" x="568.982422"/>
      <use xlink:href="#DejaVuSans-6f" x="596.765625"/>
      <use xlink:href="#DejaVuSans-6e" x="657.947266"/>
     </g>
    </g>
   </g>
  </g>
  <g id="axes_2">
   <g id="patch_8">
    <path d="M 632.390625 582.796875 
L 660.110625 582.796875 
L 660.110625 28.396875 
L 632.390625 28.396875 
z
" style="fill: #ffffff"/>
   </g>
   <g id="patch_9">
    <path clip-path="url(#pb7cbe36928)" style="fill: #ffffff; stroke: #ffffff; stroke-width: 0.01; stroke-linejoin: miter"/>
   </g>
   <g id="matplotlib.axis_3"/>
   <g id="matplotlib.axis_4">
    <g id="ytick_8">
     <g id="line2d_31">
      <g>
       <use xlink:href="#ma488620187" x="660.110625" y="554.366106" style="stroke: #000000; stroke-width: 0.8"/>
      </g>
     </g>
     <g id="text_19">
      <!-- 0 -->
      <g transform="translate(663.610625 560.444856) scale(0.16 -0.16)">
       <use xlink:href="#DejaVuSans-30"/>
      </g>
     </g>
    </g>
    <g id="ytick_9">
     <g id="line2d_32">
      <g>
       <use xlink:href="#ma488620187" x="660.110625" y="497.504567" style="stroke: #000000; stroke-width: 0.8"/>
      </g>
     </g>
     <g id="text_20">
      <!-- 2 -->
      <g transform="translate(663.610625 503.583317) scale(0.16 -0.16)">
       <use xlink:href="#DejaVuSans-32"/>
      </g>
     </g>
    </g>
    <g id="ytick_10">
     <g id="line2d_33">
      <g>
       <use xlink:href="#ma488620187" x="660.110625" y="440.643029" style="stroke: #000000; stroke-width: 0.8"/>
      </g>
     </g>
     <g id="text_21">
      <!-- 4 -->
      <g transform="translate(663.610625 446.721779) scale(0.16 -0.16)">
       <use xlink:href="#DejaVuSans-34"/>
      </g>
     </g>
    </g>
    <g id="ytick_11">
     <g id="line2d_34">
      <g>
       <use xlink:href="#ma488620187" x="660.110625" y="383.78149" style="stroke: #000000; stroke-width: 0.8"/>
      </g>
     </g>
     <g id="text_22">
      <!-- 6 -->
      <g transform="translate(663.610625 389.86024) scale(0.16 -0.16)">
       <use xlink:href="#DejaVuSans-36"/>
      </g>
     </g>
    </g>
    <g id="ytick_12">
     <g id="line2d_35">
      <g>
       <use xlink:href="#ma488620187" x="660.110625" y="326.919952" style="stroke: #000000; stroke-width: 0.8"/>
      </g>
     </g>
     <g id="text_23">
      <!-- 8 -->
      <g transform="translate(663.610625 332.998702) scale(0.16 -0.16)">
       <defs>
        <path id="DejaVuSans-38" d="M 2034 2216 
Q 1584 2216 1326 1975 
Q 1069 1734 1069 1313 
Q 1069 891 1326 650 
Q 1584 409 2034 409 
Q 2484 409 2743 651 
Q 3003 894 3003 1313 
Q 3003 1734 2745 1975 
Q 2488 2216 2034 2216 
z
M 1403 2484 
Q 997 2584 770 2862 
Q 544 3141 544 3541 
Q 544 4100 942 4425 
Q 1341 4750 2034 4750 
Q 2731 4750 3128 4425 
Q 3525 4100 3525 3541 
Q 3525 3141 3298 2862 
Q 3072 2584 2669 2484 
Q 3125 2378 3379 2068 
Q 3634 1759 3634 1313 
Q 3634 634 3220 271 
Q 2806 -91 2034 -91 
Q 1263 -91 848 271 
Q 434 634 434 1313 
Q 434 1759 690 2068 
Q 947 2378 1403 2484 
z
M 1172 3481 
Q 1172 3119 1398 2916 
Q 1625 2713 2034 2713 
Q 2441 2713 2670 2916 
Q 2900 3119 2900 3481 
Q 2900 3844 2670 4047 
Q 2441 4250 2034 4250 
Q 1625 4250 1398 4047 
Q 1172 3844 1172 3481 
z
" transform="scale(0.015625)"/>
       </defs>
       <use xlink:href="#DejaVuSans-38"/>
      </g>
     </g>
    </g>
    <g id="ytick_13">
     <g id="line2d_36">
      <g>
       <use xlink:href="#ma488620187" x="660.110625" y="270.058413" style="stroke: #000000; stroke-width: 0.8"/>
      </g>
     </g>
     <g id="text_24">
      <!-- 10 -->
      <g transform="translate(663.610625 276.137163) scale(0.16 -0.16)">
       <use xlink:href="#DejaVuSans-31"/>
       <use xlink:href="#DejaVuSans-30" x="63.623047"/>
      </g>
     </g>
    </g>
    <g id="ytick_14">
     <g id="line2d_37">
      <g>
       <use xlink:href="#ma488620187" x="660.110625" y="213.196875" style="stroke: #000000; stroke-width: 0.8"/>
      </g>
     </g>
     <g id="text_25">
      <!-- 12 -->
      <g transform="translate(663.610625 219.275625) scale(0.16 -0.16)">
       <use xlink:href="#DejaVuSans-31"/>
       <use xlink:href="#DejaVuSans-32" x="63.623047"/>
      </g>
     </g>
    </g>
    <g id="ytick_15">
     <g id="line2d_38">
      <g>
       <use xlink:href="#ma488620187" x="660.110625" y="156.335337" style="stroke: #000000; stroke-width: 0.8"/>
      </g>
     </g>
     <g id="text_26">
      <!-- 14 -->
      <g transform="translate(663.610625 162.414087) scale(0.16 -0.16)">
       <use xlink:href="#DejaVuSans-31"/>
       <use xlink:href="#DejaVuSans-34" x="63.623047"/>
      </g>
     </g>
    </g>
    <g id="ytick_16">
     <g id="line2d_39">
      <g>
       <use xlink:href="#ma488620187" x="660.110625" y="99.473798" style="stroke: #000000; stroke-width: 0.8"/>
      </g>
     </g>
     <g id="text_27">
      <!-- 16 -->
      <g transform="translate(663.610625 105.552548) scale(0.16 -0.16)">
       <use xlink:href="#DejaVuSans-31"/>
       <use xlink:href="#DejaVuSans-36" x="63.623047"/>
      </g>
     </g>
    </g>
    <g id="ytick_17">
     <g id="line2d_40">
      <g>
       <use xlink:href="#ma488620187" x="660.110625" y="42.61226" style="stroke: #000000; stroke-width: 0.8"/>
      </g>
     </g>
     <g id="text_28">
      <!-- 18 -->
      <g transform="translate(663.610625 48.69101) scale(0.16 -0.16)">
       <use xlink:href="#DejaVuSans-31"/>
       <use xlink:href="#DejaVuSans-38" x="63.623047"/>
      </g>
     </g>
    </g>
    <g id="text_29">
     <!-- Loss -->
     <g transform="translate(695.569063 316.564063) rotate(-90) scale(0.1 -0.1)">
      <use xlink:href="#DejaVuSans-4c"/>
      <use xlink:href="#DejaVuSans-6f" x="53.962891"/>
      <use xlink:href="#DejaVuSans-73" x="115.144531"/>
      <use xlink:href="#DejaVuSans-73" x="167.244141"/>
     </g>
    </g>
   </g>
   <g id="LineCollection_1"/>
   <g id="LineCollection_2">
    <path d="M 632.390625 582.796875 
L 660.110625 582.796875 
" clip-path="url(#p9c6e1a8d61)" style="fill: none; stroke: #440154; stroke-width: 1.5"/>
    <path d="M 632.390625 568.58149 
L 660.110625 568.58149 
" clip-path="url(#p9c6e1a8d61)" style="fill: none; stroke: #460a5d; stroke-width: 1.5"/>
    <path d="M 632.390625 554.366106 
L 660.110625 554.366106 
" clip-path="url(#p9c6e1a8d61)" style="fill: none; stroke: #481467; stroke-width: 1.5"/>
    <path d="M 632.390625 540.150721 
L 660.110625 540.150721 
" clip-path="url(#p9c6e1a8d61)" style="fill: none; stroke: #481c6e; stroke-width: 1.5"/>
    <path d="M 632.390625 525.935337 
L 660.110625 525.935337 
" clip-path="url(#p9c6e1a8d61)" style="fill: none; stroke: #482576; stroke-width: 1.5"/>
    <path d="M 632.390625 511.719952 
L 660.110625 511.719952 
" clip-path="url(#p9c6e1a8d61)" style="fill: none; stroke: #472d7b; stroke-width: 1.5"/>
    <path d="M 632.390625 497.504567 
L 660.110625 497.504567 
" clip-path="url(#p9c6e1a8d61)" style="fill: none; stroke: #453581; stroke-width: 1.5"/>
    <path d="M 632.390625 483.289183 
L 660.110625 483.289183 
" clip-path="url(#p9c6e1a8d61)" style="fill: none; stroke: #433d84; stroke-width: 1.5"/>
    <path d="M 632.390625 469.073798 
L 660.110625 469.073798 
" clip-path="url(#p9c6e1a8d61)" style="fill: none; stroke: #404588; stroke-width: 1.5"/>
    <path d="M 632.390625 454.858413 
L 660.110625 454.858413 
" clip-path="url(#p9c6e1a8d61)" style="fill: none; stroke: #3d4d8a; stroke-width: 1.5"/>
    <path d="M 632.390625 440.643029 
L 660.110625 440.643029 
" clip-path="url(#p9c6e1a8d61)" style="fill: none; stroke: #3a538b; stroke-width: 1.5"/>
    <path d="M 632.390625 426.427644 
L 660.110625 426.427644 
" clip-path="url(#p9c6e1a8d61)" style="fill: none; stroke: #375b8d; stroke-width: 1.5"/>
    <path d="M 632.390625 412.21226 
L 660.110625 412.21226 
" clip-path="url(#p9c6e1a8d61)" style="fill: none; stroke: #34618d; stroke-width: 1.5"/>
    <path d="M 632.390625 397.996875 
L 660.110625 397.996875 
" clip-path="url(#p9c6e1a8d61)" style="fill: none; stroke: #31688e; stroke-width: 1.5"/>
    <path d="M 632.390625 383.78149 
L 660.110625 383.78149 
" clip-path="url(#p9c6e1a8d61)" style="fill: none; stroke: #2e6e8e; stroke-width: 1.5"/>
    <path d="M 632.390625 369.566106 
L 660.110625 369.566106 
" clip-path="url(#p9c6e1a8d61)" style="fill: none; stroke: #2b748e; stroke-width: 1.5"/>
    <path d="M 632.390625 355.350721 
L 660.110625 355.350721 
" clip-path="url(#p9c6e1a8d61)" style="fill: none; stroke: #297b8e; stroke-width: 1.5"/>
    <path d="M 632.390625 341.135337 
L 660.110625 341.135337 
" clip-path="url(#p9c6e1a8d61)" style="fill: none; stroke: #26818e; stroke-width: 1.5"/>
    <path d="M 632.390625 326.919952 
L 660.110625 326.919952 
" clip-path="url(#p9c6e1a8d61)" style="fill: none; stroke: #24878e; stroke-width: 1.5"/>
    <path d="M 632.390625 312.704567 
L 660.110625 312.704567 
" clip-path="url(#p9c6e1a8d61)" style="fill: none; stroke: #228d8d; stroke-width: 1.5"/>
    <path d="M 632.390625 298.489183 
L 660.110625 298.489183 
" clip-path="url(#p9c6e1a8d61)" style="fill: none; stroke: #20938c; stroke-width: 1.5"/>
    <path d="M 632.390625 284.273798 
L 660.110625 284.273798 
" clip-path="url(#p9c6e1a8d61)" style="fill: none; stroke: #1f998a; stroke-width: 1.5"/>
    <path d="M 632.390625 270.058413 
L 660.110625 270.058413 
" clip-path="url(#p9c6e1a8d61)" style="fill: none; stroke: #1fa088; stroke-width: 1.5"/>
    <path d="M 632.390625 255.843029 
L 660.110625 255.843029 
" clip-path="url(#p9c6e1a8d61)" style="fill: none; stroke: #21a585; stroke-width: 1.5"/>
    <path d="M 632.390625 241.627644 
L 660.110625 241.627644 
" clip-path="url(#p9c6e1a8d61)" style="fill: none; stroke: #25ac82; stroke-width: 1.5"/>
    <path d="M 632.390625 227.41226 
L 660.110625 227.41226 
" clip-path="url(#p9c6e1a8d61)" style="fill: none; stroke: #2db27d; stroke-width: 1.5"/>
    <path d="M 632.390625 213.196875 
L 660.110625 213.196875 
" clip-path="url(#p9c6e1a8d61)" style="fill: none; stroke: #35b779; stroke-width: 1.5"/>
    <path d="M 632.390625 198.98149 
L 660.110625 198.98149 
" clip-path="url(#p9c6e1a8d61)" style="fill: none; stroke: #40bd72; stroke-width: 1.5"/>
    <path d="M 632.390625 184.766106 
L 660.110625 184.766106 
" clip-path="url(#p9c6e1a8d61)" style="fill: none; stroke: #4cc26c; stroke-width: 1.5"/>
    <path d="M 632.390625 170.550721 
L 660.110625 170.550721 
" clip-path="url(#p9c6e1a8d61)" style="fill: none; stroke: #5ac864; stroke-width: 1.5"/>
    <path d="M 632.390625 156.335337 
L 660.110625 156.335337 
" clip-path="url(#p9c6e1a8d61)" style="fill: none; stroke: #67cc5c; stroke-width: 1.5"/>
    <path d="M 632.390625 142.119952 
L 660.110625 142.119952 
" clip-path="url(#p9c6e1a8d61)" style="fill: none; stroke: #77d153; stroke-width: 1.5"/>
    <path d="M 632.390625 127.904567 
L 660.110625 127.904567 
" clip-path="url(#p9c6e1a8d61)" style="fill: none; stroke: #89d548; stroke-width: 1.5"/>
    <path d="M 632.390625 113.689183 
L 660.110625 113.689183 
" clip-path="url(#p9c6e1a8d61)" style="fill: none; stroke: #98d83e; stroke-width: 1.5"/>
    <path d="M 632.390625 99.473798 
L 660.110625 99.473798 
" clip-path="url(#p9c6e1a8d61)" style="fill: none; stroke: #aadc32; stroke-width: 1.5"/>
    <path d="M 632.390625 85.258413 
L 660.110625 85.258413 
" clip-path="url(#p9c6e1a8d61)" style="fill: none; stroke: #bade28; stroke-width: 1.5"/>
    <path d="M 632.390625 71.043029 
L 660.110625 71.043029 
" clip-path="url(#p9c6e1a8d61)" style="fill: none; stroke: #cde11d; stroke-width: 1.5"/>
    <path d="M 632.390625 56.827644 
L 660.110625 56.827644 
" clip-path="url(#p9c6e1a8d61)" style="fill: none; stroke: #dde318; stroke-width: 1.5"/>
    <path d="M 632.390625 42.61226 
L 660.110625 42.61226 
" clip-path="url(#p9c6e1a8d61)" style="fill: none; stroke: #efe51c; stroke-width: 1.5"/>
    <path d="M 632.390625 28.396875 
L 660.110625 28.396875 
" clip-path="url(#p9c6e1a8d61)" style="fill: none; stroke: #fde725; stroke-width: 1.5"/>
   </g>
   <g id="patch_10">
    <path d="M 632.390625 582.796875 
L 646.250625 582.796875 
L 660.110625 582.796875 
L 660.110625 28.396875 
L 646.250625 28.396875 
L 632.390625 28.396875 
L 632.390625 582.796875 
z
" style="fill: none; stroke: #000000; stroke-width: 0.8; stroke-linejoin: miter; stroke-linecap: square"/>
   </g>
  </g>
 </g>
 <defs>
  <clipPath id="p65df75d130">
   <rect x="63.230625" y="28.396875" width="535.68" height="554.4"/>
  </clipPath>
  <clipPath id="pb7cbe36928">
   <rect x="632.390625" y="28.396875" width="27.72" height="554.4"/>
  </clipPath>
  <clipPath id="p9c6e1a8d61">
   <path d="M 632.390625 584.296875 
L 660.110625 584.296875 
L 660.110625 26.896875 
L 632.390625 26.896875 
z
"/>
  </clipPath>
 </defs>
</svg>
