<?xml version="1.0" encoding="utf-8" standalone="no"?>
<!DOCTYPE svg PUBLIC "-//W3C//DTD SVG 1.1//EN"
  "http://www.w3.org/Graphics/SVG/1.1/DTD/svg11.dtd">
<svg xmlns:xlink="http://www.w3.org/1999/xlink" width="704.84875pt" height="622.66pt" viewBox="0 0 704.84875 622.66" xmlns="http://www.w3.org/2000/svg" version="1.1">
 <metadata>
  <rdf:RDF xmlns:dc="http://purl.org/dc/elements/1.1/" xmlns:cc="http://creativecommons.org/ns#" xmlns:rdf="http://www.w3.org/1999/02/22-rdf-syntax-ns#">
   <cc:Work>
    <dc:type rdf:resource="http://purl.org/dc/dcmitype/StillImage"/>
    <dc:date>2025-02-12T03:24:10.089021</dc:date>
    <dc:format>image/svg+xml</dc:format>
    <dc:creator>
     <cc:Agent>
      <dc:title>Matplotlib v3.6.2, https://matplotlib.org/</dc:title>
     </cc:Agent>
    </dc:creator>
   </cc:Work>
  </rdf:RDF>
 </metadata>
 <defs>
  <style type="text/css">*{stroke-linejoin: round; stroke-linecap: butt}</style>
 </defs>
 <g id="figure_1">
  <g id="patch_1">
   <path d="M 0 622.66 
L 704.84875 622.66 
L 704.84875 0 
L 0 0 
z
" style="fill: #ffffff"/>
  </g>
  <g id="axes_1">
   <g id="patch_2">
    <path d="M 63.230625 582.796875 
L 598.910625 582.796875 
L 598.910625 28.396875 
L 63.230625 28.396875 
z
" style="fill: #ffffff"/>
   </g>
   <g id="matplotlib.axis_1">
    <g id="xtick_1">
     <g id="line2d_1">
      <defs>
       <path id="md90f48c1d9" d="M 0 0 
L 0 -3.5 
" style="stroke: #000000; stroke-width: 0.8"/>
      </defs>
      <g>
       <use xlink:href="#md90f48c1d9" x="63.230625" y="582.796875" style="stroke: #000000; stroke-width: 0.8"/>
      </g>
     </g>
     <g id="line2d_2">
      <defs>
       <path id="m29df75db54" d="M 0 0 
L 0 3.5 
" style="stroke: #000000; stroke-width: 0.8"/>
      </defs>
      <g>
       <use xlink:href="#m29df75db54" x="63.230625" y="28.396875" style="stroke: #000000; stroke-width: 0.8"/>
      </g>
     </g>
     <g id="text_1">
      <!-- −1.5 -->
      <g transform="translate(43.804375 598.454375) scale(0.16 -0.16)">
       <defs>
        <path id="DejaVuSans-2212" d="M 678 2272 
L 4684 2272 
L 4684 1741 
L 678 1741 
L 678 2272 
z
" transform="scale(0.015625)"/>
        <path id="DejaVuSans-31" d="M 794 531 
L 1825 531 
L 1825 4091 
L 703 3866 
L 703 4441 
L 1819 4666 
L 2450 4666 
L 2450 531 
L 3481 531 
L 3481 0 
L 794 0 
L 794 531 
z
" transform="scale(0.015625)"/>
        <path id="DejaVuSans-2e" d="M 684 794 
L 1344 794 
L 1344 0 
L 684 0 
L 684 794 
z
" transform="scale(0.015625)"/>
        <path id="DejaVuSans-35" d="M 691 4666 
L 3169 4666 
L 3169 4134 
L 1269 4134 
L 1269 2991 
Q 1406 3038 1543 3061 
Q 1681 3084 1819 3084 
Q 2600 3084 3056 2656 
Q 3513 2228 3513 1497 
Q 3513 744 3044 326 
Q 2575 -91 1722 -91 
Q 1428 -91 1123 -41 
Q 819 9 494 109 
L 494 744 
Q 775 591 1075 516 
Q 1375 441 1709 441 
Q 2250 441 2565 725 
Q 2881 1009 2881 1497 
Q 2881 1984 2565 2268 
Q 2250 2553 1709 2553 
Q 1456 2553 1204 2497 
Q 953 2441 691 2322 
L 691 4666 
z
" transform="scale(0.015625)"/>
       </defs>
       <use xlink:href="#DejaVuSans-2212"/>
       <use xlink:href="#DejaVuSans-31" x="83.789062"/>
       <use xlink:href="#DejaVuSans-2e" x="147.412109"/>
       <use xlink:href="#DejaVuSans-35" x="179.199219"/>
      </g>
     </g>
    </g>
    <g id="xtick_2">
     <g id="line2d_3">
      <g>
       <use xlink:href="#md90f48c1d9" x="152.510625" y="582.796875" style="stroke: #000000; stroke-width: 0.8"/>
      </g>
     </g>
     <g id="line2d_4">
      <g>
       <use xlink:href="#m29df75db54" x="152.510625" y="28.396875" style="stroke: #000000; stroke-width: 0.8"/>
      </g>
     </g>
     <g id="text_2">
      <!-- −1.0 -->
      <g transform="translate(133.084375 598.454375) scale(0.16 -0.16)">
       <defs>
        <path id="DejaVuSans-30" d="M 2034 4250 
Q 1547 4250 1301 3770 
Q 1056 3291 1056 2328 
Q 1056 1369 1301 889 
Q 1547 409 2034 409 
Q 2525 409 2770 889 
Q 3016 1369 3016 2328 
Q 3016 3291 2770 3770 
Q 2525 4250 2034 4250 
z
M 2034 4750 
Q 2819 4750 3233 4129 
Q 3647 3509 3647 2328 
Q 3647 1150 3233 529 
Q 2819 -91 2034 -91 
Q 1250 -91 836 529 
Q 422 1150 422 2328 
Q 422 3509 836 4129 
Q 1250 4750 2034 4750 
z
" transform="scale(0.015625)"/>
       </defs>
       <use xlink:href="#DejaVuSans-2212"/>
       <use xlink:href="#DejaVuSans-31" x="83.789062"/>
       <use xlink:href="#DejaVuSans-2e" x="147.412109"/>
       <use xlink:href="#DejaVuSans-30" x="179.199219"/>
      </g>
     </g>
    </g>
    <g id="xtick_3">
     <g id="line2d_5">
      <g>
       <use xlink:href="#md90f48c1d9" x="241.790625" y="582.796875" style="stroke: #000000; stroke-width: 0.8"/>
      </g>
     </g>
     <g id="line2d_6">
      <g>
       <use xlink:href="#m29df75db54" x="241.790625" y="28.396875" style="stroke: #000000; stroke-width: 0.8"/>
      </g>
     </g>
     <g id="text_3">
      <!-- −0.5 -->
      <g transform="translate(222.364375 598.454375) scale(0.16 -0.16)">
       <use xlink:href="#DejaVuSans-2212"/>
       <use xlink:href="#DejaVuSans-30" x="83.789062"/>
       <use xlink:href="#DejaVuSans-2e" x="147.412109"/>
       <use xlink:href="#DejaVuSans-35" x="179.199219"/>
      </g>
     </g>
    </g>
    <g id="xtick_4">
     <g id="line2d_7">
      <g>
       <use xlink:href="#md90f48c1d9" x="331.070625" y="582.796875" style="stroke: #000000; stroke-width: 0.8"/>
      </g>
     </g>
     <g id="line2d_8">
      <g>
       <use xlink:href="#m29df75db54" x="331.070625" y="28.396875" style="stroke: #000000; stroke-width: 0.8"/>
      </g>
     </g>
     <g id="text_4">
      <!-- 0.0 -->
      <g transform="translate(318.348125 598.454375) scale(0.16 -0.16)">
       <use xlink:href="#DejaVuSans-30"/>
       <use xlink:href="#DejaVuSans-2e" x="63.623047"/>
       <use xlink:href="#DejaVuSans-30" x="95.410156"/>
      </g>
     </g>
    </g>
    <g id="xtick_5">
     <g id="line2d_9">
      <g>
       <use xlink:href="#md90f48c1d9" x="420.350625" y="582.796875" style="stroke: #000000; stroke-width: 0.8"/>
      </g>
     </g>
     <g id="line2d_10">
      <g>
       <use xlink:href="#m29df75db54" x="420.350625" y="28.396875" style="stroke: #000000; stroke-width: 0.8"/>
      </g>
     </g>
     <g id="text_5">
      <!-- 0.5 -->
      <g transform="translate(407.628125 598.454375) scale(0.16 -0.16)">
       <use xlink:href="#DejaVuSans-30"/>
       <use xlink:href="#DejaVuSans-2e" x="63.623047"/>
       <use xlink:href="#DejaVuSans-35" x="95.410156"/>
      </g>
     </g>
    </g>
    <g id="xtick_6">
     <g id="line2d_11">
      <g>
       <use xlink:href="#md90f48c1d9" x="509.630625" y="582.796875" style="stroke: #000000; stroke-width: 0.8"/>
      </g>
     </g>
     <g id="line2d_12">
      <g>
       <use xlink:href="#m29df75db54" x="509.630625" y="28.396875" style="stroke: #000000; stroke-width: 0.8"/>
      </g>
     </g>
     <g id="text_6">
      <!-- 1.0 -->
      <g transform="translate(496.908125 598.454375) scale(0.16 -0.16)">
       <use xlink:href="#DejaVuSans-31"/>
       <use xlink:href="#DejaVuSans-2e" x="63.623047"/>
       <use xlink:href="#DejaVuSans-30" x="95.410156"/>
      </g>
     </g>
    </g>
    <g id="xtick_7">
     <g id="line2d_13">
      <g>
       <use xlink:href="#md90f48c1d9" x="598.910625" y="582.796875" style="stroke: #000000; stroke-width: 0.8"/>
      </g>
     </g>
     <g id="line2d_14">
      <g>
       <use xlink:href="#m29df75db54" x="598.910625" y="28.396875" style="stroke: #000000; stroke-width: 0.8"/>
      </g>
     </g>
     <g id="text_7">
      <!-- 1.5 -->
      <g transform="translate(586.188125 598.454375) scale(0.16 -0.16)">
       <use xlink:href="#DejaVuSans-31"/>
       <use xlink:href="#DejaVuSans-2e" x="63.623047"/>
       <use xlink:href="#DejaVuSans-35" x="95.410156"/>
      </g>
     </g>
    </g>
    <g id="text_8">
     <!-- Direction 1 -->
     <g transform="translate(303.715156 613.380313) scale(0.1 -0.1)">
      <defs>
       <path id="DejaVuSans-44" d="M 1259 4147 
L 1259 519 
L 2022 519 
Q 2988 519 3436 956 
Q 3884 1394 3884 2338 
Q 3884 3275 3436 3711 
Q 2988 4147 2022 4147 
L 1259 4147 
z
M 628 4666 
L 1925 4666 
Q 3281 4666 3915 4102 
Q 4550 3538 4550 2338 
Q 4550 1131 3912 565 
Q 3275 0 1925 0 
L 628 0 
L 628 4666 
z
" transform="scale(0.015625)"/>
       <path id="DejaVuSans-69" d="M 603 3500 
L 1178 3500 
L 1178 0 
L 603 0 
L 603 3500 
z
M 603 4863 
L 1178 4863 
L 1178 4134 
L 603 4134 
L 603 4863 
z
" transform="scale(0.015625)"/>
       <path id="DejaVuSans-72" d="M 2631 2963 
Q 2534 3019 2420 3045 
Q 2306 3072 2169 3072 
Q 1681 3072 1420 2755 
Q 1159 2438 1159 1844 
L 1159 0 
L 581 0 
L 581 3500 
L 1159 3500 
L 1159 2956 
Q 1341 3275 1631 3429 
Q 1922 3584 2338 3584 
Q 2397 3584 2469 3576 
Q 2541 3569 2628 3553 
L 2631 2963 
z
" transform="scale(0.015625)"/>
       <path id="DejaVuSans-65" d="M 3597 1894 
L 3597 1613 
L 953 1613 
Q 991 1019 1311 708 
Q 1631 397 2203 397 
Q 2534 397 2845 478 
Q 3156 559 3463 722 
L 3463 178 
Q 3153 47 2828 -22 
Q 2503 -91 2169 -91 
Q 1331 -91 842 396 
Q 353 884 353 1716 
Q 353 2575 817 3079 
Q 1281 3584 2069 3584 
Q 2775 3584 3186 3129 
Q 3597 2675 3597 1894 
z
M 3022 2063 
Q 3016 2534 2758 2815 
Q 2500 3097 2075 3097 
Q 1594 3097 1305 2825 
Q 1016 2553 972 2059 
L 3022 2063 
z
" transform="scale(0.015625)"/>
       <path id="DejaVuSans-63" d="M 3122 3366 
L 3122 2828 
Q 2878 2963 2633 3030 
Q 2388 3097 2138 3097 
Q 1578 3097 1268 2742 
Q 959 2388 959 1747 
Q 959 1106 1268 751 
Q 1578 397 2138 397 
Q 2388 397 2633 464 
Q 2878 531 3122 666 
L 3122 134 
Q 2881 22 2623 -34 
Q 2366 -91 2075 -91 
Q 1284 -91 818 406 
Q 353 903 353 1747 
Q 353 2603 823 3093 
Q 1294 3584 2113 3584 
Q 2378 3584 2631 3529 
Q 2884 3475 3122 3366 
z
" transform="scale(0.015625)"/>
       <path id="DejaVuSans-74" d="M 1172 4494 
L 1172 3500 
L 2356 3500 
L 2356 3053 
L 1172 3053 
L 1172 1153 
Q 1172 725 1289 603 
Q 1406 481 1766 481 
L 2356 481 
L 2356 0 
L 1766 0 
Q 1100 0 847 248 
Q 594 497 594 1153 
L 594 3053 
L 172 3053 
L 172 3500 
L 594 3500 
L 594 4494 
L 1172 4494 
z
" transform="scale(0.015625)"/>
       <path id="DejaVuSans-6f" d="M 1959 3097 
Q 1497 3097 1228 2736 
Q 959 2375 959 1747 
Q 959 1119 1226 758 
Q 1494 397 1959 397 
Q 2419 397 2687 759 
Q 2956 1122 2956 1747 
Q 2956 2369 2687 2733 
Q 2419 3097 1959 3097 
z
M 1959 3584 
Q 2709 3584 3137 3096 
Q 3566 2609 3566 1747 
Q 3566 888 3137 398 
Q 2709 -91 1959 -91 
Q 1206 -91 779 398 
Q 353 888 353 1747 
Q 353 2609 779 3096 
Q 1206 3584 1959 3584 
z
" transform="scale(0.015625)"/>
       <path id="DejaVuSans-6e" d="M 3513 2113 
L 3513 0 
L 2938 0 
L 2938 2094 
Q 2938 2591 2744 2837 
Q 2550 3084 2163 3084 
Q 1697 3084 1428 2787 
Q 1159 2491 1159 1978 
L 1159 0 
L 581 0 
L 581 3500 
L 1159 3500 
L 1159 2956 
Q 1366 3272 1645 3428 
Q 1925 3584 2291 3584 
Q 2894 3584 3203 3211 
Q 3513 2838 3513 2113 
z
" transform="scale(0.015625)"/>
       <path id="DejaVuSans-20" transform="scale(0.015625)"/>
      </defs>
      <use xlink:href="#DejaVuSans-44"/>
      <use xlink:href="#DejaVuSans-69" x="77.001953"/>
      <use xlink:href="#DejaVuSans-72" x="104.785156"/>
      <use xlink:href="#DejaVuSans-65" x="143.648438"/>
      <use xlink:href="#DejaVuSans-63" x="205.171875"/>
      <use xlink:href="#DejaVuSans-74" x="260.152344"/>
      <use xlink:href="#DejaVuSans-69" x="299.361328"/>
      <use xlink:href="#DejaVuSans-6f" x="327.144531"/>
      <use xlink:href="#DejaVuSans-6e" x="388.326172"/>
      <use xlink:href="#DejaVuSans-20" x="451.705078"/>
      <use xlink:href="#DejaVuSans-31" x="483.492188"/>
     </g>
    </g>
   </g>
   <g id="matplotlib.axis_2">
    <g id="ytick_1">
     <g id="line2d_15">
      <defs>
       <path id="md53e9c6440" d="M 0 0 
L 3.5 0 
" style="stroke: #000000; stroke-width: 0.8"/>
      </defs>
      <g>
       <use xlink:href="#md53e9c6440" x="63.230625" y="582.796875" style="stroke: #000000; stroke-width: 0.8"/>
      </g>
     </g>
     <g id="line2d_16">
      <defs>
       <path id="me845fe3ca3" d="M 0 0 
L -3.5 0 
" style="stroke: #000000; stroke-width: 0.8"/>
      </defs>
      <g>
       <use xlink:href="#me845fe3ca3" x="598.910625" y="582.796875" style="stroke: #000000; stroke-width: 0.8"/>
      </g>
     </g>
     <g id="text_9">
      <!-- −1.5 -->
      <g transform="translate(20.878125 588.875625) scale(0.16 -0.16)">
       <use xlink:href="#DejaVuSans-2212"/>
       <use xlink:href="#DejaVuSans-31" x="83.789062"/>
       <use xlink:href="#DejaVuSans-2e" x="147.412109"/>
       <use xlink:href="#DejaVuSans-35" x="179.199219"/>
      </g>
     </g>
    </g>
    <g id="ytick_2">
     <g id="line2d_17">
      <g>
       <use xlink:href="#md53e9c6440" x="63.230625" y="490.396875" style="stroke: #000000; stroke-width: 0.8"/>
      </g>
     </g>
     <g id="line2d_18">
      <g>
       <use xlink:href="#me845fe3ca3" x="598.910625" y="490.396875" style="stroke: #000000; stroke-width: 0.8"/>
      </g>
     </g>
     <g id="text_10">
      <!-- −1.0 -->
      <g transform="translate(20.878125 496.475625) scale(0.16 -0.16)">
       <use xlink:href="#DejaVuSans-2212"/>
       <use xlink:href="#DejaVuSans-31" x="83.789062"/>
       <use xlink:href="#DejaVuSans-2e" x="147.412109"/>
       <use xlink:href="#DejaVuSans-30" x="179.199219"/>
      </g>
     </g>
    </g>
    <g id="ytick_3">
     <g id="line2d_19">
      <g>
       <use xlink:href="#md53e9c6440" x="63.230625" y="397.996875" style="stroke: #000000; stroke-width: 0.8"/>
      </g>
     </g>
     <g id="line2d_20">
      <g>
       <use xlink:href="#me845fe3ca3" x="598.910625" y="397.996875" style="stroke: #000000; stroke-width: 0.8"/>
      </g>
     </g>
     <g id="text_11">
      <!-- −0.5 -->
      <g transform="translate(20.878125 404.075625) scale(0.16 -0.16)">
       <use xlink:href="#DejaVuSans-2212"/>
       <use xlink:href="#DejaVuSans-30" x="83.789062"/>
       <use xlink:href="#DejaVuSans-2e" x="147.412109"/>
       <use xlink:href="#DejaVuSans-35" x="179.199219"/>
      </g>
     </g>
    </g>
    <g id="ytick_4">
     <g id="line2d_21">
      <g>
       <use xlink:href="#md53e9c6440" x="63.230625" y="305.596875" style="stroke: #000000; stroke-width: 0.8"/>
      </g>
     </g>
     <g id="line2d_22">
      <g>
       <use xlink:href="#me845fe3ca3" x="598.910625" y="305.596875" style="stroke: #000000; stroke-width: 0.8"/>
      </g>
     </g>
     <g id="text_12">
      <!-- 0.0 -->
      <g transform="translate(34.285625 311.675625) scale(0.16 -0.16)">
       <use xlink:href="#DejaVuSans-30"/>
       <use xlink:href="#DejaVuSans-2e" x="63.623047"/>
       <use xlink:href="#DejaVuSans-30" x="95.410156"/>
      </g>
     </g>
    </g>
    <g id="ytick_5">
     <g id="line2d_23">
      <g>
       <use xlink:href="#md53e9c6440" x="63.230625" y="213.196875" style="stroke: #000000; stroke-width: 0.8"/>
      </g>
     </g>
     <g id="line2d_24">
      <g>
       <use xlink:href="#me845fe3ca3" x="598.910625" y="213.196875" style="stroke: #000000; stroke-width: 0.8"/>
      </g>
     </g>
     <g id="text_13">
      <!-- 0.5 -->
      <g transform="translate(34.285625 219.275625) scale(0.16 -0.16)">
       <use xlink:href="#DejaVuSans-30"/>
       <use xlink:href="#DejaVuSans-2e" x="63.623047"/>
       <use xlink:href="#DejaVuSans-35" x="95.410156"/>
      </g>
     </g>
    </g>
    <g id="ytick_6">
     <g id="line2d_25">
      <g>
       <use xlink:href="#md53e9c6440" x="63.230625" y="120.796875" style="stroke: #000000; stroke-width: 0.8"/>
      </g>
     </g>
     <g id="line2d_26">
      <g>
       <use xlink:href="#me845fe3ca3" x="598.910625" y="120.796875" style="stroke: #000000; stroke-width: 0.8"/>
      </g>
     </g>
     <g id="text_14">
      <!-- 1.0 -->
      <g transform="translate(34.285625 126.875625) scale(0.16 -0.16)">
       <use xlink:href="#DejaVuSans-31"/>
       <use xlink:href="#DejaVuSans-2e" x="63.623047"/>
       <use xlink:href="#DejaVuSans-30" x="95.410156"/>
      </g>
     </g>
    </g>
    <g id="ytick_7">
     <g id="line2d_27">
      <g>
       <use xlink:href="#md53e9c6440" x="63.230625" y="28.396875" style="stroke: #000000; stroke-width: 0.8"/>
      </g>
     </g>
     <g id="line2d_28">
      <g>
       <use xlink:href="#me845fe3ca3" x="598.910625" y="28.396875" style="stroke: #000000; stroke-width: 0.8"/>
      </g>
     </g>
     <g id="text_15">
      <!-- 1.5 -->
      <g transform="translate(34.285625 34.475625) scale(0.16 -0.16)">
       <use xlink:href="#DejaVuSans-31"/>
       <use xlink:href="#DejaVuSans-2e" x="63.623047"/>
       <use xlink:href="#DejaVuSans-35" x="95.410156"/>
      </g>
     </g>
    </g>
    <g id="text_16">
     <!-- Direction 2 -->
     <g transform="translate(14.798437 332.952344) rotate(-90) scale(0.1 -0.1)">
      <defs>
       <path id="DejaVuSans-32" d="M 1228 531 
L 3431 531 
L 3431 0 
L 469 0 
L 469 531 
Q 828 903 1448 1529 
Q 2069 2156 2228 2338 
Q 2531 2678 2651 2914 
Q 2772 3150 2772 3378 
Q 2772 3750 2511 3984 
Q 2250 4219 1831 4219 
Q 1534 4219 1204 4116 
Q 875 4013 500 3803 
L 500 4441 
Q 881 4594 1212 4672 
Q 1544 4750 1819 4750 
Q 2544 4750 2975 4387 
Q 3406 4025 3406 3419 
Q 3406 3131 3298 2873 
Q 3191 2616 2906 2266 
Q 2828 2175 2409 1742 
Q 1991 1309 1228 531 
z
" transform="scale(0.015625)"/>
      </defs>
      <use xlink:href="#DejaVuSans-44"/>
      <use xlink:href="#DejaVuSans-69" x="77.001953"/>
      <use xlink:href="#DejaVuSans-72" x="104.785156"/>
      <use xlink:href="#DejaVuSans-65" x="143.648438"/>
      <use xlink:href="#DejaVuSans-63" x="205.171875"/>
      <use xlink:href="#DejaVuSans-74" x="260.152344"/>
      <use xlink:href="#DejaVuSans-69" x="299.361328"/>
      <use xlink:href="#DejaVuSans-6f" x="327.144531"/>
      <use xlink:href="#DejaVuSans-6e" x="388.326172"/>
      <use xlink:href="#DejaVuSans-20" x="451.705078"/>
      <use xlink:href="#DejaVuSans-32" x="483.492188"/>
     </g>
    </g>
   </g>
   <g id="PathCollection_1"/>
   <g id="PathCollection_2">
    <path d="M 63.230625 510.341663 
L 74.162865 510.337698 
L 85.095104 510.429937 
L 96.027365 510.496954 
L 106.959605 513.379756 
L 108.431262 514.911149 
L 111.217793 526.225451 
L 111.143085 537.539732 
L 111.076731 548.854012 
L 117.891845 555.910501 
L 122.357088 560.168314 
L 122.039502 571.482595 
L 128.824106 578.528609 
L 139.756345 578.611263 
L 146.627952 571.482595 
L 150.688585 566.843289 
L 161.620825 566.977789 
L 172.553075 567.21926 
L 179.355459 560.168314 
L 183.485325 555.604848 
L 194.417565 555.916903 
L 201.24828 548.854012 
L 205.349805 544.544582 
L 212.122689 537.539732 
L 216.282055 533.222067 
L 223.037507 526.225451 
L 227.214305 521.8034 
L 238.146545 521.989358 
L 244.986275 514.911149 
L 249.07879 510.548359 
L 255.797469 503.596869 
L 260.011035 499.134559 
L 266.641827 492.282588 
L 270.94328 487.878785 
L 277.642798 480.968308 
L 281.875525 476.742552 
L 288.73995 469.654017 
L 292.80777 465.509188 
L 299.711448 458.339725 
L 303.740015 453.689954 
L 314.67226 454.2811 
L 321.752407 447.025445 
L 325.604505 443.117038 
L 332.839268 435.711165 
L 331.732746 424.396873 
L 336.536745 419.881274 
L 343.246783 413.082582 
L 342.441607 401.768302 
L 347.46899 397.381574 
L 354.371785 390.454016 
L 353.660872 379.13973 
L 358.401235 375.333223 
L 366.136038 367.825444 
L 365.147687 356.511158 
L 369.33348 352.75474 
L 377.030378 345.196873 
L 377.088945 333.882587 
L 378.302426 322.568301 
L 369.33348 314.060296 
L 364.740908 311.254015 
L 366.924079 299.939735 
L 358.401235 291.793035 
L 353.775776 288.625449 
L 356.326021 277.311163 
L 347.46899 268.844801 
L 343.876312 265.996877 
L 336.536745 258.967275 
L 332.312891 254.682592 
L 325.604505 247.980919 
L 321.585688 243.368306 
L 314.67226 236.294104 
L 311.361929 232.05402 
L 303.740015 224.203243 
L 292.80777 225.916108 
L 288.382834 220.739734 
L 281.875525 214.041977 
L 277.58997 209.425448 
L 270.94328 202.606658 
L 266.949273 198.111168 
L 260.011035 190.904339 
L 256.336005 186.796877 
L 249.07879 179.287397 
L 238.146545 180.312535 
L 234.012743 175.482585 
L 227.214305 168.407954 
L 216.282055 168.545326 
L 205.349805 168.741459 
L 201.49191 164.168305 
L 194.417565 156.802609 
L 183.485325 157.017208 
L 172.553075 157.584605 
L 168.01003 152.854025 
L 161.620825 146.186364 
L 150.688585 146.117114 
L 139.756345 146.72276 
L 135.475948 141.539733 
L 128.824106 134.592272 
L 117.891845 135.178147 
L 113.938397 130.225442 
L 106.959605 122.935075 
L 96.027365 123.357135 
L 85.095104 123.831679 
L 81.144177 118.911162 
L 74.162865 111.616809 
L 63.230625 112.017153 
" clip-path="url(#p8b24bd250a)" style="fill: none; stroke: #460b5e; stroke-width: 1.5"/>
    <path d="M 63.230625 215.969235 
L 67.647822 220.739734 
L 74.162865 227.49304 
L 78.222845 232.05402 
L 85.095104 239.172296 
L 96.027365 238.458648 
L 100.601558 243.368306 
L 106.959605 249.96949 
L 111.314005 254.682592 
L 117.891845 261.498489 
L 122.222225 265.996877 
L 122.094105 277.311163 
L 121.899495 288.625449 
L 121.906199 299.939735 
L 122.019596 311.254015 
L 117.891845 315.395631 
L 110.973635 322.568301 
L 106.959605 327.087517 
L 96.027365 326.830007 
L 89.250052 333.882587 
L 85.095104 338.86952 
L 74.162865 338.450976 
L 67.674744 345.196873 
L 63.230625 350.908313 
" clip-path="url(#p8b24bd250a)" style="fill: none; stroke: #460b5e; stroke-width: 1.5"/>
    <path d="M 217.064098 28.396875 
L 226.851182 39.711155 
L 227.214305 40.13678 
L 235.996987 51.025436 
L 238.146545 53.646832 
L 244.252989 62.339738 
L 249.07879 68.550234 
L 252.341691 73.654018 
L 259.616188 84.968299 
L 260.011035 85.570595 
L 265.976344 96.282601 
L 270.94328 104.842346 
L 272.336339 107.596881 
L 278.431923 118.911162 
L 281.875525 124.93912 
L 284.621654 130.225442 
L 290.556294 141.539733 
L 292.80777 145.623862 
L 296.93075 152.854025 
L 303.740015 164.000273 
L 303.881585 164.168305 
L 314.67226 175.327616 
L 314.839808 175.482585 
L 325.604505 185.335026 
L 326.765379 186.796877 
L 334.06709 198.111168 
L 336.536745 201.945485 
L 340.245903 209.425448 
L 344.202468 220.739734 
L 347.253487 232.05402 
L 347.46899 232.51845 
L 352.496427 243.368306 
L 358.401235 251.834395 
L 360.60429 254.682592 
L 366.589338 265.996877 
L 369.33348 270.875332 
L 372.630469 277.311163 
L 376.590917 288.625449 
L 380.265725 293.41913 
L 386.101019 299.939735 
L 391.19797 309.346559 
L 392.073325 311.254015 
L 395.441095 322.568301 
L 398.56385 333.882587 
L 401.665625 345.196873 
L 402.130215 346.821775 
L 405.26918 356.511158 
L 408.749845 367.825444 
L 410.837758 379.13973 
L 413.06246 389.251731 
L 413.313343 390.454016 
L 414.985517 401.768302 
L 417.605958 413.082582 
L 420.766583 424.396873 
L 423.994705 432.916073 
L 425.069176 435.711165 
L 428.226105 447.025445 
L 429.665707 458.339725 
L 430.719988 469.654017 
L 431.665866 480.968308 
L 431.839259 492.282588 
L 431.041215 503.596869 
L 429.454021 514.911149 
L 426.644461 526.225451 
L 423.994705 534.580411 
L 422.851789 537.539732 
L 418.22387 548.854012 
L 413.554255 560.168314 
L 413.06246 561.274531 
L 407.255628 571.482595 
L 402.130215 579.442192 
L 399.439333 582.796875 
" clip-path="url(#p8b24bd250a)" style="fill: none; stroke: #460b5e; stroke-width: 1.5"/>
   </g>
   <g id="PathCollection_3">
    <path d="M 63.230625 505.239305 
L 74.162865 505.235113 
L 85.095104 505.429064 
L 96.027365 505.578423 
L 106.959605 506.20735 
L 115.323892 514.911149 
L 115.978194 526.225451 
L 115.83854 537.539732 
L 115.711836 548.854012 
L 117.891845 551.111232 
L 127.390166 560.168314 
L 126.741857 571.482595 
L 128.824106 573.645073 
L 139.756345 573.798685 
L 141.988917 571.482595 
L 150.688585 561.543155 
L 161.620825 561.790093 
L 172.553075 562.267933 
L 174.578677 560.168314 
L 183.485325 550.326547 
L 194.417565 550.913722 
L 196.409566 548.854012 
L 205.349805 539.460596 
L 207.20706 537.539732 
L 216.282055 528.119355 
L 218.110679 526.225451 
L 227.214305 516.587279 
L 238.146545 516.910949 
L 240.078968 514.911149 
L 249.07879 505.316967 
L 250.741281 503.596869 
L 260.011035 493.779885 
L 261.459999 492.282588 
L 260.011035 482.567868 
L 249.07879 484.802694 
L 238.146545 488.420652 
L 233.883244 492.282588 
L 227.214305 498.09083 
L 221.785798 503.596869 
L 216.282055 508.885002 
L 210.117814 514.911149 
L 205.349805 520.286756 
L 196.11275 526.225451 
L 194.417565 527.394004 
L 183.485325 534.487329 
L 179.036238 537.539732 
L 172.553075 541.248835 
L 161.620825 545.812388 
L 151.246362 548.854012 
L 150.688585 548.988858 
L 147.5834 548.854012 
L 139.756345 547.859327 
L 136.29081 537.539732 
L 135.690655 526.225451 
L 135.696911 514.911149 
L 136.987473 503.596869 
L 138.56268 492.282588 
L 139.756345 485.62122 
L 140.503117 480.968308 
L 139.756345 479.917896 
L 128.824106 479.196836 
L 117.891845 480.45569 
L 116.483826 480.968308 
L 106.959605 484.603615 
L 96.027365 486.868833 
L 85.095104 487.806685 
L 74.162865 485.178852 
L 63.230625 481.322712 
" clip-path="url(#p8b24bd250a)" style="fill: none; stroke: #481769; stroke-width: 1.5"/>
    <path d="M 63.230625 210.485914 
L 72.307528 209.425448 
L 63.230625 200.903074 
" clip-path="url(#p8b24bd250a)" style="fill: none; stroke: #481769; stroke-width: 1.5"/>
    <path d="M 63.230625 127.13258 
L 74.162865 129.069368 
L 76.422409 118.911162 
L 74.162865 116.5503 
L 63.230625 117.364924 
" clip-path="url(#p8b24bd250a)" style="fill: none; stroke: #481769; stroke-width: 1.5"/>
    <path d="M 286.481207 28.396875 
L 292.283413 39.711155 
L 292.80777 40.706624 
L 298.777699 51.025436 
L 303.740015 60.189274 
L 305.077945 62.339738 
L 311.975379 73.654018 
L 314.67226 78.456494 
L 318.920664 84.968299 
L 325.604505 94.515532 
L 327.042962 96.282601 
L 336.536745 107.428315 
L 336.658968 107.596881 
L 345.532997 118.911162 
L 347.46899 121.184188 
L 352.864981 130.225442 
L 358.401235 140.129916 
L 359.361868 141.539733 
L 367.255673 152.854025 
L 369.33348 155.885719 
L 374.738587 164.168305 
L 380.265725 174.325386 
L 380.844634 175.482585 
L 385.902687 186.796877 
L 389.399413 198.111168 
L 391.19797 206.915764 
L 391.685962 209.425448 
L 395.87479 220.739734 
L 401.305128 232.05402 
L 402.130215 234.017825 
L 406.87449 243.368306 
L 413.06246 252.101946 
L 414.474744 254.682592 
L 419.092006 265.996877 
L 423.127849 277.311163 
L 423.994705 278.764432 
L 429.43973 288.625449 
L 434.76745 299.939735 
L 434.926945 300.300807 
L 439.406225 311.254015 
L 445.850114 322.568301 
L 445.859195 322.58557 
L 451.353251 333.882587 
L 455.082195 345.196873 
L 456.791445 351.08722 
L 458.348744 356.511158 
L 461.281358 367.825444 
L 465.69409 379.13973 
L 467.723685 383.777463 
L 470.721396 390.454016 
L 475.095983 401.768302 
L 478.151329 413.082582 
L 478.655925 415.925703 
L 480.142944 424.396873 
L 484.083117 435.711165 
L 488.415886 447.025445 
L 489.588175 449.856746 
L 493.177953 458.339725 
L 496.810097 469.654017 
L 499.16661 480.968308 
L 500.337211 492.282588 
L 500.520425 495.716754 
L 500.943772 503.596869 
L 501.614423 514.911149 
L 502.174123 526.225451 
L 503.175089 537.539732 
L 503.71808 548.854012 
L 503.679335 560.168314 
L 503.415587 571.482595 
L 503.1634 582.796875 
" clip-path="url(#p8b24bd250a)" style="fill: none; stroke: #481769; stroke-width: 1.5"/>
    <path d="M 270.94328 482.57366 
L 272.499625 480.968308 
L 270.94328 473.253381 
L 261.454715 480.968308 
L 270.94328 482.57366 
z
" clip-path="url(#p8b24bd250a)" style="fill: none; stroke: #481769; stroke-width: 1.5"/>
    <path d="M 281.875525 471.60785 
L 283.767586 469.654017 
L 281.875525 460.992991 
L 273.901716 469.654017 
L 281.875525 471.60785 
z
" clip-path="url(#p8b24bd250a)" style="fill: none; stroke: #481769; stroke-width: 1.5"/>
    <path d="M 292.80777 460.442692 
L 294.832776 458.339725 
L 292.80777 449.501522 
L 284.272556 458.339725 
L 292.80777 460.442692 
z
" clip-path="url(#p8b24bd250a)" style="fill: none; stroke: #481769; stroke-width: 1.5"/>
    <path d="M 303.740015 448.05899 
L 314.67226 449.136443 
L 316.732195 447.025445 
L 314.67226 437.713707 
L 303.740015 441.923188 
L 297.047674 447.025445 
L 303.740015 448.05899 
z
" clip-path="url(#p8b24bd250a)" style="fill: none; stroke: #481769; stroke-width: 1.5"/>
    <path d="M 325.604505 438.023443 
L 327.863359 435.711165 
L 325.604505 424.488264 
L 316.451486 435.711165 
L 325.604505 438.023443 
z
" clip-path="url(#p8b24bd250a)" style="fill: none; stroke: #481769; stroke-width: 1.5"/>
    <path d="M 336.536745 414.099558 
L 337.54046 413.082582 
L 336.536745 405.882395 
L 331.984864 413.082582 
L 336.536745 414.099558 
z
" clip-path="url(#p8b24bd250a)" style="fill: none; stroke: #481769; stroke-width: 1.5"/>
    <path d="M 347.46899 391.653489 
L 348.664175 390.454016 
L 347.46899 381.254278 
L 342.531487 390.454016 
L 347.46899 391.653489 
z
" clip-path="url(#p8b24bd250a)" style="fill: none; stroke: #481769; stroke-width: 1.5"/>
    <path d="M 358.401235 370.109736 
L 360.7546 367.825444 
L 358.401235 357.221685 
L 351.865515 367.825444 
L 358.401235 370.109736 
z
" clip-path="url(#p8b24bd250a)" style="fill: none; stroke: #481769; stroke-width: 1.5"/>
    <path d="M 74.162865 350.878495 
L 85.095104 347.714864 
L 92.629601 345.196873 
L 85.095104 344.562832 
L 74.162865 343.704833 
L 72.72784 345.196873 
L 74.162865 350.878495 
z
" clip-path="url(#p8b24bd250a)" style="fill: none; stroke: #481769; stroke-width: 1.5"/>
    <path d="M 369.33348 346.517565 
L 370.678467 345.196873 
L 369.857735 333.882587 
L 371.755992 322.568301 
L 369.33348 320.270289 
L 364.757855 322.568301 
L 367.806971 333.882587 
L 364.838254 345.196873 
L 369.33348 346.517565 
z
" clip-path="url(#p8b24bd250a)" style="fill: none; stroke: #481769; stroke-width: 1.5"/>
    <path d="M 96.027365 344.01057 
L 106.959605 340.867195 
L 117.891845 337.435765 
L 128.824106 333.967946 
L 129.170441 333.882587 
L 139.756345 330.57947 
L 150.688585 325.335912 
L 155.605612 322.568301 
L 154.247108 311.254015 
L 153.686315 299.939735 
L 152.857551 288.625449 
L 150.688585 285.680811 
L 145.812047 277.311163 
L 140.997282 265.996877 
L 139.756345 264.998672 
L 128.824106 255.003675 
L 127.22581 265.996877 
L 126.985719 277.311163 
L 126.572772 288.625449 
L 126.57784 299.939735 
L 126.789073 311.254015 
L 117.891845 320.181128 
L 115.58936 322.568301 
L 106.959605 332.284153 
L 96.027365 331.766147 
L 93.993531 333.882587 
L 96.027365 344.01057 
z
" clip-path="url(#p8b24bd250a)" style="fill: none; stroke: #481769; stroke-width: 1.5"/>
    <path d="M 358.401235 301.753281 
L 358.972251 299.939735 
L 358.401235 299.39392 
L 357.421534 299.939735 
L 358.401235 301.753281 
z
" clip-path="url(#p8b24bd250a)" style="fill: none; stroke: #481769; stroke-width: 1.5"/>
    <path d="M 347.46899 281.286311 
L 349.147752 277.311163 
L 347.46899 275.706448 
L 344.41822 277.311163 
L 347.46899 281.286311 
z
" clip-path="url(#p8b24bd250a)" style="fill: none; stroke: #481769; stroke-width: 1.5"/>
    <path d="M 117.891845 256.300777 
L 128.506023 254.682592 
L 117.891845 244.913367 
L 116.330177 254.682592 
L 117.891845 256.300777 
z
" clip-path="url(#p8b24bd250a)" style="fill: none; stroke: #481769; stroke-width: 1.5"/>
    <path d="M 106.959605 244.540101 
L 115.861068 243.368306 
L 106.959605 236.682061 
L 105.830969 243.368306 
L 106.959605 244.540101 
z
" clip-path="url(#p8b24bd250a)" style="fill: none; stroke: #481769; stroke-width: 1.5"/>
    <path d="M 85.095104 234.319782 
L 96.027365 232.845718 
L 101.336542 232.05402 
L 96.027365 227.515155 
L 85.413245 220.739734 
L 85.095104 220.389894 
L 74.162865 210.811371 
L 72.725049 220.739734 
L 74.162865 222.230132 
L 82.90765 232.05402 
L 85.095104 234.319782 
z
" clip-path="url(#p8b24bd250a)" style="fill: none; stroke: #481769; stroke-width: 1.5"/>
    <path d="M 303.740015 237.127688 
L 305.679079 232.05402 
L 303.740015 230.056731 
L 296.231325 232.05402 
L 303.740015 237.127688 
z
" clip-path="url(#p8b24bd250a)" style="fill: none; stroke: #481769; stroke-width: 1.5"/>
    <path d="M 281.875525 222.240823 
L 282.16927 220.739734 
L 281.875525 220.437392 
L 280.284626 220.739734 
L 281.875525 222.240823 
z
" clip-path="url(#p8b24bd250a)" style="fill: none; stroke: #481769; stroke-width: 1.5"/>
    <path d="M 270.94328 212.831479 
L 271.653062 209.425448 
L 270.94328 208.697288 
L 266.461844 209.425448 
L 270.94328 212.831479 
z
" clip-path="url(#p8b24bd250a)" style="fill: none; stroke: #481769; stroke-width: 1.5"/>
    <path d="M 260.011035 205.139422 
L 261.538067 198.111168 
L 260.011035 196.525022 
L 250.691215 198.111168 
L 260.011035 205.139422 
z
" clip-path="url(#p8b24bd250a)" style="fill: none; stroke: #481769; stroke-width: 1.5"/>
    <path d="M 238.146545 188.739385 
L 249.07879 196.988208 
L 251.307067 186.796877 
L 249.07879 184.491144 
L 238.146545 186.469173 
L 232.458618 186.796877 
L 238.146545 188.739385 
z
" clip-path="url(#p8b24bd250a)" style="fill: none; stroke: #481769; stroke-width: 1.5"/>
    <path d="M 194.417565 177.043176 
L 205.349805 181.016701 
L 216.282055 184.248466 
L 227.214305 185.160284 
L 228.74347 175.482585 
L 227.214305 173.891297 
L 216.282055 174.050633 
L 205.349805 174.342674 
L 196.766747 164.168305 
L 194.417565 161.722374 
L 183.485325 162.107386 
L 172.553075 163.298091 
L 165.764008 164.168305 
L 172.553075 167.740936 
L 183.485325 172.571491 
L 191.272579 175.482585 
L 194.417565 177.043176 
z
" clip-path="url(#p8b24bd250a)" style="fill: none; stroke: #481769; stroke-width: 1.5"/>
    <path d="M 150.688585 158.128411 
L 161.620825 160.082262 
L 162.523044 152.854025 
L 161.620825 151.912485 
L 150.688585 151.661204 
L 140.062535 152.854025 
L 150.688585 158.128411 
z
" clip-path="url(#p8b24bd250a)" style="fill: none; stroke: #481769; stroke-width: 1.5"/>
    <path d="M 117.891845 143.64547 
L 128.824106 148.552949 
L 130.380863 141.539733 
L 128.824106 139.913791 
L 117.891845 141.115135 
L 113.043912 141.539733 
L 117.891845 143.64547 
z
" clip-path="url(#p8b24bd250a)" style="fill: none; stroke: #481769; stroke-width: 1.5"/>
    <path d="M 85.095104 132.662528 
L 96.027365 136.482336 
L 106.959605 139.733833 
L 109.199254 130.225442 
L 106.959605 127.885802 
L 96.027365 128.745254 
L 85.095104 129.712209 
L 78.36344 130.225442 
L 85.095104 132.662528 
z
" clip-path="url(#p8b24bd250a)" style="fill: none; stroke: #481769; stroke-width: 1.5"/>
   </g>
   <g id="PathCollection_4">
    <path d="M 348.933584 28.396875 
L 356.927075 39.711155 
L 358.401235 41.864802 
L 365.330466 51.025436 
L 369.33348 56.453036 
L 373.649521 62.339738 
L 380.265725 71.77974 
L 381.519191 73.654018 
L 389.882707 84.968299 
L 391.19797 86.779445 
L 397.139191 96.282601 
L 402.130215 104.983743 
L 403.430432 107.596881 
L 408.411429 118.911162 
L 412.997854 130.225442 
L 413.06246 130.367523 
L 417.963572 141.539733 
L 422.202018 152.854025 
L 423.904977 164.168305 
L 423.994705 165.026396 
L 425.192215 175.482585 
L 428.685192 186.796877 
L 434.926945 195.973546 
L 436.37082 198.111168 
L 442.442795 209.425448 
L 445.859195 217.892905 
L 447.0539 220.739734 
L 452.066334 232.05402 
L 455.80853 243.368306 
L 456.791445 246.035693 
L 459.799853 254.682592 
L 463.378655 265.996877 
L 467.611995 277.311163 
L 467.723685 277.64388 
L 471.412294 288.625449 
L 475.496445 299.939735 
L 478.655925 305.593147 
L 481.702278 311.254015 
L 487.324799 322.568301 
L 489.588175 327.683012 
L 492.395459 333.882587 
L 496.856646 345.196873 
L 500.520425 355.475306 
L 500.877206 356.511158 
L 505.715704 367.825444 
L 510.122124 379.13973 
L 511.452665 382.228854 
L 514.87986 390.454016 
L 519.841188 401.768302 
L 522.384905 407.186713 
L 525.0533 413.082582 
L 530.195159 424.396873 
L 533.317144 431.97654 
L 534.845873 435.711165 
L 539.319561 447.025445 
L 544.04114 458.339725 
L 544.249405 458.830335 
L 548.702919 469.654017 
L 553.479564 480.968308 
L 555.181645 485.557366 
L 557.675263 492.282588 
L 561.510604 503.596869 
L 564.755641 514.911149 
L 566.113885 521.562146 
L 567.087577 526.225451 
L 568.907172 537.539732 
L 570.320271 548.854012 
L 571.033438 560.168314 
L 571.46018 571.482595 
L 571.731773 582.796875 
" clip-path="url(#p8b24bd250a)" style="fill: none; stroke: #482071; stroke-width: 1.5"/>
   </g>
   <g id="PathCollection_5">
    <path d="M 413.086575 28.396875 
L 413.17295 39.711155 
L 423.994705 50.960901 
L 424.055092 51.025436 
L 424.133227 62.339738 
L 434.926945 73.601467 
L 434.976014 73.654018 
L 435.035483 84.968299 
L 435.093694 96.282601 
L 445.859195 107.536454 
L 445.915845 107.596881 
L 445.987385 118.911162 
L 456.791445 130.21448 
L 456.80174 130.225442 
L 456.837539 141.539733 
L 456.886151 152.854025 
L 467.723685 164.157537 
L 467.733837 164.168305 
L 467.815452 175.482585 
L 478.655925 186.783178 
L 478.668884 186.796877 
L 478.755276 198.111168 
L 489.588175 209.397235 
L 489.614721 209.425448 
L 489.674228 220.739734 
L 489.709298 232.05402 
L 489.754465 243.368306 
L 500.520425 254.672937 
L 500.529392 254.682592 
L 500.578189 265.996877 
L 500.658504 277.311163 
L 511.452665 288.591691 
L 511.484202 288.625449 
L 511.576915 299.939735 
L 522.384905 311.212838 
L 522.423372 311.254015 
L 522.506593 322.568301 
L 533.317144 333.856207 
L 533.341834 333.882587 
L 533.403846 345.196873 
L 533.465083 356.511158 
L 544.249405 367.787539 
L 544.284696 367.825444 
L 544.364917 379.13973 
L 555.181645 390.452426 
L 555.183127 390.454016 
L 555.283994 401.768302 
L 566.113885 413.075574 
L 566.120431 413.082582 
L 566.216043 424.396873 
L 577.046146 435.708662 
L 577.048481 435.711165 
L 577.128484 447.025445 
L 577.21312 458.339725 
L 587.978385 469.582731 
L 588.044901 469.654017 
L 588.131217 480.968308 
L 598.910625 492.22538 
" clip-path="url(#p8b24bd250a)" style="fill: none; stroke: #472a7a; stroke-width: 1.5"/>
   </g>
   <g id="PathCollection_6">
    <path d="M 413.761049 28.396875 
L 413.859337 39.711155 
L 423.994705 50.247368 
L 424.722769 51.025436 
L 424.811726 62.339738 
L 434.926945 72.893549 
L 435.637023 73.654018 
L 435.70762 84.968299 
L 435.778074 96.282601 
L 445.859195 106.821027 
L 446.586541 107.596881 
L 446.671282 118.911162 
L 456.791445 129.498979 
L 457.473697 130.225442 
L 457.524603 141.539733 
L 457.589182 152.854025 
L 467.723685 163.424277 
L 468.425138 164.168305 
L 468.520524 175.482585 
L 478.655925 186.04818 
L 479.364245 186.796877 
L 479.464756 198.111168 
L 489.588175 208.658075 
L 490.310201 209.425448 
L 490.378245 220.739734 
L 490.424303 232.05402 
L 490.479964 243.368306 
L 500.520425 253.911137 
L 501.236926 254.682592 
L 501.297005 265.996877 
L 501.389112 277.311163 
L 511.452665 287.828163 
L 512.197484 288.625449 
L 512.301989 299.939735 
L 522.384905 310.45656 
L 523.129876 311.254015 
L 523.226714 322.568301 
L 533.317144 333.104288 
L 534.045591 333.882587 
L 534.119869 345.196873 
L 534.192657 356.511158 
L 544.249405 367.026768 
L 544.992995 367.825444 
L 545.082753 379.13973 
L 555.181645 389.701675 
L 555.883038 390.454016 
L 555.992282 401.768302 
L 566.113885 412.336064 
L 566.811177 413.082582 
L 566.915874 424.396873 
L 577.046146 434.977705 
L 577.730694 435.711165 
L 577.819159 447.025445 
L 577.912291 458.339725 
L 587.978385 468.852532 
L 588.726236 469.654017 
L 588.821017 480.968308 
L 598.910625 491.505013 
" clip-path="url(#p8b24bd250a)" style="fill: none; stroke: #46337f; stroke-width: 1.5"/>
   </g>
   <g id="PathCollection_7">
    <path d="M 414.435523 28.396875 
L 414.545723 39.711155 
L 423.994705 49.533836 
L 425.390445 51.025436 
L 425.490225 62.339738 
L 434.926945 72.18563 
L 436.298032 73.654018 
L 436.379756 84.968299 
L 436.462455 96.282601 
L 445.859195 106.105601 
L 447.257238 107.596881 
L 447.35518 118.911162 
L 456.791445 128.783479 
L 458.145654 130.225442 
L 458.211668 141.539733 
L 458.292214 152.854025 
L 467.723685 162.691017 
L 469.116439 164.168305 
L 469.225596 175.482585 
L 478.655925 185.313181 
L 480.059606 186.796877 
L 480.174236 198.111168 
L 489.588175 207.918915 
L 491.00568 209.425448 
L 491.082262 220.739734 
L 491.139308 232.05402 
L 491.205463 243.368306 
L 500.520425 253.149338 
L 501.944459 254.682592 
L 502.01582 265.996877 
L 502.119721 277.311163 
L 511.452665 287.064634 
L 512.910767 288.625449 
L 513.027064 299.939735 
L 522.384905 309.700282 
L 523.83638 311.254015 
L 523.946835 322.568301 
L 533.317144 332.352369 
L 534.749347 333.882587 
L 534.835893 345.196873 
L 534.92023 356.511158 
L 544.249405 366.265998 
L 545.701294 367.825444 
L 545.80059 379.13973 
L 555.181645 388.950925 
L 556.582948 390.454016 
L 556.700571 401.768302 
L 566.113885 411.596554 
L 567.501924 413.082582 
L 567.615705 424.396873 
L 577.046146 434.246748 
L 578.412907 435.711165 
L 578.509835 447.025445 
L 578.611462 458.339725 
L 587.978385 468.122333 
L 589.407571 469.654017 
L 589.510816 480.968308 
L 598.910625 490.784647 
" clip-path="url(#p8b24bd250a)" style="fill: none; stroke: #433d84; stroke-width: 1.5"/>
   </g>
   <g id="PathCollection_8">
    <path d="M 415.109997 28.396875 
L 415.23211 39.711155 
L 423.994705 48.820304 
L 426.058122 51.025436 
L 426.168723 62.339738 
L 434.926945 71.477712 
L 436.959041 73.654018 
L 437.051893 84.968299 
L 437.146836 96.282601 
L 445.859195 105.390175 
L 447.927935 107.596881 
L 448.039077 118.911162 
L 456.791445 128.067978 
L 458.817611 130.225442 
L 458.898732 141.539733 
L 458.995246 152.854025 
L 467.723685 161.957758 
L 469.80774 164.168305 
L 469.930668 175.482585 
L 478.655925 184.578182 
L 480.754968 186.796877 
L 480.883717 198.111168 
L 489.588175 207.179756 
L 491.701159 209.425448 
L 491.78628 220.739734 
L 491.854313 232.05402 
L 491.930963 243.368306 
L 500.520425 252.387538 
L 502.651992 254.682592 
L 502.734636 265.996877 
L 502.850329 277.311163 
L 511.452665 286.301106 
L 513.62405 288.625449 
L 513.752139 299.939735 
L 522.384905 308.944004 
L 524.542884 311.254015 
L 524.666957 322.568301 
L 533.317144 331.600449 
L 535.453103 333.882587 
L 535.551916 345.196873 
L 535.647803 356.511158 
L 544.249405 365.505227 
L 546.409592 367.825444 
L 546.518427 379.13973 
L 555.181645 388.200174 
L 557.282859 390.454016 
L 557.40886 401.768302 
L 566.113885 410.857044 
L 568.192671 413.082582 
L 568.315536 424.396873 
L 577.046146 433.515792 
L 579.09512 435.711165 
L 579.20051 447.025445 
L 579.310633 458.339725 
L 587.978385 467.392135 
L 590.088905 469.654017 
L 590.200616 480.968308 
L 598.910625 490.06428 
" clip-path="url(#p8b24bd250a)" style="fill: none; stroke: #404588; stroke-width: 1.5"/>
   </g>
   <g id="PathCollection_9">
    <path d="M 415.784472 28.396875 
L 415.918496 39.711155 
L 423.994705 48.106771 
L 426.725799 51.025436 
L 426.847222 62.339738 
L 434.926945 70.769794 
L 437.62005 73.654018 
L 437.72403 84.968299 
L 437.831217 96.282601 
L 445.859195 104.674749 
L 448.598631 107.596881 
L 448.722975 118.911162 
L 456.791445 127.352478 
L 459.489568 130.225442 
L 459.585797 141.539733 
L 459.698278 152.854025 
L 467.723685 161.224498 
L 470.499041 164.168305 
L 470.635741 175.482585 
L 478.655925 183.843183 
L 481.450329 186.796877 
L 481.593197 198.111168 
L 489.588175 206.440596 
L 492.396639 209.425448 
L 492.490297 220.739734 
L 492.569318 232.05402 
L 492.656462 243.368306 
L 500.520425 251.625739 
L 503.359526 254.682592 
L 503.453452 265.996877 
L 503.580937 277.311163 
L 511.452665 285.537578 
L 514.337333 288.625449 
L 514.477214 299.939735 
L 522.384905 308.187726 
L 525.249388 311.254015 
L 525.387078 322.568301 
L 533.317144 330.84853 
L 536.156859 333.882587 
L 536.26794 345.196873 
L 536.375377 356.511158 
L 544.249405 364.744457 
L 547.117891 367.825444 
L 547.236263 379.13973 
L 555.181645 387.449423 
L 557.982769 390.454016 
L 558.117149 401.768302 
L 566.113885 410.117533 
L 568.883417 413.082582 
L 569.015366 424.396873 
L 577.046146 432.784835 
L 579.777333 435.711165 
L 579.891186 447.025445 
L 580.009804 458.339725 
L 587.978385 466.661936 
L 590.77024 469.654017 
L 590.890416 480.968308 
L 598.910625 489.343914 
" clip-path="url(#p8b24bd250a)" style="fill: none; stroke: #3d4e8a; stroke-width: 1.5"/>
   </g>
   <g id="PathCollection_10">
    <path d="M 416.458946 28.396875 
L 416.604882 39.711155 
L 423.994705 47.393239 
L 427.393475 51.025436 
L 427.525721 62.339738 
L 434.926945 70.061876 
L 438.281059 73.654018 
L 438.396166 84.968299 
L 438.515598 96.282601 
L 445.859195 103.959323 
L 449.269328 107.596881 
L 449.406872 118.911162 
L 456.791445 126.636977 
L 460.161525 130.225442 
L 460.272861 141.539733 
L 460.401309 152.854025 
L 467.723685 160.491238 
L 471.190342 164.168305 
L 471.340813 175.482585 
L 478.655925 183.108185 
L 482.14569 186.796877 
L 482.302677 198.111168 
L 489.588175 205.701436 
L 493.092118 209.425448 
L 493.194314 220.739734 
L 493.284323 232.05402 
L 493.381961 243.368306 
L 500.520425 250.86394 
L 504.067059 254.682592 
L 504.172267 265.996877 
L 504.311546 277.311163 
L 511.452665 284.774049 
L 515.050616 288.625449 
L 515.202289 299.939735 
L 522.384905 307.431448 
L 525.955892 311.254015 
L 526.107199 322.568301 
L 533.317144 330.096611 
L 536.860616 333.882587 
L 536.983963 345.196873 
L 537.10295 356.511158 
L 544.249405 363.983686 
L 547.82619 367.825444 
L 547.9541 379.13973 
L 555.181645 386.698672 
L 558.68268 390.454016 
L 558.825437 401.768302 
L 566.113885 409.378023 
L 569.574164 413.082582 
L 569.715197 424.396873 
L 577.046146 432.053878 
L 580.459546 435.711165 
L 580.581861 447.025445 
L 580.708975 458.339725 
L 587.978385 465.931737 
L 591.451575 469.654017 
L 591.580215 480.968308 
L 598.910625 488.623547 
" clip-path="url(#p8b24bd250a)" style="fill: none; stroke: #39558c; stroke-width: 1.5"/>
   </g>
   <g id="PathCollection_11">
    <path d="M 417.13342 28.396875 
L 417.291269 39.711155 
L 423.994705 46.679706 
L 428.061152 51.025436 
L 428.20422 62.339738 
L 434.926945 69.353957 
L 438.942068 73.654018 
L 439.068303 84.968299 
L 439.199979 96.282601 
L 445.859195 103.243897 
L 449.940025 107.596881 
L 450.090769 118.911162 
L 456.791445 125.921477 
L 460.833482 130.225442 
L 460.959926 141.539733 
L 461.104341 152.854025 
L 467.723685 159.757978 
L 471.881643 164.168305 
L 472.045885 175.482585 
L 478.655925 182.373186 
L 482.841051 186.796877 
L 483.012158 198.111168 
L 489.588175 204.962276 
L 493.787598 209.425448 
L 493.898332 220.739734 
L 493.999328 232.05402 
L 494.107461 243.368306 
L 500.520425 250.10214 
L 504.774592 254.682592 
L 504.891083 265.996877 
L 505.042154 277.311163 
L 511.452665 284.010521 
L 515.763898 288.625449 
L 515.927364 299.939735 
L 522.384905 306.67517 
L 526.662396 311.254015 
L 526.827321 322.568301 
L 533.317144 329.344692 
L 537.564372 333.882587 
L 537.699987 345.196873 
L 537.830524 356.511158 
L 544.249405 363.222916 
L 548.534489 367.825444 
L 548.671936 379.13973 
L 555.181645 385.947921 
L 559.38259 390.454016 
L 559.533726 401.768302 
L 566.113885 408.638513 
L 570.264911 413.082582 
L 570.415028 424.396873 
L 577.046146 431.322921 
L 581.141759 435.711165 
L 581.272537 447.025445 
L 581.408146 458.339725 
L 587.978385 465.201538 
L 592.13291 469.654017 
L 592.270015 480.968308 
L 598.910625 487.903181 
" clip-path="url(#p8b24bd250a)" style="fill: none; stroke: #355e8d; stroke-width: 1.5"/>
   </g>
   <g id="PathCollection_12">
    <path d="M 417.807894 28.396875 
L 417.977655 39.711155 
L 423.994705 45.966174 
L 428.728828 51.025436 
L 428.882719 62.339738 
L 434.926945 68.646039 
L 439.603077 73.654018 
L 439.74044 84.968299 
L 439.88436 96.282601 
L 445.859195 102.52847 
L 450.610722 107.596881 
L 450.774667 118.911162 
L 456.791445 125.205976 
L 461.505439 130.225442 
L 461.64699 141.539733 
L 461.807373 152.854025 
L 467.723685 159.024718 
L 472.572944 164.168305 
L 472.750957 175.482585 
L 478.655925 181.638187 
L 483.536412 186.796877 
L 483.721638 198.111168 
L 489.588175 204.223117 
L 494.483077 209.425448 
L 494.602349 220.739734 
L 494.714333 232.05402 
L 494.83296 243.368306 
L 500.520425 249.340341 
L 505.482125 254.682592 
L 505.609899 265.996877 
L 505.772762 277.311163 
L 511.452665 283.246993 
L 516.477181 288.625449 
L 516.652439 299.939735 
L 522.384905 305.918892 
L 527.3689 311.254015 
L 527.547442 322.568301 
L 533.317144 328.592772 
L 538.268128 333.882587 
L 538.41601 345.196873 
L 538.558097 356.511158 
L 544.249405 362.462145 
L 549.242787 367.825444 
L 549.389773 379.13973 
L 555.181645 385.197171 
L 560.082501 390.454016 
L 560.242015 401.768302 
L 566.113885 407.899003 
L 570.955657 413.082582 
L 571.114858 424.396873 
L 577.046146 430.591964 
L 581.823971 435.711165 
L 581.963212 447.025445 
L 582.107317 458.339725 
L 587.978385 464.471339 
L 592.814245 469.654017 
L 592.959815 480.968308 
L 598.910625 487.182814 
" clip-path="url(#p8b24bd250a)" style="fill: none; stroke: #32658e; stroke-width: 1.5"/>
   </g>
   <g id="PathCollection_13">
    <path d="M 418.482368 28.396875 
L 418.664042 39.711155 
L 423.994705 45.252642 
L 429.396505 51.025436 
L 429.561217 62.339738 
L 434.926945 67.938121 
L 440.264086 73.654018 
L 440.412576 84.968299 
L 440.568741 96.282601 
L 445.859195 101.813044 
L 451.281418 107.596881 
L 451.458564 118.911162 
L 456.791445 124.490476 
L 462.177395 130.225442 
L 462.334055 141.539733 
L 462.510405 152.854025 
L 467.723685 158.291459 
L 473.264245 164.168305 
L 473.456029 175.482585 
L 478.655925 180.903188 
L 484.231774 186.796877 
L 484.431118 198.111168 
L 489.588175 203.483957 
L 495.178557 209.425448 
L 495.306367 220.739734 
L 495.429338 232.05402 
L 495.558459 243.368306 
L 500.520425 248.578541 
L 506.189659 254.682592 
L 506.328715 265.996877 
L 506.503371 277.311163 
L 511.452665 282.483464 
L 517.190464 288.625449 
L 517.377514 299.939735 
L 522.384905 305.162614 
L 528.075404 311.254015 
L 528.267563 322.568301 
L 533.317144 327.840853 
L 538.971884 333.882587 
L 539.132034 345.196873 
L 539.28567 356.511158 
L 544.249405 361.701375 
L 549.951086 367.825444 
L 550.10761 379.13973 
L 555.181645 384.44642 
L 560.782411 390.454016 
L 560.950304 401.768302 
L 566.113885 407.159493 
L 571.646404 413.082582 
L 571.814689 424.396873 
L 577.046146 429.861007 
L 582.506184 435.711165 
L 582.653888 447.025445 
L 582.806488 458.339725 
L 587.978385 463.741141 
L 593.49558 469.654017 
L 593.649614 480.968308 
L 598.910625 486.462448 
" clip-path="url(#p8b24bd250a)" style="fill: none; stroke: #2e6d8e; stroke-width: 1.5"/>
   </g>
   <g id="PathCollection_14">
    <path d="M 419.156843 28.396875 
L 419.350428 39.711155 
L 423.994705 44.539109 
L 430.064182 51.025436 
L 430.239716 62.339738 
L 434.926945 67.230203 
L 440.925095 73.654018 
L 441.084713 84.968299 
L 441.253121 96.282601 
L 445.859195 101.097618 
L 451.952115 107.596881 
L 452.142462 118.911162 
L 456.791445 123.774976 
L 462.849352 130.225442 
L 463.021119 141.539733 
L 463.213436 152.854025 
L 467.723685 157.558199 
L 473.955546 164.168305 
L 474.161102 175.482585 
L 478.655925 180.16819 
L 484.927135 186.796877 
L 485.140599 198.111168 
L 489.588175 202.744797 
L 495.874036 209.425448 
L 496.010384 220.739734 
L 496.144343 232.05402 
L 496.283959 243.368306 
L 500.520425 247.816742 
L 506.897192 254.682592 
L 507.04753 265.996877 
L 507.233979 277.311163 
L 511.452665 281.719936 
L 517.903747 288.625449 
L 518.102589 299.939735 
L 522.384905 304.406336 
L 528.781908 311.254015 
L 528.987685 322.568301 
L 533.317144 327.088934 
L 539.675641 333.882587 
L 539.848057 345.196873 
L 540.013244 356.511158 
L 544.249405 360.940604 
L 550.659385 367.825444 
L 550.825446 379.13973 
L 555.181645 383.695669 
L 561.482322 390.454016 
L 561.658592 401.768302 
L 566.113885 406.419983 
L 572.337151 413.082582 
L 572.51452 424.396873 
L 577.046146 429.130051 
L 583.188397 435.711165 
L 583.344563 447.025445 
L 583.505659 458.339725 
L 587.978385 463.010942 
L 594.176915 469.654017 
L 594.339414 480.968308 
L 598.910625 485.742081 
" clip-path="url(#p8b24bd250a)" style="fill: none; stroke: #2c738e; stroke-width: 1.5"/>
   </g>
   <g id="PathCollection_15">
    <path d="M 419.831317 28.396875 
L 420.036814 39.711155 
L 423.994705 43.825577 
L 430.731858 51.025436 
L 430.918215 62.339738 
L 434.926945 66.522284 
L 441.586104 73.654018 
L 441.75685 84.968299 
L 441.937502 96.282601 
L 445.859195 100.382192 
L 452.622812 107.596881 
L 452.826359 118.911162 
L 456.791445 123.059475 
L 463.521309 130.225442 
L 463.708184 141.539733 
L 463.916468 152.854025 
L 467.723685 156.824939 
L 474.646847 164.168305 
L 474.866174 175.482585 
L 478.655925 179.433191 
L 485.622496 186.796877 
L 485.850079 198.111168 
L 489.588175 202.005638 
L 496.569516 209.425448 
L 496.714401 220.739734 
L 496.859348 232.05402 
L 497.009458 243.368306 
L 500.520425 247.054943 
L 507.604725 254.682592 
L 507.766346 265.996877 
L 507.964587 277.311163 
L 511.452665 280.956408 
L 518.61703 288.625449 
L 518.827664 299.939735 
L 522.384905 303.650058 
L 529.488413 311.254015 
L 529.707806 322.568301 
L 533.317144 326.337014 
L 540.379397 333.882587 
L 540.564081 345.196873 
L 540.740817 356.511158 
L 544.249405 360.179834 
L 551.367683 367.825444 
L 551.543283 379.13973 
L 555.181645 382.944918 
L 562.182232 390.454016 
L 562.366881 401.768302 
L 566.113885 405.680473 
L 573.027897 413.082582 
L 573.214351 424.396873 
L 577.046146 428.399094 
L 583.87061 435.711165 
L 584.035239 447.025445 
L 584.20483 458.339725 
L 587.978385 462.280743 
L 594.85825 469.654017 
L 595.029214 480.968308 
L 598.910625 485.021715 
" clip-path="url(#p8b24bd250a)" style="fill: none; stroke: #297b8e; stroke-width: 1.5"/>
   </g>
   <g id="PathCollection_16">
    <path d="M 420.505791 28.396875 
L 420.723201 39.711155 
L 423.994705 43.112045 
L 431.399535 51.025436 
L 431.596714 62.339738 
L 434.926945 65.814366 
L 442.247113 73.654018 
L 442.428986 84.968299 
L 442.621883 96.282601 
L 445.859195 99.666766 
L 453.293508 107.596881 
L 453.510257 118.911162 
L 456.791445 122.343975 
L 464.193266 130.225442 
L 464.395248 141.539733 
L 464.6195 152.854025 
L 467.723685 156.091679 
L 475.338148 164.168305 
L 475.571246 175.482585 
L 478.655925 178.698192 
L 486.317857 186.796877 
L 486.55956 198.111168 
L 489.588175 201.266478 
L 497.264995 209.425448 
L 497.418419 220.739734 
L 497.574353 232.05402 
L 497.734957 243.368306 
L 500.520425 246.293143 
L 508.312259 254.682592 
L 508.485162 265.996877 
L 508.695196 277.311163 
L 511.452665 280.192879 
L 519.330312 288.625449 
L 519.552739 299.939735 
L 522.384905 302.89378 
L 530.194917 311.254015 
L 530.427927 322.568301 
L 533.317144 325.585095 
L 541.083153 333.882587 
L 541.280104 345.196873 
L 541.46839 356.511158 
L 544.249405 359.419063 
L 552.075982 367.825444 
L 552.261119 379.13973 
L 555.181645 382.194167 
L 562.882143 390.454016 
L 563.07517 401.768302 
L 566.113885 404.940963 
L 573.718644 413.082582 
L 573.914181 424.396873 
L 577.046146 427.668137 
L 584.552823 435.711165 
L 584.725914 447.025445 
L 584.904001 458.339725 
L 587.978385 461.550544 
L 595.539585 469.654017 
L 595.719013 480.968308 
L 598.910625 484.301348 
" clip-path="url(#p8b24bd250a)" style="fill: none; stroke: #26828e; stroke-width: 1.5"/>
   </g>
   <g id="PathCollection_17">
    <path d="M 421.180265 28.396875 
L 421.409587 39.711155 
L 423.994705 42.398512 
L 432.067211 51.025436 
L 432.275213 62.339738 
L 434.926945 65.106448 
L 442.908122 73.654018 
L 443.101123 84.968299 
L 443.306264 96.282601 
L 445.859195 98.95134 
L 453.964205 107.596881 
L 454.194154 118.911162 
L 456.791445 121.628474 
L 464.865223 130.225442 
L 465.082313 141.539733 
L 465.322532 152.854025 
L 467.723685 155.358419 
L 476.029449 164.168305 
L 476.276318 175.482585 
L 478.655925 177.963193 
L 487.013219 186.796877 
L 487.26904 198.111168 
L 489.588175 200.527318 
L 497.960474 209.425448 
L 498.122436 220.739734 
L 498.289358 232.05402 
L 498.460457 243.368306 
L 500.520425 245.531344 
L 509.019792 254.682592 
L 509.203977 265.996877 
L 509.425804 277.311163 
L 511.452665 279.429351 
L 520.043595 288.625449 
L 520.277814 299.939735 
L 522.384905 302.137502 
L 530.901421 311.254015 
L 531.148049 322.568301 
L 533.317144 324.833176 
L 541.786909 333.882587 
L 541.996128 345.196873 
L 542.195964 356.511158 
L 544.249405 358.658293 
L 552.784281 367.825444 
L 552.978956 379.13973 
L 555.181645 381.443417 
L 563.582053 390.454016 
L 563.783459 401.768302 
L 566.113885 404.201453 
L 574.409391 413.082582 
L 574.614012 424.396873 
L 577.046146 426.93718 
L 585.235036 435.711165 
L 585.41659 447.025445 
L 585.603172 458.339725 
L 587.978385 460.820345 
L 596.22092 469.654017 
L 596.408813 480.968308 
L 598.910625 483.580982 
" clip-path="url(#p8b24bd250a)" style="fill: none; stroke: #23898e; stroke-width: 1.5"/>
   </g>
   <g id="PathCollection_18">
    <path d="M 421.85474 28.396875 
L 422.095974 39.711155 
L 423.994705 41.68498 
L 432.734888 51.025436 
L 432.953711 62.339738 
L 434.926945 64.39853 
L 443.569131 73.654018 
L 443.77326 84.968299 
L 443.990645 96.282601 
L 445.859195 98.235913 
L 454.634902 107.596881 
L 454.878051 118.911162 
L 456.791445 120.912974 
L 465.53718 130.225442 
L 465.769377 141.539733 
L 466.025564 152.854025 
L 467.723685 154.62516 
L 476.72075 164.168305 
L 476.98139 175.482585 
L 478.655925 177.228195 
L 487.70858 186.796877 
L 487.97852 198.111168 
L 489.588175 199.788159 
L 498.655954 209.425448 
L 498.826453 220.739734 
L 499.004363 232.05402 
L 499.185956 243.368306 
L 500.520425 244.769544 
L 509.727325 254.682592 
L 509.922793 265.996877 
L 510.156412 277.311163 
L 511.452665 278.665823 
L 520.756878 288.625449 
L 521.002889 299.939735 
L 522.384905 301.381224 
L 531.607925 311.254015 
L 531.86817 322.568301 
L 533.317144 324.081257 
L 542.490666 333.882587 
L 542.712151 345.196873 
L 542.923537 356.511158 
L 544.249405 357.897522 
L 553.492579 367.825444 
L 553.696793 379.13973 
L 555.181645 380.692666 
L 564.281964 390.454016 
L 564.491747 401.768302 
L 566.113885 403.461943 
L 575.100137 413.082582 
L 575.313843 424.396873 
L 577.046146 426.206223 
L 585.917249 435.711165 
L 586.107265 447.025445 
L 586.302343 458.339725 
L 587.978385 460.090147 
L 596.902255 469.654017 
L 597.098613 480.968308 
L 598.910625 482.860615 
" clip-path="url(#p8b24bd250a)" style="fill: none; stroke: #21918c; stroke-width: 1.5"/>
   </g>
   <g id="PathCollection_19">
    <path d="M 422.529214 28.396875 
L 422.78236 39.711155 
L 423.994705 40.971447 
L 433.402564 51.025436 
L 433.63221 62.339738 
L 434.926945 63.690611 
L 444.23014 73.654018 
L 444.445396 84.968299 
L 444.675026 96.282601 
L 445.859195 97.520487 
L 455.305599 107.596881 
L 455.561949 118.911162 
L 456.791445 120.197473 
L 466.209137 130.225442 
L 466.456442 141.539733 
L 466.728595 152.854025 
L 467.723685 153.8919 
L 477.412051 164.168305 
L 477.686462 175.482585 
L 478.655925 176.493196 
L 488.403941 186.796877 
L 488.688001 198.111168 
L 489.588175 199.048999 
L 499.351433 209.425448 
L 499.530471 220.739734 
L 499.719368 232.05402 
L 499.911455 243.368306 
L 500.520425 244.007745 
L 510.434858 254.682592 
L 510.641609 265.996877 
L 510.887021 277.311163 
L 511.452665 277.902294 
L 521.470161 288.625449 
L 521.727964 299.939735 
L 522.384905 300.624946 
L 532.314429 311.254015 
L 532.588291 322.568301 
L 533.317144 323.329337 
L 543.194422 333.882587 
L 543.428175 345.196873 
L 543.651111 356.511158 
L 544.249405 357.136752 
L 554.200878 367.825444 
L 554.414629 379.13973 
L 555.181645 379.941915 
L 564.981874 390.454016 
L 565.200036 401.768302 
L 566.113885 402.722433 
L 575.790884 413.082582 
L 576.013673 424.396873 
L 577.046146 425.475266 
L 586.599461 435.711165 
L 586.797941 447.025445 
L 587.001514 458.339725 
L 587.978385 459.359948 
L 597.58359 469.654017 
L 597.788412 480.968308 
L 598.910625 482.140249 
" clip-path="url(#p8b24bd250a)" style="fill: none; stroke: #1f978b; stroke-width: 1.5"/>
   </g>
   <g id="PathCollection_20">
    <path d="M 423.203688 28.396875 
L 423.468746 39.711155 
L 423.994705 40.257915 
L 434.070241 51.025436 
L 434.310709 62.339738 
L 434.926945 62.982693 
L 444.891149 73.654018 
L 445.117533 84.968299 
L 445.359407 96.282601 
L 445.859195 96.805061 
L 455.976295 107.596881 
L 456.245846 118.911162 
L 456.791445 119.481973 
L 466.881093 130.225442 
L 467.143506 141.539733 
L 467.431627 152.854025 
L 467.723685 153.15864 
L 478.103352 164.168305 
L 478.391535 175.482585 
L 478.655925 175.758197 
L 489.099302 186.796877 
L 489.397481 198.111168 
L 489.588175 198.309839 
L 500.046913 209.425448 
L 500.234488 220.739734 
L 500.434373 232.05402 
L 500.520425 236.900399 
L 502.465667 243.368306 
L 511.142392 254.682592 
L 511.360425 265.996877 
L 511.452665 270.096925 
L 514.320271 277.311163 
L 522.183444 288.625449 
L 522.384905 297.115177 
L 523.544458 299.939735 
L 533.020933 311.254015 
L 533.308413 322.568301 
L 533.317144 322.577418 
L 543.898178 333.882587 
L 544.144198 345.196873 
L 544.249405 350.318094 
L 546.485182 356.511158 
L 554.909177 367.825444 
L 555.132466 379.13973 
L 555.181645 379.191164 
L 565.681784 390.454016 
L 565.908325 401.768302 
L 566.113885 401.982923 
L 576.481631 413.082582 
L 576.713504 424.396873 
L 577.046146 424.74431 
L 587.281674 435.711165 
L 587.488616 447.025445 
L 587.700686 458.339725 
L 587.978385 458.629749 
L 598.264925 469.654017 
L 598.478212 480.968308 
L 598.910625 481.419882 
" clip-path="url(#p8b24bd250a)" style="fill: none; stroke: #1f9f88; stroke-width: 1.5"/>
   </g>
   <g id="PathCollection_21">
    <path d="M 423.878162 28.396875 
L 423.994705 33.206 
L 426.838394 39.711155 
L 434.737918 51.025436 
L 434.926945 59.57011 
L 436.009446 62.339738 
L 445.552158 73.654018 
L 445.78967 84.968299 
L 445.859195 88.104593 
L 449.202776 96.282601 
L 456.646992 107.596881 
L 456.791445 113.432256 
L 459.367605 118.911162 
L 467.55305 130.225442 
L 467.723685 137.241495 
L 469.882417 141.539733 
L 475.768767 152.854025 
L 478.655925 158.636714 
L 481.436848 164.168305 
L 487.380303 175.482585 
L 489.588175 179.414725 
L 493.707713 186.796877 
L 499.676969 198.111168 
L 500.520425 199.929967 
L 504.387294 209.425448 
L 507.793697 220.739734 
L 511.299252 232.05402 
L 511.452665 232.577772 
L 514.665197 243.368306 
L 518.562161 254.682592 
L 522.384905 265.491867 
L 522.56486 265.996877 
L 527.04189 277.311163 
L 531.378865 288.625449 
L 533.317144 293.449802 
L 535.885976 299.939735 
L 540.4169 311.254015 
L 544.249405 320.020047 
L 545.359005 322.568301 
L 550.373227 333.882587 
L 554.935852 345.196873 
L 555.181645 345.872695 
L 559.069838 356.511158 
L 562.957589 367.825444 
L 566.113885 377.050616 
L 566.823707 379.13973 
L 570.911632 390.454016 
L 575.017593 401.768302 
L 577.046146 407.079958 
L 579.335006 413.082582 
L 583.60977 424.396873 
L 587.963887 435.711165 
L 587.978385 436.481495 
L 591.648439 447.025445 
L 595.491075 458.339725 
L 598.910625 467.842628 
" clip-path="url(#p8b24bd250a)" style="fill: none; stroke: #21a585; stroke-width: 1.5"/>
   </g>
   <g id="PathCollection_22">
    <path d="M 434.256058 28.396875 
L 434.926945 29.968819 
L 438.89937 39.711155 
L 443.354077 51.025436 
L 445.859195 57.402158 
L 447.810691 62.339738 
L 452.11838 73.654018 
L 456.667373 84.968299 
L 456.791445 85.260788 
L 461.681568 96.282601 
L 466.748103 107.596881 
L 467.723685 109.663237 
L 472.147764 118.911162 
L 477.606755 130.225442 
L 478.655925 132.230421 
L 483.787587 141.539733 
L 489.536386 152.854025 
L 489.588175 152.956436 
L 495.283259 164.168305 
L 500.520425 173.689535 
L 501.5079 175.482585 
L 507.344712 186.796877 
L 511.452665 195.572773 
L 512.537436 198.111168 
L 516.42265 209.425448 
L 520.082975 220.739734 
L 522.384905 228.305325 
L 523.523333 232.05402 
L 527.200813 243.368306 
L 531.287244 254.682592 
L 533.317144 260.374449 
L 535.332912 265.996877 
L 539.79994 277.311163 
L 543.972874 288.625449 
L 544.249405 289.345643 
L 548.254984 299.939735 
L 552.64458 311.254015 
L 555.181645 317.11137 
L 557.537354 322.568301 
L 562.628096 333.882587 
L 566.113885 342.316529 
L 567.315216 345.196873 
L 571.662955 356.511158 
L 575.662335 367.825444 
L 577.046146 372.007213 
L 579.404153 379.13973 
L 583.451273 390.454016 
L 587.553551 401.768302 
L 587.978385 402.883754 
L 591.842361 413.082582 
L 596.161562 424.396873 
L 598.910625 431.84709 
" clip-path="url(#p8b24bd250a)" style="fill: none; stroke: #26ad81; stroke-width: 1.5"/>
   </g>
   <g id="PathCollection_23">
    <path d="M 446.25737 28.396875 
L 450.729506 39.711155 
L 455.252111 51.025436 
L 456.791445 54.97341 
L 459.678097 62.339738 
L 464.254912 73.654018 
L 467.723685 81.482477 
L 469.292143 84.968299 
L 474.356339 96.282601 
L 478.655925 105.51704 
L 479.666892 107.596881 
L 485.415571 118.911162 
L 489.588175 126.623421 
L 491.575736 130.225442 
L 497.651544 141.539733 
L 500.520425 147.321615 
L 503.260046 152.854025 
L 509.262991 164.168305 
L 511.452665 168.193319 
L 515.139891 175.482585 
L 520.192545 186.796877 
L 522.384905 192.123289 
L 524.722584 198.111168 
L 528.50646 209.425448 
L 532.278723 220.739734 
L 533.317144 224.09153 
L 535.833935 232.05402 
L 539.936591 243.368306 
L 544.015956 254.682592 
L 544.249405 255.325606 
L 548.128558 265.996877 
L 552.531085 277.311163 
L 555.181645 284.695863 
L 556.569643 288.625449 
L 560.673291 299.939735 
L 564.891617 311.254015 
L 566.113885 314.103918 
L 569.717248 322.568301 
L 574.843239 333.882587 
L 577.046146 339.05729 
L 579.687678 345.196873 
L 584.265233 356.511158 
L 587.978385 366.644205 
L 588.4137 367.825444 
L 592.156797 379.13973 
L 596.074897 390.454016 
L 598.910625 398.361831 
" clip-path="url(#p8b24bd250a)" style="fill: none; stroke: #2eb37c; stroke-width: 1.5"/>
   </g>
   <g id="PathCollection_24">
    <path d="M 458.251012 28.396875 
L 462.721359 39.711155 
L 467.249773 51.025436 
L 467.723685 52.236234 
L 471.928192 62.339738 
L 476.895436 73.654018 
L 478.655925 77.599816 
L 482.038593 84.968299 
L 487.444239 96.282601 
L 489.588175 100.684134 
L 493.17349 107.596881 
L 499.416667 118.911162 
L 500.520425 120.930881 
L 505.510001 130.225442 
L 511.356202 141.539733 
L 511.452665 141.7333 
L 517.08355 152.854025 
L 522.384905 163.072278 
L 522.918907 164.168305 
L 527.977072 175.482585 
L 532.594049 186.796877 
L 533.317144 188.7475 
L 536.702218 198.111168 
L 540.7616 209.425448 
L 544.249405 219.933055 
L 544.517809 220.739734 
L 548.318446 232.05402 
L 552.76201 243.368306 
L 555.181645 250.309297 
L 556.681866 254.682592 
L 560.885455 265.996877 
L 565.243389 277.311163 
L 566.113885 279.844586 
L 569.081724 288.625449 
L 573.04826 299.939735 
L 577.046146 310.832655 
L 577.200413 311.254015 
L 581.939318 322.568301 
L 587.0398 333.882587 
L 587.978385 336.037066 
L 592.016562 345.196873 
L 596.85659 356.511158 
L 598.910625 362.02072 
" clip-path="url(#p8b24bd250a)" style="fill: none; stroke: #3aba76; stroke-width: 1.5"/>
   </g>
   <g id="PathCollection_25">
    <path d="M 470.388933 28.396875 
L 474.937072 39.711155 
L 478.655925 48.671381 
L 479.691334 51.025436 
L 484.711714 62.339738 
L 489.588175 73.321943 
L 489.743819 73.654018 
L 495.353891 84.968299 
L 500.520425 95.214969 
L 501.084318 96.282601 
L 507.311372 107.596881 
L 511.452665 115.169988 
L 513.454108 118.911162 
L 519.345939 130.225442 
L 522.384905 136.33531 
L 524.957722 141.539733 
L 530.6713 152.854025 
L 533.317144 158.428481 
L 535.859082 164.168305 
L 540.326668 175.482585 
L 544.249405 185.553623 
L 544.7245 186.796877 
L 548.81811 198.111168 
L 552.952475 209.425448 
L 555.181645 215.99452 
L 556.818268 220.739734 
L 560.985057 232.05402 
L 565.440163 243.368306 
L 566.113885 245.334249 
L 569.320682 254.682592 
L 573.618252 265.996877 
L 577.046146 275.305612 
L 577.771571 277.311163 
L 581.547635 288.625449 
L 585.367183 299.939735 
L 587.978385 307.077724 
L 589.504448 311.254015 
L 594.26805 322.568301 
L 598.910625 333.111745 
" clip-path="url(#p8b24bd250a)" style="fill: none; stroke: #46c06f; stroke-width: 1.5"/>
   </g>
   <g id="PathCollection_26">
    <path d="M 482.647375 28.396875 
L 487.566306 39.711155 
L 489.588175 44.242023 
L 492.639692 51.025436 
L 497.785582 62.339738 
L 500.520425 68.05152 
L 503.313764 73.654018 
L 509.104786 84.968299 
L 511.452665 89.301554 
L 515.323152 96.282601 
L 521.483864 107.596881 
L 522.384905 109.315137 
L 527.266818 118.911162 
L 532.996742 130.225442 
L 533.317144 130.868959 
L 538.589196 141.539733 
L 543.741556 152.854025 
L 544.249405 154.056653 
L 548.293894 164.168305 
L 552.519263 175.482585 
L 555.181645 182.630972 
L 556.73377 186.796877 
L 561.019708 198.111168 
L 565.151025 209.425448 
L 566.113885 212.155383 
L 569.191713 220.739734 
L 573.68406 232.05402 
L 577.046146 240.777654 
L 578.036085 243.368306 
L 581.940901 254.682592 
L 586.180095 265.996877 
L 587.978385 270.991027 
L 590.227432 277.311163 
L 593.933144 288.625449 
L 597.642379 299.939735 
L 598.910625 303.395723 
" clip-path="url(#p8b24bd250a)" style="fill: none; stroke: #56c667; stroke-width: 1.5"/>
   </g>
   <g id="PathCollection_27">
    <path d="M 495.554154 28.396875 
L 500.520425 39.667768 
L 500.539679 39.711155 
L 505.861244 51.025436 
L 511.395283 62.339738 
L 511.452665 62.454193 
L 517.199268 73.654018 
L 522.384905 83.20222 
L 523.36048 84.968299 
L 529.523454 96.282601 
L 533.317144 103.484239 
L 535.41228 107.596881 
L 541.012055 118.911162 
L 544.249405 125.38075 
L 546.604341 130.225442 
L 551.765811 141.539733 
L 555.181645 149.863563 
L 556.365944 152.854025 
L 560.564192 164.168305 
L 564.762016 175.482585 
L 566.113885 179.145997 
L 568.928835 186.796877 
L 573.210634 198.111168 
L 577.046146 208.392143 
L 577.434748 209.425448 
L 581.646666 220.739734 
L 586.25851 232.05402 
L 587.978385 236.528501 
L 590.585849 243.368306 
L 594.483342 254.682592 
L 598.67544 265.996877 
L 598.910625 266.66988 
" clip-path="url(#p8b24bd250a)" style="fill: none; stroke: #65cb5e; stroke-width: 1.5"/>
   </g>
   <g id="PathCollection_28">
    <path d="M 508.565217 28.396875 
L 511.452665 34.677534 
L 513.942383 39.711155 
L 519.619281 51.025436 
L 522.384905 56.634636 
L 525.312954 62.339738 
L 531.438699 73.654018 
L 533.317144 77.071896 
L 537.641235 84.968299 
L 543.591756 96.282601 
L 544.249405 97.592272 
L 549.151831 107.596881 
L 554.748486 118.911162 
L 555.181645 119.829137 
L 559.84747 130.225442 
L 564.553142 141.539733 
L 566.113885 145.595423 
L 568.812472 152.854025 
L 572.820881 164.168305 
L 576.90871 175.482585 
L 577.046146 175.851678 
L 581.168516 186.796877 
L 585.453436 198.111168 
L 587.978385 204.796814 
L 589.733287 209.425448 
L 594.143832 220.739734 
L 598.784584 232.05402 
L 598.910625 232.388565 
" clip-path="url(#p8b24bd250a)" style="fill: none; stroke: #77d153; stroke-width: 1.5"/>
   </g>
   <g id="PathCollection_29">
    <path d="M 521.97747 28.396875 
L 522.384905 29.203418 
L 527.893654 39.711155 
L 533.317144 50.389732 
L 533.645235 51.025436 
L 539.614091 62.339738 
L 544.249405 70.726098 
L 545.866162 73.654018 
L 551.76756 84.968299 
L 555.181645 91.795449 
L 557.364724 96.282601 
L 562.911264 107.596881 
L 566.113885 114.332867 
L 568.153984 118.911162 
L 572.727951 130.225442 
L 577.008207 141.539733 
L 577.046146 141.643334 
L 581.10013 152.854025 
L 585.023219 164.168305 
L 587.978385 172.113258 
L 589.227616 175.482585 
L 593.403253 186.796877 
L 597.720798 198.111168 
L 598.910625 201.232609 
" clip-path="url(#p8b24bd250a)" style="fill: none; stroke: #89d548; stroke-width: 1.5"/>
   </g>
   <g id="PathCollection_30">
    <path d="M 536.209561 28.396875 
L 542.00242 39.711155 
L 544.249405 44.019674 
L 547.938881 51.025436 
L 553.997001 62.339738 
L 555.181645 64.511502 
L 560.009413 73.654018 
L 565.634482 84.968299 
L 566.113885 85.97158 
L 571.043797 96.282601 
L 576.459249 107.596881 
L 577.046146 108.975448 
L 581.038681 118.911162 
L 585.309371 130.225442 
L 587.978385 137.638574 
L 589.367611 141.539733 
L 593.308794 152.854025 
L 597.248263 164.168305 
L 598.910625 168.726487 
" clip-path="url(#p8b24bd250a)" style="fill: none; stroke: #9dd93b; stroke-width: 1.5"/>
   </g>
   <g id="PathCollection_31">
    <path d="M 550.428751 28.396875 
L 555.181645 37.65705 
L 556.250355 39.711155 
L 562.283994 51.025436 
L 566.113885 58.176307 
L 568.289717 62.339738 
L 573.946278 73.654018 
L 577.046146 80.172862 
L 579.302789 84.968299 
L 584.725726 96.282601 
L 587.978385 104.000358 
L 589.400311 107.596881 
L 593.688976 118.911162 
L 597.732143 130.225442 
L 598.910625 133.543595 
" clip-path="url(#p8b24bd250a)" style="fill: none; stroke: #b0dd2f; stroke-width: 1.5"/>
   </g>
   <g id="PathCollection_32">
    <path d="M 564.69306 28.396875 
L 566.113885 31.139872 
L 570.614682 39.711155 
L 576.711786 51.025436 
L 577.046146 51.679226 
L 582.29131 62.339738 
L 587.7373 73.654018 
L 587.978385 74.166786 
L 592.93784 84.968299 
L 597.878269 96.282601 
L 598.910625 98.987393 
" clip-path="url(#p8b24bd250a)" style="fill: none; stroke: #c5e021; stroke-width: 1.5"/>
   </g>
   <g id="PathCollection_33">
    <path d="M 579.026198 28.396875 
L 585.065517 39.711155 
L 587.978385 45.425918 
L 590.761325 51.025436 
L 596.174877 62.339738 
L 598.910625 68.250797 
" clip-path="url(#p8b24bd250a)" style="fill: none; stroke: #d8e219; stroke-width: 1.5"/>
   </g>
   <g id="PathCollection_34">
    <path d="M 593.593401 28.396875 
L 598.910625 39.040344 
" clip-path="url(#p8b24bd250a)" style="fill: none; stroke: #ece51b; stroke-width: 1.5"/>
   </g>
   <g id="PathCollection_35"/>
   <g id="line2d_29">
    <defs>
     <path id="m640a98764d" d="M 0 2.5 
C 0.663008 2.5 1.29895 2.236584 1.767767 1.767767 
C 2.236584 1.29895 2.5 0.663008 2.5 0 
C 2.5 -0.663008 2.236584 -1.29895 1.767767 -1.767767 
C 1.29895 -2.236584 0.663008 -2.5 0 -2.5 
C -0.663008 -2.5 -1.29895 -2.236584 -1.767767 -1.767767 
C -2.236584 -1.29895 -2.5 -0.663008 -2.5 0 
C -2.5 0.663008 -2.236584 1.29895 -1.767767 1.767767 
C -1.29895 2.236584 -0.663008 2.5 0 2.5 
z
" style="stroke: #ff0000"/>
    </defs>
    <g clip-path="url(#p8b24bd250a)">
     <use xlink:href="#m640a98764d" x="331.070625" y="305.596875" style="fill: #ff0000; stroke: #ff0000"/>
    </g>
   </g>
   <g id="patch_3">
    <path d="M 63.230625 582.796875 
L 63.230625 28.396875 
" style="fill: none; stroke: #000000; stroke-width: 0.8; stroke-linejoin: miter; stroke-linecap: square"/>
   </g>
   <g id="patch_4">
    <path d="M 598.910625 582.796875 
L 598.910625 28.396875 
" style="fill: none; stroke: #000000; stroke-width: 0.8; stroke-linejoin: miter; stroke-linecap: square"/>
   </g>
   <g id="patch_5">
    <path d="M 63.230625 582.796875 
L 598.910625 582.796875 
" style="fill: none; stroke: #000000; stroke-width: 0.8; stroke-linejoin: miter; stroke-linecap: square"/>
   </g>
   <g id="patch_6">
    <path d="M 63.230625 28.396875 
L 598.910625 28.396875 
" style="fill: none; stroke: #000000; stroke-width: 0.8; stroke-linejoin: miter; stroke-linecap: square"/>
   </g>
   <g id="text_17">
    <!-- Loss Landscape Contour -->
    <g transform="translate(209.13 22.396875) scale(0.2 -0.2)">
     <defs>
      <path id="DejaVuSans-4c" d="M 628 4666 
L 1259 4666 
L 1259 531 
L 3531 531 
L 3531 0 
L 628 0 
L 628 4666 
z
" transform="scale(0.015625)"/>
      <path id="DejaVuSans-73" d="M 2834 3397 
L 2834 2853 
Q 2591 2978 2328 3040 
Q 2066 3103 1784 3103 
Q 1356 3103 1142 2972 
Q 928 2841 928 2578 
Q 928 2378 1081 2264 
Q 1234 2150 1697 2047 
L 1894 2003 
Q 2506 1872 2764 1633 
Q 3022 1394 3022 966 
Q 3022 478 2636 193 
Q 2250 -91 1575 -91 
Q 1294 -91 989 -36 
Q 684 19 347 128 
L 347 722 
Q 666 556 975 473 
Q 1284 391 1588 391 
Q 1994 391 2212 530 
Q 2431 669 2431 922 
Q 2431 1156 2273 1281 
Q 2116 1406 1581 1522 
L 1381 1569 
Q 847 1681 609 1914 
Q 372 2147 372 2553 
Q 372 3047 722 3315 
Q 1072 3584 1716 3584 
Q 2034 3584 2315 3537 
Q 2597 3491 2834 3397 
z
" transform="scale(0.015625)"/>
      <path id="DejaVuSans-61" d="M 2194 1759 
Q 1497 1759 1228 1600 
Q 959 1441 959 1056 
Q 959 750 1161 570 
Q 1363 391 1709 391 
Q 2188 391 2477 730 
Q 2766 1069 2766 1631 
L 2766 1759 
L 2194 1759 
z
M 3341 1997 
L 3341 0 
L 2766 0 
L 2766 531 
Q 2569 213 2275 61 
Q 1981 -91 1556 -91 
Q 1019 -91 701 211 
Q 384 513 384 1019 
Q 384 1609 779 1909 
Q 1175 2209 1959 2209 
L 2766 2209 
L 2766 2266 
Q 2766 2663 2505 2880 
Q 2244 3097 1772 3097 
Q 1472 3097 1187 3025 
Q 903 2953 641 2809 
L 641 3341 
Q 956 3463 1253 3523 
Q 1550 3584 1831 3584 
Q 2591 3584 2966 3190 
Q 3341 2797 3341 1997 
z
" transform="scale(0.015625)"/>
      <path id="DejaVuSans-64" d="M 2906 2969 
L 2906 4863 
L 3481 4863 
L 3481 0 
L 2906 0 
L 2906 525 
Q 2725 213 2448 61 
Q 2172 -91 1784 -91 
Q 1150 -91 751 415 
Q 353 922 353 1747 
Q 353 2572 751 3078 
Q 1150 3584 1784 3584 
Q 2172 3584 2448 3432 
Q 2725 3281 2906 2969 
z
M 947 1747 
Q 947 1113 1208 752 
Q 1469 391 1925 391 
Q 2381 391 2643 752 
Q 2906 1113 2906 1747 
Q 2906 2381 2643 2742 
Q 2381 3103 1925 3103 
Q 1469 3103 1208 2742 
Q 947 2381 947 1747 
z
" transform="scale(0.015625)"/>
      <path id="DejaVuSans-70" d="M 1159 525 
L 1159 -1331 
L 581 -1331 
L 581 3500 
L 1159 3500 
L 1159 2969 
Q 1341 3281 1617 3432 
Q 1894 3584 2278 3584 
Q 2916 3584 3314 3078 
Q 3713 2572 3713 1747 
Q 3713 922 3314 415 
Q 2916 -91 2278 -91 
Q 1894 -91 1617 61 
Q 1341 213 1159 525 
z
M 3116 1747 
Q 3116 2381 2855 2742 
Q 2594 3103 2138 3103 
Q 1681 3103 1420 2742 
Q 1159 2381 1159 1747 
Q 1159 1113 1420 752 
Q 1681 391 2138 391 
Q 2594 391 2855 752 
Q 3116 1113 3116 1747 
z
" transform="scale(0.015625)"/>
      <path id="DejaVuSans-43" d="M 4122 4306 
L 4122 3641 
Q 3803 3938 3442 4084 
Q 3081 4231 2675 4231 
Q 1875 4231 1450 3742 
Q 1025 3253 1025 2328 
Q 1025 1406 1450 917 
Q 1875 428 2675 428 
Q 3081 428 3442 575 
Q 3803 722 4122 1019 
L 4122 359 
Q 3791 134 3420 21 
Q 3050 -91 2638 -91 
Q 1578 -91 968 557 
Q 359 1206 359 2328 
Q 359 3453 968 4101 
Q 1578 4750 2638 4750 
Q 3056 4750 3426 4639 
Q 3797 4528 4122 4306 
z
" transform="scale(0.015625)"/>
      <path id="DejaVuSans-75" d="M 544 1381 
L 544 3500 
L 1119 3500 
L 1119 1403 
Q 1119 906 1312 657 
Q 1506 409 1894 409 
Q 2359 409 2629 706 
Q 2900 1003 2900 1516 
L 2900 3500 
L 3475 3500 
L 3475 0 
L 2900 0 
L 2900 538 
Q 2691 219 2414 64 
Q 2138 -91 1772 -91 
Q 1169 -91 856 284 
Q 544 659 544 1381 
z
M 1991 3584 
L 1991 3584 
z
" transform="scale(0.015625)"/>
     </defs>
     <use xlink:href="#DejaVuSans-4c"/>
     <use xlink:href="#DejaVuSans-6f" x="53.962891"/>
     <use xlink:href="#DejaVuSans-73" x="115.144531"/>
     <use xlink:href="#DejaVuSans-73" x="167.244141"/>
     <use xlink:href="#DejaVuSans-20" x="219.34375"/>
     <use xlink:href="#DejaVuSans-4c" x="251.130859"/>
     <use xlink:href="#DejaVuSans-61" x="306.84375"/>
     <use xlink:href="#DejaVuSans-6e" x="368.123047"/>
     <use xlink:href="#DejaVuSans-64" x="431.501953"/>
     <use xlink:href="#DejaVuSans-73" x="494.978516"/>
     <use xlink:href="#DejaVuSans-63" x="547.078125"/>
     <use xlink:href="#DejaVuSans-61" x="602.058594"/>
     <use xlink:href="#DejaVuSans-70" x="663.337891"/>
     <use xlink:href="#DejaVuSans-65" x="726.814453"/>
     <use xlink:href="#DejaVuSans-20" x="788.337891"/>
     <use xlink:href="#DejaVuSans-43" x="820.125"/>
     <use xlink:href="#DejaVuSans-6f" x="889.949219"/>
     <use xlink:href="#DejaVuSans-6e" x="951.130859"/>
     <use xlink:href="#DejaVuSans-74" x="1014.509766"/>
     <use xlink:href="#DejaVuSans-6f" x="1053.71875"/>
     <use xlink:href="#DejaVuSans-75" x="1114.900391"/>
     <use xlink:href="#DejaVuSans-72" x="1178.279297"/>
    </g>
   </g>
   <g id="legend_1">
    <g id="patch_7">
     <path d="M 487.777813 51.075 
L 591.910625 51.075 
Q 593.910625 51.075 593.910625 49.075 
L 593.910625 35.396875 
Q 593.910625 33.396875 591.910625 33.396875 
L 487.777813 33.396875 
Q 485.777813 33.396875 485.777813 35.396875 
L 485.777813 49.075 
Q 485.777813 51.075 487.777813 51.075 
z
" style="fill: #ffffff; opacity: 0.8; stroke: #cccccc; stroke-linejoin: miter"/>
    </g>
    <g id="line2d_30">
     <g>
      <use xlink:href="#m640a98764d" x="499.777813" y="41.495313" style="fill: #ff0000; stroke: #ff0000"/>
     </g>
    </g>
    <g id="text_18">
     <!-- Model Position -->
     <g transform="translate(517.777813 44.995313) scale(0.1 -0.1)">
      <defs>
       <path id="DejaVuSans-4d" d="M 628 4666 
L 1569 4666 
L 2759 1491 
L 3956 4666 
L 4897 4666 
L 4897 0 
L 4281 0 
L 4281 4097 
L 3078 897 
L 2444 897 
L 1241 4097 
L 1241 0 
L 628 0 
L 628 4666 
z
" transform="scale(0.015625)"/>
       <path id="DejaVuSans-6c" d="M 603 4863 
L 1178 4863 
L 1178 0 
L 603 0 
L 603 4863 
z
" transform="scale(0.015625)"/>
       <path id="DejaVuSans-50" d="M 1259 4147 
L 1259 2394 
L 2053 2394 
Q 2494 2394 2734 2622 
Q 2975 2850 2975 3272 
Q 2975 3691 2734 3919 
Q 2494 4147 2053 4147 
L 1259 4147 
z
M 628 4666 
L 2053 4666 
Q 2838 4666 3239 4311 
Q 3641 3956 3641 3272 
Q 3641 2581 3239 2228 
Q 2838 1875 2053 1875 
L 1259 1875 
L 1259 0 
L 628 0 
L 628 4666 
z
" transform="scale(0.015625)"/>
      </defs>
      <use xlink:href="#DejaVuSans-4d"/>
      <use xlink:href="#DejaVuSans-6f" x="86.279297"/>
      <use xlink:href="#DejaVuSans-64" x="147.460938"/>
      <use xlink:href="#DejaVuSans-65" x="210.9375"/>
      <use xlink:href="#DejaVuSans-6c" x="272.460938"/>
      <use xlink:href="#DejaVuSans-20" x="300.244141"/>
      <use xlink:href="#DejaVuSans-50" x="332.03125"/>
      <use xlink:href="#DejaVuSans-6f" x="388.708984"/>
      <use xlink:href="#DejaVuSans-73" x="449.890625"/>
      <use xlink:href="#DejaVuSans-69" x="501.990234"/>
      <use xlink:href="#DejaVuSans-74" x="529.773438"/>
      <use xlink:href="#DejaVuSans-69" x="568.982422"/>
      <use xlink:href="#DejaVuSans-6f" x="596.765625"/>
      <use xlink:href="#DejaVuSans-6e" x="657.947266"/>
     </g>
    </g>
   </g>
  </g>
  <g id="axes_2">
   <g id="patch_8">
    <path d="M 632.390625 582.796875 
L 660.110625 582.796875 
L 660.110625 28.396875 
L 632.390625 28.396875 
z
" style="fill: #ffffff"/>
   </g>
   <g id="patch_9">
    <path clip-path="url(#pbebc265c74)" style="fill: #ffffff; stroke: #ffffff; stroke-width: 0.01; stroke-linejoin: miter"/>
   </g>
   <g id="matplotlib.axis_3"/>
   <g id="matplotlib.axis_4">
    <g id="ytick_8">
     <g id="line2d_31">
      <g>
       <use xlink:href="#me845fe3ca3" x="660.110625" y="566.490993" style="stroke: #000000; stroke-width: 0.8"/>
      </g>
     </g>
     <g id="text_19">
      <!-- 0 -->
      <g transform="translate(663.610625 572.569743) scale(0.16 -0.16)">
       <use xlink:href="#DejaVuSans-30"/>
      </g>
     </g>
    </g>
    <g id="ytick_9">
     <g id="line2d_32">
      <g>
       <use xlink:href="#me845fe3ca3" x="660.110625" y="501.267463" style="stroke: #000000; stroke-width: 0.8"/>
      </g>
     </g>
     <g id="text_20">
      <!-- 4 -->
      <g transform="translate(663.610625 507.346213) scale(0.16 -0.16)">
       <defs>
        <path id="DejaVuSans-34" d="M 2419 4116 
L 825 1625 
L 2419 1625 
L 2419 4116 
z
M 2253 4666 
L 3047 4666 
L 3047 1625 
L 3713 1625 
L 3713 1100 
L 3047 1100 
L 3047 0 
L 2419 0 
L 2419 1100 
L 313 1100 
L 313 1709 
L 2253 4666 
z
" transform="scale(0.015625)"/>
       </defs>
       <use xlink:href="#DejaVuSans-34"/>
      </g>
     </g>
    </g>
    <g id="ytick_10">
     <g id="line2d_33">
      <g>
       <use xlink:href="#me845fe3ca3" x="660.110625" y="436.043934" style="stroke: #000000; stroke-width: 0.8"/>
      </g>
     </g>
     <g id="text_21">
      <!-- 8 -->
      <g transform="translate(663.610625 442.122684) scale(0.16 -0.16)">
       <defs>
        <path id="DejaVuSans-38" d="M 2034 2216 
Q 1584 2216 1326 1975 
Q 1069 1734 1069 1313 
Q 1069 891 1326 650 
Q 1584 409 2034 409 
Q 2484 409 2743 651 
Q 3003 894 3003 1313 
Q 3003 1734 2745 1975 
Q 2488 2216 2034 2216 
z
M 1403 2484 
Q 997 2584 770 2862 
Q 544 3141 544 3541 
Q 544 4100 942 4425 
Q 1341 4750 2034 4750 
Q 2731 4750 3128 4425 
Q 3525 4100 3525 3541 
Q 3525 3141 3298 2862 
Q 3072 2584 2669 2484 
Q 3125 2378 3379 2068 
Q 3634 1759 3634 1313 
Q 3634 634 3220 271 
Q 2806 -91 2034 -91 
Q 1263 -91 848 271 
Q 434 634 434 1313 
Q 434 1759 690 2068 
Q 947 2378 1403 2484 
z
M 1172 3481 
Q 1172 3119 1398 2916 
Q 1625 2713 2034 2713 
Q 2441 2713 2670 2916 
Q 2900 3119 2900 3481 
Q 2900 3844 2670 4047 
Q 2441 4250 2034 4250 
Q 1625 4250 1398 4047 
Q 1172 3844 1172 3481 
z
" transform="scale(0.015625)"/>
       </defs>
       <use xlink:href="#DejaVuSans-38"/>
      </g>
     </g>
    </g>
    <g id="ytick_11">
     <g id="line2d_34">
      <g>
       <use xlink:href="#me845fe3ca3" x="660.110625" y="370.820404" style="stroke: #000000; stroke-width: 0.8"/>
      </g>
     </g>
     <g id="text_22">
      <!-- 12 -->
      <g transform="translate(663.610625 376.899154) scale(0.16 -0.16)">
       <use xlink:href="#DejaVuSans-31"/>
       <use xlink:href="#DejaVuSans-32" x="63.623047"/>
      </g>
     </g>
    </g>
    <g id="ytick_12">
     <g id="line2d_35">
      <g>
       <use xlink:href="#me845fe3ca3" x="660.110625" y="305.596875" style="stroke: #000000; stroke-width: 0.8"/>
      </g>
     </g>
     <g id="text_23">
      <!-- 16 -->
      <g transform="translate(663.610625 311.675625) scale(0.16 -0.16)">
       <defs>
        <path id="DejaVuSans-36" d="M 2113 2584 
Q 1688 2584 1439 2293 
Q 1191 2003 1191 1497 
Q 1191 994 1439 701 
Q 1688 409 2113 409 
Q 2538 409 2786 701 
Q 3034 994 3034 1497 
Q 3034 2003 2786 2293 
Q 2538 2584 2113 2584 
z
M 3366 4563 
L 3366 3988 
Q 3128 4100 2886 4159 
Q 2644 4219 2406 4219 
Q 1781 4219 1451 3797 
Q 1122 3375 1075 2522 
Q 1259 2794 1537 2939 
Q 1816 3084 2150 3084 
Q 2853 3084 3261 2657 
Q 3669 2231 3669 1497 
Q 3669 778 3244 343 
Q 2819 -91 2113 -91 
Q 1303 -91 875 529 
Q 447 1150 447 2328 
Q 447 3434 972 4092 
Q 1497 4750 2381 4750 
Q 2619 4750 2861 4703 
Q 3103 4656 3366 4563 
z
" transform="scale(0.015625)"/>
       </defs>
       <use xlink:href="#DejaVuSans-31"/>
       <use xlink:href="#DejaVuSans-36" x="63.623047"/>
      </g>
     </g>
    </g>
    <g id="ytick_13">
     <g id="line2d_36">
      <g>
       <use xlink:href="#me845fe3ca3" x="660.110625" y="240.373346" style="stroke: #000000; stroke-width: 0.8"/>
      </g>
     </g>
     <g id="text_24">
      <!-- 20 -->
      <g transform="translate(663.610625 246.452096) scale(0.16 -0.16)">
       <use xlink:href="#DejaVuSans-32"/>
       <use xlink:href="#DejaVuSans-30" x="63.623047"/>
      </g>
     </g>
    </g>
    <g id="ytick_14">
     <g id="line2d_37">
      <g>
       <use xlink:href="#me845fe3ca3" x="660.110625" y="175.149816" style="stroke: #000000; stroke-width: 0.8"/>
      </g>
     </g>
     <g id="text_25">
      <!-- 24 -->
      <g transform="translate(663.610625 181.228566) scale(0.16 -0.16)">
       <use xlink:href="#DejaVuSans-32"/>
       <use xlink:href="#DejaVuSans-34" x="63.623047"/>
      </g>
     </g>
    </g>
    <g id="ytick_15">
     <g id="line2d_38">
      <g>
       <use xlink:href="#me845fe3ca3" x="660.110625" y="109.926287" style="stroke: #000000; stroke-width: 0.8"/>
      </g>
     </g>
     <g id="text_26">
      <!-- 28 -->
      <g transform="translate(663.610625 116.005037) scale(0.16 -0.16)">
       <use xlink:href="#DejaVuSans-32"/>
       <use xlink:href="#DejaVuSans-38" x="63.623047"/>
      </g>
     </g>
    </g>
    <g id="ytick_16">
     <g id="line2d_39">
      <g>
       <use xlink:href="#me845fe3ca3" x="660.110625" y="44.702757" style="stroke: #000000; stroke-width: 0.8"/>
      </g>
     </g>
     <g id="text_27">
      <!-- 32 -->
      <g transform="translate(663.610625 50.781507) scale(0.16 -0.16)">
       <defs>
        <path id="DejaVuSans-33" d="M 2597 2516 
Q 3050 2419 3304 2112 
Q 3559 1806 3559 1356 
Q 3559 666 3084 287 
Q 2609 -91 1734 -91 
Q 1441 -91 1130 -33 
Q 819 25 488 141 
L 488 750 
Q 750 597 1062 519 
Q 1375 441 1716 441 
Q 2309 441 2620 675 
Q 2931 909 2931 1356 
Q 2931 1769 2642 2001 
Q 2353 2234 1838 2234 
L 1294 2234 
L 1294 2753 
L 1863 2753 
Q 2328 2753 2575 2939 
Q 2822 3125 2822 3475 
Q 2822 3834 2567 4026 
Q 2313 4219 1838 4219 
Q 1578 4219 1281 4162 
Q 984 4106 628 3988 
L 628 4550 
Q 988 4650 1302 4700 
Q 1616 4750 1894 4750 
Q 2613 4750 3031 4423 
Q 3450 4097 3450 3541 
Q 3450 3153 3228 2886 
Q 3006 2619 2597 2516 
z
" transform="scale(0.015625)"/>
       </defs>
       <use xlink:href="#DejaVuSans-33"/>
       <use xlink:href="#DejaVuSans-32" x="63.623047"/>
      </g>
     </g>
    </g>
    <g id="text_28">
     <!-- Loss -->
     <g transform="translate(695.569063 316.564063) rotate(-90) scale(0.1 -0.1)">
      <use xlink:href="#DejaVuSans-4c"/>
      <use xlink:href="#DejaVuSans-6f" x="53.962891"/>
      <use xlink:href="#DejaVuSans-73" x="115.144531"/>
      <use xlink:href="#DejaVuSans-73" x="167.244141"/>
     </g>
    </g>
   </g>
   <g id="LineCollection_1"/>
   <g id="LineCollection_2">
    <path d="M 632.390625 582.796875 
L 660.110625 582.796875 
" clip-path="url(#p9479f5588b)" style="fill: none; stroke: #440154; stroke-width: 1.5"/>
    <path d="M 632.390625 566.490993 
L 660.110625 566.490993 
" clip-path="url(#p9479f5588b)" style="fill: none; stroke: #460b5e; stroke-width: 1.5"/>
    <path d="M 632.390625 550.18511 
L 660.110625 550.18511 
" clip-path="url(#p9479f5588b)" style="fill: none; stroke: #481769; stroke-width: 1.5"/>
    <path d="M 632.390625 533.879228 
L 660.110625 533.879228 
" clip-path="url(#p9479f5588b)" style="fill: none; stroke: #482071; stroke-width: 1.5"/>
    <path d="M 632.390625 517.573346 
L 660.110625 517.573346 
" clip-path="url(#p9479f5588b)" style="fill: none; stroke: #472a7a; stroke-width: 1.5"/>
    <path d="M 632.390625 501.267463 
L 660.110625 501.267463 
" clip-path="url(#p9479f5588b)" style="fill: none; stroke: #46337f; stroke-width: 1.5"/>
    <path d="M 632.390625 484.961581 
L 660.110625 484.961581 
" clip-path="url(#p9479f5588b)" style="fill: none; stroke: #433d84; stroke-width: 1.5"/>
    <path d="M 632.390625 468.655699 
L 660.110625 468.655699 
" clip-path="url(#p9479f5588b)" style="fill: none; stroke: #404588; stroke-width: 1.5"/>
    <path d="M 632.390625 452.349816 
L 660.110625 452.349816 
" clip-path="url(#p9479f5588b)" style="fill: none; stroke: #3d4e8a; stroke-width: 1.5"/>
    <path d="M 632.390625 436.043934 
L 660.110625 436.043934 
" clip-path="url(#p9479f5588b)" style="fill: none; stroke: #39558c; stroke-width: 1.5"/>
    <path d="M 632.390625 419.738051 
L 660.110625 419.738051 
" clip-path="url(#p9479f5588b)" style="fill: none; stroke: #355e8d; stroke-width: 1.5"/>
    <path d="M 632.390625 403.432169 
L 660.110625 403.432169 
" clip-path="url(#p9479f5588b)" style="fill: none; stroke: #32658e; stroke-width: 1.5"/>
    <path d="M 632.390625 387.126287 
L 660.110625 387.126287 
" clip-path="url(#p9479f5588b)" style="fill: none; stroke: #2e6d8e; stroke-width: 1.5"/>
    <path d="M 632.390625 370.820404 
L 660.110625 370.820404 
" clip-path="url(#p9479f5588b)" style="fill: none; stroke: #2c738e; stroke-width: 1.5"/>
    <path d="M 632.390625 354.514522 
L 660.110625 354.514522 
" clip-path="url(#p9479f5588b)" style="fill: none; stroke: #297b8e; stroke-width: 1.5"/>
    <path d="M 632.390625 338.20864 
L 660.110625 338.20864 
" clip-path="url(#p9479f5588b)" style="fill: none; stroke: #26828e; stroke-width: 1.5"/>
    <path d="M 632.390625 321.902757 
L 660.110625 321.902757 
" clip-path="url(#p9479f5588b)" style="fill: none; stroke: #23898e; stroke-width: 1.5"/>
    <path d="M 632.390625 305.596875 
L 660.110625 305.596875 
" clip-path="url(#p9479f5588b)" style="fill: none; stroke: #21918c; stroke-width: 1.5"/>
    <path d="M 632.390625 289.290993 
L 660.110625 289.290993 
" clip-path="url(#p9479f5588b)" style="fill: none; stroke: #1f978b; stroke-width: 1.5"/>
    <path d="M 632.390625 272.98511 
L 660.110625 272.98511 
" clip-path="url(#p9479f5588b)" style="fill: none; stroke: #1f9f88; stroke-width: 1.5"/>
    <path d="M 632.390625 256.679228 
L 660.110625 256.679228 
" clip-path="url(#p9479f5588b)" style="fill: none; stroke: #21a585; stroke-width: 1.5"/>
    <path d="M 632.390625 240.373346 
L 660.110625 240.373346 
" clip-path="url(#p9479f5588b)" style="fill: none; stroke: #26ad81; stroke-width: 1.5"/>
    <path d="M 632.390625 224.067463 
L 660.110625 224.067463 
" clip-path="url(#p9479f5588b)" style="fill: none; stroke: #2eb37c; stroke-width: 1.5"/>
    <path d="M 632.390625 207.761581 
L 660.110625 207.761581 
" clip-path="url(#p9479f5588b)" style="fill: none; stroke: #3aba76; stroke-width: 1.5"/>
    <path d="M 632.390625 191.455699 
L 660.110625 191.455699 
" clip-path="url(#p9479f5588b)" style="fill: none; stroke: #46c06f; stroke-width: 1.5"/>
    <path d="M 632.390625 175.149816 
L 660.110625 175.149816 
" clip-path="url(#p9479f5588b)" style="fill: none; stroke: #56c667; stroke-width: 1.5"/>
    <path d="M 632.390625 158.843934 
L 660.110625 158.843934 
" clip-path="url(#p9479f5588b)" style="fill: none; stroke: #65cb5e; stroke-width: 1.5"/>
    <path d="M 632.390625 142.538051 
L 660.110625 142.538051 
" clip-path="url(#p9479f5588b)" style="fill: none; stroke: #77d153; stroke-width: 1.5"/>
    <path d="M 632.390625 126.232169 
L 660.110625 126.232169 
" clip-path="url(#p9479f5588b)" style="fill: none; stroke: #89d548; stroke-width: 1.5"/>
    <path d="M 632.390625 109.926287 
L 660.110625 109.926287 
" clip-path="url(#p9479f5588b)" style="fill: none; stroke: #9dd93b; stroke-width: 1.5"/>
    <path d="M 632.390625 93.620404 
L 660.110625 93.620404 
" clip-path="url(#p9479f5588b)" style="fill: none; stroke: #b0dd2f; stroke-width: 1.5"/>
    <path d="M 632.390625 77.314522 
L 660.110625 77.314522 
" clip-path="url(#p9479f5588b)" style="fill: none; stroke: #c5e021; stroke-width: 1.5"/>
    <path d="M 632.390625 61.00864 
L 660.110625 61.00864 
" clip-path="url(#p9479f5588b)" style="fill: none; stroke: #d8e219; stroke-width: 1.5"/>
    <path d="M 632.390625 44.702757 
L 660.110625 44.702757 
" clip-path="url(#p9479f5588b)" style="fill: none; stroke: #ece51b; stroke-width: 1.5"/>
    <path d="M 632.390625 28.396875 
L 660.110625 28.396875 
" clip-path="url(#p9479f5588b)" style="fill: none; stroke: #fde725; stroke-width: 1.5"/>
   </g>
   <g id="patch_10">
    <path d="M 632.390625 582.796875 
L 646.250625 582.796875 
L 660.110625 582.796875 
L 660.110625 28.396875 
L 646.250625 28.396875 
L 632.390625 28.396875 
L 632.390625 582.796875 
z
" style="fill: none; stroke: #000000; stroke-width: 0.8; stroke-linejoin: miter; stroke-linecap: square"/>
   </g>
  </g>
 </g>
 <defs>
  <clipPath id="p8b24bd250a">
   <rect x="63.230625" y="28.396875" width="535.68" height="554.4"/>
  </clipPath>
  <clipPath id="pbebc265c74">
   <rect x="632.390625" y="28.396875" width="27.72" height="554.4"/>
  </clipPath>
  <clipPath id="p9479f5588b">
   <path d="M 632.390625 584.296875 
L 660.110625 584.296875 
L 660.110625 26.896875 
L 632.390625 26.896875 
z
"/>
  </clipPath>
 </defs>
</svg>
