<?xml version="1.0" encoding="utf-8" standalone="no"?>
<!DOCTYPE svg PUBLIC "-//W3C//DTD SVG 1.1//EN"
  "http://www.w3.org/Graphics/SVG/1.1/DTD/svg11.dtd">
<svg xmlns:xlink="http://www.w3.org/1999/xlink" width="704.84875pt" height="622.66pt" viewBox="0 0 704.84875 622.66" xmlns="http://www.w3.org/2000/svg" version="1.1">
 <metadata>
  <rdf:RDF xmlns:dc="http://purl.org/dc/elements/1.1/" xmlns:cc="http://creativecommons.org/ns#" xmlns:rdf="http://www.w3.org/1999/02/22-rdf-syntax-ns#">
   <cc:Work>
    <dc:type rdf:resource="http://purl.org/dc/dcmitype/StillImage"/>
    <dc:date>2025-02-12T11:01:18.968518</dc:date>
    <dc:format>image/svg+xml</dc:format>
    <dc:creator>
     <cc:Agent>
      <dc:title>Matplotlib v3.6.2, https://matplotlib.org/</dc:title>
     </cc:Agent>
    </dc:creator>
   </cc:Work>
  </rdf:RDF>
 </metadata>
 <defs>
  <style type="text/css">*{stroke-linejoin: round; stroke-linecap: butt}</style>
 </defs>
 <g id="figure_1">
  <g id="patch_1">
   <path d="M 0 622.66 
L 704.84875 622.66 
L 704.84875 0 
L 0 0 
z
" style="fill: #ffffff"/>
  </g>
  <g id="axes_1">
   <g id="patch_2">
    <path d="M 63.230625 582.796875 
L 598.910625 582.796875 
L 598.910625 28.396875 
L 63.230625 28.396875 
z
" style="fill: #ffffff"/>
   </g>
   <g id="matplotlib.axis_1">
    <g id="xtick_1">
     <g id="line2d_1">
      <defs>
       <path id="m3542d648c1" d="M 0 0 
L 0 -3.5 
" style="stroke: #000000; stroke-width: 0.8"/>
      </defs>
      <g>
       <use xlink:href="#m3542d648c1" x="63.230625" y="582.796875" style="stroke: #000000; stroke-width: 0.8"/>
      </g>
     </g>
     <g id="line2d_2">
      <defs>
       <path id="m4a3c6d3f75" d="M 0 0 
L 0 3.5 
" style="stroke: #000000; stroke-width: 0.8"/>
      </defs>
      <g>
       <use xlink:href="#m4a3c6d3f75" x="63.230625" y="28.396875" style="stroke: #000000; stroke-width: 0.8"/>
      </g>
     </g>
     <g id="text_1">
      <!-- −1.5 -->
      <g transform="translate(43.804375 598.454375) scale(0.16 -0.16)">
       <defs>
        <path id="DejaVuSans-2212" d="M 678 2272 
L 4684 2272 
L 4684 1741 
L 678 1741 
L 678 2272 
z
" transform="scale(0.015625)"/>
        <path id="DejaVuSans-31" d="M 794 531 
L 1825 531 
L 1825 4091 
L 703 3866 
L 703 4441 
L 1819 4666 
L 2450 4666 
L 2450 531 
L 3481 531 
L 3481 0 
L 794 0 
L 794 531 
z
" transform="scale(0.015625)"/>
        <path id="DejaVuSans-2e" d="M 684 794 
L 1344 794 
L 1344 0 
L 684 0 
L 684 794 
z
" transform="scale(0.015625)"/>
        <path id="DejaVuSans-35" d="M 691 4666 
L 3169 4666 
L 3169 4134 
L 1269 4134 
L 1269 2991 
Q 1406 3038 1543 3061 
Q 1681 3084 1819 3084 
Q 2600 3084 3056 2656 
Q 3513 2228 3513 1497 
Q 3513 744 3044 326 
Q 2575 -91 1722 -91 
Q 1428 -91 1123 -41 
Q 819 9 494 109 
L 494 744 
Q 775 591 1075 516 
Q 1375 441 1709 441 
Q 2250 441 2565 725 
Q 2881 1009 2881 1497 
Q 2881 1984 2565 2268 
Q 2250 2553 1709 2553 
Q 1456 2553 1204 2497 
Q 953 2441 691 2322 
L 691 4666 
z
" transform="scale(0.015625)"/>
       </defs>
       <use xlink:href="#DejaVuSans-2212"/>
       <use xlink:href="#DejaVuSans-31" x="83.789062"/>
       <use xlink:href="#DejaVuSans-2e" x="147.412109"/>
       <use xlink:href="#DejaVuSans-35" x="179.199219"/>
      </g>
     </g>
    </g>
    <g id="xtick_2">
     <g id="line2d_3">
      <g>
       <use xlink:href="#m3542d648c1" x="152.510625" y="582.796875" style="stroke: #000000; stroke-width: 0.8"/>
      </g>
     </g>
     <g id="line2d_4">
      <g>
       <use xlink:href="#m4a3c6d3f75" x="152.510625" y="28.396875" style="stroke: #000000; stroke-width: 0.8"/>
      </g>
     </g>
     <g id="text_2">
      <!-- −1.0 -->
      <g transform="translate(133.084375 598.454375) scale(0.16 -0.16)">
       <defs>
        <path id="DejaVuSans-30" d="M 2034 4250 
Q 1547 4250 1301 3770 
Q 1056 3291 1056 2328 
Q 1056 1369 1301 889 
Q 1547 409 2034 409 
Q 2525 409 2770 889 
Q 3016 1369 3016 2328 
Q 3016 3291 2770 3770 
Q 2525 4250 2034 4250 
z
M 2034 4750 
Q 2819 4750 3233 4129 
Q 3647 3509 3647 2328 
Q 3647 1150 3233 529 
Q 2819 -91 2034 -91 
Q 1250 -91 836 529 
Q 422 1150 422 2328 
Q 422 3509 836 4129 
Q 1250 4750 2034 4750 
z
" transform="scale(0.015625)"/>
       </defs>
       <use xlink:href="#DejaVuSans-2212"/>
       <use xlink:href="#DejaVuSans-31" x="83.789062"/>
       <use xlink:href="#DejaVuSans-2e" x="147.412109"/>
       <use xlink:href="#DejaVuSans-30" x="179.199219"/>
      </g>
     </g>
    </g>
    <g id="xtick_3">
     <g id="line2d_5">
      <g>
       <use xlink:href="#m3542d648c1" x="241.790625" y="582.796875" style="stroke: #000000; stroke-width: 0.8"/>
      </g>
     </g>
     <g id="line2d_6">
      <g>
       <use xlink:href="#m4a3c6d3f75" x="241.790625" y="28.396875" style="stroke: #000000; stroke-width: 0.8"/>
      </g>
     </g>
     <g id="text_3">
      <!-- −0.5 -->
      <g transform="translate(222.364375 598.454375) scale(0.16 -0.16)">
       <use xlink:href="#DejaVuSans-2212"/>
       <use xlink:href="#DejaVuSans-30" x="83.789062"/>
       <use xlink:href="#DejaVuSans-2e" x="147.412109"/>
       <use xlink:href="#DejaVuSans-35" x="179.199219"/>
      </g>
     </g>
    </g>
    <g id="xtick_4">
     <g id="line2d_7">
      <g>
       <use xlink:href="#m3542d648c1" x="331.070625" y="582.796875" style="stroke: #000000; stroke-width: 0.8"/>
      </g>
     </g>
     <g id="line2d_8">
      <g>
       <use xlink:href="#m4a3c6d3f75" x="331.070625" y="28.396875" style="stroke: #000000; stroke-width: 0.8"/>
      </g>
     </g>
     <g id="text_4">
      <!-- 0.0 -->
      <g transform="translate(318.348125 598.454375) scale(0.16 -0.16)">
       <use xlink:href="#DejaVuSans-30"/>
       <use xlink:href="#DejaVuSans-2e" x="63.623047"/>
       <use xlink:href="#DejaVuSans-30" x="95.410156"/>
      </g>
     </g>
    </g>
    <g id="xtick_5">
     <g id="line2d_9">
      <g>
       <use xlink:href="#m3542d648c1" x="420.350625" y="582.796875" style="stroke: #000000; stroke-width: 0.8"/>
      </g>
     </g>
     <g id="line2d_10">
      <g>
       <use xlink:href="#m4a3c6d3f75" x="420.350625" y="28.396875" style="stroke: #000000; stroke-width: 0.8"/>
      </g>
     </g>
     <g id="text_5">
      <!-- 0.5 -->
      <g transform="translate(407.628125 598.454375) scale(0.16 -0.16)">
       <use xlink:href="#DejaVuSans-30"/>
       <use xlink:href="#DejaVuSans-2e" x="63.623047"/>
       <use xlink:href="#DejaVuSans-35" x="95.410156"/>
      </g>
     </g>
    </g>
    <g id="xtick_6">
     <g id="line2d_11">
      <g>
       <use xlink:href="#m3542d648c1" x="509.630625" y="582.796875" style="stroke: #000000; stroke-width: 0.8"/>
      </g>
     </g>
     <g id="line2d_12">
      <g>
       <use xlink:href="#m4a3c6d3f75" x="509.630625" y="28.396875" style="stroke: #000000; stroke-width: 0.8"/>
      </g>
     </g>
     <g id="text_6">
      <!-- 1.0 -->
      <g transform="translate(496.908125 598.454375) scale(0.16 -0.16)">
       <use xlink:href="#DejaVuSans-31"/>
       <use xlink:href="#DejaVuSans-2e" x="63.623047"/>
       <use xlink:href="#DejaVuSans-30" x="95.410156"/>
      </g>
     </g>
    </g>
    <g id="xtick_7">
     <g id="line2d_13">
      <g>
       <use xlink:href="#m3542d648c1" x="598.910625" y="582.796875" style="stroke: #000000; stroke-width: 0.8"/>
      </g>
     </g>
     <g id="line2d_14">
      <g>
       <use xlink:href="#m4a3c6d3f75" x="598.910625" y="28.396875" style="stroke: #000000; stroke-width: 0.8"/>
      </g>
     </g>
     <g id="text_7">
      <!-- 1.5 -->
      <g transform="translate(586.188125 598.454375) scale(0.16 -0.16)">
       <use xlink:href="#DejaVuSans-31"/>
       <use xlink:href="#DejaVuSans-2e" x="63.623047"/>
       <use xlink:href="#DejaVuSans-35" x="95.410156"/>
      </g>
     </g>
    </g>
    <g id="text_8">
     <!-- Direction 1 -->
     <g transform="translate(303.715156 613.380313) scale(0.1 -0.1)">
      <defs>
       <path id="DejaVuSans-44" d="M 1259 4147 
L 1259 519 
L 2022 519 
Q 2988 519 3436 956 
Q 3884 1394 3884 2338 
Q 3884 3275 3436 3711 
Q 2988 4147 2022 4147 
L 1259 4147 
z
M 628 4666 
L 1925 4666 
Q 3281 4666 3915 4102 
Q 4550 3538 4550 2338 
Q 4550 1131 3912 565 
Q 3275 0 1925 0 
L 628 0 
L 628 4666 
z
" transform="scale(0.015625)"/>
       <path id="DejaVuSans-69" d="M 603 3500 
L 1178 3500 
L 1178 0 
L 603 0 
L 603 3500 
z
M 603 4863 
L 1178 4863 
L 1178 4134 
L 603 4134 
L 603 4863 
z
" transform="scale(0.015625)"/>
       <path id="DejaVuSans-72" d="M 2631 2963 
Q 2534 3019 2420 3045 
Q 2306 3072 2169 3072 
Q 1681 3072 1420 2755 
Q 1159 2438 1159 1844 
L 1159 0 
L 581 0 
L 581 3500 
L 1159 3500 
L 1159 2956 
Q 1341 3275 1631 3429 
Q 1922 3584 2338 3584 
Q 2397 3584 2469 3576 
Q 2541 3569 2628 3553 
L 2631 2963 
z
" transform="scale(0.015625)"/>
       <path id="DejaVuSans-65" d="M 3597 1894 
L 3597 1613 
L 953 1613 
Q 991 1019 1311 708 
Q 1631 397 2203 397 
Q 2534 397 2845 478 
Q 3156 559 3463 722 
L 3463 178 
Q 3153 47 2828 -22 
Q 2503 -91 2169 -91 
Q 1331 -91 842 396 
Q 353 884 353 1716 
Q 353 2575 817 3079 
Q 1281 3584 2069 3584 
Q 2775 3584 3186 3129 
Q 3597 2675 3597 1894 
z
M 3022 2063 
Q 3016 2534 2758 2815 
Q 2500 3097 2075 3097 
Q 1594 3097 1305 2825 
Q 1016 2553 972 2059 
L 3022 2063 
z
" transform="scale(0.015625)"/>
       <path id="DejaVuSans-63" d="M 3122 3366 
L 3122 2828 
Q 2878 2963 2633 3030 
Q 2388 3097 2138 3097 
Q 1578 3097 1268 2742 
Q 959 2388 959 1747 
Q 959 1106 1268 751 
Q 1578 397 2138 397 
Q 2388 397 2633 464 
Q 2878 531 3122 666 
L 3122 134 
Q 2881 22 2623 -34 
Q 2366 -91 2075 -91 
Q 1284 -91 818 406 
Q 353 903 353 1747 
Q 353 2603 823 3093 
Q 1294 3584 2113 3584 
Q 2378 3584 2631 3529 
Q 2884 3475 3122 3366 
z
" transform="scale(0.015625)"/>
       <path id="DejaVuSans-74" d="M 1172 4494 
L 1172 3500 
L 2356 3500 
L 2356 3053 
L 1172 3053 
L 1172 1153 
Q 1172 725 1289 603 
Q 1406 481 1766 481 
L 2356 481 
L 2356 0 
L 1766 0 
Q 1100 0 847 248 
Q 594 497 594 1153 
L 594 3053 
L 172 3053 
L 172 3500 
L 594 3500 
L 594 4494 
L 1172 4494 
z
" transform="scale(0.015625)"/>
       <path id="DejaVuSans-6f" d="M 1959 3097 
Q 1497 3097 1228 2736 
Q 959 2375 959 1747 
Q 959 1119 1226 758 
Q 1494 397 1959 397 
Q 2419 397 2687 759 
Q 2956 1122 2956 1747 
Q 2956 2369 2687 2733 
Q 2419 3097 1959 3097 
z
M 1959 3584 
Q 2709 3584 3137 3096 
Q 3566 2609 3566 1747 
Q 3566 888 3137 398 
Q 2709 -91 1959 -91 
Q 1206 -91 779 398 
Q 353 888 353 1747 
Q 353 2609 779 3096 
Q 1206 3584 1959 3584 
z
" transform="scale(0.015625)"/>
       <path id="DejaVuSans-6e" d="M 3513 2113 
L 3513 0 
L 2938 0 
L 2938 2094 
Q 2938 2591 2744 2837 
Q 2550 3084 2163 3084 
Q 1697 3084 1428 2787 
Q 1159 2491 1159 1978 
L 1159 0 
L 581 0 
L 581 3500 
L 1159 3500 
L 1159 2956 
Q 1366 3272 1645 3428 
Q 1925 3584 2291 3584 
Q 2894 3584 3203 3211 
Q 3513 2838 3513 2113 
z
" transform="scale(0.015625)"/>
       <path id="DejaVuSans-20" transform="scale(0.015625)"/>
      </defs>
      <use xlink:href="#DejaVuSans-44"/>
      <use xlink:href="#DejaVuSans-69" x="77.001953"/>
      <use xlink:href="#DejaVuSans-72" x="104.785156"/>
      <use xlink:href="#DejaVuSans-65" x="143.648438"/>
      <use xlink:href="#DejaVuSans-63" x="205.171875"/>
      <use xlink:href="#DejaVuSans-74" x="260.152344"/>
      <use xlink:href="#DejaVuSans-69" x="299.361328"/>
      <use xlink:href="#DejaVuSans-6f" x="327.144531"/>
      <use xlink:href="#DejaVuSans-6e" x="388.326172"/>
      <use xlink:href="#DejaVuSans-20" x="451.705078"/>
      <use xlink:href="#DejaVuSans-31" x="483.492188"/>
     </g>
    </g>
   </g>
   <g id="matplotlib.axis_2">
    <g id="ytick_1">
     <g id="line2d_15">
      <defs>
       <path id="m4041e0a5f2" d="M 0 0 
L 3.5 0 
" style="stroke: #000000; stroke-width: 0.8"/>
      </defs>
      <g>
       <use xlink:href="#m4041e0a5f2" x="63.230625" y="582.796875" style="stroke: #000000; stroke-width: 0.8"/>
      </g>
     </g>
     <g id="line2d_16">
      <defs>
       <path id="m4912041dc7" d="M 0 0 
L -3.5 0 
" style="stroke: #000000; stroke-width: 0.8"/>
      </defs>
      <g>
       <use xlink:href="#m4912041dc7" x="598.910625" y="582.796875" style="stroke: #000000; stroke-width: 0.8"/>
      </g>
     </g>
     <g id="text_9">
      <!-- −1.5 -->
      <g transform="translate(20.878125 588.875625) scale(0.16 -0.16)">
       <use xlink:href="#DejaVuSans-2212"/>
       <use xlink:href="#DejaVuSans-31" x="83.789062"/>
       <use xlink:href="#DejaVuSans-2e" x="147.412109"/>
       <use xlink:href="#DejaVuSans-35" x="179.199219"/>
      </g>
     </g>
    </g>
    <g id="ytick_2">
     <g id="line2d_17">
      <g>
       <use xlink:href="#m4041e0a5f2" x="63.230625" y="490.396875" style="stroke: #000000; stroke-width: 0.8"/>
      </g>
     </g>
     <g id="line2d_18">
      <g>
       <use xlink:href="#m4912041dc7" x="598.910625" y="490.396875" style="stroke: #000000; stroke-width: 0.8"/>
      </g>
     </g>
     <g id="text_10">
      <!-- −1.0 -->
      <g transform="translate(20.878125 496.475625) scale(0.16 -0.16)">
       <use xlink:href="#DejaVuSans-2212"/>
       <use xlink:href="#DejaVuSans-31" x="83.789062"/>
       <use xlink:href="#DejaVuSans-2e" x="147.412109"/>
       <use xlink:href="#DejaVuSans-30" x="179.199219"/>
      </g>
     </g>
    </g>
    <g id="ytick_3">
     <g id="line2d_19">
      <g>
       <use xlink:href="#m4041e0a5f2" x="63.230625" y="397.996875" style="stroke: #000000; stroke-width: 0.8"/>
      </g>
     </g>
     <g id="line2d_20">
      <g>
       <use xlink:href="#m4912041dc7" x="598.910625" y="397.996875" style="stroke: #000000; stroke-width: 0.8"/>
      </g>
     </g>
     <g id="text_11">
      <!-- −0.5 -->
      <g transform="translate(20.878125 404.075625) scale(0.16 -0.16)">
       <use xlink:href="#DejaVuSans-2212"/>
       <use xlink:href="#DejaVuSans-30" x="83.789062"/>
       <use xlink:href="#DejaVuSans-2e" x="147.412109"/>
       <use xlink:href="#DejaVuSans-35" x="179.199219"/>
      </g>
     </g>
    </g>
    <g id="ytick_4">
     <g id="line2d_21">
      <g>
       <use xlink:href="#m4041e0a5f2" x="63.230625" y="305.596875" style="stroke: #000000; stroke-width: 0.8"/>
      </g>
     </g>
     <g id="line2d_22">
      <g>
       <use xlink:href="#m4912041dc7" x="598.910625" y="305.596875" style="stroke: #000000; stroke-width: 0.8"/>
      </g>
     </g>
     <g id="text_12">
      <!-- 0.0 -->
      <g transform="translate(34.285625 311.675625) scale(0.16 -0.16)">
       <use xlink:href="#DejaVuSans-30"/>
       <use xlink:href="#DejaVuSans-2e" x="63.623047"/>
       <use xlink:href="#DejaVuSans-30" x="95.410156"/>
      </g>
     </g>
    </g>
    <g id="ytick_5">
     <g id="line2d_23">
      <g>
       <use xlink:href="#m4041e0a5f2" x="63.230625" y="213.196875" style="stroke: #000000; stroke-width: 0.8"/>
      </g>
     </g>
     <g id="line2d_24">
      <g>
       <use xlink:href="#m4912041dc7" x="598.910625" y="213.196875" style="stroke: #000000; stroke-width: 0.8"/>
      </g>
     </g>
     <g id="text_13">
      <!-- 0.5 -->
      <g transform="translate(34.285625 219.275625) scale(0.16 -0.16)">
       <use xlink:href="#DejaVuSans-30"/>
       <use xlink:href="#DejaVuSans-2e" x="63.623047"/>
       <use xlink:href="#DejaVuSans-35" x="95.410156"/>
      </g>
     </g>
    </g>
    <g id="ytick_6">
     <g id="line2d_25">
      <g>
       <use xlink:href="#m4041e0a5f2" x="63.230625" y="120.796875" style="stroke: #000000; stroke-width: 0.8"/>
      </g>
     </g>
     <g id="line2d_26">
      <g>
       <use xlink:href="#m4912041dc7" x="598.910625" y="120.796875" style="stroke: #000000; stroke-width: 0.8"/>
      </g>
     </g>
     <g id="text_14">
      <!-- 1.0 -->
      <g transform="translate(34.285625 126.875625) scale(0.16 -0.16)">
       <use xlink:href="#DejaVuSans-31"/>
       <use xlink:href="#DejaVuSans-2e" x="63.623047"/>
       <use xlink:href="#DejaVuSans-30" x="95.410156"/>
      </g>
     </g>
    </g>
    <g id="ytick_7">
     <g id="line2d_27">
      <g>
       <use xlink:href="#m4041e0a5f2" x="63.230625" y="28.396875" style="stroke: #000000; stroke-width: 0.8"/>
      </g>
     </g>
     <g id="line2d_28">
      <g>
       <use xlink:href="#m4912041dc7" x="598.910625" y="28.396875" style="stroke: #000000; stroke-width: 0.8"/>
      </g>
     </g>
     <g id="text_15">
      <!-- 1.5 -->
      <g transform="translate(34.285625 34.475625) scale(0.16 -0.16)">
       <use xlink:href="#DejaVuSans-31"/>
       <use xlink:href="#DejaVuSans-2e" x="63.623047"/>
       <use xlink:href="#DejaVuSans-35" x="95.410156"/>
      </g>
     </g>
    </g>
    <g id="text_16">
     <!-- Direction 2 -->
     <g transform="translate(14.798437 332.952344) rotate(-90) scale(0.1 -0.1)">
      <defs>
       <path id="DejaVuSans-32" d="M 1228 531 
L 3431 531 
L 3431 0 
L 469 0 
L 469 531 
Q 828 903 1448 1529 
Q 2069 2156 2228 2338 
Q 2531 2678 2651 2914 
Q 2772 3150 2772 3378 
Q 2772 3750 2511 3984 
Q 2250 4219 1831 4219 
Q 1534 4219 1204 4116 
Q 875 4013 500 3803 
L 500 4441 
Q 881 4594 1212 4672 
Q 1544 4750 1819 4750 
Q 2544 4750 2975 4387 
Q 3406 4025 3406 3419 
Q 3406 3131 3298 2873 
Q 3191 2616 2906 2266 
Q 2828 2175 2409 1742 
Q 1991 1309 1228 531 
z
" transform="scale(0.015625)"/>
      </defs>
      <use xlink:href="#DejaVuSans-44"/>
      <use xlink:href="#DejaVuSans-69" x="77.001953"/>
      <use xlink:href="#DejaVuSans-72" x="104.785156"/>
      <use xlink:href="#DejaVuSans-65" x="143.648438"/>
      <use xlink:href="#DejaVuSans-63" x="205.171875"/>
      <use xlink:href="#DejaVuSans-74" x="260.152344"/>
      <use xlink:href="#DejaVuSans-69" x="299.361328"/>
      <use xlink:href="#DejaVuSans-6f" x="327.144531"/>
      <use xlink:href="#DejaVuSans-6e" x="388.326172"/>
      <use xlink:href="#DejaVuSans-20" x="451.705078"/>
      <use xlink:href="#DejaVuSans-32" x="483.492188"/>
     </g>
    </g>
   </g>
   <g id="PathCollection_1"/>
   <g id="PathCollection_2">
    <path d="M 146.649446 582.796875 
L 150.688585 578.179513 
L 157.154889 571.482595 
L 161.620825 566.567578 
L 172.553075 567.189631 
L 179.320488 560.168314 
L 183.485325 555.703863 
L 194.417565 555.892193 
L 205.349805 555.892936 
L 216.282055 555.947666 
L 223.122241 548.854012 
L 227.214305 544.350926 
L 233.788825 537.539732 
L 238.146545 532.878313 
L 244.569655 526.225451 
L 249.07879 521.54219 
L 255.486905 514.911149 
L 260.011035 509.965229 
L 266.173041 503.596869 
L 270.94328 498.619642 
L 277.069618 492.282588 
L 281.875525 487.218815 
L 292.80777 488.009767 
L 299.635676 480.968308 
L 303.740015 476.3774 
L 310.261643 469.654017 
L 314.67226 464.806608 
L 320.939891 458.339725 
L 325.604505 453.158338 
L 331.561967 447.025445 
L 336.536745 441.916901 
L 347.46899 443.183312 
L 354.728146 435.711165 
L 358.401235 431.711424 
L 365.709343 424.396873 
L 364.647845 413.082582 
L 363.93362 401.768302 
L 363.191716 390.454016 
L 369.33348 386.405899 
L 376.775126 379.13973 
L 376.948669 367.825444 
L 377.243576 356.511158 
L 377.878209 345.196873 
L 378.289305 333.882587 
L 369.33348 325.107576 
L 365.815009 322.568301 
L 365.648752 311.254015 
L 366.906248 299.939735 
L 368.348195 288.625449 
L 358.401235 278.911398 
L 356.513809 277.311163 
L 347.46899 268.922364 
L 344.004058 265.996877 
L 345.370114 254.682592 
L 336.536745 245.783765 
L 334.202751 243.368306 
L 325.604505 234.839695 
L 314.67226 236.938435 
L 310.207301 232.05402 
L 311.813887 220.739734 
L 303.740015 212.431195 
L 292.80777 214.06268 
L 288.937777 209.425448 
L 281.875525 202.072164 
L 270.94328 203.053028 
L 266.616279 198.111168 
L 260.011035 191.231864 
L 256.182337 186.796877 
L 249.07879 179.415976 
L 238.146545 180.03816 
L 234.165871 175.482585 
L 227.214305 168.272364 
L 216.282055 168.314309 
L 205.349805 168.465793 
L 194.417565 169.538956 
L 189.819926 164.168305 
L 183.485325 157.583209 
L 179.394982 152.854025 
L 172.553075 145.734686 
L 161.620825 146.535517 
L 157.386401 141.539733 
L 150.688585 134.560398 
L 139.756345 135.175267 
L 135.604237 130.225442 
L 128.824106 123.153825 
L 117.891845 123.497377 
L 106.959605 123.75877 
L 103.039303 118.911162 
L 96.027365 111.593713 
L 85.095104 111.811214 
L 74.162865 111.967382 
L 63.230625 112.0392 
" clip-path="url(#pcda5d22f61)" style="fill: none; stroke: #460b5e; stroke-width: 1.5"/>
    <path d="M 63.230625 532.934871 
L 74.162865 533.01021 
L 85.095104 533.012215 
L 89.398994 537.539732 
L 89.251743 548.854012 
L 96.027365 555.869097 
L 100.141824 560.168314 
L 106.959605 567.24136 
L 111.100719 571.482595 
L 117.891845 578.527285 
L 128.824106 578.25436 
L 132.893713 582.796875 
" clip-path="url(#pcda5d22f61)" style="fill: none; stroke: #460b5e; stroke-width: 1.5"/>
    <path d="M 63.230625 227.638357 
L 67.304159 232.05402 
L 74.162865 239.174481 
L 85.095104 238.621127 
L 89.564047 243.368306 
L 96.027365 250.084821 
L 100.261564 254.682592 
L 106.959605 261.644829 
L 117.891845 260.9972 
L 122.178068 265.996877 
L 128.824106 272.915811 
L 139.756345 272.356541 
L 143.988607 277.311163 
L 150.688585 284.25876 
L 161.620825 283.930354 
L 172.553075 283.731423 
L 183.485325 283.515261 
L 194.417565 283.609229 
L 205.349805 283.739035 
L 216.282055 283.678706 
L 220.357988 288.625449 
L 220.405313 299.939735 
L 220.33398 311.254015 
L 216.282055 316.032639 
L 205.349805 315.585326 
L 194.417565 315.57337 
L 190.335905 311.254015 
L 183.485325 304.131658 
L 172.553075 304.06201 
L 165.610565 311.254015 
L 172.553075 318.431509 
L 183.485325 318.347876 
L 187.655052 322.568301 
L 183.485325 327.067875 
L 176.919863 333.882587 
L 172.553075 339.177582 
L 161.620825 338.848033 
L 150.688585 338.463109 
L 139.756345 338.239681 
L 128.824106 338.016277 
L 121.946046 345.196873 
L 117.891845 350.475355 
L 106.959605 350.091433 
L 96.027365 349.76165 
L 85.095104 349.42277 
L 78.296792 356.511158 
L 74.162865 361.709968 
L 63.230625 361.409344 
" clip-path="url(#pcda5d22f61)" style="fill: none; stroke: #460b5e; stroke-width: 1.5"/>
    <path d="M 217.037794 28.396875 
L 225.996373 39.711155 
L 227.214305 41.240139 
L 234.17877 51.025436 
L 238.146545 56.172596 
L 242.333684 62.339738 
L 249.07879 71.758358 
L 250.212334 73.654018 
L 257.255453 84.968299 
L 260.011035 89.17385 
L 263.925995 96.282601 
L 270.513495 107.596881 
L 270.94328 108.296303 
L 276.420924 118.911162 
L 281.875525 129.50547 
L 282.232742 130.225442 
L 287.981295 141.539733 
L 292.80777 150.750929 
L 293.964082 152.854025 
L 300.25325 164.168305 
L 303.740015 169.839011 
L 307.778022 175.482585 
L 314.67226 184.073964 
L 317.155326 186.796877 
L 325.604505 194.970667 
L 328.196721 198.111168 
L 336.536745 208.195186 
L 337.360997 209.425448 
L 343.781135 220.739734 
L 347.46899 228.365346 
L 349.460563 232.05402 
L 357.715908 243.368306 
L 358.401235 244.377419 
L 362.921266 254.682592 
L 365.056879 265.996877 
L 369.33348 276.107771 
L 370.044692 277.311163 
L 375.259028 288.625449 
L 380.23466 299.939735 
L 380.265725 299.990757 
L 388.784015 311.254015 
L 391.19797 316.434303 
L 393.935251 322.568301 
L 395.002397 333.882587 
L 396.348019 345.196873 
L 402.013171 356.511158 
L 402.130215 356.782244 
L 406.796168 367.825444 
L 411.912414 379.13973 
L 413.06246 384.223016 
L 414.326293 390.454016 
L 417.826067 401.768302 
L 422.041777 413.082582 
L 423.994705 417.982819 
L 426.478113 424.396873 
L 430.849093 435.711165 
L 434.714438 447.025445 
L 434.926945 447.854387 
L 437.53285 458.339725 
L 439.716503 469.654017 
L 441.928008 480.968308 
L 443.829151 492.282588 
L 444.266811 503.596869 
L 443.899785 514.911149 
L 443.968906 526.225451 
L 444.491646 537.539732 
L 444.191222 548.854012 
L 442.247445 560.168314 
L 438.418292 571.482595 
L 434.926945 578.302754 
L 431.373448 582.796875 
" clip-path="url(#pcda5d22f61)" style="fill: none; stroke: #460b5e; stroke-width: 1.5"/>
   </g>
   <g id="PathCollection_3">
    <path d="M 141.99718 582.796875 
L 150.688585 572.86125 
L 152.019765 571.482595 
L 150.688585 561.141866 
L 143.179591 560.168314 
L 139.756345 559.164724 
L 130.197305 548.854012 
L 128.824106 547.266697 
L 121.617381 537.539732 
L 117.891845 532.272232 
L 114.590248 526.225451 
L 112.768692 514.911149 
L 106.959605 505.030695 
L 96.027365 507.018994 
L 85.095104 510.16412 
L 74.162865 512.618079 
L 63.230625 513.339997 
" clip-path="url(#pcda5d22f61)" style="fill: none; stroke: #481769; stroke-width: 1.5"/>
    <path d="M 63.230625 527.765558 
L 74.162865 527.933283 
L 85.095104 527.944664 
L 94.216244 537.539732 
L 93.916039 548.854012 
L 96.027365 551.039956 
L 104.763432 560.168314 
L 106.959605 562.446714 
L 115.782181 571.482595 
L 117.891845 573.671029 
L 128.824106 573.084431 
L 137.525416 582.796875 
" clip-path="url(#pcda5d22f61)" style="fill: none; stroke: #481769; stroke-width: 1.5"/>
    <path d="M 63.230625 374.350085 
L 74.162865 369.480586 
L 77.241051 367.825444 
L 74.162865 367.654494 
L 63.230625 367.049575 
" clip-path="url(#pcda5d22f61)" style="fill: none; stroke: #481769; stroke-width: 1.5"/>
    <path d="M 63.230625 222.499675 
L 72.044692 232.05402 
L 74.162865 234.253031 
L 85.095104 233.118222 
L 95.276758 232.05402 
L 85.095104 222.79016 
L 82.11902 220.739734 
L 74.162865 212.530755 
L 71.474744 209.425448 
L 63.230625 201.826331 
" clip-path="url(#pcda5d22f61)" style="fill: none; stroke: #481769; stroke-width: 1.5"/>
    <path d="M 63.230625 127.334937 
L 74.162865 128.613867 
L 85.095104 128.992095 
L 95.610726 130.225442 
L 96.027365 130.290247 
L 106.959605 133.088282 
L 117.891845 135.781096 
L 128.824106 138.83596 
L 130.549629 130.225442 
L 128.824106 128.425737 
L 117.891845 129.145772 
L 106.959605 129.682976 
L 98.248348 118.911162 
L 96.027365 116.593411 
L 85.095104 117.046789 
L 74.162865 117.357865 
L 63.230625 117.47671 
" clip-path="url(#pcda5d22f61)" style="fill: none; stroke: #481769; stroke-width: 1.5"/>
    <path d="M 285.630616 28.396875 
L 291.224319 39.711155 
L 292.80777 43.04366 
L 296.942659 51.025436 
L 302.724307 62.339738 
L 303.740015 64.413144 
L 308.637152 73.654018 
L 314.67226 84.887044 
L 314.711246 84.968299 
L 319.975598 96.282601 
L 325.258557 107.596881 
L 325.604505 108.293936 
L 331.541476 118.911162 
L 336.536745 127.942072 
L 337.9843 130.225442 
L 345.872512 141.539733 
L 347.46899 143.695017 
L 355.348034 152.854025 
L 358.401235 156.043246 
L 367.301235 164.168305 
L 369.33348 165.803885 
L 380.099556 175.482585 
L 380.265725 175.69032 
L 386.452805 186.796877 
L 391.19797 196.579234 
L 391.748407 198.111168 
L 395.47871 209.425448 
L 399.437524 220.739734 
L 402.130215 229.442113 
L 402.943368 232.05402 
L 405.111673 243.368306 
L 411.922054 254.682592 
L 413.06246 257.895133 
L 415.007348 265.996877 
L 418.249679 277.311163 
L 422.41566 288.625449 
L 423.994705 292.699892 
L 426.868041 299.939735 
L 434.065993 311.254015 
L 434.926945 313.050524 
L 439.435695 322.568301 
L 443.472502 333.882587 
L 445.859195 339.597863 
L 448.194777 345.196873 
L 450.932204 356.511158 
L 453.637517 367.825444 
L 456.791445 375.660643 
L 458.150809 379.13973 
L 463.592466 390.454016 
L 467.723685 399.083941 
L 468.992766 401.768302 
L 473.877742 413.082582 
L 478.591746 424.396873 
L 478.655925 424.542417 
L 483.303985 435.711165 
L 488.260472 447.025445 
L 489.588175 450.355399 
L 492.66122 458.339725 
L 496.444869 469.654017 
L 499.861172 480.968308 
L 500.520425 483.831485 
L 502.490582 492.282588 
L 504.98799 503.596869 
L 507.603041 514.911149 
L 510.068104 526.225451 
L 511.452665 534.217166 
L 512.041281 537.539732 
L 513.916676 548.854012 
L 515.577494 560.168314 
L 516.962838 571.482595 
L 517.823089 582.796875 
" clip-path="url(#pcda5d22f61)" style="fill: none; stroke: #481769; stroke-width: 1.5"/>
    <path d="M 161.620825 560.916081 
L 172.553075 562.196312 
L 174.507736 560.168314 
L 183.485325 550.544887 
L 194.417565 550.905387 
L 205.349805 550.867187 
L 216.282055 550.939054 
L 218.292595 548.854012 
L 227.214305 539.036172 
L 228.658748 537.539732 
L 238.146545 527.390709 
L 239.271561 526.225451 
L 238.146545 516.443963 
L 227.214305 519.374524 
L 216.282055 519.083534 
L 205.349805 516.100236 
L 194.417565 524.310616 
L 192.620852 526.225451 
L 183.485325 535.272683 
L 181.228417 537.539732 
L 172.553075 545.95345 
L 169.17134 548.854012 
L 161.620825 555.408458 
L 152.391063 560.168314 
L 161.620825 560.916081 
z
" clip-path="url(#pcda5d22f61)" style="fill: none; stroke: #481769; stroke-width: 1.5"/>
    <path d="M 249.07879 516.039504 
L 250.169211 514.911149 
L 249.07879 506.87264 
L 239.672891 514.911149 
L 249.07879 516.039504 
z
" clip-path="url(#pcda5d22f61)" style="fill: none; stroke: #481769; stroke-width: 1.5"/>
    <path d="M 260.011035 504.15176 
L 260.547946 503.596869 
L 260.011035 500.154214 
L 254.181936 503.596869 
L 260.011035 504.15176 
z
" clip-path="url(#pcda5d22f61)" style="fill: none; stroke: #481769; stroke-width: 1.5"/>
    <path d="M 270.94328 492.750465 
L 271.395599 492.282588 
L 270.94328 490.127093 
L 268.018439 492.282588 
L 270.94328 492.750465 
z
" clip-path="url(#pcda5d22f61)" style="fill: none; stroke: #481769; stroke-width: 1.5"/>
    <path d="M 281.875525 481.24035 
L 292.80777 482.794099 
L 294.578188 480.968308 
L 292.80777 473.165819 
L 281.875525 479.906885 
L 280.580829 480.968308 
L 281.875525 481.24035 
z
" clip-path="url(#pcda5d22f61)" style="fill: none; stroke: #481769; stroke-width: 1.5"/>
    <path d="M 303.740015 470.720347 
L 304.774347 469.654017 
L 303.740015 465.598558 
L 297.785198 469.654017 
L 303.740015 470.720347 
z
" clip-path="url(#pcda5d22f61)" style="fill: none; stroke: #481769; stroke-width: 1.5"/>
    <path d="M 314.67226 458.775894 
L 315.09499 458.339725 
L 314.67226 456.600292 
L 312.74244 458.339725 
L 314.67226 458.775894 
z
" clip-path="url(#pcda5d22f61)" style="fill: none; stroke: #481769; stroke-width: 1.5"/>
    <path d="M 347.46899 437.945862 
L 349.639988 435.711165 
L 347.46899 428.456061 
L 337.511697 435.711165 
L 347.46899 437.945862 
z
" clip-path="url(#pcda5d22f61)" style="fill: none; stroke: #481769; stroke-width: 1.5"/>
    <path d="M 358.401235 426.17077 
L 360.17357 424.396873 
L 358.401235 416.217698 
L 352.138621 424.396873 
L 358.401235 426.17077 
z
" clip-path="url(#pcda5d22f61)" style="fill: none; stroke: #481769; stroke-width: 1.5"/>
    <path d="M 369.33348 380.57525 
L 370.803667 379.13973 
L 370.274035 367.825444 
L 370.192882 356.511158 
L 371.744833 345.196873 
L 372.199911 333.882587 
L 369.33348 331.074028 
L 364.295449 333.882587 
L 365.259306 345.196873 
L 367.30571 356.511158 
L 367.218637 367.825444 
L 365.952462 379.13973 
L 369.33348 380.57525 
z
" clip-path="url(#pcda5d22f61)" style="fill: none; stroke: #481769; stroke-width: 1.5"/>
    <path d="M 85.095104 366.202691 
L 96.027365 363.315887 
L 106.959605 360.164088 
L 117.891845 356.562191 
L 118.046732 356.511158 
L 117.891845 356.500189 
L 106.959605 355.71987 
L 96.027365 355.046332 
L 85.095104 354.351358 
L 83.023689 356.511158 
L 85.095104 366.202691 
z
" clip-path="url(#pcda5d22f61)" style="fill: none; stroke: #481769; stroke-width: 1.5"/>
    <path d="M 128.824106 354.173059 
L 139.756345 351.620852 
L 150.688585 349.747049 
L 161.620825 347.535056 
L 172.086786 345.196873 
L 161.620825 344.567971 
L 150.688585 343.763115 
L 139.756345 343.296975 
L 128.824106 342.847264 
L 126.573492 345.196873 
L 128.824106 354.173059 
z
" clip-path="url(#pcda5d22f61)" style="fill: none; stroke: #481769; stroke-width: 1.5"/>
    <path d="M 183.485325 341.029086 
L 194.417565 334.845682 
L 195.984978 333.882587 
L 205.349805 330.190443 
L 216.282055 325.746557 
L 223.841326 322.568301 
L 216.282055 321.550718 
L 205.349805 320.581925 
L 194.417565 320.536641 
L 192.453411 322.568301 
L 183.485325 332.24581 
L 181.908414 333.882587 
L 183.485325 341.029086 
z
" clip-path="url(#pcda5d22f61)" style="fill: none; stroke: #481769; stroke-width: 1.5"/>
    <path d="M 172.553075 313.635462 
L 183.485325 313.491176 
L 185.645763 311.254015 
L 183.485325 309.007868 
L 172.553075 308.867754 
L 170.249594 311.254015 
L 172.553075 313.635462 
z
" clip-path="url(#pcda5d22f61)" style="fill: none; stroke: #481769; stroke-width: 1.5"/>
    <path d="M 227.214305 320.884099 
L 236.149737 311.254015 
L 238.146545 303.572156 
L 239.793739 299.939735 
L 243.222328 288.625449 
L 238.146545 284.74345 
L 227.214305 278.847956 
L 225.116567 288.625449 
L 225.191171 299.939735 
L 225.012909 311.254015 
L 227.214305 320.884099 
z
" clip-path="url(#pcda5d22f61)" style="fill: none; stroke: #481769; stroke-width: 1.5"/>
    <path d="M 358.401235 298.920192 
L 361.69171 288.625449 
L 358.401235 285.412021 
L 352.825759 288.625449 
L 358.401235 298.920192 
z
" clip-path="url(#pcda5d22f61)" style="fill: none; stroke: #481769; stroke-width: 1.5"/>
    <path d="M 150.688585 279.091157 
L 161.620825 278.380456 
L 172.553075 277.952494 
L 183.485325 277.495578 
L 194.417565 277.714323 
L 205.349805 278.014268 
L 216.282055 277.903471 
L 222.806471 277.311163 
L 216.282055 275.204689 
L 205.349805 274.933182 
L 194.417565 275.888854 
L 183.485325 276.533292 
L 172.553075 274.490158 
L 161.620825 272.579484 
L 150.688585 268.809287 
L 148.972032 277.311163 
L 150.688585 279.091157 
z
" clip-path="url(#pcda5d22f61)" style="fill: none; stroke: #481769; stroke-width: 1.5"/>
    <path d="M 347.46899 280.416545 
L 348.846534 277.311163 
L 347.46899 276.033532 
L 344.825587 277.311163 
L 347.46899 280.416545 
z
" clip-path="url(#pcda5d22f61)" style="fill: none; stroke: #481769; stroke-width: 1.5"/>
    <path d="M 128.824106 267.69506 
L 139.756345 266.522548 
L 144.583844 265.996877 
L 139.756345 263.165717 
L 128.824106 257.735329 
L 127.192903 265.996877 
L 128.824106 267.69506 
z
" clip-path="url(#pcda5d22f61)" style="fill: none; stroke: #481769; stroke-width: 1.5"/>
    <path d="M 106.959605 256.491657 
L 117.891845 255.147632 
L 122.244098 254.682592 
L 117.891845 250.782516 
L 107.986902 243.368306 
L 106.959605 242.445067 
L 96.027365 232.669904 
L 94.744421 243.368306 
L 96.027365 244.701509 
L 105.219188 254.682592 
L 106.959605 256.491657 
z
" clip-path="url(#pcda5d22f61)" style="fill: none; stroke: #481769; stroke-width: 1.5"/>
    <path d="M 336.536745 263.710383 
L 339.268651 254.682592 
L 336.536745 251.930442 
L 329.791225 254.682592 
L 336.536745 263.710383 
z
" clip-path="url(#pcda5d22f61)" style="fill: none; stroke: #481769; stroke-width: 1.5"/>
    <path d="M 325.604505 250.349104 
L 328.263381 243.368306 
L 325.604505 240.730963 
L 317.631971 243.368306 
L 325.604505 250.349104 
z
" clip-path="url(#pcda5d22f61)" style="fill: none; stroke: #481769; stroke-width: 1.5"/>
    <path d="M 303.740015 230.376284 
L 306.336981 220.739734 
L 303.740015 218.067288 
L 293.578534 220.739734 
L 303.740015 230.376284 
z
" clip-path="url(#pcda5d22f61)" style="fill: none; stroke: #481769; stroke-width: 1.5"/>
    <path d="M 281.875525 213.842698 
L 283.157562 209.425448 
L 281.875525 208.090579 
L 273.021515 209.425448 
L 281.875525 213.842698 
z
" clip-path="url(#pcda5d22f61)" style="fill: none; stroke: #481769; stroke-width: 1.5"/>
    <path d="M 260.011035 200.958789 
L 260.730275 198.111168 
L 260.011035 197.362086 
L 254.164108 198.111168 
L 260.011035 200.958789 
z
" clip-path="url(#pcda5d22f61)" style="fill: none; stroke: #481769; stroke-width: 1.5"/>
    <path d="M 216.282055 187.345099 
L 227.214305 187.971489 
L 238.146545 190.92309 
L 249.07879 195.430391 
L 250.890154 186.796877 
L 249.07879 184.914789 
L 238.146545 186.034664 
L 228.926109 175.482585 
L 227.214305 173.707089 
L 216.282055 173.568254 
L 205.349805 173.77006 
L 196.671749 175.482585 
L 205.349805 181.282948 
L 215.53138 186.796877 
L 216.282055 187.345099 
z
" clip-path="url(#pcda5d22f61)" style="fill: none; stroke: #481769; stroke-width: 1.5"/>
    <path d="M 183.485325 166.970871 
L 184.266001 164.168305 
L 183.485325 163.356759 
L 179.077205 164.168305 
L 183.485325 166.970871 
z
" clip-path="url(#pcda5d22f61)" style="fill: none; stroke: #481769; stroke-width: 1.5"/>
    <path d="M 161.620825 153.904736 
L 172.553075 160.097164 
L 174.40135 152.854025 
L 172.553075 150.930804 
L 161.620825 152.607588 
L 159.67536 152.854025 
L 161.620825 153.904736 
z
" clip-path="url(#pcda5d22f61)" style="fill: none; stroke: #481769; stroke-width: 1.5"/>
    <path d="M 139.756345 143.215341 
L 150.688585 148.515021 
L 152.239717 141.539733 
L 150.688585 139.923405 
L 139.756345 141.200983 
L 135.995415 141.539733 
L 139.756345 143.215341 
z
" clip-path="url(#pcda5d22f61)" style="fill: none; stroke: #481769; stroke-width: 1.5"/>
   </g>
   <g id="PathCollection_4">
    <path d="M 337.98802 28.396875 
L 344.511898 39.711155 
L 347.46899 44.631574 
L 352.222899 51.025436 
L 358.401235 59.627454 
L 360.397633 62.339738 
L 368.778142 73.654018 
L 369.33348 74.41014 
L 378.07401 84.968299 
L 380.265725 87.450147 
L 389.19452 96.282601 
L 391.19797 98.090405 
L 401.476123 107.596881 
L 402.130215 108.266332 
L 409.501891 118.911162 
L 413.06246 125.401764 
L 415.054109 130.225442 
L 419.562822 141.539733 
L 422.642789 152.854025 
L 423.994705 160.672082 
L 424.52073 164.168305 
L 426.308772 175.482585 
L 429.838693 186.796877 
L 434.926945 197.119444 
L 435.388327 198.111168 
L 439.217003 209.425448 
L 443.836343 220.739734 
L 445.859195 225.026106 
L 448.979536 232.05402 
L 452.307697 243.368306 
L 455.648147 254.682592 
L 456.791445 261.550371 
L 457.500118 265.996877 
L 461.472021 277.311163 
L 465.732634 288.625449 
L 467.723685 292.066401 
L 472.244392 299.939735 
L 478.655925 310.283237 
L 479.262087 311.254015 
L 484.60196 322.568301 
L 488.244008 333.882587 
L 489.588175 337.570959 
L 492.288131 345.196873 
L 496.582307 356.511158 
L 500.520425 367.467144 
L 500.653027 367.825444 
L 504.501565 379.13973 
L 508.995135 390.454016 
L 511.452665 395.628656 
L 514.246065 401.768302 
L 519.693504 413.082582 
L 522.384905 418.420364 
L 525.317808 424.396873 
L 530.89321 435.711165 
L 533.317144 440.746869 
L 536.392099 447.025445 
L 541.587829 458.339725 
L 544.249405 463.834375 
L 547.021159 469.654017 
L 552.043737 480.968308 
L 555.181645 488.172922 
L 556.948226 492.282588 
L 561.444489 503.596869 
L 565.704815 514.911149 
L 566.113885 516.301718 
L 568.976623 526.225451 
L 571.949206 537.539732 
L 574.623602 548.854012 
L 576.889107 560.168314 
L 577.046146 561.24085 
L 578.522383 571.482595 
L 579.598865 582.796875 
" clip-path="url(#pcda5d22f61)" style="fill: none; stroke: #482071; stroke-width: 1.5"/>
   </g>
   <g id="PathCollection_5">
    <path d="M 402.166471 28.396875 
L 413.06246 39.696177 
L 413.076634 39.711155 
L 423.994705 51.024808 
L 423.995295 51.025436 
L 424.095032 62.339738 
L 434.926945 73.578972 
L 434.997083 73.654018 
L 435.067905 84.968299 
L 445.859195 96.235324 
L 445.903319 96.282601 
L 445.964815 107.596881 
L 446.017423 118.911162 
L 446.057823 130.225442 
L 456.791445 141.514462 
L 456.81516 141.539733 
L 456.852349 152.854025 
L 456.909255 164.168305 
L 467.723685 175.456828 
L 467.747991 175.482585 
L 467.821981 186.796877 
L 478.655925 198.097319 
L 478.668981 198.111168 
L 478.752967 209.425448 
L 478.82362 220.739734 
L 489.588175 232.027603 
L 489.612634 232.05402 
L 489.648947 243.368306 
L 489.708838 254.682592 
L 489.773136 265.996877 
L 500.520425 277.251382 
L 500.576355 277.311163 
L 500.673648 288.625449 
L 511.452665 299.837746 
L 511.548054 299.939735 
L 522.384905 311.213255 
L 522.422954 311.254015 
L 522.503874 322.568301 
L 533.317144 333.877531 
L 533.321856 333.882587 
L 533.375472 345.196873 
L 533.44303 356.511158 
L 544.249405 367.807555 
L 544.266074 367.825444 
L 544.334175 379.13973 
L 544.407912 390.454016 
L 555.181645 401.707275 
L 555.238576 401.768302 
L 555.322783 413.082582 
L 566.113885 424.355109 
L 566.152886 424.396873 
L 566.239853 435.711165 
L 577.046146 446.992248 
L 577.077162 447.025445 
L 577.174303 458.339725 
L 587.978385 469.616704 
L 588.013253 469.654017 
L 588.095896 480.968308 
L 598.910625 492.260696 
" clip-path="url(#pcda5d22f61)" style="fill: none; stroke: #472a7a; stroke-width: 1.5"/>
   </g>
   <g id="PathCollection_6">
    <path d="M 402.869844 28.396875 
L 413.06246 38.966768 
L 413.766877 39.711155 
L 423.994705 50.309557 
L 424.668443 51.025436 
L 424.778736 62.339738 
L 434.926945 72.869559 
L 435.660109 73.654018 
L 435.740873 84.968299 
L 445.859195 95.532688 
L 446.559103 96.282601 
L 446.630877 107.596881 
L 446.695879 118.911162 
L 446.750439 130.225442 
L 456.791445 140.786008 
L 457.498745 141.539733 
L 457.553761 152.854025 
L 457.628048 164.168305 
L 467.723685 174.706523 
L 468.456015 175.482585 
L 468.545614 186.796877 
L 478.655925 197.342527 
L 479.380595 198.111168 
L 479.476079 209.425448 
L 479.556645 220.739734 
L 489.588175 231.258943 
L 490.324343 232.05402 
L 490.371889 243.368306 
L 490.44468 254.682592 
L 490.523042 265.996877 
L 500.520425 276.466084 
L 501.311049 277.311163 
L 501.420344 288.625449 
L 511.452665 299.061035 
L 512.274497 299.939735 
L 522.384905 310.45754 
L 523.128407 311.254015 
L 523.219061 322.568301 
L 533.317144 333.12954 
L 534.018838 333.882587 
L 534.086069 345.196873 
L 534.165112 356.511158 
L 544.249405 367.05273 
L 544.969427 367.825444 
L 545.047802 379.13973 
L 545.131585 390.454016 
L 555.181645 400.951392 
L 555.943728 401.768302 
L 556.038888 413.082582 
L 566.113885 423.607057 
L 566.851453 424.396873 
L 566.948742 435.711165 
L 577.046146 446.252213 
L 577.76858 447.025445 
L 577.875678 458.339725 
L 587.978385 468.884629 
L 588.697341 469.654017 
L 588.789709 480.968308 
L 598.910625 491.53624 
" clip-path="url(#pcda5d22f61)" style="fill: none; stroke: #46337f; stroke-width: 1.5"/>
   </g>
   <g id="PathCollection_7">
    <path d="M 403.573217 28.396875 
L 413.06246 38.23736 
L 414.457119 39.711155 
L 423.994705 49.594306 
L 425.341591 51.025436 
L 425.462439 62.339738 
L 434.926945 72.160146 
L 436.323135 73.654018 
L 436.413841 84.968299 
L 445.859195 94.830052 
L 447.214887 96.282601 
L 447.296939 107.596881 
L 447.374335 118.911162 
L 447.443054 130.225442 
L 456.791445 140.057554 
L 458.182331 141.539733 
L 458.255174 152.854025 
L 458.346842 164.168305 
L 467.723685 173.956218 
L 469.164039 175.482585 
L 469.269247 186.796877 
L 478.655925 196.587735 
L 480.09221 198.111168 
L 480.199192 209.425448 
L 480.28967 220.739734 
L 489.588175 230.490282 
L 491.036052 232.05402 
L 491.094831 243.368306 
L 491.180522 254.682592 
L 491.272949 265.996877 
L 500.520425 275.680786 
L 502.045744 277.311163 
L 502.16704 288.625449 
L 511.452665 298.284324 
L 513.00094 299.939735 
L 522.384905 309.701825 
L 523.83386 311.254015 
L 523.934249 322.568301 
L 533.317144 332.38155 
L 534.715821 333.882587 
L 534.796666 345.196873 
L 534.887193 356.511158 
L 544.249405 366.297905 
L 545.672781 367.825444 
L 545.76143 379.13973 
L 545.855259 390.454016 
L 555.181645 400.195508 
L 556.648881 401.768302 
L 556.754993 413.082582 
L 566.113885 422.859004 
L 567.550021 424.396873 
L 567.657631 435.711165 
L 577.046146 445.512177 
L 578.459998 447.025445 
L 578.577053 458.339725 
L 587.978385 468.152555 
L 589.381429 469.654017 
L 589.483522 480.968308 
L 598.910625 490.811783 
" clip-path="url(#pcda5d22f61)" style="fill: none; stroke: #433d84; stroke-width: 1.5"/>
   </g>
   <g id="PathCollection_8">
    <path d="M 404.27659 28.396875 
L 413.06246 37.507952 
L 415.147362 39.711155 
L 423.994705 48.879055 
L 426.014739 51.025436 
L 426.146142 62.339738 
L 434.926945 71.450733 
L 436.986161 73.654018 
L 437.086809 84.968299 
L 445.859195 94.127416 
L 447.870671 96.282601 
L 447.963 107.596881 
L 448.052791 118.911162 
L 448.135669 130.225442 
L 456.791445 139.3291 
L 458.865916 141.539733 
L 458.956586 152.854025 
L 459.065636 164.168305 
L 467.723685 173.205913 
L 469.872063 175.482585 
L 469.992881 186.796877 
L 478.655925 195.832943 
L 480.803824 198.111168 
L 480.922305 209.425448 
L 481.022694 220.739734 
L 489.588175 229.721622 
L 491.747761 232.05402 
L 491.817773 243.368306 
L 491.916363 254.682592 
L 492.022855 265.996877 
L 500.520425 274.895488 
L 502.780439 277.311163 
L 502.913736 288.625449 
L 511.452665 297.507614 
L 513.727383 299.939735 
L 522.384905 308.94611 
L 524.539313 311.254015 
L 524.649437 322.568301 
L 533.317144 331.633559 
L 535.412804 333.882587 
L 535.507263 345.196873 
L 535.609275 356.511158 
L 544.249405 365.54308 
L 546.376134 367.825444 
L 546.475057 379.13973 
L 546.578933 390.454016 
L 555.181645 399.439625 
L 557.354033 401.768302 
L 557.471098 413.082582 
L 566.113885 422.110951 
L 568.248589 424.396873 
L 568.36652 435.711165 
L 577.046146 444.772142 
L 579.151416 447.025445 
L 579.278428 458.339725 
L 587.978385 467.420481 
L 590.065516 469.654017 
L 590.177334 480.968308 
L 598.910625 490.087327 
" clip-path="url(#pcda5d22f61)" style="fill: none; stroke: #404588; stroke-width: 1.5"/>
   </g>
   <g id="PathCollection_9">
    <path d="M 404.979963 28.396875 
L 413.06246 36.778544 
L 415.837604 39.711155 
L 423.994705 48.163803 
L 426.687887 51.025436 
L 426.829845 62.339738 
L 434.926945 70.74132 
L 437.649186 73.654018 
L 437.759777 84.968299 
L 445.859195 93.42478 
L 448.526455 96.282601 
L 448.629062 107.596881 
L 448.731247 118.911162 
L 448.828285 130.225442 
L 456.791445 138.600646 
L 459.549501 141.539733 
L 459.657999 152.854025 
L 459.784429 164.168305 
L 467.723685 172.455609 
L 470.580087 175.482585 
L 470.716514 186.796877 
L 478.655925 195.078151 
L 481.515438 198.111168 
L 481.645417 209.425448 
L 481.755719 220.739734 
L 489.588175 228.952961 
L 492.45947 232.05402 
L 492.540716 243.368306 
L 492.652205 254.682592 
L 492.772762 265.996877 
L 500.520425 274.110189 
L 503.515134 277.311163 
L 503.660432 288.625449 
L 511.452665 296.730903 
L 514.453826 299.939735 
L 522.384905 308.190395 
L 525.244766 311.254015 
L 525.364625 322.568301 
L 533.317144 330.885569 
L 536.109786 333.882587 
L 536.21786 345.196873 
L 536.331357 356.511158 
L 544.249405 364.788255 
L 547.079487 367.825444 
L 547.188685 379.13973 
L 547.302606 390.454016 
L 555.181645 398.683742 
L 558.059185 401.768302 
L 558.187203 413.082582 
L 566.113885 421.362899 
L 568.947156 424.396873 
L 569.07541 435.711165 
L 577.046146 444.032107 
L 579.842834 447.025445 
L 579.979803 458.339725 
L 587.978385 466.688406 
L 590.749604 469.654017 
L 590.871147 480.968308 
L 598.910625 489.36287 
" clip-path="url(#pcda5d22f61)" style="fill: none; stroke: #3d4e8a; stroke-width: 1.5"/>
   </g>
   <g id="PathCollection_10">
    <path d="M 405.683336 28.396875 
L 413.06246 36.049135 
L 416.527846 39.711155 
L 423.994705 47.448552 
L 427.361036 51.025436 
L 427.513549 62.339738 
L 434.926945 70.031907 
L 438.312212 73.654018 
L 438.432745 84.968299 
L 445.859195 92.722144 
L 449.182239 96.282601 
L 449.295124 107.596881 
L 449.409703 118.911162 
L 449.5209 130.225442 
L 456.791445 137.872192 
L 460.233086 141.539733 
L 460.359411 152.854025 
L 460.503223 164.168305 
L 467.723685 171.705304 
L 471.28811 175.482585 
L 471.440147 186.796877 
L 478.655925 194.323358 
L 482.227052 198.111168 
L 482.36853 209.425448 
L 482.488744 220.739734 
L 489.588175 228.184301 
L 493.171178 232.05402 
L 493.263658 243.368306 
L 493.388046 254.682592 
L 493.522668 265.996877 
L 500.520425 273.324891 
L 504.249829 277.311163 
L 504.407128 288.625449 
L 511.452665 295.954192 
L 515.180269 299.939735 
L 522.384905 307.43468 
L 525.950219 311.254015 
L 526.079813 322.568301 
L 533.317144 330.137579 
L 536.806769 333.882587 
L 536.928458 345.196873 
L 537.053439 356.511158 
L 544.249405 364.03343 
L 547.78284 367.825444 
L 547.902312 379.13973 
L 548.02628 390.454016 
L 555.181645 397.927858 
L 558.764338 401.768302 
L 558.903308 413.082582 
L 566.113885 420.614846 
L 569.645724 424.396873 
L 569.784299 435.711165 
L 577.046146 443.292071 
L 580.534252 447.025445 
L 580.681178 458.339725 
L 587.978385 465.956332 
L 591.433692 469.654017 
L 591.564959 480.968308 
L 598.910625 488.638414 
" clip-path="url(#pcda5d22f61)" style="fill: none; stroke: #39558c; stroke-width: 1.5"/>
   </g>
   <g id="PathCollection_11">
    <path d="M 406.386709 28.396875 
L 413.06246 35.319727 
L 417.218089 39.711155 
L 423.994705 46.733301 
L 428.034184 51.025436 
L 428.197252 62.339738 
L 434.926945 69.322493 
L 438.975238 73.654018 
L 439.105713 84.968299 
L 445.859195 92.019509 
L 449.838023 96.282601 
L 449.961186 107.596881 
L 450.088159 118.911162 
L 450.213516 130.225442 
L 456.791445 137.143738 
L 460.916671 141.539733 
L 461.060823 152.854025 
L 461.222017 164.168305 
L 467.723685 170.954999 
L 471.996134 175.482585 
L 472.16378 186.796877 
L 478.655925 193.568566 
L 482.938666 198.111168 
L 483.091643 209.425448 
L 483.221769 220.739734 
L 489.588175 227.41564 
L 493.882887 232.05402 
L 493.9866 243.368306 
L 494.123888 254.682592 
L 494.272575 265.996877 
L 500.520425 272.539593 
L 504.984523 277.311163 
L 505.153824 288.625449 
L 511.452665 295.177482 
L 515.906712 299.939735 
L 522.384905 306.678965 
L 526.655672 311.254015 
L 526.795001 322.568301 
L 533.317144 329.389588 
L 537.503752 333.882587 
L 537.639055 345.196873 
L 537.775521 356.511158 
L 544.249405 363.278605 
L 548.486193 367.825444 
L 548.61594 379.13973 
L 548.749953 390.454016 
L 555.181645 397.171975 
L 559.46949 401.768302 
L 559.619413 413.082582 
L 566.113885 419.866793 
L 570.344292 424.396873 
L 570.493188 435.711165 
L 577.046146 442.552036 
L 581.225671 447.025445 
L 581.382553 458.339725 
L 587.978385 465.224258 
L 592.11778 469.654017 
L 592.258772 480.968308 
L 598.910625 487.913957 
" clip-path="url(#pcda5d22f61)" style="fill: none; stroke: #355e8d; stroke-width: 1.5"/>
   </g>
   <g id="PathCollection_12">
    <path d="M 407.090082 28.396875 
L 413.06246 34.590319 
L 417.908331 39.711155 
L 423.994705 46.01805 
L 428.707332 51.025436 
L 428.880955 62.339738 
L 434.926945 68.61308 
L 439.638264 73.654018 
L 439.778681 84.968299 
L 445.859195 91.316873 
L 450.493807 96.282601 
L 450.627248 107.596881 
L 450.766615 118.911162 
L 450.906131 130.225442 
L 456.791445 136.415284 
L 461.600256 141.539733 
L 461.762236 152.854025 
L 461.94081 164.168305 
L 467.723685 170.204694 
L 472.704158 175.482585 
L 472.887413 186.796877 
L 478.655925 192.813774 
L 483.65028 198.111168 
L 483.814755 209.425448 
L 483.954794 220.739734 
L 489.588175 226.646979 
L 494.594596 232.05402 
L 494.709542 243.368306 
L 494.85973 254.682592 
L 495.022481 265.996877 
L 500.520425 271.754295 
L 505.719218 277.311163 
L 505.90052 288.625449 
L 511.452665 294.400771 
L 516.633155 299.939735 
L 522.384905 305.92325 
L 527.361125 311.254015 
L 527.510188 322.568301 
L 533.317144 328.641598 
L 538.200734 333.882587 
L 538.349652 345.196873 
L 538.497602 356.511158 
L 544.249405 362.52378 
L 549.189546 367.825444 
L 549.329567 379.13973 
L 549.473627 390.454016 
L 555.181645 396.416091 
L 560.174643 401.768302 
L 560.335518 413.082582 
L 566.113885 419.118741 
L 571.042859 424.396873 
L 571.202078 435.711165 
L 577.046146 441.812001 
L 581.917089 447.025445 
L 582.083928 458.339725 
L 587.978385 464.492183 
L 592.801868 469.654017 
L 592.952584 480.968308 
L 598.910625 487.189501 
" clip-path="url(#pcda5d22f61)" style="fill: none; stroke: #32658e; stroke-width: 1.5"/>
   </g>
   <g id="PathCollection_13">
    <path d="M 407.793455 28.396875 
L 413.06246 33.860911 
L 418.598574 39.711155 
L 423.994705 45.302799 
L 429.38048 51.025436 
L 429.564658 62.339738 
L 434.926945 67.903667 
L 440.301289 73.654018 
L 440.451649 84.968299 
L 445.859195 90.614237 
L 451.149591 96.282601 
L 451.29331 107.596881 
L 451.445071 118.911162 
L 451.598747 130.225442 
L 456.791445 135.68683 
L 462.283842 141.539733 
L 462.463648 152.854025 
L 462.659604 164.168305 
L 467.723685 169.45439 
L 473.412182 175.482585 
L 473.611047 186.796877 
L 478.655925 192.058982 
L 484.361895 198.111168 
L 484.537868 209.425448 
L 484.687819 220.739734 
L 489.588175 225.878319 
L 495.306305 232.05402 
L 495.432484 243.368306 
L 495.595571 254.682592 
L 495.772388 265.996877 
L 500.520425 270.968997 
L 506.453913 277.311163 
L 506.647216 288.625449 
L 511.452665 293.62406 
L 517.359598 299.939735 
L 522.384905 305.167535 
L 528.066578 311.254015 
L 528.225376 322.568301 
L 533.317144 327.893607 
L 538.897717 333.882587 
L 539.060249 345.196873 
L 539.219684 356.511158 
L 544.249405 361.768955 
L 549.892899 367.825444 
L 550.043194 379.13973 
L 550.1973 390.454016 
L 555.181645 395.660208 
L 560.879795 401.768302 
L 561.051623 413.082582 
L 566.113885 418.370688 
L 571.741427 424.396873 
L 571.910967 435.711165 
L 577.046146 441.071965 
L 582.608507 447.025445 
L 582.785303 458.339725 
L 587.978385 463.760109 
L 593.485956 469.654017 
L 593.646397 480.968308 
L 598.910625 486.465044 
" clip-path="url(#pcda5d22f61)" style="fill: none; stroke: #2e6d8e; stroke-width: 1.5"/>
   </g>
   <g id="PathCollection_14">
    <path d="M 408.496828 28.396875 
L 413.06246 33.131502 
L 419.288816 39.711155 
L 423.994705 44.587548 
L 430.053628 51.025436 
L 430.248362 62.339738 
L 434.926945 67.194254 
L 440.964315 73.654018 
L 441.124617 84.968299 
L 445.859195 89.911601 
L 451.805375 96.282601 
L 451.959372 107.596881 
L 452.123527 118.911162 
L 452.291362 130.225442 
L 456.791445 134.958376 
L 462.967427 141.539733 
L 463.165061 152.854025 
L 463.378398 164.168305 
L 467.723685 168.704085 
L 474.120206 175.482585 
L 474.33468 186.796877 
L 478.655925 191.30419 
L 485.073509 198.111168 
L 485.260981 209.425448 
L 485.420844 220.739734 
L 489.588175 225.109658 
L 496.018014 232.05402 
L 496.155426 243.368306 
L 496.331413 254.682592 
L 496.522294 265.996877 
L 500.520425 270.183699 
L 507.188608 277.311163 
L 507.393912 288.625449 
L 511.452665 292.84735 
L 518.086041 299.939735 
L 522.384905 304.41182 
L 528.77203 311.254015 
L 528.940564 322.568301 
L 533.317144 327.145617 
L 539.5947 333.882587 
L 539.770846 345.196873 
L 539.941766 356.511158 
L 544.249405 361.01413 
L 550.596252 367.825444 
L 550.756822 379.13973 
L 550.920974 390.454016 
L 555.181645 394.904325 
L 561.584947 401.768302 
L 561.767728 413.082582 
L 566.113885 417.622635 
L 572.439995 424.396873 
L 572.619856 435.711165 
L 577.046146 440.33193 
L 583.299925 447.025445 
L 583.486678 458.339725 
L 587.978385 463.028035 
L 594.170044 469.654017 
L 594.340209 480.968308 
L 598.910625 485.740588 
" clip-path="url(#pcda5d22f61)" style="fill: none; stroke: #2c738e; stroke-width: 1.5"/>
   </g>
   <g id="PathCollection_15">
    <path d="M 409.200201 28.396875 
L 413.06246 32.402094 
L 419.979058 39.711155 
L 423.994705 43.872296 
L 430.726776 51.025436 
L 430.932065 62.339738 
L 434.926945 66.484841 
L 441.627341 73.654018 
L 441.797585 84.968299 
L 445.859195 89.208965 
L 452.461159 96.282601 
L 452.625433 107.596881 
L 452.801983 118.911162 
L 452.983977 130.225442 
L 456.791445 134.229922 
L 463.651012 141.539733 
L 463.866473 152.854025 
L 464.097191 164.168305 
L 467.723685 167.95378 
L 474.82823 175.482585 
L 475.058313 186.796877 
L 478.655925 190.549398 
L 485.785123 198.111168 
L 485.984094 209.425448 
L 486.153869 220.739734 
L 489.588175 224.340998 
L 496.729723 232.05402 
L 496.878368 243.368306 
L 497.067255 254.682592 
L 497.2722 265.996877 
L 500.520425 269.398401 
L 507.923303 277.311163 
L 508.140608 288.625449 
L 511.452665 292.070639 
L 518.812484 299.939735 
L 522.384905 303.656105 
L 529.477483 311.254015 
L 529.655752 322.568301 
L 533.317144 326.397626 
L 540.291683 333.882587 
L 540.481443 345.196873 
L 540.663848 356.511158 
L 544.249405 360.259305 
L 551.299605 367.825444 
L 551.470449 379.13973 
L 551.644647 390.454016 
L 555.181645 394.148441 
L 562.2901 401.768302 
L 562.483833 413.082582 
L 566.113885 416.874583 
L 573.138562 424.396873 
L 573.328745 435.711165 
L 577.046146 439.591894 
L 583.991343 447.025445 
L 584.188053 458.339725 
L 587.978385 462.295961 
L 594.854132 469.654017 
L 595.034022 480.968308 
L 598.910625 485.016131 
" clip-path="url(#pcda5d22f61)" style="fill: none; stroke: #297b8e; stroke-width: 1.5"/>
   </g>
   <g id="PathCollection_16">
    <path d="M 409.903574 28.396875 
L 413.06246 31.672686 
L 420.669301 39.711155 
L 423.994705 43.157045 
L 431.399924 51.025436 
L 431.615768 62.339738 
L 434.926945 65.775428 
L 442.290367 73.654018 
L 442.470553 84.968299 
L 445.859195 88.506329 
L 453.116942 96.282601 
L 453.291495 107.596881 
L 453.480439 118.911162 
L 453.676593 130.225442 
L 456.791445 133.501469 
L 464.334597 141.539733 
L 464.567886 152.854025 
L 464.815985 164.168305 
L 467.723685 167.203475 
L 475.536254 175.482585 
L 475.781946 186.796877 
L 478.655925 189.794606 
L 486.496737 198.111168 
L 486.707206 209.425448 
L 486.886893 220.739734 
L 489.588175 223.572337 
L 497.441432 232.05402 
L 497.60131 243.368306 
L 497.803096 254.682592 
L 498.022107 265.996877 
L 500.520425 268.613103 
L 508.657997 277.311163 
L 508.887304 288.625449 
L 511.452665 291.293928 
L 519.538927 299.939735 
L 522.384905 302.90039 
L 530.182936 311.254015 
L 530.37094 322.568301 
L 533.317144 325.649636 
L 540.988665 333.882587 
L 541.19204 345.196873 
L 541.385929 356.511158 
L 544.249405 359.50448 
L 552.002958 367.825444 
L 552.184077 379.13973 
L 552.368321 390.454016 
L 555.181645 393.392558 
L 562.995252 401.768302 
L 563.199937 413.082582 
L 566.113885 416.12653 
L 573.83713 424.396873 
L 574.037635 435.711165 
L 577.046146 438.851859 
L 584.682761 447.025445 
L 584.889428 458.339725 
L 587.978385 461.563886 
L 595.53822 469.654017 
L 595.727834 480.968308 
L 598.910625 484.291675 
" clip-path="url(#pcda5d22f61)" style="fill: none; stroke: #26828e; stroke-width: 1.5"/>
   </g>
   <g id="PathCollection_17">
    <path d="M 410.606947 28.396875 
L 413.06246 30.943278 
L 421.359543 39.711155 
L 423.994705 42.441794 
L 432.073072 51.025436 
L 432.299471 62.339738 
L 434.926945 65.066014 
L 442.953392 73.654018 
L 443.143521 84.968299 
L 445.859195 87.803693 
L 453.772726 96.282601 
L 453.957557 107.596881 
L 454.158895 118.911162 
L 454.369208 130.225442 
L 456.791445 132.773015 
L 465.018182 141.539733 
L 465.269298 152.854025 
L 465.534779 164.168305 
L 467.723685 166.45317 
L 476.244278 175.482585 
L 476.505579 186.796877 
L 478.655925 189.039814 
L 487.208351 198.111168 
L 487.430319 209.425448 
L 487.619918 220.739734 
L 489.588175 222.803677 
L 498.15314 232.05402 
L 498.324253 243.368306 
L 498.538938 254.682592 
L 498.772013 265.996877 
L 500.520425 267.827805 
L 509.392692 277.311163 
L 509.634 288.625449 
L 511.452665 290.517218 
L 520.26537 299.939735 
L 522.384905 302.144675 
L 530.888389 311.254015 
L 531.086127 322.568301 
L 533.317144 324.901645 
L 541.685648 333.882587 
L 541.902637 345.196873 
L 542.108011 356.511158 
L 544.249405 358.749655 
L 552.706311 367.825444 
L 552.897704 379.13973 
L 553.091994 390.454016 
L 555.181645 392.636675 
L 563.700405 401.768302 
L 563.916042 413.082582 
L 566.113885 415.378477 
L 574.535697 424.396873 
L 574.746524 435.711165 
L 577.046146 438.111824 
L 585.37418 447.025445 
L 585.590803 458.339725 
L 587.978385 460.831812 
L 596.222308 469.654017 
L 596.421647 480.968308 
L 598.910625 483.567218 
" clip-path="url(#pcda5d22f61)" style="fill: none; stroke: #23898e; stroke-width: 1.5"/>
   </g>
   <g id="PathCollection_18">
    <path d="M 411.310321 28.396875 
L 413.06246 30.213869 
L 422.049786 39.711155 
L 423.994705 41.726543 
L 432.74622 51.025436 
L 432.983175 62.339738 
L 434.926945 64.356601 
L 443.616418 73.654018 
L 443.816489 84.968299 
L 445.859195 87.101057 
L 454.42851 96.282601 
L 454.623619 107.596881 
L 454.837351 118.911162 
L 455.061824 130.225442 
L 456.791445 132.044561 
L 465.701768 141.539733 
L 465.97071 152.854025 
L 466.253572 164.168305 
L 467.723685 165.702866 
L 476.952302 175.482585 
L 477.229212 186.796877 
L 478.655925 188.285022 
L 487.919965 198.111168 
L 488.153432 209.425448 
L 488.352943 220.739734 
L 489.588175 222.035016 
L 498.864849 232.05402 
L 499.047195 243.368306 
L 499.27478 254.682592 
L 499.52192 265.996877 
L 500.520425 267.042507 
L 510.127387 277.311163 
L 510.380697 288.625449 
L 511.452665 289.740507 
L 520.991813 299.939735 
L 522.384905 301.388961 
L 531.593842 311.254015 
L 531.801315 322.568301 
L 533.317144 324.153655 
L 542.382631 333.882587 
L 542.613234 345.196873 
L 542.830093 356.511158 
L 544.249405 357.99483 
L 553.409664 367.825444 
L 553.611332 379.13973 
L 553.815668 390.454016 
L 555.181645 391.880791 
L 564.405557 401.768302 
L 564.632147 413.082582 
L 566.113885 414.630425 
L 575.234265 424.396873 
L 575.455413 435.711165 
L 577.046146 437.371788 
L 586.065598 447.025445 
L 586.292178 458.339725 
L 587.978385 460.099738 
L 596.906396 469.654017 
L 597.115459 480.968308 
L 598.910625 482.842762 
" clip-path="url(#pcda5d22f61)" style="fill: none; stroke: #21918c; stroke-width: 1.5"/>
   </g>
   <g id="PathCollection_19">
    <path d="M 412.013694 28.396875 
L 413.06246 29.484461 
L 422.740028 39.711155 
L 423.994705 41.011292 
L 433.419368 51.025436 
L 433.666878 62.339738 
L 434.926945 63.647188 
L 444.279444 73.654018 
L 444.489457 84.968299 
L 445.859195 86.398421 
L 455.084294 96.282601 
L 455.289681 107.596881 
L 455.515807 118.911162 
L 455.754439 130.225442 
L 456.791445 131.316107 
L 466.385353 141.539733 
L 466.672123 152.854025 
L 466.972366 164.168305 
L 467.723685 164.952561 
L 477.660325 175.482585 
L 477.952846 186.796877 
L 478.655925 187.530229 
L 488.63158 198.111168 
L 488.876544 209.425448 
L 489.085968 220.739734 
L 489.588175 221.266356 
L 499.576558 232.05402 
L 499.770137 243.368306 
L 500.010621 254.682592 
L 500.271826 265.996877 
L 500.520425 266.257209 
L 510.862082 277.311163 
L 511.127393 288.625449 
L 511.452665 288.963796 
L 521.718256 299.939735 
L 522.384905 300.633246 
L 532.299295 311.254015 
L 532.516503 322.568301 
L 533.317144 323.405664 
L 543.079613 333.882587 
L 543.323831 345.196873 
L 543.552175 356.511158 
L 544.249405 357.240005 
L 554.113018 367.825444 
L 554.324959 379.13973 
L 554.539341 390.454016 
L 555.181645 391.124908 
L 565.110709 401.768302 
L 565.348252 413.082582 
L 566.113885 413.882372 
L 575.932833 424.396873 
L 576.164303 435.711165 
L 577.046146 436.631753 
L 586.757016 447.025445 
L 586.993554 458.339725 
L 587.978385 459.367663 
L 597.590484 469.654017 
L 597.809272 480.968308 
L 598.910625 482.118305 
" clip-path="url(#pcda5d22f61)" style="fill: none; stroke: #1f978b; stroke-width: 1.5"/>
   </g>
   <g id="PathCollection_20">
    <path d="M 412.717067 28.396875 
L 413.06246 28.755053 
L 423.43027 39.711155 
L 423.994705 40.29604 
L 434.092516 51.025436 
L 434.350581 62.339738 
L 434.926945 62.937775 
L 444.94247 73.654018 
L 445.162425 84.968299 
L 445.859195 85.695785 
L 455.740078 96.282601 
L 455.955743 107.596881 
L 456.194263 118.911162 
L 456.447054 130.225442 
L 456.791445 130.587653 
L 467.068938 141.539733 
L 467.373535 152.854025 
L 467.69116 164.168305 
L 467.723685 164.202256 
L 478.368349 175.482585 
L 478.655925 186.057356 
L 479.062644 186.796877 
L 489.343194 198.111168 
L 489.588175 208.926598 
L 489.790137 209.425448 
L 493.463493 220.739734 
L 500.288267 232.05402 
L 500.493079 243.368306 
L 500.520425 244.608796 
L 504.436238 254.682592 
L 509.059853 265.996877 
L 511.452665 271.523684 
L 513.942035 277.311163 
L 518.676795 288.625449 
L 522.384905 297.436297 
L 523.417072 299.939735 
L 533.004748 311.254015 
L 533.231691 322.568301 
L 533.317144 322.657674 
L 543.776596 333.882587 
L 544.034428 345.196873 
L 544.249405 355.355501 
L 544.679355 356.511158 
L 554.816371 367.825444 
L 555.038587 379.13973 
L 555.181645 386.388327 
L 556.603549 390.454016 
L 565.815862 401.768302 
L 566.064357 413.082582 
L 566.113885 413.134319 
L 576.6314 424.396873 
L 576.873192 435.711165 
L 577.046146 435.891717 
L 587.448434 447.025445 
L 587.694929 458.339725 
L 587.978385 458.635589 
L 598.274572 469.654017 
L 598.503085 480.968308 
L 598.910625 481.393849 
" clip-path="url(#pcda5d22f61)" style="fill: none; stroke: #1f9f88; stroke-width: 1.5"/>
   </g>
   <g id="PathCollection_21">
    <path d="M 420.443146 28.396875 
L 423.994705 34.88354 
L 426.397843 39.711155 
L 434.765664 51.025436 
L 434.926945 57.860748 
L 436.832505 62.339738 
L 445.605495 73.654018 
L 445.835393 84.968299 
L 445.859195 84.993149 
L 456.395862 96.282601 
L 456.621805 107.596881 
L 456.791445 115.291869 
L 458.298965 118.911162 
L 463.088514 130.225442 
L 467.723685 140.381953 
L 468.326716 141.539733 
L 474.950738 152.854025 
L 478.655925 159.327503 
L 481.360487 164.168305 
L 487.246263 175.482585 
L 489.588175 179.774122 
L 493.127618 186.796877 
L 498.21975 198.111168 
L 500.520425 204.082976 
L 502.442629 209.425448 
L 505.679266 220.739734 
L 508.769277 232.05402 
L 511.452665 239.851059 
L 512.698671 243.368306 
L 517.203224 254.682592 
L 521.859879 265.996877 
L 522.384905 267.231436 
L 526.629204 277.311163 
L 531.417084 288.625449 
L 533.317144 293.322557 
L 535.932085 299.939735 
L 540.207497 311.254015 
L 544.054038 322.568301 
L 544.249405 323.105162 
L 548.182341 333.882587 
L 552.805426 345.196873 
L 555.181645 351.404973 
L 557.15346 356.511158 
L 561.22457 367.825444 
L 565.233414 379.13973 
L 566.113885 381.631635 
L 569.263642 390.454016 
L 573.380733 401.768302 
L 577.046146 411.39291 
L 577.688121 413.082582 
L 582.097544 424.396873 
L 586.447909 435.711165 
L 587.978385 439.61595 
L 590.890914 447.025445 
L 595.358744 458.339725 
L 598.910625 467.428518 
" clip-path="url(#pcda5d22f61)" style="fill: none; stroke: #21a585; stroke-width: 1.5"/>
   </g>
   <g id="PathCollection_22">
    <path d="M 434.333423 28.396875 
L 434.926945 29.633968 
L 439.378174 39.711155 
L 444.407194 51.025436 
L 445.859195 54.560435 
L 448.843896 62.339738 
L 453.048732 73.654018 
L 456.791445 83.622246 
L 457.323233 84.968299 
L 461.668029 96.282601 
L 466.177955 107.596881 
L 467.723685 111.311713 
L 470.978603 118.911162 
L 476.217676 130.225442 
L 478.655925 134.690338 
L 482.716842 141.539733 
L 489.526136 152.854025 
L 489.588175 152.968252 
L 495.452311 164.168305 
L 500.520425 174.024254 
L 501.229125 175.482585 
L 506.381452 186.796877 
L 511.158015 198.111168 
L 511.452665 199.003163 
L 514.669649 209.425448 
L 517.703205 220.739734 
L 521.081068 232.05402 
L 522.384905 235.603019 
L 525.327833 243.368306 
L 529.971237 254.682592 
L 533.317144 262.737648 
L 534.680985 265.996877 
L 539.347107 277.311163 
L 544.040704 288.625449 
L 544.249405 289.165199 
L 548.324419 299.939735 
L 552.479887 311.254015 
L 555.181645 319.240594 
L 556.31346 322.568301 
L 560.440008 333.882587 
L 565.038459 345.196873 
L 566.113885 347.931526 
L 569.557483 356.511158 
L 573.79922 367.825444 
L 577.046146 376.861479 
L 577.870548 379.13973 
L 581.958205 390.454016 
L 585.956539 401.768302 
L 587.978385 407.099542 
L 590.219324 413.082582 
L 594.525885 424.396873 
L 598.910625 435.709881 
" clip-path="url(#pcda5d22f61)" style="fill: none; stroke: #26ad81; stroke-width: 1.5"/>
   </g>
   <g id="PathCollection_23">
    <path d="M 447.003993 28.396875 
L 451.785933 39.711155 
L 456.282742 51.025436 
L 456.791445 52.378145 
L 460.631112 62.339738 
L 465.155651 73.654018 
L 467.723685 80.209571 
L 469.607517 84.968299 
L 474.08698 96.282601 
L 478.655925 107.237043 
L 478.81729 107.596881 
L 484.285094 118.911162 
L 489.588175 128.744909 
L 490.438747 130.225442 
L 497.309547 141.539733 
L 500.520425 147.305222 
L 503.480332 152.854025 
L 509.235449 164.168305 
L 511.452665 168.828098 
L 514.485632 175.482585 
L 519.477804 186.796877 
L 522.384905 194.606668 
L 523.589723 198.111168 
L 526.673097 209.425448 
L 529.753321 220.739734 
L 533.317144 231.664524 
L 533.448702 232.05402 
L 538.049236 243.368306 
L 542.762787 254.682592 
L 544.249405 258.220289 
L 547.519608 265.996877 
L 552.103729 277.311163 
L 555.181645 284.966231 
L 556.62327 288.625449 
L 560.68428 299.939735 
L 564.788263 311.254015 
L 566.113885 315.174322 
L 568.640488 322.568301 
L 572.762688 333.882587 
L 577.046146 344.266668 
L 577.432021 345.196873 
L 582.044328 356.511158 
L 586.428661 367.825444 
L 587.978385 372.098626 
L 590.544054 379.13973 
L 594.640084 390.454016 
L 598.525924 401.768302 
L 598.910625 402.815821 
" clip-path="url(#pcda5d22f61)" style="fill: none; stroke: #2eb37c; stroke-width: 1.5"/>
   </g>
   <g id="PathCollection_24">
    <path d="M 459.256425 28.396875 
L 463.774103 39.711155 
L 467.723685 49.790415 
L 468.233237 51.025436 
L 472.904537 62.339738 
L 477.539092 73.654018 
L 478.655925 76.456831 
L 482.12589 84.968299 
L 486.994251 96.282601 
L 489.588175 101.88881 
L 492.412101 107.596881 
L 498.443367 118.911162 
L 500.520425 122.472586 
L 505.050113 130.225442 
L 511.359422 141.539733 
L 511.452665 141.714231 
L 517.238686 152.854025 
L 522.384905 163.852698 
L 522.526909 164.168305 
L 527.467585 175.482585 
L 532.135066 186.796877 
L 533.317144 190.487311 
L 535.631815 198.111168 
L 538.628269 209.425448 
L 541.897094 220.739734 
L 544.249405 227.33483 
L 545.991891 232.05402 
L 550.825371 243.368306 
L 555.181645 253.607675 
L 555.639762 254.682592 
L 560.321189 265.996877 
L 564.859424 277.311163 
L 566.113885 280.594257 
L 569.098588 288.625449 
L 573.012788 299.939735 
L 577.046146 311.069351 
L 577.113429 311.254015 
L 581.110828 322.568301 
L 585.189459 333.882587 
L 587.978385 340.646687 
L 589.837838 345.196873 
L 594.581906 356.511158 
L 598.910625 367.55114 
" clip-path="url(#pcda5d22f61)" style="fill: none; stroke: #3aba76; stroke-width: 1.5"/>
   </g>
   <g id="PathCollection_25">
    <path d="M 471.35274 28.396875 
L 475.945069 39.711155 
L 478.655925 46.188819 
L 480.758829 51.025436 
L 485.449902 62.339738 
L 489.588175 72.410911 
L 490.118589 73.654018 
L 495.167253 84.968299 
L 500.520425 96.140315 
L 500.59115 96.282601 
L 506.583744 107.596881 
L 511.452665 116.151076 
L 513.000146 118.911162 
L 519.155377 130.225442 
L 522.384905 136.328887 
L 525.110442 141.539733 
L 530.573008 152.854025 
L 533.317144 159.074155 
L 535.507376 164.168305 
L 540.175006 175.482585 
L 544.249405 186.508164 
L 544.35179 186.796877 
L 547.514581 198.111168 
L 550.662371 209.425448 
L 554.194705 220.739734 
L 555.181645 223.327536 
L 558.612678 232.05402 
L 563.648791 243.368306 
L 566.113885 249.136345 
L 568.489653 254.682592 
L 573.060755 265.996877 
L 577.046146 276.161096 
L 577.492115 277.311163 
L 581.518263 288.625449 
L 585.290306 299.939735 
L 587.978385 307.253854 
L 589.443531 311.254015 
L 593.586984 322.568301 
L 597.667462 333.882587 
L 598.910625 336.965591 
" clip-path="url(#pcda5d22f61)" style="fill: none; stroke: #46c06f; stroke-width: 1.5"/>
   </g>
   <g id="PathCollection_26">
    <path d="M 483.775577 28.396875 
L 488.684486 39.711155 
L 489.588175 41.797022 
L 493.553806 51.025436 
L 498.1487 62.339738 
L 500.520425 67.755529 
L 503.315457 73.654018 
L 508.827657 84.968299 
L 511.452665 90.13711 
L 514.685861 96.282601 
L 520.920116 107.596881 
L 522.384905 110.230682 
L 527.025801 118.911162 
L 532.938885 130.225442 
L 533.317144 130.95098 
L 538.65248 141.539733 
L 543.576645 152.854025 
L 544.249405 154.428211 
L 548.318367 164.168305 
L 552.652634 175.482585 
L 555.181645 183.055632 
L 556.3737 186.796877 
L 559.411193 198.111168 
L 562.799262 209.425448 
L 566.113885 219.386165 
L 566.577552 220.739734 
L 571.384923 232.05402 
L 576.506755 243.368306 
L 577.046146 244.62944 
L 581.274379 254.682592 
L 585.75454 265.996877 
L 587.978385 271.818171 
L 590.035065 277.311163 
L 593.925665 288.625449 
L 597.568489 299.939735 
L 598.910625 303.624743 
" clip-path="url(#pcda5d22f61)" style="fill: none; stroke: #56c667; stroke-width: 1.5"/>
   </g>
   <g id="PathCollection_27">
    <path d="M 496.709037 28.396875 
L 500.520425 37.145238 
L 501.620816 39.711155 
L 506.411655 51.025436 
L 511.452665 61.979568 
L 511.631545 62.339738 
L 517.134383 73.654018 
L 522.384905 84.124992 
L 522.815915 84.968299 
L 528.863887 96.282601 
L 533.317144 104.460511 
L 534.986314 107.596881 
L 540.877347 118.911162 
L 544.249405 125.399603 
L 546.680872 130.225442 
L 551.771588 141.539733 
L 555.181645 149.748048 
L 556.452656 152.854025 
L 560.889874 164.168305 
L 564.868963 175.482585 
L 566.113885 179.589105 
L 568.242053 186.796877 
L 571.43099 198.111168 
L 574.958206 209.425448 
L 577.046146 215.202824 
L 579.122909 220.739734 
L 584.212635 232.05402 
L 587.978385 240.526781 
L 589.233693 243.368306 
L 593.889221 254.682592 
L 598.305477 265.996877 
L 598.910625 267.630753 
" clip-path="url(#pcda5d22f61)" style="fill: none; stroke: #65cb5e; stroke-width: 1.5"/>
   </g>
   <g id="PathCollection_28">
    <path d="M 509.749374 28.396875 
L 511.452665 32.420714 
L 514.662709 39.711155 
L 519.969907 51.025436 
L 522.384905 55.855512 
L 525.566459 62.339738 
L 530.965161 73.654018 
L 533.317144 78.182952 
L 536.887464 84.968299 
L 543.010651 96.282601 
L 544.249405 98.660443 
L 548.810184 107.596881 
L 554.763578 118.911162 
L 555.181645 119.762466 
L 559.978934 130.225442 
L 564.642739 141.539733 
L 566.113885 145.147829 
L 569.189643 152.854025 
L 573.209988 164.168305 
L 576.952477 175.482585 
L 577.046146 175.814729 
L 580.092449 186.796877 
L 583.543292 198.111168 
L 587.289297 209.425448 
L 587.978385 211.208022 
L 591.743696 220.739734 
L 596.933689 232.05402 
L 598.910625 236.512673 
" clip-path="url(#pcda5d22f61)" style="fill: none; stroke: #77d153; stroke-width: 1.5"/>
   </g>
   <g id="PathCollection_29">
    <path d="M 522.862533 28.396875 
L 528.43913 39.711155 
L 533.317144 49.86429 
L 533.86623 51.025436 
L 539.285962 62.339738 
L 544.249405 72.137246 
L 545.028728 73.654018 
L 550.988384 84.968299 
L 555.181645 92.992017 
L 556.851039 96.282601 
L 562.755171 107.596881 
L 566.113885 114.329375 
L 568.224616 118.911162 
L 572.833948 130.225442 
L 577.046146 140.596121 
L 577.426351 141.539733 
L 581.684689 152.854025 
L 585.383472 164.168305 
L 587.978385 172.589547 
L 588.850563 175.482585 
L 592.031524 186.796877 
L 595.687153 198.111168 
L 598.910625 207.253203 
" clip-path="url(#pcda5d22f61)" style="fill: none; stroke: #89d548; stroke-width: 1.5"/>
   </g>
   <g id="PathCollection_30">
    <path d="M 536.812717 28.396875 
L 542.338265 39.711155 
L 544.249405 43.732884 
L 547.727355 51.025436 
L 553.247576 62.339738 
L 555.181645 66.117867 
L 559.077835 73.654018 
L 565.076787 84.968299 
L 566.113885 87.049009 
L 570.671673 96.282601 
L 576.427068 107.596881 
L 577.046146 109.016618 
L 581.092794 118.911162 
L 585.607802 130.225442 
L 587.978385 136.18255 
L 590.06765 141.539733 
L 593.915351 152.854025 
L 597.501008 164.168305 
L 598.910625 169.036651 
" clip-path="url(#pcda5d22f61)" style="fill: none; stroke: #9dd93b; stroke-width: 1.5"/>
   </g>
   <g id="PathCollection_31">
    <path d="M 550.784708 28.396875 
L 555.181645 37.562484 
L 556.209511 39.711155 
L 561.665168 51.025436 
L 566.113885 59.999925 
L 567.292856 62.339738 
L 573.207833 73.654018 
L 577.046146 81.349459 
L 578.826721 84.968299 
L 584.528223 96.282601 
L 587.978385 103.984159 
L 589.464949 107.596881 
L 593.843294 118.911162 
L 598.331801 130.225442 
L 598.910625 131.743642 
" clip-path="url(#pcda5d22f61)" style="fill: none; stroke: #b0dd2f; stroke-width: 1.5"/>
   </g>
   <g id="PathCollection_32">
    <path d="M 564.754651 28.396875 
L 566.113885 31.266213 
L 570.149813 39.711155 
L 575.712304 51.025436 
L 577.046146 53.635376 
L 581.461123 62.339738 
L 587.047369 73.654018 
L 587.978385 75.530049 
L 592.632567 84.968299 
L 597.770575 96.282601 
L 598.910625 99.16518 
" clip-path="url(#pcda5d22f61)" style="fill: none; stroke: #c5e021; stroke-width: 1.5"/>
   </g>
   <g id="PathCollection_33">
    <path d="M 578.6993 28.396875 
L 584.226774 39.711155 
L 587.978385 47.284554 
L 589.802405 51.025436 
L 595.26331 62.339738 
L 598.910625 69.83861 
" clip-path="url(#pcda5d22f61)" style="fill: none; stroke: #d8e219; stroke-width: 1.5"/>
   </g>
   <g id="PathCollection_34">
    <path d="M 592.742597 28.396875 
L 598.235267 39.711155 
L 598.910625 41.114964 
" clip-path="url(#pcda5d22f61)" style="fill: none; stroke: #ece51b; stroke-width: 1.5"/>
   </g>
   <g id="PathCollection_35"/>
   <g id="line2d_29">
    <defs>
     <path id="m540621719f" d="M 0 2.5 
C 0.663008 2.5 1.29895 2.236584 1.767767 1.767767 
C 2.236584 1.29895 2.5 0.663008 2.5 0 
C 2.5 -0.663008 2.236584 -1.29895 1.767767 -1.767767 
C 1.29895 -2.236584 0.663008 -2.5 0 -2.5 
C -0.663008 -2.5 -1.29895 -2.236584 -1.767767 -1.767767 
C -2.236584 -1.29895 -2.5 -0.663008 -2.5 0 
C -2.5 0.663008 -2.236584 1.29895 -1.767767 1.767767 
C -1.29895 2.236584 -0.663008 2.5 0 2.5 
z
" style="stroke: #ff0000"/>
    </defs>
    <g clip-path="url(#pcda5d22f61)">
     <use xlink:href="#m540621719f" x="331.070625" y="305.596875" style="fill: #ff0000; stroke: #ff0000"/>
    </g>
   </g>
   <g id="patch_3">
    <path d="M 63.230625 582.796875 
L 63.230625 28.396875 
" style="fill: none; stroke: #000000; stroke-width: 0.8; stroke-linejoin: miter; stroke-linecap: square"/>
   </g>
   <g id="patch_4">
    <path d="M 598.910625 582.796875 
L 598.910625 28.396875 
" style="fill: none; stroke: #000000; stroke-width: 0.8; stroke-linejoin: miter; stroke-linecap: square"/>
   </g>
   <g id="patch_5">
    <path d="M 63.230625 582.796875 
L 598.910625 582.796875 
" style="fill: none; stroke: #000000; stroke-width: 0.8; stroke-linejoin: miter; stroke-linecap: square"/>
   </g>
   <g id="patch_6">
    <path d="M 63.230625 28.396875 
L 598.910625 28.396875 
" style="fill: none; stroke: #000000; stroke-width: 0.8; stroke-linejoin: miter; stroke-linecap: square"/>
   </g>
   <g id="text_17">
    <!-- Loss Landscape Contour -->
    <g transform="translate(209.13 22.396875) scale(0.2 -0.2)">
     <defs>
      <path id="DejaVuSans-4c" d="M 628 4666 
L 1259 4666 
L 1259 531 
L 3531 531 
L 3531 0 
L 628 0 
L 628 4666 
z
" transform="scale(0.015625)"/>
      <path id="DejaVuSans-73" d="M 2834 3397 
L 2834 2853 
Q 2591 2978 2328 3040 
Q 2066 3103 1784 3103 
Q 1356 3103 1142 2972 
Q 928 2841 928 2578 
Q 928 2378 1081 2264 
Q 1234 2150 1697 2047 
L 1894 2003 
Q 2506 1872 2764 1633 
Q 3022 1394 3022 966 
Q 3022 478 2636 193 
Q 2250 -91 1575 -91 
Q 1294 -91 989 -36 
Q 684 19 347 128 
L 347 722 
Q 666 556 975 473 
Q 1284 391 1588 391 
Q 1994 391 2212 530 
Q 2431 669 2431 922 
Q 2431 1156 2273 1281 
Q 2116 1406 1581 1522 
L 1381 1569 
Q 847 1681 609 1914 
Q 372 2147 372 2553 
Q 372 3047 722 3315 
Q 1072 3584 1716 3584 
Q 2034 3584 2315 3537 
Q 2597 3491 2834 3397 
z
" transform="scale(0.015625)"/>
      <path id="DejaVuSans-61" d="M 2194 1759 
Q 1497 1759 1228 1600 
Q 959 1441 959 1056 
Q 959 750 1161 570 
Q 1363 391 1709 391 
Q 2188 391 2477 730 
Q 2766 1069 2766 1631 
L 2766 1759 
L 2194 1759 
z
M 3341 1997 
L 3341 0 
L 2766 0 
L 2766 531 
Q 2569 213 2275 61 
Q 1981 -91 1556 -91 
Q 1019 -91 701 211 
Q 384 513 384 1019 
Q 384 1609 779 1909 
Q 1175 2209 1959 2209 
L 2766 2209 
L 2766 2266 
Q 2766 2663 2505 2880 
Q 2244 3097 1772 3097 
Q 1472 3097 1187 3025 
Q 903 2953 641 2809 
L 641 3341 
Q 956 3463 1253 3523 
Q 1550 3584 1831 3584 
Q 2591 3584 2966 3190 
Q 3341 2797 3341 1997 
z
" transform="scale(0.015625)"/>
      <path id="DejaVuSans-64" d="M 2906 2969 
L 2906 4863 
L 3481 4863 
L 3481 0 
L 2906 0 
L 2906 525 
Q 2725 213 2448 61 
Q 2172 -91 1784 -91 
Q 1150 -91 751 415 
Q 353 922 353 1747 
Q 353 2572 751 3078 
Q 1150 3584 1784 3584 
Q 2172 3584 2448 3432 
Q 2725 3281 2906 2969 
z
M 947 1747 
Q 947 1113 1208 752 
Q 1469 391 1925 391 
Q 2381 391 2643 752 
Q 2906 1113 2906 1747 
Q 2906 2381 2643 2742 
Q 2381 3103 1925 3103 
Q 1469 3103 1208 2742 
Q 947 2381 947 1747 
z
" transform="scale(0.015625)"/>
      <path id="DejaVuSans-70" d="M 1159 525 
L 1159 -1331 
L 581 -1331 
L 581 3500 
L 1159 3500 
L 1159 2969 
Q 1341 3281 1617 3432 
Q 1894 3584 2278 3584 
Q 2916 3584 3314 3078 
Q 3713 2572 3713 1747 
Q 3713 922 3314 415 
Q 2916 -91 2278 -91 
Q 1894 -91 1617 61 
Q 1341 213 1159 525 
z
M 3116 1747 
Q 3116 2381 2855 2742 
Q 2594 3103 2138 3103 
Q 1681 3103 1420 2742 
Q 1159 2381 1159 1747 
Q 1159 1113 1420 752 
Q 1681 391 2138 391 
Q 2594 391 2855 752 
Q 3116 1113 3116 1747 
z
" transform="scale(0.015625)"/>
      <path id="DejaVuSans-43" d="M 4122 4306 
L 4122 3641 
Q 3803 3938 3442 4084 
Q 3081 4231 2675 4231 
Q 1875 4231 1450 3742 
Q 1025 3253 1025 2328 
Q 1025 1406 1450 917 
Q 1875 428 2675 428 
Q 3081 428 3442 575 
Q 3803 722 4122 1019 
L 4122 359 
Q 3791 134 3420 21 
Q 3050 -91 2638 -91 
Q 1578 -91 968 557 
Q 359 1206 359 2328 
Q 359 3453 968 4101 
Q 1578 4750 2638 4750 
Q 3056 4750 3426 4639 
Q 3797 4528 4122 4306 
z
" transform="scale(0.015625)"/>
      <path id="DejaVuSans-75" d="M 544 1381 
L 544 3500 
L 1119 3500 
L 1119 1403 
Q 1119 906 1312 657 
Q 1506 409 1894 409 
Q 2359 409 2629 706 
Q 2900 1003 2900 1516 
L 2900 3500 
L 3475 3500 
L 3475 0 
L 2900 0 
L 2900 538 
Q 2691 219 2414 64 
Q 2138 -91 1772 -91 
Q 1169 -91 856 284 
Q 544 659 544 1381 
z
M 1991 3584 
L 1991 3584 
z
" transform="scale(0.015625)"/>
     </defs>
     <use xlink:href="#DejaVuSans-4c"/>
     <use xlink:href="#DejaVuSans-6f" x="53.962891"/>
     <use xlink:href="#DejaVuSans-73" x="115.144531"/>
     <use xlink:href="#DejaVuSans-73" x="167.244141"/>
     <use xlink:href="#DejaVuSans-20" x="219.34375"/>
     <use xlink:href="#DejaVuSans-4c" x="251.130859"/>
     <use xlink:href="#DejaVuSans-61" x="306.84375"/>
     <use xlink:href="#DejaVuSans-6e" x="368.123047"/>
     <use xlink:href="#DejaVuSans-64" x="431.501953"/>
     <use xlink:href="#DejaVuSans-73" x="494.978516"/>
     <use xlink:href="#DejaVuSans-63" x="547.078125"/>
     <use xlink:href="#DejaVuSans-61" x="602.058594"/>
     <use xlink:href="#DejaVuSans-70" x="663.337891"/>
     <use xlink:href="#DejaVuSans-65" x="726.814453"/>
     <use xlink:href="#DejaVuSans-20" x="788.337891"/>
     <use xlink:href="#DejaVuSans-43" x="820.125"/>
     <use xlink:href="#DejaVuSans-6f" x="889.949219"/>
     <use xlink:href="#DejaVuSans-6e" x="951.130859"/>
     <use xlink:href="#DejaVuSans-74" x="1014.509766"/>
     <use xlink:href="#DejaVuSans-6f" x="1053.71875"/>
     <use xlink:href="#DejaVuSans-75" x="1114.900391"/>
     <use xlink:href="#DejaVuSans-72" x="1178.279297"/>
    </g>
   </g>
   <g id="legend_1">
    <g id="patch_7">
     <path d="M 487.777813 51.075 
L 591.910625 51.075 
Q 593.910625 51.075 593.910625 49.075 
L 593.910625 35.396875 
Q 593.910625 33.396875 591.910625 33.396875 
L 487.777813 33.396875 
Q 485.777813 33.396875 485.777813 35.396875 
L 485.777813 49.075 
Q 485.777813 51.075 487.777813 51.075 
z
" style="fill: #ffffff; opacity: 0.8; stroke: #cccccc; stroke-linejoin: miter"/>
    </g>
    <g id="line2d_30">
     <g>
      <use xlink:href="#m540621719f" x="499.777813" y="41.495313" style="fill: #ff0000; stroke: #ff0000"/>
     </g>
    </g>
    <g id="text_18">
     <!-- Model Position -->
     <g transform="translate(517.777813 44.995313) scale(0.1 -0.1)">
      <defs>
       <path id="DejaVuSans-4d" d="M 628 4666 
L 1569 4666 
L 2759 1491 
L 3956 4666 
L 4897 4666 
L 4897 0 
L 4281 0 
L 4281 4097 
L 3078 897 
L 2444 897 
L 1241 4097 
L 1241 0 
L 628 0 
L 628 4666 
z
" transform="scale(0.015625)"/>
       <path id="DejaVuSans-6c" d="M 603 4863 
L 1178 4863 
L 1178 0 
L 603 0 
L 603 4863 
z
" transform="scale(0.015625)"/>
       <path id="DejaVuSans-50" d="M 1259 4147 
L 1259 2394 
L 2053 2394 
Q 2494 2394 2734 2622 
Q 2975 2850 2975 3272 
Q 2975 3691 2734 3919 
Q 2494 4147 2053 4147 
L 1259 4147 
z
M 628 4666 
L 2053 4666 
Q 2838 4666 3239 4311 
Q 3641 3956 3641 3272 
Q 3641 2581 3239 2228 
Q 2838 1875 2053 1875 
L 1259 1875 
L 1259 0 
L 628 0 
L 628 4666 
z
" transform="scale(0.015625)"/>
      </defs>
      <use xlink:href="#DejaVuSans-4d"/>
      <use xlink:href="#DejaVuSans-6f" x="86.279297"/>
      <use xlink:href="#DejaVuSans-64" x="147.460938"/>
      <use xlink:href="#DejaVuSans-65" x="210.9375"/>
      <use xlink:href="#DejaVuSans-6c" x="272.460938"/>
      <use xlink:href="#DejaVuSans-20" x="300.244141"/>
      <use xlink:href="#DejaVuSans-50" x="332.03125"/>
      <use xlink:href="#DejaVuSans-6f" x="388.708984"/>
      <use xlink:href="#DejaVuSans-73" x="449.890625"/>
      <use xlink:href="#DejaVuSans-69" x="501.990234"/>
      <use xlink:href="#DejaVuSans-74" x="529.773438"/>
      <use xlink:href="#DejaVuSans-69" x="568.982422"/>
      <use xlink:href="#DejaVuSans-6f" x="596.765625"/>
      <use xlink:href="#DejaVuSans-6e" x="657.947266"/>
     </g>
    </g>
   </g>
  </g>
  <g id="axes_2">
   <g id="patch_8">
    <path d="M 632.390625 582.796875 
L 660.110625 582.796875 
L 660.110625 28.396875 
L 632.390625 28.396875 
z
" style="fill: #ffffff"/>
   </g>
   <g id="patch_9">
    <path clip-path="url(#pd528f76620)" style="fill: #ffffff; stroke: #ffffff; stroke-width: 0.01; stroke-linejoin: miter"/>
   </g>
   <g id="matplotlib.axis_3"/>
   <g id="matplotlib.axis_4">
    <g id="ytick_8">
     <g id="line2d_31">
      <g>
       <use xlink:href="#m4912041dc7" x="660.110625" y="566.490993" style="stroke: #000000; stroke-width: 0.8"/>
      </g>
     </g>
     <g id="text_19">
      <!-- 0 -->
      <g transform="translate(663.610625 572.569743) scale(0.16 -0.16)">
       <use xlink:href="#DejaVuSans-30"/>
      </g>
     </g>
    </g>
    <g id="ytick_9">
     <g id="line2d_32">
      <g>
       <use xlink:href="#m4912041dc7" x="660.110625" y="501.267463" style="stroke: #000000; stroke-width: 0.8"/>
      </g>
     </g>
     <g id="text_20">
      <!-- 4 -->
      <g transform="translate(663.610625 507.346213) scale(0.16 -0.16)">
       <defs>
        <path id="DejaVuSans-34" d="M 2419 4116 
L 825 1625 
L 2419 1625 
L 2419 4116 
z
M 2253 4666 
L 3047 4666 
L 3047 1625 
L 3713 1625 
L 3713 1100 
L 3047 1100 
L 3047 0 
L 2419 0 
L 2419 1100 
L 313 1100 
L 313 1709 
L 2253 4666 
z
" transform="scale(0.015625)"/>
       </defs>
       <use xlink:href="#DejaVuSans-34"/>
      </g>
     </g>
    </g>
    <g id="ytick_10">
     <g id="line2d_33">
      <g>
       <use xlink:href="#m4912041dc7" x="660.110625" y="436.043934" style="stroke: #000000; stroke-width: 0.8"/>
      </g>
     </g>
     <g id="text_21">
      <!-- 8 -->
      <g transform="translate(663.610625 442.122684) scale(0.16 -0.16)">
       <defs>
        <path id="DejaVuSans-38" d="M 2034 2216 
Q 1584 2216 1326 1975 
Q 1069 1734 1069 1313 
Q 1069 891 1326 650 
Q 1584 409 2034 409 
Q 2484 409 2743 651 
Q 3003 894 3003 1313 
Q 3003 1734 2745 1975 
Q 2488 2216 2034 2216 
z
M 1403 2484 
Q 997 2584 770 2862 
Q 544 3141 544 3541 
Q 544 4100 942 4425 
Q 1341 4750 2034 4750 
Q 2731 4750 3128 4425 
Q 3525 4100 3525 3541 
Q 3525 3141 3298 2862 
Q 3072 2584 2669 2484 
Q 3125 2378 3379 2068 
Q 3634 1759 3634 1313 
Q 3634 634 3220 271 
Q 2806 -91 2034 -91 
Q 1263 -91 848 271 
Q 434 634 434 1313 
Q 434 1759 690 2068 
Q 947 2378 1403 2484 
z
M 1172 3481 
Q 1172 3119 1398 2916 
Q 1625 2713 2034 2713 
Q 2441 2713 2670 2916 
Q 2900 3119 2900 3481 
Q 2900 3844 2670 4047 
Q 2441 4250 2034 4250 
Q 1625 4250 1398 4047 
Q 1172 3844 1172 3481 
z
" transform="scale(0.015625)"/>
       </defs>
       <use xlink:href="#DejaVuSans-38"/>
      </g>
     </g>
    </g>
    <g id="ytick_11">
     <g id="line2d_34">
      <g>
       <use xlink:href="#m4912041dc7" x="660.110625" y="370.820404" style="stroke: #000000; stroke-width: 0.8"/>
      </g>
     </g>
     <g id="text_22">
      <!-- 12 -->
      <g transform="translate(663.610625 376.899154) scale(0.16 -0.16)">
       <use xlink:href="#DejaVuSans-31"/>
       <use xlink:href="#DejaVuSans-32" x="63.623047"/>
      </g>
     </g>
    </g>
    <g id="ytick_12">
     <g id="line2d_35">
      <g>
       <use xlink:href="#m4912041dc7" x="660.110625" y="305.596875" style="stroke: #000000; stroke-width: 0.8"/>
      </g>
     </g>
     <g id="text_23">
      <!-- 16 -->
      <g transform="translate(663.610625 311.675625) scale(0.16 -0.16)">
       <defs>
        <path id="DejaVuSans-36" d="M 2113 2584 
Q 1688 2584 1439 2293 
Q 1191 2003 1191 1497 
Q 1191 994 1439 701 
Q 1688 409 2113 409 
Q 2538 409 2786 701 
Q 3034 994 3034 1497 
Q 3034 2003 2786 2293 
Q 2538 2584 2113 2584 
z
M 3366 4563 
L 3366 3988 
Q 3128 4100 2886 4159 
Q 2644 4219 2406 4219 
Q 1781 4219 1451 3797 
Q 1122 3375 1075 2522 
Q 1259 2794 1537 2939 
Q 1816 3084 2150 3084 
Q 2853 3084 3261 2657 
Q 3669 2231 3669 1497 
Q 3669 778 3244 343 
Q 2819 -91 2113 -91 
Q 1303 -91 875 529 
Q 447 1150 447 2328 
Q 447 3434 972 4092 
Q 1497 4750 2381 4750 
Q 2619 4750 2861 4703 
Q 3103 4656 3366 4563 
z
" transform="scale(0.015625)"/>
       </defs>
       <use xlink:href="#DejaVuSans-31"/>
       <use xlink:href="#DejaVuSans-36" x="63.623047"/>
      </g>
     </g>
    </g>
    <g id="ytick_13">
     <g id="line2d_36">
      <g>
       <use xlink:href="#m4912041dc7" x="660.110625" y="240.373346" style="stroke: #000000; stroke-width: 0.8"/>
      </g>
     </g>
     <g id="text_24">
      <!-- 20 -->
      <g transform="translate(663.610625 246.452096) scale(0.16 -0.16)">
       <use xlink:href="#DejaVuSans-32"/>
       <use xlink:href="#DejaVuSans-30" x="63.623047"/>
      </g>
     </g>
    </g>
    <g id="ytick_14">
     <g id="line2d_37">
      <g>
       <use xlink:href="#m4912041dc7" x="660.110625" y="175.149816" style="stroke: #000000; stroke-width: 0.8"/>
      </g>
     </g>
     <g id="text_25">
      <!-- 24 -->
      <g transform="translate(663.610625 181.228566) scale(0.16 -0.16)">
       <use xlink:href="#DejaVuSans-32"/>
       <use xlink:href="#DejaVuSans-34" x="63.623047"/>
      </g>
     </g>
    </g>
    <g id="ytick_15">
     <g id="line2d_38">
      <g>
       <use xlink:href="#m4912041dc7" x="660.110625" y="109.926287" style="stroke: #000000; stroke-width: 0.8"/>
      </g>
     </g>
     <g id="text_26">
      <!-- 28 -->
      <g transform="translate(663.610625 116.005037) scale(0.16 -0.16)">
       <use xlink:href="#DejaVuSans-32"/>
       <use xlink:href="#DejaVuSans-38" x="63.623047"/>
      </g>
     </g>
    </g>
    <g id="ytick_16">
     <g id="line2d_39">
      <g>
       <use xlink:href="#m4912041dc7" x="660.110625" y="44.702757" style="stroke: #000000; stroke-width: 0.8"/>
      </g>
     </g>
     <g id="text_27">
      <!-- 32 -->
      <g transform="translate(663.610625 50.781507) scale(0.16 -0.16)">
       <defs>
        <path id="DejaVuSans-33" d="M 2597 2516 
Q 3050 2419 3304 2112 
Q 3559 1806 3559 1356 
Q 3559 666 3084 287 
Q 2609 -91 1734 -91 
Q 1441 -91 1130 -33 
Q 819 25 488 141 
L 488 750 
Q 750 597 1062 519 
Q 1375 441 1716 441 
Q 2309 441 2620 675 
Q 2931 909 2931 1356 
Q 2931 1769 2642 2001 
Q 2353 2234 1838 2234 
L 1294 2234 
L 1294 2753 
L 1863 2753 
Q 2328 2753 2575 2939 
Q 2822 3125 2822 3475 
Q 2822 3834 2567 4026 
Q 2313 4219 1838 4219 
Q 1578 4219 1281 4162 
Q 984 4106 628 3988 
L 628 4550 
Q 988 4650 1302 4700 
Q 1616 4750 1894 4750 
Q 2613 4750 3031 4423 
Q 3450 4097 3450 3541 
Q 3450 3153 3228 2886 
Q 3006 2619 2597 2516 
z
" transform="scale(0.015625)"/>
       </defs>
       <use xlink:href="#DejaVuSans-33"/>
       <use xlink:href="#DejaVuSans-32" x="63.623047"/>
      </g>
     </g>
    </g>
    <g id="text_28">
     <!-- Loss -->
     <g transform="translate(695.569063 316.564063) rotate(-90) scale(0.1 -0.1)">
      <use xlink:href="#DejaVuSans-4c"/>
      <use xlink:href="#DejaVuSans-6f" x="53.962891"/>
      <use xlink:href="#DejaVuSans-73" x="115.144531"/>
      <use xlink:href="#DejaVuSans-73" x="167.244141"/>
     </g>
    </g>
   </g>
   <g id="LineCollection_1"/>
   <g id="LineCollection_2">
    <path d="M 632.390625 582.796875 
L 660.110625 582.796875 
" clip-path="url(#p691192ed1c)" style="fill: none; stroke: #440154; stroke-width: 1.5"/>
    <path d="M 632.390625 566.490993 
L 660.110625 566.490993 
" clip-path="url(#p691192ed1c)" style="fill: none; stroke: #460b5e; stroke-width: 1.5"/>
    <path d="M 632.390625 550.18511 
L 660.110625 550.18511 
" clip-path="url(#p691192ed1c)" style="fill: none; stroke: #481769; stroke-width: 1.5"/>
    <path d="M 632.390625 533.879228 
L 660.110625 533.879228 
" clip-path="url(#p691192ed1c)" style="fill: none; stroke: #482071; stroke-width: 1.5"/>
    <path d="M 632.390625 517.573346 
L 660.110625 517.573346 
" clip-path="url(#p691192ed1c)" style="fill: none; stroke: #472a7a; stroke-width: 1.5"/>
    <path d="M 632.390625 501.267463 
L 660.110625 501.267463 
" clip-path="url(#p691192ed1c)" style="fill: none; stroke: #46337f; stroke-width: 1.5"/>
    <path d="M 632.390625 484.961581 
L 660.110625 484.961581 
" clip-path="url(#p691192ed1c)" style="fill: none; stroke: #433d84; stroke-width: 1.5"/>
    <path d="M 632.390625 468.655699 
L 660.110625 468.655699 
" clip-path="url(#p691192ed1c)" style="fill: none; stroke: #404588; stroke-width: 1.5"/>
    <path d="M 632.390625 452.349816 
L 660.110625 452.349816 
" clip-path="url(#p691192ed1c)" style="fill: none; stroke: #3d4e8a; stroke-width: 1.5"/>
    <path d="M 632.390625 436.043934 
L 660.110625 436.043934 
" clip-path="url(#p691192ed1c)" style="fill: none; stroke: #39558c; stroke-width: 1.5"/>
    <path d="M 632.390625 419.738051 
L 660.110625 419.738051 
" clip-path="url(#p691192ed1c)" style="fill: none; stroke: #355e8d; stroke-width: 1.5"/>
    <path d="M 632.390625 403.432169 
L 660.110625 403.432169 
" clip-path="url(#p691192ed1c)" style="fill: none; stroke: #32658e; stroke-width: 1.5"/>
    <path d="M 632.390625 387.126287 
L 660.110625 387.126287 
" clip-path="url(#p691192ed1c)" style="fill: none; stroke: #2e6d8e; stroke-width: 1.5"/>
    <path d="M 632.390625 370.820404 
L 660.110625 370.820404 
" clip-path="url(#p691192ed1c)" style="fill: none; stroke: #2c738e; stroke-width: 1.5"/>
    <path d="M 632.390625 354.514522 
L 660.110625 354.514522 
" clip-path="url(#p691192ed1c)" style="fill: none; stroke: #297b8e; stroke-width: 1.5"/>
    <path d="M 632.390625 338.20864 
L 660.110625 338.20864 
" clip-path="url(#p691192ed1c)" style="fill: none; stroke: #26828e; stroke-width: 1.5"/>
    <path d="M 632.390625 321.902757 
L 660.110625 321.902757 
" clip-path="url(#p691192ed1c)" style="fill: none; stroke: #23898e; stroke-width: 1.5"/>
    <path d="M 632.390625 305.596875 
L 660.110625 305.596875 
" clip-path="url(#p691192ed1c)" style="fill: none; stroke: #21918c; stroke-width: 1.5"/>
    <path d="M 632.390625 289.290993 
L 660.110625 289.290993 
" clip-path="url(#p691192ed1c)" style="fill: none; stroke: #1f978b; stroke-width: 1.5"/>
    <path d="M 632.390625 272.98511 
L 660.110625 272.98511 
" clip-path="url(#p691192ed1c)" style="fill: none; stroke: #1f9f88; stroke-width: 1.5"/>
    <path d="M 632.390625 256.679228 
L 660.110625 256.679228 
" clip-path="url(#p691192ed1c)" style="fill: none; stroke: #21a585; stroke-width: 1.5"/>
    <path d="M 632.390625 240.373346 
L 660.110625 240.373346 
" clip-path="url(#p691192ed1c)" style="fill: none; stroke: #26ad81; stroke-width: 1.5"/>
    <path d="M 632.390625 224.067463 
L 660.110625 224.067463 
" clip-path="url(#p691192ed1c)" style="fill: none; stroke: #2eb37c; stroke-width: 1.5"/>
    <path d="M 632.390625 207.761581 
L 660.110625 207.761581 
" clip-path="url(#p691192ed1c)" style="fill: none; stroke: #3aba76; stroke-width: 1.5"/>
    <path d="M 632.390625 191.455699 
L 660.110625 191.455699 
" clip-path="url(#p691192ed1c)" style="fill: none; stroke: #46c06f; stroke-width: 1.5"/>
    <path d="M 632.390625 175.149816 
L 660.110625 175.149816 
" clip-path="url(#p691192ed1c)" style="fill: none; stroke: #56c667; stroke-width: 1.5"/>
    <path d="M 632.390625 158.843934 
L 660.110625 158.843934 
" clip-path="url(#p691192ed1c)" style="fill: none; stroke: #65cb5e; stroke-width: 1.5"/>
    <path d="M 632.390625 142.538051 
L 660.110625 142.538051 
" clip-path="url(#p691192ed1c)" style="fill: none; stroke: #77d153; stroke-width: 1.5"/>
    <path d="M 632.390625 126.232169 
L 660.110625 126.232169 
" clip-path="url(#p691192ed1c)" style="fill: none; stroke: #89d548; stroke-width: 1.5"/>
    <path d="M 632.390625 109.926287 
L 660.110625 109.926287 
" clip-path="url(#p691192ed1c)" style="fill: none; stroke: #9dd93b; stroke-width: 1.5"/>
    <path d="M 632.390625 93.620404 
L 660.110625 93.620404 
" clip-path="url(#p691192ed1c)" style="fill: none; stroke: #b0dd2f; stroke-width: 1.5"/>
    <path d="M 632.390625 77.314522 
L 660.110625 77.314522 
" clip-path="url(#p691192ed1c)" style="fill: none; stroke: #c5e021; stroke-width: 1.5"/>
    <path d="M 632.390625 61.00864 
L 660.110625 61.00864 
" clip-path="url(#p691192ed1c)" style="fill: none; stroke: #d8e219; stroke-width: 1.5"/>
    <path d="M 632.390625 44.702757 
L 660.110625 44.702757 
" clip-path="url(#p691192ed1c)" style="fill: none; stroke: #ece51b; stroke-width: 1.5"/>
    <path d="M 632.390625 28.396875 
L 660.110625 28.396875 
" clip-path="url(#p691192ed1c)" style="fill: none; stroke: #fde725; stroke-width: 1.5"/>
   </g>
   <g id="patch_10">
    <path d="M 632.390625 582.796875 
L 646.250625 582.796875 
L 660.110625 582.796875 
L 660.110625 28.396875 
L 646.250625 28.396875 
L 632.390625 28.396875 
L 632.390625 582.796875 
z
" style="fill: none; stroke: #000000; stroke-width: 0.8; stroke-linejoin: miter; stroke-linecap: square"/>
   </g>
  </g>
 </g>
 <defs>
  <clipPath id="pcda5d22f61">
   <rect x="63.230625" y="28.396875" width="535.68" height="554.4"/>
  </clipPath>
  <clipPath id="pd528f76620">
   <rect x="632.390625" y="28.396875" width="27.72" height="554.4"/>
  </clipPath>
  <clipPath id="p691192ed1c">
   <path d="M 632.390625 584.296875 
L 660.110625 584.296875 
L 660.110625 26.896875 
L 632.390625 26.896875 
z
"/>
  </clipPath>
 </defs>
</svg>
