<?xml version="1.0" encoding="utf-8" standalone="no"?>
<!DOCTYPE svg PUBLIC "-//W3C//DTD SVG 1.1//EN"
  "http://www.w3.org/Graphics/SVG/1.1/DTD/svg11.dtd">
<svg xmlns:xlink="http://www.w3.org/1999/xlink" width="704.84875pt" height="622.66pt" viewBox="0 0 704.84875 622.66" xmlns="http://www.w3.org/2000/svg" version="1.1">
 <metadata>
  <rdf:RDF xmlns:dc="http://purl.org/dc/elements/1.1/" xmlns:cc="http://creativecommons.org/ns#" xmlns:rdf="http://www.w3.org/1999/02/22-rdf-syntax-ns#">
   <cc:Work>
    <dc:type rdf:resource="http://purl.org/dc/dcmitype/StillImage"/>
    <dc:date>2025-02-13T22:51:01.983149</dc:date>
    <dc:format>image/svg+xml</dc:format>
    <dc:creator>
     <cc:Agent>
      <dc:title>Matplotlib v3.6.2, https://matplotlib.org/</dc:title>
     </cc:Agent>
    </dc:creator>
   </cc:Work>
  </rdf:RDF>
 </metadata>
 <defs>
  <style type="text/css">*{stroke-linejoin: round; stroke-linecap: butt}</style>
 </defs>
 <g id="figure_1">
  <g id="patch_1">
   <path d="M 0 622.66 
L 704.84875 622.66 
L 704.84875 0 
L 0 0 
z
" style="fill: #ffffff"/>
  </g>
  <g id="axes_1">
   <g id="patch_2">
    <path d="M 63.230625 582.796875 
L 598.910625 582.796875 
L 598.910625 28.396875 
L 63.230625 28.396875 
z
" style="fill: #ffffff"/>
   </g>
   <g id="matplotlib.axis_1">
    <g id="xtick_1">
     <g id="line2d_1">
      <defs>
       <path id="m5af5fab1d8" d="M 0 0 
L 0 -3.5 
" style="stroke: #000000; stroke-width: 0.8"/>
      </defs>
      <g>
       <use xlink:href="#m5af5fab1d8" x="116.798625" y="582.796875" style="stroke: #000000; stroke-width: 0.8"/>
      </g>
     </g>
     <g id="line2d_2">
      <defs>
       <path id="m79db59e973" d="M 0 0 
L 0 3.5 
" style="stroke: #000000; stroke-width: 0.8"/>
      </defs>
      <g>
       <use xlink:href="#m79db59e973" x="116.798625" y="28.396875" style="stroke: #000000; stroke-width: 0.8"/>
      </g>
     </g>
     <g id="text_1">
      <!-- −0.6 -->
      <g transform="translate(97.372375 598.454375) scale(0.16 -0.16)">
       <defs>
        <path id="DejaVuSans-2212" d="M 678 2272 
L 4684 2272 
L 4684 1741 
L 678 1741 
L 678 2272 
z
" transform="scale(0.015625)"/>
        <path id="DejaVuSans-30" d="M 2034 4250 
Q 1547 4250 1301 3770 
Q 1056 3291 1056 2328 
Q 1056 1369 1301 889 
Q 1547 409 2034 409 
Q 2525 409 2770 889 
Q 3016 1369 3016 2328 
Q 3016 3291 2770 3770 
Q 2525 4250 2034 4250 
z
M 2034 4750 
Q 2819 4750 3233 4129 
Q 3647 3509 3647 2328 
Q 3647 1150 3233 529 
Q 2819 -91 2034 -91 
Q 1250 -91 836 529 
Q 422 1150 422 2328 
Q 422 3509 836 4129 
Q 1250 4750 2034 4750 
z
" transform="scale(0.015625)"/>
        <path id="DejaVuSans-2e" d="M 684 794 
L 1344 794 
L 1344 0 
L 684 0 
L 684 794 
z
" transform="scale(0.015625)"/>
        <path id="DejaVuSans-36" d="M 2113 2584 
Q 1688 2584 1439 2293 
Q 1191 2003 1191 1497 
Q 1191 994 1439 701 
Q 1688 409 2113 409 
Q 2538 409 2786 701 
Q 3034 994 3034 1497 
Q 3034 2003 2786 2293 
Q 2538 2584 2113 2584 
z
M 3366 4563 
L 3366 3988 
Q 3128 4100 2886 4159 
Q 2644 4219 2406 4219 
Q 1781 4219 1451 3797 
Q 1122 3375 1075 2522 
Q 1259 2794 1537 2939 
Q 1816 3084 2150 3084 
Q 2853 3084 3261 2657 
Q 3669 2231 3669 1497 
Q 3669 778 3244 343 
Q 2819 -91 2113 -91 
Q 1303 -91 875 529 
Q 447 1150 447 2328 
Q 447 3434 972 4092 
Q 1497 4750 2381 4750 
Q 2619 4750 2861 4703 
Q 3103 4656 3366 4563 
z
" transform="scale(0.015625)"/>
       </defs>
       <use xlink:href="#DejaVuSans-2212"/>
       <use xlink:href="#DejaVuSans-30" x="83.789062"/>
       <use xlink:href="#DejaVuSans-2e" x="147.412109"/>
       <use xlink:href="#DejaVuSans-36" x="179.199219"/>
      </g>
     </g>
    </g>
    <g id="xtick_2">
     <g id="line2d_3">
      <g>
       <use xlink:href="#m5af5fab1d8" x="188.222625" y="582.796875" style="stroke: #000000; stroke-width: 0.8"/>
      </g>
     </g>
     <g id="line2d_4">
      <g>
       <use xlink:href="#m79db59e973" x="188.222625" y="28.396875" style="stroke: #000000; stroke-width: 0.8"/>
      </g>
     </g>
     <g id="text_2">
      <!-- −0.4 -->
      <g transform="translate(168.796375 598.454375) scale(0.16 -0.16)">
       <defs>
        <path id="DejaVuSans-34" d="M 2419 4116 
L 825 1625 
L 2419 1625 
L 2419 4116 
z
M 2253 4666 
L 3047 4666 
L 3047 1625 
L 3713 1625 
L 3713 1100 
L 3047 1100 
L 3047 0 
L 2419 0 
L 2419 1100 
L 313 1100 
L 313 1709 
L 2253 4666 
z
" transform="scale(0.015625)"/>
       </defs>
       <use xlink:href="#DejaVuSans-2212"/>
       <use xlink:href="#DejaVuSans-30" x="83.789062"/>
       <use xlink:href="#DejaVuSans-2e" x="147.412109"/>
       <use xlink:href="#DejaVuSans-34" x="179.199219"/>
      </g>
     </g>
    </g>
    <g id="xtick_3">
     <g id="line2d_5">
      <g>
       <use xlink:href="#m5af5fab1d8" x="259.646625" y="582.796875" style="stroke: #000000; stroke-width: 0.8"/>
      </g>
     </g>
     <g id="line2d_6">
      <g>
       <use xlink:href="#m79db59e973" x="259.646625" y="28.396875" style="stroke: #000000; stroke-width: 0.8"/>
      </g>
     </g>
     <g id="text_3">
      <!-- −0.2 -->
      <g transform="translate(240.220375 598.454375) scale(0.16 -0.16)">
       <defs>
        <path id="DejaVuSans-32" d="M 1228 531 
L 3431 531 
L 3431 0 
L 469 0 
L 469 531 
Q 828 903 1448 1529 
Q 2069 2156 2228 2338 
Q 2531 2678 2651 2914 
Q 2772 3150 2772 3378 
Q 2772 3750 2511 3984 
Q 2250 4219 1831 4219 
Q 1534 4219 1204 4116 
Q 875 4013 500 3803 
L 500 4441 
Q 881 4594 1212 4672 
Q 1544 4750 1819 4750 
Q 2544 4750 2975 4387 
Q 3406 4025 3406 3419 
Q 3406 3131 3298 2873 
Q 3191 2616 2906 2266 
Q 2828 2175 2409 1742 
Q 1991 1309 1228 531 
z
" transform="scale(0.015625)"/>
       </defs>
       <use xlink:href="#DejaVuSans-2212"/>
       <use xlink:href="#DejaVuSans-30" x="83.789062"/>
       <use xlink:href="#DejaVuSans-2e" x="147.412109"/>
       <use xlink:href="#DejaVuSans-32" x="179.199219"/>
      </g>
     </g>
    </g>
    <g id="xtick_4">
     <g id="line2d_7">
      <g>
       <use xlink:href="#m5af5fab1d8" x="331.070625" y="582.796875" style="stroke: #000000; stroke-width: 0.8"/>
      </g>
     </g>
     <g id="line2d_8">
      <g>
       <use xlink:href="#m79db59e973" x="331.070625" y="28.396875" style="stroke: #000000; stroke-width: 0.8"/>
      </g>
     </g>
     <g id="text_4">
      <!-- 0.0 -->
      <g transform="translate(318.348125 598.454375) scale(0.16 -0.16)">
       <use xlink:href="#DejaVuSans-30"/>
       <use xlink:href="#DejaVuSans-2e" x="63.623047"/>
       <use xlink:href="#DejaVuSans-30" x="95.410156"/>
      </g>
     </g>
    </g>
    <g id="xtick_5">
     <g id="line2d_9">
      <g>
       <use xlink:href="#m5af5fab1d8" x="402.494625" y="582.796875" style="stroke: #000000; stroke-width: 0.8"/>
      </g>
     </g>
     <g id="line2d_10">
      <g>
       <use xlink:href="#m79db59e973" x="402.494625" y="28.396875" style="stroke: #000000; stroke-width: 0.8"/>
      </g>
     </g>
     <g id="text_5">
      <!-- 0.2 -->
      <g transform="translate(389.772125 598.454375) scale(0.16 -0.16)">
       <use xlink:href="#DejaVuSans-30"/>
       <use xlink:href="#DejaVuSans-2e" x="63.623047"/>
       <use xlink:href="#DejaVuSans-32" x="95.410156"/>
      </g>
     </g>
    </g>
    <g id="xtick_6">
     <g id="line2d_11">
      <g>
       <use xlink:href="#m5af5fab1d8" x="473.918625" y="582.796875" style="stroke: #000000; stroke-width: 0.8"/>
      </g>
     </g>
     <g id="line2d_12">
      <g>
       <use xlink:href="#m79db59e973" x="473.918625" y="28.396875" style="stroke: #000000; stroke-width: 0.8"/>
      </g>
     </g>
     <g id="text_6">
      <!-- 0.4 -->
      <g transform="translate(461.196125 598.454375) scale(0.16 -0.16)">
       <use xlink:href="#DejaVuSans-30"/>
       <use xlink:href="#DejaVuSans-2e" x="63.623047"/>
       <use xlink:href="#DejaVuSans-34" x="95.410156"/>
      </g>
     </g>
    </g>
    <g id="xtick_7">
     <g id="line2d_13">
      <g>
       <use xlink:href="#m5af5fab1d8" x="545.342625" y="582.796875" style="stroke: #000000; stroke-width: 0.8"/>
      </g>
     </g>
     <g id="line2d_14">
      <g>
       <use xlink:href="#m79db59e973" x="545.342625" y="28.396875" style="stroke: #000000; stroke-width: 0.8"/>
      </g>
     </g>
     <g id="text_7">
      <!-- 0.6 -->
      <g transform="translate(532.620125 598.454375) scale(0.16 -0.16)">
       <use xlink:href="#DejaVuSans-30"/>
       <use xlink:href="#DejaVuSans-2e" x="63.623047"/>
       <use xlink:href="#DejaVuSans-36" x="95.410156"/>
      </g>
     </g>
    </g>
    <g id="text_8">
     <!-- Direction 1 -->
     <g transform="translate(303.715156 613.380313) scale(0.1 -0.1)">
      <defs>
       <path id="DejaVuSans-44" d="M 1259 4147 
L 1259 519 
L 2022 519 
Q 2988 519 3436 956 
Q 3884 1394 3884 2338 
Q 3884 3275 3436 3711 
Q 2988 4147 2022 4147 
L 1259 4147 
z
M 628 4666 
L 1925 4666 
Q 3281 4666 3915 4102 
Q 4550 3538 4550 2338 
Q 4550 1131 3912 565 
Q 3275 0 1925 0 
L 628 0 
L 628 4666 
z
" transform="scale(0.015625)"/>
       <path id="DejaVuSans-69" d="M 603 3500 
L 1178 3500 
L 1178 0 
L 603 0 
L 603 3500 
z
M 603 4863 
L 1178 4863 
L 1178 4134 
L 603 4134 
L 603 4863 
z
" transform="scale(0.015625)"/>
       <path id="DejaVuSans-72" d="M 2631 2963 
Q 2534 3019 2420 3045 
Q 2306 3072 2169 3072 
Q 1681 3072 1420 2755 
Q 1159 2438 1159 1844 
L 1159 0 
L 581 0 
L 581 3500 
L 1159 3500 
L 1159 2956 
Q 1341 3275 1631 3429 
Q 1922 3584 2338 3584 
Q 2397 3584 2469 3576 
Q 2541 3569 2628 3553 
L 2631 2963 
z
" transform="scale(0.015625)"/>
       <path id="DejaVuSans-65" d="M 3597 1894 
L 3597 1613 
L 953 1613 
Q 991 1019 1311 708 
Q 1631 397 2203 397 
Q 2534 397 2845 478 
Q 3156 559 3463 722 
L 3463 178 
Q 3153 47 2828 -22 
Q 2503 -91 2169 -91 
Q 1331 -91 842 396 
Q 353 884 353 1716 
Q 353 2575 817 3079 
Q 1281 3584 2069 3584 
Q 2775 3584 3186 3129 
Q 3597 2675 3597 1894 
z
M 3022 2063 
Q 3016 2534 2758 2815 
Q 2500 3097 2075 3097 
Q 1594 3097 1305 2825 
Q 1016 2553 972 2059 
L 3022 2063 
z
" transform="scale(0.015625)"/>
       <path id="DejaVuSans-63" d="M 3122 3366 
L 3122 2828 
Q 2878 2963 2633 3030 
Q 2388 3097 2138 3097 
Q 1578 3097 1268 2742 
Q 959 2388 959 1747 
Q 959 1106 1268 751 
Q 1578 397 2138 397 
Q 2388 397 2633 464 
Q 2878 531 3122 666 
L 3122 134 
Q 2881 22 2623 -34 
Q 2366 -91 2075 -91 
Q 1284 -91 818 406 
Q 353 903 353 1747 
Q 353 2603 823 3093 
Q 1294 3584 2113 3584 
Q 2378 3584 2631 3529 
Q 2884 3475 3122 3366 
z
" transform="scale(0.015625)"/>
       <path id="DejaVuSans-74" d="M 1172 4494 
L 1172 3500 
L 2356 3500 
L 2356 3053 
L 1172 3053 
L 1172 1153 
Q 1172 725 1289 603 
Q 1406 481 1766 481 
L 2356 481 
L 2356 0 
L 1766 0 
Q 1100 0 847 248 
Q 594 497 594 1153 
L 594 3053 
L 172 3053 
L 172 3500 
L 594 3500 
L 594 4494 
L 1172 4494 
z
" transform="scale(0.015625)"/>
       <path id="DejaVuSans-6f" d="M 1959 3097 
Q 1497 3097 1228 2736 
Q 959 2375 959 1747 
Q 959 1119 1226 758 
Q 1494 397 1959 397 
Q 2419 397 2687 759 
Q 2956 1122 2956 1747 
Q 2956 2369 2687 2733 
Q 2419 3097 1959 3097 
z
M 1959 3584 
Q 2709 3584 3137 3096 
Q 3566 2609 3566 1747 
Q 3566 888 3137 398 
Q 2709 -91 1959 -91 
Q 1206 -91 779 398 
Q 353 888 353 1747 
Q 353 2609 779 3096 
Q 1206 3584 1959 3584 
z
" transform="scale(0.015625)"/>
       <path id="DejaVuSans-6e" d="M 3513 2113 
L 3513 0 
L 2938 0 
L 2938 2094 
Q 2938 2591 2744 2837 
Q 2550 3084 2163 3084 
Q 1697 3084 1428 2787 
Q 1159 2491 1159 1978 
L 1159 0 
L 581 0 
L 581 3500 
L 1159 3500 
L 1159 2956 
Q 1366 3272 1645 3428 
Q 1925 3584 2291 3584 
Q 2894 3584 3203 3211 
Q 3513 2838 3513 2113 
z
" transform="scale(0.015625)"/>
       <path id="DejaVuSans-20" transform="scale(0.015625)"/>
       <path id="DejaVuSans-31" d="M 794 531 
L 1825 531 
L 1825 4091 
L 703 3866 
L 703 4441 
L 1819 4666 
L 2450 4666 
L 2450 531 
L 3481 531 
L 3481 0 
L 794 0 
L 794 531 
z
" transform="scale(0.015625)"/>
      </defs>
      <use xlink:href="#DejaVuSans-44"/>
      <use xlink:href="#DejaVuSans-69" x="77.001953"/>
      <use xlink:href="#DejaVuSans-72" x="104.785156"/>
      <use xlink:href="#DejaVuSans-65" x="143.648438"/>
      <use xlink:href="#DejaVuSans-63" x="205.171875"/>
      <use xlink:href="#DejaVuSans-74" x="260.152344"/>
      <use xlink:href="#DejaVuSans-69" x="299.361328"/>
      <use xlink:href="#DejaVuSans-6f" x="327.144531"/>
      <use xlink:href="#DejaVuSans-6e" x="388.326172"/>
      <use xlink:href="#DejaVuSans-20" x="451.705078"/>
      <use xlink:href="#DejaVuSans-31" x="483.492188"/>
     </g>
    </g>
   </g>
   <g id="matplotlib.axis_2">
    <g id="ytick_1">
     <g id="line2d_15">
      <defs>
       <path id="m61f64f5e78" d="M 0 0 
L 3.5 0 
" style="stroke: #000000; stroke-width: 0.8"/>
      </defs>
      <g>
       <use xlink:href="#m61f64f5e78" x="63.230625" y="527.356875" style="stroke: #000000; stroke-width: 0.8"/>
      </g>
     </g>
     <g id="line2d_16">
      <defs>
       <path id="m644b599b97" d="M 0 0 
L -3.5 0 
" style="stroke: #000000; stroke-width: 0.8"/>
      </defs>
      <g>
       <use xlink:href="#m644b599b97" x="598.910625" y="527.356875" style="stroke: #000000; stroke-width: 0.8"/>
      </g>
     </g>
     <g id="text_9">
      <!-- −0.6 -->
      <g transform="translate(20.878125 533.435625) scale(0.16 -0.16)">
       <use xlink:href="#DejaVuSans-2212"/>
       <use xlink:href="#DejaVuSans-30" x="83.789062"/>
       <use xlink:href="#DejaVuSans-2e" x="147.412109"/>
       <use xlink:href="#DejaVuSans-36" x="179.199219"/>
      </g>
     </g>
    </g>
    <g id="ytick_2">
     <g id="line2d_17">
      <g>
       <use xlink:href="#m61f64f5e78" x="63.230625" y="453.436875" style="stroke: #000000; stroke-width: 0.8"/>
      </g>
     </g>
     <g id="line2d_18">
      <g>
       <use xlink:href="#m644b599b97" x="598.910625" y="453.436875" style="stroke: #000000; stroke-width: 0.8"/>
      </g>
     </g>
     <g id="text_10">
      <!-- −0.4 -->
      <g transform="translate(20.878125 459.515625) scale(0.16 -0.16)">
       <use xlink:href="#DejaVuSans-2212"/>
       <use xlink:href="#DejaVuSans-30" x="83.789062"/>
       <use xlink:href="#DejaVuSans-2e" x="147.412109"/>
       <use xlink:href="#DejaVuSans-34" x="179.199219"/>
      </g>
     </g>
    </g>
    <g id="ytick_3">
     <g id="line2d_19">
      <g>
       <use xlink:href="#m61f64f5e78" x="63.230625" y="379.516875" style="stroke: #000000; stroke-width: 0.8"/>
      </g>
     </g>
     <g id="line2d_20">
      <g>
       <use xlink:href="#m644b599b97" x="598.910625" y="379.516875" style="stroke: #000000; stroke-width: 0.8"/>
      </g>
     </g>
     <g id="text_11">
      <!-- −0.2 -->
      <g transform="translate(20.878125 385.595625) scale(0.16 -0.16)">
       <use xlink:href="#DejaVuSans-2212"/>
       <use xlink:href="#DejaVuSans-30" x="83.789062"/>
       <use xlink:href="#DejaVuSans-2e" x="147.412109"/>
       <use xlink:href="#DejaVuSans-32" x="179.199219"/>
      </g>
     </g>
    </g>
    <g id="ytick_4">
     <g id="line2d_21">
      <g>
       <use xlink:href="#m61f64f5e78" x="63.230625" y="305.596875" style="stroke: #000000; stroke-width: 0.8"/>
      </g>
     </g>
     <g id="line2d_22">
      <g>
       <use xlink:href="#m644b599b97" x="598.910625" y="305.596875" style="stroke: #000000; stroke-width: 0.8"/>
      </g>
     </g>
     <g id="text_12">
      <!-- 0.0 -->
      <g transform="translate(34.285625 311.675625) scale(0.16 -0.16)">
       <use xlink:href="#DejaVuSans-30"/>
       <use xlink:href="#DejaVuSans-2e" x="63.623047"/>
       <use xlink:href="#DejaVuSans-30" x="95.410156"/>
      </g>
     </g>
    </g>
    <g id="ytick_5">
     <g id="line2d_23">
      <g>
       <use xlink:href="#m61f64f5e78" x="63.230625" y="231.676875" style="stroke: #000000; stroke-width: 0.8"/>
      </g>
     </g>
     <g id="line2d_24">
      <g>
       <use xlink:href="#m644b599b97" x="598.910625" y="231.676875" style="stroke: #000000; stroke-width: 0.8"/>
      </g>
     </g>
     <g id="text_13">
      <!-- 0.2 -->
      <g transform="translate(34.285625 237.755625) scale(0.16 -0.16)">
       <use xlink:href="#DejaVuSans-30"/>
       <use xlink:href="#DejaVuSans-2e" x="63.623047"/>
       <use xlink:href="#DejaVuSans-32" x="95.410156"/>
      </g>
     </g>
    </g>
    <g id="ytick_6">
     <g id="line2d_25">
      <g>
       <use xlink:href="#m61f64f5e78" x="63.230625" y="157.756875" style="stroke: #000000; stroke-width: 0.8"/>
      </g>
     </g>
     <g id="line2d_26">
      <g>
       <use xlink:href="#m644b599b97" x="598.910625" y="157.756875" style="stroke: #000000; stroke-width: 0.8"/>
      </g>
     </g>
     <g id="text_14">
      <!-- 0.4 -->
      <g transform="translate(34.285625 163.835625) scale(0.16 -0.16)">
       <use xlink:href="#DejaVuSans-30"/>
       <use xlink:href="#DejaVuSans-2e" x="63.623047"/>
       <use xlink:href="#DejaVuSans-34" x="95.410156"/>
      </g>
     </g>
    </g>
    <g id="ytick_7">
     <g id="line2d_27">
      <g>
       <use xlink:href="#m61f64f5e78" x="63.230625" y="83.836875" style="stroke: #000000; stroke-width: 0.8"/>
      </g>
     </g>
     <g id="line2d_28">
      <g>
       <use xlink:href="#m644b599b97" x="598.910625" y="83.836875" style="stroke: #000000; stroke-width: 0.8"/>
      </g>
     </g>
     <g id="text_15">
      <!-- 0.6 -->
      <g transform="translate(34.285625 89.915625) scale(0.16 -0.16)">
       <use xlink:href="#DejaVuSans-30"/>
       <use xlink:href="#DejaVuSans-2e" x="63.623047"/>
       <use xlink:href="#DejaVuSans-36" x="95.410156"/>
      </g>
     </g>
    </g>
    <g id="text_16">
     <!-- Direction 2 -->
     <g transform="translate(14.798437 332.952344) rotate(-90) scale(0.1 -0.1)">
      <use xlink:href="#DejaVuSans-44"/>
      <use xlink:href="#DejaVuSans-69" x="77.001953"/>
      <use xlink:href="#DejaVuSans-72" x="104.785156"/>
      <use xlink:href="#DejaVuSans-65" x="143.648438"/>
      <use xlink:href="#DejaVuSans-63" x="205.171875"/>
      <use xlink:href="#DejaVuSans-74" x="260.152344"/>
      <use xlink:href="#DejaVuSans-69" x="299.361328"/>
      <use xlink:href="#DejaVuSans-6f" x="327.144531"/>
      <use xlink:href="#DejaVuSans-6e" x="388.326172"/>
      <use xlink:href="#DejaVuSans-20" x="451.705078"/>
      <use xlink:href="#DejaVuSans-32" x="483.492188"/>
     </g>
    </g>
   </g>
   <g id="PathCollection_1"/>
   <g id="PathCollection_2">
    <path d="M 313.224064 582.796875 
L 314.67226 581.302423 
L 324.153672 571.482595 
L 323.993864 560.168314 
L 325.604505 558.64331 
L 335.069214 548.854012 
L 336.536745 547.377347 
L 346.063869 537.539732 
L 345.943842 526.225451 
L 347.46899 524.601248 
L 358.401235 524.705549 
L 369.33348 524.829063 
L 379.019163 514.911149 
L 378.971024 503.596869 
L 379.0141 492.282588 
L 379.012097 480.968308 
L 379.034254 469.654017 
L 379.00752 458.339725 
L 380.265725 457.091601 
L 390.102039 447.025445 
L 391.19797 445.871215 
L 402.130215 445.716205 
L 413.06246 445.988401 
L 423.366809 435.711165 
L 423.491631 424.396873 
L 413.06246 413.896839 
L 412.118594 413.082582 
L 412.367659 401.768302 
L 412.43692 390.454016 
L 413.06246 386.507557 
L 423.335463 379.13973 
L 423.994705 376.026948 
L 425.666772 379.13973 
L 428.995326 390.454016 
L 432.682257 401.768302 
L 434.926945 407.427232 
L 437.192066 413.082582 
L 439.28982 424.396873 
L 440.655031 435.711165 
L 442.947044 447.025445 
L 443.957162 458.339725 
L 442.972396 469.654017 
L 442.470211 480.968308 
L 442.672702 492.282588 
L 444.362734 503.596869 
L 445.859195 513.009416 
L 446.162276 514.911149 
L 447.276148 526.225451 
L 449.425745 537.539732 
L 451.471113 548.854012 
L 453.823577 560.168314 
L 456.318764 571.482595 
L 456.791445 575.066137 
L 457.567656 582.796875 
" clip-path="url(#pbbe004130e)" style="fill: none; stroke: #460a5d; stroke-width: 1.5"/>
    <path d="M 63.230625 332.096543 
L 72.450089 322.568301 
L 74.162865 320.760303 
L 85.095104 320.782267 
L 96.027365 320.791548 
L 97.805518 322.568301 
L 96.027365 324.489851 
L 85.095104 324.401626 
L 75.952303 333.882587 
L 74.162865 336.001548 
L 63.230625 335.92302 
" clip-path="url(#pbbe004130e)" style="fill: none; stroke: #460a5d; stroke-width: 1.5"/>
    <path d="M 63.230625 275.534891 
L 74.162865 275.600354 
L 83.43756 265.996877 
L 74.162865 256.420841 
L 72.434221 254.682592 
L 72.378807 243.368306 
L 74.162865 241.590839 
L 83.378171 232.05402 
L 85.095104 229.844836 
L 96.027365 229.854176 
L 106.959605 229.8014 
L 108.674581 232.05402 
L 117.891845 241.65263 
L 128.824106 241.446036 
L 139.756345 241.148807 
L 141.607079 243.368306 
L 150.688585 252.768101 
L 152.364715 254.682592 
L 161.620825 264.283455 
L 172.553075 264.249839 
L 183.485325 264.224798 
L 194.417565 264.005457 
L 196.373083 265.996877 
L 194.417565 268.043469 
L 183.485325 267.719131 
L 174.241198 277.311163 
L 172.553075 279.379266 
L 161.620825 279.160512 
L 150.688585 279.086722 
L 139.756345 279.035505 
L 128.824106 279.010525 
L 119.566293 288.625449 
L 117.891845 290.366071 
L 108.654903 299.939735 
L 106.959605 301.70981 
L 96.027365 301.676497 
L 85.095104 301.693261 
L 74.162865 301.719222 
L 72.422216 299.939735 
L 72.454164 288.625449 
L 63.230625 279.067039 
" clip-path="url(#pbbe004130e)" style="fill: none; stroke: #460a5d; stroke-width: 1.5"/>
    <path d="M 176.903693 28.396875 
L 183.485325 34.746956 
L 189.07391 39.711155 
L 194.417565 44.385639 
L 202.28366 51.025436 
L 205.349805 53.591361 
L 216.282055 62.228167 
L 216.391222 62.339738 
L 227.214305 72.168751 
L 228.635585 73.654018 
L 238.146545 82.623597 
L 240.791588 84.968299 
L 249.07879 92.485646 
L 253.481172 96.282601 
L 260.011035 101.920725 
L 266.360928 107.596881 
L 270.94328 111.783131 
L 277.565925 118.911162 
L 281.875525 124.025076 
L 286.108907 130.225442 
L 291.988608 141.539733 
L 292.80777 143.193155 
L 299.147065 152.854025 
L 303.740015 158.714195 
L 307.16224 164.168305 
L 313.930117 175.482585 
L 314.67226 176.844753 
L 318.60112 186.796877 
L 314.67226 187.01565 
L 303.740015 187.632264 
L 292.80777 187.8372 
L 281.875525 187.98659 
L 270.94328 188.192374 
L 260.011035 188.351245 
L 258.568654 186.796877 
L 249.07879 176.926305 
L 247.662167 175.482585 
L 248.007404 164.168305 
L 238.146545 153.981395 
L 237.051115 152.854025 
L 227.214305 142.656369 
L 216.282055 142.783538 
L 205.349805 142.938979 
L 204.098464 141.539733 
L 194.417565 131.448148 
L 183.485325 131.742207 
L 182.119158 130.225442 
L 172.553075 120.277488 
L 171.3203 118.911162 
L 161.620825 108.835389 
L 150.688585 109.131612 
L 149.225939 107.596881 
L 139.756345 97.807354 
L 138.272785 96.282601 
L 128.824106 86.519654 
L 127.320812 84.968299 
L 117.891845 75.226422 
L 116.397474 73.654018 
L 106.959605 63.898832 
L 105.501712 62.339738 
L 96.027365 52.541712 
L 94.627902 51.025436 
L 85.095104 41.158871 
L 74.162865 41.43391 
L 72.599022 39.711155 
L 63.230625 30.001189 
" clip-path="url(#pbbe004130e)" style="fill: none; stroke: #460a5d; stroke-width: 1.5"/>
    <path d="M 413.06246 356.518618 
L 413.053258 356.511158 
L 413.06246 356.288636 
L 413.176765 356.511158 
L 413.06246 356.518618 
z
" clip-path="url(#pbbe004130e)" style="fill: none; stroke: #460a5d; stroke-width: 1.5"/>
    <path d="M 325.604505 209.761552 
L 325.28589 209.425448 
L 325.604505 202.184398 
L 331.158397 209.425448 
L 325.604505 209.761552 
z
" clip-path="url(#pbbe004130e)" style="fill: none; stroke: #460a5d; stroke-width: 1.5"/>
   </g>
   <g id="PathCollection_3">
    <path d="M 310.715198 582.796875 
L 314.67226 578.713423 
L 321.653895 571.482595 
L 321.319278 560.168314 
L 325.604505 556.11093 
L 332.620802 548.854012 
L 336.536745 544.913695 
L 343.677974 537.539732 
L 343.478097 526.225451 
L 347.46899 521.975359 
L 358.401235 522.078646 
L 369.33348 522.212695 
L 376.464057 514.911149 
L 376.275611 503.596869 
L 376.340026 492.282588 
L 376.273342 480.968308 
L 376.322516 469.654017 
L 376.375324 458.339725 
L 380.265725 454.480494 
L 387.550551 447.025445 
L 391.19797 443.183997 
L 402.130215 442.571171 
L 413.06246 443.150035 
L 420.520955 435.711165 
L 420.627548 424.396873 
L 413.06246 416.780383 
L 408.776063 413.082582 
L 409.371808 401.768302 
L 409.49174 390.454016 
L 410.686703 379.13973 
L 413.06246 377.213334 
L 421.361845 367.825444 
L 413.06246 359.387723 
L 409.513881 356.511158 
L 410.102947 345.196873 
L 410.524519 333.882587 
L 410.776172 322.568301 
L 402.130215 313.795858 
L 399.740883 311.254015 
L 391.19797 302.435812 
L 388.439573 299.939735 
L 380.265725 291.746444 
L 376.501669 288.625449 
L 377.585287 277.311163 
L 369.33348 269.041913 
L 365.856477 265.996877 
L 366.868558 254.682592 
L 358.401235 246.180648 
L 355.366926 243.368306 
L 356.028085 232.05402 
L 347.46899 223.443887 
L 344.805153 220.739734 
L 336.536745 212.31009 
L 325.604505 213.435891 
L 321.80274 209.425448 
L 322.925577 198.111168 
L 314.67226 189.844478 
L 303.740015 190.918558 
L 292.80777 190.922701 
L 281.875525 190.806018 
L 270.94328 191.103 
L 260.011035 191.30118 
L 255.831254 186.796877 
L 249.07879 179.773522 
L 244.868389 175.482585 
L 245.535431 164.168305 
L 238.146545 156.535104 
L 234.569755 152.854025 
L 227.214305 145.228753 
L 216.282055 145.426383 
L 205.349805 145.725296 
L 201.60667 141.539733 
L 194.417565 134.04565 
L 183.485325 134.635493 
L 179.513142 130.225442 
L 172.553075 122.987534 
L 168.875148 118.911162 
L 161.620825 111.375403 
L 150.688585 111.906469 
L 146.581416 107.596881 
L 139.756345 100.541224 
L 135.612774 96.282601 
L 128.824106 89.268138 
L 124.657477 84.968299 
L 117.891845 77.978142 
L 113.782312 73.654018 
L 106.959605 66.60192 
L 102.974079 62.339738 
L 96.027365 55.155698 
L 92.215297 51.025436 
L 85.095104 43.655948 
L 74.162865 44.18442 
L 70.102228 39.711155 
L 63.230625 32.589016 
" clip-path="url(#pbbe004130e)" style="fill: none; stroke: #481467; stroke-width: 1.5"/>
    <path d="M 63.230625 329.711448 
L 70.142286 322.568301 
L 74.162865 318.324197 
L 85.095104 318.378158 
L 96.027365 318.404959 
L 100.193988 322.568301 
L 96.027365 327.070936 
L 85.095104 326.869394 
L 78.332052 333.882587 
L 74.162865 338.819524 
L 63.230625 338.647829 
" clip-path="url(#pbbe004130e)" style="fill: none; stroke: #481467; stroke-width: 1.5"/>
    <path d="M 63.230625 273.050533 
L 74.162865 273.186164 
L 81.106021 265.996877 
L 74.162865 258.828133 
L 70.040232 254.682592 
L 69.92677 243.368306 
L 74.162865 239.147862 
L 81.017553 232.05402 
L 85.095104 226.807423 
L 96.027365 226.80593 
L 106.959605 226.662477 
L 111.064322 232.05402 
L 117.891845 239.164018 
L 128.824106 238.679335 
L 139.756345 238.012833 
L 144.222019 243.368306 
L 150.688585 250.061513 
L 154.734324 254.682592 
L 161.620825 261.825588 
L 172.553075 261.733456 
L 183.485325 261.687719 
L 194.417565 261.233278 
L 199.095284 265.996877 
L 194.417565 270.89245 
L 183.485325 270.184873 
L 176.617507 277.311163 
L 172.553075 282.290459 
L 161.620825 281.784674 
L 150.688585 281.618251 
L 139.756345 281.505574 
L 128.824106 281.437112 
L 121.902754 288.625449 
L 117.891845 292.794867 
L 110.998274 299.939735 
L 106.959605 304.156543 
L 96.027365 304.073092 
L 85.095104 304.105571 
L 74.162865 304.162633 
L 70.032134 299.939735 
L 70.084372 288.625449 
L 63.230625 281.522869 
" clip-path="url(#pbbe004130e)" style="fill: none; stroke: #481467; stroke-width: 1.5"/>
    <path d="M 266.531213 28.396875 
L 270.94328 33.601947 
L 276.200797 39.711155 
L 281.875525 45.976844 
L 285.976375 51.025436 
L 292.80777 59.08763 
L 295.823061 62.339738 
L 303.740015 70.674923 
L 306.208501 73.654018 
L 314.67226 83.267773 
L 315.824805 84.968299 
L 323.614627 96.282601 
L 325.604505 99.257568 
L 330.026798 107.596881 
L 335.746668 118.911162 
L 336.536745 120.420448 
L 341.014394 130.225442 
L 345.529921 141.539733 
L 347.46899 146.500622 
L 350.067664 152.854025 
L 354.680858 164.168305 
L 358.401235 172.989864 
L 359.659535 175.482585 
L 365.586819 186.796877 
L 369.33348 192.387337 
L 374.077319 198.111168 
L 380.265725 206.587632 
L 382.339929 209.425448 
L 388.065486 220.739734 
L 391.19797 225.814737 
L 394.544 232.05402 
L 400.763353 243.368306 
L 402.130215 246.317133 
L 405.672458 254.682592 
L 409.924768 265.996877 
L 413.06246 269.454819 
L 420.599004 277.311163 
L 423.994705 280.964745 
L 430.254446 288.625449 
L 434.926945 294.729999 
L 438.482085 299.939735 
L 445.859195 310.743104 
L 446.165307 311.254015 
L 451.024113 322.568301 
L 455.638726 333.882587 
L 456.791445 336.923006 
L 460.123398 345.196873 
L 464.98433 356.511158 
L 467.723685 361.842599 
L 471.065329 367.825444 
L 477.917873 379.13973 
L 478.655925 380.432574 
L 484.150463 390.454016 
L 489.255916 401.768302 
L 489.588175 402.915287 
L 492.562739 413.082582 
L 496.095426 424.396873 
L 499.482087 435.711165 
L 500.520425 438.52568 
L 503.776689 447.025445 
L 507.31666 458.339725 
L 510.039352 469.654017 
L 511.452665 475.921597 
L 512.652939 480.968308 
L 515.236139 492.282588 
L 517.789224 503.596869 
L 519.411664 514.911149 
L 521.534166 526.225451 
L 522.384905 531.485921 
L 523.350979 537.539732 
L 524.461409 548.854012 
L 526.103978 560.168314 
L 528.376326 571.482595 
L 530.98041 582.796875 
" clip-path="url(#pbbe004130e)" style="fill: none; stroke: #481467; stroke-width: 1.5"/>
   </g>
   <g id="PathCollection_4">
    <path d="M 308.206332 582.796875 
L 314.67226 576.124422 
L 319.154118 571.482595 
L 318.644693 560.168314 
L 325.604505 553.57855 
L 330.172389 548.854012 
L 336.536745 542.450043 
L 341.292078 537.539732 
L 341.012353 526.225451 
L 347.46899 519.34947 
L 358.401235 519.451744 
L 369.33348 519.596326 
L 373.908952 514.911149 
L 373.580199 503.596869 
L 373.665952 492.282588 
L 373.534587 480.968308 
L 373.610779 469.654017 
L 373.743127 458.339725 
L 380.265725 451.869386 
L 384.999063 447.025445 
L 391.19797 440.496778 
L 402.130215 439.426138 
L 413.06246 440.311669 
L 417.675101 435.711165 
L 417.763465 424.396873 
L 413.06246 419.663926 
L 405.433533 413.082582 
L 406.375957 401.768302 
L 406.54656 390.454016 
L 406.749881 379.13973 
L 413.06246 374.02114 
L 418.539779 367.825444 
L 413.06246 362.256828 
L 405.974504 356.511158 
L 406.702785 345.196873 
L 407.328052 333.882587 
L 407.682903 322.568301 
L 402.130215 316.93438 
L 396.790673 311.254015 
L 391.19797 305.48109 
L 385.074256 299.939735 
L 380.265725 295.119765 
L 372.433298 288.625449 
L 374.21876 277.311163 
L 369.33348 272.415556 
L 362.00425 265.996877 
L 363.66086 254.682592 
L 358.401235 249.401462 
L 351.891907 243.368306 
L 352.895314 232.05402 
L 347.46899 226.595339 
L 341.700687 220.739734 
L 336.536745 215.475094 
L 325.604505 217.11023 
L 318.319589 209.425448 
L 320.101326 198.111168 
L 314.67226 192.673306 
L 303.740015 194.204853 
L 292.80777 194.008202 
L 281.875525 193.625446 
L 270.94328 194.013626 
L 260.011035 194.251114 
L 253.093854 186.796877 
L 249.07879 182.620739 
L 242.07461 175.482585 
L 243.063458 164.168305 
L 238.146545 159.088813 
L 232.088395 152.854025 
L 227.214305 147.801137 
L 216.282055 148.069228 
L 205.349805 148.511613 
L 199.114877 141.539733 
L 194.417565 136.643151 
L 183.485325 137.528778 
L 176.907126 130.225442 
L 172.553075 125.69758 
L 166.429995 118.911162 
L 161.620825 113.915416 
L 150.688585 114.681325 
L 143.936893 107.596881 
L 139.756345 103.275093 
L 132.952764 96.282601 
L 128.824106 92.016622 
L 121.994142 84.968299 
L 117.891845 80.729862 
L 111.16715 73.654018 
L 106.959605 69.305009 
L 100.446447 62.339738 
L 96.027365 57.769683 
L 89.802691 51.025436 
L 85.095104 46.153025 
L 74.162865 46.934929 
L 67.605434 39.711155 
L 63.230625 35.176842 
" clip-path="url(#pbbe004130e)" style="fill: none; stroke: #481c6e; stroke-width: 1.5"/>
    <path d="M 63.230625 470.595449 
L 64.96364 469.654017 
L 74.162865 464.818148 
L 85.095104 458.349659 
L 85.11067 458.339725 
L 96.027365 449.562754 
L 99.838914 447.025445 
L 106.959605 440.509421 
L 112.472956 435.711165 
L 117.891845 431.225776 
L 124.139259 424.396873 
L 128.824106 418.232109 
L 132.092251 413.082582 
L 139.756345 402.202766 
L 140.061478 401.768302 
L 150.688585 391.023397 
L 151.1915 390.454016 
L 158.625038 379.13973 
L 160.831682 367.825444 
L 161.620825 362.017573 
L 162.331157 356.511158 
L 161.620825 353.690072 
L 159.357828 345.196873 
L 157.821705 333.882587 
L 161.620825 324.082509 
L 162.355432 322.568301 
L 172.553075 312.747632 
L 174.469692 311.254015 
L 183.485325 305.299077 
L 190.808315 299.939735 
L 194.417565 291.526837 
L 195.851923 288.625449 
L 205.349805 283.809191 
L 213.694027 277.311163 
L 216.282055 275.257301 
L 222.917072 265.996877 
L 221.17802 254.682592 
L 216.282055 249.536829 
L 205.349805 244.750066 
L 200.878888 243.368306 
L 194.417565 238.57658 
L 183.485325 235.650218 
L 172.553075 234.500183 
L 164.063017 232.05402 
L 161.620825 230.798922 
L 150.688585 224.806098 
L 142.792284 220.739734 
L 139.756345 218.009946 
L 128.824106 212.381243 
L 117.891845 210.138163 
L 108.028511 209.425448 
L 106.959605 209.266472 
L 96.027365 208.285001 
L 85.095104 208.313258 
L 74.162865 208.401236 
L 63.230625 207.836175 
" clip-path="url(#pbbe004130e)" style="fill: none; stroke: #481c6e; stroke-width: 1.5"/>
    <path d="M 63.230625 327.326352 
L 67.834484 322.568301 
L 74.162865 315.888092 
L 85.095104 315.974048 
L 96.027365 316.01837 
L 102.582458 322.568301 
L 96.027365 329.652022 
L 85.095104 329.337161 
L 80.711801 333.882587 
L 74.162865 341.637501 
L 63.230625 341.372638 
" clip-path="url(#pbbe004130e)" style="fill: none; stroke: #481c6e; stroke-width: 1.5"/>
    <path d="M 63.230625 270.566174 
L 74.162865 270.771974 
L 78.774482 265.996877 
L 74.162865 261.235425 
L 67.646243 254.682592 
L 67.474734 243.368306 
L 74.162865 236.704885 
L 78.656936 232.05402 
L 85.095104 223.770009 
L 96.027365 223.757684 
L 106.959605 223.523555 
L 113.454062 232.05402 
L 117.891845 236.675407 
L 128.824106 235.912634 
L 139.756345 234.876858 
L 146.836958 243.368306 
L 150.688585 247.354924 
L 157.103933 254.682592 
L 161.620825 259.36772 
L 172.553075 259.217074 
L 183.485325 259.15064 
L 194.417565 258.4611 
L 201.817484 265.996877 
L 194.417565 273.74143 
L 183.485325 272.650615 
L 178.993816 277.311163 
L 172.553075 285.201652 
L 161.620825 284.408836 
L 150.688585 284.14978 
L 139.756345 283.975642 
L 128.824106 283.863699 
L 124.239214 288.625449 
L 117.891845 295.223662 
L 113.341645 299.939735 
L 106.959605 306.603276 
L 96.027365 306.469686 
L 85.095104 306.517881 
L 74.162865 306.606043 
L 67.642052 299.939735 
L 67.714579 288.625449 
L 63.230625 283.9787 
" clip-path="url(#pbbe004130e)" style="fill: none; stroke: #481c6e; stroke-width: 1.5"/>
    <path d="M 63.230625 81.814479 
L 71.174328 84.968299 
L 74.162865 86.596389 
L 85.095104 93.967104 
L 88.431471 96.282601 
L 96.027365 102.743836 
L 101.514811 107.596881 
L 106.959605 112.801953 
L 111.611482 118.911162 
L 117.891845 126.024528 
L 120.756806 130.225442 
L 128.33383 141.539733 
L 128.824106 142.333754 
L 135.935378 152.854025 
L 139.756345 156.31522 
L 150.688585 163.570353 
L 151.751768 164.168305 
L 161.620825 170.439989 
L 169.348857 175.482585 
L 172.553075 178.014929 
L 183.485325 186.676471 
L 183.650965 186.796877 
L 194.417565 198.058763 
L 194.480794 198.111168 
L 205.349805 209.178725 
L 215.650136 209.425448 
L 216.282055 210.507358 
L 216.309545 209.425448 
L 227.214305 203.477154 
L 237.106134 209.425448 
L 238.146545 210.014453 
L 249.07879 219.300153 
L 250.886402 220.739734 
L 260.011035 225.269298 
L 270.94328 225.103508 
L 281.875525 225.614691 
L 291.111005 220.739734 
L 292.80777 219.694906 
L 296.665108 220.739734 
L 303.740015 223.584372 
L 314.67226 230.289504 
L 317.327046 232.05402 
L 325.604505 241.788956 
L 326.384848 243.368306 
L 336.536745 253.252095 
L 337.610048 254.682592 
L 346.764502 265.996877 
L 347.46899 266.942154 
L 353.228412 277.311163 
L 358.401235 285.685011 
L 359.911114 288.625449 
L 365.382994 299.939735 
L 369.33348 307.816354 
L 370.584931 311.254015 
L 373.522363 322.568301 
L 375.894199 333.882587 
L 380.009121 345.196873 
L 380.265725 345.736505 
L 385.413452 356.511158 
L 388.312742 367.825444 
L 385.406351 379.13973 
L 385.41323 390.454016 
L 386.573088 401.768302 
L 380.265725 410.800509 
L 369.33348 412.973591 
L 358.401235 411.742974 
L 356.934389 413.082582 
L 348.164872 424.396873 
L 347.58827 435.711165 
L 347.46899 436.375195 
L 344.951739 447.025445 
L 342.827448 458.339725 
L 336.536745 466.576595 
L 334.384749 469.654017 
L 329.600902 480.968308 
L 325.708276 492.282588 
L 325.604505 492.663053 
L 314.67226 500.910964 
L 303.740015 501.547637 
L 292.80777 498.220117 
L 284.214161 503.596869 
L 281.875525 505.284209 
L 271.446048 514.911149 
L 270.94328 515.373703 
L 260.774123 526.225451 
L 260.011035 527.101182 
L 250.903683 537.539732 
L 249.07879 539.952352 
L 239.203552 548.854012 
L 238.146545 549.923884 
L 227.214305 556.419925 
L 223.258177 560.168314 
L 216.282055 567.273525 
L 213.437652 571.482595 
L 205.349805 581.742716 
L 204.61883 582.796875 
" clip-path="url(#pbbe004130e)" style="fill: none; stroke: #481c6e; stroke-width: 1.5"/>
    <path d="M 334.703462 28.396875 
L 336.536745 31.226026 
L 341.186114 39.711155 
L 346.949091 51.025436 
L 347.46899 52.042393 
L 351.985422 62.339738 
L 356.765233 73.654018 
L 358.401235 78.100282 
L 360.815951 84.968299 
L 364.992378 96.282601 
L 369.33348 105.853596 
L 370.300189 107.596881 
L 377.446874 118.911162 
L 380.265725 122.722509 
L 386.227517 130.225442 
L 391.19797 137.293671 
L 393.882471 141.539733 
L 402.130215 152.051741 
L 402.750346 152.854025 
L 410.551012 164.168305 
L 413.06246 169.147938 
L 416.636318 175.482585 
L 423.994705 185.767181 
L 424.692119 186.796877 
L 431.087738 198.111168 
L 434.650484 209.425448 
L 434.926945 210.229294 
L 439.095027 220.739734 
L 445.383863 232.05402 
L 445.859195 233.480192 
L 449.651052 243.368306 
L 456.791445 254.246284 
L 457.064081 254.682592 
L 462.483216 265.996877 
L 467.723685 275.388194 
L 468.677962 277.311163 
L 474.129066 288.625449 
L 478.655925 297.489721 
L 480.004085 299.939735 
L 488.407061 311.254015 
L 489.588175 312.566869 
L 499.720128 322.568301 
L 500.520425 323.473599 
L 508.960242 333.882587 
L 511.452665 337.471663 
L 516.402276 345.196873 
L 522.384905 355.504508 
L 522.973995 356.511158 
L 527.950415 367.825444 
L 533.008065 379.13973 
L 533.317144 379.924143 
L 537.602826 390.454016 
L 541.899295 401.768302 
L 544.249405 407.768998 
L 546.257161 413.082582 
L 549.565071 424.396873 
L 551.193441 435.711165 
L 553.429032 447.025445 
L 555.181645 453.558774 
L 556.513434 458.339725 
L 561.471679 469.654017 
L 566.112307 480.968308 
L 566.113885 480.971682 
L 571.169144 492.282588 
L 577.046146 503.527124 
L 577.080422 503.596869 
L 581.841985 514.911149 
L 585.821247 526.225451 
L 587.978385 533.270323 
L 589.200323 537.539732 
L 591.67251 548.854012 
L 593.369733 560.168314 
L 595.165544 571.482595 
L 597.046749 582.796875 
" clip-path="url(#pbbe004130e)" style="fill: none; stroke: #481c6e; stroke-width: 1.5"/>
   </g>
   <g id="PathCollection_5">
    <path d="M 305.697466 582.796875 
L 314.67226 573.535422 
L 316.654342 571.482595 
L 315.970107 560.168314 
L 325.604505 551.04617 
L 327.723977 548.854012 
L 336.536745 539.986391 
L 338.906183 537.539732 
L 338.546609 526.225451 
L 347.46899 516.723581 
L 358.401235 516.824842 
L 369.33348 516.979957 
L 371.353846 514.911149 
L 370.884786 503.596869 
L 370.991878 492.282588 
L 370.795832 480.968308 
L 370.899041 469.654017 
L 371.110931 458.339725 
L 380.265725 449.258278 
L 382.447576 447.025445 
L 391.19797 437.80956 
L 402.130215 436.281104 
L 413.06246 437.473304 
L 414.829248 435.711165 
L 414.899382 424.396873 
L 413.06246 422.54747 
L 405.604881 424.396873 
L 402.130215 431.439987 
L 391.19797 427.272565 
L 380.265725 428.256557 
L 369.33348 433.856135 
L 367.600565 435.711165 
L 362.057543 447.025445 
L 360.406939 458.339725 
L 361.18507 469.654017 
L 358.401235 475.999898 
L 353.434065 480.968308 
L 347.46899 487.343074 
L 344.184197 492.282588 
L 336.536745 501.297002 
L 335.502364 503.596869 
L 331.102401 514.911149 
L 325.604505 524.267806 
L 323.769199 526.225451 
L 317.032005 537.539732 
L 314.67226 542.673204 
L 310.003003 548.854012 
L 303.968604 560.168314 
L 303.740015 560.494753 
L 292.80777 563.439019 
L 281.875525 561.948131 
L 270.94328 566.694828 
L 264.486853 571.482595 
L 260.011035 574.352839 
L 252.618622 582.796875 
" clip-path="url(#pbbe004130e)" style="fill: none; stroke: #482576; stroke-width: 1.5"/>
    <path d="M 63.230625 405.936553 
L 72.172598 413.082582 
L 74.162865 413.807108 
L 76.134608 413.082582 
L 85.095104 410.868216 
L 96.027365 406.358575 
L 103.521447 401.768302 
L 106.959605 399.641694 
L 117.891845 392.415627 
L 119.888344 390.454016 
L 128.824106 381.313895 
L 130.75358 379.13973 
L 137.762728 367.825444 
L 136.339037 356.511158 
L 129.482892 345.196873 
L 131.874893 333.882587 
L 135.329455 322.568301 
L 139.756345 317.599814 
L 145.566915 311.254015 
L 150.688585 307.825998 
L 161.620825 301.214231 
L 163.560461 299.939735 
L 172.553075 292.728107 
L 175.860019 288.625449 
L 172.553075 288.112845 
L 161.620825 287.032998 
L 150.688585 286.681309 
L 139.756345 286.445711 
L 128.824106 286.290286 
L 126.575674 288.625449 
L 117.891845 297.652458 
L 115.685015 299.939735 
L 106.959605 309.050009 
L 96.027365 308.866281 
L 85.095104 308.930192 
L 74.162865 309.049453 
L 65.251971 299.939735 
L 65.344787 288.625449 
L 63.230625 286.43453 
" clip-path="url(#pbbe004130e)" style="fill: none; stroke: #482576; stroke-width: 1.5"/>
    <path d="M 63.230625 353.753062 
L 74.162865 351.298263 
L 85.095104 349.727962 
L 96.027365 353.218578 
L 99.222323 356.511158 
L 96.027365 359.065315 
L 86.797811 367.825444 
L 85.095104 369.485762 
L 75.722881 379.13973 
L 74.162865 380.968954 
L 65.412721 390.454016 
L 63.230625 397.328839 
" clip-path="url(#pbbe004130e)" style="fill: none; stroke: #482576; stroke-width: 1.5"/>
    <path d="M 63.230625 324.941257 
L 65.526681 322.568301 
L 74.162865 313.451986 
L 85.095104 313.569939 
L 96.027365 313.631781 
L 104.970928 322.568301 
L 96.027365 332.233107 
L 85.095104 331.804928 
L 83.09155 333.882587 
L 74.162865 344.455477 
L 63.230625 344.097447 
" clip-path="url(#pbbe004130e)" style="fill: none; stroke: #482576; stroke-width: 1.5"/>
    <path d="M 63.230625 268.081816 
L 74.162865 268.357784 
L 76.442944 265.996877 
L 74.162865 263.642717 
L 65.252254 254.682592 
L 65.022697 243.368306 
L 74.162865 234.261908 
L 76.296319 232.05402 
L 74.162865 221.248103 
L 63.230625 222.377459 
" clip-path="url(#pbbe004130e)" style="fill: none; stroke: #482576; stroke-width: 1.5"/>
    <path d="M 63.230625 52.407949 
L 74.162865 59.354247 
L 78.882196 62.339738 
L 85.095104 66.525782 
L 95.146171 73.654018 
L 96.027365 74.326444 
L 106.959605 83.521654 
L 108.551987 73.654018 
L 106.959605 72.008097 
L 97.918815 62.339738 
L 96.027365 60.383669 
L 87.390085 51.025436 
L 85.095104 48.650102 
L 74.162865 49.685439 
L 65.10864 39.711155 
L 63.230625 37.764668 
" clip-path="url(#pbbe004130e)" style="fill: none; stroke: #482576; stroke-width: 1.5"/>
    <path d="M 386.474311 28.396875 
L 391.19797 38.857538 
L 391.686339 39.711155 
L 398.47537 51.025436 
L 402.130215 56.311979 
L 406.164307 62.339738 
L 412.765779 73.654018 
L 413.06246 74.09866 
L 420.545557 84.968299 
L 423.994705 90.597331 
L 426.710397 96.282601 
L 432.538384 107.596881 
L 434.926945 111.445641 
L 438.877695 118.911162 
L 445.629646 130.225442 
L 445.859195 130.607462 
L 453.342431 141.539733 
L 456.791445 147.812167 
L 458.977337 152.854025 
L 463.153817 164.168305 
L 467.445078 175.482585 
L 467.723685 176.271537 
L 472.685617 186.796877 
L 478.655925 196.027638 
L 480.165215 198.111168 
L 486.745232 209.425448 
L 489.588175 218.026687 
L 490.350832 220.739734 
L 494.815416 232.05402 
L 499.411094 243.368306 
L 500.520425 245.782525 
L 504.624464 254.682592 
L 509.981881 265.996877 
L 511.452665 269.070226 
L 515.334705 277.311163 
L 521.062905 288.625449 
L 522.384905 291.050458 
L 527.325354 299.939735 
L 533.317144 308.375958 
L 535.336664 311.254015 
L 544.249405 322.483366 
L 544.314457 322.568301 
L 552.731424 333.882587 
L 555.181645 337.718918 
L 559.724308 345.196873 
L 566.113885 355.313893 
L 566.878775 356.511158 
L 573.142295 367.825444 
L 577.046146 375.340049 
L 578.994202 379.13973 
L 584.132158 390.454016 
L 587.978385 400.477628 
L 588.470754 401.768302 
L 592.503531 413.082582 
L 597.18338 424.396873 
L 598.910625 429.446846 
" clip-path="url(#pbbe004130e)" style="fill: none; stroke: #482576; stroke-width: 1.5"/>
    <path d="M 402.130215 412.773136 
L 403.380106 401.768302 
L 403.60138 390.454016 
L 402.81306 379.13973 
L 402.130215 369.195135 
L 399.948058 379.13973 
L 397.533448 390.454016 
L 398.308375 401.768302 
L 402.130215 412.773136 
z
" clip-path="url(#pbbe004130e)" style="fill: none; stroke: #482576; stroke-width: 1.5"/>
    <path d="M 413.06246 370.828947 
L 415.717713 367.825444 
L 413.06246 365.125933 
L 402.400918 367.825444 
L 413.06246 370.828947 
z
" clip-path="url(#pbbe004130e)" style="fill: none; stroke: #482576; stroke-width: 1.5"/>
    <path d="M 402.130215 365.369065 
L 402.435127 356.511158 
L 403.302624 345.196873 
L 404.131585 333.882587 
L 404.589634 322.568301 
L 402.130215 320.072901 
L 393.840464 311.254015 
L 391.19797 308.526369 
L 381.65555 311.254015 
L 386.977226 322.568301 
L 391.19797 331.051749 
L 392.653409 333.882587 
L 397.112557 345.196873 
L 400.938262 356.511158 
L 402.130215 365.369065 
z
" clip-path="url(#pbbe004130e)" style="fill: none; stroke: #482576; stroke-width: 1.5"/>
    <path d="M 380.265725 308.615008 
L 381.70894 299.939735 
L 380.265725 298.493086 
L 376.263064 299.939735 
L 380.265725 308.615008 
z
" clip-path="url(#pbbe004130e)" style="fill: none; stroke: #482576; stroke-width: 1.5"/>
    <path d="M 183.485325 285.081245 
L 194.417565 279.674578 
L 197.564453 277.311163 
L 194.417565 276.590411 
L 183.485325 275.116357 
L 181.370126 277.311163 
L 183.485325 285.081245 
z
" clip-path="url(#pbbe004130e)" style="fill: none; stroke: #482576; stroke-width: 1.5"/>
    <path d="M 369.33348 284.717191 
L 370.852234 277.311163 
L 369.33348 275.789199 
L 364.863862 277.311163 
L 369.33348 284.717191 
z
" clip-path="url(#pbbe004130e)" style="fill: none; stroke: #482576; stroke-width: 1.5"/>
    <path d="M 205.349805 269.642978 
L 209.550903 265.996877 
L 205.349805 257.784662 
L 204.539684 265.996877 
L 205.349805 269.642978 
z
" clip-path="url(#pbbe004130e)" style="fill: none; stroke: #482576; stroke-width: 1.5"/>
    <path d="M 161.620825 256.909852 
L 172.553075 256.700691 
L 183.485325 256.613562 
L 194.417565 255.688921 
L 202.764877 254.682592 
L 194.417565 251.215321 
L 183.485325 247.77354 
L 172.553075 246.809832 
L 161.620825 244.01654 
L 159.473542 254.682592 
L 161.620825 256.909852 
z
" clip-path="url(#pbbe004130e)" style="fill: none; stroke: #482576; stroke-width: 1.5"/>
    <path d="M 358.401235 264.957733 
L 360.453161 254.682592 
L 358.401235 252.622276 
L 351.635762 254.682592 
L 358.401235 264.957733 
z
" clip-path="url(#pbbe004130e)" style="fill: none; stroke: #482576; stroke-width: 1.5"/>
    <path d="M 150.688585 244.648336 
L 160.480543 243.368306 
L 150.688585 238.264028 
L 149.451898 243.368306 
L 150.688585 244.648336 
z
" clip-path="url(#pbbe004130e)" style="fill: none; stroke: #482576; stroke-width: 1.5"/>
    <path d="M 347.46899 247.9971 
L 348.416887 243.368306 
L 349.762542 232.05402 
L 347.46899 229.746791 
L 338.457226 232.05402 
L 343.81868 243.368306 
L 347.46899 247.9971 
z
" clip-path="url(#pbbe004130e)" style="fill: none; stroke: #482576; stroke-width: 1.5"/>
    <path d="M 117.891845 234.186796 
L 128.824106 233.145932 
L 137.548894 232.05402 
L 128.824106 227.396404 
L 117.891845 223.566424 
L 115.843803 232.05402 
L 117.891845 234.186796 
z
" clip-path="url(#pbbe004130e)" style="fill: none; stroke: #482576; stroke-width: 1.5"/>
    <path d="M 336.536745 229.899722 
L 338.59622 220.739734 
L 336.536745 218.640098 
L 325.801955 220.739734 
L 336.536745 229.899722 
z
" clip-path="url(#pbbe004130e)" style="fill: none; stroke: #482576; stroke-width: 1.5"/>
    <path d="M 314.67226 210.218768 
L 314.836439 209.425448 
L 317.277074 198.111168 
L 314.67226 195.502133 
L 303.740015 197.491147 
L 292.80777 197.093702 
L 281.875525 196.444874 
L 270.94328 196.924253 
L 260.011035 197.201049 
L 253.038771 198.111168 
L 260.011035 203.130628 
L 270.94328 204.478556 
L 281.875525 205.456491 
L 292.80777 202.458813 
L 303.740015 201.111059 
L 313.768306 209.425448 
L 314.67226 210.218768 
z
" clip-path="url(#pbbe004130e)" style="fill: none; stroke: #482576; stroke-width: 1.5"/>
    <path d="M 249.07879 195.022891 
L 250.356454 186.796877 
L 249.07879 185.467957 
L 240.216216 186.796877 
L 249.07879 195.022891 
z
" clip-path="url(#pbbe004130e)" style="fill: none; stroke: #482576; stroke-width: 1.5"/>
    <path d="M 238.146545 184.402251 
L 239.280832 175.482585 
L 240.591485 164.168305 
L 238.146545 161.642523 
L 229.607035 152.854025 
L 227.214305 150.373521 
L 216.282055 150.712073 
L 205.349805 151.29793 
L 196.623083 141.539733 
L 194.417565 139.240652 
L 183.485325 140.422064 
L 174.301111 130.225442 
L 172.553075 128.407626 
L 163.984843 118.911162 
L 161.620825 116.45543 
L 150.688585 117.456181 
L 141.292369 107.596881 
L 139.756345 106.008962 
L 128.908771 107.596881 
L 139.413409 118.911162 
L 139.756345 119.361309 
L 150.688585 129.953777 
L 151.215574 130.225442 
L 161.620825 137.26876 
L 169.995162 141.539733 
L 172.553075 143.271434 
L 183.485325 149.764409 
L 188.756336 152.854025 
L 194.417565 156.872129 
L 205.349805 163.248425 
L 207.267179 164.168305 
L 216.282055 169.021261 
L 227.214305 174.654575 
L 228.199343 175.482585 
L 238.146545 184.402251 
z
" clip-path="url(#pbbe004130e)" style="fill: none; stroke: #482576; stroke-width: 1.5"/>
    <path d="M 128.824106 107.504737 
L 130.292753 96.282601 
L 128.824106 94.765106 
L 119.638462 96.282601 
L 128.824106 107.504737 
z
" clip-path="url(#pbbe004130e)" style="fill: none; stroke: #482576; stroke-width: 1.5"/>
    <path d="M 117.891845 94.441792 
L 119.330807 84.968299 
L 117.891845 83.481582 
L 108.509753 84.968299 
L 117.891845 94.441792 
z
" clip-path="url(#pbbe004130e)" style="fill: none; stroke: #482576; stroke-width: 1.5"/>
   </g>
   <g id="PathCollection_6">
    <path d="M 455.748118 28.396875 
L 456.791445 30.948654 
L 459.525367 39.711155 
L 463.122871 51.025436 
L 466.549374 62.339738 
L 467.723685 66.03684 
L 470.098708 73.654018 
L 473.981281 84.968299 
L 478.655925 94.838263 
L 479.319398 96.282601 
L 485.894745 107.596881 
L 489.588175 114.389152 
L 491.9935 118.911162 
L 497.816634 130.225442 
L 500.520425 136.002929 
L 503.354198 141.539733 
L 508.311606 152.854025 
L 511.452665 158.787674 
L 514.64474 164.168305 
L 522.384905 175.130204 
L 522.606655 175.482585 
L 527.494407 186.796877 
L 531.601561 198.111168 
L 533.317144 203.358792 
L 535.224432 209.425448 
L 538.725013 220.739734 
L 541.596754 232.05402 
L 544.249405 238.591517 
L 546.191976 243.368306 
L 551.314508 254.682592 
L 555.181645 264.115242 
L 555.919013 265.996877 
L 559.537826 277.311163 
L 564.589234 288.625449 
L 566.113885 290.910294 
L 571.779756 299.939735 
L 577.046146 307.330656 
L 579.832529 311.254015 
L 587.523685 322.568301 
L 587.978385 323.287243 
L 594.485324 333.882587 
L 598.910625 342.317594 
" clip-path="url(#pbbe004130e)" style="fill: none; stroke: #472d7b; stroke-width: 1.5"/>
   </g>
   <g id="PathCollection_7">
    <path d="M 501.595024 28.396875 
L 503.85194 39.711155 
L 505.919808 51.025436 
L 508.36612 62.339738 
L 511.291158 73.654018 
L 511.452665 74.117985 
L 515.629241 84.968299 
L 522.257848 96.282601 
L 522.384905 96.473295 
L 530.744622 107.596881 
L 533.317144 110.834959 
L 539.624209 118.911162 
L 544.249405 126.630109 
L 546.420121 130.225442 
L 553.611393 141.539733 
L 555.181645 143.938499 
L 560.623543 152.854025 
L 565.390449 164.168305 
L 566.113885 166.297914 
L 569.027907 175.482585 
L 572.501076 186.796877 
L 576.408794 198.111168 
L 577.046146 200.065063 
L 580.040623 209.425448 
L 582.950489 220.739734 
L 585.905512 232.05402 
L 587.978385 238.433467 
L 589.581541 243.368306 
L 593.589459 254.682592 
L 598.535359 265.996877 
L 598.910625 266.942334 
" clip-path="url(#pbbe004130e)" style="fill: none; stroke: #453581; stroke-width: 1.5"/>
   </g>
   <g id="PathCollection_8">
    <path d="M 540.369769 28.396875 
L 543.18002 39.711155 
L 544.249405 43.377849 
L 546.820582 51.025436 
L 551.99145 62.339738 
L 555.181645 67.423301 
L 559.562036 73.654018 
L 566.113885 82.127008 
L 568.163991 84.968299 
L 575.516463 96.282601 
L 577.046146 98.865948 
L 582.226571 107.596881 
L 587.978385 116.668538 
L 589.350487 118.911162 
L 596.004377 130.225442 
L 598.910625 136.201061 
" clip-path="url(#pbbe004130e)" style="fill: none; stroke: #433d84; stroke-width: 1.5"/>
   </g>
   <g id="PathCollection_9">
    <path d="M 577.112017 28.396875 
L 587.978385 39.66975 
L 588.018086 39.711155 
L 598.910625 51.009095 
" clip-path="url(#pbbe004130e)" style="fill: none; stroke: #404588; stroke-width: 1.5"/>
   </g>
   <g id="PathCollection_10">
    <path d="M 577.482762 28.396875 
L 587.978385 39.285135 
L 588.386866 39.711155 
L 598.910625 50.626589 
" clip-path="url(#pbbe004130e)" style="fill: none; stroke: #3d4d8a; stroke-width: 1.5"/>
   </g>
   <g id="PathCollection_11">
    <path d="M 577.853508 28.396875 
L 587.978385 38.90052 
L 588.755647 39.711155 
L 598.910625 50.244083 
" clip-path="url(#pbbe004130e)" style="fill: none; stroke: #3a538b; stroke-width: 1.5"/>
   </g>
   <g id="PathCollection_12">
    <path d="M 578.224253 28.396875 
L 587.978385 38.515905 
L 589.124427 39.711155 
L 598.910625 49.861577 
" clip-path="url(#pbbe004130e)" style="fill: none; stroke: #375b8d; stroke-width: 1.5"/>
   </g>
   <g id="PathCollection_13">
    <path d="M 578.594999 28.396875 
L 587.978385 38.13129 
L 589.493208 39.711155 
L 598.910625 49.479071 
" clip-path="url(#pbbe004130e)" style="fill: none; stroke: #34618d; stroke-width: 1.5"/>
   </g>
   <g id="PathCollection_14">
    <path d="M 578.965744 28.396875 
L 587.978385 37.746675 
L 589.861989 39.711155 
L 598.910625 49.096565 
" clip-path="url(#pbbe004130e)" style="fill: none; stroke: #31688e; stroke-width: 1.5"/>
   </g>
   <g id="PathCollection_15">
    <path d="M 579.33649 28.396875 
L 587.978385 37.36206 
L 590.230769 39.711155 
L 598.910625 48.714059 
" clip-path="url(#pbbe004130e)" style="fill: none; stroke: #2e6e8e; stroke-width: 1.5"/>
   </g>
   <g id="PathCollection_16">
    <path d="M 579.707235 28.396875 
L 587.978385 36.977446 
L 590.59955 39.711155 
L 598.910625 48.331554 
" clip-path="url(#pbbe004130e)" style="fill: none; stroke: #2b748e; stroke-width: 1.5"/>
   </g>
   <g id="PathCollection_17">
    <path d="M 580.077981 28.396875 
L 587.978385 36.592831 
L 590.96833 39.711155 
L 598.910625 47.949048 
" clip-path="url(#pbbe004130e)" style="fill: none; stroke: #297b8e; stroke-width: 1.5"/>
   </g>
   <g id="PathCollection_18">
    <path d="M 580.448726 28.396875 
L 587.978385 36.208216 
L 591.337111 39.711155 
L 598.910625 47.566542 
" clip-path="url(#pbbe004130e)" style="fill: none; stroke: #26818e; stroke-width: 1.5"/>
   </g>
   <g id="PathCollection_19">
    <path d="M 580.819472 28.396875 
L 587.978385 35.823601 
L 591.705891 39.711155 
L 598.910625 47.184036 
" clip-path="url(#pbbe004130e)" style="fill: none; stroke: #24878e; stroke-width: 1.5"/>
   </g>
   <g id="PathCollection_20">
    <path d="M 581.190217 28.396875 
L 587.978385 35.438986 
L 592.074672 39.711155 
L 598.910625 46.80153 
" clip-path="url(#pbbe004130e)" style="fill: none; stroke: #228d8d; stroke-width: 1.5"/>
   </g>
   <g id="PathCollection_21">
    <path d="M 581.560963 28.396875 
L 587.978385 35.054371 
L 592.443452 39.711155 
L 598.910625 46.419024 
" clip-path="url(#pbbe004130e)" style="fill: none; stroke: #20938c; stroke-width: 1.5"/>
   </g>
   <g id="PathCollection_22">
    <path d="M 581.931708 28.396875 
L 587.978385 34.669756 
L 592.812233 39.711155 
L 598.910625 46.036518 
" clip-path="url(#pbbe004130e)" style="fill: none; stroke: #1f998a; stroke-width: 1.5"/>
   </g>
   <g id="PathCollection_23">
    <path d="M 582.302454 28.396875 
L 587.978385 34.285141 
L 593.181013 39.711155 
L 598.910625 45.654013 
" clip-path="url(#pbbe004130e)" style="fill: none; stroke: #1fa088; stroke-width: 1.5"/>
   </g>
   <g id="PathCollection_24">
    <path d="M 582.673199 28.396875 
L 587.978385 33.900526 
L 593.549794 39.711155 
L 598.910625 45.271507 
" clip-path="url(#pbbe004130e)" style="fill: none; stroke: #21a585; stroke-width: 1.5"/>
   </g>
   <g id="PathCollection_25">
    <path d="M 583.043945 28.396875 
L 587.978385 33.515911 
L 593.918574 39.711155 
L 598.910625 44.889001 
" clip-path="url(#pbbe004130e)" style="fill: none; stroke: #25ac82; stroke-width: 1.5"/>
   </g>
   <g id="PathCollection_26">
    <path d="M 583.41469 28.396875 
L 587.978385 33.131296 
L 594.287355 39.711155 
L 598.910625 44.506495 
" clip-path="url(#pbbe004130e)" style="fill: none; stroke: #2db27d; stroke-width: 1.5"/>
   </g>
   <g id="PathCollection_27">
    <path d="M 583.785436 28.396875 
L 587.978385 32.746681 
L 594.656135 39.711155 
L 598.910625 44.123989 
" clip-path="url(#pbbe004130e)" style="fill: none; stroke: #35b779; stroke-width: 1.5"/>
   </g>
   <g id="PathCollection_28">
    <path d="M 584.156181 28.396875 
L 587.978385 32.362066 
L 595.024916 39.711155 
L 598.910625 43.741483 
" clip-path="url(#pbbe004130e)" style="fill: none; stroke: #40bd72; stroke-width: 1.5"/>
   </g>
   <g id="PathCollection_29">
    <path d="M 584.526927 28.396875 
L 587.978385 31.977451 
L 595.393696 39.711155 
L 598.910625 43.358977 
" clip-path="url(#pbbe004130e)" style="fill: none; stroke: #4cc26c; stroke-width: 1.5"/>
   </g>
   <g id="PathCollection_30">
    <path d="M 584.897672 28.396875 
L 587.978385 31.592836 
L 595.762477 39.711155 
L 598.910625 42.976472 
" clip-path="url(#pbbe004130e)" style="fill: none; stroke: #5ac864; stroke-width: 1.5"/>
   </g>
   <g id="PathCollection_31">
    <path d="M 585.268418 28.396875 
L 587.978385 31.208221 
L 596.131257 39.711155 
L 598.910625 42.593966 
" clip-path="url(#pbbe004130e)" style="fill: none; stroke: #67cc5c; stroke-width: 1.5"/>
   </g>
   <g id="PathCollection_32">
    <path d="M 585.639163 28.396875 
L 587.978385 30.823607 
L 596.500038 39.711155 
L 598.910625 42.21146 
" clip-path="url(#pbbe004130e)" style="fill: none; stroke: #77d153; stroke-width: 1.5"/>
   </g>
   <g id="PathCollection_33">
    <path d="M 586.009909 28.396875 
L 587.978385 30.438992 
L 596.868819 39.711155 
L 598.910625 41.828954 
" clip-path="url(#pbbe004130e)" style="fill: none; stroke: #89d548; stroke-width: 1.5"/>
   </g>
   <g id="PathCollection_34">
    <path d="M 586.380654 28.396875 
L 587.978385 30.054377 
L 597.237599 39.711155 
L 598.910625 41.446448 
" clip-path="url(#pbbe004130e)" style="fill: none; stroke: #98d83e; stroke-width: 1.5"/>
   </g>
   <g id="PathCollection_35">
    <path d="M 586.7514 28.396875 
L 587.978385 29.669762 
L 597.60638 39.711155 
L 598.910625 41.063942 
" clip-path="url(#pbbe004130e)" style="fill: none; stroke: #aadc32; stroke-width: 1.5"/>
   </g>
   <g id="PathCollection_36">
    <path d="M 587.122145 28.396875 
L 587.978385 29.285147 
L 597.97516 39.711155 
L 598.910625 40.681436 
" clip-path="url(#pbbe004130e)" style="fill: none; stroke: #bade28; stroke-width: 1.5"/>
   </g>
   <g id="PathCollection_37">
    <path d="M 587.492891 28.396875 
L 587.978385 28.900532 
L 598.343941 39.711155 
L 598.910625 40.298931 
" clip-path="url(#pbbe004130e)" style="fill: none; stroke: #cde11d; stroke-width: 1.5"/>
   </g>
   <g id="PathCollection_38">
    <path d="M 587.863636 28.396875 
L 587.978385 28.515917 
L 598.712721 39.711155 
L 598.910625 39.916425 
" clip-path="url(#pbbe004130e)" style="fill: none; stroke: #dde318; stroke-width: 1.5"/>
   </g>
   <g id="PathCollection_39">
    <path d="M 598.27478 28.396875 
L 598.910625 29.350337 
" clip-path="url(#pbbe004130e)" style="fill: none; stroke: #efe51c; stroke-width: 1.5"/>
   </g>
   <g id="PathCollection_40"/>
   <g id="line2d_29">
    <defs>
     <path id="md1dca10d6e" d="M 0 2.5 
C 0.663008 2.5 1.29895 2.236584 1.767767 1.767767 
C 2.236584 1.29895 2.5 0.663008 2.5 0 
C 2.5 -0.663008 2.236584 -1.29895 1.767767 -1.767767 
C 1.29895 -2.236584 0.663008 -2.5 0 -2.5 
C -0.663008 -2.5 -1.29895 -2.236584 -1.767767 -1.767767 
C -2.236584 -1.29895 -2.5 -0.663008 -2.5 0 
C -2.5 0.663008 -2.236584 1.29895 -1.767767 1.767767 
C -1.29895 2.236584 -0.663008 2.5 0 2.5 
z
" style="stroke: #ff0000"/>
    </defs>
    <g clip-path="url(#pbbe004130e)">
     <use xlink:href="#md1dca10d6e" x="331.070625" y="305.596875" style="fill: #ff0000; stroke: #ff0000"/>
    </g>
   </g>
   <g id="patch_3">
    <path d="M 63.230625 582.796875 
L 63.230625 28.396875 
" style="fill: none; stroke: #000000; stroke-width: 0.8; stroke-linejoin: miter; stroke-linecap: square"/>
   </g>
   <g id="patch_4">
    <path d="M 598.910625 582.796875 
L 598.910625 28.396875 
" style="fill: none; stroke: #000000; stroke-width: 0.8; stroke-linejoin: miter; stroke-linecap: square"/>
   </g>
   <g id="patch_5">
    <path d="M 63.230625 582.796875 
L 598.910625 582.796875 
" style="fill: none; stroke: #000000; stroke-width: 0.8; stroke-linejoin: miter; stroke-linecap: square"/>
   </g>
   <g id="patch_6">
    <path d="M 63.230625 28.396875 
L 598.910625 28.396875 
" style="fill: none; stroke: #000000; stroke-width: 0.8; stroke-linejoin: miter; stroke-linecap: square"/>
   </g>
   <g id="text_17">
    <!-- Loss Landscape (bkg=0.6, d=0.75, n=50) - Contour -->
    <g transform="translate(71.444062 22.396875) scale(0.2 -0.2)">
     <defs>
      <path id="DejaVuSans-4c" d="M 628 4666 
L 1259 4666 
L 1259 531 
L 3531 531 
L 3531 0 
L 628 0 
L 628 4666 
z
" transform="scale(0.015625)"/>
      <path id="DejaVuSans-73" d="M 2834 3397 
L 2834 2853 
Q 2591 2978 2328 3040 
Q 2066 3103 1784 3103 
Q 1356 3103 1142 2972 
Q 928 2841 928 2578 
Q 928 2378 1081 2264 
Q 1234 2150 1697 2047 
L 1894 2003 
Q 2506 1872 2764 1633 
Q 3022 1394 3022 966 
Q 3022 478 2636 193 
Q 2250 -91 1575 -91 
Q 1294 -91 989 -36 
Q 684 19 347 128 
L 347 722 
Q 666 556 975 473 
Q 1284 391 1588 391 
Q 1994 391 2212 530 
Q 2431 669 2431 922 
Q 2431 1156 2273 1281 
Q 2116 1406 1581 1522 
L 1381 1569 
Q 847 1681 609 1914 
Q 372 2147 372 2553 
Q 372 3047 722 3315 
Q 1072 3584 1716 3584 
Q 2034 3584 2315 3537 
Q 2597 3491 2834 3397 
z
" transform="scale(0.015625)"/>
      <path id="DejaVuSans-61" d="M 2194 1759 
Q 1497 1759 1228 1600 
Q 959 1441 959 1056 
Q 959 750 1161 570 
Q 1363 391 1709 391 
Q 2188 391 2477 730 
Q 2766 1069 2766 1631 
L 2766 1759 
L 2194 1759 
z
M 3341 1997 
L 3341 0 
L 2766 0 
L 2766 531 
Q 2569 213 2275 61 
Q 1981 -91 1556 -91 
Q 1019 -91 701 211 
Q 384 513 384 1019 
Q 384 1609 779 1909 
Q 1175 2209 1959 2209 
L 2766 2209 
L 2766 2266 
Q 2766 2663 2505 2880 
Q 2244 3097 1772 3097 
Q 1472 3097 1187 3025 
Q 903 2953 641 2809 
L 641 3341 
Q 956 3463 1253 3523 
Q 1550 3584 1831 3584 
Q 2591 3584 2966 3190 
Q 3341 2797 3341 1997 
z
" transform="scale(0.015625)"/>
      <path id="DejaVuSans-64" d="M 2906 2969 
L 2906 4863 
L 3481 4863 
L 3481 0 
L 2906 0 
L 2906 525 
Q 2725 213 2448 61 
Q 2172 -91 1784 -91 
Q 1150 -91 751 415 
Q 353 922 353 1747 
Q 353 2572 751 3078 
Q 1150 3584 1784 3584 
Q 2172 3584 2448 3432 
Q 2725 3281 2906 2969 
z
M 947 1747 
Q 947 1113 1208 752 
Q 1469 391 1925 391 
Q 2381 391 2643 752 
Q 2906 1113 2906 1747 
Q 2906 2381 2643 2742 
Q 2381 3103 1925 3103 
Q 1469 3103 1208 2742 
Q 947 2381 947 1747 
z
" transform="scale(0.015625)"/>
      <path id="DejaVuSans-70" d="M 1159 525 
L 1159 -1331 
L 581 -1331 
L 581 3500 
L 1159 3500 
L 1159 2969 
Q 1341 3281 1617 3432 
Q 1894 3584 2278 3584 
Q 2916 3584 3314 3078 
Q 3713 2572 3713 1747 
Q 3713 922 3314 415 
Q 2916 -91 2278 -91 
Q 1894 -91 1617 61 
Q 1341 213 1159 525 
z
M 3116 1747 
Q 3116 2381 2855 2742 
Q 2594 3103 2138 3103 
Q 1681 3103 1420 2742 
Q 1159 2381 1159 1747 
Q 1159 1113 1420 752 
Q 1681 391 2138 391 
Q 2594 391 2855 752 
Q 3116 1113 3116 1747 
z
" transform="scale(0.015625)"/>
      <path id="DejaVuSans-28" d="M 1984 4856 
Q 1566 4138 1362 3434 
Q 1159 2731 1159 2009 
Q 1159 1288 1364 580 
Q 1569 -128 1984 -844 
L 1484 -844 
Q 1016 -109 783 600 
Q 550 1309 550 2009 
Q 550 2706 781 3412 
Q 1013 4119 1484 4856 
L 1984 4856 
z
" transform="scale(0.015625)"/>
      <path id="DejaVuSans-62" d="M 3116 1747 
Q 3116 2381 2855 2742 
Q 2594 3103 2138 3103 
Q 1681 3103 1420 2742 
Q 1159 2381 1159 1747 
Q 1159 1113 1420 752 
Q 1681 391 2138 391 
Q 2594 391 2855 752 
Q 3116 1113 3116 1747 
z
M 1159 2969 
Q 1341 3281 1617 3432 
Q 1894 3584 2278 3584 
Q 2916 3584 3314 3078 
Q 3713 2572 3713 1747 
Q 3713 922 3314 415 
Q 2916 -91 2278 -91 
Q 1894 -91 1617 61 
Q 1341 213 1159 525 
L 1159 0 
L 581 0 
L 581 4863 
L 1159 4863 
L 1159 2969 
z
" transform="scale(0.015625)"/>
      <path id="DejaVuSans-6b" d="M 581 4863 
L 1159 4863 
L 1159 1991 
L 2875 3500 
L 3609 3500 
L 1753 1863 
L 3688 0 
L 2938 0 
L 1159 1709 
L 1159 0 
L 581 0 
L 581 4863 
z
" transform="scale(0.015625)"/>
      <path id="DejaVuSans-67" d="M 2906 1791 
Q 2906 2416 2648 2759 
Q 2391 3103 1925 3103 
Q 1463 3103 1205 2759 
Q 947 2416 947 1791 
Q 947 1169 1205 825 
Q 1463 481 1925 481 
Q 2391 481 2648 825 
Q 2906 1169 2906 1791 
z
M 3481 434 
Q 3481 -459 3084 -895 
Q 2688 -1331 1869 -1331 
Q 1566 -1331 1297 -1286 
Q 1028 -1241 775 -1147 
L 775 -588 
Q 1028 -725 1275 -790 
Q 1522 -856 1778 -856 
Q 2344 -856 2625 -561 
Q 2906 -266 2906 331 
L 2906 616 
Q 2728 306 2450 153 
Q 2172 0 1784 0 
Q 1141 0 747 490 
Q 353 981 353 1791 
Q 353 2603 747 3093 
Q 1141 3584 1784 3584 
Q 2172 3584 2450 3431 
Q 2728 3278 2906 2969 
L 2906 3500 
L 3481 3500 
L 3481 434 
z
" transform="scale(0.015625)"/>
      <path id="DejaVuSans-3d" d="M 678 2906 
L 4684 2906 
L 4684 2381 
L 678 2381 
L 678 2906 
z
M 678 1631 
L 4684 1631 
L 4684 1100 
L 678 1100 
L 678 1631 
z
" transform="scale(0.015625)"/>
      <path id="DejaVuSans-2c" d="M 750 794 
L 1409 794 
L 1409 256 
L 897 -744 
L 494 -744 
L 750 256 
L 750 794 
z
" transform="scale(0.015625)"/>
      <path id="DejaVuSans-37" d="M 525 4666 
L 3525 4666 
L 3525 4397 
L 1831 0 
L 1172 0 
L 2766 4134 
L 525 4134 
L 525 4666 
z
" transform="scale(0.015625)"/>
      <path id="DejaVuSans-35" d="M 691 4666 
L 3169 4666 
L 3169 4134 
L 1269 4134 
L 1269 2991 
Q 1406 3038 1543 3061 
Q 1681 3084 1819 3084 
Q 2600 3084 3056 2656 
Q 3513 2228 3513 1497 
Q 3513 744 3044 326 
Q 2575 -91 1722 -91 
Q 1428 -91 1123 -41 
Q 819 9 494 109 
L 494 744 
Q 775 591 1075 516 
Q 1375 441 1709 441 
Q 2250 441 2565 725 
Q 2881 1009 2881 1497 
Q 2881 1984 2565 2268 
Q 2250 2553 1709 2553 
Q 1456 2553 1204 2497 
Q 953 2441 691 2322 
L 691 4666 
z
" transform="scale(0.015625)"/>
      <path id="DejaVuSans-29" d="M 513 4856 
L 1013 4856 
Q 1481 4119 1714 3412 
Q 1947 2706 1947 2009 
Q 1947 1309 1714 600 
Q 1481 -109 1013 -844 
L 513 -844 
Q 928 -128 1133 580 
Q 1338 1288 1338 2009 
Q 1338 2731 1133 3434 
Q 928 4138 513 4856 
z
" transform="scale(0.015625)"/>
      <path id="DejaVuSans-2d" d="M 313 2009 
L 1997 2009 
L 1997 1497 
L 313 1497 
L 313 2009 
z
" transform="scale(0.015625)"/>
      <path id="DejaVuSans-43" d="M 4122 4306 
L 4122 3641 
Q 3803 3938 3442 4084 
Q 3081 4231 2675 4231 
Q 1875 4231 1450 3742 
Q 1025 3253 1025 2328 
Q 1025 1406 1450 917 
Q 1875 428 2675 428 
Q 3081 428 3442 575 
Q 3803 722 4122 1019 
L 4122 359 
Q 3791 134 3420 21 
Q 3050 -91 2638 -91 
Q 1578 -91 968 557 
Q 359 1206 359 2328 
Q 359 3453 968 4101 
Q 1578 4750 2638 4750 
Q 3056 4750 3426 4639 
Q 3797 4528 4122 4306 
z
" transform="scale(0.015625)"/>
      <path id="DejaVuSans-75" d="M 544 1381 
L 544 3500 
L 1119 3500 
L 1119 1403 
Q 1119 906 1312 657 
Q 1506 409 1894 409 
Q 2359 409 2629 706 
Q 2900 1003 2900 1516 
L 2900 3500 
L 3475 3500 
L 3475 0 
L 2900 0 
L 2900 538 
Q 2691 219 2414 64 
Q 2138 -91 1772 -91 
Q 1169 -91 856 284 
Q 544 659 544 1381 
z
M 1991 3584 
L 1991 3584 
z
" transform="scale(0.015625)"/>
     </defs>
     <use xlink:href="#DejaVuSans-4c"/>
     <use xlink:href="#DejaVuSans-6f" x="53.962891"/>
     <use xlink:href="#DejaVuSans-73" x="115.144531"/>
     <use xlink:href="#DejaVuSans-73" x="167.244141"/>
     <use xlink:href="#DejaVuSans-20" x="219.34375"/>
     <use xlink:href="#DejaVuSans-4c" x="251.130859"/>
     <use xlink:href="#DejaVuSans-61" x="306.84375"/>
     <use xlink:href="#DejaVuSans-6e" x="368.123047"/>
     <use xlink:href="#DejaVuSans-64" x="431.501953"/>
     <use xlink:href="#DejaVuSans-73" x="494.978516"/>
     <use xlink:href="#DejaVuSans-63" x="547.078125"/>
     <use xlink:href="#DejaVuSans-61" x="602.058594"/>
     <use xlink:href="#DejaVuSans-70" x="663.337891"/>
     <use xlink:href="#DejaVuSans-65" x="726.814453"/>
     <use xlink:href="#DejaVuSans-20" x="788.337891"/>
     <use xlink:href="#DejaVuSans-28" x="820.125"/>
     <use xlink:href="#DejaVuSans-62" x="859.138672"/>
     <use xlink:href="#DejaVuSans-6b" x="922.615234"/>
     <use xlink:href="#DejaVuSans-67" x="980.525391"/>
     <use xlink:href="#DejaVuSans-3d" x="1044.001953"/>
     <use xlink:href="#DejaVuSans-30" x="1127.791016"/>
     <use xlink:href="#DejaVuSans-2e" x="1191.414062"/>
     <use xlink:href="#DejaVuSans-36" x="1223.201172"/>
     <use xlink:href="#DejaVuSans-2c" x="1286.824219"/>
     <use xlink:href="#DejaVuSans-20" x="1318.611328"/>
     <use xlink:href="#DejaVuSans-64" x="1350.398438"/>
     <use xlink:href="#DejaVuSans-3d" x="1413.875"/>
     <use xlink:href="#DejaVuSans-30" x="1497.664062"/>
     <use xlink:href="#DejaVuSans-2e" x="1561.287109"/>
     <use xlink:href="#DejaVuSans-37" x="1593.074219"/>
     <use xlink:href="#DejaVuSans-35" x="1656.697266"/>
     <use xlink:href="#DejaVuSans-2c" x="1720.320312"/>
     <use xlink:href="#DejaVuSans-20" x="1752.107422"/>
     <use xlink:href="#DejaVuSans-6e" x="1783.894531"/>
     <use xlink:href="#DejaVuSans-3d" x="1847.273438"/>
     <use xlink:href="#DejaVuSans-35" x="1931.0625"/>
     <use xlink:href="#DejaVuSans-30" x="1994.685547"/>
     <use xlink:href="#DejaVuSans-29" x="2058.308594"/>
     <use xlink:href="#DejaVuSans-20" x="2097.322266"/>
     <use xlink:href="#DejaVuSans-2d" x="2129.109375"/>
     <use xlink:href="#DejaVuSans-20" x="2165.193359"/>
     <use xlink:href="#DejaVuSans-43" x="2196.980469"/>
     <use xlink:href="#DejaVuSans-6f" x="2266.804688"/>
     <use xlink:href="#DejaVuSans-6e" x="2327.986328"/>
     <use xlink:href="#DejaVuSans-74" x="2391.365234"/>
     <use xlink:href="#DejaVuSans-6f" x="2430.574219"/>
     <use xlink:href="#DejaVuSans-75" x="2491.755859"/>
     <use xlink:href="#DejaVuSans-72" x="2555.134766"/>
    </g>
   </g>
   <g id="legend_1">
    <g id="patch_7">
     <path d="M 487.777813 51.075 
L 591.910625 51.075 
Q 593.910625 51.075 593.910625 49.075 
L 593.910625 35.396875 
Q 593.910625 33.396875 591.910625 33.396875 
L 487.777813 33.396875 
Q 485.777813 33.396875 485.777813 35.396875 
L 485.777813 49.075 
Q 485.777813 51.075 487.777813 51.075 
z
" style="fill: #ffffff; opacity: 0.8; stroke: #cccccc; stroke-linejoin: miter"/>
    </g>
    <g id="line2d_30">
     <g>
      <use xlink:href="#md1dca10d6e" x="499.777813" y="41.495313" style="fill: #ff0000; stroke: #ff0000"/>
     </g>
    </g>
    <g id="text_18">
     <!-- Model Position -->
     <g transform="translate(517.777813 44.995313) scale(0.1 -0.1)">
      <defs>
       <path id="DejaVuSans-4d" d="M 628 4666 
L 1569 4666 
L 2759 1491 
L 3956 4666 
L 4897 4666 
L 4897 0 
L 4281 0 
L 4281 4097 
L 3078 897 
L 2444 897 
L 1241 4097 
L 1241 0 
L 628 0 
L 628 4666 
z
" transform="scale(0.015625)"/>
       <path id="DejaVuSans-6c" d="M 603 4863 
L 1178 4863 
L 1178 0 
L 603 0 
L 603 4863 
z
" transform="scale(0.015625)"/>
       <path id="DejaVuSans-50" d="M 1259 4147 
L 1259 2394 
L 2053 2394 
Q 2494 2394 2734 2622 
Q 2975 2850 2975 3272 
Q 2975 3691 2734 3919 
Q 2494 4147 2053 4147 
L 1259 4147 
z
M 628 4666 
L 2053 4666 
Q 2838 4666 3239 4311 
Q 3641 3956 3641 3272 
Q 3641 2581 3239 2228 
Q 2838 1875 2053 1875 
L 1259 1875 
L 1259 0 
L 628 0 
L 628 4666 
z
" transform="scale(0.015625)"/>
      </defs>
      <use xlink:href="#DejaVuSans-4d"/>
      <use xlink:href="#DejaVuSans-6f" x="86.279297"/>
      <use xlink:href="#DejaVuSans-64" x="147.460938"/>
      <use xlink:href="#DejaVuSans-65" x="210.9375"/>
      <use xlink:href="#DejaVuSans-6c" x="272.460938"/>
      <use xlink:href="#DejaVuSans-20" x="300.244141"/>
      <use xlink:href="#DejaVuSans-50" x="332.03125"/>
      <use xlink:href="#DejaVuSans-6f" x="388.708984"/>
      <use xlink:href="#DejaVuSans-73" x="449.890625"/>
      <use xlink:href="#DejaVuSans-69" x="501.990234"/>
      <use xlink:href="#DejaVuSans-74" x="529.773438"/>
      <use xlink:href="#DejaVuSans-69" x="568.982422"/>
      <use xlink:href="#DejaVuSans-6f" x="596.765625"/>
      <use xlink:href="#DejaVuSans-6e" x="657.947266"/>
     </g>
    </g>
   </g>
  </g>
  <g id="axes_2">
   <g id="patch_8">
    <path d="M 632.390625 582.796875 
L 660.110625 582.796875 
L 660.110625 28.396875 
L 632.390625 28.396875 
z
" style="fill: #ffffff"/>
   </g>
   <g id="patch_9">
    <path clip-path="url(#p8767ab4331)" style="fill: #ffffff; stroke: #ffffff; stroke-width: 0.01; stroke-linejoin: miter"/>
   </g>
   <g id="matplotlib.axis_3"/>
   <g id="matplotlib.axis_4">
    <g id="ytick_8">
     <g id="line2d_31">
      <g>
       <use xlink:href="#m644b599b97" x="660.110625" y="554.366106" style="stroke: #000000; stroke-width: 0.8"/>
      </g>
     </g>
     <g id="text_19">
      <!-- 0 -->
      <g transform="translate(663.610625 560.444856) scale(0.16 -0.16)">
       <use xlink:href="#DejaVuSans-30"/>
      </g>
     </g>
    </g>
    <g id="ytick_9">
     <g id="line2d_32">
      <g>
       <use xlink:href="#m644b599b97" x="660.110625" y="497.504567" style="stroke: #000000; stroke-width: 0.8"/>
      </g>
     </g>
     <g id="text_20">
      <!-- 2 -->
      <g transform="translate(663.610625 503.583317) scale(0.16 -0.16)">
       <use xlink:href="#DejaVuSans-32"/>
      </g>
     </g>
    </g>
    <g id="ytick_10">
     <g id="line2d_33">
      <g>
       <use xlink:href="#m644b599b97" x="660.110625" y="440.643029" style="stroke: #000000; stroke-width: 0.8"/>
      </g>
     </g>
     <g id="text_21">
      <!-- 4 -->
      <g transform="translate(663.610625 446.721779) scale(0.16 -0.16)">
       <use xlink:href="#DejaVuSans-34"/>
      </g>
     </g>
    </g>
    <g id="ytick_11">
     <g id="line2d_34">
      <g>
       <use xlink:href="#m644b599b97" x="660.110625" y="383.78149" style="stroke: #000000; stroke-width: 0.8"/>
      </g>
     </g>
     <g id="text_22">
      <!-- 6 -->
      <g transform="translate(663.610625 389.86024) scale(0.16 -0.16)">
       <use xlink:href="#DejaVuSans-36"/>
      </g>
     </g>
    </g>
    <g id="ytick_12">
     <g id="line2d_35">
      <g>
       <use xlink:href="#m644b599b97" x="660.110625" y="326.919952" style="stroke: #000000; stroke-width: 0.8"/>
      </g>
     </g>
     <g id="text_23">
      <!-- 8 -->
      <g transform="translate(663.610625 332.998702) scale(0.16 -0.16)">
       <defs>
        <path id="DejaVuSans-38" d="M 2034 2216 
Q 1584 2216 1326 1975 
Q 1069 1734 1069 1313 
Q 1069 891 1326 650 
Q 1584 409 2034 409 
Q 2484 409 2743 651 
Q 3003 894 3003 1313 
Q 3003 1734 2745 1975 
Q 2488 2216 2034 2216 
z
M 1403 2484 
Q 997 2584 770 2862 
Q 544 3141 544 3541 
Q 544 4100 942 4425 
Q 1341 4750 2034 4750 
Q 2731 4750 3128 4425 
Q 3525 4100 3525 3541 
Q 3525 3141 3298 2862 
Q 3072 2584 2669 2484 
Q 3125 2378 3379 2068 
Q 3634 1759 3634 1313 
Q 3634 634 3220 271 
Q 2806 -91 2034 -91 
Q 1263 -91 848 271 
Q 434 634 434 1313 
Q 434 1759 690 2068 
Q 947 2378 1403 2484 
z
M 1172 3481 
Q 1172 3119 1398 2916 
Q 1625 2713 2034 2713 
Q 2441 2713 2670 2916 
Q 2900 3119 2900 3481 
Q 2900 3844 2670 4047 
Q 2441 4250 2034 4250 
Q 1625 4250 1398 4047 
Q 1172 3844 1172 3481 
z
" transform="scale(0.015625)"/>
       </defs>
       <use xlink:href="#DejaVuSans-38"/>
      </g>
     </g>
    </g>
    <g id="ytick_13">
     <g id="line2d_36">
      <g>
       <use xlink:href="#m644b599b97" x="660.110625" y="270.058413" style="stroke: #000000; stroke-width: 0.8"/>
      </g>
     </g>
     <g id="text_24">
      <!-- 10 -->
      <g transform="translate(663.610625 276.137163) scale(0.16 -0.16)">
       <use xlink:href="#DejaVuSans-31"/>
       <use xlink:href="#DejaVuSans-30" x="63.623047"/>
      </g>
     </g>
    </g>
    <g id="ytick_14">
     <g id="line2d_37">
      <g>
       <use xlink:href="#m644b599b97" x="660.110625" y="213.196875" style="stroke: #000000; stroke-width: 0.8"/>
      </g>
     </g>
     <g id="text_25">
      <!-- 12 -->
      <g transform="translate(663.610625 219.275625) scale(0.16 -0.16)">
       <use xlink:href="#DejaVuSans-31"/>
       <use xlink:href="#DejaVuSans-32" x="63.623047"/>
      </g>
     </g>
    </g>
    <g id="ytick_15">
     <g id="line2d_38">
      <g>
       <use xlink:href="#m644b599b97" x="660.110625" y="156.335337" style="stroke: #000000; stroke-width: 0.8"/>
      </g>
     </g>
     <g id="text_26">
      <!-- 14 -->
      <g transform="translate(663.610625 162.414087) scale(0.16 -0.16)">
       <use xlink:href="#DejaVuSans-31"/>
       <use xlink:href="#DejaVuSans-34" x="63.623047"/>
      </g>
     </g>
    </g>
    <g id="ytick_16">
     <g id="line2d_39">
      <g>
       <use xlink:href="#m644b599b97" x="660.110625" y="99.473798" style="stroke: #000000; stroke-width: 0.8"/>
      </g>
     </g>
     <g id="text_27">
      <!-- 16 -->
      <g transform="translate(663.610625 105.552548) scale(0.16 -0.16)">
       <use xlink:href="#DejaVuSans-31"/>
       <use xlink:href="#DejaVuSans-36" x="63.623047"/>
      </g>
     </g>
    </g>
    <g id="ytick_17">
     <g id="line2d_40">
      <g>
       <use xlink:href="#m644b599b97" x="660.110625" y="42.61226" style="stroke: #000000; stroke-width: 0.8"/>
      </g>
     </g>
     <g id="text_28">
      <!-- 18 -->
      <g transform="translate(663.610625 48.69101) scale(0.16 -0.16)">
       <use xlink:href="#DejaVuSans-31"/>
       <use xlink:href="#DejaVuSans-38" x="63.623047"/>
      </g>
     </g>
    </g>
    <g id="text_29">
     <!-- Loss -->
     <g transform="translate(695.569063 316.564063) rotate(-90) scale(0.1 -0.1)">
      <use xlink:href="#DejaVuSans-4c"/>
      <use xlink:href="#DejaVuSans-6f" x="53.962891"/>
      <use xlink:href="#DejaVuSans-73" x="115.144531"/>
      <use xlink:href="#DejaVuSans-73" x="167.244141"/>
     </g>
    </g>
   </g>
   <g id="LineCollection_1"/>
   <g id="LineCollection_2">
    <path d="M 632.390625 582.796875 
L 660.110625 582.796875 
" clip-path="url(#p6f045804cc)" style="fill: none; stroke: #440154; stroke-width: 1.5"/>
    <path d="M 632.390625 568.58149 
L 660.110625 568.58149 
" clip-path="url(#p6f045804cc)" style="fill: none; stroke: #460a5d; stroke-width: 1.5"/>
    <path d="M 632.390625 554.366106 
L 660.110625 554.366106 
" clip-path="url(#p6f045804cc)" style="fill: none; stroke: #481467; stroke-width: 1.5"/>
    <path d="M 632.390625 540.150721 
L 660.110625 540.150721 
" clip-path="url(#p6f045804cc)" style="fill: none; stroke: #481c6e; stroke-width: 1.5"/>
    <path d="M 632.390625 525.935337 
L 660.110625 525.935337 
" clip-path="url(#p6f045804cc)" style="fill: none; stroke: #482576; stroke-width: 1.5"/>
    <path d="M 632.390625 511.719952 
L 660.110625 511.719952 
" clip-path="url(#p6f045804cc)" style="fill: none; stroke: #472d7b; stroke-width: 1.5"/>
    <path d="M 632.390625 497.504567 
L 660.110625 497.504567 
" clip-path="url(#p6f045804cc)" style="fill: none; stroke: #453581; stroke-width: 1.5"/>
    <path d="M 632.390625 483.289183 
L 660.110625 483.289183 
" clip-path="url(#p6f045804cc)" style="fill: none; stroke: #433d84; stroke-width: 1.5"/>
    <path d="M 632.390625 469.073798 
L 660.110625 469.073798 
" clip-path="url(#p6f045804cc)" style="fill: none; stroke: #404588; stroke-width: 1.5"/>
    <path d="M 632.390625 454.858413 
L 660.110625 454.858413 
" clip-path="url(#p6f045804cc)" style="fill: none; stroke: #3d4d8a; stroke-width: 1.5"/>
    <path d="M 632.390625 440.643029 
L 660.110625 440.643029 
" clip-path="url(#p6f045804cc)" style="fill: none; stroke: #3a538b; stroke-width: 1.5"/>
    <path d="M 632.390625 426.427644 
L 660.110625 426.427644 
" clip-path="url(#p6f045804cc)" style="fill: none; stroke: #375b8d; stroke-width: 1.5"/>
    <path d="M 632.390625 412.21226 
L 660.110625 412.21226 
" clip-path="url(#p6f045804cc)" style="fill: none; stroke: #34618d; stroke-width: 1.5"/>
    <path d="M 632.390625 397.996875 
L 660.110625 397.996875 
" clip-path="url(#p6f045804cc)" style="fill: none; stroke: #31688e; stroke-width: 1.5"/>
    <path d="M 632.390625 383.78149 
L 660.110625 383.78149 
" clip-path="url(#p6f045804cc)" style="fill: none; stroke: #2e6e8e; stroke-width: 1.5"/>
    <path d="M 632.390625 369.566106 
L 660.110625 369.566106 
" clip-path="url(#p6f045804cc)" style="fill: none; stroke: #2b748e; stroke-width: 1.5"/>
    <path d="M 632.390625 355.350721 
L 660.110625 355.350721 
" clip-path="url(#p6f045804cc)" style="fill: none; stroke: #297b8e; stroke-width: 1.5"/>
    <path d="M 632.390625 341.135337 
L 660.110625 341.135337 
" clip-path="url(#p6f045804cc)" style="fill: none; stroke: #26818e; stroke-width: 1.5"/>
    <path d="M 632.390625 326.919952 
L 660.110625 326.919952 
" clip-path="url(#p6f045804cc)" style="fill: none; stroke: #24878e; stroke-width: 1.5"/>
    <path d="M 632.390625 312.704567 
L 660.110625 312.704567 
" clip-path="url(#p6f045804cc)" style="fill: none; stroke: #228d8d; stroke-width: 1.5"/>
    <path d="M 632.390625 298.489183 
L 660.110625 298.489183 
" clip-path="url(#p6f045804cc)" style="fill: none; stroke: #20938c; stroke-width: 1.5"/>
    <path d="M 632.390625 284.273798 
L 660.110625 284.273798 
" clip-path="url(#p6f045804cc)" style="fill: none; stroke: #1f998a; stroke-width: 1.5"/>
    <path d="M 632.390625 270.058413 
L 660.110625 270.058413 
" clip-path="url(#p6f045804cc)" style="fill: none; stroke: #1fa088; stroke-width: 1.5"/>
    <path d="M 632.390625 255.843029 
L 660.110625 255.843029 
" clip-path="url(#p6f045804cc)" style="fill: none; stroke: #21a585; stroke-width: 1.5"/>
    <path d="M 632.390625 241.627644 
L 660.110625 241.627644 
" clip-path="url(#p6f045804cc)" style="fill: none; stroke: #25ac82; stroke-width: 1.5"/>
    <path d="M 632.390625 227.41226 
L 660.110625 227.41226 
" clip-path="url(#p6f045804cc)" style="fill: none; stroke: #2db27d; stroke-width: 1.5"/>
    <path d="M 632.390625 213.196875 
L 660.110625 213.196875 
" clip-path="url(#p6f045804cc)" style="fill: none; stroke: #35b779; stroke-width: 1.5"/>
    <path d="M 632.390625 198.98149 
L 660.110625 198.98149 
" clip-path="url(#p6f045804cc)" style="fill: none; stroke: #40bd72; stroke-width: 1.5"/>
    <path d="M 632.390625 184.766106 
L 660.110625 184.766106 
" clip-path="url(#p6f045804cc)" style="fill: none; stroke: #4cc26c; stroke-width: 1.5"/>
    <path d="M 632.390625 170.550721 
L 660.110625 170.550721 
" clip-path="url(#p6f045804cc)" style="fill: none; stroke: #5ac864; stroke-width: 1.5"/>
    <path d="M 632.390625 156.335337 
L 660.110625 156.335337 
" clip-path="url(#p6f045804cc)" style="fill: none; stroke: #67cc5c; stroke-width: 1.5"/>
    <path d="M 632.390625 142.119952 
L 660.110625 142.119952 
" clip-path="url(#p6f045804cc)" style="fill: none; stroke: #77d153; stroke-width: 1.5"/>
    <path d="M 632.390625 127.904567 
L 660.110625 127.904567 
" clip-path="url(#p6f045804cc)" style="fill: none; stroke: #89d548; stroke-width: 1.5"/>
    <path d="M 632.390625 113.689183 
L 660.110625 113.689183 
" clip-path="url(#p6f045804cc)" style="fill: none; stroke: #98d83e; stroke-width: 1.5"/>
    <path d="M 632.390625 99.473798 
L 660.110625 99.473798 
" clip-path="url(#p6f045804cc)" style="fill: none; stroke: #aadc32; stroke-width: 1.5"/>
    <path d="M 632.390625 85.258413 
L 660.110625 85.258413 
" clip-path="url(#p6f045804cc)" style="fill: none; stroke: #bade28; stroke-width: 1.5"/>
    <path d="M 632.390625 71.043029 
L 660.110625 71.043029 
" clip-path="url(#p6f045804cc)" style="fill: none; stroke: #cde11d; stroke-width: 1.5"/>
    <path d="M 632.390625 56.827644 
L 660.110625 56.827644 
" clip-path="url(#p6f045804cc)" style="fill: none; stroke: #dde318; stroke-width: 1.5"/>
    <path d="M 632.390625 42.61226 
L 660.110625 42.61226 
" clip-path="url(#p6f045804cc)" style="fill: none; stroke: #efe51c; stroke-width: 1.5"/>
    <path d="M 632.390625 28.396875 
L 660.110625 28.396875 
" clip-path="url(#p6f045804cc)" style="fill: none; stroke: #fde725; stroke-width: 1.5"/>
   </g>
   <g id="patch_10">
    <path d="M 632.390625 582.796875 
L 646.250625 582.796875 
L 660.110625 582.796875 
L 660.110625 28.396875 
L 646.250625 28.396875 
L 632.390625 28.396875 
L 632.390625 582.796875 
z
" style="fill: none; stroke: #000000; stroke-width: 0.8; stroke-linejoin: miter; stroke-linecap: square"/>
   </g>
  </g>
 </g>
 <defs>
  <clipPath id="pbbe004130e">
   <rect x="63.230625" y="28.396875" width="535.68" height="554.4"/>
  </clipPath>
  <clipPath id="p8767ab4331">
   <rect x="632.390625" y="28.396875" width="27.72" height="554.4"/>
  </clipPath>
  <clipPath id="p6f045804cc">
   <path d="M 632.390625 584.296875 
L 660.110625 584.296875 
L 660.110625 26.896875 
L 632.390625 26.896875 
z
"/>
  </clipPath>
 </defs>
</svg>
