<?xml version="1.0" encoding="utf-8" standalone="no"?>
<!DOCTYPE svg PUBLIC "-//W3C//DTD SVG 1.1//EN"
  "http://www.w3.org/Graphics/SVG/1.1/DTD/svg11.dtd">
<svg xmlns:xlink="http://www.w3.org/1999/xlink" width="704.84875pt" height="622.66pt" viewBox="0 0 704.84875 622.66" xmlns="http://www.w3.org/2000/svg" version="1.1">
 <metadata>
  <rdf:RDF xmlns:dc="http://purl.org/dc/elements/1.1/" xmlns:cc="http://creativecommons.org/ns#" xmlns:rdf="http://www.w3.org/1999/02/22-rdf-syntax-ns#">
   <cc:Work>
    <dc:type rdf:resource="http://purl.org/dc/dcmitype/StillImage"/>
    <dc:date>2025-02-13T17:27:58.368834</dc:date>
    <dc:format>image/svg+xml</dc:format>
    <dc:creator>
     <cc:Agent>
      <dc:title>Matplotlib v3.6.2, https://matplotlib.org/</dc:title>
     </cc:Agent>
    </dc:creator>
   </cc:Work>
  </rdf:RDF>
 </metadata>
 <defs>
  <style type="text/css">*{stroke-linejoin: round; stroke-linecap: butt}</style>
 </defs>
 <g id="figure_1">
  <g id="patch_1">
   <path d="M 0 622.66 
L 704.84875 622.66 
L 704.84875 0 
L 0 0 
z
" style="fill: #ffffff"/>
  </g>
  <g id="axes_1">
   <g id="patch_2">
    <path d="M 63.230625 582.796875 
L 598.910625 582.796875 
L 598.910625 28.396875 
L 63.230625 28.396875 
z
" style="fill: #ffffff"/>
   </g>
   <g id="matplotlib.axis_1">
    <g id="xtick_1">
     <g id="line2d_1">
      <defs>
       <path id="m194207fc61" d="M 0 0 
L 0 -3.5 
" style="stroke: #000000; stroke-width: 0.8"/>
      </defs>
      <g>
       <use xlink:href="#m194207fc61" x="116.798625" y="582.796875" style="stroke: #000000; stroke-width: 0.8"/>
      </g>
     </g>
     <g id="line2d_2">
      <defs>
       <path id="m1a4990d542" d="M 0 0 
L 0 3.5 
" style="stroke: #000000; stroke-width: 0.8"/>
      </defs>
      <g>
       <use xlink:href="#m1a4990d542" x="116.798625" y="28.396875" style="stroke: #000000; stroke-width: 0.8"/>
      </g>
     </g>
     <g id="text_1">
      <!-- −0.6 -->
      <g transform="translate(97.372375 598.454375) scale(0.16 -0.16)">
       <defs>
        <path id="DejaVuSans-2212" d="M 678 2272 
L 4684 2272 
L 4684 1741 
L 678 1741 
L 678 2272 
z
" transform="scale(0.015625)"/>
        <path id="DejaVuSans-30" d="M 2034 4250 
Q 1547 4250 1301 3770 
Q 1056 3291 1056 2328 
Q 1056 1369 1301 889 
Q 1547 409 2034 409 
Q 2525 409 2770 889 
Q 3016 1369 3016 2328 
Q 3016 3291 2770 3770 
Q 2525 4250 2034 4250 
z
M 2034 4750 
Q 2819 4750 3233 4129 
Q 3647 3509 3647 2328 
Q 3647 1150 3233 529 
Q 2819 -91 2034 -91 
Q 1250 -91 836 529 
Q 422 1150 422 2328 
Q 422 3509 836 4129 
Q 1250 4750 2034 4750 
z
" transform="scale(0.015625)"/>
        <path id="DejaVuSans-2e" d="M 684 794 
L 1344 794 
L 1344 0 
L 684 0 
L 684 794 
z
" transform="scale(0.015625)"/>
        <path id="DejaVuSans-36" d="M 2113 2584 
Q 1688 2584 1439 2293 
Q 1191 2003 1191 1497 
Q 1191 994 1439 701 
Q 1688 409 2113 409 
Q 2538 409 2786 701 
Q 3034 994 3034 1497 
Q 3034 2003 2786 2293 
Q 2538 2584 2113 2584 
z
M 3366 4563 
L 3366 3988 
Q 3128 4100 2886 4159 
Q 2644 4219 2406 4219 
Q 1781 4219 1451 3797 
Q 1122 3375 1075 2522 
Q 1259 2794 1537 2939 
Q 1816 3084 2150 3084 
Q 2853 3084 3261 2657 
Q 3669 2231 3669 1497 
Q 3669 778 3244 343 
Q 2819 -91 2113 -91 
Q 1303 -91 875 529 
Q 447 1150 447 2328 
Q 447 3434 972 4092 
Q 1497 4750 2381 4750 
Q 2619 4750 2861 4703 
Q 3103 4656 3366 4563 
z
" transform="scale(0.015625)"/>
       </defs>
       <use xlink:href="#DejaVuSans-2212"/>
       <use xlink:href="#DejaVuSans-30" x="83.789062"/>
       <use xlink:href="#DejaVuSans-2e" x="147.412109"/>
       <use xlink:href="#DejaVuSans-36" x="179.199219"/>
      </g>
     </g>
    </g>
    <g id="xtick_2">
     <g id="line2d_3">
      <g>
       <use xlink:href="#m194207fc61" x="188.222625" y="582.796875" style="stroke: #000000; stroke-width: 0.8"/>
      </g>
     </g>
     <g id="line2d_4">
      <g>
       <use xlink:href="#m1a4990d542" x="188.222625" y="28.396875" style="stroke: #000000; stroke-width: 0.8"/>
      </g>
     </g>
     <g id="text_2">
      <!-- −0.4 -->
      <g transform="translate(168.796375 598.454375) scale(0.16 -0.16)">
       <defs>
        <path id="DejaVuSans-34" d="M 2419 4116 
L 825 1625 
L 2419 1625 
L 2419 4116 
z
M 2253 4666 
L 3047 4666 
L 3047 1625 
L 3713 1625 
L 3713 1100 
L 3047 1100 
L 3047 0 
L 2419 0 
L 2419 1100 
L 313 1100 
L 313 1709 
L 2253 4666 
z
" transform="scale(0.015625)"/>
       </defs>
       <use xlink:href="#DejaVuSans-2212"/>
       <use xlink:href="#DejaVuSans-30" x="83.789062"/>
       <use xlink:href="#DejaVuSans-2e" x="147.412109"/>
       <use xlink:href="#DejaVuSans-34" x="179.199219"/>
      </g>
     </g>
    </g>
    <g id="xtick_3">
     <g id="line2d_5">
      <g>
       <use xlink:href="#m194207fc61" x="259.646625" y="582.796875" style="stroke: #000000; stroke-width: 0.8"/>
      </g>
     </g>
     <g id="line2d_6">
      <g>
       <use xlink:href="#m1a4990d542" x="259.646625" y="28.396875" style="stroke: #000000; stroke-width: 0.8"/>
      </g>
     </g>
     <g id="text_3">
      <!-- −0.2 -->
      <g transform="translate(240.220375 598.454375) scale(0.16 -0.16)">
       <defs>
        <path id="DejaVuSans-32" d="M 1228 531 
L 3431 531 
L 3431 0 
L 469 0 
L 469 531 
Q 828 903 1448 1529 
Q 2069 2156 2228 2338 
Q 2531 2678 2651 2914 
Q 2772 3150 2772 3378 
Q 2772 3750 2511 3984 
Q 2250 4219 1831 4219 
Q 1534 4219 1204 4116 
Q 875 4013 500 3803 
L 500 4441 
Q 881 4594 1212 4672 
Q 1544 4750 1819 4750 
Q 2544 4750 2975 4387 
Q 3406 4025 3406 3419 
Q 3406 3131 3298 2873 
Q 3191 2616 2906 2266 
Q 2828 2175 2409 1742 
Q 1991 1309 1228 531 
z
" transform="scale(0.015625)"/>
       </defs>
       <use xlink:href="#DejaVuSans-2212"/>
       <use xlink:href="#DejaVuSans-30" x="83.789062"/>
       <use xlink:href="#DejaVuSans-2e" x="147.412109"/>
       <use xlink:href="#DejaVuSans-32" x="179.199219"/>
      </g>
     </g>
    </g>
    <g id="xtick_4">
     <g id="line2d_7">
      <g>
       <use xlink:href="#m194207fc61" x="331.070625" y="582.796875" style="stroke: #000000; stroke-width: 0.8"/>
      </g>
     </g>
     <g id="line2d_8">
      <g>
       <use xlink:href="#m1a4990d542" x="331.070625" y="28.396875" style="stroke: #000000; stroke-width: 0.8"/>
      </g>
     </g>
     <g id="text_4">
      <!-- 0.0 -->
      <g transform="translate(318.348125 598.454375) scale(0.16 -0.16)">
       <use xlink:href="#DejaVuSans-30"/>
       <use xlink:href="#DejaVuSans-2e" x="63.623047"/>
       <use xlink:href="#DejaVuSans-30" x="95.410156"/>
      </g>
     </g>
    </g>
    <g id="xtick_5">
     <g id="line2d_9">
      <g>
       <use xlink:href="#m194207fc61" x="402.494625" y="582.796875" style="stroke: #000000; stroke-width: 0.8"/>
      </g>
     </g>
     <g id="line2d_10">
      <g>
       <use xlink:href="#m1a4990d542" x="402.494625" y="28.396875" style="stroke: #000000; stroke-width: 0.8"/>
      </g>
     </g>
     <g id="text_5">
      <!-- 0.2 -->
      <g transform="translate(389.772125 598.454375) scale(0.16 -0.16)">
       <use xlink:href="#DejaVuSans-30"/>
       <use xlink:href="#DejaVuSans-2e" x="63.623047"/>
       <use xlink:href="#DejaVuSans-32" x="95.410156"/>
      </g>
     </g>
    </g>
    <g id="xtick_6">
     <g id="line2d_11">
      <g>
       <use xlink:href="#m194207fc61" x="473.918625" y="582.796875" style="stroke: #000000; stroke-width: 0.8"/>
      </g>
     </g>
     <g id="line2d_12">
      <g>
       <use xlink:href="#m1a4990d542" x="473.918625" y="28.396875" style="stroke: #000000; stroke-width: 0.8"/>
      </g>
     </g>
     <g id="text_6">
      <!-- 0.4 -->
      <g transform="translate(461.196125 598.454375) scale(0.16 -0.16)">
       <use xlink:href="#DejaVuSans-30"/>
       <use xlink:href="#DejaVuSans-2e" x="63.623047"/>
       <use xlink:href="#DejaVuSans-34" x="95.410156"/>
      </g>
     </g>
    </g>
    <g id="xtick_7">
     <g id="line2d_13">
      <g>
       <use xlink:href="#m194207fc61" x="545.342625" y="582.796875" style="stroke: #000000; stroke-width: 0.8"/>
      </g>
     </g>
     <g id="line2d_14">
      <g>
       <use xlink:href="#m1a4990d542" x="545.342625" y="28.396875" style="stroke: #000000; stroke-width: 0.8"/>
      </g>
     </g>
     <g id="text_7">
      <!-- 0.6 -->
      <g transform="translate(532.620125 598.454375) scale(0.16 -0.16)">
       <use xlink:href="#DejaVuSans-30"/>
       <use xlink:href="#DejaVuSans-2e" x="63.623047"/>
       <use xlink:href="#DejaVuSans-36" x="95.410156"/>
      </g>
     </g>
    </g>
    <g id="text_8">
     <!-- Direction 1 -->
     <g transform="translate(303.715156 613.380313) scale(0.1 -0.1)">
      <defs>
       <path id="DejaVuSans-44" d="M 1259 4147 
L 1259 519 
L 2022 519 
Q 2988 519 3436 956 
Q 3884 1394 3884 2338 
Q 3884 3275 3436 3711 
Q 2988 4147 2022 4147 
L 1259 4147 
z
M 628 4666 
L 1925 4666 
Q 3281 4666 3915 4102 
Q 4550 3538 4550 2338 
Q 4550 1131 3912 565 
Q 3275 0 1925 0 
L 628 0 
L 628 4666 
z
" transform="scale(0.015625)"/>
       <path id="DejaVuSans-69" d="M 603 3500 
L 1178 3500 
L 1178 0 
L 603 0 
L 603 3500 
z
M 603 4863 
L 1178 4863 
L 1178 4134 
L 603 4134 
L 603 4863 
z
" transform="scale(0.015625)"/>
       <path id="DejaVuSans-72" d="M 2631 2963 
Q 2534 3019 2420 3045 
Q 2306 3072 2169 3072 
Q 1681 3072 1420 2755 
Q 1159 2438 1159 1844 
L 1159 0 
L 581 0 
L 581 3500 
L 1159 3500 
L 1159 2956 
Q 1341 3275 1631 3429 
Q 1922 3584 2338 3584 
Q 2397 3584 2469 3576 
Q 2541 3569 2628 3553 
L 2631 2963 
z
" transform="scale(0.015625)"/>
       <path id="DejaVuSans-65" d="M 3597 1894 
L 3597 1613 
L 953 1613 
Q 991 1019 1311 708 
Q 1631 397 2203 397 
Q 2534 397 2845 478 
Q 3156 559 3463 722 
L 3463 178 
Q 3153 47 2828 -22 
Q 2503 -91 2169 -91 
Q 1331 -91 842 396 
Q 353 884 353 1716 
Q 353 2575 817 3079 
Q 1281 3584 2069 3584 
Q 2775 3584 3186 3129 
Q 3597 2675 3597 1894 
z
M 3022 2063 
Q 3016 2534 2758 2815 
Q 2500 3097 2075 3097 
Q 1594 3097 1305 2825 
Q 1016 2553 972 2059 
L 3022 2063 
z
" transform="scale(0.015625)"/>
       <path id="DejaVuSans-63" d="M 3122 3366 
L 3122 2828 
Q 2878 2963 2633 3030 
Q 2388 3097 2138 3097 
Q 1578 3097 1268 2742 
Q 959 2388 959 1747 
Q 959 1106 1268 751 
Q 1578 397 2138 397 
Q 2388 397 2633 464 
Q 2878 531 3122 666 
L 3122 134 
Q 2881 22 2623 -34 
Q 2366 -91 2075 -91 
Q 1284 -91 818 406 
Q 353 903 353 1747 
Q 353 2603 823 3093 
Q 1294 3584 2113 3584 
Q 2378 3584 2631 3529 
Q 2884 3475 3122 3366 
z
" transform="scale(0.015625)"/>
       <path id="DejaVuSans-74" d="M 1172 4494 
L 1172 3500 
L 2356 3500 
L 2356 3053 
L 1172 3053 
L 1172 1153 
Q 1172 725 1289 603 
Q 1406 481 1766 481 
L 2356 481 
L 2356 0 
L 1766 0 
Q 1100 0 847 248 
Q 594 497 594 1153 
L 594 3053 
L 172 3053 
L 172 3500 
L 594 3500 
L 594 4494 
L 1172 4494 
z
" transform="scale(0.015625)"/>
       <path id="DejaVuSans-6f" d="M 1959 3097 
Q 1497 3097 1228 2736 
Q 959 2375 959 1747 
Q 959 1119 1226 758 
Q 1494 397 1959 397 
Q 2419 397 2687 759 
Q 2956 1122 2956 1747 
Q 2956 2369 2687 2733 
Q 2419 3097 1959 3097 
z
M 1959 3584 
Q 2709 3584 3137 3096 
Q 3566 2609 3566 1747 
Q 3566 888 3137 398 
Q 2709 -91 1959 -91 
Q 1206 -91 779 398 
Q 353 888 353 1747 
Q 353 2609 779 3096 
Q 1206 3584 1959 3584 
z
" transform="scale(0.015625)"/>
       <path id="DejaVuSans-6e" d="M 3513 2113 
L 3513 0 
L 2938 0 
L 2938 2094 
Q 2938 2591 2744 2837 
Q 2550 3084 2163 3084 
Q 1697 3084 1428 2787 
Q 1159 2491 1159 1978 
L 1159 0 
L 581 0 
L 581 3500 
L 1159 3500 
L 1159 2956 
Q 1366 3272 1645 3428 
Q 1925 3584 2291 3584 
Q 2894 3584 3203 3211 
Q 3513 2838 3513 2113 
z
" transform="scale(0.015625)"/>
       <path id="DejaVuSans-20" transform="scale(0.015625)"/>
       <path id="DejaVuSans-31" d="M 794 531 
L 1825 531 
L 1825 4091 
L 703 3866 
L 703 4441 
L 1819 4666 
L 2450 4666 
L 2450 531 
L 3481 531 
L 3481 0 
L 794 0 
L 794 531 
z
" transform="scale(0.015625)"/>
      </defs>
      <use xlink:href="#DejaVuSans-44"/>
      <use xlink:href="#DejaVuSans-69" x="77.001953"/>
      <use xlink:href="#DejaVuSans-72" x="104.785156"/>
      <use xlink:href="#DejaVuSans-65" x="143.648438"/>
      <use xlink:href="#DejaVuSans-63" x="205.171875"/>
      <use xlink:href="#DejaVuSans-74" x="260.152344"/>
      <use xlink:href="#DejaVuSans-69" x="299.361328"/>
      <use xlink:href="#DejaVuSans-6f" x="327.144531"/>
      <use xlink:href="#DejaVuSans-6e" x="388.326172"/>
      <use xlink:href="#DejaVuSans-20" x="451.705078"/>
      <use xlink:href="#DejaVuSans-31" x="483.492188"/>
     </g>
    </g>
   </g>
   <g id="matplotlib.axis_2">
    <g id="ytick_1">
     <g id="line2d_15">
      <defs>
       <path id="m5da3a440f9" d="M 0 0 
L 3.5 0 
" style="stroke: #000000; stroke-width: 0.8"/>
      </defs>
      <g>
       <use xlink:href="#m5da3a440f9" x="63.230625" y="527.356875" style="stroke: #000000; stroke-width: 0.8"/>
      </g>
     </g>
     <g id="line2d_16">
      <defs>
       <path id="mbf13a81ebb" d="M 0 0 
L -3.5 0 
" style="stroke: #000000; stroke-width: 0.8"/>
      </defs>
      <g>
       <use xlink:href="#mbf13a81ebb" x="598.910625" y="527.356875" style="stroke: #000000; stroke-width: 0.8"/>
      </g>
     </g>
     <g id="text_9">
      <!-- −0.6 -->
      <g transform="translate(20.878125 533.435625) scale(0.16 -0.16)">
       <use xlink:href="#DejaVuSans-2212"/>
       <use xlink:href="#DejaVuSans-30" x="83.789062"/>
       <use xlink:href="#DejaVuSans-2e" x="147.412109"/>
       <use xlink:href="#DejaVuSans-36" x="179.199219"/>
      </g>
     </g>
    </g>
    <g id="ytick_2">
     <g id="line2d_17">
      <g>
       <use xlink:href="#m5da3a440f9" x="63.230625" y="453.436875" style="stroke: #000000; stroke-width: 0.8"/>
      </g>
     </g>
     <g id="line2d_18">
      <g>
       <use xlink:href="#mbf13a81ebb" x="598.910625" y="453.436875" style="stroke: #000000; stroke-width: 0.8"/>
      </g>
     </g>
     <g id="text_10">
      <!-- −0.4 -->
      <g transform="translate(20.878125 459.515625) scale(0.16 -0.16)">
       <use xlink:href="#DejaVuSans-2212"/>
       <use xlink:href="#DejaVuSans-30" x="83.789062"/>
       <use xlink:href="#DejaVuSans-2e" x="147.412109"/>
       <use xlink:href="#DejaVuSans-34" x="179.199219"/>
      </g>
     </g>
    </g>
    <g id="ytick_3">
     <g id="line2d_19">
      <g>
       <use xlink:href="#m5da3a440f9" x="63.230625" y="379.516875" style="stroke: #000000; stroke-width: 0.8"/>
      </g>
     </g>
     <g id="line2d_20">
      <g>
       <use xlink:href="#mbf13a81ebb" x="598.910625" y="379.516875" style="stroke: #000000; stroke-width: 0.8"/>
      </g>
     </g>
     <g id="text_11">
      <!-- −0.2 -->
      <g transform="translate(20.878125 385.595625) scale(0.16 -0.16)">
       <use xlink:href="#DejaVuSans-2212"/>
       <use xlink:href="#DejaVuSans-30" x="83.789062"/>
       <use xlink:href="#DejaVuSans-2e" x="147.412109"/>
       <use xlink:href="#DejaVuSans-32" x="179.199219"/>
      </g>
     </g>
    </g>
    <g id="ytick_4">
     <g id="line2d_21">
      <g>
       <use xlink:href="#m5da3a440f9" x="63.230625" y="305.596875" style="stroke: #000000; stroke-width: 0.8"/>
      </g>
     </g>
     <g id="line2d_22">
      <g>
       <use xlink:href="#mbf13a81ebb" x="598.910625" y="305.596875" style="stroke: #000000; stroke-width: 0.8"/>
      </g>
     </g>
     <g id="text_12">
      <!-- 0.0 -->
      <g transform="translate(34.285625 311.675625) scale(0.16 -0.16)">
       <use xlink:href="#DejaVuSans-30"/>
       <use xlink:href="#DejaVuSans-2e" x="63.623047"/>
       <use xlink:href="#DejaVuSans-30" x="95.410156"/>
      </g>
     </g>
    </g>
    <g id="ytick_5">
     <g id="line2d_23">
      <g>
       <use xlink:href="#m5da3a440f9" x="63.230625" y="231.676875" style="stroke: #000000; stroke-width: 0.8"/>
      </g>
     </g>
     <g id="line2d_24">
      <g>
       <use xlink:href="#mbf13a81ebb" x="598.910625" y="231.676875" style="stroke: #000000; stroke-width: 0.8"/>
      </g>
     </g>
     <g id="text_13">
      <!-- 0.2 -->
      <g transform="translate(34.285625 237.755625) scale(0.16 -0.16)">
       <use xlink:href="#DejaVuSans-30"/>
       <use xlink:href="#DejaVuSans-2e" x="63.623047"/>
       <use xlink:href="#DejaVuSans-32" x="95.410156"/>
      </g>
     </g>
    </g>
    <g id="ytick_6">
     <g id="line2d_25">
      <g>
       <use xlink:href="#m5da3a440f9" x="63.230625" y="157.756875" style="stroke: #000000; stroke-width: 0.8"/>
      </g>
     </g>
     <g id="line2d_26">
      <g>
       <use xlink:href="#mbf13a81ebb" x="598.910625" y="157.756875" style="stroke: #000000; stroke-width: 0.8"/>
      </g>
     </g>
     <g id="text_14">
      <!-- 0.4 -->
      <g transform="translate(34.285625 163.835625) scale(0.16 -0.16)">
       <use xlink:href="#DejaVuSans-30"/>
       <use xlink:href="#DejaVuSans-2e" x="63.623047"/>
       <use xlink:href="#DejaVuSans-34" x="95.410156"/>
      </g>
     </g>
    </g>
    <g id="ytick_7">
     <g id="line2d_27">
      <g>
       <use xlink:href="#m5da3a440f9" x="63.230625" y="83.836875" style="stroke: #000000; stroke-width: 0.8"/>
      </g>
     </g>
     <g id="line2d_28">
      <g>
       <use xlink:href="#mbf13a81ebb" x="598.910625" y="83.836875" style="stroke: #000000; stroke-width: 0.8"/>
      </g>
     </g>
     <g id="text_15">
      <!-- 0.6 -->
      <g transform="translate(34.285625 89.915625) scale(0.16 -0.16)">
       <use xlink:href="#DejaVuSans-30"/>
       <use xlink:href="#DejaVuSans-2e" x="63.623047"/>
       <use xlink:href="#DejaVuSans-36" x="95.410156"/>
      </g>
     </g>
    </g>
    <g id="text_16">
     <!-- Direction 2 -->
     <g transform="translate(14.798437 332.952344) rotate(-90) scale(0.1 -0.1)">
      <use xlink:href="#DejaVuSans-44"/>
      <use xlink:href="#DejaVuSans-69" x="77.001953"/>
      <use xlink:href="#DejaVuSans-72" x="104.785156"/>
      <use xlink:href="#DejaVuSans-65" x="143.648438"/>
      <use xlink:href="#DejaVuSans-63" x="205.171875"/>
      <use xlink:href="#DejaVuSans-74" x="260.152344"/>
      <use xlink:href="#DejaVuSans-69" x="299.361328"/>
      <use xlink:href="#DejaVuSans-6f" x="327.144531"/>
      <use xlink:href="#DejaVuSans-6e" x="388.326172"/>
      <use xlink:href="#DejaVuSans-20" x="451.705078"/>
      <use xlink:href="#DejaVuSans-32" x="483.492188"/>
     </g>
    </g>
   </g>
   <g id="PathCollection_1"/>
   <g id="PathCollection_2">
    <path d="M 345.944254 582.796875 
L 347.46899 581.160377 
L 358.401235 581.459342 
L 368.027872 571.482595 
L 369.33348 569.999088 
L 378.930674 560.168314 
L 380.265725 558.846008 
L 390.050008 548.854012 
L 389.865984 537.539732 
L 389.648153 526.225451 
L 389.482778 514.911149 
L 389.425277 503.596869 
L 391.19797 502.362352 
L 401.149213 492.282588 
L 400.9346 480.968308 
L 402.130215 479.893519 
L 412.249247 469.654017 
L 412.18743 458.339725 
L 413.06246 457.530526 
L 423.779195 447.025445 
L 423.994705 436.518256 
L 428.187293 447.025445 
L 432.108142 458.339725 
L 434.926945 466.297774 
L 436.045154 469.654017 
L 438.598209 480.968308 
L 440.750683 492.282588 
L 441.60691 503.596869 
L 440.854617 514.911149 
L 439.215393 526.225451 
L 439.321899 537.539732 
L 441.690388 548.854012 
L 444.905821 560.168314 
L 445.859195 563.64691 
L 447.41838 571.482595 
L 449.698062 582.796875 
" clip-path="url(#p4300687159)" style="fill: none; stroke: #460a5d; stroke-width: 1.5"/>
    <path d="M 63.230625 275.549101 
L 74.162865 275.561056 
L 85.095104 275.571759 
L 96.027365 275.534841 
L 97.684341 277.311163 
L 97.694645 288.625449 
L 106.959605 298.194554 
L 108.697841 299.939735 
L 108.710417 311.254015 
L 108.676071 322.568301 
L 106.959605 324.37227 
L 97.782094 333.882587 
L 96.027365 335.920116 
L 85.095104 335.789957 
L 74.162865 335.718114 
L 63.230625 335.714838 
" clip-path="url(#p4300687159)" style="fill: none; stroke: #460a5d; stroke-width: 1.5"/>
    <path d="M 194.576629 28.396875 
L 203.231381 39.711155 
L 205.349805 42.315536 
L 212.409761 51.025436 
L 216.282055 55.27861 
L 222.223112 62.339738 
L 227.214305 67.543928 
L 233.102371 73.654018 
L 238.146545 78.185633 
L 244.846819 84.968299 
L 249.07879 89.01386 
L 255.541724 96.282601 
L 260.011035 101.403012 
L 265.507348 107.596881 
L 270.94328 113.838314 
L 275.362888 118.911162 
L 281.875525 126.541957 
L 285.721008 130.225442 
L 292.80777 137.762668 
L 295.858588 141.539733 
L 303.740015 151.744826 
L 304.444441 152.854025 
L 311.492475 164.168305 
L 303.740015 164.546161 
L 292.80777 165.020952 
L 292.024669 164.168305 
L 281.875525 153.695616 
L 281.033603 152.854025 
L 281.393417 141.539733 
L 270.94328 130.795793 
L 260.011035 131.254239 
L 259.082791 130.225442 
L 249.07879 119.889239 
L 248.195643 118.911162 
L 238.146545 108.49736 
L 227.214305 108.829131 
L 226.114948 107.596881 
L 216.282055 97.375725 
L 205.349805 97.640093 
L 204.099011 96.282601 
L 194.417565 86.227296 
L 193.24037 84.968299 
L 183.485325 74.851289 
L 182.372262 73.654018 
L 172.553075 63.474895 
L 161.620825 63.659644 
L 160.434288 62.339738 
L 150.688585 52.227158 
L 139.756345 52.433277 
L 138.470603 51.025436 
L 128.824106 41.032009 
L 117.891845 41.209328 
L 106.959605 41.278684 
L 96.027365 41.310276 
L 85.095104 41.328194 
L 74.162865 41.416032 
L 72.604403 39.711155 
L 63.230625 29.985818 
" clip-path="url(#p4300687159)" style="fill: none; stroke: #460a5d; stroke-width: 1.5"/>
    <path d="M 413.06246 436.257251 
L 412.434388 435.711165 
L 412.65537 424.396873 
L 412.853934 413.082582 
L 413.016419 401.768302 
L 413.06246 395.781826 
L 413.922426 401.768302 
L 416.413252 413.082582 
L 419.699602 424.396873 
L 423.671558 435.711165 
L 413.06246 436.257251 
" clip-path="url(#p4300687159)" style="fill: none; stroke: #460a5d; stroke-width: 1.5"/>
    <path d="M 325.604505 198.521637 
L 325.205094 198.111168 
L 325.604505 189.448234 
L 333.007152 198.111168 
L 325.604505 198.521637 
z
" clip-path="url(#p4300687159)" style="fill: none; stroke: #460a5d; stroke-width: 1.5"/>
    <path d="M 314.67226 175.658672 
L 314.499323 175.482585 
L 314.67226 169.469688 
L 317.889263 175.482585 
L 314.67226 175.658672 
z
" clip-path="url(#p4300687159)" style="fill: none; stroke: #460a5d; stroke-width: 1.5"/>
   </g>
   <g id="PathCollection_3">
    <path d="M 343.264733 582.796875 
L 347.46899 578.28445 
L 358.401235 578.870266 
L 365.529653 571.482595 
L 369.33348 567.160468 
L 376.1595 560.168314 
L 380.265725 556.101285 
L 387.362343 548.854012 
L 386.838789 537.539732 
L 386.242124 526.225451 
L 385.759912 514.911149 
L 385.567477 503.596869 
L 391.19797 499.675751 
L 398.496867 492.282588 
L 397.857483 480.968308 
L 402.130215 477.127369 
L 409.515641 469.654017 
L 409.307695 458.339725 
L 413.06246 454.86744 
L 421.062454 447.025445 
L 413.06246 438.987038 
L 409.294767 435.711165 
L 409.426921 424.396873 
L 409.548002 413.082582 
L 410.07584 401.768302 
L 410.204907 390.454016 
L 410.289401 379.13973 
L 410.582295 367.825444 
L 402.130215 359.325566 
L 398.709994 356.511158 
L 399.487719 345.196873 
L 399.630302 333.882587 
L 399.811366 322.568301 
L 400.130908 311.254015 
L 391.19797 302.502601 
L 387.8259 299.939735 
L 388.708257 288.625449 
L 389.345799 277.311163 
L 380.265725 268.119656 
L 377.874267 265.996877 
L 369.33348 257.418166 
L 366.601452 254.682592 
L 358.401235 246.463865 
L 355.344809 243.368306 
L 355.986294 232.05402 
L 347.46899 223.595144 
L 344.155195 220.739734 
L 344.960575 209.425448 
L 336.536745 200.894215 
L 325.604505 202.052512 
L 321.769335 198.111168 
L 322.872836 186.796877 
L 314.67226 178.518122 
L 311.691015 175.482585 
L 303.740015 167.400698 
L 292.80777 168.216127 
L 289.090108 164.168305 
L 281.875525 156.723728 
L 278.004298 152.854025 
L 278.746646 141.539733 
L 270.94328 133.516977 
L 260.011035 134.348905 
L 256.290594 130.225442 
L 249.07879 122.774156 
L 245.590729 118.911162 
L 238.146545 111.196812 
L 227.214305 111.756911 
L 223.502916 107.596881 
L 216.282055 100.090896 
L 205.349805 100.526836 
L 201.439165 96.282601 
L 194.417565 88.989855 
L 190.657307 84.968299 
L 183.485325 77.530198 
L 179.881766 73.654018 
L 172.553075 66.056683 
L 161.620825 66.371988 
L 157.996013 62.339738 
L 150.688585 54.757222 
L 139.756345 55.14384 
L 135.99512 51.025436 
L 128.824106 43.596521 
L 117.891845 43.896113 
L 106.959605 43.937639 
L 96.027365 43.915713 
L 85.095104 43.879917 
L 74.162865 44.051832 
L 70.194966 39.711155 
L 63.230625 32.48562 
" clip-path="url(#p4300687159)" style="fill: none; stroke: #481467; stroke-width: 1.5"/>
    <path d="M 63.230625 273.052541 
L 74.162865 273.086206 
L 85.095104 273.115486 
L 96.027365 273.043818 
L 100.007997 277.311163 
L 100.018731 288.625449 
L 106.959605 295.794174 
L 111.088669 299.939735 
L 111.093326 311.254015 
L 111.014426 322.568301 
L 106.959605 326.829831 
L 100.153655 333.882587 
L 96.027365 338.673891 
L 85.095104 338.380592 
L 74.162865 338.215764 
L 63.230625 338.212994 
" clip-path="url(#p4300687159)" style="fill: none; stroke: #481467; stroke-width: 1.5"/>
    <path d="M 264.024963 28.396875 
L 270.596314 39.711155 
L 270.94328 40.26528 
L 278.584808 51.025436 
L 281.875525 55.402749 
L 287.685088 62.339738 
L 292.80777 68.295857 
L 297.959554 73.654018 
L 303.740015 78.902791 
L 310.070923 84.968299 
L 314.67226 89.708691 
L 319.904148 96.282601 
L 325.604505 103.392258 
L 329.013613 107.596881 
L 336.536745 116.46227 
L 338.316943 118.911162 
L 345.845657 130.225442 
L 347.46899 133.02171 
L 351.572228 141.539733 
L 356.260983 152.854025 
L 358.401235 157.350217 
L 362.132411 164.168305 
L 369.323552 175.482585 
L 369.33348 175.495695 
L 378.846078 186.796877 
L 380.265725 188.503864 
L 385.594463 198.111168 
L 388.697301 209.425448 
L 390.305969 220.739734 
L 391.19797 228.190391 
L 391.90287 232.05402 
L 397.333019 243.368306 
L 402.130215 252.054824 
L 403.302775 254.682592 
L 409.142572 265.996877 
L 412.395176 277.311163 
L 413.06246 280.150522 
L 415.598581 288.625449 
L 423.92091 299.939735 
L 423.994705 300.029386 
L 434.926945 310.874461 
L 435.293158 311.254015 
L 441.366644 322.568301 
L 445.859195 333.148345 
L 446.188972 333.882587 
L 451.208609 345.196873 
L 453.053643 356.511158 
L 453.476673 367.825444 
L 452.903582 379.13973 
L 455.785588 390.454016 
L 456.791445 392.600254 
L 461.341508 401.768302 
L 467.477096 413.082582 
L 467.723685 413.58646 
L 472.51877 424.396873 
L 477.56985 435.711165 
L 478.655925 438.213743 
L 482.474026 447.025445 
L 487.591517 458.339725 
L 489.588175 464.751408 
L 491.004425 469.654017 
L 492.427494 480.968308 
L 495.43758 492.282588 
L 499.138897 503.596869 
L 500.520425 507.337921 
L 503.256879 514.911149 
L 507.453162 526.225451 
L 511.452665 537.409024 
L 511.501744 537.539732 
L 516.245817 548.854012 
L 520.920441 560.168314 
L 522.384905 563.914683 
L 525.379748 571.482595 
L 529.437126 582.796875 
" clip-path="url(#p4300687159)" style="fill: none; stroke: #481467; stroke-width: 1.5"/>
   </g>
   <g id="PathCollection_4">
    <path d="M 340.585213 582.796875 
L 347.46899 575.408522 
L 358.401235 576.28119 
L 363.031434 571.482595 
L 369.33348 564.321848 
L 373.388325 560.168314 
L 380.265725 553.356563 
L 384.674677 548.854012 
L 383.811593 537.539732 
L 382.836095 526.225451 
L 382.037045 514.911149 
L 381.709676 503.596869 
L 391.19797 496.989149 
L 395.844521 492.282588 
L 394.780365 480.968308 
L 402.130215 474.361219 
L 406.782035 469.654017 
L 406.427959 458.339725 
L 413.06246 452.204354 
L 418.345712 447.025445 
L 413.06246 441.716824 
L 406.155146 435.711165 
L 406.198472 424.396873 
L 406.24207 413.082582 
L 407.135262 401.768302 
L 407.306973 390.454016 
L 407.371892 379.13973 
L 407.708918 367.825444 
L 402.130215 362.215193 
L 395.198362 356.511158 
L 396.383178 345.196873 
L 396.501789 333.882587 
L 396.713284 322.568301 
L 397.047379 311.254015 
L 391.19797 305.52347 
L 383.851216 299.939735 
L 385.275624 288.625449 
L 386.30763 277.311163 
L 380.265725 271.19511 
L 374.409554 265.996877 
L 369.33348 260.898264 
L 363.125867 254.682592 
L 358.401235 249.947295 
L 351.905414 243.368306 
L 353.05114 232.05402 
L 347.46899 226.510163 
L 340.772223 220.739734 
L 342.051308 209.425448 
L 336.536745 203.840575 
L 325.604505 205.583388 
L 318.333576 198.111168 
L 320.040389 186.796877 
L 314.67226 181.377571 
L 308.882707 175.482585 
L 303.740015 170.255236 
L 292.80777 171.411302 
L 286.155547 164.168305 
L 281.875525 159.75184 
L 274.974994 152.854025 
L 276.099876 141.539733 
L 270.94328 136.238161 
L 260.011035 137.443572 
L 253.498397 130.225442 
L 249.07879 125.659074 
L 242.985815 118.911162 
L 238.146545 113.896264 
L 227.214305 114.684691 
L 220.890884 107.596881 
L 216.282055 102.806068 
L 205.349805 103.413579 
L 198.779319 96.282601 
L 194.417565 91.752414 
L 188.074243 84.968299 
L 183.485325 80.209108 
L 177.391271 73.654018 
L 172.553075 68.638471 
L 161.620825 69.084331 
L 155.557737 62.339738 
L 150.688585 57.287287 
L 139.756345 57.854403 
L 133.519637 51.025436 
L 128.824106 46.161033 
L 117.891845 46.582897 
L 106.959605 46.596594 
L 96.027365 46.52115 
L 85.095104 46.43164 
L 74.162865 46.687631 
L 67.785529 39.711155 
L 63.230625 34.985422 
" clip-path="url(#p4300687159)" style="fill: none; stroke: #481c6e; stroke-width: 1.5"/>
    <path d="M 63.230625 393.441989 
L 67.807783 390.454016 
L 74.162865 386.047809 
L 82.623568 379.13973 
L 85.095104 377.363834 
L 96.027365 369.511002 
L 98.405411 367.825444 
L 106.959605 363.880642 
L 117.891845 357.640108 
L 119.545961 356.511158 
L 128.824106 352.173253 
L 139.292125 345.196873 
L 139.756345 344.756533 
L 149.526555 333.882587 
L 150.688585 330.969562 
L 154.527716 322.568301 
L 161.620825 313.055446 
L 163.25897 311.254015 
L 172.553075 300.312752 
L 172.846724 299.939735 
L 178.937739 288.625449 
L 183.485325 279.609393 
L 186.7741 277.311163 
L 183.485325 272.283954 
L 180.26894 265.996877 
L 172.553075 261.178257 
L 163.217815 254.682592 
L 161.620825 253.653649 
L 150.688585 247.36003 
L 143.246789 243.368306 
L 139.756345 241.772431 
L 128.824106 238.009624 
L 117.891845 234.435789 
L 106.959605 232.326235 
L 105.756408 232.05402 
L 96.027365 226.459516 
L 85.095104 225.239266 
L 74.162865 227.236306 
L 63.230625 228.886705 
" clip-path="url(#p4300687159)" style="fill: none; stroke: #481c6e; stroke-width: 1.5"/>
    <path d="M 63.230625 270.555981 
L 74.162865 270.611356 
L 85.095104 270.659213 
L 96.027365 270.552795 
L 102.331653 277.311163 
L 102.342818 288.625449 
L 106.959605 293.393793 
L 113.479497 299.939735 
L 113.476235 311.254015 
L 113.352782 322.568301 
L 106.959605 329.287393 
L 102.525216 333.882587 
L 96.027365 341.427666 
L 85.095104 340.971226 
L 74.162865 340.713415 
L 63.230625 340.71115 
" clip-path="url(#p4300687159)" style="fill: none; stroke: #481c6e; stroke-width: 1.5"/>
    <path d="M 63.230625 76.011656 
L 74.162865 84.134533 
L 75.322381 84.968299 
L 85.095104 92.795801 
L 90.6587 96.282601 
L 96.027365 100.368873 
L 106.959605 105.702071 
L 113.943281 107.596881 
L 117.891845 109.12775 
L 128.824106 111.580672 
L 139.756345 114.407669 
L 149.034131 118.911162 
L 150.688585 119.806285 
L 161.620825 124.654966 
L 172.553075 125.912173 
L 183.485325 126.725089 
L 190.171967 130.225442 
L 194.417565 132.97089 
L 205.349805 140.821599 
L 206.82867 141.539733 
L 216.282055 147.418167 
L 227.214305 152.673657 
L 227.504261 152.854025 
L 238.146545 158.811129 
L 248.259729 164.168305 
L 249.07879 164.618535 
L 260.011035 172.181481 
L 263.037138 175.482585 
L 270.94328 184.793923 
L 272.656778 186.796877 
L 276.985516 198.111168 
L 281.875525 203.307146 
L 290.520857 209.425448 
L 292.80777 210.750229 
L 303.740015 215.789513 
L 314.67226 219.540485 
L 315.915079 220.739734 
L 325.604505 231.502412 
L 325.894186 232.05402 
L 330.416189 243.368306 
L 336.536745 251.72016 
L 339.474331 254.682592 
L 347.46899 263.110503 
L 349.631703 265.996877 
L 357.339485 277.311163 
L 358.401235 279.12425 
L 362.645219 288.625449 
L 367.950964 299.939735 
L 369.33348 303.026251 
L 372.118653 311.254015 
L 373.191904 322.568301 
L 371.343941 333.882587 
L 369.33348 339.327698 
L 362.53519 345.196873 
L 358.401235 351.48391 
L 353.049239 356.511158 
L 358.401235 359.079452 
L 369.33348 357.685456 
L 380.265725 365.398851 
L 381.42553 367.825444 
L 383.934977 379.13973 
L 384.567696 390.454016 
L 382.22358 401.768302 
L 382.463713 413.082582 
L 381.923797 424.396873 
L 383.320789 435.711165 
L 383.212769 447.025445 
L 381.766367 458.339725 
L 380.588489 469.654017 
L 380.265725 472.232806 
L 378.828299 480.968308 
L 377.267927 492.282588 
L 374.939622 503.596869 
L 372.76663 514.911149 
L 369.33348 525.130578 
L 368.462146 526.225451 
L 358.401235 534.924845 
L 352.821031 537.539732 
L 347.46899 539.880497 
L 336.536745 544.377231 
L 331.836035 548.854012 
L 325.604505 555.635425 
L 320.794003 560.168314 
L 314.67226 566.497655 
L 309.652002 571.482595 
L 303.740015 578.415229 
L 298.543769 582.796875 
" clip-path="url(#p4300687159)" style="fill: none; stroke: #481c6e; stroke-width: 1.5"/>
    <path d="M 324.675488 28.396875 
L 325.604505 29.516829 
L 332.898112 39.711155 
L 336.536745 45.08741 
L 340.656059 51.025436 
L 347.46899 60.165651 
L 349.461156 62.339738 
L 358.401235 72.338439 
L 359.919382 73.654018 
L 369.33348 82.259904 
L 371.733609 84.968299 
L 379.26348 96.282601 
L 380.265725 97.916454 
L 387.092221 107.596881 
L 391.19797 113.98939 
L 394.954248 118.911162 
L 402.130215 127.504156 
L 404.278801 130.225442 
L 411.68914 141.539733 
L 413.06246 143.631876 
L 418.28842 152.854025 
L 423.502688 164.168305 
L 423.994705 166.695839 
L 425.352907 175.482585 
L 427.669525 186.796877 
L 432.924682 198.111168 
L 434.926945 202.107785 
L 437.623818 209.425448 
L 443.130147 220.739734 
L 445.859195 224.251724 
L 451.516404 232.05402 
L 456.791445 242.061604 
L 457.350988 243.368306 
L 459.653844 254.682592 
L 462.301013 265.996877 
L 466.658435 277.311163 
L 467.723685 279.945613 
L 470.555624 288.625449 
L 474.408108 299.939735 
L 478.655925 309.575328 
L 479.439113 311.254015 
L 486.546209 322.568301 
L 489.588175 328.113805 
L 492.747975 333.882587 
L 496.807985 345.196873 
L 499.110884 356.511158 
L 500.520425 363.166118 
L 501.577976 367.825444 
L 504.680113 379.13973 
L 506.353167 390.454016 
L 509.54632 401.768302 
L 511.452665 407.83295 
L 513.10078 413.082582 
L 516.667719 424.396873 
L 521.983302 435.711165 
L 522.384905 436.652152 
L 526.84039 447.025445 
L 531.385042 458.339725 
L 533.317144 463.650434 
L 535.561036 469.654017 
L 540.586907 480.968308 
L 544.249405 489.862903 
L 545.350991 492.282588 
L 549.586167 503.596869 
L 553.277034 514.911149 
L 555.181645 520.016017 
L 557.546052 526.225451 
L 562.629906 537.539732 
L 566.113885 545.379637 
L 567.701435 548.854012 
L 572.067774 560.168314 
L 576.332511 571.482595 
L 577.046146 573.709177 
L 579.911578 582.796875 
" clip-path="url(#p4300687159)" style="fill: none; stroke: #481c6e; stroke-width: 1.5"/>
   </g>
   <g id="PathCollection_5">
    <path d="M 337.905692 582.796875 
L 336.536745 573.07265 
L 326.658752 582.796875 
" clip-path="url(#p4300687159)" style="fill: none; stroke: #482576; stroke-width: 1.5"/>
    <path d="M 63.230625 365.018428 
L 74.162865 360.44048 
L 84.001907 356.511158 
L 85.095104 356.117196 
L 96.027365 351.345945 
L 106.959605 347.058984 
L 111.638388 345.196873 
L 117.891845 342.239106 
L 128.824106 334.224861 
L 129.181572 333.882587 
L 136.322373 322.568301 
L 139.756345 313.35729 
L 140.844869 311.254015 
L 142.713689 299.939735 
L 150.688585 289.12669 
L 151.106705 288.625449 
L 150.688585 284.826187 
L 149.845319 277.311163 
L 139.756345 266.524769 
L 139.076199 265.996877 
L 128.824106 261.68174 
L 117.891845 257.252231 
L 109.693081 254.682592 
L 106.959605 253.692117 
L 96.027365 251.133951 
L 85.095104 250.333532 
L 74.162865 250.630084 
L 63.230625 251.521225 
" clip-path="url(#p4300687159)" style="fill: none; stroke: #482576; stroke-width: 1.5"/>
    <path d="M 63.230625 268.05942 
L 74.162865 268.136506 
L 85.095104 268.202941 
L 96.027365 268.061772 
L 104.65531 277.311163 
L 104.666905 288.625449 
L 106.959605 290.993413 
L 115.870326 299.939735 
L 115.859145 311.254015 
L 115.691138 322.568301 
L 106.959605 331.744955 
L 104.896778 333.882587 
L 96.027365 344.18144 
L 85.095104 343.56186 
L 74.162865 343.211065 
L 63.230625 343.209306 
" clip-path="url(#p4300687159)" style="fill: none; stroke: #482576; stroke-width: 1.5"/>
    <path d="M 63.230625 55.178957 
L 74.162865 62.11068 
L 74.552361 62.339738 
L 85.095104 68.96022 
L 94.379199 73.654018 
L 96.027365 74.692412 
L 106.959605 77.7544 
L 117.891845 76.43529 
L 128.824106 78.034047 
L 139.756345 81.841852 
L 149.261357 84.968299 
L 150.688585 85.435193 
L 161.620825 91.061578 
L 172.553075 95.970136 
L 173.071219 96.282601 
L 183.485325 101.711601 
L 190.771877 107.596881 
L 194.417565 110.141935 
L 205.349805 116.78201 
L 209.676074 118.911162 
L 216.282055 122.13731 
L 227.214305 127.13255 
L 232.705344 130.225442 
L 238.146545 133.639053 
L 249.07879 140.295579 
L 250.7062 130.225442 
L 249.07879 128.543991 
L 240.380901 118.911162 
L 238.146545 116.595716 
L 227.214305 117.612471 
L 218.278852 107.596881 
L 216.282055 105.521239 
L 205.349805 106.300322 
L 196.119472 96.282601 
L 194.417565 94.514973 
L 185.491179 84.968299 
L 183.485325 82.888017 
L 174.900776 73.654018 
L 172.553075 71.220259 
L 161.620825 71.796675 
L 153.119461 62.339738 
L 150.688585 59.817352 
L 139.756345 60.564966 
L 131.044154 51.025436 
L 128.824106 48.725545 
L 117.891845 49.269682 
L 106.959605 49.255549 
L 96.027365 49.126587 
L 85.095104 48.983364 
L 74.162865 49.323431 
L 65.376092 39.711155 
L 63.230625 37.485224 
" clip-path="url(#p4300687159)" style="fill: none; stroke: #482576; stroke-width: 1.5"/>
    <path d="M 397.189001 28.396875 
L 402.130215 31.519387 
L 413.06246 38.625049 
L 414.197378 39.711155 
L 423.707347 51.025436 
L 423.994705 51.409754 
L 431.295311 62.339738 
L 434.926945 68.543595 
L 437.336021 73.654018 
L 442.499812 84.968299 
L 445.859195 92.985724 
L 446.988856 96.282601 
L 450.257803 107.596881 
L 454.458492 118.911162 
L 456.791445 124.602754 
L 459.017594 130.225442 
L 462.202779 141.539733 
L 465.613994 152.854025 
L 467.723685 158.900659 
L 469.389241 164.168305 
L 471.290208 175.482585 
L 473.652804 186.796877 
L 478.655925 197.127318 
L 479.156187 198.111168 
L 487.37759 209.425448 
L 489.588175 213.637759 
L 492.268855 220.739734 
L 493.432715 232.05402 
L 495.07789 243.368306 
L 499.974879 254.682592 
L 500.520425 255.963909 
L 504.861879 265.996877 
L 508.241776 277.311163 
L 511.452665 285.911148 
L 512.45654 288.625449 
L 517.287836 299.939735 
L 522.384905 308.658153 
L 523.95578 311.254015 
L 531.606608 322.568301 
L 533.317144 325.817325 
L 537.601475 333.882587 
L 542.248446 345.196873 
L 544.249405 350.38399 
L 546.598812 356.511158 
L 550.589797 367.825444 
L 555.181645 378.496171 
L 555.463192 379.13973 
L 559.918154 390.454016 
L 563.183447 401.768302 
L 565.921502 413.082582 
L 566.113885 414.102611 
L 567.963207 424.396873 
L 570.840016 435.711165 
L 575.091285 447.025445 
L 577.046146 451.704767 
L 579.733894 458.339725 
L 585.186934 469.654017 
L 587.978385 475.311791 
L 590.790643 480.968308 
L 596.129089 492.282588 
L 598.910625 498.164965 
" clip-path="url(#p4300687159)" style="fill: none; stroke: #482576; stroke-width: 1.5"/>
    <path d="M 347.46899 572.532595 
L 358.401235 573.692113 
L 360.533215 571.482595 
L 369.33348 561.483227 
L 370.61715 560.168314 
L 369.33348 550.890007 
L 358.401235 558.402008 
L 355.749465 560.168314 
L 347.46899 565.037027 
L 338.57238 571.482595 
L 347.46899 572.532595 
z
" clip-path="url(#p4300687159)" style="fill: none; stroke: #482576; stroke-width: 1.5"/>
    <path d="M 380.265725 550.611841 
L 381.987012 548.854012 
L 380.784397 537.539732 
L 380.265725 532.887384 
L 377.839916 537.539732 
L 370.830929 548.854012 
L 380.265725 550.611841 
z
" clip-path="url(#p4300687159)" style="fill: none; stroke: #482576; stroke-width: 1.5"/>
    <path d="M 391.19797 494.302548 
L 393.192175 492.282588 
L 391.703248 480.968308 
L 391.19797 475.780783 
L 389.537561 480.968308 
L 385.913108 492.282588 
L 391.19797 494.302548 
z
" clip-path="url(#p4300687159)" style="fill: none; stroke: #482576; stroke-width: 1.5"/>
    <path d="M 402.130215 471.595068 
L 404.04843 469.654017 
L 403.548224 458.339725 
L 413.06246 449.541267 
L 415.62897 447.025445 
L 413.06246 444.446611 
L 403.015525 435.711165 
L 402.970023 424.396873 
L 402.936139 413.082582 
L 404.194683 401.768302 
L 404.409039 390.454016 
L 404.454384 379.13973 
L 404.83554 367.825444 
L 402.130215 365.104819 
L 392.661661 367.825444 
L 393.97056 379.13973 
L 395.453838 390.454016 
L 396.433266 401.768302 
L 399.364878 413.082582 
L 398.533569 424.396873 
L 398.420019 435.711165 
L 399.245517 447.025445 
L 395.911687 458.339725 
L 393.565131 469.654017 
L 402.130215 471.595068 
z
" clip-path="url(#p4300687159)" style="fill: none; stroke: #482576; stroke-width: 1.5"/>
    <path d="M 391.19797 362.041933 
L 391.68673 356.511158 
L 393.278637 345.196873 
L 393.373276 333.882587 
L 393.615201 322.568301 
L 393.96385 311.254015 
L 391.19797 308.54434 
L 383.839857 311.254015 
L 384.677045 322.568301 
L 383.935081 333.882587 
L 382.840625 345.196873 
L 389.216131 356.511158 
L 391.19797 362.041933 
z
" clip-path="url(#p4300687159)" style="fill: none; stroke: #482576; stroke-width: 1.5"/>
    <path d="M 380.265725 297.952198 
L 381.842991 288.625449 
L 383.269461 277.311163 
L 380.265725 274.270564 
L 371.081505 277.311163 
L 375.458688 288.625449 
L 380.265725 297.952198 
z
" clip-path="url(#p4300687159)" style="fill: none; stroke: #482576; stroke-width: 1.5"/>
    <path d="M 369.33348 274.052022 
L 370.944841 265.996877 
L 369.33348 264.378362 
L 364.178379 265.996877 
L 369.33348 274.052022 
z
" clip-path="url(#p4300687159)" style="fill: none; stroke: #482576; stroke-width: 1.5"/>
    <path d="M 358.401235 259.300147 
L 359.650282 254.682592 
L 358.401235 253.430725 
L 354.528943 254.682592 
L 358.401235 259.300147 
z
" clip-path="url(#p4300687159)" style="fill: none; stroke: #482576; stroke-width: 1.5"/>
    <path d="M 347.46899 246.838672 
L 348.46602 243.368306 
L 350.115986 232.05402 
L 347.46899 229.425182 
L 338.734208 232.05402 
L 344.071284 243.368306 
L 347.46899 246.838672 
z
" clip-path="url(#p4300687159)" style="fill: none; stroke: #482576; stroke-width: 1.5"/>
    <path d="M 336.536745 226.693644 
L 337.389251 220.739734 
L 339.14204 209.425448 
L 336.536745 206.786936 
L 325.604505 209.114263 
L 324.108246 209.425448 
L 325.604505 210.897183 
L 333.262563 220.739734 
L 336.536745 226.693644 
z
" clip-path="url(#p4300687159)" style="fill: none; stroke: #482576; stroke-width: 1.5"/>
    <path d="M 314.67226 199.306408 
L 314.897817 198.111168 
L 317.207942 186.796877 
L 314.67226 184.237021 
L 303.86386 186.796877 
L 313.328489 198.111168 
L 314.67226 199.306408 
z
" clip-path="url(#p4300687159)" style="fill: none; stroke: #482576; stroke-width: 1.5"/>
    <path d="M 292.80777 180.598607 
L 303.740015 186.658958 
L 306.074399 175.482585 
L 303.740015 173.109773 
L 292.80777 174.606477 
L 286.256662 175.482585 
L 292.80777 180.598607 
z
" clip-path="url(#p4300687159)" style="fill: none; stroke: #482576; stroke-width: 1.5"/>
    <path d="M 281.875525 172.250212 
L 283.220985 164.168305 
L 281.875525 162.779953 
L 273.837001 164.168305 
L 281.875525 172.250212 
z
" clip-path="url(#p4300687159)" style="fill: none; stroke: #482576; stroke-width: 1.5"/>
    <path d="M 270.94328 160.403039 
L 271.94569 152.854025 
L 273.453105 141.539733 
L 270.94328 138.959345 
L 260.011035 140.538238 
L 251.068594 141.539733 
L 260.011035 148.004414 
L 264.637388 152.854025 
L 270.94328 160.403039 
z
" clip-path="url(#p4300687159)" style="fill: none; stroke: #482576; stroke-width: 1.5"/>
   </g>
   <g id="PathCollection_6">
    <path d="M 471.913394 28.396875 
L 475.182695 39.711155 
L 478.570934 51.025436 
L 478.655925 51.363192 
L 480.860915 62.339738 
L 483.09061 73.654018 
L 486.015634 84.968299 
L 489.588175 95.132305 
L 490.005778 96.282601 
L 495.272256 107.596881 
L 500.520425 117.238618 
L 501.301871 118.911162 
L 504.494613 130.225442 
L 506.460654 141.539733 
L 509.398773 152.854025 
L 511.452665 158.541248 
L 513.692555 164.168305 
L 518.901318 175.482585 
L 522.384905 182.59234 
L 524.3344 186.796877 
L 528.11199 198.111168 
L 531.084488 209.425448 
L 532.820416 220.739734 
L 533.317144 223.378682 
L 534.965088 232.05402 
L 537.890209 243.368306 
L 541.707996 254.682592 
L 544.249405 260.661172 
L 546.52844 265.996877 
L 550.1005 277.311163 
L 554.211623 288.625449 
L 555.181645 290.382221 
L 560.920757 299.939735 
L 566.113885 307.470685 
L 568.717354 311.254015 
L 576.347919 322.568301 
L 577.046146 323.774243 
L 582.718425 333.882587 
L 587.645375 345.196873 
L 587.978385 346.372927 
L 590.860408 356.511158 
L 594.9239 367.825444 
L 598.910625 376.436166 
" clip-path="url(#p4300687159)" style="fill: none; stroke: #472d7b; stroke-width: 1.5"/>
   </g>
   <g id="PathCollection_7">
    <path d="M 512.499007 28.396875 
L 514.024118 39.711155 
L 516.083559 51.025436 
L 518.515089 62.339738 
L 522.384905 72.892757 
L 522.720255 73.654018 
L 528.909914 84.968299 
L 533.317144 94.151818 
L 534.204455 96.282601 
L 537.968242 107.596881 
L 541.902727 118.911162 
L 544.249405 125.52331 
L 546.044158 130.225442 
L 551.057792 141.539733 
L 555.181645 150.637027 
L 556.189186 152.854025 
L 561.683397 164.168305 
L 565.501 175.482585 
L 566.113885 178.285227 
L 567.984612 186.796877 
L 571.40522 198.111168 
L 574.799491 209.425448 
L 576.848062 220.739734 
L 577.046146 222.100716 
L 578.463586 232.05402 
L 581.326475 243.368306 
L 586.440222 254.682592 
L 587.978385 258.370402 
L 591.086155 265.996877 
L 594.945841 277.311163 
L 598.910625 285.095381 
" clip-path="url(#p4300687159)" style="fill: none; stroke: #453581; stroke-width: 1.5"/>
   </g>
   <g id="PathCollection_8">
    <path d="M 549.16362 28.396875 
L 551.758123 39.711155 
L 555.181645 48.593901 
L 556.240672 51.025436 
L 561.62881 62.339738 
L 566.113885 73.388022 
L 566.224991 73.654018 
L 571.366443 84.968299 
L 576.321418 96.282601 
L 577.046146 97.841479 
L 581.883478 107.596881 
L 587.978385 118.910384 
L 587.978813 118.911162 
L 593.173919 130.225442 
L 597.244581 141.539733 
L 598.910625 146.22101 
" clip-path="url(#p4300687159)" style="fill: none; stroke: #433d84; stroke-width: 1.5"/>
   </g>
   <g id="PathCollection_9">
    <path d="M 588.009881 28.396875 
L 588.045681 39.711155 
L 598.910625 50.999272 
" clip-path="url(#p4300687159)" style="fill: none; stroke: #404588; stroke-width: 1.5"/>
   </g>
   <g id="PathCollection_10">
    <path d="M 588.372147 28.396875 
L 588.412133 39.711155 
L 598.910625 50.618548 
" clip-path="url(#p4300687159)" style="fill: none; stroke: #3d4d8a; stroke-width: 1.5"/>
   </g>
   <g id="PathCollection_11">
    <path d="M 588.734412 28.396875 
L 588.778585 39.711155 
L 598.910625 50.237823 
" clip-path="url(#p4300687159)" style="fill: none; stroke: #3a538b; stroke-width: 1.5"/>
   </g>
   <g id="PathCollection_12">
    <path d="M 589.096677 28.396875 
L 589.145036 39.711155 
L 598.910625 49.857099 
" clip-path="url(#p4300687159)" style="fill: none; stroke: #375b8d; stroke-width: 1.5"/>
   </g>
   <g id="PathCollection_13">
    <path d="M 589.458942 28.396875 
L 589.511488 39.711155 
L 598.910625 49.476374 
" clip-path="url(#p4300687159)" style="fill: none; stroke: #34618d; stroke-width: 1.5"/>
   </g>
   <g id="PathCollection_14">
    <path d="M 589.821207 28.396875 
L 589.87794 39.711155 
L 598.910625 49.09565 
" clip-path="url(#p4300687159)" style="fill: none; stroke: #31688e; stroke-width: 1.5"/>
   </g>
   <g id="PathCollection_15">
    <path d="M 590.183472 28.396875 
L 590.244392 39.711155 
L 598.910625 48.714925 
" clip-path="url(#p4300687159)" style="fill: none; stroke: #2e6e8e; stroke-width: 1.5"/>
   </g>
   <g id="PathCollection_16">
    <path d="M 590.545737 28.396875 
L 590.610843 39.711155 
L 598.910625 48.334201 
" clip-path="url(#p4300687159)" style="fill: none; stroke: #2b748e; stroke-width: 1.5"/>
   </g>
   <g id="PathCollection_17">
    <path d="M 590.908002 28.396875 
L 590.977295 39.711155 
L 598.910625 47.953476 
" clip-path="url(#p4300687159)" style="fill: none; stroke: #297b8e; stroke-width: 1.5"/>
   </g>
   <g id="PathCollection_18">
    <path d="M 591.270267 28.396875 
L 591.343747 39.711155 
L 598.910625 47.572752 
" clip-path="url(#p4300687159)" style="fill: none; stroke: #26818e; stroke-width: 1.5"/>
   </g>
   <g id="PathCollection_19">
    <path d="M 591.632532 28.396875 
L 591.710199 39.711155 
L 598.910625 47.192027 
" clip-path="url(#p4300687159)" style="fill: none; stroke: #24878e; stroke-width: 1.5"/>
   </g>
   <g id="PathCollection_20">
    <path d="M 591.994798 28.396875 
L 592.07665 39.711155 
L 598.910625 46.811303 
" clip-path="url(#p4300687159)" style="fill: none; stroke: #228d8d; stroke-width: 1.5"/>
   </g>
   <g id="PathCollection_21">
    <path d="M 592.357063 28.396875 
L 592.443102 39.711155 
L 598.910625 46.430578 
" clip-path="url(#p4300687159)" style="fill: none; stroke: #20938c; stroke-width: 1.5"/>
   </g>
   <g id="PathCollection_22">
    <path d="M 592.719328 28.396875 
L 592.809554 39.711155 
L 598.910625 46.049854 
" clip-path="url(#p4300687159)" style="fill: none; stroke: #1f998a; stroke-width: 1.5"/>
   </g>
   <g id="PathCollection_23">
    <path d="M 593.081593 28.396875 
L 593.176006 39.711155 
L 598.910625 45.669129 
" clip-path="url(#p4300687159)" style="fill: none; stroke: #1fa088; stroke-width: 1.5"/>
   </g>
   <g id="PathCollection_24">
    <path d="M 593.443858 28.396875 
L 593.542457 39.711155 
L 598.910625 45.288405 
" clip-path="url(#p4300687159)" style="fill: none; stroke: #21a585; stroke-width: 1.5"/>
   </g>
   <g id="PathCollection_25">
    <path d="M 593.806123 28.396875 
L 593.908909 39.711155 
L 598.910625 44.90768 
" clip-path="url(#p4300687159)" style="fill: none; stroke: #25ac82; stroke-width: 1.5"/>
   </g>
   <g id="PathCollection_26">
    <path d="M 594.168388 28.396875 
L 594.275361 39.711155 
L 598.910625 44.526956 
" clip-path="url(#p4300687159)" style="fill: none; stroke: #2db27d; stroke-width: 1.5"/>
   </g>
   <g id="PathCollection_27">
    <path d="M 594.530653 28.396875 
L 594.641813 39.711155 
L 598.910625 44.146232 
" clip-path="url(#p4300687159)" style="fill: none; stroke: #35b779; stroke-width: 1.5"/>
   </g>
   <g id="PathCollection_28">
    <path d="M 594.892918 28.396875 
L 595.008264 39.711155 
L 598.910625 43.765507 
" clip-path="url(#p4300687159)" style="fill: none; stroke: #40bd72; stroke-width: 1.5"/>
   </g>
   <g id="PathCollection_29">
    <path d="M 595.255183 28.396875 
L 595.374716 39.711155 
L 598.910625 43.384783 
" clip-path="url(#p4300687159)" style="fill: none; stroke: #4cc26c; stroke-width: 1.5"/>
   </g>
   <g id="PathCollection_30">
    <path d="M 595.617449 28.396875 
L 595.741168 39.711155 
L 598.910625 43.004058 
" clip-path="url(#p4300687159)" style="fill: none; stroke: #5ac864; stroke-width: 1.5"/>
   </g>
   <g id="PathCollection_31">
    <path d="M 595.979714 28.396875 
L 596.10762 39.711155 
L 598.910625 42.623334 
" clip-path="url(#p4300687159)" style="fill: none; stroke: #67cc5c; stroke-width: 1.5"/>
   </g>
   <g id="PathCollection_32">
    <path d="M 596.341979 28.396875 
L 596.474071 39.711155 
L 598.910625 42.242609 
" clip-path="url(#p4300687159)" style="fill: none; stroke: #77d153; stroke-width: 1.5"/>
   </g>
   <g id="PathCollection_33">
    <path d="M 596.704244 28.396875 
L 596.840523 39.711155 
L 598.910625 41.861885 
" clip-path="url(#p4300687159)" style="fill: none; stroke: #89d548; stroke-width: 1.5"/>
   </g>
   <g id="PathCollection_34">
    <path d="M 597.066509 28.396875 
L 597.206975 39.711155 
L 598.910625 41.48116 
" clip-path="url(#p4300687159)" style="fill: none; stroke: #98d83e; stroke-width: 1.5"/>
   </g>
   <g id="PathCollection_35">
    <path d="M 597.428774 28.396875 
L 597.573426 39.711155 
L 598.910625 41.100436 
" clip-path="url(#p4300687159)" style="fill: none; stroke: #aadc32; stroke-width: 1.5"/>
   </g>
   <g id="PathCollection_36">
    <path d="M 597.791039 28.396875 
L 597.939878 39.711155 
L 598.910625 40.719711 
" clip-path="url(#p4300687159)" style="fill: none; stroke: #bade28; stroke-width: 1.5"/>
   </g>
   <g id="PathCollection_37">
    <path d="M 598.153304 28.396875 
L 598.30633 39.711155 
L 598.910625 40.338987 
" clip-path="url(#p4300687159)" style="fill: none; stroke: #cde11d; stroke-width: 1.5"/>
   </g>
   <g id="PathCollection_38">
    <path d="M 598.515569 28.396875 
L 598.672782 39.711155 
L 598.910625 39.958262 
" clip-path="url(#p4300687159)" style="fill: none; stroke: #dde318; stroke-width: 1.5"/>
   </g>
   <g id="PathCollection_39">
    <path d="M 598.877835 28.396875 
L 598.910625 30.71665 
" clip-path="url(#p4300687159)" style="fill: none; stroke: #efe51c; stroke-width: 1.5"/>
   </g>
   <g id="PathCollection_40"/>
   <g id="line2d_29">
    <defs>
     <path id="m080b810ff0" d="M 0 2.5 
C 0.663008 2.5 1.29895 2.236584 1.767767 1.767767 
C 2.236584 1.29895 2.5 0.663008 2.5 0 
C 2.5 -0.663008 2.236584 -1.29895 1.767767 -1.767767 
C 1.29895 -2.236584 0.663008 -2.5 0 -2.5 
C -0.663008 -2.5 -1.29895 -2.236584 -1.767767 -1.767767 
C -2.236584 -1.29895 -2.5 -0.663008 -2.5 0 
C -2.5 0.663008 -2.236584 1.29895 -1.767767 1.767767 
C -1.29895 2.236584 -0.663008 2.5 0 2.5 
z
" style="stroke: #ff0000"/>
    </defs>
    <g clip-path="url(#p4300687159)">
     <use xlink:href="#m080b810ff0" x="331.070625" y="305.596875" style="fill: #ff0000; stroke: #ff0000"/>
    </g>
   </g>
   <g id="patch_3">
    <path d="M 63.230625 582.796875 
L 63.230625 28.396875 
" style="fill: none; stroke: #000000; stroke-width: 0.8; stroke-linejoin: miter; stroke-linecap: square"/>
   </g>
   <g id="patch_4">
    <path d="M 598.910625 582.796875 
L 598.910625 28.396875 
" style="fill: none; stroke: #000000; stroke-width: 0.8; stroke-linejoin: miter; stroke-linecap: square"/>
   </g>
   <g id="patch_5">
    <path d="M 63.230625 582.796875 
L 598.910625 582.796875 
" style="fill: none; stroke: #000000; stroke-width: 0.8; stroke-linejoin: miter; stroke-linecap: square"/>
   </g>
   <g id="patch_6">
    <path d="M 63.230625 28.396875 
L 598.910625 28.396875 
" style="fill: none; stroke: #000000; stroke-width: 0.8; stroke-linejoin: miter; stroke-linecap: square"/>
   </g>
   <g id="text_17">
    <!-- Loss Landscape (bkg=0.45, d=0.75, n=50) - Contour -->
    <g transform="translate(65.081563 22.396875) scale(0.2 -0.2)">
     <defs>
      <path id="DejaVuSans-4c" d="M 628 4666 
L 1259 4666 
L 1259 531 
L 3531 531 
L 3531 0 
L 628 0 
L 628 4666 
z
" transform="scale(0.015625)"/>
      <path id="DejaVuSans-73" d="M 2834 3397 
L 2834 2853 
Q 2591 2978 2328 3040 
Q 2066 3103 1784 3103 
Q 1356 3103 1142 2972 
Q 928 2841 928 2578 
Q 928 2378 1081 2264 
Q 1234 2150 1697 2047 
L 1894 2003 
Q 2506 1872 2764 1633 
Q 3022 1394 3022 966 
Q 3022 478 2636 193 
Q 2250 -91 1575 -91 
Q 1294 -91 989 -36 
Q 684 19 347 128 
L 347 722 
Q 666 556 975 473 
Q 1284 391 1588 391 
Q 1994 391 2212 530 
Q 2431 669 2431 922 
Q 2431 1156 2273 1281 
Q 2116 1406 1581 1522 
L 1381 1569 
Q 847 1681 609 1914 
Q 372 2147 372 2553 
Q 372 3047 722 3315 
Q 1072 3584 1716 3584 
Q 2034 3584 2315 3537 
Q 2597 3491 2834 3397 
z
" transform="scale(0.015625)"/>
      <path id="DejaVuSans-61" d="M 2194 1759 
Q 1497 1759 1228 1600 
Q 959 1441 959 1056 
Q 959 750 1161 570 
Q 1363 391 1709 391 
Q 2188 391 2477 730 
Q 2766 1069 2766 1631 
L 2766 1759 
L 2194 1759 
z
M 3341 1997 
L 3341 0 
L 2766 0 
L 2766 531 
Q 2569 213 2275 61 
Q 1981 -91 1556 -91 
Q 1019 -91 701 211 
Q 384 513 384 1019 
Q 384 1609 779 1909 
Q 1175 2209 1959 2209 
L 2766 2209 
L 2766 2266 
Q 2766 2663 2505 2880 
Q 2244 3097 1772 3097 
Q 1472 3097 1187 3025 
Q 903 2953 641 2809 
L 641 3341 
Q 956 3463 1253 3523 
Q 1550 3584 1831 3584 
Q 2591 3584 2966 3190 
Q 3341 2797 3341 1997 
z
" transform="scale(0.015625)"/>
      <path id="DejaVuSans-64" d="M 2906 2969 
L 2906 4863 
L 3481 4863 
L 3481 0 
L 2906 0 
L 2906 525 
Q 2725 213 2448 61 
Q 2172 -91 1784 -91 
Q 1150 -91 751 415 
Q 353 922 353 1747 
Q 353 2572 751 3078 
Q 1150 3584 1784 3584 
Q 2172 3584 2448 3432 
Q 2725 3281 2906 2969 
z
M 947 1747 
Q 947 1113 1208 752 
Q 1469 391 1925 391 
Q 2381 391 2643 752 
Q 2906 1113 2906 1747 
Q 2906 2381 2643 2742 
Q 2381 3103 1925 3103 
Q 1469 3103 1208 2742 
Q 947 2381 947 1747 
z
" transform="scale(0.015625)"/>
      <path id="DejaVuSans-70" d="M 1159 525 
L 1159 -1331 
L 581 -1331 
L 581 3500 
L 1159 3500 
L 1159 2969 
Q 1341 3281 1617 3432 
Q 1894 3584 2278 3584 
Q 2916 3584 3314 3078 
Q 3713 2572 3713 1747 
Q 3713 922 3314 415 
Q 2916 -91 2278 -91 
Q 1894 -91 1617 61 
Q 1341 213 1159 525 
z
M 3116 1747 
Q 3116 2381 2855 2742 
Q 2594 3103 2138 3103 
Q 1681 3103 1420 2742 
Q 1159 2381 1159 1747 
Q 1159 1113 1420 752 
Q 1681 391 2138 391 
Q 2594 391 2855 752 
Q 3116 1113 3116 1747 
z
" transform="scale(0.015625)"/>
      <path id="DejaVuSans-28" d="M 1984 4856 
Q 1566 4138 1362 3434 
Q 1159 2731 1159 2009 
Q 1159 1288 1364 580 
Q 1569 -128 1984 -844 
L 1484 -844 
Q 1016 -109 783 600 
Q 550 1309 550 2009 
Q 550 2706 781 3412 
Q 1013 4119 1484 4856 
L 1984 4856 
z
" transform="scale(0.015625)"/>
      <path id="DejaVuSans-62" d="M 3116 1747 
Q 3116 2381 2855 2742 
Q 2594 3103 2138 3103 
Q 1681 3103 1420 2742 
Q 1159 2381 1159 1747 
Q 1159 1113 1420 752 
Q 1681 391 2138 391 
Q 2594 391 2855 752 
Q 3116 1113 3116 1747 
z
M 1159 2969 
Q 1341 3281 1617 3432 
Q 1894 3584 2278 3584 
Q 2916 3584 3314 3078 
Q 3713 2572 3713 1747 
Q 3713 922 3314 415 
Q 2916 -91 2278 -91 
Q 1894 -91 1617 61 
Q 1341 213 1159 525 
L 1159 0 
L 581 0 
L 581 4863 
L 1159 4863 
L 1159 2969 
z
" transform="scale(0.015625)"/>
      <path id="DejaVuSans-6b" d="M 581 4863 
L 1159 4863 
L 1159 1991 
L 2875 3500 
L 3609 3500 
L 1753 1863 
L 3688 0 
L 2938 0 
L 1159 1709 
L 1159 0 
L 581 0 
L 581 4863 
z
" transform="scale(0.015625)"/>
      <path id="DejaVuSans-67" d="M 2906 1791 
Q 2906 2416 2648 2759 
Q 2391 3103 1925 3103 
Q 1463 3103 1205 2759 
Q 947 2416 947 1791 
Q 947 1169 1205 825 
Q 1463 481 1925 481 
Q 2391 481 2648 825 
Q 2906 1169 2906 1791 
z
M 3481 434 
Q 3481 -459 3084 -895 
Q 2688 -1331 1869 -1331 
Q 1566 -1331 1297 -1286 
Q 1028 -1241 775 -1147 
L 775 -588 
Q 1028 -725 1275 -790 
Q 1522 -856 1778 -856 
Q 2344 -856 2625 -561 
Q 2906 -266 2906 331 
L 2906 616 
Q 2728 306 2450 153 
Q 2172 0 1784 0 
Q 1141 0 747 490 
Q 353 981 353 1791 
Q 353 2603 747 3093 
Q 1141 3584 1784 3584 
Q 2172 3584 2450 3431 
Q 2728 3278 2906 2969 
L 2906 3500 
L 3481 3500 
L 3481 434 
z
" transform="scale(0.015625)"/>
      <path id="DejaVuSans-3d" d="M 678 2906 
L 4684 2906 
L 4684 2381 
L 678 2381 
L 678 2906 
z
M 678 1631 
L 4684 1631 
L 4684 1100 
L 678 1100 
L 678 1631 
z
" transform="scale(0.015625)"/>
      <path id="DejaVuSans-35" d="M 691 4666 
L 3169 4666 
L 3169 4134 
L 1269 4134 
L 1269 2991 
Q 1406 3038 1543 3061 
Q 1681 3084 1819 3084 
Q 2600 3084 3056 2656 
Q 3513 2228 3513 1497 
Q 3513 744 3044 326 
Q 2575 -91 1722 -91 
Q 1428 -91 1123 -41 
Q 819 9 494 109 
L 494 744 
Q 775 591 1075 516 
Q 1375 441 1709 441 
Q 2250 441 2565 725 
Q 2881 1009 2881 1497 
Q 2881 1984 2565 2268 
Q 2250 2553 1709 2553 
Q 1456 2553 1204 2497 
Q 953 2441 691 2322 
L 691 4666 
z
" transform="scale(0.015625)"/>
      <path id="DejaVuSans-2c" d="M 750 794 
L 1409 794 
L 1409 256 
L 897 -744 
L 494 -744 
L 750 256 
L 750 794 
z
" transform="scale(0.015625)"/>
      <path id="DejaVuSans-37" d="M 525 4666 
L 3525 4666 
L 3525 4397 
L 1831 0 
L 1172 0 
L 2766 4134 
L 525 4134 
L 525 4666 
z
" transform="scale(0.015625)"/>
      <path id="DejaVuSans-29" d="M 513 4856 
L 1013 4856 
Q 1481 4119 1714 3412 
Q 1947 2706 1947 2009 
Q 1947 1309 1714 600 
Q 1481 -109 1013 -844 
L 513 -844 
Q 928 -128 1133 580 
Q 1338 1288 1338 2009 
Q 1338 2731 1133 3434 
Q 928 4138 513 4856 
z
" transform="scale(0.015625)"/>
      <path id="DejaVuSans-2d" d="M 313 2009 
L 1997 2009 
L 1997 1497 
L 313 1497 
L 313 2009 
z
" transform="scale(0.015625)"/>
      <path id="DejaVuSans-43" d="M 4122 4306 
L 4122 3641 
Q 3803 3938 3442 4084 
Q 3081 4231 2675 4231 
Q 1875 4231 1450 3742 
Q 1025 3253 1025 2328 
Q 1025 1406 1450 917 
Q 1875 428 2675 428 
Q 3081 428 3442 575 
Q 3803 722 4122 1019 
L 4122 359 
Q 3791 134 3420 21 
Q 3050 -91 2638 -91 
Q 1578 -91 968 557 
Q 359 1206 359 2328 
Q 359 3453 968 4101 
Q 1578 4750 2638 4750 
Q 3056 4750 3426 4639 
Q 3797 4528 4122 4306 
z
" transform="scale(0.015625)"/>
      <path id="DejaVuSans-75" d="M 544 1381 
L 544 3500 
L 1119 3500 
L 1119 1403 
Q 1119 906 1312 657 
Q 1506 409 1894 409 
Q 2359 409 2629 706 
Q 2900 1003 2900 1516 
L 2900 3500 
L 3475 3500 
L 3475 0 
L 2900 0 
L 2900 538 
Q 2691 219 2414 64 
Q 2138 -91 1772 -91 
Q 1169 -91 856 284 
Q 544 659 544 1381 
z
M 1991 3584 
L 1991 3584 
z
" transform="scale(0.015625)"/>
     </defs>
     <use xlink:href="#DejaVuSans-4c"/>
     <use xlink:href="#DejaVuSans-6f" x="53.962891"/>
     <use xlink:href="#DejaVuSans-73" x="115.144531"/>
     <use xlink:href="#DejaVuSans-73" x="167.244141"/>
     <use xlink:href="#DejaVuSans-20" x="219.34375"/>
     <use xlink:href="#DejaVuSans-4c" x="251.130859"/>
     <use xlink:href="#DejaVuSans-61" x="306.84375"/>
     <use xlink:href="#DejaVuSans-6e" x="368.123047"/>
     <use xlink:href="#DejaVuSans-64" x="431.501953"/>
     <use xlink:href="#DejaVuSans-73" x="494.978516"/>
     <use xlink:href="#DejaVuSans-63" x="547.078125"/>
     <use xlink:href="#DejaVuSans-61" x="602.058594"/>
     <use xlink:href="#DejaVuSans-70" x="663.337891"/>
     <use xlink:href="#DejaVuSans-65" x="726.814453"/>
     <use xlink:href="#DejaVuSans-20" x="788.337891"/>
     <use xlink:href="#DejaVuSans-28" x="820.125"/>
     <use xlink:href="#DejaVuSans-62" x="859.138672"/>
     <use xlink:href="#DejaVuSans-6b" x="922.615234"/>
     <use xlink:href="#DejaVuSans-67" x="980.525391"/>
     <use xlink:href="#DejaVuSans-3d" x="1044.001953"/>
     <use xlink:href="#DejaVuSans-30" x="1127.791016"/>
     <use xlink:href="#DejaVuSans-2e" x="1191.414062"/>
     <use xlink:href="#DejaVuSans-34" x="1223.201172"/>
     <use xlink:href="#DejaVuSans-35" x="1286.824219"/>
     <use xlink:href="#DejaVuSans-2c" x="1350.447266"/>
     <use xlink:href="#DejaVuSans-20" x="1382.234375"/>
     <use xlink:href="#DejaVuSans-64" x="1414.021484"/>
     <use xlink:href="#DejaVuSans-3d" x="1477.498047"/>
     <use xlink:href="#DejaVuSans-30" x="1561.287109"/>
     <use xlink:href="#DejaVuSans-2e" x="1624.910156"/>
     <use xlink:href="#DejaVuSans-37" x="1656.697266"/>
     <use xlink:href="#DejaVuSans-35" x="1720.320312"/>
     <use xlink:href="#DejaVuSans-2c" x="1783.943359"/>
     <use xlink:href="#DejaVuSans-20" x="1815.730469"/>
     <use xlink:href="#DejaVuSans-6e" x="1847.517578"/>
     <use xlink:href="#DejaVuSans-3d" x="1910.896484"/>
     <use xlink:href="#DejaVuSans-35" x="1994.685547"/>
     <use xlink:href="#DejaVuSans-30" x="2058.308594"/>
     <use xlink:href="#DejaVuSans-29" x="2121.931641"/>
     <use xlink:href="#DejaVuSans-20" x="2160.945312"/>
     <use xlink:href="#DejaVuSans-2d" x="2192.732422"/>
     <use xlink:href="#DejaVuSans-20" x="2228.816406"/>
     <use xlink:href="#DejaVuSans-43" x="2260.603516"/>
     <use xlink:href="#DejaVuSans-6f" x="2330.427734"/>
     <use xlink:href="#DejaVuSans-6e" x="2391.609375"/>
     <use xlink:href="#DejaVuSans-74" x="2454.988281"/>
     <use xlink:href="#DejaVuSans-6f" x="2494.197266"/>
     <use xlink:href="#DejaVuSans-75" x="2555.378906"/>
     <use xlink:href="#DejaVuSans-72" x="2618.757812"/>
    </g>
   </g>
   <g id="legend_1">
    <g id="patch_7">
     <path d="M 487.777813 51.075 
L 591.910625 51.075 
Q 593.910625 51.075 593.910625 49.075 
L 593.910625 35.396875 
Q 593.910625 33.396875 591.910625 33.396875 
L 487.777813 33.396875 
Q 485.777813 33.396875 485.777813 35.396875 
L 485.777813 49.075 
Q 485.777813 51.075 487.777813 51.075 
z
" style="fill: #ffffff; opacity: 0.8; stroke: #cccccc; stroke-linejoin: miter"/>
    </g>
    <g id="line2d_30">
     <g>
      <use xlink:href="#m080b810ff0" x="499.777813" y="41.495313" style="fill: #ff0000; stroke: #ff0000"/>
     </g>
    </g>
    <g id="text_18">
     <!-- Model Position -->
     <g transform="translate(517.777813 44.995313) scale(0.1 -0.1)">
      <defs>
       <path id="DejaVuSans-4d" d="M 628 4666 
L 1569 4666 
L 2759 1491 
L 3956 4666 
L 4897 4666 
L 4897 0 
L 4281 0 
L 4281 4097 
L 3078 897 
L 2444 897 
L 1241 4097 
L 1241 0 
L 628 0 
L 628 4666 
z
" transform="scale(0.015625)"/>
       <path id="DejaVuSans-6c" d="M 603 4863 
L 1178 4863 
L 1178 0 
L 603 0 
L 603 4863 
z
" transform="scale(0.015625)"/>
       <path id="DejaVuSans-50" d="M 1259 4147 
L 1259 2394 
L 2053 2394 
Q 2494 2394 2734 2622 
Q 2975 2850 2975 3272 
Q 2975 3691 2734 3919 
Q 2494 4147 2053 4147 
L 1259 4147 
z
M 628 4666 
L 2053 4666 
Q 2838 4666 3239 4311 
Q 3641 3956 3641 3272 
Q 3641 2581 3239 2228 
Q 2838 1875 2053 1875 
L 1259 1875 
L 1259 0 
L 628 0 
L 628 4666 
z
" transform="scale(0.015625)"/>
      </defs>
      <use xlink:href="#DejaVuSans-4d"/>
      <use xlink:href="#DejaVuSans-6f" x="86.279297"/>
      <use xlink:href="#DejaVuSans-64" x="147.460938"/>
      <use xlink:href="#DejaVuSans-65" x="210.9375"/>
      <use xlink:href="#DejaVuSans-6c" x="272.460938"/>
      <use xlink:href="#DejaVuSans-20" x="300.244141"/>
      <use xlink:href="#DejaVuSans-50" x="332.03125"/>
      <use xlink:href="#DejaVuSans-6f" x="388.708984"/>
      <use xlink:href="#DejaVuSans-73" x="449.890625"/>
      <use xlink:href="#DejaVuSans-69" x="501.990234"/>
      <use xlink:href="#DejaVuSans-74" x="529.773438"/>
      <use xlink:href="#DejaVuSans-69" x="568.982422"/>
      <use xlink:href="#DejaVuSans-6f" x="596.765625"/>
      <use xlink:href="#DejaVuSans-6e" x="657.947266"/>
     </g>
    </g>
   </g>
  </g>
  <g id="axes_2">
   <g id="patch_8">
    <path d="M 632.390625 582.796875 
L 660.110625 582.796875 
L 660.110625 28.396875 
L 632.390625 28.396875 
z
" style="fill: #ffffff"/>
   </g>
   <g id="patch_9">
    <path clip-path="url(#p255f154fa1)" style="fill: #ffffff; stroke: #ffffff; stroke-width: 0.01; stroke-linejoin: miter"/>
   </g>
   <g id="matplotlib.axis_3"/>
   <g id="matplotlib.axis_4">
    <g id="ytick_8">
     <g id="line2d_31">
      <g>
       <use xlink:href="#mbf13a81ebb" x="660.110625" y="554.366106" style="stroke: #000000; stroke-width: 0.8"/>
      </g>
     </g>
     <g id="text_19">
      <!-- 0 -->
      <g transform="translate(663.610625 560.444856) scale(0.16 -0.16)">
       <use xlink:href="#DejaVuSans-30"/>
      </g>
     </g>
    </g>
    <g id="ytick_9">
     <g id="line2d_32">
      <g>
       <use xlink:href="#mbf13a81ebb" x="660.110625" y="497.504567" style="stroke: #000000; stroke-width: 0.8"/>
      </g>
     </g>
     <g id="text_20">
      <!-- 2 -->
      <g transform="translate(663.610625 503.583317) scale(0.16 -0.16)">
       <use xlink:href="#DejaVuSans-32"/>
      </g>
     </g>
    </g>
    <g id="ytick_10">
     <g id="line2d_33">
      <g>
       <use xlink:href="#mbf13a81ebb" x="660.110625" y="440.643029" style="stroke: #000000; stroke-width: 0.8"/>
      </g>
     </g>
     <g id="text_21">
      <!-- 4 -->
      <g transform="translate(663.610625 446.721779) scale(0.16 -0.16)">
       <use xlink:href="#DejaVuSans-34"/>
      </g>
     </g>
    </g>
    <g id="ytick_11">
     <g id="line2d_34">
      <g>
       <use xlink:href="#mbf13a81ebb" x="660.110625" y="383.78149" style="stroke: #000000; stroke-width: 0.8"/>
      </g>
     </g>
     <g id="text_22">
      <!-- 6 -->
      <g transform="translate(663.610625 389.86024) scale(0.16 -0.16)">
       <use xlink:href="#DejaVuSans-36"/>
      </g>
     </g>
    </g>
    <g id="ytick_12">
     <g id="line2d_35">
      <g>
       <use xlink:href="#mbf13a81ebb" x="660.110625" y="326.919952" style="stroke: #000000; stroke-width: 0.8"/>
      </g>
     </g>
     <g id="text_23">
      <!-- 8 -->
      <g transform="translate(663.610625 332.998702) scale(0.16 -0.16)">
       <defs>
        <path id="DejaVuSans-38" d="M 2034 2216 
Q 1584 2216 1326 1975 
Q 1069 1734 1069 1313 
Q 1069 891 1326 650 
Q 1584 409 2034 409 
Q 2484 409 2743 651 
Q 3003 894 3003 1313 
Q 3003 1734 2745 1975 
Q 2488 2216 2034 2216 
z
M 1403 2484 
Q 997 2584 770 2862 
Q 544 3141 544 3541 
Q 544 4100 942 4425 
Q 1341 4750 2034 4750 
Q 2731 4750 3128 4425 
Q 3525 4100 3525 3541 
Q 3525 3141 3298 2862 
Q 3072 2584 2669 2484 
Q 3125 2378 3379 2068 
Q 3634 1759 3634 1313 
Q 3634 634 3220 271 
Q 2806 -91 2034 -91 
Q 1263 -91 848 271 
Q 434 634 434 1313 
Q 434 1759 690 2068 
Q 947 2378 1403 2484 
z
M 1172 3481 
Q 1172 3119 1398 2916 
Q 1625 2713 2034 2713 
Q 2441 2713 2670 2916 
Q 2900 3119 2900 3481 
Q 2900 3844 2670 4047 
Q 2441 4250 2034 4250 
Q 1625 4250 1398 4047 
Q 1172 3844 1172 3481 
z
" transform="scale(0.015625)"/>
       </defs>
       <use xlink:href="#DejaVuSans-38"/>
      </g>
     </g>
    </g>
    <g id="ytick_13">
     <g id="line2d_36">
      <g>
       <use xlink:href="#mbf13a81ebb" x="660.110625" y="270.058413" style="stroke: #000000; stroke-width: 0.8"/>
      </g>
     </g>
     <g id="text_24">
      <!-- 10 -->
      <g transform="translate(663.610625 276.137163) scale(0.16 -0.16)">
       <use xlink:href="#DejaVuSans-31"/>
       <use xlink:href="#DejaVuSans-30" x="63.623047"/>
      </g>
     </g>
    </g>
    <g id="ytick_14">
     <g id="line2d_37">
      <g>
       <use xlink:href="#mbf13a81ebb" x="660.110625" y="213.196875" style="stroke: #000000; stroke-width: 0.8"/>
      </g>
     </g>
     <g id="text_25">
      <!-- 12 -->
      <g transform="translate(663.610625 219.275625) scale(0.16 -0.16)">
       <use xlink:href="#DejaVuSans-31"/>
       <use xlink:href="#DejaVuSans-32" x="63.623047"/>
      </g>
     </g>
    </g>
    <g id="ytick_15">
     <g id="line2d_38">
      <g>
       <use xlink:href="#mbf13a81ebb" x="660.110625" y="156.335337" style="stroke: #000000; stroke-width: 0.8"/>
      </g>
     </g>
     <g id="text_26">
      <!-- 14 -->
      <g transform="translate(663.610625 162.414087) scale(0.16 -0.16)">
       <use xlink:href="#DejaVuSans-31"/>
       <use xlink:href="#DejaVuSans-34" x="63.623047"/>
      </g>
     </g>
    </g>
    <g id="ytick_16">
     <g id="line2d_39">
      <g>
       <use xlink:href="#mbf13a81ebb" x="660.110625" y="99.473798" style="stroke: #000000; stroke-width: 0.8"/>
      </g>
     </g>
     <g id="text_27">
      <!-- 16 -->
      <g transform="translate(663.610625 105.552548) scale(0.16 -0.16)">
       <use xlink:href="#DejaVuSans-31"/>
       <use xlink:href="#DejaVuSans-36" x="63.623047"/>
      </g>
     </g>
    </g>
    <g id="ytick_17">
     <g id="line2d_40">
      <g>
       <use xlink:href="#mbf13a81ebb" x="660.110625" y="42.61226" style="stroke: #000000; stroke-width: 0.8"/>
      </g>
     </g>
     <g id="text_28">
      <!-- 18 -->
      <g transform="translate(663.610625 48.69101) scale(0.16 -0.16)">
       <use xlink:href="#DejaVuSans-31"/>
       <use xlink:href="#DejaVuSans-38" x="63.623047"/>
      </g>
     </g>
    </g>
    <g id="text_29">
     <!-- Loss -->
     <g transform="translate(695.569063 316.564063) rotate(-90) scale(0.1 -0.1)">
      <use xlink:href="#DejaVuSans-4c"/>
      <use xlink:href="#DejaVuSans-6f" x="53.962891"/>
      <use xlink:href="#DejaVuSans-73" x="115.144531"/>
      <use xlink:href="#DejaVuSans-73" x="167.244141"/>
     </g>
    </g>
   </g>
   <g id="LineCollection_1"/>
   <g id="LineCollection_2">
    <path d="M 632.390625 582.796875 
L 660.110625 582.796875 
" clip-path="url(#pe12beee5ae)" style="fill: none; stroke: #440154; stroke-width: 1.5"/>
    <path d="M 632.390625 568.58149 
L 660.110625 568.58149 
" clip-path="url(#pe12beee5ae)" style="fill: none; stroke: #460a5d; stroke-width: 1.5"/>
    <path d="M 632.390625 554.366106 
L 660.110625 554.366106 
" clip-path="url(#pe12beee5ae)" style="fill: none; stroke: #481467; stroke-width: 1.5"/>
    <path d="M 632.390625 540.150721 
L 660.110625 540.150721 
" clip-path="url(#pe12beee5ae)" style="fill: none; stroke: #481c6e; stroke-width: 1.5"/>
    <path d="M 632.390625 525.935337 
L 660.110625 525.935337 
" clip-path="url(#pe12beee5ae)" style="fill: none; stroke: #482576; stroke-width: 1.5"/>
    <path d="M 632.390625 511.719952 
L 660.110625 511.719952 
" clip-path="url(#pe12beee5ae)" style="fill: none; stroke: #472d7b; stroke-width: 1.5"/>
    <path d="M 632.390625 497.504567 
L 660.110625 497.504567 
" clip-path="url(#pe12beee5ae)" style="fill: none; stroke: #453581; stroke-width: 1.5"/>
    <path d="M 632.390625 483.289183 
L 660.110625 483.289183 
" clip-path="url(#pe12beee5ae)" style="fill: none; stroke: #433d84; stroke-width: 1.5"/>
    <path d="M 632.390625 469.073798 
L 660.110625 469.073798 
" clip-path="url(#pe12beee5ae)" style="fill: none; stroke: #404588; stroke-width: 1.5"/>
    <path d="M 632.390625 454.858413 
L 660.110625 454.858413 
" clip-path="url(#pe12beee5ae)" style="fill: none; stroke: #3d4d8a; stroke-width: 1.5"/>
    <path d="M 632.390625 440.643029 
L 660.110625 440.643029 
" clip-path="url(#pe12beee5ae)" style="fill: none; stroke: #3a538b; stroke-width: 1.5"/>
    <path d="M 632.390625 426.427644 
L 660.110625 426.427644 
" clip-path="url(#pe12beee5ae)" style="fill: none; stroke: #375b8d; stroke-width: 1.5"/>
    <path d="M 632.390625 412.21226 
L 660.110625 412.21226 
" clip-path="url(#pe12beee5ae)" style="fill: none; stroke: #34618d; stroke-width: 1.5"/>
    <path d="M 632.390625 397.996875 
L 660.110625 397.996875 
" clip-path="url(#pe12beee5ae)" style="fill: none; stroke: #31688e; stroke-width: 1.5"/>
    <path d="M 632.390625 383.78149 
L 660.110625 383.78149 
" clip-path="url(#pe12beee5ae)" style="fill: none; stroke: #2e6e8e; stroke-width: 1.5"/>
    <path d="M 632.390625 369.566106 
L 660.110625 369.566106 
" clip-path="url(#pe12beee5ae)" style="fill: none; stroke: #2b748e; stroke-width: 1.5"/>
    <path d="M 632.390625 355.350721 
L 660.110625 355.350721 
" clip-path="url(#pe12beee5ae)" style="fill: none; stroke: #297b8e; stroke-width: 1.5"/>
    <path d="M 632.390625 341.135337 
L 660.110625 341.135337 
" clip-path="url(#pe12beee5ae)" style="fill: none; stroke: #26818e; stroke-width: 1.5"/>
    <path d="M 632.390625 326.919952 
L 660.110625 326.919952 
" clip-path="url(#pe12beee5ae)" style="fill: none; stroke: #24878e; stroke-width: 1.5"/>
    <path d="M 632.390625 312.704567 
L 660.110625 312.704567 
" clip-path="url(#pe12beee5ae)" style="fill: none; stroke: #228d8d; stroke-width: 1.5"/>
    <path d="M 632.390625 298.489183 
L 660.110625 298.489183 
" clip-path="url(#pe12beee5ae)" style="fill: none; stroke: #20938c; stroke-width: 1.5"/>
    <path d="M 632.390625 284.273798 
L 660.110625 284.273798 
" clip-path="url(#pe12beee5ae)" style="fill: none; stroke: #1f998a; stroke-width: 1.5"/>
    <path d="M 632.390625 270.058413 
L 660.110625 270.058413 
" clip-path="url(#pe12beee5ae)" style="fill: none; stroke: #1fa088; stroke-width: 1.5"/>
    <path d="M 632.390625 255.843029 
L 660.110625 255.843029 
" clip-path="url(#pe12beee5ae)" style="fill: none; stroke: #21a585; stroke-width: 1.5"/>
    <path d="M 632.390625 241.627644 
L 660.110625 241.627644 
" clip-path="url(#pe12beee5ae)" style="fill: none; stroke: #25ac82; stroke-width: 1.5"/>
    <path d="M 632.390625 227.41226 
L 660.110625 227.41226 
" clip-path="url(#pe12beee5ae)" style="fill: none; stroke: #2db27d; stroke-width: 1.5"/>
    <path d="M 632.390625 213.196875 
L 660.110625 213.196875 
" clip-path="url(#pe12beee5ae)" style="fill: none; stroke: #35b779; stroke-width: 1.5"/>
    <path d="M 632.390625 198.98149 
L 660.110625 198.98149 
" clip-path="url(#pe12beee5ae)" style="fill: none; stroke: #40bd72; stroke-width: 1.5"/>
    <path d="M 632.390625 184.766106 
L 660.110625 184.766106 
" clip-path="url(#pe12beee5ae)" style="fill: none; stroke: #4cc26c; stroke-width: 1.5"/>
    <path d="M 632.390625 170.550721 
L 660.110625 170.550721 
" clip-path="url(#pe12beee5ae)" style="fill: none; stroke: #5ac864; stroke-width: 1.5"/>
    <path d="M 632.390625 156.335337 
L 660.110625 156.335337 
" clip-path="url(#pe12beee5ae)" style="fill: none; stroke: #67cc5c; stroke-width: 1.5"/>
    <path d="M 632.390625 142.119952 
L 660.110625 142.119952 
" clip-path="url(#pe12beee5ae)" style="fill: none; stroke: #77d153; stroke-width: 1.5"/>
    <path d="M 632.390625 127.904567 
L 660.110625 127.904567 
" clip-path="url(#pe12beee5ae)" style="fill: none; stroke: #89d548; stroke-width: 1.5"/>
    <path d="M 632.390625 113.689183 
L 660.110625 113.689183 
" clip-path="url(#pe12beee5ae)" style="fill: none; stroke: #98d83e; stroke-width: 1.5"/>
    <path d="M 632.390625 99.473798 
L 660.110625 99.473798 
" clip-path="url(#pe12beee5ae)" style="fill: none; stroke: #aadc32; stroke-width: 1.5"/>
    <path d="M 632.390625 85.258413 
L 660.110625 85.258413 
" clip-path="url(#pe12beee5ae)" style="fill: none; stroke: #bade28; stroke-width: 1.5"/>
    <path d="M 632.390625 71.043029 
L 660.110625 71.043029 
" clip-path="url(#pe12beee5ae)" style="fill: none; stroke: #cde11d; stroke-width: 1.5"/>
    <path d="M 632.390625 56.827644 
L 660.110625 56.827644 
" clip-path="url(#pe12beee5ae)" style="fill: none; stroke: #dde318; stroke-width: 1.5"/>
    <path d="M 632.390625 42.61226 
L 660.110625 42.61226 
" clip-path="url(#pe12beee5ae)" style="fill: none; stroke: #efe51c; stroke-width: 1.5"/>
    <path d="M 632.390625 28.396875 
L 660.110625 28.396875 
" clip-path="url(#pe12beee5ae)" style="fill: none; stroke: #fde725; stroke-width: 1.5"/>
   </g>
   <g id="patch_10">
    <path d="M 632.390625 582.796875 
L 646.250625 582.796875 
L 660.110625 582.796875 
L 660.110625 28.396875 
L 646.250625 28.396875 
L 632.390625 28.396875 
L 632.390625 582.796875 
z
" style="fill: none; stroke: #000000; stroke-width: 0.8; stroke-linejoin: miter; stroke-linecap: square"/>
   </g>
  </g>
 </g>
 <defs>
  <clipPath id="p4300687159">
   <rect x="63.230625" y="28.396875" width="535.68" height="554.4"/>
  </clipPath>
  <clipPath id="p255f154fa1">
   <rect x="632.390625" y="28.396875" width="27.72" height="554.4"/>
  </clipPath>
  <clipPath id="pe12beee5ae">
   <path d="M 632.390625 584.296875 
L 660.110625 584.296875 
L 660.110625 26.896875 
L 632.390625 26.896875 
z
"/>
  </clipPath>
 </defs>
</svg>
