<?xml version="1.0" encoding="utf-8" standalone="no"?>
<!DOCTYPE svg PUBLIC "-//W3C//DTD SVG 1.1//EN"
  "http://www.w3.org/Graphics/SVG/1.1/DTD/svg11.dtd">
<svg xmlns:xlink="http://www.w3.org/1999/xlink" width="704.84875pt" height="622.66pt" viewBox="0 0 704.84875 622.66" xmlns="http://www.w3.org/2000/svg" version="1.1">
 <metadata>
  <rdf:RDF xmlns:dc="http://purl.org/dc/elements/1.1/" xmlns:cc="http://creativecommons.org/ns#" xmlns:rdf="http://www.w3.org/1999/02/22-rdf-syntax-ns#">
   <cc:Work>
    <dc:type rdf:resource="http://purl.org/dc/dcmitype/StillImage"/>
    <dc:date>2025-02-12T05:57:14.626268</dc:date>
    <dc:format>image/svg+xml</dc:format>
    <dc:creator>
     <cc:Agent>
      <dc:title>Matplotlib v3.6.2, https://matplotlib.org/</dc:title>
     </cc:Agent>
    </dc:creator>
   </cc:Work>
  </rdf:RDF>
 </metadata>
 <defs>
  <style type="text/css">*{stroke-linejoin: round; stroke-linecap: butt}</style>
 </defs>
 <g id="figure_1">
  <g id="patch_1">
   <path d="M 0 622.66 
L 704.84875 622.66 
L 704.84875 0 
L 0 0 
z
" style="fill: #ffffff"/>
  </g>
  <g id="axes_1">
   <g id="patch_2">
    <path d="M 63.230625 582.796875 
L 598.910625 582.796875 
L 598.910625 28.396875 
L 63.230625 28.396875 
z
" style="fill: #ffffff"/>
   </g>
   <g id="matplotlib.axis_1">
    <g id="xtick_1">
     <g id="line2d_1">
      <defs>
       <path id="ma2e07789f3" d="M 0 0 
L 0 -3.5 
" style="stroke: #000000; stroke-width: 0.8"/>
      </defs>
      <g>
       <use xlink:href="#ma2e07789f3" x="63.230625" y="582.796875" style="stroke: #000000; stroke-width: 0.8"/>
      </g>
     </g>
     <g id="line2d_2">
      <defs>
       <path id="mee90cc909c" d="M 0 0 
L 0 3.5 
" style="stroke: #000000; stroke-width: 0.8"/>
      </defs>
      <g>
       <use xlink:href="#mee90cc909c" x="63.230625" y="28.396875" style="stroke: #000000; stroke-width: 0.8"/>
      </g>
     </g>
     <g id="text_1">
      <!-- −1.5 -->
      <g transform="translate(43.804375 598.454375) scale(0.16 -0.16)">
       <defs>
        <path id="DejaVuSans-2212" d="M 678 2272 
L 4684 2272 
L 4684 1741 
L 678 1741 
L 678 2272 
z
" transform="scale(0.015625)"/>
        <path id="DejaVuSans-31" d="M 794 531 
L 1825 531 
L 1825 4091 
L 703 3866 
L 703 4441 
L 1819 4666 
L 2450 4666 
L 2450 531 
L 3481 531 
L 3481 0 
L 794 0 
L 794 531 
z
" transform="scale(0.015625)"/>
        <path id="DejaVuSans-2e" d="M 684 794 
L 1344 794 
L 1344 0 
L 684 0 
L 684 794 
z
" transform="scale(0.015625)"/>
        <path id="DejaVuSans-35" d="M 691 4666 
L 3169 4666 
L 3169 4134 
L 1269 4134 
L 1269 2991 
Q 1406 3038 1543 3061 
Q 1681 3084 1819 3084 
Q 2600 3084 3056 2656 
Q 3513 2228 3513 1497 
Q 3513 744 3044 326 
Q 2575 -91 1722 -91 
Q 1428 -91 1123 -41 
Q 819 9 494 109 
L 494 744 
Q 775 591 1075 516 
Q 1375 441 1709 441 
Q 2250 441 2565 725 
Q 2881 1009 2881 1497 
Q 2881 1984 2565 2268 
Q 2250 2553 1709 2553 
Q 1456 2553 1204 2497 
Q 953 2441 691 2322 
L 691 4666 
z
" transform="scale(0.015625)"/>
       </defs>
       <use xlink:href="#DejaVuSans-2212"/>
       <use xlink:href="#DejaVuSans-31" x="83.789062"/>
       <use xlink:href="#DejaVuSans-2e" x="147.412109"/>
       <use xlink:href="#DejaVuSans-35" x="179.199219"/>
      </g>
     </g>
    </g>
    <g id="xtick_2">
     <g id="line2d_3">
      <g>
       <use xlink:href="#ma2e07789f3" x="152.510625" y="582.796875" style="stroke: #000000; stroke-width: 0.8"/>
      </g>
     </g>
     <g id="line2d_4">
      <g>
       <use xlink:href="#mee90cc909c" x="152.510625" y="28.396875" style="stroke: #000000; stroke-width: 0.8"/>
      </g>
     </g>
     <g id="text_2">
      <!-- −1.0 -->
      <g transform="translate(133.084375 598.454375) scale(0.16 -0.16)">
       <defs>
        <path id="DejaVuSans-30" d="M 2034 4250 
Q 1547 4250 1301 3770 
Q 1056 3291 1056 2328 
Q 1056 1369 1301 889 
Q 1547 409 2034 409 
Q 2525 409 2770 889 
Q 3016 1369 3016 2328 
Q 3016 3291 2770 3770 
Q 2525 4250 2034 4250 
z
M 2034 4750 
Q 2819 4750 3233 4129 
Q 3647 3509 3647 2328 
Q 3647 1150 3233 529 
Q 2819 -91 2034 -91 
Q 1250 -91 836 529 
Q 422 1150 422 2328 
Q 422 3509 836 4129 
Q 1250 4750 2034 4750 
z
" transform="scale(0.015625)"/>
       </defs>
       <use xlink:href="#DejaVuSans-2212"/>
       <use xlink:href="#DejaVuSans-31" x="83.789062"/>
       <use xlink:href="#DejaVuSans-2e" x="147.412109"/>
       <use xlink:href="#DejaVuSans-30" x="179.199219"/>
      </g>
     </g>
    </g>
    <g id="xtick_3">
     <g id="line2d_5">
      <g>
       <use xlink:href="#ma2e07789f3" x="241.790625" y="582.796875" style="stroke: #000000; stroke-width: 0.8"/>
      </g>
     </g>
     <g id="line2d_6">
      <g>
       <use xlink:href="#mee90cc909c" x="241.790625" y="28.396875" style="stroke: #000000; stroke-width: 0.8"/>
      </g>
     </g>
     <g id="text_3">
      <!-- −0.5 -->
      <g transform="translate(222.364375 598.454375) scale(0.16 -0.16)">
       <use xlink:href="#DejaVuSans-2212"/>
       <use xlink:href="#DejaVuSans-30" x="83.789062"/>
       <use xlink:href="#DejaVuSans-2e" x="147.412109"/>
       <use xlink:href="#DejaVuSans-35" x="179.199219"/>
      </g>
     </g>
    </g>
    <g id="xtick_4">
     <g id="line2d_7">
      <g>
       <use xlink:href="#ma2e07789f3" x="331.070625" y="582.796875" style="stroke: #000000; stroke-width: 0.8"/>
      </g>
     </g>
     <g id="line2d_8">
      <g>
       <use xlink:href="#mee90cc909c" x="331.070625" y="28.396875" style="stroke: #000000; stroke-width: 0.8"/>
      </g>
     </g>
     <g id="text_4">
      <!-- 0.0 -->
      <g transform="translate(318.348125 598.454375) scale(0.16 -0.16)">
       <use xlink:href="#DejaVuSans-30"/>
       <use xlink:href="#DejaVuSans-2e" x="63.623047"/>
       <use xlink:href="#DejaVuSans-30" x="95.410156"/>
      </g>
     </g>
    </g>
    <g id="xtick_5">
     <g id="line2d_9">
      <g>
       <use xlink:href="#ma2e07789f3" x="420.350625" y="582.796875" style="stroke: #000000; stroke-width: 0.8"/>
      </g>
     </g>
     <g id="line2d_10">
      <g>
       <use xlink:href="#mee90cc909c" x="420.350625" y="28.396875" style="stroke: #000000; stroke-width: 0.8"/>
      </g>
     </g>
     <g id="text_5">
      <!-- 0.5 -->
      <g transform="translate(407.628125 598.454375) scale(0.16 -0.16)">
       <use xlink:href="#DejaVuSans-30"/>
       <use xlink:href="#DejaVuSans-2e" x="63.623047"/>
       <use xlink:href="#DejaVuSans-35" x="95.410156"/>
      </g>
     </g>
    </g>
    <g id="xtick_6">
     <g id="line2d_11">
      <g>
       <use xlink:href="#ma2e07789f3" x="509.630625" y="582.796875" style="stroke: #000000; stroke-width: 0.8"/>
      </g>
     </g>
     <g id="line2d_12">
      <g>
       <use xlink:href="#mee90cc909c" x="509.630625" y="28.396875" style="stroke: #000000; stroke-width: 0.8"/>
      </g>
     </g>
     <g id="text_6">
      <!-- 1.0 -->
      <g transform="translate(496.908125 598.454375) scale(0.16 -0.16)">
       <use xlink:href="#DejaVuSans-31"/>
       <use xlink:href="#DejaVuSans-2e" x="63.623047"/>
       <use xlink:href="#DejaVuSans-30" x="95.410156"/>
      </g>
     </g>
    </g>
    <g id="xtick_7">
     <g id="line2d_13">
      <g>
       <use xlink:href="#ma2e07789f3" x="598.910625" y="582.796875" style="stroke: #000000; stroke-width: 0.8"/>
      </g>
     </g>
     <g id="line2d_14">
      <g>
       <use xlink:href="#mee90cc909c" x="598.910625" y="28.396875" style="stroke: #000000; stroke-width: 0.8"/>
      </g>
     </g>
     <g id="text_7">
      <!-- 1.5 -->
      <g transform="translate(586.188125 598.454375) scale(0.16 -0.16)">
       <use xlink:href="#DejaVuSans-31"/>
       <use xlink:href="#DejaVuSans-2e" x="63.623047"/>
       <use xlink:href="#DejaVuSans-35" x="95.410156"/>
      </g>
     </g>
    </g>
    <g id="text_8">
     <!-- Direction 1 -->
     <g transform="translate(303.715156 613.380313) scale(0.1 -0.1)">
      <defs>
       <path id="DejaVuSans-44" d="M 1259 4147 
L 1259 519 
L 2022 519 
Q 2988 519 3436 956 
Q 3884 1394 3884 2338 
Q 3884 3275 3436 3711 
Q 2988 4147 2022 4147 
L 1259 4147 
z
M 628 4666 
L 1925 4666 
Q 3281 4666 3915 4102 
Q 4550 3538 4550 2338 
Q 4550 1131 3912 565 
Q 3275 0 1925 0 
L 628 0 
L 628 4666 
z
" transform="scale(0.015625)"/>
       <path id="DejaVuSans-69" d="M 603 3500 
L 1178 3500 
L 1178 0 
L 603 0 
L 603 3500 
z
M 603 4863 
L 1178 4863 
L 1178 4134 
L 603 4134 
L 603 4863 
z
" transform="scale(0.015625)"/>
       <path id="DejaVuSans-72" d="M 2631 2963 
Q 2534 3019 2420 3045 
Q 2306 3072 2169 3072 
Q 1681 3072 1420 2755 
Q 1159 2438 1159 1844 
L 1159 0 
L 581 0 
L 581 3500 
L 1159 3500 
L 1159 2956 
Q 1341 3275 1631 3429 
Q 1922 3584 2338 3584 
Q 2397 3584 2469 3576 
Q 2541 3569 2628 3553 
L 2631 2963 
z
" transform="scale(0.015625)"/>
       <path id="DejaVuSans-65" d="M 3597 1894 
L 3597 1613 
L 953 1613 
Q 991 1019 1311 708 
Q 1631 397 2203 397 
Q 2534 397 2845 478 
Q 3156 559 3463 722 
L 3463 178 
Q 3153 47 2828 -22 
Q 2503 -91 2169 -91 
Q 1331 -91 842 396 
Q 353 884 353 1716 
Q 353 2575 817 3079 
Q 1281 3584 2069 3584 
Q 2775 3584 3186 3129 
Q 3597 2675 3597 1894 
z
M 3022 2063 
Q 3016 2534 2758 2815 
Q 2500 3097 2075 3097 
Q 1594 3097 1305 2825 
Q 1016 2553 972 2059 
L 3022 2063 
z
" transform="scale(0.015625)"/>
       <path id="DejaVuSans-63" d="M 3122 3366 
L 3122 2828 
Q 2878 2963 2633 3030 
Q 2388 3097 2138 3097 
Q 1578 3097 1268 2742 
Q 959 2388 959 1747 
Q 959 1106 1268 751 
Q 1578 397 2138 397 
Q 2388 397 2633 464 
Q 2878 531 3122 666 
L 3122 134 
Q 2881 22 2623 -34 
Q 2366 -91 2075 -91 
Q 1284 -91 818 406 
Q 353 903 353 1747 
Q 353 2603 823 3093 
Q 1294 3584 2113 3584 
Q 2378 3584 2631 3529 
Q 2884 3475 3122 3366 
z
" transform="scale(0.015625)"/>
       <path id="DejaVuSans-74" d="M 1172 4494 
L 1172 3500 
L 2356 3500 
L 2356 3053 
L 1172 3053 
L 1172 1153 
Q 1172 725 1289 603 
Q 1406 481 1766 481 
L 2356 481 
L 2356 0 
L 1766 0 
Q 1100 0 847 248 
Q 594 497 594 1153 
L 594 3053 
L 172 3053 
L 172 3500 
L 594 3500 
L 594 4494 
L 1172 4494 
z
" transform="scale(0.015625)"/>
       <path id="DejaVuSans-6f" d="M 1959 3097 
Q 1497 3097 1228 2736 
Q 959 2375 959 1747 
Q 959 1119 1226 758 
Q 1494 397 1959 397 
Q 2419 397 2687 759 
Q 2956 1122 2956 1747 
Q 2956 2369 2687 2733 
Q 2419 3097 1959 3097 
z
M 1959 3584 
Q 2709 3584 3137 3096 
Q 3566 2609 3566 1747 
Q 3566 888 3137 398 
Q 2709 -91 1959 -91 
Q 1206 -91 779 398 
Q 353 888 353 1747 
Q 353 2609 779 3096 
Q 1206 3584 1959 3584 
z
" transform="scale(0.015625)"/>
       <path id="DejaVuSans-6e" d="M 3513 2113 
L 3513 0 
L 2938 0 
L 2938 2094 
Q 2938 2591 2744 2837 
Q 2550 3084 2163 3084 
Q 1697 3084 1428 2787 
Q 1159 2491 1159 1978 
L 1159 0 
L 581 0 
L 581 3500 
L 1159 3500 
L 1159 2956 
Q 1366 3272 1645 3428 
Q 1925 3584 2291 3584 
Q 2894 3584 3203 3211 
Q 3513 2838 3513 2113 
z
" transform="scale(0.015625)"/>
       <path id="DejaVuSans-20" transform="scale(0.015625)"/>
      </defs>
      <use xlink:href="#DejaVuSans-44"/>
      <use xlink:href="#DejaVuSans-69" x="77.001953"/>
      <use xlink:href="#DejaVuSans-72" x="104.785156"/>
      <use xlink:href="#DejaVuSans-65" x="143.648438"/>
      <use xlink:href="#DejaVuSans-63" x="205.171875"/>
      <use xlink:href="#DejaVuSans-74" x="260.152344"/>
      <use xlink:href="#DejaVuSans-69" x="299.361328"/>
      <use xlink:href="#DejaVuSans-6f" x="327.144531"/>
      <use xlink:href="#DejaVuSans-6e" x="388.326172"/>
      <use xlink:href="#DejaVuSans-20" x="451.705078"/>
      <use xlink:href="#DejaVuSans-31" x="483.492188"/>
     </g>
    </g>
   </g>
   <g id="matplotlib.axis_2">
    <g id="ytick_1">
     <g id="line2d_15">
      <defs>
       <path id="m4b442d8a65" d="M 0 0 
L 3.5 0 
" style="stroke: #000000; stroke-width: 0.8"/>
      </defs>
      <g>
       <use xlink:href="#m4b442d8a65" x="63.230625" y="582.796875" style="stroke: #000000; stroke-width: 0.8"/>
      </g>
     </g>
     <g id="line2d_16">
      <defs>
       <path id="mab60c08ac1" d="M 0 0 
L -3.5 0 
" style="stroke: #000000; stroke-width: 0.8"/>
      </defs>
      <g>
       <use xlink:href="#mab60c08ac1" x="598.910625" y="582.796875" style="stroke: #000000; stroke-width: 0.8"/>
      </g>
     </g>
     <g id="text_9">
      <!-- −1.5 -->
      <g transform="translate(20.878125 588.875625) scale(0.16 -0.16)">
       <use xlink:href="#DejaVuSans-2212"/>
       <use xlink:href="#DejaVuSans-31" x="83.789062"/>
       <use xlink:href="#DejaVuSans-2e" x="147.412109"/>
       <use xlink:href="#DejaVuSans-35" x="179.199219"/>
      </g>
     </g>
    </g>
    <g id="ytick_2">
     <g id="line2d_17">
      <g>
       <use xlink:href="#m4b442d8a65" x="63.230625" y="490.396875" style="stroke: #000000; stroke-width: 0.8"/>
      </g>
     </g>
     <g id="line2d_18">
      <g>
       <use xlink:href="#mab60c08ac1" x="598.910625" y="490.396875" style="stroke: #000000; stroke-width: 0.8"/>
      </g>
     </g>
     <g id="text_10">
      <!-- −1.0 -->
      <g transform="translate(20.878125 496.475625) scale(0.16 -0.16)">
       <use xlink:href="#DejaVuSans-2212"/>
       <use xlink:href="#DejaVuSans-31" x="83.789062"/>
       <use xlink:href="#DejaVuSans-2e" x="147.412109"/>
       <use xlink:href="#DejaVuSans-30" x="179.199219"/>
      </g>
     </g>
    </g>
    <g id="ytick_3">
     <g id="line2d_19">
      <g>
       <use xlink:href="#m4b442d8a65" x="63.230625" y="397.996875" style="stroke: #000000; stroke-width: 0.8"/>
      </g>
     </g>
     <g id="line2d_20">
      <g>
       <use xlink:href="#mab60c08ac1" x="598.910625" y="397.996875" style="stroke: #000000; stroke-width: 0.8"/>
      </g>
     </g>
     <g id="text_11">
      <!-- −0.5 -->
      <g transform="translate(20.878125 404.075625) scale(0.16 -0.16)">
       <use xlink:href="#DejaVuSans-2212"/>
       <use xlink:href="#DejaVuSans-30" x="83.789062"/>
       <use xlink:href="#DejaVuSans-2e" x="147.412109"/>
       <use xlink:href="#DejaVuSans-35" x="179.199219"/>
      </g>
     </g>
    </g>
    <g id="ytick_4">
     <g id="line2d_21">
      <g>
       <use xlink:href="#m4b442d8a65" x="63.230625" y="305.596875" style="stroke: #000000; stroke-width: 0.8"/>
      </g>
     </g>
     <g id="line2d_22">
      <g>
       <use xlink:href="#mab60c08ac1" x="598.910625" y="305.596875" style="stroke: #000000; stroke-width: 0.8"/>
      </g>
     </g>
     <g id="text_12">
      <!-- 0.0 -->
      <g transform="translate(34.285625 311.675625) scale(0.16 -0.16)">
       <use xlink:href="#DejaVuSans-30"/>
       <use xlink:href="#DejaVuSans-2e" x="63.623047"/>
       <use xlink:href="#DejaVuSans-30" x="95.410156"/>
      </g>
     </g>
    </g>
    <g id="ytick_5">
     <g id="line2d_23">
      <g>
       <use xlink:href="#m4b442d8a65" x="63.230625" y="213.196875" style="stroke: #000000; stroke-width: 0.8"/>
      </g>
     </g>
     <g id="line2d_24">
      <g>
       <use xlink:href="#mab60c08ac1" x="598.910625" y="213.196875" style="stroke: #000000; stroke-width: 0.8"/>
      </g>
     </g>
     <g id="text_13">
      <!-- 0.5 -->
      <g transform="translate(34.285625 219.275625) scale(0.16 -0.16)">
       <use xlink:href="#DejaVuSans-30"/>
       <use xlink:href="#DejaVuSans-2e" x="63.623047"/>
       <use xlink:href="#DejaVuSans-35" x="95.410156"/>
      </g>
     </g>
    </g>
    <g id="ytick_6">
     <g id="line2d_25">
      <g>
       <use xlink:href="#m4b442d8a65" x="63.230625" y="120.796875" style="stroke: #000000; stroke-width: 0.8"/>
      </g>
     </g>
     <g id="line2d_26">
      <g>
       <use xlink:href="#mab60c08ac1" x="598.910625" y="120.796875" style="stroke: #000000; stroke-width: 0.8"/>
      </g>
     </g>
     <g id="text_14">
      <!-- 1.0 -->
      <g transform="translate(34.285625 126.875625) scale(0.16 -0.16)">
       <use xlink:href="#DejaVuSans-31"/>
       <use xlink:href="#DejaVuSans-2e" x="63.623047"/>
       <use xlink:href="#DejaVuSans-30" x="95.410156"/>
      </g>
     </g>
    </g>
    <g id="ytick_7">
     <g id="line2d_27">
      <g>
       <use xlink:href="#m4b442d8a65" x="63.230625" y="28.396875" style="stroke: #000000; stroke-width: 0.8"/>
      </g>
     </g>
     <g id="line2d_28">
      <g>
       <use xlink:href="#mab60c08ac1" x="598.910625" y="28.396875" style="stroke: #000000; stroke-width: 0.8"/>
      </g>
     </g>
     <g id="text_15">
      <!-- 1.5 -->
      <g transform="translate(34.285625 34.475625) scale(0.16 -0.16)">
       <use xlink:href="#DejaVuSans-31"/>
       <use xlink:href="#DejaVuSans-2e" x="63.623047"/>
       <use xlink:href="#DejaVuSans-35" x="95.410156"/>
      </g>
     </g>
    </g>
    <g id="text_16">
     <!-- Direction 2 -->
     <g transform="translate(14.798437 332.952344) rotate(-90) scale(0.1 -0.1)">
      <defs>
       <path id="DejaVuSans-32" d="M 1228 531 
L 3431 531 
L 3431 0 
L 469 0 
L 469 531 
Q 828 903 1448 1529 
Q 2069 2156 2228 2338 
Q 2531 2678 2651 2914 
Q 2772 3150 2772 3378 
Q 2772 3750 2511 3984 
Q 2250 4219 1831 4219 
Q 1534 4219 1204 4116 
Q 875 4013 500 3803 
L 500 4441 
Q 881 4594 1212 4672 
Q 1544 4750 1819 4750 
Q 2544 4750 2975 4387 
Q 3406 4025 3406 3419 
Q 3406 3131 3298 2873 
Q 3191 2616 2906 2266 
Q 2828 2175 2409 1742 
Q 1991 1309 1228 531 
z
" transform="scale(0.015625)"/>
      </defs>
      <use xlink:href="#DejaVuSans-44"/>
      <use xlink:href="#DejaVuSans-69" x="77.001953"/>
      <use xlink:href="#DejaVuSans-72" x="104.785156"/>
      <use xlink:href="#DejaVuSans-65" x="143.648438"/>
      <use xlink:href="#DejaVuSans-63" x="205.171875"/>
      <use xlink:href="#DejaVuSans-74" x="260.152344"/>
      <use xlink:href="#DejaVuSans-69" x="299.361328"/>
      <use xlink:href="#DejaVuSans-6f" x="327.144531"/>
      <use xlink:href="#DejaVuSans-6e" x="388.326172"/>
      <use xlink:href="#DejaVuSans-20" x="451.705078"/>
      <use xlink:href="#DejaVuSans-32" x="483.492188"/>
     </g>
    </g>
   </g>
   <g id="PathCollection_1"/>
   <g id="PathCollection_2">
    <path d="M 124.790222 582.796875 
L 128.824106 578.088 
L 139.756345 578.295892 
L 146.32778 571.482595 
L 150.688585 566.637291 
L 161.620825 567.327434 
L 168.531599 560.168314 
L 172.553075 555.891983 
L 179.348081 548.854012 
L 183.485325 544.555637 
L 190.25951 537.539732 
L 194.417565 533.28983 
L 201.24661 526.225451 
L 205.349805 522.044509 
L 212.240616 514.911149 
L 216.282055 510.682935 
L 223.130079 503.596869 
L 227.214305 499.140038 
L 233.837852 492.282588 
L 238.146545 487.486502 
L 249.07879 487.893471 
L 255.780643 480.968308 
L 260.011035 476.344883 
L 266.476852 469.654017 
L 270.94328 464.609173 
L 281.875525 465.406219 
L 288.699132 458.339725 
L 292.80777 453.742747 
L 299.280514 447.025445 
L 303.740015 441.801787 
L 314.67226 443.112945 
L 321.966222 435.711165 
L 320.699355 424.396873 
L 319.097278 413.082582 
L 325.604505 407.618787 
L 336.536745 409.286732 
L 343.736789 401.768302 
L 347.46899 397.144405 
L 354.100091 390.454016 
L 358.401235 386.078297 
L 365.419592 379.13973 
L 364.70735 367.825444 
L 364.964899 356.511158 
L 364.123967 345.196873 
L 364.777016 333.882587 
L 365.807072 322.568301 
L 365.966181 311.254015 
L 367.130963 299.939735 
L 358.401235 291.423585 
L 354.434138 288.625449 
L 356.440518 277.311163 
L 347.46899 268.710608 
L 344.083259 265.996877 
L 336.536745 258.869675 
L 332.358087 254.682592 
L 325.604505 247.901937 
L 322.143816 243.368306 
L 314.67226 235.592658 
L 303.740015 237.292475 
L 299.776418 232.05402 
L 292.80777 224.856937 
L 288.872038 220.739734 
L 281.875525 213.535946 
L 278.167886 209.425448 
L 270.94328 201.930045 
L 260.011035 202.708952 
L 256.164858 198.111168 
L 249.07879 190.739831 
L 238.146545 191.188682 
L 227.214305 191.674404 
L 223.268283 186.796877 
L 216.282055 179.50488 
L 205.349805 180.276542 
L 201.23758 175.482585 
L 194.417565 168.383768 
L 183.485325 169.312614 
L 179.16038 164.168305 
L 172.553075 157.281808 
L 161.620825 157.883651 
L 157.51841 152.854025 
L 150.688585 145.733722 
L 139.756345 146.134896 
L 128.824106 146.524843 
L 124.82001 141.539733 
L 117.891845 134.302893 
L 106.959605 134.628484 
L 96.027365 134.893001 
L 85.095104 134.9274 
L 74.162865 135.050772 
L 70.217241 130.225442 
L 63.230625 122.935537 
" clip-path="url(#p653cc62c9b)" style="fill: none; stroke: #460b5e; stroke-width: 1.5"/>
    <path d="M 63.230625 509.917728 
L 74.162865 510.245644 
L 80.564281 503.596869 
L 85.095104 498.219818 
L 96.027365 498.806082 
L 106.959605 499.336435 
L 113.755041 492.282588 
L 117.891845 487.437296 
L 122.130823 492.282588 
L 122.330807 503.596869 
L 122.448187 514.911149 
L 122.752374 526.225451 
L 117.891845 530.649067 
L 111.212592 537.539732 
L 111.425862 548.854012 
L 111.420143 560.168314 
L 111.244066 571.482595 
L 111.004068 582.796875 
" clip-path="url(#p653cc62c9b)" style="fill: none; stroke: #460b5e; stroke-width: 1.5"/>
    <path d="M 63.230625 205.093256 
L 67.343842 209.425448 
L 74.162865 216.478398 
L 78.323333 220.739734 
L 78.176874 232.05402 
L 85.095104 239.207487 
L 89.333043 243.368306 
L 96.027365 250.312545 
L 100.651858 254.682592 
L 106.959605 261.200983 
L 110.953546 265.996877 
L 111.00385 277.311163 
L 117.891845 284.430595 
L 122.134638 288.625449 
L 121.908226 299.939735 
L 128.824106 307.076412 
L 133.125188 311.254015 
L 128.824106 315.510479 
L 122.003489 322.568301 
L 117.891845 327.288579 
L 106.959605 326.970932 
L 96.027365 326.710212 
L 89.140562 333.882587 
L 85.095104 338.58488 
L 74.162865 338.223618 
L 67.464721 345.196873 
L 63.230625 350.012332 
" clip-path="url(#p653cc62c9b)" style="fill: none; stroke: #460b5e; stroke-width: 1.5"/>
    <path d="M 217.416464 28.396875 
L 226.998666 39.711155 
L 227.214305 39.953824 
L 236.329583 51.025436 
L 238.146545 53.203523 
L 244.519666 62.339738 
L 249.07879 68.220007 
L 252.462977 73.654018 
L 259.575937 84.968299 
L 260.011035 85.647632 
L 265.80749 96.282601 
L 270.94328 105.664424 
L 272.011171 107.596881 
L 278.005648 118.911162 
L 281.875525 126.238524 
L 283.850609 130.225442 
L 289.326109 141.539733 
L 292.80777 148.985106 
L 294.938511 152.854025 
L 301.870882 164.168305 
L 303.740015 166.979278 
L 311.629775 175.482585 
L 314.67226 178.271908 
L 323.511412 186.796877 
L 325.604505 188.730822 
L 332.913385 198.111168 
L 336.536745 202.407401 
L 340.887419 209.425448 
L 347.245932 220.739734 
L 347.46899 221.224662 
L 352.320277 232.05402 
L 357.354495 243.368306 
L 358.401235 245.741615 
L 363.191616 254.682592 
L 366.71629 265.996877 
L 369.33348 272.506105 
L 371.464537 277.311163 
L 379.285939 288.625449 
L 380.265725 290.196392 
L 385.640518 299.939735 
L 391.19797 310.887265 
L 391.375243 311.254015 
L 398.173116 322.568301 
L 399.825082 333.882587 
L 400.274634 345.196873 
L 402.130215 352.263094 
L 403.306441 356.511158 
L 406.843 367.825444 
L 410.742957 379.13973 
L 413.06246 387.0675 
L 414.059034 390.454016 
L 417.996043 401.768302 
L 420.854041 413.082582 
L 423.994705 421.684854 
L 424.976324 424.396873 
L 428.740472 435.711165 
L 431.24631 447.025445 
L 432.760461 458.339725 
L 433.34831 469.654017 
L 433.52934 480.968308 
L 433.311288 492.282588 
L 433.431393 503.596869 
L 433.248287 514.911149 
L 431.288747 526.225451 
L 427.002191 537.539732 
L 423.994705 542.86158 
L 419.704747 548.854012 
L 413.06246 558.149547 
L 412.011944 560.168314 
L 406.874416 571.482595 
L 402.130215 580.621903 
L 400.383625 582.796875 
" clip-path="url(#p653cc62c9b)" style="fill: none; stroke: #460b5e; stroke-width: 1.5"/>
   </g>
   <g id="PathCollection_3">
    <path d="M 120.170462 582.796875 
L 128.824106 572.695213 
L 139.756345 573.10348 
L 141.319692 571.482595 
L 150.688585 561.072789 
L 161.620825 562.502534 
L 163.874071 560.168314 
L 172.553075 550.93929 
L 174.566366 548.854012 
L 172.553075 537.967343 
L 161.620825 546.953691 
L 158.836554 548.854012 
L 150.688585 554.484743 
L 139.756345 559.876273 
L 129.527789 548.854012 
L 129.838474 537.539732 
L 132.782076 526.225451 
L 136.291395 514.911149 
L 139.365791 503.596869 
L 139.756345 501.455852 
L 141.674696 492.282588 
L 143.91605 480.968308 
L 140.85149 469.654017 
L 139.756345 469.068698 
L 137.517933 469.654017 
L 128.824106 471.665781 
L 117.891845 476.067205 
L 108.605271 480.968308 
L 117.891845 482.061765 
L 126.83369 492.282588 
L 127.273151 503.596869 
L 127.524652 514.911149 
L 128.179549 526.225451 
L 117.891845 535.588393 
L 116.000375 537.539732 
L 116.456283 548.854012 
L 116.453069 560.168314 
L 116.101818 571.482595 
L 115.616729 582.796875 
" clip-path="url(#p653cc62c9b)" style="fill: none; stroke: #481769; stroke-width: 1.5"/>
    <path d="M 63.230625 504.342512 
L 74.162865 505.007814 
L 75.521318 503.596869 
L 74.162865 495.535038 
L 63.230625 496.427256 
" clip-path="url(#p653cc62c9b)" style="fill: none; stroke: #481769; stroke-width: 1.5"/>
    <path d="M 63.230625 382.168799 
L 66.534798 379.13973 
L 68.444961 367.825444 
L 74.162865 362.533494 
L 79.652919 356.511158 
L 85.095104 354.058489 
L 96.027365 348.871876 
L 105.098608 345.196873 
L 106.959605 344.613297 
L 117.891845 340.724087 
L 128.824106 335.257536 
L 131.100686 333.882587 
L 139.756345 329.398135 
L 148.668665 322.568301 
L 150.688585 318.915663 
L 155.094299 311.254015 
L 151.243116 299.939735 
L 155.246874 288.625449 
L 150.688585 283.014173 
L 146.257016 277.311163 
L 140.501681 265.996877 
L 139.756345 265.100486 
L 131.046794 254.682592 
L 128.824106 252.466385 
L 118.62337 243.368306 
L 117.891845 240.441913 
L 115.73149 232.05402 
L 106.959605 221.024979 
L 106.786961 220.739734 
L 97.003703 209.425448 
L 96.027365 208.748485 
L 85.095104 201.21383 
L 81.440922 198.111168 
L 74.162865 192.793606 
L 65.182252 186.796877 
L 63.230625 184.715347 
" clip-path="url(#p653cc62c9b)" style="fill: none; stroke: #481769; stroke-width: 1.5"/>
    <path d="M 63.230625 200.063616 
L 72.119253 209.425448 
L 74.162865 211.539166 
L 83.145651 220.739734 
L 82.87206 232.05402 
L 85.095104 234.352653 
L 94.277859 243.368306 
L 96.027365 245.183126 
L 106.079939 254.682592 
L 106.959605 255.591634 
L 115.624917 265.996877 
L 115.724535 277.311163 
L 117.891845 279.551295 
L 127.069699 288.625449 
L 126.603998 299.939735 
L 128.824106 302.230722 
L 138.114105 311.254015 
L 128.824106 320.447643 
L 126.774721 322.568301 
L 117.891845 332.766079 
L 106.959605 332.11994 
L 96.027365 331.589341 
L 93.825426 333.882587 
L 85.095104 344.030396 
L 74.162865 343.28907 
L 72.33033 345.196873 
L 63.230625 355.546016 
" clip-path="url(#p653cc62c9b)" style="fill: none; stroke: #481769; stroke-width: 1.5"/>
    <path d="M 63.230625 146.182956 
L 74.162865 146.955614 
L 85.095104 148.269339 
L 96.027365 148.595383 
L 106.959605 149.663576 
L 117.891845 151.233312 
L 119.989801 141.539733 
L 117.891845 139.348305 
L 106.959605 140.010101 
L 96.027365 140.529247 
L 85.095104 140.549006 
L 74.162865 140.787128 
L 65.526682 130.225442 
L 63.230625 127.829714 
" clip-path="url(#p653cc62c9b)" style="fill: none; stroke: #481769; stroke-width: 1.5"/>
    <path d="M 290.272713 28.396875 
L 292.80777 33.411197 
L 296.012065 39.711155 
L 301.583372 51.025436 
L 303.740015 55.541116 
L 307.46468 62.339738 
L 313.733576 73.654018 
L 314.67226 75.350255 
L 319.586548 84.968299 
L 325.604505 96.280308 
L 325.605835 96.282601 
L 331.803222 107.596881 
L 336.536745 116.465085 
L 337.996472 118.911162 
L 344.754179 130.225442 
L 347.46899 134.284892 
L 353.845099 141.539733 
L 358.401235 146.282446 
L 364.519407 152.854025 
L 369.33348 158.59446 
L 373.824912 164.168305 
L 380.265725 174.662597 
L 380.632442 175.482585 
L 385.221265 186.796877 
L 390.162011 198.111168 
L 391.19797 200.587305 
L 395.106968 209.425448 
L 401.518264 220.739734 
L 402.130215 222.492207 
L 405.255466 232.05402 
L 408.844947 243.368306 
L 413.06246 253.344874 
L 413.608985 254.682592 
L 415.874397 265.996877 
L 418.659302 277.311163 
L 423.388125 288.625449 
L 423.994705 289.65863 
L 429.658501 299.939735 
L 434.926945 307.178022 
L 437.980689 311.254015 
L 444.293813 322.568301 
L 445.859195 327.447757 
L 447.876835 333.882587 
L 452.908833 345.196873 
L 456.791445 353.907174 
L 458.040111 356.511158 
L 461.512452 367.825444 
L 465.773032 379.13973 
L 467.723685 384.286303 
L 469.96724 390.454016 
L 474.004998 401.768302 
L 478.056547 413.082582 
L 478.655925 414.674386 
L 482.145678 424.396873 
L 486.499188 435.711165 
L 489.588175 443.751013 
L 490.774023 447.025445 
L 494.815638 458.339725 
L 498.327723 469.654017 
L 500.183788 480.968308 
L 500.520425 484.365531 
L 501.305248 492.282588 
L 502.701068 503.596869 
L 504.169701 514.911149 
L 505.645384 526.225451 
L 506.738406 537.539732 
L 507.265191 548.854012 
L 507.275336 560.168314 
L 506.973691 571.482595 
L 506.370316 582.796875 
" clip-path="url(#p653cc62c9b)" style="fill: none; stroke: #481769; stroke-width: 1.5"/>
    <path d="M 183.485325 539.587689 
L 185.462724 537.539732 
L 183.485325 526.84701 
L 172.974733 537.539732 
L 183.485325 539.587689 
z
" clip-path="url(#p653cc62c9b)" style="fill: none; stroke: #481769; stroke-width: 1.5"/>
    <path d="M 194.417565 528.38709 
L 196.507193 526.225451 
L 205.349805 517.21529 
L 207.5756 514.911149 
L 216.282055 505.802326 
L 218.413424 503.596869 
L 227.214305 493.993083 
L 228.866456 492.282588 
L 227.214305 481.484731 
L 216.282055 488.794202 
L 213.093402 492.282588 
L 205.349805 499.922673 
L 202.418806 503.596869 
L 194.417565 513.294516 
L 193.05624 514.911149 
L 184.048857 526.225451 
L 194.417565 528.38709 
z
" clip-path="url(#p653cc62c9b)" style="fill: none; stroke: #481769; stroke-width: 1.5"/>
    <path d="M 96.027365 493.451975 
L 106.959605 494.572401 
L 109.165532 492.282588 
L 106.959605 481.757644 
L 96.027365 486.953567 
L 85.479331 492.282588 
L 96.027365 493.451975 
z
" clip-path="url(#p653cc62c9b)" style="fill: none; stroke: #481769; stroke-width: 1.5"/>
    <path d="M 238.146545 481.95275 
L 249.07879 482.74137 
L 250.794678 480.968308 
L 249.07879 470.066213 
L 238.146545 474.970618 
L 228.110935 480.968308 
L 238.146545 481.95275 
z
" clip-path="url(#p653cc62c9b)" style="fill: none; stroke: #481769; stroke-width: 1.5"/>
    <path d="M 260.011035 470.895685 
L 261.21094 469.654017 
L 260.011035 463.209737 
L 249.669335 469.654017 
L 260.011035 470.895685 
z
" clip-path="url(#p653cc62c9b)" style="fill: none; stroke: #481769; stroke-width: 1.5"/>
    <path d="M 270.94328 458.661309 
L 281.875525 460.240774 
L 283.711232 458.339725 
L 281.875525 450.511526 
L 270.94328 454.913342 
L 268.330975 458.339725 
L 270.94328 458.661309 
z
" clip-path="url(#p653cc62c9b)" style="fill: none; stroke: #481769; stroke-width: 1.5"/>
    <path d="M 292.80777 448.162001 
L 293.902947 447.025445 
L 292.80777 443.10736 
L 286.750295 447.025445 
L 292.80777 448.162001 
z
" clip-path="url(#p653cc62c9b)" style="fill: none; stroke: #481769; stroke-width: 1.5"/>
    <path d="M 314.67226 438.053326 
L 316.980304 435.711165 
L 314.67226 425.819212 
L 304.469278 435.711165 
L 314.67226 438.053326 
z
" clip-path="url(#p653cc62c9b)" style="fill: none; stroke: #481769; stroke-width: 1.5"/>
    <path d="M 336.536745 404.162015 
L 338.829091 401.768302 
L 336.536745 391.452989 
L 328.230459 401.768302 
L 336.536745 404.162015 
z
" clip-path="url(#p653cc62c9b)" style="fill: none; stroke: #481769; stroke-width: 1.5"/>
    <path d="M 347.46899 391.064162 
L 348.073729 390.454016 
L 347.46899 385.828734 
L 339.933544 390.454016 
L 347.46899 391.064162 
z
" clip-path="url(#p653cc62c9b)" style="fill: none; stroke: #481769; stroke-width: 1.5"/>
    <path d="M 358.401235 379.94745 
L 359.218243 379.13973 
L 358.401235 373.937183 
L 353.199193 379.13973 
L 358.401235 379.94745 
z
" clip-path="url(#p653cc62c9b)" style="fill: none; stroke: #481769; stroke-width: 1.5"/>
    <path d="M 358.401235 307.562841 
L 359.903982 299.939735 
L 358.401235 298.473753 
L 355.604894 299.939735 
L 358.401235 307.562841 
z
" clip-path="url(#p653cc62c9b)" style="fill: none; stroke: #481769; stroke-width: 1.5"/>
    <path d="M 347.46899 282.963927 
L 349.553651 277.311163 
L 347.46899 275.312703 
L 343.826281 277.311163 
L 347.46899 282.963927 
z
" clip-path="url(#p653cc62c9b)" style="fill: none; stroke: #481769; stroke-width: 1.5"/>
    <path d="M 314.67226 246.831271 
L 316.193785 243.368306 
L 314.67226 241.784855 
L 308.624533 243.368306 
L 314.67226 246.831271 
z
" clip-path="url(#p653cc62c9b)" style="fill: none; stroke: #481769; stroke-width: 1.5"/>
    <path d="M 292.80777 235.452502 
L 293.982625 232.05402 
L 292.80777 230.840653 
L 288.786163 232.05402 
L 292.80777 235.452502 
z
" clip-path="url(#p653cc62c9b)" style="fill: none; stroke: #481769; stroke-width: 1.5"/>
    <path d="M 281.875525 225.157044 
L 283.152061 220.739734 
L 281.875525 219.42538 
L 275.328209 220.739734 
L 281.875525 225.157044 
z
" clip-path="url(#p653cc62c9b)" style="fill: none; stroke: #481769; stroke-width: 1.5"/>
    <path d="M 260.011035 212.433183 
L 270.94328 217.420367 
L 272.855658 209.425448 
L 270.94328 207.441389 
L 260.011035 208.810296 
L 251.368079 209.425448 
L 260.011035 212.433183 
z
" clip-path="url(#p653cc62c9b)" style="fill: none; stroke: #481769; stroke-width: 1.5"/>
    <path d="M 227.214305 200.219705 
L 238.146545 204.486677 
L 249.07879 208.697474 
L 251.060909 198.111168 
L 249.07879 196.049253 
L 238.146545 196.77713 
L 227.214305 197.717697 
L 223.463238 198.111168 
L 227.214305 200.219705 
z
" clip-path="url(#p653cc62c9b)" style="fill: none; stroke: #481769; stroke-width: 1.5"/>
    <path d="M 205.349805 189.93836 
L 216.282055 195.563554 
L 218.379133 186.796877 
L 216.282055 184.608015 
L 205.349805 186.170334 
L 201.392284 186.796877 
L 205.349805 189.93836 
z
" clip-path="url(#p653cc62c9b)" style="fill: none; stroke: #481769; stroke-width: 1.5"/>
    <path d="M 194.417565 182.844602 
L 196.181924 175.482585 
L 194.417565 173.646099 
L 183.830517 175.482585 
L 194.417565 182.844602 
z
" clip-path="url(#p653cc62c9b)" style="fill: none; stroke: #481769; stroke-width: 1.5"/>
    <path d="M 161.620825 165.284334 
L 172.553075 170.732643 
L 173.913432 164.168305 
L 172.553075 162.750466 
L 161.620825 163.97005 
L 159.005518 164.168305 
L 161.620825 165.284334 
z
" clip-path="url(#p653cc62c9b)" style="fill: none; stroke: #481769; stroke-width: 1.5"/>
    <path d="M 128.824106 154.525182 
L 139.756345 157.999085 
L 150.688585 161.723332 
L 152.554038 152.854025 
L 150.688585 150.909232 
L 139.756345 151.731694 
L 128.824106 152.538466 
L 124.238261 152.854025 
L 128.824106 154.525182 
z
" clip-path="url(#p653cc62c9b)" style="fill: none; stroke: #481769; stroke-width: 1.5"/>
   </g>
   <g id="PathCollection_4">
    <path d="M 345.847623 28.396875 
L 347.46899 30.939374 
L 353.783157 39.711155 
L 358.401235 45.983748 
L 362.342947 51.025436 
L 369.33348 59.723441 
L 371.395533 62.339738 
L 380.265725 73.448262 
L 380.418704 73.654018 
L 388.764278 84.968299 
L 391.19797 88.167707 
L 397.670927 96.282601 
L 402.130215 102.149458 
L 405.671735 107.596881 
L 412.015462 118.911162 
L 413.06246 121.249561 
L 416.044869 130.225442 
L 419.384988 141.539733 
L 422.454319 152.854025 
L 423.994705 160.172696 
L 424.793444 164.168305 
L 427.361625 175.482585 
L 431.259516 186.796877 
L 434.926945 194.062103 
L 437.307507 198.111168 
L 444.585713 209.425448 
L 445.859195 211.902034 
L 449.765835 220.739734 
L 453.918544 232.05402 
L 456.791445 242.687014 
L 456.966617 243.368306 
L 458.411468 254.682592 
L 460.458129 265.996877 
L 464.526616 277.311163 
L 467.723685 284.068281 
L 469.700124 288.625449 
L 474.894701 299.939735 
L 478.655925 307.075061 
L 480.879767 311.254015 
L 485.198121 322.568301 
L 489.141902 333.882587 
L 489.588175 334.898065 
L 493.870832 345.196873 
L 499.737587 356.511158 
L 500.520425 357.977671 
L 505.906137 367.825444 
L 510.386437 379.13973 
L 511.452665 382.244911 
L 514.244181 390.454016 
L 518.757769 401.768302 
L 522.384905 411.210919 
L 523.102896 413.082582 
L 527.468774 424.396873 
L 532.100914 435.711165 
L 533.317144 438.56565 
L 536.939958 447.025445 
L 541.904893 458.339725 
L 544.249405 463.293559 
L 547.201392 469.654017 
L 552.467999 480.968308 
L 555.181645 487.214327 
L 557.375491 492.282588 
L 561.906879 503.596869 
L 566.080326 514.911149 
L 566.113885 515.028084 
L 569.351579 526.225451 
L 572.099834 537.539732 
L 574.128349 548.854012 
L 575.261531 560.168314 
L 575.465845 571.482595 
L 575.104383 582.796875 
" clip-path="url(#p653cc62c9b)" style="fill: none; stroke: #482071; stroke-width: 1.5"/>
   </g>
   <g id="PathCollection_5">
    <path d="M 402.239659 28.396875 
L 413.06246 39.629613 
L 413.139438 39.711155 
L 423.994705 50.974358 
L 424.042688 51.025436 
L 434.926945 62.333402 
L 434.932875 62.339738 
L 435.009923 73.654018 
L 435.08058 84.968299 
L 445.859195 96.228761 
L 445.909654 96.282601 
L 445.9649 107.596881 
L 446.019007 118.911162 
L 456.791445 130.195159 
L 456.819852 130.225442 
L 456.856827 141.539733 
L 456.902736 152.854025 
L 467.723685 164.150354 
L 467.740676 164.168305 
L 467.832162 175.482585 
L 478.655925 186.769114 
L 478.68221 186.796877 
L 478.767947 198.111168 
L 489.588175 209.389068 
L 489.622215 209.425448 
L 489.667132 220.739734 
L 489.708568 232.05402 
L 489.750159 243.368306 
L 489.775207 254.682592 
L 500.520425 265.954541 
L 500.559862 265.996877 
L 500.622516 277.311163 
L 511.452665 288.612369 
L 511.4649 288.625449 
L 511.572813 299.939735 
L 522.384905 311.192883 
L 522.442114 311.254015 
L 522.512484 322.568301 
L 533.317144 333.86503 
L 533.333535 333.882587 
L 533.389825 345.196873 
L 533.454887 356.511158 
L 544.249405 367.783565 
L 544.288394 367.825444 
L 544.367317 379.13973 
L 555.181645 390.4486 
L 555.186694 390.454016 
L 555.267312 401.768302 
L 555.352972 413.082582 
L 566.113885 424.327441 
L 566.178777 424.396873 
L 566.258956 435.711165 
L 577.046146 446.981677 
L 577.086983 447.025445 
L 577.171504 458.339725 
L 587.978385 469.625173 
L 588.005296 469.654017 
L 588.086876 480.968308 
L 598.910625 492.269366 
" clip-path="url(#p653cc62c9b)" style="fill: none; stroke: #472a7a; stroke-width: 1.5"/>
   </g>
   <g id="PathCollection_6">
    <path d="M 402.937741 28.396875 
L 413.06246 38.90509 
L 413.823414 39.711155 
L 423.994705 50.264679 
L 424.709374 51.025436 
L 434.926945 61.640762 
L 435.581089 62.339738 
L 435.668309 73.654018 
L 435.749289 84.968299 
L 445.859195 95.530158 
L 446.564389 96.282601 
L 446.632065 107.596881 
L 446.699367 118.911162 
L 456.791445 129.482491 
L 457.488372 130.225442 
L 457.539633 141.539733 
L 457.599446 152.854025 
L 467.723685 163.423037 
L 468.429109 164.168305 
L 468.534395 175.482585 
L 478.655925 186.036858 
L 479.375496 186.796877 
L 479.474812 198.111168 
L 489.588175 208.652304 
L 490.311583 209.425448 
L 490.367087 220.739734 
L 490.420387 232.05402 
L 490.473569 243.368306 
L 490.510756 254.682592 
L 500.520425 265.182936 
L 501.278628 265.996877 
L 501.353358 277.311163 
L 511.452665 287.849738 
L 512.178255 288.625449 
L 512.296795 299.939735 
L 522.384905 310.439368 
L 523.147282 311.254015 
L 523.230775 322.568301 
L 533.317144 333.114026 
L 534.034636 333.882587 
L 534.103363 345.196873 
L 534.17903 356.511158 
L 544.249405 367.027364 
L 544.992411 367.825444 
L 545.079444 379.13973 
L 555.181645 389.703907 
L 555.880959 390.454016 
L 555.970881 401.768302 
L 556.066405 413.082582 
L 566.113885 423.581922 
L 566.875544 424.396873 
L 566.966614 435.711165 
L 577.046146 446.242312 
L 577.77684 447.025445 
L 577.869385 458.339725 
L 587.978385 468.896386 
L 588.685246 469.654017 
L 588.774735 480.968308 
L 598.910625 491.551173 
" clip-path="url(#p653cc62c9b)" style="fill: none; stroke: #46337f; stroke-width: 1.5"/>
   </g>
   <g id="PathCollection_7">
    <path d="M 403.635823 28.396875 
L 413.06246 38.180567 
L 414.50739 39.711155 
L 423.994705 49.555 
L 425.376061 51.025436 
L 434.926945 60.948123 
L 436.229304 62.339738 
L 436.326694 73.654018 
L 436.417998 84.968299 
L 445.859195 94.831554 
L 447.219124 96.282601 
L 447.299229 107.596881 
L 447.379726 118.911162 
L 456.791445 128.769822 
L 458.156892 130.225442 
L 458.222438 141.539733 
L 458.296156 152.854025 
L 467.723685 162.69572 
L 469.117541 164.168305 
L 469.236628 175.482585 
L 478.655925 185.304601 
L 480.068782 186.796877 
L 480.181677 198.111168 
L 489.588175 207.915541 
L 491.000952 209.425448 
L 491.067042 220.739734 
L 491.132205 232.05402 
L 491.196979 243.368306 
L 491.246304 254.682592 
L 500.520425 264.41133 
L 501.997394 265.996877 
L 502.0842 277.311163 
L 511.452665 287.087108 
L 512.891609 288.625449 
L 513.020777 299.939735 
L 522.384905 309.685852 
L 523.85245 311.254015 
L 523.949066 322.568301 
L 533.317144 332.363023 
L 534.735737 333.882587 
L 534.816901 345.196873 
L 534.903172 356.511158 
L 544.249405 366.271163 
L 545.696427 367.825444 
L 545.791571 379.13973 
L 555.181645 388.959214 
L 556.575224 390.454016 
L 556.674451 401.768302 
L 556.779839 413.082582 
L 566.113885 422.836404 
L 567.572312 424.396873 
L 567.674272 435.711165 
L 577.046146 445.502948 
L 578.466696 447.025445 
L 578.567267 458.339725 
L 587.978385 468.1676 
L 589.365195 469.654017 
L 589.462595 480.968308 
L 598.910625 490.83298 
" clip-path="url(#p653cc62c9b)" style="fill: none; stroke: #433d84; stroke-width: 1.5"/>
   </g>
   <g id="PathCollection_8">
    <path d="M 404.333905 28.396875 
L 413.06246 37.456043 
L 415.191365 39.711155 
L 423.994705 48.845321 
L 426.042747 51.025436 
L 434.926945 60.255483 
L 436.877518 62.339738 
L 436.98508 73.654018 
L 437.086708 84.968299 
L 445.859195 94.132951 
L 447.873859 96.282601 
L 447.966394 107.596881 
L 448.060086 118.911162 
L 456.791445 128.057154 
L 458.825411 130.225442 
L 458.905243 141.539733 
L 458.992865 152.854025 
L 467.723685 161.968403 
L 469.805974 164.168305 
L 469.93886 175.482585 
L 478.655925 184.572345 
L 480.762068 186.796877 
L 480.888542 198.111168 
L 489.588175 207.178777 
L 491.69032 209.425448 
L 491.766998 220.739734 
L 491.844024 232.05402 
L 491.920389 243.368306 
L 491.981853 254.682592 
L 500.520425 263.639725 
L 502.716159 265.996877 
L 502.815042 277.311163 
L 511.452665 286.324478 
L 513.604964 288.625449 
L 513.744759 299.939735 
L 522.384905 308.932337 
L 524.557618 311.254015 
L 524.667357 322.568301 
L 533.317144 331.612019 
L 535.436838 333.882587 
L 535.530439 345.196873 
L 535.627314 356.511158 
L 544.249405 365.514962 
L 546.400443 367.825444 
L 546.503698 379.13973 
L 555.181645 388.214522 
L 557.269489 390.454016 
L 557.37802 401.768302 
L 557.493273 413.082582 
L 566.113885 422.090885 
L 568.269079 424.396873 
L 568.381929 435.711165 
L 577.046146 444.763583 
L 579.156552 447.025445 
L 579.265149 458.339725 
L 587.978385 467.438813 
L 590.045144 469.654017 
L 590.150455 480.968308 
L 598.910625 490.114787 
" clip-path="url(#p653cc62c9b)" style="fill: none; stroke: #404588; stroke-width: 1.5"/>
   </g>
   <g id="PathCollection_9">
    <path d="M 405.031987 28.396875 
L 413.06246 36.73152 
L 415.875341 39.711155 
L 423.994705 48.135642 
L 426.709433 51.025436 
L 434.926945 59.562844 
L 437.525733 62.339738 
L 437.643465 73.654018 
L 437.755417 84.968299 
L 445.859195 93.434348 
L 448.528594 96.282601 
L 448.633559 107.596881 
L 448.740445 118.911162 
L 456.791445 127.344486 
L 459.493931 130.225442 
L 459.588048 141.539733 
L 459.689575 152.854025 
L 467.723685 161.241085 
L 470.494406 164.168305 
L 470.641093 175.482585 
L 478.655925 183.840089 
L 481.455355 186.796877 
L 481.595407 198.111168 
L 489.588175 206.442013 
L 492.379689 209.425448 
L 492.466953 220.739734 
L 492.555843 232.05402 
L 492.643799 243.368306 
L 492.717402 254.682592 
L 500.520425 262.868119 
L 503.434925 265.996877 
L 503.545885 277.311163 
L 511.452665 285.561848 
L 514.318318 288.625449 
L 514.468742 299.939735 
L 522.384905 308.178821 
L 525.262786 311.254015 
L 525.385648 322.568301 
L 533.317144 330.861016 
L 536.13794 333.882587 
L 536.243978 345.196873 
L 536.351457 356.511158 
L 544.249405 364.75876 
L 547.104459 367.825444 
L 547.215825 379.13973 
L 555.181645 387.469829 
L 557.963754 390.454016 
L 558.081589 401.768302 
L 558.206707 413.082582 
L 566.113885 421.345366 
L 568.965846 424.396873 
L 569.089587 435.711165 
L 577.046146 444.024219 
L 579.846409 447.025445 
L 579.963031 458.339725 
L 587.978385 466.710027 
L 590.725093 469.654017 
L 590.838314 480.968308 
L 598.910625 489.396594 
" clip-path="url(#p653cc62c9b)" style="fill: none; stroke: #3d4e8a; stroke-width: 1.5"/>
   </g>
   <g id="PathCollection_10">
    <path d="M 405.730069 28.396875 
L 413.06246 36.006996 
L 416.559316 39.711155 
L 423.994705 47.425963 
L 427.376119 51.025436 
L 434.926945 58.870205 
L 438.173947 62.339738 
L 438.301851 73.654018 
L 438.424126 84.968299 
L 445.859195 92.735744 
L 449.183329 96.282601 
L 449.300723 107.596881 
L 449.420805 118.911162 
L 456.791445 126.631818 
L 460.162451 130.225442 
L 460.270854 141.539733 
L 460.386285 152.854025 
L 467.723685 160.513768 
L 471.182839 164.168305 
L 471.343326 175.482585 
L 478.655925 183.107832 
L 482.148641 186.796877 
L 482.302272 198.111168 
L 489.588175 205.705249 
L 493.069057 209.425448 
L 493.166908 220.739734 
L 493.267661 232.05402 
L 493.367209 243.368306 
L 493.452951 254.682592 
L 500.520425 262.096514 
L 504.153691 265.996877 
L 504.276727 277.311163 
L 511.452665 284.799218 
L 515.031673 288.625449 
L 515.192724 299.939735 
L 522.384905 307.425305 
L 525.967954 311.254015 
L 526.103939 322.568301 
L 533.317144 330.110012 
L 536.839041 333.882587 
L 536.957516 345.196873 
L 537.075599 356.511158 
L 544.249405 364.002559 
L 547.808475 367.825444 
L 547.927952 379.13973 
L 555.181645 386.725137 
L 558.658018 390.454016 
L 558.785158 401.768302 
L 558.92014 413.082582 
L 566.113885 420.599848 
L 569.662614 424.396873 
L 569.797245 435.711165 
L 577.046146 443.284854 
L 580.536265 447.025445 
L 580.660913 458.339725 
L 587.978385 465.981241 
L 591.405042 469.654017 
L 591.526174 480.968308 
L 598.910625 488.678401 
" clip-path="url(#p653cc62c9b)" style="fill: none; stroke: #39558c; stroke-width: 1.5"/>
   </g>
   <g id="PathCollection_11">
    <path d="M 406.428151 28.396875 
L 413.06246 35.282473 
L 417.243292 39.711155 
L 423.994705 46.716284 
L 428.042805 51.025436 
L 434.926945 58.177565 
L 438.822162 62.339738 
L 438.960237 73.654018 
L 439.092836 84.968299 
L 445.859195 92.037141 
L 449.838065 96.282601 
L 449.967888 107.596881 
L 450.101164 118.911162 
L 456.791445 125.919149 
L 460.83097 130.225442 
L 460.953659 141.539733 
L 461.082994 152.854025 
L 467.723685 159.786451 
L 471.871271 164.168305 
L 472.045558 175.482585 
L 478.655925 182.375576 
L 482.841927 186.796877 
L 483.009137 198.111168 
L 489.588175 204.968485 
L 493.758426 209.425448 
L 493.866863 220.739734 
L 493.97948 232.05402 
L 494.090619 243.368306 
L 494.1885 254.682592 
L 500.520425 261.324908 
L 504.872456 265.996877 
L 505.007569 277.311163 
L 511.452665 284.036588 
L 515.745027 288.625449 
L 515.916706 299.939735 
L 522.384905 306.67179 
L 526.673122 311.254015 
L 526.82223 322.568301 
L 533.317144 329.359008 
L 537.540142 333.882587 
L 537.671054 345.196873 
L 537.799742 356.511158 
L 544.249405 363.246358 
L 548.512491 367.825444 
L 548.640078 379.13973 
L 555.181645 385.980444 
L 559.352283 390.454016 
L 559.488727 401.768302 
L 559.633574 413.082582 
L 566.113885 419.854329 
L 570.359381 424.396873 
L 570.504902 435.711165 
L 577.046146 442.54549 
L 581.226121 447.025445 
L 581.358795 458.339725 
L 587.978385 465.252454 
L 592.084991 469.654017 
L 592.214033 480.968308 
L 598.910625 487.960208 
" clip-path="url(#p653cc62c9b)" style="fill: none; stroke: #355e8d; stroke-width: 1.5"/>
   </g>
   <g id="PathCollection_12">
    <path d="M 407.126233 28.396875 
L 413.06246 34.55795 
L 417.927267 39.711155 
L 423.994705 46.006605 
L 428.709491 51.025436 
L 434.926945 57.484926 
L 439.470377 62.339738 
L 439.618622 73.654018 
L 439.761545 84.968299 
L 445.859195 91.338538 
L 450.4928 96.282601 
L 450.635053 107.596881 
L 450.781524 118.911162 
L 456.791445 125.206481 
L 461.49949 130.225442 
L 461.636464 141.539733 
L 461.779704 152.854025 
L 467.723685 159.059134 
L 472.559704 164.168305 
L 472.747791 175.482585 
L 478.655925 181.643319 
L 483.535213 186.796877 
L 483.716002 198.111168 
L 489.588175 204.231721 
L 494.447795 209.425448 
L 494.566818 220.739734 
L 494.691298 232.05402 
L 494.814029 243.368306 
L 494.924049 254.682592 
L 500.520425 260.553303 
L 505.591222 265.996877 
L 505.738411 277.311163 
L 511.452665 283.273958 
L 516.458382 288.625449 
L 516.640688 299.939735 
L 522.384905 305.918274 
L 527.37829 311.254015 
L 527.540521 322.568301 
L 533.317144 328.608005 
L 538.241243 333.882587 
L 538.384592 345.196873 
L 538.523884 356.511158 
L 544.249405 362.490157 
L 549.216507 367.825444 
L 549.352205 379.13973 
L 555.181645 385.235752 
L 560.046548 390.454016 
L 560.192296 401.768302 
L 560.347008 413.082582 
L 566.113885 419.10881 
L 571.056149 424.396873 
L 571.21256 435.711165 
L 577.046146 441.806125 
L 581.915978 447.025445 
L 582.056676 458.339725 
L 587.978385 464.523668 
L 592.76494 469.654017 
L 592.901893 480.968308 
L 598.910625 487.242015 
" clip-path="url(#p653cc62c9b)" style="fill: none; stroke: #32658e; stroke-width: 1.5"/>
   </g>
   <g id="PathCollection_13">
    <path d="M 407.824315 28.396875 
L 413.06246 33.833426 
L 418.611243 39.711155 
L 423.994705 45.296926 
L 429.376178 51.025436 
L 434.926945 56.792287 
L 440.118591 62.339738 
L 440.277008 73.654018 
L 440.430254 84.968299 
L 445.859195 90.639935 
L 451.147535 96.282601 
L 451.302217 107.596881 
L 451.461883 118.911162 
L 456.791445 124.493813 
L 462.16801 130.225442 
L 462.319269 141.539733 
L 462.476414 152.854025 
L 467.723685 158.331817 
L 473.248136 164.168305 
L 473.450024 175.482585 
L 478.655925 180.911063 
L 484.2285 186.796877 
L 484.422867 198.111168 
L 489.588175 203.494957 
L 495.137163 209.425448 
L 495.266774 220.739734 
L 495.403117 232.05402 
L 495.537439 243.368306 
L 495.659597 254.682592 
L 500.520425 259.781697 
L 506.309988 265.996877 
L 506.469253 277.311163 
L 511.452665 282.511328 
L 517.171737 288.625449 
L 517.364671 299.939735 
L 522.384905 305.164759 
L 528.083458 311.254015 
L 528.258812 322.568301 
L 533.317144 327.857001 
L 538.942345 333.882587 
L 539.09813 345.196873 
L 539.248026 356.511158 
L 544.249405 361.733956 
L 549.920523 367.825444 
L 550.064332 379.13973 
L 555.181645 384.491059 
L 560.740813 390.454016 
L 560.895865 401.768302 
L 561.060442 413.082582 
L 566.113885 418.363292 
L 571.752916 424.396873 
L 571.920218 435.711165 
L 577.046146 441.066761 
L 582.605834 447.025445 
L 582.754558 458.339725 
L 587.978385 463.794881 
L 593.444889 469.654017 
L 593.589752 480.968308 
L 598.910625 486.523822 
" clip-path="url(#p653cc62c9b)" style="fill: none; stroke: #2e6d8e; stroke-width: 1.5"/>
   </g>
   <g id="PathCollection_14">
    <path d="M 408.522397 28.396875 
L 413.06246 33.108903 
L 419.295218 39.711155 
L 423.994705 44.587247 
L 430.042864 51.025436 
L 434.926945 56.099647 
L 440.766806 62.339738 
L 440.935394 73.654018 
L 441.098964 84.968299 
L 445.859195 89.941331 
L 451.80227 96.282601 
L 451.969382 107.596881 
L 452.142243 118.911162 
L 456.791445 123.781145 
L 462.83653 130.225442 
L 463.002074 141.539733 
L 463.173123 152.854025 
L 467.723685 157.604499 
L 473.936569 164.168305 
L 474.152256 175.482585 
L 478.655925 180.178807 
L 484.921786 186.796877 
L 485.129732 198.111168 
L 489.588175 202.758193 
L 495.826532 209.425448 
L 495.966729 220.739734 
L 496.114936 232.05402 
L 496.260849 243.368306 
L 496.395146 254.682592 
L 500.520425 259.010092 
L 507.028754 265.996877 
L 507.200095 277.311163 
L 511.452665 281.748698 
L 517.885091 288.625449 
L 518.088653 299.939735 
L 522.384905 304.411243 
L 528.788626 311.254015 
L 528.977103 322.568301 
L 533.317144 327.105998 
L 539.643446 333.882587 
L 539.811668 345.196873 
L 539.972169 356.511158 
L 544.249405 360.977754 
L 550.62454 367.825444 
L 550.776459 379.13973 
L 555.181645 383.746366 
L 561.435078 390.454016 
L 561.599435 401.768302 
L 561.773875 413.082582 
L 566.113885 417.617773 
L 572.449684 424.396873 
L 572.627875 435.711165 
L 577.046146 440.327396 
L 583.29569 447.025445 
L 583.45244 458.339725 
L 587.978385 463.066095 
L 594.124838 469.654017 
L 594.277612 480.968308 
L 598.910625 485.805629 
" clip-path="url(#p653cc62c9b)" style="fill: none; stroke: #2c738e; stroke-width: 1.5"/>
   </g>
   <g id="PathCollection_15">
    <path d="M 409.220479 28.396875 
L 413.06246 32.384379 
L 419.979194 39.711155 
L 423.994705 43.877568 
L 430.70955 51.025436 
L 434.926945 55.407008 
L 441.41502 62.339738 
L 441.593779 73.654018 
L 441.767673 84.968299 
L 445.859195 89.242728 
L 452.457005 96.282601 
L 452.636547 107.596881 
L 452.822602 118.911162 
L 456.791445 123.068476 
L 463.505049 130.225442 
L 463.68488 141.539733 
L 463.869833 152.854025 
L 467.723685 156.877182 
L 474.625001 164.168305 
L 474.854489 175.482585 
L 478.655925 179.44655 
L 485.615072 186.796877 
L 485.836597 198.111168 
L 489.588175 202.021429 
L 496.5159 209.425448 
L 496.666684 220.739734 
L 496.826754 232.05402 
L 496.984259 243.368306 
L 497.130695 254.682592 
L 500.520425 258.238486 
L 507.747519 265.996877 
L 507.930937 277.311163 
L 511.452665 280.986068 
L 518.598446 288.625449 
L 518.812635 299.939735 
L 522.384905 303.657727 
L 529.493794 311.254015 
L 529.695394 322.568301 
L 533.317144 326.354994 
L 540.344547 333.882587 
L 540.525206 345.196873 
L 540.696311 356.511158 
L 544.249405 360.221553 
L 551.328556 367.825444 
L 551.488586 379.13973 
L 555.181645 383.001674 
L 562.129342 390.454016 
L 562.303004 401.768302 
L 562.487309 413.082582 
L 566.113885 416.872254 
L 573.146451 424.396873 
L 573.335533 435.711165 
L 577.046146 439.588032 
L 583.985547 447.025445 
L 584.150322 458.339725 
L 587.978385 462.337308 
L 594.804787 469.654017 
L 594.965472 480.968308 
L 598.910625 485.087436 
" clip-path="url(#p653cc62c9b)" style="fill: none; stroke: #297b8e; stroke-width: 1.5"/>
   </g>
   <g id="PathCollection_16">
    <path d="M 409.918561 28.396875 
L 413.06246 31.659856 
L 420.663169 39.711155 
L 423.994705 43.167888 
L 431.376236 51.025436 
L 434.926945 54.714368 
L 442.063235 62.339738 
L 442.252165 73.654018 
L 442.436382 84.968299 
L 445.859195 88.544125 
L 453.11174 96.282601 
L 453.303711 107.596881 
L 453.502962 118.911162 
L 456.791445 122.355808 
L 464.173569 130.225442 
L 464.367685 141.539733 
L 464.566543 152.854025 
L 467.723685 156.149865 
L 475.313434 164.168305 
L 475.556721 175.482585 
L 478.655925 178.714294 
L 486.308359 186.796877 
L 486.543462 198.111168 
L 489.588175 201.284665 
L 497.205269 209.425448 
L 497.366639 220.739734 
L 497.538573 232.05402 
L 497.707669 243.368306 
L 497.866244 254.682592 
L 500.520425 257.466881 
L 508.466285 265.996877 
L 508.661779 277.311163 
L 511.452665 280.223438 
L 519.3118 288.625449 
L 519.536618 299.939735 
L 522.384905 302.904212 
L 530.198962 311.254015 
L 530.413685 322.568301 
L 533.317144 325.603991 
L 541.045648 333.882587 
L 541.238744 345.196873 
L 541.420453 356.511158 
L 544.249405 359.465352 
L 552.032572 367.825444 
L 552.200713 379.13973 
L 555.181645 382.256981 
L 562.823607 390.454016 
L 563.006573 401.768302 
L 563.200743 413.082582 
L 566.113885 416.126736 
L 573.843219 424.396873 
L 574.043191 435.711165 
L 577.046146 438.848668 
L 584.675403 447.025445 
L 584.848204 458.339725 
L 587.978385 461.608522 
L 595.484737 469.654017 
L 595.653331 480.968308 
L 598.910625 484.369243 
" clip-path="url(#p653cc62c9b)" style="fill: none; stroke: #26828e; stroke-width: 1.5"/>
   </g>
   <g id="PathCollection_17">
    <path d="M 410.616643 28.396875 
L 413.06246 30.935333 
L 421.347145 39.711155 
L 423.994705 42.458209 
L 432.042922 51.025436 
L 434.926945 54.021729 
L 442.711449 62.339738 
L 442.910551 73.654018 
L 443.105092 84.968299 
L 445.859195 87.845521 
L 453.766475 96.282601 
L 453.970876 107.596881 
L 454.183321 118.911162 
L 456.791445 121.64314 
L 464.842089 130.225442 
L 465.05049 141.539733 
L 465.263252 152.854025 
L 467.723685 155.422548 
L 476.001866 164.168305 
L 476.258954 175.482585 
L 478.655925 177.982038 
L 487.001645 186.796877 
L 487.250327 198.111168 
L 489.588175 200.547901 
L 497.894637 209.425448 
L 498.066594 220.739734 
L 498.250392 232.05402 
L 498.431079 243.368306 
L 498.601793 254.682592 
L 500.520425 256.695275 
L 509.185051 265.996877 
L 509.392622 277.311163 
L 511.452665 279.460808 
L 520.025155 288.625449 
L 520.2606 299.939735 
L 522.384905 302.150696 
L 530.90413 311.254015 
L 531.131976 322.568301 
L 533.317144 324.852987 
L 541.74675 333.882587 
L 541.952283 345.196873 
L 542.144596 356.511158 
L 544.249405 358.709151 
L 552.736588 367.825444 
L 552.91284 379.13973 
L 555.181645 381.512289 
L 563.517872 390.454016 
L 563.710142 401.768302 
L 563.914176 413.082582 
L 566.113885 415.381217 
L 574.539986 424.396873 
L 574.750849 435.711165 
L 577.046146 438.109303 
L 585.365259 447.025445 
L 585.546086 458.339725 
L 587.978385 460.879736 
L 596.164686 469.654017 
L 596.341191 480.968308 
L 598.910625 483.65105 
" clip-path="url(#p653cc62c9b)" style="fill: none; stroke: #23898e; stroke-width: 1.5"/>
   </g>
   <g id="PathCollection_18">
    <path d="M 411.314725 28.396875 
L 413.06246 30.210809 
L 422.03112 39.711155 
L 423.994705 41.74853 
L 432.709609 51.025436 
L 434.926945 53.32909 
L 443.359664 62.339738 
L 443.568936 73.654018 
L 443.773801 84.968299 
L 445.859195 87.146918 
L 454.42121 96.282601 
L 454.638041 107.596881 
L 454.86368 118.911162 
L 456.791445 120.930472 
L 465.510608 130.225442 
L 465.733295 141.539733 
L 465.959962 152.854025 
L 467.723685 154.695231 
L 476.690299 164.168305 
L 476.961187 175.482585 
L 478.655925 177.249781 
L 487.694931 186.796877 
L 487.957192 198.111168 
L 489.588175 199.811137 
L 498.584006 209.425448 
L 498.766549 220.739734 
L 498.96221 232.05402 
L 499.154489 243.368306 
L 499.337342 254.682592 
L 500.520425 255.92367 
L 509.903816 265.996877 
L 510.123464 277.311163 
L 511.452665 278.698178 
L 520.738509 288.625449 
L 520.984582 299.939735 
L 522.384905 301.397181 
L 531.609298 311.254015 
L 531.850267 322.568301 
L 533.317144 324.101983 
L 542.447851 333.882587 
L 542.665821 345.196873 
L 542.868738 356.511158 
L 544.249405 357.95295 
L 553.440604 367.825444 
L 553.624966 379.13973 
L 555.181645 380.767596 
L 564.212137 390.454016 
L 564.413711 401.768302 
L 564.62761 413.082582 
L 566.113885 414.635698 
L 575.236753 424.396873 
L 575.458506 435.711165 
L 577.046146 437.369939 
L 586.055116 447.025445 
L 586.243967 458.339725 
L 587.978385 460.150949 
L 596.844635 469.654017 
L 597.02905 480.968308 
L 598.910625 482.932857 
" clip-path="url(#p653cc62c9b)" style="fill: none; stroke: #21918c; stroke-width: 1.5"/>
   </g>
   <g id="PathCollection_19">
    <path d="M 412.012807 28.396875 
L 413.06246 29.486286 
L 422.715096 39.711155 
L 423.994705 41.038851 
L 433.376295 51.025436 
L 434.926945 52.63645 
L 444.007879 62.339738 
L 444.227322 73.654018 
L 444.44251 84.968299 
L 445.859195 86.448315 
L 455.075945 96.282601 
L 455.305206 107.596881 
L 455.54404 118.911162 
L 456.791445 120.217803 
L 466.179128 130.225442 
L 466.416101 141.539733 
L 466.656672 152.854025 
L 467.723685 153.967914 
L 477.378732 164.168305 
L 477.663419 175.482585 
L 478.655925 176.517525 
L 488.388217 186.796877 
L 488.664057 198.111168 
L 489.588175 199.074374 
L 499.273375 209.425448 
L 499.466505 220.739734 
L 499.674029 232.05402 
L 499.877899 243.368306 
L 500.07289 254.682592 
L 500.520425 255.152065 
L 510.622582 265.996877 
L 510.854306 277.311163 
L 511.452665 277.935548 
L 521.451864 288.625449 
L 521.708564 299.939735 
L 522.384905 300.643665 
L 532.314466 311.254015 
L 532.568558 322.568301 
L 533.317144 323.35098 
L 543.148952 333.882587 
L 543.379359 345.196873 
L 543.592881 356.511158 
L 544.249405 357.196748 
L 554.14462 367.825444 
L 554.337093 379.13973 
L 555.181645 380.022903 
L 564.906402 390.454016 
L 565.11728 401.768302 
L 565.341044 413.082582 
L 566.113885 413.890179 
L 575.933521 424.396873 
L 576.166164 435.711165 
L 577.046146 436.630574 
L 586.744972 447.025445 
L 586.941849 458.339725 
L 587.978385 459.422163 
L 597.524584 469.654017 
L 597.71691 480.968308 
L 598.910625 482.214664 
" clip-path="url(#p653cc62c9b)" style="fill: none; stroke: #1f978b; stroke-width: 1.5"/>
   </g>
   <g id="PathCollection_20">
    <path d="M 412.710889 28.396875 
L 413.06246 28.761762 
L 423.399072 39.711155 
L 423.994705 40.329172 
L 434.042981 51.025436 
L 434.926945 51.943811 
L 444.656093 62.339738 
L 444.885707 73.654018 
L 445.111219 84.968299 
L 445.859195 85.749712 
L 455.73068 96.282601 
L 455.97237 107.596881 
L 456.224399 118.911162 
L 456.791445 119.505135 
L 466.847648 130.225442 
L 467.098906 141.539733 
L 467.353381 152.854025 
L 467.723685 153.240596 
L 478.067164 164.168305 
L 478.365652 175.482585 
L 478.655925 175.785268 
L 489.081504 186.796877 
L 489.370923 198.111168 
L 489.588175 198.33761 
L 499.962743 209.425448 
L 500.16646 220.739734 
L 500.385847 232.05402 
L 500.520425 239.163723 
L 501.913612 243.368306 
L 505.465727 254.682592 
L 511.341348 265.996877 
L 511.452665 271.2097 
L 513.767176 277.311163 
L 522.165218 288.625449 
L 522.384905 297.947746 
L 523.198162 299.939735 
L 533.019634 311.254015 
L 533.286849 322.568301 
L 533.317144 322.599976 
L 543.850053 333.882587 
L 544.092897 345.196873 
L 544.249405 353.132759 
L 545.415124 356.511158 
L 554.848636 367.825444 
L 555.04922 379.13973 
L 555.181645 379.278211 
L 565.600666 390.454016 
L 565.820849 401.768302 
L 566.054478 413.082582 
L 566.113885 413.144661 
L 576.630288 424.396873 
L 576.873822 435.711165 
L 577.046146 435.89121 
L 587.434828 447.025445 
L 587.639731 458.339725 
L 587.978385 458.693376 
L 598.204533 469.654017 
L 598.40477 480.968308 
L 598.910625 481.496471 
" clip-path="url(#p653cc62c9b)" style="fill: none; stroke: #1f9f88; stroke-width: 1.5"/>
   </g>
   <g id="PathCollection_21">
    <path d="M 419.956529 28.396875 
L 423.994705 36.231005 
L 425.649029 39.711155 
L 434.709667 51.025436 
L 434.926945 51.251171 
L 445.304308 62.339738 
L 445.544093 73.654018 
L 445.779929 84.968299 
L 445.859195 85.051108 
L 456.385415 96.282601 
L 456.639535 107.596881 
L 456.791445 114.13142 
L 458.873136 118.911162 
L 467.516167 130.225442 
L 467.723685 139.107964 
L 468.823088 141.539733 
L 474.205686 152.854025 
L 478.655925 160.656313 
L 480.705617 164.168305 
L 486.868416 175.482585 
L 489.588175 180.225541 
L 493.209702 186.796877 
L 498.612157 198.111168 
L 500.520425 203.02153 
L 502.84734 209.425448 
L 506.64476 220.739734 
L 510.487735 232.05402 
L 511.452665 234.892228 
L 514.417204 243.368306 
L 518.265596 254.682592 
L 522.262652 265.996877 
L 522.384905 266.320056 
L 526.598614 277.311163 
L 531.181411 288.625449 
L 533.317144 294.068912 
L 535.560396 299.939735 
L 540.383513 311.254015 
L 544.249405 320.799553 
L 544.961399 322.568301 
L 549.514387 333.882587 
L 553.895936 345.196873 
L 555.181645 348.855905 
L 557.888844 356.511158 
L 561.833662 367.825444 
L 565.505521 379.13973 
L 566.113885 380.897638 
L 569.38714 390.454016 
L 573.444255 401.768302 
L 577.046146 411.746434 
L 577.527923 413.082582 
L 581.996075 424.396873 
L 586.420239 435.711165 
L 587.978385 439.92259 
L 590.631612 447.025445 
L 594.531547 458.339725 
L 598.884482 469.654017 
L 598.910625 471.089506 
" clip-path="url(#p653cc62c9b)" style="fill: none; stroke: #21a585; stroke-width: 1.5"/>
   </g>
   <g id="PathCollection_22">
    <path d="M 433.340082 28.396875 
L 434.926945 31.837206 
L 438.281771 39.711155 
L 443.023901 51.025436 
L 445.859195 58.05317 
L 447.565618 62.339738 
L 451.99987 73.654018 
L 456.543312 84.968299 
L 456.791445 85.546879 
L 461.498292 96.282601 
L 466.383361 107.596881 
L 467.723685 110.650842 
L 471.450872 118.911162 
L 476.611178 130.225442 
L 478.655925 134.728917 
L 482.0118 141.539733 
L 488.560969 152.854025 
L 489.588175 154.651047 
L 494.763548 164.168305 
L 500.520425 174.72283 
L 500.923845 175.482585 
L 506.434429 186.796877 
L 511.17558 198.111168 
L 511.452665 198.906501 
L 515.06213 209.425448 
L 518.978562 220.739734 
L 522.384905 230.709729 
L 522.854749 232.05402 
L 527.07768 243.368306 
L 531.137972 254.682592 
L 533.317144 260.85817 
L 535.141503 265.996877 
L 539.53574 277.311163 
L 543.86714 288.625449 
L 544.249405 289.664576 
L 547.912093 299.939735 
L 552.600625 311.254015 
L 555.181645 317.714082 
L 557.123428 322.568301 
L 561.741045 333.882587 
L 566.113885 344.568029 
L 566.375167 345.196873 
L 570.367774 356.511158 
L 574.392779 367.825444 
L 577.046146 375.657082 
L 578.243774 379.13973 
L 581.985549 390.454016 
L 586.04653 401.768302 
L 587.978385 407.176456 
L 590.079882 413.082582 
L 594.303269 424.396873 
L 598.743915 435.711165 
L 598.910625 436.146577 
" clip-path="url(#p653cc62c9b)" style="fill: none; stroke: #26ad81; stroke-width: 1.5"/>
   </g>
   <g id="PathCollection_23">
    <path d="M 445.713494 28.396875 
L 445.859195 28.742158 
L 450.388251 39.711155 
L 454.962138 51.025436 
L 456.791445 55.656069 
L 459.468048 62.339738 
L 464.124637 73.654018 
L 467.723685 81.935097 
L 469.070282 84.968299 
L 473.996006 96.282601 
L 478.655925 106.835235 
L 479.009356 107.596881 
L 484.480959 118.911162 
L 489.588175 129.443431 
L 489.982531 130.225442 
L 496.278819 141.539733 
L 500.520425 148.833762 
L 502.74969 152.854025 
L 508.654829 164.168305 
L 511.452665 169.557963 
L 514.269527 175.482585 
L 519.089899 186.796877 
L 522.384905 195.680682 
L 523.265218 198.111168 
L 527.375913 209.425448 
L 531.246042 220.739734 
L 533.317144 226.406951 
L 535.43258 232.05402 
L 539.797479 243.368306 
L 543.976141 254.682592 
L 544.249405 255.444773 
L 548.04539 265.996877 
L 552.407598 277.311163 
L 555.181645 285.050105 
L 556.423865 288.625449 
L 560.229913 299.939735 
L 564.832479 311.254015 
L 566.113885 314.460181 
L 569.380538 322.568301 
L 573.978462 333.882587 
L 577.046146 341.140291 
L 578.782401 345.196873 
L 582.93965 356.511158 
L 587.03377 367.825444 
L 587.978385 370.555759 
L 590.962506 379.13973 
L 594.708664 390.454016 
L 598.621453 401.768302 
L 598.910625 402.580804 
" clip-path="url(#p653cc62c9b)" style="fill: none; stroke: #2eb37c; stroke-width: 1.5"/>
   </g>
   <g id="PathCollection_24">
    <path d="M 457.744346 28.396875 
L 462.408089 39.711155 
L 467.001114 51.025436 
L 467.723685 52.825995 
L 471.700504 62.339738 
L 476.714252 73.654018 
L 478.655925 78.049626 
L 481.729374 84.968299 
L 486.833726 96.282601 
L 489.588175 102.089359 
L 492.350953 107.596881 
L 498.026985 118.911162 
L 500.520425 123.77665 
L 504.042747 130.225442 
L 510.688599 141.539733 
L 511.452665 142.948595 
L 516.495032 152.854025 
L 522.008134 164.168305 
L 522.384905 164.993864 
L 526.833847 175.482585 
L 531.250917 186.796877 
L 533.317144 192.405699 
L 535.45544 198.111168 
L 539.592005 209.425448 
L 543.535595 220.739734 
L 544.249405 222.583506 
L 547.990403 232.05402 
L 552.51967 243.368306 
L 555.181645 250.477576 
L 556.758999 254.682592 
L 560.8626 265.996877 
L 565.114266 277.311163 
L 566.113885 280.277949 
L 568.878344 288.625449 
L 572.584555 299.939735 
L 577.046146 310.873711 
L 577.201785 311.254015 
L 581.751652 322.568301 
L 586.323242 333.882587 
L 587.978385 337.740576 
L 591.168261 345.196873 
L 595.514213 356.511158 
L 598.910625 365.877256 
" clip-path="url(#p653cc62c9b)" style="fill: none; stroke: #3aba76; stroke-width: 1.5"/>
   </g>
   <g id="PathCollection_25">
    <path d="M 469.882647 28.396875 
L 474.618945 39.711155 
L 478.655925 49.369296 
L 479.379653 51.025436 
L 484.400943 62.339738 
L 489.443018 73.654018 
L 489.588175 73.980268 
L 494.753559 84.968299 
L 500.293426 96.282601 
L 500.520425 96.731191 
L 506.121332 107.596881 
L 511.452665 118.037642 
L 511.922479 118.911162 
L 518.528788 130.225442 
L 522.384905 137.415021 
L 524.431438 141.539733 
L 529.8248 152.854025 
L 533.317144 160.826573 
L 534.682059 164.168305 
L 539.084331 175.482585 
L 543.389977 186.796877 
L 544.249405 189.060187 
L 547.670137 198.111168 
L 551.696462 209.425448 
L 555.181645 218.825784 
L 555.913836 220.739734 
L 560.521802 232.05402 
L 565.165406 243.368306 
L 566.113885 245.865846 
L 569.44446 254.682592 
L 573.578852 265.996877 
L 577.046146 275.523085 
L 577.688462 277.311163 
L 581.332851 288.625449 
L 585.030329 299.939735 
L 587.978385 307.237079 
L 589.599322 311.254015 
L 594.185653 322.568301 
L 598.62328 333.882587 
L 598.910625 334.550524 
" clip-path="url(#p653cc62c9b)" style="fill: none; stroke: #46c06f; stroke-width: 1.5"/>
   </g>
   <g id="PathCollection_26">
    <path d="M 482.225005 28.396875 
L 487.179891 39.711155 
L 489.588175 45.101617 
L 492.294831 51.025436 
L 497.418753 62.339738 
L 500.520425 69.006481 
L 502.778264 73.654018 
L 508.38242 84.968299 
L 511.452665 90.986744 
L 514.203304 96.282601 
L 520.156888 107.596881 
L 522.384905 111.645103 
L 526.389804 118.911162 
L 532.374517 130.225442 
L 533.317144 132.167049 
L 537.737908 141.539733 
L 542.706565 152.854025 
L 544.249405 156.813667 
L 547.023026 164.168305 
L 551.301425 175.482585 
L 555.181645 185.543487 
L 555.66615 186.796877 
L 559.769883 198.111168 
L 563.905357 209.425448 
L 566.113885 215.032613 
L 568.398819 220.739734 
L 573.046726 232.05402 
L 577.046146 241.690884 
L 577.744259 243.368306 
L 581.989563 254.682592 
L 586.244962 265.996877 
L 587.978385 270.899348 
L 590.212268 277.311163 
L 593.763497 288.625449 
L 597.575 299.939735 
L 598.910625 303.2762 
" clip-path="url(#p653cc62c9b)" style="fill: none; stroke: #56c667; stroke-width: 1.5"/>
   </g>
   <g id="PathCollection_27">
    <path d="M 495.071511 28.396875 
L 500.205996 39.711155 
L 500.520425 40.408701 
L 505.427293 51.025436 
L 510.897983 62.339738 
L 511.452665 63.472829 
L 516.539198 73.654018 
L 522.361869 84.968299 
L 522.384905 85.012748 
L 528.319057 96.282601 
L 533.317144 105.392229 
L 534.506272 107.596881 
L 540.376689 118.911162 
L 544.249405 127.037373 
L 545.696706 130.225442 
L 550.765662 141.539733 
L 555.181645 152.697364 
L 555.241664 152.854025 
L 559.364694 164.168305 
L 563.635095 175.482585 
L 566.113885 182.005212 
L 567.89956 186.796877 
L 571.930612 198.111168 
L 576.267133 209.425448 
L 577.046146 211.35682 
L 580.83458 220.739734 
L 585.589704 232.05402 
L 587.978385 237.77849 
L 590.300545 243.368306 
L 594.507289 254.682592 
L 598.82785 265.996877 
L 598.910625 266.23805 
" clip-path="url(#p653cc62c9b)" style="fill: none; stroke: #65cb5e; stroke-width: 1.5"/>
   </g>
   <g id="PathCollection_28">
    <path d="M 508.213847 28.396875 
L 511.452665 35.398255 
L 513.523061 39.711155 
L 519.134466 51.025436 
L 522.384905 57.54702 
L 524.791513 62.339738 
L 530.579897 73.654018 
L 533.317144 78.903718 
L 536.528005 84.968299 
L 542.676981 96.282601 
L 544.249405 99.261602 
L 548.48309 107.596881 
L 553.815102 118.911162 
L 555.181645 121.958961 
L 558.783771 130.225442 
L 563.469761 141.539733 
L 566.113885 148.653682 
L 567.653125 152.854025 
L 571.756652 164.168305 
L 576.027302 175.482585 
L 577.046146 178.308224 
L 580.056608 186.796877 
L 584.184411 198.111168 
L 587.978385 207.791019 
L 588.623773 209.425448 
L 593.254029 220.739734 
L 598.145441 232.05402 
L 598.910625 233.909188 
" clip-path="url(#p653cc62c9b)" style="fill: none; stroke: #77d153; stroke-width: 1.5"/>
   </g>
   <g id="PathCollection_29">
    <path d="M 521.611343 28.396875 
L 522.384905 29.982449 
L 527.36731 39.711155 
L 533.042355 51.025436 
L 533.317144 51.568286 
L 538.893621 62.339738 
L 544.249405 72.469732 
L 544.87637 73.654018 
L 550.901531 84.968299 
L 555.181645 93.079588 
L 556.807405 96.282601 
L 562.155721 107.596881 
L 566.113885 116.791289 
L 566.988688 118.911162 
L 571.613275 130.225442 
L 575.962465 141.539733 
L 577.046146 144.490433 
L 580.110476 152.854025 
L 584.151134 164.168305 
L 587.978385 174.708437 
L 588.256686 175.482585 
L 592.25242 186.796877 
L 596.469743 198.111168 
L 598.910625 204.241149 
" clip-path="url(#p653cc62c9b)" style="fill: none; stroke: #89d548; stroke-width: 1.5"/>
   </g>
   <g id="PathCollection_30">
    <path d="M 535.658391 28.396875 
L 541.522272 39.711155 
L 544.249405 45.048154 
L 547.333635 51.025436 
L 553.244503 62.339738 
L 555.181645 66.039928 
L 559.159479 73.654018 
L 565.169563 84.968299 
L 566.113885 86.880279 
L 570.512101 96.282601 
L 575.38895 107.596881 
L 577.046146 111.692761 
L 579.865246 118.911162 
L 584.250377 130.225442 
L 587.978385 140.27446 
L 588.443485 141.539733 
L 592.469528 152.854025 
L 596.540136 164.168305 
L 598.910625 170.937866 
" clip-path="url(#p653cc62c9b)" style="fill: none; stroke: #9dd93b; stroke-width: 1.5"/>
   </g>
   <g id="PathCollection_31">
    <path d="M 549.948314 28.396875 
L 555.181645 38.440733 
L 555.844595 39.711155 
L 561.687811 51.025436 
L 566.113885 59.478395 
L 567.59677 62.339738 
L 573.426742 73.654018 
L 577.046146 81.066453 
L 578.866845 84.968299 
L 583.797351 96.282601 
L 587.978385 106.935371 
L 588.229188 107.596881 
L 592.523939 118.911162 
L 596.790628 130.225442 
L 598.910625 136.034051 
" clip-path="url(#p653cc62c9b)" style="fill: none; stroke: #b0dd2f; stroke-width: 1.5"/>
   </g>
   <g id="PathCollection_32">
    <path d="M 564.41433 28.396875 
L 566.113885 31.676616 
L 570.259848 39.711155 
L 576.093468 51.025436 
L 577.046146 52.879579 
L 581.760201 62.339738 
L 587.247338 73.654018 
L 587.978385 75.245108 
L 592.250244 84.968299 
L 596.722663 96.282601 
L 598.910625 102.183372 
" clip-path="url(#p653cc62c9b)" style="fill: none; stroke: #c5e021; stroke-width: 1.5"/>
   </g>
   <g id="PathCollection_33">
    <path d="M 578.837499 28.396875 
L 584.611742 39.711155 
L 587.978385 46.561263 
L 590.114224 51.025436 
L 595.590791 62.339738 
L 598.910625 69.691722 
" clip-path="url(#p653cc62c9b)" style="fill: none; stroke: #d8e219; stroke-width: 1.5"/>
   </g>
   <g id="PathCollection_34">
    <path d="M 593.145834 28.396875 
L 598.58674 39.711155 
L 598.910625 40.388367 
" clip-path="url(#p653cc62c9b)" style="fill: none; stroke: #ece51b; stroke-width: 1.5"/>
   </g>
   <g id="PathCollection_35"/>
   <g id="line2d_29">
    <defs>
     <path id="m45e533daea" d="M 0 2.5 
C 0.663008 2.5 1.29895 2.236584 1.767767 1.767767 
C 2.236584 1.29895 2.5 0.663008 2.5 0 
C 2.5 -0.663008 2.236584 -1.29895 1.767767 -1.767767 
C 1.29895 -2.236584 0.663008 -2.5 0 -2.5 
C -0.663008 -2.5 -1.29895 -2.236584 -1.767767 -1.767767 
C -2.236584 -1.29895 -2.5 -0.663008 -2.5 0 
C -2.5 0.663008 -2.236584 1.29895 -1.767767 1.767767 
C -1.29895 2.236584 -0.663008 2.5 0 2.5 
z
" style="stroke: #ff0000"/>
    </defs>
    <g clip-path="url(#p653cc62c9b)">
     <use xlink:href="#m45e533daea" x="331.070625" y="305.596875" style="fill: #ff0000; stroke: #ff0000"/>
    </g>
   </g>
   <g id="patch_3">
    <path d="M 63.230625 582.796875 
L 63.230625 28.396875 
" style="fill: none; stroke: #000000; stroke-width: 0.8; stroke-linejoin: miter; stroke-linecap: square"/>
   </g>
   <g id="patch_4">
    <path d="M 598.910625 582.796875 
L 598.910625 28.396875 
" style="fill: none; stroke: #000000; stroke-width: 0.8; stroke-linejoin: miter; stroke-linecap: square"/>
   </g>
   <g id="patch_5">
    <path d="M 63.230625 582.796875 
L 598.910625 582.796875 
" style="fill: none; stroke: #000000; stroke-width: 0.8; stroke-linejoin: miter; stroke-linecap: square"/>
   </g>
   <g id="patch_6">
    <path d="M 63.230625 28.396875 
L 598.910625 28.396875 
" style="fill: none; stroke: #000000; stroke-width: 0.8; stroke-linejoin: miter; stroke-linecap: square"/>
   </g>
   <g id="text_17">
    <!-- Loss Landscape Contour -->
    <g transform="translate(209.13 22.396875) scale(0.2 -0.2)">
     <defs>
      <path id="DejaVuSans-4c" d="M 628 4666 
L 1259 4666 
L 1259 531 
L 3531 531 
L 3531 0 
L 628 0 
L 628 4666 
z
" transform="scale(0.015625)"/>
      <path id="DejaVuSans-73" d="M 2834 3397 
L 2834 2853 
Q 2591 2978 2328 3040 
Q 2066 3103 1784 3103 
Q 1356 3103 1142 2972 
Q 928 2841 928 2578 
Q 928 2378 1081 2264 
Q 1234 2150 1697 2047 
L 1894 2003 
Q 2506 1872 2764 1633 
Q 3022 1394 3022 966 
Q 3022 478 2636 193 
Q 2250 -91 1575 -91 
Q 1294 -91 989 -36 
Q 684 19 347 128 
L 347 722 
Q 666 556 975 473 
Q 1284 391 1588 391 
Q 1994 391 2212 530 
Q 2431 669 2431 922 
Q 2431 1156 2273 1281 
Q 2116 1406 1581 1522 
L 1381 1569 
Q 847 1681 609 1914 
Q 372 2147 372 2553 
Q 372 3047 722 3315 
Q 1072 3584 1716 3584 
Q 2034 3584 2315 3537 
Q 2597 3491 2834 3397 
z
" transform="scale(0.015625)"/>
      <path id="DejaVuSans-61" d="M 2194 1759 
Q 1497 1759 1228 1600 
Q 959 1441 959 1056 
Q 959 750 1161 570 
Q 1363 391 1709 391 
Q 2188 391 2477 730 
Q 2766 1069 2766 1631 
L 2766 1759 
L 2194 1759 
z
M 3341 1997 
L 3341 0 
L 2766 0 
L 2766 531 
Q 2569 213 2275 61 
Q 1981 -91 1556 -91 
Q 1019 -91 701 211 
Q 384 513 384 1019 
Q 384 1609 779 1909 
Q 1175 2209 1959 2209 
L 2766 2209 
L 2766 2266 
Q 2766 2663 2505 2880 
Q 2244 3097 1772 3097 
Q 1472 3097 1187 3025 
Q 903 2953 641 2809 
L 641 3341 
Q 956 3463 1253 3523 
Q 1550 3584 1831 3584 
Q 2591 3584 2966 3190 
Q 3341 2797 3341 1997 
z
" transform="scale(0.015625)"/>
      <path id="DejaVuSans-64" d="M 2906 2969 
L 2906 4863 
L 3481 4863 
L 3481 0 
L 2906 0 
L 2906 525 
Q 2725 213 2448 61 
Q 2172 -91 1784 -91 
Q 1150 -91 751 415 
Q 353 922 353 1747 
Q 353 2572 751 3078 
Q 1150 3584 1784 3584 
Q 2172 3584 2448 3432 
Q 2725 3281 2906 2969 
z
M 947 1747 
Q 947 1113 1208 752 
Q 1469 391 1925 391 
Q 2381 391 2643 752 
Q 2906 1113 2906 1747 
Q 2906 2381 2643 2742 
Q 2381 3103 1925 3103 
Q 1469 3103 1208 2742 
Q 947 2381 947 1747 
z
" transform="scale(0.015625)"/>
      <path id="DejaVuSans-70" d="M 1159 525 
L 1159 -1331 
L 581 -1331 
L 581 3500 
L 1159 3500 
L 1159 2969 
Q 1341 3281 1617 3432 
Q 1894 3584 2278 3584 
Q 2916 3584 3314 3078 
Q 3713 2572 3713 1747 
Q 3713 922 3314 415 
Q 2916 -91 2278 -91 
Q 1894 -91 1617 61 
Q 1341 213 1159 525 
z
M 3116 1747 
Q 3116 2381 2855 2742 
Q 2594 3103 2138 3103 
Q 1681 3103 1420 2742 
Q 1159 2381 1159 1747 
Q 1159 1113 1420 752 
Q 1681 391 2138 391 
Q 2594 391 2855 752 
Q 3116 1113 3116 1747 
z
" transform="scale(0.015625)"/>
      <path id="DejaVuSans-43" d="M 4122 4306 
L 4122 3641 
Q 3803 3938 3442 4084 
Q 3081 4231 2675 4231 
Q 1875 4231 1450 3742 
Q 1025 3253 1025 2328 
Q 1025 1406 1450 917 
Q 1875 428 2675 428 
Q 3081 428 3442 575 
Q 3803 722 4122 1019 
L 4122 359 
Q 3791 134 3420 21 
Q 3050 -91 2638 -91 
Q 1578 -91 968 557 
Q 359 1206 359 2328 
Q 359 3453 968 4101 
Q 1578 4750 2638 4750 
Q 3056 4750 3426 4639 
Q 3797 4528 4122 4306 
z
" transform="scale(0.015625)"/>
      <path id="DejaVuSans-75" d="M 544 1381 
L 544 3500 
L 1119 3500 
L 1119 1403 
Q 1119 906 1312 657 
Q 1506 409 1894 409 
Q 2359 409 2629 706 
Q 2900 1003 2900 1516 
L 2900 3500 
L 3475 3500 
L 3475 0 
L 2900 0 
L 2900 538 
Q 2691 219 2414 64 
Q 2138 -91 1772 -91 
Q 1169 -91 856 284 
Q 544 659 544 1381 
z
M 1991 3584 
L 1991 3584 
z
" transform="scale(0.015625)"/>
     </defs>
     <use xlink:href="#DejaVuSans-4c"/>
     <use xlink:href="#DejaVuSans-6f" x="53.962891"/>
     <use xlink:href="#DejaVuSans-73" x="115.144531"/>
     <use xlink:href="#DejaVuSans-73" x="167.244141"/>
     <use xlink:href="#DejaVuSans-20" x="219.34375"/>
     <use xlink:href="#DejaVuSans-4c" x="251.130859"/>
     <use xlink:href="#DejaVuSans-61" x="306.84375"/>
     <use xlink:href="#DejaVuSans-6e" x="368.123047"/>
     <use xlink:href="#DejaVuSans-64" x="431.501953"/>
     <use xlink:href="#DejaVuSans-73" x="494.978516"/>
     <use xlink:href="#DejaVuSans-63" x="547.078125"/>
     <use xlink:href="#DejaVuSans-61" x="602.058594"/>
     <use xlink:href="#DejaVuSans-70" x="663.337891"/>
     <use xlink:href="#DejaVuSans-65" x="726.814453"/>
     <use xlink:href="#DejaVuSans-20" x="788.337891"/>
     <use xlink:href="#DejaVuSans-43" x="820.125"/>
     <use xlink:href="#DejaVuSans-6f" x="889.949219"/>
     <use xlink:href="#DejaVuSans-6e" x="951.130859"/>
     <use xlink:href="#DejaVuSans-74" x="1014.509766"/>
     <use xlink:href="#DejaVuSans-6f" x="1053.71875"/>
     <use xlink:href="#DejaVuSans-75" x="1114.900391"/>
     <use xlink:href="#DejaVuSans-72" x="1178.279297"/>
    </g>
   </g>
   <g id="legend_1">
    <g id="patch_7">
     <path d="M 487.777813 51.075 
L 591.910625 51.075 
Q 593.910625 51.075 593.910625 49.075 
L 593.910625 35.396875 
Q 593.910625 33.396875 591.910625 33.396875 
L 487.777813 33.396875 
Q 485.777813 33.396875 485.777813 35.396875 
L 485.777813 49.075 
Q 485.777813 51.075 487.777813 51.075 
z
" style="fill: #ffffff; opacity: 0.8; stroke: #cccccc; stroke-linejoin: miter"/>
    </g>
    <g id="line2d_30">
     <g>
      <use xlink:href="#m45e533daea" x="499.777813" y="41.495313" style="fill: #ff0000; stroke: #ff0000"/>
     </g>
    </g>
    <g id="text_18">
     <!-- Model Position -->
     <g transform="translate(517.777813 44.995313) scale(0.1 -0.1)">
      <defs>
       <path id="DejaVuSans-4d" d="M 628 4666 
L 1569 4666 
L 2759 1491 
L 3956 4666 
L 4897 4666 
L 4897 0 
L 4281 0 
L 4281 4097 
L 3078 897 
L 2444 897 
L 1241 4097 
L 1241 0 
L 628 0 
L 628 4666 
z
" transform="scale(0.015625)"/>
       <path id="DejaVuSans-6c" d="M 603 4863 
L 1178 4863 
L 1178 0 
L 603 0 
L 603 4863 
z
" transform="scale(0.015625)"/>
       <path id="DejaVuSans-50" d="M 1259 4147 
L 1259 2394 
L 2053 2394 
Q 2494 2394 2734 2622 
Q 2975 2850 2975 3272 
Q 2975 3691 2734 3919 
Q 2494 4147 2053 4147 
L 1259 4147 
z
M 628 4666 
L 2053 4666 
Q 2838 4666 3239 4311 
Q 3641 3956 3641 3272 
Q 3641 2581 3239 2228 
Q 2838 1875 2053 1875 
L 1259 1875 
L 1259 0 
L 628 0 
L 628 4666 
z
" transform="scale(0.015625)"/>
      </defs>
      <use xlink:href="#DejaVuSans-4d"/>
      <use xlink:href="#DejaVuSans-6f" x="86.279297"/>
      <use xlink:href="#DejaVuSans-64" x="147.460938"/>
      <use xlink:href="#DejaVuSans-65" x="210.9375"/>
      <use xlink:href="#DejaVuSans-6c" x="272.460938"/>
      <use xlink:href="#DejaVuSans-20" x="300.244141"/>
      <use xlink:href="#DejaVuSans-50" x="332.03125"/>
      <use xlink:href="#DejaVuSans-6f" x="388.708984"/>
      <use xlink:href="#DejaVuSans-73" x="449.890625"/>
      <use xlink:href="#DejaVuSans-69" x="501.990234"/>
      <use xlink:href="#DejaVuSans-74" x="529.773438"/>
      <use xlink:href="#DejaVuSans-69" x="568.982422"/>
      <use xlink:href="#DejaVuSans-6f" x="596.765625"/>
      <use xlink:href="#DejaVuSans-6e" x="657.947266"/>
     </g>
    </g>
   </g>
  </g>
  <g id="axes_2">
   <g id="patch_8">
    <path d="M 632.390625 582.796875 
L 660.110625 582.796875 
L 660.110625 28.396875 
L 632.390625 28.396875 
z
" style="fill: #ffffff"/>
   </g>
   <g id="patch_9">
    <path clip-path="url(#pc48e814d01)" style="fill: #ffffff; stroke: #ffffff; stroke-width: 0.01; stroke-linejoin: miter"/>
   </g>
   <g id="matplotlib.axis_3"/>
   <g id="matplotlib.axis_4">
    <g id="ytick_8">
     <g id="line2d_31">
      <g>
       <use xlink:href="#mab60c08ac1" x="660.110625" y="566.490993" style="stroke: #000000; stroke-width: 0.8"/>
      </g>
     </g>
     <g id="text_19">
      <!-- 0 -->
      <g transform="translate(663.610625 572.569743) scale(0.16 -0.16)">
       <use xlink:href="#DejaVuSans-30"/>
      </g>
     </g>
    </g>
    <g id="ytick_9">
     <g id="line2d_32">
      <g>
       <use xlink:href="#mab60c08ac1" x="660.110625" y="501.267463" style="stroke: #000000; stroke-width: 0.8"/>
      </g>
     </g>
     <g id="text_20">
      <!-- 4 -->
      <g transform="translate(663.610625 507.346213) scale(0.16 -0.16)">
       <defs>
        <path id="DejaVuSans-34" d="M 2419 4116 
L 825 1625 
L 2419 1625 
L 2419 4116 
z
M 2253 4666 
L 3047 4666 
L 3047 1625 
L 3713 1625 
L 3713 1100 
L 3047 1100 
L 3047 0 
L 2419 0 
L 2419 1100 
L 313 1100 
L 313 1709 
L 2253 4666 
z
" transform="scale(0.015625)"/>
       </defs>
       <use xlink:href="#DejaVuSans-34"/>
      </g>
     </g>
    </g>
    <g id="ytick_10">
     <g id="line2d_33">
      <g>
       <use xlink:href="#mab60c08ac1" x="660.110625" y="436.043934" style="stroke: #000000; stroke-width: 0.8"/>
      </g>
     </g>
     <g id="text_21">
      <!-- 8 -->
      <g transform="translate(663.610625 442.122684) scale(0.16 -0.16)">
       <defs>
        <path id="DejaVuSans-38" d="M 2034 2216 
Q 1584 2216 1326 1975 
Q 1069 1734 1069 1313 
Q 1069 891 1326 650 
Q 1584 409 2034 409 
Q 2484 409 2743 651 
Q 3003 894 3003 1313 
Q 3003 1734 2745 1975 
Q 2488 2216 2034 2216 
z
M 1403 2484 
Q 997 2584 770 2862 
Q 544 3141 544 3541 
Q 544 4100 942 4425 
Q 1341 4750 2034 4750 
Q 2731 4750 3128 4425 
Q 3525 4100 3525 3541 
Q 3525 3141 3298 2862 
Q 3072 2584 2669 2484 
Q 3125 2378 3379 2068 
Q 3634 1759 3634 1313 
Q 3634 634 3220 271 
Q 2806 -91 2034 -91 
Q 1263 -91 848 271 
Q 434 634 434 1313 
Q 434 1759 690 2068 
Q 947 2378 1403 2484 
z
M 1172 3481 
Q 1172 3119 1398 2916 
Q 1625 2713 2034 2713 
Q 2441 2713 2670 2916 
Q 2900 3119 2900 3481 
Q 2900 3844 2670 4047 
Q 2441 4250 2034 4250 
Q 1625 4250 1398 4047 
Q 1172 3844 1172 3481 
z
" transform="scale(0.015625)"/>
       </defs>
       <use xlink:href="#DejaVuSans-38"/>
      </g>
     </g>
    </g>
    <g id="ytick_11">
     <g id="line2d_34">
      <g>
       <use xlink:href="#mab60c08ac1" x="660.110625" y="370.820404" style="stroke: #000000; stroke-width: 0.8"/>
      </g>
     </g>
     <g id="text_22">
      <!-- 12 -->
      <g transform="translate(663.610625 376.899154) scale(0.16 -0.16)">
       <use xlink:href="#DejaVuSans-31"/>
       <use xlink:href="#DejaVuSans-32" x="63.623047"/>
      </g>
     </g>
    </g>
    <g id="ytick_12">
     <g id="line2d_35">
      <g>
       <use xlink:href="#mab60c08ac1" x="660.110625" y="305.596875" style="stroke: #000000; stroke-width: 0.8"/>
      </g>
     </g>
     <g id="text_23">
      <!-- 16 -->
      <g transform="translate(663.610625 311.675625) scale(0.16 -0.16)">
       <defs>
        <path id="DejaVuSans-36" d="M 2113 2584 
Q 1688 2584 1439 2293 
Q 1191 2003 1191 1497 
Q 1191 994 1439 701 
Q 1688 409 2113 409 
Q 2538 409 2786 701 
Q 3034 994 3034 1497 
Q 3034 2003 2786 2293 
Q 2538 2584 2113 2584 
z
M 3366 4563 
L 3366 3988 
Q 3128 4100 2886 4159 
Q 2644 4219 2406 4219 
Q 1781 4219 1451 3797 
Q 1122 3375 1075 2522 
Q 1259 2794 1537 2939 
Q 1816 3084 2150 3084 
Q 2853 3084 3261 2657 
Q 3669 2231 3669 1497 
Q 3669 778 3244 343 
Q 2819 -91 2113 -91 
Q 1303 -91 875 529 
Q 447 1150 447 2328 
Q 447 3434 972 4092 
Q 1497 4750 2381 4750 
Q 2619 4750 2861 4703 
Q 3103 4656 3366 4563 
z
" transform="scale(0.015625)"/>
       </defs>
       <use xlink:href="#DejaVuSans-31"/>
       <use xlink:href="#DejaVuSans-36" x="63.623047"/>
      </g>
     </g>
    </g>
    <g id="ytick_13">
     <g id="line2d_36">
      <g>
       <use xlink:href="#mab60c08ac1" x="660.110625" y="240.373346" style="stroke: #000000; stroke-width: 0.8"/>
      </g>
     </g>
     <g id="text_24">
      <!-- 20 -->
      <g transform="translate(663.610625 246.452096) scale(0.16 -0.16)">
       <use xlink:href="#DejaVuSans-32"/>
       <use xlink:href="#DejaVuSans-30" x="63.623047"/>
      </g>
     </g>
    </g>
    <g id="ytick_14">
     <g id="line2d_37">
      <g>
       <use xlink:href="#mab60c08ac1" x="660.110625" y="175.149816" style="stroke: #000000; stroke-width: 0.8"/>
      </g>
     </g>
     <g id="text_25">
      <!-- 24 -->
      <g transform="translate(663.610625 181.228566) scale(0.16 -0.16)">
       <use xlink:href="#DejaVuSans-32"/>
       <use xlink:href="#DejaVuSans-34" x="63.623047"/>
      </g>
     </g>
    </g>
    <g id="ytick_15">
     <g id="line2d_38">
      <g>
       <use xlink:href="#mab60c08ac1" x="660.110625" y="109.926287" style="stroke: #000000; stroke-width: 0.8"/>
      </g>
     </g>
     <g id="text_26">
      <!-- 28 -->
      <g transform="translate(663.610625 116.005037) scale(0.16 -0.16)">
       <use xlink:href="#DejaVuSans-32"/>
       <use xlink:href="#DejaVuSans-38" x="63.623047"/>
      </g>
     </g>
    </g>
    <g id="ytick_16">
     <g id="line2d_39">
      <g>
       <use xlink:href="#mab60c08ac1" x="660.110625" y="44.702757" style="stroke: #000000; stroke-width: 0.8"/>
      </g>
     </g>
     <g id="text_27">
      <!-- 32 -->
      <g transform="translate(663.610625 50.781507) scale(0.16 -0.16)">
       <defs>
        <path id="DejaVuSans-33" d="M 2597 2516 
Q 3050 2419 3304 2112 
Q 3559 1806 3559 1356 
Q 3559 666 3084 287 
Q 2609 -91 1734 -91 
Q 1441 -91 1130 -33 
Q 819 25 488 141 
L 488 750 
Q 750 597 1062 519 
Q 1375 441 1716 441 
Q 2309 441 2620 675 
Q 2931 909 2931 1356 
Q 2931 1769 2642 2001 
Q 2353 2234 1838 2234 
L 1294 2234 
L 1294 2753 
L 1863 2753 
Q 2328 2753 2575 2939 
Q 2822 3125 2822 3475 
Q 2822 3834 2567 4026 
Q 2313 4219 1838 4219 
Q 1578 4219 1281 4162 
Q 984 4106 628 3988 
L 628 4550 
Q 988 4650 1302 4700 
Q 1616 4750 1894 4750 
Q 2613 4750 3031 4423 
Q 3450 4097 3450 3541 
Q 3450 3153 3228 2886 
Q 3006 2619 2597 2516 
z
" transform="scale(0.015625)"/>
       </defs>
       <use xlink:href="#DejaVuSans-33"/>
       <use xlink:href="#DejaVuSans-32" x="63.623047"/>
      </g>
     </g>
    </g>
    <g id="text_28">
     <!-- Loss -->
     <g transform="translate(695.569063 316.564063) rotate(-90) scale(0.1 -0.1)">
      <use xlink:href="#DejaVuSans-4c"/>
      <use xlink:href="#DejaVuSans-6f" x="53.962891"/>
      <use xlink:href="#DejaVuSans-73" x="115.144531"/>
      <use xlink:href="#DejaVuSans-73" x="167.244141"/>
     </g>
    </g>
   </g>
   <g id="LineCollection_1"/>
   <g id="LineCollection_2">
    <path d="M 632.390625 582.796875 
L 660.110625 582.796875 
" clip-path="url(#p7e11177dfc)" style="fill: none; stroke: #440154; stroke-width: 1.5"/>
    <path d="M 632.390625 566.490993 
L 660.110625 566.490993 
" clip-path="url(#p7e11177dfc)" style="fill: none; stroke: #460b5e; stroke-width: 1.5"/>
    <path d="M 632.390625 550.18511 
L 660.110625 550.18511 
" clip-path="url(#p7e11177dfc)" style="fill: none; stroke: #481769; stroke-width: 1.5"/>
    <path d="M 632.390625 533.879228 
L 660.110625 533.879228 
" clip-path="url(#p7e11177dfc)" style="fill: none; stroke: #482071; stroke-width: 1.5"/>
    <path d="M 632.390625 517.573346 
L 660.110625 517.573346 
" clip-path="url(#p7e11177dfc)" style="fill: none; stroke: #472a7a; stroke-width: 1.5"/>
    <path d="M 632.390625 501.267463 
L 660.110625 501.267463 
" clip-path="url(#p7e11177dfc)" style="fill: none; stroke: #46337f; stroke-width: 1.5"/>
    <path d="M 632.390625 484.961581 
L 660.110625 484.961581 
" clip-path="url(#p7e11177dfc)" style="fill: none; stroke: #433d84; stroke-width: 1.5"/>
    <path d="M 632.390625 468.655699 
L 660.110625 468.655699 
" clip-path="url(#p7e11177dfc)" style="fill: none; stroke: #404588; stroke-width: 1.5"/>
    <path d="M 632.390625 452.349816 
L 660.110625 452.349816 
" clip-path="url(#p7e11177dfc)" style="fill: none; stroke: #3d4e8a; stroke-width: 1.5"/>
    <path d="M 632.390625 436.043934 
L 660.110625 436.043934 
" clip-path="url(#p7e11177dfc)" style="fill: none; stroke: #39558c; stroke-width: 1.5"/>
    <path d="M 632.390625 419.738051 
L 660.110625 419.738051 
" clip-path="url(#p7e11177dfc)" style="fill: none; stroke: #355e8d; stroke-width: 1.5"/>
    <path d="M 632.390625 403.432169 
L 660.110625 403.432169 
" clip-path="url(#p7e11177dfc)" style="fill: none; stroke: #32658e; stroke-width: 1.5"/>
    <path d="M 632.390625 387.126287 
L 660.110625 387.126287 
" clip-path="url(#p7e11177dfc)" style="fill: none; stroke: #2e6d8e; stroke-width: 1.5"/>
    <path d="M 632.390625 370.820404 
L 660.110625 370.820404 
" clip-path="url(#p7e11177dfc)" style="fill: none; stroke: #2c738e; stroke-width: 1.5"/>
    <path d="M 632.390625 354.514522 
L 660.110625 354.514522 
" clip-path="url(#p7e11177dfc)" style="fill: none; stroke: #297b8e; stroke-width: 1.5"/>
    <path d="M 632.390625 338.20864 
L 660.110625 338.20864 
" clip-path="url(#p7e11177dfc)" style="fill: none; stroke: #26828e; stroke-width: 1.5"/>
    <path d="M 632.390625 321.902757 
L 660.110625 321.902757 
" clip-path="url(#p7e11177dfc)" style="fill: none; stroke: #23898e; stroke-width: 1.5"/>
    <path d="M 632.390625 305.596875 
L 660.110625 305.596875 
" clip-path="url(#p7e11177dfc)" style="fill: none; stroke: #21918c; stroke-width: 1.5"/>
    <path d="M 632.390625 289.290993 
L 660.110625 289.290993 
" clip-path="url(#p7e11177dfc)" style="fill: none; stroke: #1f978b; stroke-width: 1.5"/>
    <path d="M 632.390625 272.98511 
L 660.110625 272.98511 
" clip-path="url(#p7e11177dfc)" style="fill: none; stroke: #1f9f88; stroke-width: 1.5"/>
    <path d="M 632.390625 256.679228 
L 660.110625 256.679228 
" clip-path="url(#p7e11177dfc)" style="fill: none; stroke: #21a585; stroke-width: 1.5"/>
    <path d="M 632.390625 240.373346 
L 660.110625 240.373346 
" clip-path="url(#p7e11177dfc)" style="fill: none; stroke: #26ad81; stroke-width: 1.5"/>
    <path d="M 632.390625 224.067463 
L 660.110625 224.067463 
" clip-path="url(#p7e11177dfc)" style="fill: none; stroke: #2eb37c; stroke-width: 1.5"/>
    <path d="M 632.390625 207.761581 
L 660.110625 207.761581 
" clip-path="url(#p7e11177dfc)" style="fill: none; stroke: #3aba76; stroke-width: 1.5"/>
    <path d="M 632.390625 191.455699 
L 660.110625 191.455699 
" clip-path="url(#p7e11177dfc)" style="fill: none; stroke: #46c06f; stroke-width: 1.5"/>
    <path d="M 632.390625 175.149816 
L 660.110625 175.149816 
" clip-path="url(#p7e11177dfc)" style="fill: none; stroke: #56c667; stroke-width: 1.5"/>
    <path d="M 632.390625 158.843934 
L 660.110625 158.843934 
" clip-path="url(#p7e11177dfc)" style="fill: none; stroke: #65cb5e; stroke-width: 1.5"/>
    <path d="M 632.390625 142.538051 
L 660.110625 142.538051 
" clip-path="url(#p7e11177dfc)" style="fill: none; stroke: #77d153; stroke-width: 1.5"/>
    <path d="M 632.390625 126.232169 
L 660.110625 126.232169 
" clip-path="url(#p7e11177dfc)" style="fill: none; stroke: #89d548; stroke-width: 1.5"/>
    <path d="M 632.390625 109.926287 
L 660.110625 109.926287 
" clip-path="url(#p7e11177dfc)" style="fill: none; stroke: #9dd93b; stroke-width: 1.5"/>
    <path d="M 632.390625 93.620404 
L 660.110625 93.620404 
" clip-path="url(#p7e11177dfc)" style="fill: none; stroke: #b0dd2f; stroke-width: 1.5"/>
    <path d="M 632.390625 77.314522 
L 660.110625 77.314522 
" clip-path="url(#p7e11177dfc)" style="fill: none; stroke: #c5e021; stroke-width: 1.5"/>
    <path d="M 632.390625 61.00864 
L 660.110625 61.00864 
" clip-path="url(#p7e11177dfc)" style="fill: none; stroke: #d8e219; stroke-width: 1.5"/>
    <path d="M 632.390625 44.702757 
L 660.110625 44.702757 
" clip-path="url(#p7e11177dfc)" style="fill: none; stroke: #ece51b; stroke-width: 1.5"/>
    <path d="M 632.390625 28.396875 
L 660.110625 28.396875 
" clip-path="url(#p7e11177dfc)" style="fill: none; stroke: #fde725; stroke-width: 1.5"/>
   </g>
   <g id="patch_10">
    <path d="M 632.390625 582.796875 
L 646.250625 582.796875 
L 660.110625 582.796875 
L 660.110625 28.396875 
L 646.250625 28.396875 
L 632.390625 28.396875 
L 632.390625 582.796875 
z
" style="fill: none; stroke: #000000; stroke-width: 0.8; stroke-linejoin: miter; stroke-linecap: square"/>
   </g>
  </g>
 </g>
 <defs>
  <clipPath id="p653cc62c9b">
   <rect x="63.230625" y="28.396875" width="535.68" height="554.4"/>
  </clipPath>
  <clipPath id="pc48e814d01">
   <rect x="632.390625" y="28.396875" width="27.72" height="554.4"/>
  </clipPath>
  <clipPath id="p7e11177dfc">
   <path d="M 632.390625 584.296875 
L 660.110625 584.296875 
L 660.110625 26.896875 
L 632.390625 26.896875 
z
"/>
  </clipPath>
 </defs>
</svg>
