<?xml version="1.0" encoding="utf-8" standalone="no"?>
<!DOCTYPE svg PUBLIC "-//W3C//DTD SVG 1.1//EN"
  "http://www.w3.org/Graphics/SVG/1.1/DTD/svg11.dtd">
<svg xmlns:xlink="http://www.w3.org/1999/xlink" width="720pt" height="576pt" viewBox="0 0 720 576" xmlns="http://www.w3.org/2000/svg" version="1.1">
 <metadata>
  <rdf:RDF xmlns:dc="http://purl.org/dc/elements/1.1/" xmlns:cc="http://creativecommons.org/ns#" xmlns:rdf="http://www.w3.org/1999/02/22-rdf-syntax-ns#">
   <cc:Work>
    <dc:type rdf:resource="http://purl.org/dc/dcmitype/StillImage"/>
    <dc:date>2025-02-11T17:34:15.426140</dc:date>
    <dc:format>image/svg+xml</dc:format>
    <dc:creator>
     <cc:Agent>
      <dc:title>Matplotlib v3.6.2, https://matplotlib.org/</dc:title>
     </cc:Agent>
    </dc:creator>
   </cc:Work>
  </rdf:RDF>
 </metadata>
 <defs>
  <style type="text/css">*{stroke-linejoin: round; stroke-linecap: butt}</style>
 </defs>
 <g id="figure_1">
  <g id="patch_1">
   <path d="M 0 576 
L 720 576 
L 720 0 
L 0 0 
z
" style="fill: #ffffff"/>
  </g>
  <g id="axes_1">
   <g id="patch_2">
    <path d="M 90 512.64 
L 536.4 512.64 
L 536.4 69.12 
L 90 69.12 
z
" style="fill: #ffffff"/>
   </g>
   <g id="matplotlib.axis_1">
    <g id="xtick_1">
     <g id="line2d_1">
      <defs>
       <path id="m50c7fcc833" d="M 0 0 
L 0 -3.5 
" style="stroke: #000000; stroke-width: 0.8"/>
      </defs>
      <g>
       <use xlink:href="#m50c7fcc833" x="90" y="512.64" style="stroke: #000000; stroke-width: 0.8"/>
      </g>
     </g>
     <g id="line2d_2">
      <defs>
       <path id="m06b0a57cae" d="M 0 0 
L 0 3.5 
" style="stroke: #000000; stroke-width: 0.8"/>
      </defs>
      <g>
       <use xlink:href="#m06b0a57cae" x="90" y="69.12" style="stroke: #000000; stroke-width: 0.8"/>
      </g>
     </g>
     <g id="text_1">
      <!-- −1.00 -->
      <g transform="translate(65.48375 528.2975) scale(0.16 -0.16)">
       <defs>
        <path id="DejaVuSans-2212" d="M 678 2272 
L 4684 2272 
L 4684 1741 
L 678 1741 
L 678 2272 
z
" transform="scale(0.015625)"/>
        <path id="DejaVuSans-31" d="M 794 531 
L 1825 531 
L 1825 4091 
L 703 3866 
L 703 4441 
L 1819 4666 
L 2450 4666 
L 2450 531 
L 3481 531 
L 3481 0 
L 794 0 
L 794 531 
z
" transform="scale(0.015625)"/>
        <path id="DejaVuSans-2e" d="M 684 794 
L 1344 794 
L 1344 0 
L 684 0 
L 684 794 
z
" transform="scale(0.015625)"/>
        <path id="DejaVuSans-30" d="M 2034 4250 
Q 1547 4250 1301 3770 
Q 1056 3291 1056 2328 
Q 1056 1369 1301 889 
Q 1547 409 2034 409 
Q 2525 409 2770 889 
Q 3016 1369 3016 2328 
Q 3016 3291 2770 3770 
Q 2525 4250 2034 4250 
z
M 2034 4750 
Q 2819 4750 3233 4129 
Q 3647 3509 3647 2328 
Q 3647 1150 3233 529 
Q 2819 -91 2034 -91 
Q 1250 -91 836 529 
Q 422 1150 422 2328 
Q 422 3509 836 4129 
Q 1250 4750 2034 4750 
z
" transform="scale(0.015625)"/>
       </defs>
       <use xlink:href="#DejaVuSans-2212"/>
       <use xlink:href="#DejaVuSans-31" x="83.789062"/>
       <use xlink:href="#DejaVuSans-2e" x="147.412109"/>
       <use xlink:href="#DejaVuSans-30" x="179.199219"/>
       <use xlink:href="#DejaVuSans-30" x="242.822266"/>
      </g>
     </g>
    </g>
    <g id="xtick_2">
     <g id="line2d_3">
      <g>
       <use xlink:href="#m50c7fcc833" x="145.8" y="512.64" style="stroke: #000000; stroke-width: 0.8"/>
      </g>
     </g>
     <g id="line2d_4">
      <g>
       <use xlink:href="#m06b0a57cae" x="145.8" y="69.12" style="stroke: #000000; stroke-width: 0.8"/>
      </g>
     </g>
     <g id="text_2">
      <!-- −0.75 -->
      <g transform="translate(121.28375 528.2975) scale(0.16 -0.16)">
       <defs>
        <path id="DejaVuSans-37" d="M 525 4666 
L 3525 4666 
L 3525 4397 
L 1831 0 
L 1172 0 
L 2766 4134 
L 525 4134 
L 525 4666 
z
" transform="scale(0.015625)"/>
        <path id="DejaVuSans-35" d="M 691 4666 
L 3169 4666 
L 3169 4134 
L 1269 4134 
L 1269 2991 
Q 1406 3038 1543 3061 
Q 1681 3084 1819 3084 
Q 2600 3084 3056 2656 
Q 3513 2228 3513 1497 
Q 3513 744 3044 326 
Q 2575 -91 1722 -91 
Q 1428 -91 1123 -41 
Q 819 9 494 109 
L 494 744 
Q 775 591 1075 516 
Q 1375 441 1709 441 
Q 2250 441 2565 725 
Q 2881 1009 2881 1497 
Q 2881 1984 2565 2268 
Q 2250 2553 1709 2553 
Q 1456 2553 1204 2497 
Q 953 2441 691 2322 
L 691 4666 
z
" transform="scale(0.015625)"/>
       </defs>
       <use xlink:href="#DejaVuSans-2212"/>
       <use xlink:href="#DejaVuSans-30" x="83.789062"/>
       <use xlink:href="#DejaVuSans-2e" x="147.412109"/>
       <use xlink:href="#DejaVuSans-37" x="179.199219"/>
       <use xlink:href="#DejaVuSans-35" x="242.822266"/>
      </g>
     </g>
    </g>
    <g id="xtick_3">
     <g id="line2d_5">
      <g>
       <use xlink:href="#m50c7fcc833" x="201.6" y="512.64" style="stroke: #000000; stroke-width: 0.8"/>
      </g>
     </g>
     <g id="line2d_6">
      <g>
       <use xlink:href="#m06b0a57cae" x="201.6" y="69.12" style="stroke: #000000; stroke-width: 0.8"/>
      </g>
     </g>
     <g id="text_3">
      <!-- −0.50 -->
      <g transform="translate(177.08375 528.2975) scale(0.16 -0.16)">
       <use xlink:href="#DejaVuSans-2212"/>
       <use xlink:href="#DejaVuSans-30" x="83.789062"/>
       <use xlink:href="#DejaVuSans-2e" x="147.412109"/>
       <use xlink:href="#DejaVuSans-35" x="179.199219"/>
       <use xlink:href="#DejaVuSans-30" x="242.822266"/>
      </g>
     </g>
    </g>
    <g id="xtick_4">
     <g id="line2d_7">
      <g>
       <use xlink:href="#m50c7fcc833" x="257.4" y="512.64" style="stroke: #000000; stroke-width: 0.8"/>
      </g>
     </g>
     <g id="line2d_8">
      <g>
       <use xlink:href="#m06b0a57cae" x="257.4" y="69.12" style="stroke: #000000; stroke-width: 0.8"/>
      </g>
     </g>
     <g id="text_4">
      <!-- −0.25 -->
      <g transform="translate(232.88375 528.2975) scale(0.16 -0.16)">
       <defs>
        <path id="DejaVuSans-32" d="M 1228 531 
L 3431 531 
L 3431 0 
L 469 0 
L 469 531 
Q 828 903 1448 1529 
Q 2069 2156 2228 2338 
Q 2531 2678 2651 2914 
Q 2772 3150 2772 3378 
Q 2772 3750 2511 3984 
Q 2250 4219 1831 4219 
Q 1534 4219 1204 4116 
Q 875 4013 500 3803 
L 500 4441 
Q 881 4594 1212 4672 
Q 1544 4750 1819 4750 
Q 2544 4750 2975 4387 
Q 3406 4025 3406 3419 
Q 3406 3131 3298 2873 
Q 3191 2616 2906 2266 
Q 2828 2175 2409 1742 
Q 1991 1309 1228 531 
z
" transform="scale(0.015625)"/>
       </defs>
       <use xlink:href="#DejaVuSans-2212"/>
       <use xlink:href="#DejaVuSans-30" x="83.789062"/>
       <use xlink:href="#DejaVuSans-2e" x="147.412109"/>
       <use xlink:href="#DejaVuSans-32" x="179.199219"/>
       <use xlink:href="#DejaVuSans-35" x="242.822266"/>
      </g>
     </g>
    </g>
    <g id="xtick_5">
     <g id="line2d_9">
      <g>
       <use xlink:href="#m50c7fcc833" x="313.2" y="512.64" style="stroke: #000000; stroke-width: 0.8"/>
      </g>
     </g>
     <g id="line2d_10">
      <g>
       <use xlink:href="#m06b0a57cae" x="313.2" y="69.12" style="stroke: #000000; stroke-width: 0.8"/>
      </g>
     </g>
     <g id="text_5">
      <!-- 0.00 -->
      <g transform="translate(295.3875 528.2975) scale(0.16 -0.16)">
       <use xlink:href="#DejaVuSans-30"/>
       <use xlink:href="#DejaVuSans-2e" x="63.623047"/>
       <use xlink:href="#DejaVuSans-30" x="95.410156"/>
       <use xlink:href="#DejaVuSans-30" x="159.033203"/>
      </g>
     </g>
    </g>
    <g id="xtick_6">
     <g id="line2d_11">
      <g>
       <use xlink:href="#m50c7fcc833" x="369" y="512.64" style="stroke: #000000; stroke-width: 0.8"/>
      </g>
     </g>
     <g id="line2d_12">
      <g>
       <use xlink:href="#m06b0a57cae" x="369" y="69.12" style="stroke: #000000; stroke-width: 0.8"/>
      </g>
     </g>
     <g id="text_6">
      <!-- 0.25 -->
      <g transform="translate(351.1875 528.2975) scale(0.16 -0.16)">
       <use xlink:href="#DejaVuSans-30"/>
       <use xlink:href="#DejaVuSans-2e" x="63.623047"/>
       <use xlink:href="#DejaVuSans-32" x="95.410156"/>
       <use xlink:href="#DejaVuSans-35" x="159.033203"/>
      </g>
     </g>
    </g>
    <g id="xtick_7">
     <g id="line2d_13">
      <g>
       <use xlink:href="#m50c7fcc833" x="424.8" y="512.64" style="stroke: #000000; stroke-width: 0.8"/>
      </g>
     </g>
     <g id="line2d_14">
      <g>
       <use xlink:href="#m06b0a57cae" x="424.8" y="69.12" style="stroke: #000000; stroke-width: 0.8"/>
      </g>
     </g>
     <g id="text_7">
      <!-- 0.50 -->
      <g transform="translate(406.9875 528.2975) scale(0.16 -0.16)">
       <use xlink:href="#DejaVuSans-30"/>
       <use xlink:href="#DejaVuSans-2e" x="63.623047"/>
       <use xlink:href="#DejaVuSans-35" x="95.410156"/>
       <use xlink:href="#DejaVuSans-30" x="159.033203"/>
      </g>
     </g>
    </g>
    <g id="xtick_8">
     <g id="line2d_15">
      <g>
       <use xlink:href="#m50c7fcc833" x="480.6" y="512.64" style="stroke: #000000; stroke-width: 0.8"/>
      </g>
     </g>
     <g id="line2d_16">
      <g>
       <use xlink:href="#m06b0a57cae" x="480.6" y="69.12" style="stroke: #000000; stroke-width: 0.8"/>
      </g>
     </g>
     <g id="text_8">
      <!-- 0.75 -->
      <g transform="translate(462.7875 528.2975) scale(0.16 -0.16)">
       <use xlink:href="#DejaVuSans-30"/>
       <use xlink:href="#DejaVuSans-2e" x="63.623047"/>
       <use xlink:href="#DejaVuSans-37" x="95.410156"/>
       <use xlink:href="#DejaVuSans-35" x="159.033203"/>
      </g>
     </g>
    </g>
    <g id="xtick_9">
     <g id="line2d_17">
      <g>
       <use xlink:href="#m50c7fcc833" x="536.4" y="512.64" style="stroke: #000000; stroke-width: 0.8"/>
      </g>
     </g>
     <g id="line2d_18">
      <g>
       <use xlink:href="#m06b0a57cae" x="536.4" y="69.12" style="stroke: #000000; stroke-width: 0.8"/>
      </g>
     </g>
     <g id="text_9">
      <!-- 1.00 -->
      <g transform="translate(518.5875 528.2975) scale(0.16 -0.16)">
       <use xlink:href="#DejaVuSans-31"/>
       <use xlink:href="#DejaVuSans-2e" x="63.623047"/>
       <use xlink:href="#DejaVuSans-30" x="95.410156"/>
       <use xlink:href="#DejaVuSans-30" x="159.033203"/>
      </g>
     </g>
    </g>
    <g id="text_10">
     <!-- α (Direction 1) -->
     <g transform="translate(277.057813 543.223438) scale(0.1 -0.1)">
      <defs>
       <path id="DejaVuSans-3b1" d="M 2644 1628 
L 2506 2350 
Q 2366 3091 1809 3091 
Q 1391 3091 1200 2747 
Q 959 2316 959 1747 
Q 959 1059 1194 731 
Q 1431 397 1809 397 
Q 2228 397 2453 1063 
L 2644 1628 
z
M 2966 2584 
L 3275 3500 
L 3788 3500 
L 3147 1603 
L 3272 919 
Q 3300 766 3409 638 
Q 3538 488 3638 488 
L 3913 488 
L 3913 0 
L 3569 0 
Q 3275 0 3013 263 
Q 2884 394 2831 669 
Q 2688 322 2394 50 
Q 2256 -78 1809 -78 
Q 1075 -78 719 397 
Q 353 888 353 1747 
Q 353 2666 750 3097 
Q 1191 3578 1809 3578 
Q 2781 3578 2966 2584 
z
" transform="scale(0.015625)"/>
       <path id="DejaVuSans-20" transform="scale(0.015625)"/>
       <path id="DejaVuSans-28" d="M 1984 4856 
Q 1566 4138 1362 3434 
Q 1159 2731 1159 2009 
Q 1159 1288 1364 580 
Q 1569 -128 1984 -844 
L 1484 -844 
Q 1016 -109 783 600 
Q 550 1309 550 2009 
Q 550 2706 781 3412 
Q 1013 4119 1484 4856 
L 1984 4856 
z
" transform="scale(0.015625)"/>
       <path id="DejaVuSans-44" d="M 1259 4147 
L 1259 519 
L 2022 519 
Q 2988 519 3436 956 
Q 3884 1394 3884 2338 
Q 3884 3275 3436 3711 
Q 2988 4147 2022 4147 
L 1259 4147 
z
M 628 4666 
L 1925 4666 
Q 3281 4666 3915 4102 
Q 4550 3538 4550 2338 
Q 4550 1131 3912 565 
Q 3275 0 1925 0 
L 628 0 
L 628 4666 
z
" transform="scale(0.015625)"/>
       <path id="DejaVuSans-69" d="M 603 3500 
L 1178 3500 
L 1178 0 
L 603 0 
L 603 3500 
z
M 603 4863 
L 1178 4863 
L 1178 4134 
L 603 4134 
L 603 4863 
z
" transform="scale(0.015625)"/>
       <path id="DejaVuSans-72" d="M 2631 2963 
Q 2534 3019 2420 3045 
Q 2306 3072 2169 3072 
Q 1681 3072 1420 2755 
Q 1159 2438 1159 1844 
L 1159 0 
L 581 0 
L 581 3500 
L 1159 3500 
L 1159 2956 
Q 1341 3275 1631 3429 
Q 1922 3584 2338 3584 
Q 2397 3584 2469 3576 
Q 2541 3569 2628 3553 
L 2631 2963 
z
" transform="scale(0.015625)"/>
       <path id="DejaVuSans-65" d="M 3597 1894 
L 3597 1613 
L 953 1613 
Q 991 1019 1311 708 
Q 1631 397 2203 397 
Q 2534 397 2845 478 
Q 3156 559 3463 722 
L 3463 178 
Q 3153 47 2828 -22 
Q 2503 -91 2169 -91 
Q 1331 -91 842 396 
Q 353 884 353 1716 
Q 353 2575 817 3079 
Q 1281 3584 2069 3584 
Q 2775 3584 3186 3129 
Q 3597 2675 3597 1894 
z
M 3022 2063 
Q 3016 2534 2758 2815 
Q 2500 3097 2075 3097 
Q 1594 3097 1305 2825 
Q 1016 2553 972 2059 
L 3022 2063 
z
" transform="scale(0.015625)"/>
       <path id="DejaVuSans-63" d="M 3122 3366 
L 3122 2828 
Q 2878 2963 2633 3030 
Q 2388 3097 2138 3097 
Q 1578 3097 1268 2742 
Q 959 2388 959 1747 
Q 959 1106 1268 751 
Q 1578 397 2138 397 
Q 2388 397 2633 464 
Q 2878 531 3122 666 
L 3122 134 
Q 2881 22 2623 -34 
Q 2366 -91 2075 -91 
Q 1284 -91 818 406 
Q 353 903 353 1747 
Q 353 2603 823 3093 
Q 1294 3584 2113 3584 
Q 2378 3584 2631 3529 
Q 2884 3475 3122 3366 
z
" transform="scale(0.015625)"/>
       <path id="DejaVuSans-74" d="M 1172 4494 
L 1172 3500 
L 2356 3500 
L 2356 3053 
L 1172 3053 
L 1172 1153 
Q 1172 725 1289 603 
Q 1406 481 1766 481 
L 2356 481 
L 2356 0 
L 1766 0 
Q 1100 0 847 248 
Q 594 497 594 1153 
L 594 3053 
L 172 3053 
L 172 3500 
L 594 3500 
L 594 4494 
L 1172 4494 
z
" transform="scale(0.015625)"/>
       <path id="DejaVuSans-6f" d="M 1959 3097 
Q 1497 3097 1228 2736 
Q 959 2375 959 1747 
Q 959 1119 1226 758 
Q 1494 397 1959 397 
Q 2419 397 2687 759 
Q 2956 1122 2956 1747 
Q 2956 2369 2687 2733 
Q 2419 3097 1959 3097 
z
M 1959 3584 
Q 2709 3584 3137 3096 
Q 3566 2609 3566 1747 
Q 3566 888 3137 398 
Q 2709 -91 1959 -91 
Q 1206 -91 779 398 
Q 353 888 353 1747 
Q 353 2609 779 3096 
Q 1206 3584 1959 3584 
z
" transform="scale(0.015625)"/>
       <path id="DejaVuSans-6e" d="M 3513 2113 
L 3513 0 
L 2938 0 
L 2938 2094 
Q 2938 2591 2744 2837 
Q 2550 3084 2163 3084 
Q 1697 3084 1428 2787 
Q 1159 2491 1159 1978 
L 1159 0 
L 581 0 
L 581 3500 
L 1159 3500 
L 1159 2956 
Q 1366 3272 1645 3428 
Q 1925 3584 2291 3584 
Q 2894 3584 3203 3211 
Q 3513 2838 3513 2113 
z
" transform="scale(0.015625)"/>
       <path id="DejaVuSans-29" d="M 513 4856 
L 1013 4856 
Q 1481 4119 1714 3412 
Q 1947 2706 1947 2009 
Q 1947 1309 1714 600 
Q 1481 -109 1013 -844 
L 513 -844 
Q 928 -128 1133 580 
Q 1338 1288 1338 2009 
Q 1338 2731 1133 3434 
Q 928 4138 513 4856 
z
" transform="scale(0.015625)"/>
      </defs>
      <use xlink:href="#DejaVuSans-3b1"/>
      <use xlink:href="#DejaVuSans-20" x="65.917969"/>
      <use xlink:href="#DejaVuSans-28" x="97.705078"/>
      <use xlink:href="#DejaVuSans-44" x="136.71875"/>
      <use xlink:href="#DejaVuSans-69" x="213.720703"/>
      <use xlink:href="#DejaVuSans-72" x="241.503906"/>
      <use xlink:href="#DejaVuSans-65" x="280.367188"/>
      <use xlink:href="#DejaVuSans-63" x="341.890625"/>
      <use xlink:href="#DejaVuSans-74" x="396.871094"/>
      <use xlink:href="#DejaVuSans-69" x="436.080078"/>
      <use xlink:href="#DejaVuSans-6f" x="463.863281"/>
      <use xlink:href="#DejaVuSans-6e" x="525.044922"/>
      <use xlink:href="#DejaVuSans-20" x="588.423828"/>
      <use xlink:href="#DejaVuSans-31" x="620.210938"/>
      <use xlink:href="#DejaVuSans-29" x="683.833984"/>
     </g>
    </g>
   </g>
   <g id="matplotlib.axis_2">
    <g id="ytick_1">
     <g id="line2d_19">
      <defs>
       <path id="m7784d0dc82" d="M 0 0 
L 3.5 0 
" style="stroke: #000000; stroke-width: 0.8"/>
      </defs>
      <g>
       <use xlink:href="#m7784d0dc82" x="90" y="512.64" style="stroke: #000000; stroke-width: 0.8"/>
      </g>
     </g>
     <g id="line2d_20">
      <defs>
       <path id="m535be87741" d="M 0 0 
L -3.5 0 
" style="stroke: #000000; stroke-width: 0.8"/>
      </defs>
      <g>
       <use xlink:href="#m535be87741" x="536.4" y="512.64" style="stroke: #000000; stroke-width: 0.8"/>
      </g>
     </g>
     <g id="text_11">
      <!-- −1.00 -->
      <g transform="translate(37.4675 518.71875) scale(0.16 -0.16)">
       <use xlink:href="#DejaVuSans-2212"/>
       <use xlink:href="#DejaVuSans-31" x="83.789062"/>
       <use xlink:href="#DejaVuSans-2e" x="147.412109"/>
       <use xlink:href="#DejaVuSans-30" x="179.199219"/>
       <use xlink:href="#DejaVuSans-30" x="242.822266"/>
      </g>
     </g>
    </g>
    <g id="ytick_2">
     <g id="line2d_21">
      <g>
       <use xlink:href="#m7784d0dc82" x="90" y="457.2" style="stroke: #000000; stroke-width: 0.8"/>
      </g>
     </g>
     <g id="line2d_22">
      <g>
       <use xlink:href="#m535be87741" x="536.4" y="457.2" style="stroke: #000000; stroke-width: 0.8"/>
      </g>
     </g>
     <g id="text_12">
      <!-- −0.75 -->
      <g transform="translate(37.4675 463.27875) scale(0.16 -0.16)">
       <use xlink:href="#DejaVuSans-2212"/>
       <use xlink:href="#DejaVuSans-30" x="83.789062"/>
       <use xlink:href="#DejaVuSans-2e" x="147.412109"/>
       <use xlink:href="#DejaVuSans-37" x="179.199219"/>
       <use xlink:href="#DejaVuSans-35" x="242.822266"/>
      </g>
     </g>
    </g>
    <g id="ytick_3">
     <g id="line2d_23">
      <g>
       <use xlink:href="#m7784d0dc82" x="90" y="401.76" style="stroke: #000000; stroke-width: 0.8"/>
      </g>
     </g>
     <g id="line2d_24">
      <g>
       <use xlink:href="#m535be87741" x="536.4" y="401.76" style="stroke: #000000; stroke-width: 0.8"/>
      </g>
     </g>
     <g id="text_13">
      <!-- −0.50 -->
      <g transform="translate(37.4675 407.83875) scale(0.16 -0.16)">
       <use xlink:href="#DejaVuSans-2212"/>
       <use xlink:href="#DejaVuSans-30" x="83.789062"/>
       <use xlink:href="#DejaVuSans-2e" x="147.412109"/>
       <use xlink:href="#DejaVuSans-35" x="179.199219"/>
       <use xlink:href="#DejaVuSans-30" x="242.822266"/>
      </g>
     </g>
    </g>
    <g id="ytick_4">
     <g id="line2d_25">
      <g>
       <use xlink:href="#m7784d0dc82" x="90" y="346.32" style="stroke: #000000; stroke-width: 0.8"/>
      </g>
     </g>
     <g id="line2d_26">
      <g>
       <use xlink:href="#m535be87741" x="536.4" y="346.32" style="stroke: #000000; stroke-width: 0.8"/>
      </g>
     </g>
     <g id="text_14">
      <!-- −0.25 -->
      <g transform="translate(37.4675 352.39875) scale(0.16 -0.16)">
       <use xlink:href="#DejaVuSans-2212"/>
       <use xlink:href="#DejaVuSans-30" x="83.789062"/>
       <use xlink:href="#DejaVuSans-2e" x="147.412109"/>
       <use xlink:href="#DejaVuSans-32" x="179.199219"/>
       <use xlink:href="#DejaVuSans-35" x="242.822266"/>
      </g>
     </g>
    </g>
    <g id="ytick_5">
     <g id="line2d_27">
      <g>
       <use xlink:href="#m7784d0dc82" x="90" y="290.88" style="stroke: #000000; stroke-width: 0.8"/>
      </g>
     </g>
     <g id="line2d_28">
      <g>
       <use xlink:href="#m535be87741" x="536.4" y="290.88" style="stroke: #000000; stroke-width: 0.8"/>
      </g>
     </g>
     <g id="text_15">
      <!-- 0.00 -->
      <g transform="translate(50.875 296.95875) scale(0.16 -0.16)">
       <use xlink:href="#DejaVuSans-30"/>
       <use xlink:href="#DejaVuSans-2e" x="63.623047"/>
       <use xlink:href="#DejaVuSans-30" x="95.410156"/>
       <use xlink:href="#DejaVuSans-30" x="159.033203"/>
      </g>
     </g>
    </g>
    <g id="ytick_6">
     <g id="line2d_29">
      <g>
       <use xlink:href="#m7784d0dc82" x="90" y="235.44" style="stroke: #000000; stroke-width: 0.8"/>
      </g>
     </g>
     <g id="line2d_30">
      <g>
       <use xlink:href="#m535be87741" x="536.4" y="235.44" style="stroke: #000000; stroke-width: 0.8"/>
      </g>
     </g>
     <g id="text_16">
      <!-- 0.25 -->
      <g transform="translate(50.875 241.51875) scale(0.16 -0.16)">
       <use xlink:href="#DejaVuSans-30"/>
       <use xlink:href="#DejaVuSans-2e" x="63.623047"/>
       <use xlink:href="#DejaVuSans-32" x="95.410156"/>
       <use xlink:href="#DejaVuSans-35" x="159.033203"/>
      </g>
     </g>
    </g>
    <g id="ytick_7">
     <g id="line2d_31">
      <g>
       <use xlink:href="#m7784d0dc82" x="90" y="180" style="stroke: #000000; stroke-width: 0.8"/>
      </g>
     </g>
     <g id="line2d_32">
      <g>
       <use xlink:href="#m535be87741" x="536.4" y="180" style="stroke: #000000; stroke-width: 0.8"/>
      </g>
     </g>
     <g id="text_17">
      <!-- 0.50 -->
      <g transform="translate(50.875 186.07875) scale(0.16 -0.16)">
       <use xlink:href="#DejaVuSans-30"/>
       <use xlink:href="#DejaVuSans-2e" x="63.623047"/>
       <use xlink:href="#DejaVuSans-35" x="95.410156"/>
       <use xlink:href="#DejaVuSans-30" x="159.033203"/>
      </g>
     </g>
    </g>
    <g id="ytick_8">
     <g id="line2d_33">
      <g>
       <use xlink:href="#m7784d0dc82" x="90" y="124.56" style="stroke: #000000; stroke-width: 0.8"/>
      </g>
     </g>
     <g id="line2d_34">
      <g>
       <use xlink:href="#m535be87741" x="536.4" y="124.56" style="stroke: #000000; stroke-width: 0.8"/>
      </g>
     </g>
     <g id="text_18">
      <!-- 0.75 -->
      <g transform="translate(50.875 130.63875) scale(0.16 -0.16)">
       <use xlink:href="#DejaVuSans-30"/>
       <use xlink:href="#DejaVuSans-2e" x="63.623047"/>
       <use xlink:href="#DejaVuSans-37" x="95.410156"/>
       <use xlink:href="#DejaVuSans-35" x="159.033203"/>
      </g>
     </g>
    </g>
    <g id="ytick_9">
     <g id="line2d_35">
      <g>
       <use xlink:href="#m7784d0dc82" x="90" y="69.12" style="stroke: #000000; stroke-width: 0.8"/>
      </g>
     </g>
     <g id="line2d_36">
      <g>
       <use xlink:href="#m535be87741" x="536.4" y="69.12" style="stroke: #000000; stroke-width: 0.8"/>
      </g>
     </g>
     <g id="text_19">
      <!-- 1.00 -->
      <g transform="translate(50.875 75.19875) scale(0.16 -0.16)">
       <use xlink:href="#DejaVuSans-31"/>
       <use xlink:href="#DejaVuSans-2e" x="63.623047"/>
       <use xlink:href="#DejaVuSans-30" x="95.410156"/>
       <use xlink:href="#DejaVuSans-30" x="159.033203"/>
      </g>
     </g>
    </g>
    <g id="text_20">
     <!-- β (Direction 2) -->
     <g transform="translate(31.387812 326.916719) rotate(-90) scale(0.1 -0.1)">
      <defs>
       <path id="DejaVuSans-3b2" d="M 1178 216 
L 1178 -1331 
L 600 -1331 
L 600 3478 
Q 600 4903 1931 4903 
Q 3288 4903 3288 3700 
Q 3288 2844 2750 2531 
Q 3625 2250 3625 1416 
Q 3625 -66 2119 -66 
Q 1456 -66 1178 216 
z
M 1178 966 
Q 1525 425 2141 425 
Q 3041 425 3041 1406 
Q 3041 2288 1591 2219 
L 1591 2750 
Q 2725 2750 2725 3750 
Q 2725 4434 1994 4434 
Q 1178 4434 1178 3459 
L 1178 966 
z
" transform="scale(0.015625)"/>
      </defs>
      <use xlink:href="#DejaVuSans-3b2"/>
      <use xlink:href="#DejaVuSans-20" x="63.818359"/>
      <use xlink:href="#DejaVuSans-28" x="95.605469"/>
      <use xlink:href="#DejaVuSans-44" x="134.619141"/>
      <use xlink:href="#DejaVuSans-69" x="211.621094"/>
      <use xlink:href="#DejaVuSans-72" x="239.404297"/>
      <use xlink:href="#DejaVuSans-65" x="278.267578"/>
      <use xlink:href="#DejaVuSans-63" x="339.791016"/>
      <use xlink:href="#DejaVuSans-74" x="394.771484"/>
      <use xlink:href="#DejaVuSans-69" x="433.980469"/>
      <use xlink:href="#DejaVuSans-6f" x="461.763672"/>
      <use xlink:href="#DejaVuSans-6e" x="522.945312"/>
      <use xlink:href="#DejaVuSans-20" x="586.324219"/>
      <use xlink:href="#DejaVuSans-32" x="618.111328"/>
      <use xlink:href="#DejaVuSans-29" x="681.734375"/>
     </g>
    </g>
   </g>
   <g id="PathCollection_1"/>
   <g id="PathCollection_2">
    <path d="M 536.4 104.614303 
L 527.053808 92.463161 
L 515.263929 69.12 
" clip-path="url(#p3770fcbe77)" style="fill: none; stroke: #471365; stroke-width: 1.5"/>
   </g>
   <g id="PathCollection_3">
    <path d="M 536.4 157.924704 
L 518.371661 139.149471 
L 512.90526 131.45585 
L 501.917982 115.806323 
L 489.410519 97.548041 
L 486.118615 92.463161 
L 468.598555 69.12 
" clip-path="url(#p3770fcbe77)" style="fill: none; stroke: #482475; stroke-width: 1.5"/>
   </g>
   <g id="PathCollection_4">
    <path d="M 536.4 214.535271 
L 529.882323 209.178948 
L 514.183827 185.835794 
L 512.90526 184.328822 
L 491.507744 162.492632 
L 489.410519 159.600081 
L 470.820213 139.149471 
L 465.915792 133.357763 
L 457.274887 115.806323 
L 445.555565 92.463161 
L 442.421052 88.607262 
L 428.011793 69.12 
" clip-path="url(#p3770fcbe77)" style="fill: none; stroke: #463480; stroke-width: 1.5"/>
   </g>
   <g id="PathCollection_5">
    <path d="M 536.4 266.123 
L 526.073567 255.865265 
L 512.90526 240.758401 
L 504.6396 232.522103 
L 489.410519 217.384231 
L 483.421284 209.178948 
L 466.976475 185.835794 
L 465.915792 184.792661 
L 449.120338 162.492632 
L 442.421052 154.167554 
L 431.286026 139.149471 
L 419.04094 115.806323 
L 418.926312 115.612762 
L 401.626203 92.463161 
L 395.431578 78.769921 
L 391.181672 69.12 
" clip-path="url(#p3770fcbe77)" style="fill: none; stroke: #414487; stroke-width: 1.5"/>
   </g>
   <g id="PathCollection_6">
    <path d="M 536.4 312.573008 
L 524.752258 302.551577 
L 512.90526 286.536657 
L 503.503663 279.208423 
L 489.410519 267.804783 
L 479.872275 255.865265 
L 465.915792 242.016193 
L 458.864303 232.522103 
L 442.421052 213.239189 
L 439.069383 209.178948 
L 424.590707 185.835794 
L 418.926312 177.836003 
L 406.949494 162.492632 
L 395.431578 140.952406 
L 394.517074 139.149471 
L 376.222665 115.806323 
L 371.936844 110.884772 
L 359.582144 92.463161 
L 352.646404 69.12 
" clip-path="url(#p3770fcbe77)" style="fill: none; stroke: #3b528b; stroke-width: 1.5"/>
   </g>
   <g id="PathCollection_7">
    <path d="M 536.4 348.319345 
L 512.90526 339.51781 
L 499.382256 325.894735 
L 489.410519 313.792355 
L 480.033808 302.551577 
L 465.915792 286.274167 
L 457.954689 279.208423 
L 442.421052 261.863164 
L 438.862701 255.865265 
L 418.926312 235.987842 
L 415.398836 232.522103 
L 398.496452 209.178948 
L 395.431578 205.211241 
L 384.695324 185.835794 
L 371.936844 164.601989 
L 370.359458 162.492632 
L 354.133399 139.149471 
L 348.442104 128.093848 
L 341.556318 115.806323 
L 325.581593 92.463161 
L 324.947367 91.114557 
L 312.925733 69.12 
" clip-path="url(#p3770fcbe77)" style="fill: none; stroke: #355f8d; stroke-width: 1.5"/>
   </g>
   <g id="PathCollection_8">
    <path d="M 536.4 404.824722 
L 526.891893 395.924206 
L 512.90526 382.94511 
L 501.708719 372.581052 
L 489.410519 359.598889 
L 480.766253 349.237897 
L 465.915792 331.325625 
L 459.259935 325.894735 
L 442.421052 307.7194 
L 438.340161 302.551577 
L 418.926312 281.493047 
L 417.125548 279.208423 
L 395.444243 255.865265 
L 395.431578 255.852928 
L 381.08335 232.522103 
L 371.936844 220.154531 
L 362.132893 209.178948 
L 348.442104 189.432493 
L 346.232856 185.835794 
L 332.164446 162.492632 
L 324.947367 151.83916 
L 315.735198 139.149471 
L 303.82662 115.806323 
L 301.452633 111.413754 
L 290.245388 92.463161 
L 278.718481 69.12 
" clip-path="url(#p3770fcbe77)" style="fill: none; stroke: #2f6c8e; stroke-width: 1.5"/>
   </g>
   <g id="PathCollection_9">
    <path d="M 536.4 441.492967 
L 512.90526 423.543887 
L 507.553232 419.267368 
L 489.410519 404.597911 
L 481.191265 395.924206 
L 465.915792 383.089275 
L 456.729848 372.581052 
L 442.421052 353.835117 
L 438.122917 349.237897 
L 418.926312 330.849357 
L 412.857434 325.894735 
L 395.431578 306.440715 
L 392.49598 302.551577 
L 371.936844 281.605073 
L 370.205565 279.208423 
L 357.672586 255.865265 
L 348.442104 239.639874 
L 343.734104 232.522103 
L 324.947367 209.210305 
L 324.921606 209.178948 
L 308.040182 185.835794 
L 301.452633 174.272325 
L 294.022345 162.492632 
L 280.616727 139.149471 
L 277.957896 133.981632 
L 264.066696 115.806323 
L 254.746509 92.463161 
L 254.463156 91.986065 
L 242.485373 69.12 
" clip-path="url(#p3770fcbe77)" style="fill: none; stroke: #2a788e; stroke-width: 1.5"/>
   </g>
   <g id="PathCollection_10">
    <path d="M 536.4 482.488728 
L 512.90526 468.56988 
L 510.151629 465.953677 
L 489.410519 450.160389 
L 481.780363 442.610529 
L 465.915792 421.043451 
L 464.045963 419.267368 
L 442.421052 401.052828 
L 436.952375 395.924206 
L 418.926312 378.410644 
L 413.883593 372.581052 
L 395.431578 349.997021 
L 394.667168 349.237897 
L 374.271602 325.894735 
L 371.936844 322.969462 
L 354.306162 302.551577 
L 348.442104 293.676315 
L 336.116935 279.208423 
L 324.947367 266.364361 
L 316.091347 255.865265 
L 301.452633 234.819783 
L 300.299873 232.522103 
L 286.34434 209.178948 
L 277.957896 195.829941 
L 271.387075 185.835794 
L 258.183828 162.492632 
L 254.463156 153.990699 
L 244.833788 139.149471 
L 232.212685 115.806323 
L 230.968422 112.875557 
L 220.294024 92.463161 
L 210.44097 69.12 
" clip-path="url(#p3770fcbe77)" style="fill: none; stroke: #25848e; stroke-width: 1.5"/>
   </g>
   <g id="PathCollection_11">
    <path d="M 514.476488 512.64 
L 512.90526 511.404471 
L 489.410519 491.778648 
L 486.619432 489.296839 
L 465.915792 469.371236 
L 462.066793 465.953677 
L 442.421052 443.951662 
L 441.268444 442.610529 
L 418.926312 422.298998 
L 415.371902 419.267368 
L 395.431578 399.7674 
L 391.695279 395.924206 
L 371.936844 375.641522 
L 368.866486 372.581052 
L 352.647227 349.237897 
L 348.442104 343.809918 
L 325.11907 325.894735 
L 324.947367 325.703492 
L 312.357838 302.551577 
L 301.452633 287.904824 
L 294.635208 279.208423 
L 277.957896 257.710386 
L 276.85041 255.865265 
L 266.7007 232.522103 
L 254.463156 216.468072 
L 248.743184 209.178948 
L 237.464921 185.835794 
L 230.968422 172.878449 
L 222.790374 162.492632 
L 207.697986 139.149471 
L 207.473688 138.632705 
L 196.815901 115.806323 
L 186.003264 92.463161 
L 183.978948 89.517721 
L 170.030594 69.12 
" clip-path="url(#p3770fcbe77)" style="fill: none; stroke: #21918c; stroke-width: 1.5"/>
   </g>
   <g id="PathCollection_12">
    <path d="M 464.892797 512.64 
L 442.421052 493.376046 
L 437.646241 489.296839 
L 418.926312 472.442888 
L 411.625964 465.953677 
L 395.431578 446.965632 
L 392.026938 442.610529 
L 371.936844 420.788302 
L 370.176589 419.267368 
L 348.442104 399.199012 
L 345.45215 395.924206 
L 328.281466 372.581052 
L 324.947367 368.553241 
L 306.538074 349.237897 
L 301.452633 343.76493 
L 287.405435 325.894735 
L 277.957896 309.929733 
L 273.796304 302.551577 
L 257.413432 279.208423 
L 254.463156 273.782286 
L 242.872421 255.865265 
L 230.968422 242.165067 
L 223.90472 232.522103 
L 207.473688 210.447359 
L 206.738855 209.178948 
L 199.43972 185.835794 
L 183.978948 164.586705 
L 182.73227 162.492632 
L 169.409729 139.149471 
L 163.071098 115.806323 
L 160.484208 111.395554 
L 150.035832 92.463161 
L 140.354727 69.12 
" clip-path="url(#p3770fcbe77)" style="fill: none; stroke: #1e9c89; stroke-width: 1.5"/>
   </g>
   <g id="PathCollection_13">
    <path d="M 417.043301 512.64 
L 395.431578 490.720317 
L 393.466898 489.296839 
L 371.936844 468.845092 
L 369.277916 465.953677 
L 348.442104 447.91483 
L 344.635221 442.610529 
L 324.947367 420.662197 
L 323.191084 419.267368 
L 307.325918 395.924206 
L 301.452633 387.665212 
L 287.262362 372.581052 
L 277.957896 361.73559 
L 267.912915 349.237897 
L 254.463156 330.065274 
L 251.718445 325.894735 
L 235.001426 302.551577 
L 230.968422 298.474945 
L 217.675591 279.208423 
L 207.473688 259.334499 
L 204.720046 255.865265 
L 187.460071 232.522103 
L 183.978948 224.349423 
L 177.925946 209.178948 
L 165.126543 185.835794 
L 160.484208 177.773578 
L 150.177749 162.492632 
L 139.925816 139.149471 
L 136.989481 125.562606 
L 132.867831 115.806323 
L 118.377067 92.463161 
L 113.49474 84.116403 
L 104.102279 69.12 
" clip-path="url(#p3770fcbe77)" style="fill: none; stroke: #22a884; stroke-width: 1.5"/>
   </g>
   <g id="PathCollection_14">
    <path d="M 366.786125 512.64 
L 348.442104 491.723164 
L 346.419012 489.296839 
L 327.950514 465.953677 
L 324.947367 461.392782 
L 303.574584 442.610529 
L 301.452633 441.074378 
L 284.251291 419.267368 
L 277.957896 409.809726 
L 262.984946 395.924206 
L 254.463156 387.457397 
L 242.813644 372.581052 
L 230.968422 357.105121 
L 225.10793 349.237897 
L 208.896845 325.894735 
L 207.473688 324.011888 
L 195.041494 302.551577 
L 183.978948 289.323225 
L 175.752533 279.208423 
L 166.145791 255.865265 
L 160.484208 245.4403 
L 152.793789 232.522103 
L 138.251043 209.178948 
L 136.989481 207.22195 
L 126.674003 185.835794 
L 115.968096 162.492632 
L 113.49474 156.993371 
L 104.22706 139.149471 
L 93.612841 115.806323 
L 90 108.310311 
" clip-path="url(#p3770fcbe77)" style="fill: none; stroke: #2fb47c; stroke-width: 1.5"/>
   </g>
   <g id="PathCollection_15">
    <path d="M 328.188186 512.64 
L 324.947367 508.903238 
L 301.452633 492.998545 
L 298.335142 489.296839 
L 280.072566 465.953677 
L 277.957896 463.848274 
L 260.48648 442.610529 
L 254.463156 434.873026 
L 235.769001 419.267368 
L 230.968422 413.088266 
L 221.987275 395.924206 
L 207.473688 378.907305 
L 202.593063 372.581052 
L 187.856261 349.237897 
L 183.978948 343.631647 
L 170.687591 325.894735 
L 160.484208 311.512994 
L 153.865189 302.551577 
L 142.702975 279.208423 
L 136.989481 266.175524 
L 131.752329 255.865265 
L 113.49474 232.839354 
L 113.278875 232.522103 
L 105.971111 209.178948 
L 91.535681 185.835794 
L 90 183.292838 
" clip-path="url(#p3770fcbe77)" style="fill: none; stroke: #44bf70; stroke-width: 1.5"/>
   </g>
   <g id="PathCollection_16">
    <path d="M 281.450194 512.64 
L 277.957896 508.42422 
L 256.821456 489.296839 
L 254.463156 487.115628 
L 235.843056 465.953677 
L 230.968422 459.496539 
L 212.024802 442.610529 
L 207.473688 434.652824 
L 199.450584 419.267368 
L 183.978948 406.198883 
L 176.919021 395.924206 
L 165.210512 372.581052 
L 160.484208 366.466603 
L 149.870174 349.237897 
L 136.989481 329.637346 
L 133.881152 325.894735 
L 120.621985 302.551577 
L 113.49474 290.823349 
L 104.589269 279.208423 
L 94.61747 255.865265 
L 90 248.636888 
" clip-path="url(#p3770fcbe77)" style="fill: none; stroke: #5ec962; stroke-width: 1.5"/>
   </g>
   <g id="PathCollection_17">
    <path d="M 238.703214 512.64 
L 230.968422 506.531066 
L 210.849417 489.296839 
L 207.473688 485.594281 
L 194.539362 465.953677 
L 183.978948 453.057038 
L 174.721049 442.610529 
L 160.484208 423.397459 
L 157.667261 419.267368 
L 140.842578 395.924206 
L 136.989481 391.290118 
L 122.372239 372.581052 
L 113.49474 356.760467 
L 108.700226 349.237897 
L 97.143001 325.894735 
L 90 313.462383 
" clip-path="url(#p3770fcbe77)" style="fill: none; stroke: #7ad151; stroke-width: 1.5"/>
   </g>
   <g id="PathCollection_18">
    <path d="M 193.908012 512.64 
L 183.978948 502.219059 
L 172.490177 489.296839 
L 160.484208 475.331368 
L 152.269166 465.953677 
L 138.724124 442.610529 
L 136.989481 440.075475 
L 119.819301 419.267368 
L 113.49474 410.87653 
L 103.240823 395.924206 
L 90 377.488531 
" clip-path="url(#p3770fcbe77)" style="fill: none; stroke: #9bd93c; stroke-width: 1.5"/>
   </g>
   <g id="PathCollection_19">
    <path d="M 155.724421 512.64 
L 136.989481 489.932604 
L 136.333739 489.296839 
L 116.302563 465.953677 
L 113.49474 461.736561 
L 96.77149 442.610529 
L 90 434.217174 
" clip-path="url(#p3770fcbe77)" style="fill: none; stroke: #bddf26; stroke-width: 1.5"/>
   </g>
   <g id="PathCollection_20">
    <path d="M 117.248556 512.64 
L 113.49474 508.985683 
L 97.193461 489.296839 
L 90 480.489431 
" clip-path="url(#p3770fcbe77)" style="fill: none; stroke: #dfe318; stroke-width: 1.5"/>
   </g>
   <g id="PathCollection_21"/>
   <g id="patch_3">
    <path d="M 90 512.64 
L 90 69.12 
" style="fill: none; stroke: #000000; stroke-width: 0.8; stroke-linejoin: miter; stroke-linecap: square"/>
   </g>
   <g id="patch_4">
    <path d="M 536.4 512.64 
L 536.4 69.12 
" style="fill: none; stroke: #000000; stroke-width: 0.8; stroke-linejoin: miter; stroke-linecap: square"/>
   </g>
   <g id="patch_5">
    <path d="M 90 512.64 
L 536.4 512.64 
" style="fill: none; stroke: #000000; stroke-width: 0.8; stroke-linejoin: miter; stroke-linecap: square"/>
   </g>
   <g id="patch_6">
    <path d="M 90 69.12 
L 536.4 69.12 
" style="fill: none; stroke: #000000; stroke-width: 0.8; stroke-linejoin: miter; stroke-linecap: square"/>
   </g>
   <g id="text_21">
    <!-- Loss Landscape Contour -->
    <g transform="translate(191.259375 63.12) scale(0.2 -0.2)">
     <defs>
      <path id="DejaVuSans-4c" d="M 628 4666 
L 1259 4666 
L 1259 531 
L 3531 531 
L 3531 0 
L 628 0 
L 628 4666 
z
" transform="scale(0.015625)"/>
      <path id="DejaVuSans-73" d="M 2834 3397 
L 2834 2853 
Q 2591 2978 2328 3040 
Q 2066 3103 1784 3103 
Q 1356 3103 1142 2972 
Q 928 2841 928 2578 
Q 928 2378 1081 2264 
Q 1234 2150 1697 2047 
L 1894 2003 
Q 2506 1872 2764 1633 
Q 3022 1394 3022 966 
Q 3022 478 2636 193 
Q 2250 -91 1575 -91 
Q 1294 -91 989 -36 
Q 684 19 347 128 
L 347 722 
Q 666 556 975 473 
Q 1284 391 1588 391 
Q 1994 391 2212 530 
Q 2431 669 2431 922 
Q 2431 1156 2273 1281 
Q 2116 1406 1581 1522 
L 1381 1569 
Q 847 1681 609 1914 
Q 372 2147 372 2553 
Q 372 3047 722 3315 
Q 1072 3584 1716 3584 
Q 2034 3584 2315 3537 
Q 2597 3491 2834 3397 
z
" transform="scale(0.015625)"/>
      <path id="DejaVuSans-61" d="M 2194 1759 
Q 1497 1759 1228 1600 
Q 959 1441 959 1056 
Q 959 750 1161 570 
Q 1363 391 1709 391 
Q 2188 391 2477 730 
Q 2766 1069 2766 1631 
L 2766 1759 
L 2194 1759 
z
M 3341 1997 
L 3341 0 
L 2766 0 
L 2766 531 
Q 2569 213 2275 61 
Q 1981 -91 1556 -91 
Q 1019 -91 701 211 
Q 384 513 384 1019 
Q 384 1609 779 1909 
Q 1175 2209 1959 2209 
L 2766 2209 
L 2766 2266 
Q 2766 2663 2505 2880 
Q 2244 3097 1772 3097 
Q 1472 3097 1187 3025 
Q 903 2953 641 2809 
L 641 3341 
Q 956 3463 1253 3523 
Q 1550 3584 1831 3584 
Q 2591 3584 2966 3190 
Q 3341 2797 3341 1997 
z
" transform="scale(0.015625)"/>
      <path id="DejaVuSans-64" d="M 2906 2969 
L 2906 4863 
L 3481 4863 
L 3481 0 
L 2906 0 
L 2906 525 
Q 2725 213 2448 61 
Q 2172 -91 1784 -91 
Q 1150 -91 751 415 
Q 353 922 353 1747 
Q 353 2572 751 3078 
Q 1150 3584 1784 3584 
Q 2172 3584 2448 3432 
Q 2725 3281 2906 2969 
z
M 947 1747 
Q 947 1113 1208 752 
Q 1469 391 1925 391 
Q 2381 391 2643 752 
Q 2906 1113 2906 1747 
Q 2906 2381 2643 2742 
Q 2381 3103 1925 3103 
Q 1469 3103 1208 2742 
Q 947 2381 947 1747 
z
" transform="scale(0.015625)"/>
      <path id="DejaVuSans-70" d="M 1159 525 
L 1159 -1331 
L 581 -1331 
L 581 3500 
L 1159 3500 
L 1159 2969 
Q 1341 3281 1617 3432 
Q 1894 3584 2278 3584 
Q 2916 3584 3314 3078 
Q 3713 2572 3713 1747 
Q 3713 922 3314 415 
Q 2916 -91 2278 -91 
Q 1894 -91 1617 61 
Q 1341 213 1159 525 
z
M 3116 1747 
Q 3116 2381 2855 2742 
Q 2594 3103 2138 3103 
Q 1681 3103 1420 2742 
Q 1159 2381 1159 1747 
Q 1159 1113 1420 752 
Q 1681 391 2138 391 
Q 2594 391 2855 752 
Q 3116 1113 3116 1747 
z
" transform="scale(0.015625)"/>
      <path id="DejaVuSans-43" d="M 4122 4306 
L 4122 3641 
Q 3803 3938 3442 4084 
Q 3081 4231 2675 4231 
Q 1875 4231 1450 3742 
Q 1025 3253 1025 2328 
Q 1025 1406 1450 917 
Q 1875 428 2675 428 
Q 3081 428 3442 575 
Q 3803 722 4122 1019 
L 4122 359 
Q 3791 134 3420 21 
Q 3050 -91 2638 -91 
Q 1578 -91 968 557 
Q 359 1206 359 2328 
Q 359 3453 968 4101 
Q 1578 4750 2638 4750 
Q 3056 4750 3426 4639 
Q 3797 4528 4122 4306 
z
" transform="scale(0.015625)"/>
      <path id="DejaVuSans-75" d="M 544 1381 
L 544 3500 
L 1119 3500 
L 1119 1403 
Q 1119 906 1312 657 
Q 1506 409 1894 409 
Q 2359 409 2629 706 
Q 2900 1003 2900 1516 
L 2900 3500 
L 3475 3500 
L 3475 0 
L 2900 0 
L 2900 538 
Q 2691 219 2414 64 
Q 2138 -91 1772 -91 
Q 1169 -91 856 284 
Q 544 659 544 1381 
z
M 1991 3584 
L 1991 3584 
z
" transform="scale(0.015625)"/>
     </defs>
     <use xlink:href="#DejaVuSans-4c"/>
     <use xlink:href="#DejaVuSans-6f" x="53.962891"/>
     <use xlink:href="#DejaVuSans-73" x="115.144531"/>
     <use xlink:href="#DejaVuSans-73" x="167.244141"/>
     <use xlink:href="#DejaVuSans-20" x="219.34375"/>
     <use xlink:href="#DejaVuSans-4c" x="251.130859"/>
     <use xlink:href="#DejaVuSans-61" x="306.84375"/>
     <use xlink:href="#DejaVuSans-6e" x="368.123047"/>
     <use xlink:href="#DejaVuSans-64" x="431.501953"/>
     <use xlink:href="#DejaVuSans-73" x="494.978516"/>
     <use xlink:href="#DejaVuSans-63" x="547.078125"/>
     <use xlink:href="#DejaVuSans-61" x="602.058594"/>
     <use xlink:href="#DejaVuSans-70" x="663.337891"/>
     <use xlink:href="#DejaVuSans-65" x="726.814453"/>
     <use xlink:href="#DejaVuSans-20" x="788.337891"/>
     <use xlink:href="#DejaVuSans-43" x="820.125"/>
     <use xlink:href="#DejaVuSans-6f" x="889.949219"/>
     <use xlink:href="#DejaVuSans-6e" x="951.130859"/>
     <use xlink:href="#DejaVuSans-74" x="1014.509766"/>
     <use xlink:href="#DejaVuSans-6f" x="1053.71875"/>
     <use xlink:href="#DejaVuSans-75" x="1114.900391"/>
     <use xlink:href="#DejaVuSans-72" x="1178.279297"/>
    </g>
   </g>
  </g>
  <g id="axes_2">
   <g id="patch_7">
    <path d="M 564.3 512.64 
L 586.476 512.64 
L 586.476 69.12 
L 564.3 69.12 
z
" style="fill: #ffffff"/>
   </g>
   <g id="patch_8">
    <path clip-path="url(#p4ab7cbbf66)" style="fill: #ffffff; stroke: #ffffff; stroke-width: 0.01; stroke-linejoin: miter"/>
   </g>
   <g id="matplotlib.axis_3"/>
   <g id="matplotlib.axis_4">
    <g id="ytick_10">
     <g id="line2d_37">
      <g>
       <use xlink:href="#m535be87741" x="586.476" y="512.64" style="stroke: #000000; stroke-width: 0.8"/>
      </g>
     </g>
     <g id="text_22">
      <!-- 0.0004500 -->
      <g transform="translate(589.976 518.71875) scale(0.16 -0.16)">
       <defs>
        <path id="DejaVuSans-34" d="M 2419 4116 
L 825 1625 
L 2419 1625 
L 2419 4116 
z
M 2253 4666 
L 3047 4666 
L 3047 1625 
L 3713 1625 
L 3713 1100 
L 3047 1100 
L 3047 0 
L 2419 0 
L 2419 1100 
L 313 1100 
L 313 1709 
L 2253 4666 
z
" transform="scale(0.015625)"/>
       </defs>
       <use xlink:href="#DejaVuSans-30"/>
       <use xlink:href="#DejaVuSans-2e" x="63.623047"/>
       <use xlink:href="#DejaVuSans-30" x="95.410156"/>
       <use xlink:href="#DejaVuSans-30" x="159.033203"/>
       <use xlink:href="#DejaVuSans-30" x="222.65625"/>
       <use xlink:href="#DejaVuSans-34" x="286.279297"/>
       <use xlink:href="#DejaVuSans-35" x="349.902344"/>
       <use xlink:href="#DejaVuSans-30" x="413.525391"/>
       <use xlink:href="#DejaVuSans-30" x="477.148438"/>
      </g>
     </g>
    </g>
    <g id="ytick_11">
     <g id="line2d_38">
      <g>
       <use xlink:href="#m535be87741" x="586.476" y="446.112" style="stroke: #000000; stroke-width: 0.8"/>
      </g>
     </g>
     <g id="text_23">
      <!-- 0.0004515 -->
      <g transform="translate(589.976 452.19075) scale(0.16 -0.16)">
       <use xlink:href="#DejaVuSans-30"/>
       <use xlink:href="#DejaVuSans-2e" x="63.623047"/>
       <use xlink:href="#DejaVuSans-30" x="95.410156"/>
       <use xlink:href="#DejaVuSans-30" x="159.033203"/>
       <use xlink:href="#DejaVuSans-30" x="222.65625"/>
       <use xlink:href="#DejaVuSans-34" x="286.279297"/>
       <use xlink:href="#DejaVuSans-35" x="349.902344"/>
       <use xlink:href="#DejaVuSans-31" x="413.525391"/>
       <use xlink:href="#DejaVuSans-35" x="477.148438"/>
      </g>
     </g>
    </g>
    <g id="ytick_12">
     <g id="line2d_39">
      <g>
       <use xlink:href="#m535be87741" x="586.476" y="379.584" style="stroke: #000000; stroke-width: 0.8"/>
      </g>
     </g>
     <g id="text_24">
      <!-- 0.0004530 -->
      <g transform="translate(589.976 385.66275) scale(0.16 -0.16)">
       <defs>
        <path id="DejaVuSans-33" d="M 2597 2516 
Q 3050 2419 3304 2112 
Q 3559 1806 3559 1356 
Q 3559 666 3084 287 
Q 2609 -91 1734 -91 
Q 1441 -91 1130 -33 
Q 819 25 488 141 
L 488 750 
Q 750 597 1062 519 
Q 1375 441 1716 441 
Q 2309 441 2620 675 
Q 2931 909 2931 1356 
Q 2931 1769 2642 2001 
Q 2353 2234 1838 2234 
L 1294 2234 
L 1294 2753 
L 1863 2753 
Q 2328 2753 2575 2939 
Q 2822 3125 2822 3475 
Q 2822 3834 2567 4026 
Q 2313 4219 1838 4219 
Q 1578 4219 1281 4162 
Q 984 4106 628 3988 
L 628 4550 
Q 988 4650 1302 4700 
Q 1616 4750 1894 4750 
Q 2613 4750 3031 4423 
Q 3450 4097 3450 3541 
Q 3450 3153 3228 2886 
Q 3006 2619 2597 2516 
z
" transform="scale(0.015625)"/>
       </defs>
       <use xlink:href="#DejaVuSans-30"/>
       <use xlink:href="#DejaVuSans-2e" x="63.623047"/>
       <use xlink:href="#DejaVuSans-30" x="95.410156"/>
       <use xlink:href="#DejaVuSans-30" x="159.033203"/>
       <use xlink:href="#DejaVuSans-30" x="222.65625"/>
       <use xlink:href="#DejaVuSans-34" x="286.279297"/>
       <use xlink:href="#DejaVuSans-35" x="349.902344"/>
       <use xlink:href="#DejaVuSans-33" x="413.525391"/>
       <use xlink:href="#DejaVuSans-30" x="477.148438"/>
      </g>
     </g>
    </g>
    <g id="ytick_13">
     <g id="line2d_40">
      <g>
       <use xlink:href="#m535be87741" x="586.476" y="313.056" style="stroke: #000000; stroke-width: 0.8"/>
      </g>
     </g>
     <g id="text_25">
      <!-- 0.0004545 -->
      <g transform="translate(589.976 319.13475) scale(0.16 -0.16)">
       <use xlink:href="#DejaVuSans-30"/>
       <use xlink:href="#DejaVuSans-2e" x="63.623047"/>
       <use xlink:href="#DejaVuSans-30" x="95.410156"/>
       <use xlink:href="#DejaVuSans-30" x="159.033203"/>
       <use xlink:href="#DejaVuSans-30" x="222.65625"/>
       <use xlink:href="#DejaVuSans-34" x="286.279297"/>
       <use xlink:href="#DejaVuSans-35" x="349.902344"/>
       <use xlink:href="#DejaVuSans-34" x="413.525391"/>
       <use xlink:href="#DejaVuSans-35" x="477.148438"/>
      </g>
     </g>
    </g>
    <g id="ytick_14">
     <g id="line2d_41">
      <g>
       <use xlink:href="#m535be87741" x="586.476" y="246.528" style="stroke: #000000; stroke-width: 0.8"/>
      </g>
     </g>
     <g id="text_26">
      <!-- 0.0004560 -->
      <g transform="translate(589.976 252.60675) scale(0.16 -0.16)">
       <defs>
        <path id="DejaVuSans-36" d="M 2113 2584 
Q 1688 2584 1439 2293 
Q 1191 2003 1191 1497 
Q 1191 994 1439 701 
Q 1688 409 2113 409 
Q 2538 409 2786 701 
Q 3034 994 3034 1497 
Q 3034 2003 2786 2293 
Q 2538 2584 2113 2584 
z
M 3366 4563 
L 3366 3988 
Q 3128 4100 2886 4159 
Q 2644 4219 2406 4219 
Q 1781 4219 1451 3797 
Q 1122 3375 1075 2522 
Q 1259 2794 1537 2939 
Q 1816 3084 2150 3084 
Q 2853 3084 3261 2657 
Q 3669 2231 3669 1497 
Q 3669 778 3244 343 
Q 2819 -91 2113 -91 
Q 1303 -91 875 529 
Q 447 1150 447 2328 
Q 447 3434 972 4092 
Q 1497 4750 2381 4750 
Q 2619 4750 2861 4703 
Q 3103 4656 3366 4563 
z
" transform="scale(0.015625)"/>
       </defs>
       <use xlink:href="#DejaVuSans-30"/>
       <use xlink:href="#DejaVuSans-2e" x="63.623047"/>
       <use xlink:href="#DejaVuSans-30" x="95.410156"/>
       <use xlink:href="#DejaVuSans-30" x="159.033203"/>
       <use xlink:href="#DejaVuSans-30" x="222.65625"/>
       <use xlink:href="#DejaVuSans-34" x="286.279297"/>
       <use xlink:href="#DejaVuSans-35" x="349.902344"/>
       <use xlink:href="#DejaVuSans-36" x="413.525391"/>
       <use xlink:href="#DejaVuSans-30" x="477.148438"/>
      </g>
     </g>
    </g>
    <g id="ytick_15">
     <g id="line2d_42">
      <g>
       <use xlink:href="#m535be87741" x="586.476" y="180" style="stroke: #000000; stroke-width: 0.8"/>
      </g>
     </g>
     <g id="text_27">
      <!-- 0.0004575 -->
      <g transform="translate(589.976 186.07875) scale(0.16 -0.16)">
       <use xlink:href="#DejaVuSans-30"/>
       <use xlink:href="#DejaVuSans-2e" x="63.623047"/>
       <use xlink:href="#DejaVuSans-30" x="95.410156"/>
       <use xlink:href="#DejaVuSans-30" x="159.033203"/>
       <use xlink:href="#DejaVuSans-30" x="222.65625"/>
       <use xlink:href="#DejaVuSans-34" x="286.279297"/>
       <use xlink:href="#DejaVuSans-35" x="349.902344"/>
       <use xlink:href="#DejaVuSans-37" x="413.525391"/>
       <use xlink:href="#DejaVuSans-35" x="477.148438"/>
      </g>
     </g>
    </g>
    <g id="ytick_16">
     <g id="line2d_43">
      <g>
       <use xlink:href="#m535be87741" x="586.476" y="113.472" style="stroke: #000000; stroke-width: 0.8"/>
      </g>
     </g>
     <g id="text_28">
      <!-- 0.0004590 -->
      <g transform="translate(589.976 119.55075) scale(0.16 -0.16)">
       <defs>
        <path id="DejaVuSans-39" d="M 703 97 
L 703 672 
Q 941 559 1184 500 
Q 1428 441 1663 441 
Q 2288 441 2617 861 
Q 2947 1281 2994 2138 
Q 2813 1869 2534 1725 
Q 2256 1581 1919 1581 
Q 1219 1581 811 2004 
Q 403 2428 403 3163 
Q 403 3881 828 4315 
Q 1253 4750 1959 4750 
Q 2769 4750 3195 4129 
Q 3622 3509 3622 2328 
Q 3622 1225 3098 567 
Q 2575 -91 1691 -91 
Q 1453 -91 1209 -44 
Q 966 3 703 97 
z
M 1959 2075 
Q 2384 2075 2632 2365 
Q 2881 2656 2881 3163 
Q 2881 3666 2632 3958 
Q 2384 4250 1959 4250 
Q 1534 4250 1286 3958 
Q 1038 3666 1038 3163 
Q 1038 2656 1286 2365 
Q 1534 2075 1959 2075 
z
" transform="scale(0.015625)"/>
       </defs>
       <use xlink:href="#DejaVuSans-30"/>
       <use xlink:href="#DejaVuSans-2e" x="63.623047"/>
       <use xlink:href="#DejaVuSans-30" x="95.410156"/>
       <use xlink:href="#DejaVuSans-30" x="159.033203"/>
       <use xlink:href="#DejaVuSans-30" x="222.65625"/>
       <use xlink:href="#DejaVuSans-34" x="286.279297"/>
       <use xlink:href="#DejaVuSans-35" x="349.902344"/>
       <use xlink:href="#DejaVuSans-39" x="413.525391"/>
       <use xlink:href="#DejaVuSans-30" x="477.148438"/>
      </g>
     </g>
    </g>
    <g id="text_29">
     <!-- Loss -->
     <g transform="translate(688.099438 301.847188) rotate(-90) scale(0.1 -0.1)">
      <use xlink:href="#DejaVuSans-4c"/>
      <use xlink:href="#DejaVuSans-6f" x="53.962891"/>
      <use xlink:href="#DejaVuSans-73" x="115.144531"/>
      <use xlink:href="#DejaVuSans-73" x="167.244141"/>
     </g>
    </g>
   </g>
   <g id="LineCollection_1"/>
   <g id="LineCollection_2">
    <path d="M 564.3 512.64 
L 586.476 512.64 
" clip-path="url(#pb45edbaf19)" style="fill: none; stroke: #440154; stroke-width: 1.5"/>
    <path d="M 564.3 490.464 
L 586.476 490.464 
" clip-path="url(#pb45edbaf19)" style="fill: none; stroke: #471365; stroke-width: 1.5"/>
    <path d="M 564.3 468.288 
L 586.476 468.288 
" clip-path="url(#pb45edbaf19)" style="fill: none; stroke: #482475; stroke-width: 1.5"/>
    <path d="M 564.3 446.112 
L 586.476 446.112 
" clip-path="url(#pb45edbaf19)" style="fill: none; stroke: #463480; stroke-width: 1.5"/>
    <path d="M 564.3 423.936 
L 586.476 423.936 
" clip-path="url(#pb45edbaf19)" style="fill: none; stroke: #414487; stroke-width: 1.5"/>
    <path d="M 564.3 401.76 
L 586.476 401.76 
" clip-path="url(#pb45edbaf19)" style="fill: none; stroke: #3b528b; stroke-width: 1.5"/>
    <path d="M 564.3 379.584 
L 586.476 379.584 
" clip-path="url(#pb45edbaf19)" style="fill: none; stroke: #355f8d; stroke-width: 1.5"/>
    <path d="M 564.3 357.408 
L 586.476 357.408 
" clip-path="url(#pb45edbaf19)" style="fill: none; stroke: #2f6c8e; stroke-width: 1.5"/>
    <path d="M 564.3 335.232 
L 586.476 335.232 
" clip-path="url(#pb45edbaf19)" style="fill: none; stroke: #2a788e; stroke-width: 1.5"/>
    <path d="M 564.3 313.056 
L 586.476 313.056 
" clip-path="url(#pb45edbaf19)" style="fill: none; stroke: #25848e; stroke-width: 1.5"/>
    <path d="M 564.3 290.88 
L 586.476 290.88 
" clip-path="url(#pb45edbaf19)" style="fill: none; stroke: #21918c; stroke-width: 1.5"/>
    <path d="M 564.3 268.704 
L 586.476 268.704 
" clip-path="url(#pb45edbaf19)" style="fill: none; stroke: #1e9c89; stroke-width: 1.5"/>
    <path d="M 564.3 246.528 
L 586.476 246.528 
" clip-path="url(#pb45edbaf19)" style="fill: none; stroke: #22a884; stroke-width: 1.5"/>
    <path d="M 564.3 224.352 
L 586.476 224.352 
" clip-path="url(#pb45edbaf19)" style="fill: none; stroke: #2fb47c; stroke-width: 1.5"/>
    <path d="M 564.3 202.176 
L 586.476 202.176 
" clip-path="url(#pb45edbaf19)" style="fill: none; stroke: #44bf70; stroke-width: 1.5"/>
    <path d="M 564.3 180 
L 586.476 180 
" clip-path="url(#pb45edbaf19)" style="fill: none; stroke: #5ec962; stroke-width: 1.5"/>
    <path d="M 564.3 157.824 
L 586.476 157.824 
" clip-path="url(#pb45edbaf19)" style="fill: none; stroke: #7ad151; stroke-width: 1.5"/>
    <path d="M 564.3 135.648 
L 586.476 135.648 
" clip-path="url(#pb45edbaf19)" style="fill: none; stroke: #9bd93c; stroke-width: 1.5"/>
    <path d="M 564.3 113.472 
L 586.476 113.472 
" clip-path="url(#pb45edbaf19)" style="fill: none; stroke: #bddf26; stroke-width: 1.5"/>
    <path d="M 564.3 91.296 
L 586.476 91.296 
" clip-path="url(#pb45edbaf19)" style="fill: none; stroke: #dfe318; stroke-width: 1.5"/>
    <path d="M 564.3 69.12 
L 586.476 69.12 
" clip-path="url(#pb45edbaf19)" style="fill: none; stroke: #fde725; stroke-width: 1.5"/>
   </g>
   <g id="patch_9">
    <path d="M 564.3 512.64 
L 575.388 512.64 
L 586.476 512.64 
L 586.476 69.12 
L 575.388 69.12 
L 564.3 69.12 
L 564.3 512.64 
z
" style="fill: none; stroke: #000000; stroke-width: 0.8; stroke-linejoin: miter; stroke-linecap: square"/>
   </g>
  </g>
 </g>
 <defs>
  <clipPath id="p3770fcbe77">
   <rect x="90" y="69.12" width="446.4" height="443.52"/>
  </clipPath>
  <clipPath id="p4ab7cbbf66">
   <rect x="564.3" y="69.12" width="22.176" height="443.52"/>
  </clipPath>
  <clipPath id="pb45edbaf19">
   <path d="M 564.3 514.14 
L 586.476 514.14 
L 586.476 67.62 
L 564.3 67.62 
z
"/>
  </clipPath>
 </defs>
</svg>
